%TF.GenerationSoftware,KiCad,Pcbnew,8.0.7*%
%TF.CreationDate,2024-12-29T17:01:10+01:00*%
%TF.ProjectId,ESP32ScoringDeviceV1.1,45535033-3253-4636-9f72-696e67446576,1.1*%
%TF.SameCoordinates,Original*%
%TF.FileFunction,Drillmap*%
%TF.FilePolarity,Positive*%
%FSLAX45Y45*%
G04 Gerber Fmt 4.5, Leading zero omitted, Abs format (unit mm)*
G04 Created by KiCad (PCBNEW 8.0.7) date 2024-12-29 17:01:10*
%MOMM*%
%LPD*%
G01*
G04 APERTURE LIST*
%ADD10C,0.100000*%
%ADD11C,0.200000*%
%ADD12C,0.220000*%
G04 APERTURE END LIST*
D10*
X14478000Y-13208000D02*
X7874000Y-13208000D01*
X7874000Y-7874000D01*
X14478000Y-7874000D01*
X14478000Y-13208000D01*
D11*
D10*
X8598500Y-8852500D02*
X8673500Y-8927500D01*
X8673500Y-8852500D02*
X8598500Y-8927500D01*
X8725500Y-8852500D02*
X8800500Y-8927500D01*
X8800500Y-8852500D02*
X8725500Y-8927500D01*
X8852500Y-8852500D02*
X8927500Y-8927500D01*
X8927500Y-8852500D02*
X8852500Y-8927500D01*
X13678500Y-9868500D02*
X13753500Y-9943500D01*
X13753500Y-9868500D02*
X13678500Y-9943500D01*
X13805500Y-9868500D02*
X13880500Y-9943500D01*
X13880500Y-9868500D02*
X13805500Y-9943500D01*
X13932500Y-9868500D02*
X14007500Y-9943500D01*
X14007500Y-9868500D02*
X13932500Y-9943500D01*
X9944100Y-8636000D02*
G75*
G02*
X9867900Y-8636000I-38100J0D01*
G01*
X9867900Y-8636000D02*
G75*
G02*
X9944100Y-8636000I38100J0D01*
G01*
X9944100Y-8890000D02*
G75*
G02*
X9867900Y-8890000I-38100J0D01*
G01*
X9867900Y-8890000D02*
G75*
G02*
X9944100Y-8890000I38100J0D01*
G01*
X9944100Y-9144000D02*
G75*
G02*
X9867900Y-9144000I-38100J0D01*
G01*
X9867900Y-9144000D02*
G75*
G02*
X9944100Y-9144000I38100J0D01*
G01*
X9944100Y-9398000D02*
G75*
G02*
X9867900Y-9398000I-38100J0D01*
G01*
X9867900Y-9398000D02*
G75*
G02*
X9944100Y-9398000I38100J0D01*
G01*
X9944100Y-9652000D02*
G75*
G02*
X9867900Y-9652000I-38100J0D01*
G01*
X9867900Y-9652000D02*
G75*
G02*
X9944100Y-9652000I38100J0D01*
G01*
X9944100Y-9906000D02*
G75*
G02*
X9867900Y-9906000I-38100J0D01*
G01*
X9867900Y-9906000D02*
G75*
G02*
X9944100Y-9906000I38100J0D01*
G01*
X9944100Y-10160000D02*
G75*
G02*
X9867900Y-10160000I-38100J0D01*
G01*
X9867900Y-10160000D02*
G75*
G02*
X9944100Y-10160000I38100J0D01*
G01*
X9944100Y-10414000D02*
G75*
G02*
X9867900Y-10414000I-38100J0D01*
G01*
X9867900Y-10414000D02*
G75*
G02*
X9944100Y-10414000I38100J0D01*
G01*
X9944100Y-10668000D02*
G75*
G02*
X9867900Y-10668000I-38100J0D01*
G01*
X9867900Y-10668000D02*
G75*
G02*
X9944100Y-10668000I38100J0D01*
G01*
X9944100Y-10922000D02*
G75*
G02*
X9867900Y-10922000I-38100J0D01*
G01*
X9867900Y-10922000D02*
G75*
G02*
X9944100Y-10922000I38100J0D01*
G01*
X9944100Y-11176000D02*
G75*
G02*
X9867900Y-11176000I-38100J0D01*
G01*
X9867900Y-11176000D02*
G75*
G02*
X9944100Y-11176000I38100J0D01*
G01*
X9944100Y-11430000D02*
G75*
G02*
X9867900Y-11430000I-38100J0D01*
G01*
X9867900Y-11430000D02*
G75*
G02*
X9944100Y-11430000I38100J0D01*
G01*
X9944100Y-11684000D02*
G75*
G02*
X9867900Y-11684000I-38100J0D01*
G01*
X9867900Y-11684000D02*
G75*
G02*
X9944100Y-11684000I38100J0D01*
G01*
X9944100Y-11938000D02*
G75*
G02*
X9867900Y-11938000I-38100J0D01*
G01*
X9867900Y-11938000D02*
G75*
G02*
X9944100Y-11938000I38100J0D01*
G01*
X9944100Y-12192000D02*
G75*
G02*
X9867900Y-12192000I-38100J0D01*
G01*
X9867900Y-12192000D02*
G75*
G02*
X9944100Y-12192000I38100J0D01*
G01*
X12484100Y-8636000D02*
G75*
G02*
X12407900Y-8636000I-38100J0D01*
G01*
X12407900Y-8636000D02*
G75*
G02*
X12484100Y-8636000I38100J0D01*
G01*
X12484100Y-8890000D02*
G75*
G02*
X12407900Y-8890000I-38100J0D01*
G01*
X12407900Y-8890000D02*
G75*
G02*
X12484100Y-8890000I38100J0D01*
G01*
X12484100Y-9144000D02*
G75*
G02*
X12407900Y-9144000I-38100J0D01*
G01*
X12407900Y-9144000D02*
G75*
G02*
X12484100Y-9144000I38100J0D01*
G01*
X12484100Y-9398000D02*
G75*
G02*
X12407900Y-9398000I-38100J0D01*
G01*
X12407900Y-9398000D02*
G75*
G02*
X12484100Y-9398000I38100J0D01*
G01*
X12484100Y-9652000D02*
G75*
G02*
X12407900Y-9652000I-38100J0D01*
G01*
X12407900Y-9652000D02*
G75*
G02*
X12484100Y-9652000I38100J0D01*
G01*
X12484100Y-9906000D02*
G75*
G02*
X12407900Y-9906000I-38100J0D01*
G01*
X12407900Y-9906000D02*
G75*
G02*
X12484100Y-9906000I38100J0D01*
G01*
X12484100Y-10160000D02*
G75*
G02*
X12407900Y-10160000I-38100J0D01*
G01*
X12407900Y-10160000D02*
G75*
G02*
X12484100Y-10160000I38100J0D01*
G01*
X12484100Y-10414000D02*
G75*
G02*
X12407900Y-10414000I-38100J0D01*
G01*
X12407900Y-10414000D02*
G75*
G02*
X12484100Y-10414000I38100J0D01*
G01*
X12484100Y-10668000D02*
G75*
G02*
X12407900Y-10668000I-38100J0D01*
G01*
X12407900Y-10668000D02*
G75*
G02*
X12484100Y-10668000I38100J0D01*
G01*
X12484100Y-10922000D02*
G75*
G02*
X12407900Y-10922000I-38100J0D01*
G01*
X12407900Y-10922000D02*
G75*
G02*
X12484100Y-10922000I38100J0D01*
G01*
X12484100Y-11176000D02*
G75*
G02*
X12407900Y-11176000I-38100J0D01*
G01*
X12407900Y-11176000D02*
G75*
G02*
X12484100Y-11176000I38100J0D01*
G01*
X12484100Y-11430000D02*
G75*
G02*
X12407900Y-11430000I-38100J0D01*
G01*
X12407900Y-11430000D02*
G75*
G02*
X12484100Y-11430000I38100J0D01*
G01*
X12484100Y-11684000D02*
G75*
G02*
X12407900Y-11684000I-38100J0D01*
G01*
X12407900Y-11684000D02*
G75*
G02*
X12484100Y-11684000I38100J0D01*
G01*
X12484100Y-11938000D02*
G75*
G02*
X12407900Y-11938000I-38100J0D01*
G01*
X12407900Y-11938000D02*
G75*
G02*
X12484100Y-11938000I38100J0D01*
G01*
X12484100Y-12192000D02*
G75*
G02*
X12407900Y-12192000I-38100J0D01*
G01*
X12407900Y-12192000D02*
G75*
G02*
X12484100Y-12192000I38100J0D01*
G01*
X8128000Y-8596000D02*
X8128000Y-8676000D01*
X8088000Y-8636000D02*
X8168000Y-8636000D01*
X8128000Y-9612000D02*
X8128000Y-9692000D01*
X8088000Y-9652000D02*
X8168000Y-9652000D01*
X9398000Y-11906000D02*
X9398000Y-11986000D01*
X9358000Y-11946000D02*
X9438000Y-11946000D01*
X9398000Y-12406000D02*
X9398000Y-12486000D01*
X9358000Y-12446000D02*
X9438000Y-12446000D01*
X10668000Y-8850000D02*
X10668000Y-8930000D01*
X10628000Y-8890000D02*
X10708000Y-8890000D01*
X10668000Y-9104000D02*
X10668000Y-9184000D01*
X10628000Y-9144000D02*
X10708000Y-9144000D01*
X10668000Y-9358000D02*
X10668000Y-9438000D01*
X10628000Y-9398000D02*
X10708000Y-9398000D01*
X10668000Y-9612000D02*
X10668000Y-9692000D01*
X10628000Y-9652000D02*
X10708000Y-9652000D01*
X10668000Y-9866000D02*
X10668000Y-9946000D01*
X10628000Y-9906000D02*
X10708000Y-9906000D01*
X10668000Y-10120000D02*
X10668000Y-10200000D01*
X10628000Y-10160000D02*
X10708000Y-10160000D01*
X10668000Y-10374000D02*
X10668000Y-10454000D01*
X10628000Y-10414000D02*
X10708000Y-10414000D01*
X10668000Y-10628000D02*
X10668000Y-10708000D01*
X10628000Y-10668000D02*
X10708000Y-10668000D01*
X11684000Y-8850000D02*
X11684000Y-8930000D01*
X11644000Y-8890000D02*
X11724000Y-8890000D01*
X11684000Y-9104000D02*
X11684000Y-9184000D01*
X11644000Y-9144000D02*
X11724000Y-9144000D01*
X11684000Y-9358000D02*
X11684000Y-9438000D01*
X11644000Y-9398000D02*
X11724000Y-9398000D01*
X11684000Y-9612000D02*
X11684000Y-9692000D01*
X11644000Y-9652000D02*
X11724000Y-9652000D01*
X11684000Y-9866000D02*
X11684000Y-9946000D01*
X11644000Y-9906000D02*
X11724000Y-9906000D01*
X11684000Y-10120000D02*
X11684000Y-10200000D01*
X11644000Y-10160000D02*
X11724000Y-10160000D01*
X11684000Y-10374000D02*
X11684000Y-10454000D01*
X11644000Y-10414000D02*
X11724000Y-10414000D01*
X11684000Y-10628000D02*
X11684000Y-10708000D01*
X11644000Y-10668000D02*
X11724000Y-10668000D01*
X12954000Y-11906000D02*
X12954000Y-11986000D01*
X12914000Y-11946000D02*
X12994000Y-11946000D01*
X12954000Y-12406000D02*
X12954000Y-12486000D01*
X12914000Y-12446000D02*
X12994000Y-12446000D01*
X13462000Y-10120000D02*
X13462000Y-10200000D01*
X13422000Y-10160000D02*
X13502000Y-10160000D01*
X13462000Y-11136000D02*
X13462000Y-11216000D01*
X13422000Y-11176000D02*
X13502000Y-11176000D01*
X13778000Y-10374000D02*
X13778000Y-10454000D01*
X13738000Y-10414000D02*
X13818000Y-10414000D01*
X13778000Y-11390000D02*
X13778000Y-11470000D01*
X13738000Y-11430000D02*
X13818000Y-11430000D01*
X8671356Y-9433356D02*
X8671356Y-9362644D01*
X8600644Y-9362644D01*
X8600644Y-9433356D01*
X8671356Y-9433356D01*
X8671356Y-9687356D02*
X8671356Y-9616644D01*
X8600644Y-9616644D01*
X8600644Y-9687356D01*
X8671356Y-9687356D01*
X8671356Y-10195356D02*
X8671356Y-10124644D01*
X8600644Y-10124644D01*
X8600644Y-10195356D01*
X8671356Y-10195356D01*
X8671356Y-10449356D02*
X8671356Y-10378644D01*
X8600644Y-10378644D01*
X8600644Y-10449356D01*
X8671356Y-10449356D01*
X8671356Y-10703356D02*
X8671356Y-10632644D01*
X8600644Y-10632644D01*
X8600644Y-10703356D01*
X8671356Y-10703356D01*
X8671356Y-11981356D02*
X8671356Y-11910644D01*
X8600644Y-11910644D01*
X8600644Y-11981356D01*
X8671356Y-11981356D01*
X8671356Y-12481356D02*
X8671356Y-12410644D01*
X8600644Y-12410644D01*
X8600644Y-12481356D01*
X8671356Y-12481356D01*
X9433356Y-10449356D02*
X9433356Y-10378644D01*
X9362644Y-10378644D01*
X9362644Y-10449356D01*
X9433356Y-10449356D01*
X9433356Y-10703356D02*
X9433356Y-10632644D01*
X9362644Y-10632644D01*
X9362644Y-10703356D01*
X9433356Y-10703356D01*
X9433356Y-10957356D02*
X9433356Y-10886644D01*
X9362644Y-10886644D01*
X9362644Y-10957356D01*
X9433356Y-10957356D01*
X9433356Y-11211356D02*
X9433356Y-11140644D01*
X9362644Y-11140644D01*
X9362644Y-11211356D01*
X9433356Y-11211356D01*
X9433356Y-11465356D02*
X9433356Y-11394644D01*
X9362644Y-11394644D01*
X9362644Y-11465356D01*
X9433356Y-11465356D01*
X9463356Y-8417856D02*
X9463356Y-8347144D01*
X9392644Y-8347144D01*
X9392644Y-8417856D01*
X9463356Y-8417856D01*
X9463356Y-8671856D02*
X9463356Y-8601144D01*
X9392644Y-8601144D01*
X9392644Y-8671856D01*
X9463356Y-8671856D01*
X9463356Y-8925856D02*
X9463356Y-8855144D01*
X9392644Y-8855144D01*
X9392644Y-8925856D01*
X9463356Y-8925856D01*
X9463356Y-9179856D02*
X9463356Y-9109144D01*
X9392644Y-9109144D01*
X9392644Y-9179856D01*
X9463356Y-9179856D01*
X9463356Y-9433856D02*
X9463356Y-9363144D01*
X9392644Y-9363144D01*
X9392644Y-9433856D01*
X9463356Y-9433856D01*
X9463356Y-9687856D02*
X9463356Y-9617144D01*
X9392644Y-9617144D01*
X9392644Y-9687856D01*
X9463356Y-9687856D01*
X9463356Y-9941856D02*
X9463356Y-9871144D01*
X9392644Y-9871144D01*
X9392644Y-9941856D01*
X9463356Y-9941856D01*
X12989356Y-9179356D02*
X12989356Y-9108644D01*
X12918644Y-9108644D01*
X12918644Y-9179356D01*
X12989356Y-9179356D01*
X12989356Y-9433356D02*
X12989356Y-9362644D01*
X12918644Y-9362644D01*
X12918644Y-9433356D01*
X12989356Y-9433356D01*
X12989356Y-10703356D02*
X12989356Y-10632644D01*
X12918644Y-10632644D01*
X12918644Y-10703356D01*
X12989356Y-10703356D01*
X12989356Y-10957356D02*
X12989356Y-10886644D01*
X12918644Y-10886644D01*
X12918644Y-10957356D01*
X12989356Y-10957356D01*
X12989356Y-11211356D02*
X12989356Y-11140644D01*
X12918644Y-11140644D01*
X12918644Y-11211356D01*
X12989356Y-11211356D01*
X12989356Y-11465356D02*
X12989356Y-11394644D01*
X12918644Y-11394644D01*
X12918644Y-11465356D01*
X12989356Y-11465356D01*
X13243356Y-9433356D02*
X13243356Y-9362644D01*
X13172644Y-9362644D01*
X13172644Y-9433356D01*
X13243356Y-9433356D01*
X13497356Y-9433356D02*
X13497356Y-9362644D01*
X13426644Y-9362644D01*
X13426644Y-9433356D01*
X13497356Y-9433356D01*
X13751356Y-11981356D02*
X13751356Y-11910644D01*
X13680644Y-11910644D01*
X13680644Y-11981356D01*
X13751356Y-11981356D01*
X13751356Y-12481356D02*
X13751356Y-12410644D01*
X13680644Y-12410644D01*
X13680644Y-12481356D01*
X13751356Y-12481356D01*
X14259356Y-10703356D02*
X14259356Y-10632644D01*
X14188644Y-10632644D01*
X14188644Y-10703356D01*
X14259356Y-10703356D01*
X14259356Y-10957356D02*
X14259356Y-10886644D01*
X14188644Y-10886644D01*
X14188644Y-10957356D01*
X14259356Y-10957356D01*
D12*
X8128000Y-8214000D02*
X8238000Y-8104000D01*
X8128000Y-7994000D01*
X8018000Y-8104000D01*
X8128000Y-8214000D01*
X8128000Y-13064000D02*
X8238000Y-12954000D01*
X8128000Y-12844000D01*
X8018000Y-12954000D01*
X8128000Y-13064000D01*
X14228000Y-8214000D02*
X14338000Y-8104000D01*
X14228000Y-7994000D01*
X14118000Y-8104000D01*
X14228000Y-8214000D01*
X14228000Y-13064000D02*
X14338000Y-12954000D01*
X14228000Y-12844000D01*
X14118000Y-12954000D01*
X14228000Y-13064000D01*
D11*
X8129777Y-13524484D02*
X8129777Y-13324484D01*
X8129777Y-13324484D02*
X8177396Y-13324484D01*
X8177396Y-13324484D02*
X8205967Y-13334008D01*
X8205967Y-13334008D02*
X8225015Y-13353055D01*
X8225015Y-13353055D02*
X8234539Y-13372103D01*
X8234539Y-13372103D02*
X8244062Y-13410198D01*
X8244062Y-13410198D02*
X8244062Y-13438769D01*
X8244062Y-13438769D02*
X8234539Y-13476865D01*
X8234539Y-13476865D02*
X8225015Y-13495912D01*
X8225015Y-13495912D02*
X8205967Y-13514960D01*
X8205967Y-13514960D02*
X8177396Y-13524484D01*
X8177396Y-13524484D02*
X8129777Y-13524484D01*
X8329777Y-13524484D02*
X8329777Y-13391150D01*
X8329777Y-13429246D02*
X8339301Y-13410198D01*
X8339301Y-13410198D02*
X8348824Y-13400674D01*
X8348824Y-13400674D02*
X8367872Y-13391150D01*
X8367872Y-13391150D02*
X8386920Y-13391150D01*
X8453586Y-13524484D02*
X8453586Y-13391150D01*
X8453586Y-13324484D02*
X8444063Y-13334008D01*
X8444063Y-13334008D02*
X8453586Y-13343531D01*
X8453586Y-13343531D02*
X8463110Y-13334008D01*
X8463110Y-13334008D02*
X8453586Y-13324484D01*
X8453586Y-13324484D02*
X8453586Y-13343531D01*
X8577396Y-13524484D02*
X8558348Y-13514960D01*
X8558348Y-13514960D02*
X8548824Y-13495912D01*
X8548824Y-13495912D02*
X8548824Y-13324484D01*
X8682158Y-13524484D02*
X8663110Y-13514960D01*
X8663110Y-13514960D02*
X8653586Y-13495912D01*
X8653586Y-13495912D02*
X8653586Y-13324484D01*
X8910729Y-13524484D02*
X8910729Y-13324484D01*
X8910729Y-13324484D02*
X8977396Y-13467341D01*
X8977396Y-13467341D02*
X9044063Y-13324484D01*
X9044063Y-13324484D02*
X9044063Y-13524484D01*
X9225015Y-13524484D02*
X9225015Y-13419722D01*
X9225015Y-13419722D02*
X9215491Y-13400674D01*
X9215491Y-13400674D02*
X9196444Y-13391150D01*
X9196444Y-13391150D02*
X9158348Y-13391150D01*
X9158348Y-13391150D02*
X9139301Y-13400674D01*
X9225015Y-13514960D02*
X9205967Y-13524484D01*
X9205967Y-13524484D02*
X9158348Y-13524484D01*
X9158348Y-13524484D02*
X9139301Y-13514960D01*
X9139301Y-13514960D02*
X9129777Y-13495912D01*
X9129777Y-13495912D02*
X9129777Y-13476865D01*
X9129777Y-13476865D02*
X9139301Y-13457817D01*
X9139301Y-13457817D02*
X9158348Y-13448293D01*
X9158348Y-13448293D02*
X9205967Y-13448293D01*
X9205967Y-13448293D02*
X9225015Y-13438769D01*
X9320253Y-13391150D02*
X9320253Y-13591150D01*
X9320253Y-13400674D02*
X9339301Y-13391150D01*
X9339301Y-13391150D02*
X9377396Y-13391150D01*
X9377396Y-13391150D02*
X9396444Y-13400674D01*
X9396444Y-13400674D02*
X9405967Y-13410198D01*
X9405967Y-13410198D02*
X9415491Y-13429246D01*
X9415491Y-13429246D02*
X9415491Y-13486388D01*
X9415491Y-13486388D02*
X9405967Y-13505436D01*
X9405967Y-13505436D02*
X9396444Y-13514960D01*
X9396444Y-13514960D02*
X9377396Y-13524484D01*
X9377396Y-13524484D02*
X9339301Y-13524484D01*
X9339301Y-13524484D02*
X9320253Y-13514960D01*
X9501205Y-13505436D02*
X9510729Y-13514960D01*
X9510729Y-13514960D02*
X9501205Y-13524484D01*
X9501205Y-13524484D02*
X9491682Y-13514960D01*
X9491682Y-13514960D02*
X9501205Y-13505436D01*
X9501205Y-13505436D02*
X9501205Y-13524484D01*
X9501205Y-13400674D02*
X9510729Y-13410198D01*
X9510729Y-13410198D02*
X9501205Y-13419722D01*
X9501205Y-13419722D02*
X9491682Y-13410198D01*
X9491682Y-13410198D02*
X9501205Y-13400674D01*
X9501205Y-13400674D02*
X9501205Y-13419722D01*
D10*
X7794000Y-13815500D02*
X7869000Y-13890500D01*
X7869000Y-13815500D02*
X7794000Y-13890500D01*
D11*
X8167872Y-13744484D02*
X8186920Y-13744484D01*
X8186920Y-13744484D02*
X8205967Y-13754008D01*
X8205967Y-13754008D02*
X8215491Y-13763531D01*
X8215491Y-13763531D02*
X8225015Y-13782579D01*
X8225015Y-13782579D02*
X8234539Y-13820674D01*
X8234539Y-13820674D02*
X8234539Y-13868293D01*
X8234539Y-13868293D02*
X8225015Y-13906388D01*
X8225015Y-13906388D02*
X8215491Y-13925436D01*
X8215491Y-13925436D02*
X8205967Y-13934960D01*
X8205967Y-13934960D02*
X8186920Y-13944484D01*
X8186920Y-13944484D02*
X8167872Y-13944484D01*
X8167872Y-13944484D02*
X8148824Y-13934960D01*
X8148824Y-13934960D02*
X8139301Y-13925436D01*
X8139301Y-13925436D02*
X8129777Y-13906388D01*
X8129777Y-13906388D02*
X8120253Y-13868293D01*
X8120253Y-13868293D02*
X8120253Y-13820674D01*
X8120253Y-13820674D02*
X8129777Y-13782579D01*
X8129777Y-13782579D02*
X8139301Y-13763531D01*
X8139301Y-13763531D02*
X8148824Y-13754008D01*
X8148824Y-13754008D02*
X8167872Y-13744484D01*
X8320253Y-13925436D02*
X8329777Y-13934960D01*
X8329777Y-13934960D02*
X8320253Y-13944484D01*
X8320253Y-13944484D02*
X8310729Y-13934960D01*
X8310729Y-13934960D02*
X8320253Y-13925436D01*
X8320253Y-13925436D02*
X8320253Y-13944484D01*
X8396444Y-13744484D02*
X8529777Y-13744484D01*
X8529777Y-13744484D02*
X8444063Y-13944484D01*
X8701205Y-13744484D02*
X8605967Y-13744484D01*
X8605967Y-13744484D02*
X8596444Y-13839722D01*
X8596444Y-13839722D02*
X8605967Y-13830198D01*
X8605967Y-13830198D02*
X8625015Y-13820674D01*
X8625015Y-13820674D02*
X8672634Y-13820674D01*
X8672634Y-13820674D02*
X8691682Y-13830198D01*
X8691682Y-13830198D02*
X8701205Y-13839722D01*
X8701205Y-13839722D02*
X8710729Y-13858769D01*
X8710729Y-13858769D02*
X8710729Y-13906388D01*
X8710729Y-13906388D02*
X8701205Y-13925436D01*
X8701205Y-13925436D02*
X8691682Y-13934960D01*
X8691682Y-13934960D02*
X8672634Y-13944484D01*
X8672634Y-13944484D02*
X8625015Y-13944484D01*
X8625015Y-13944484D02*
X8605967Y-13934960D01*
X8605967Y-13934960D02*
X8596444Y-13925436D01*
X8834539Y-13744484D02*
X8853586Y-13744484D01*
X8853586Y-13744484D02*
X8872634Y-13754008D01*
X8872634Y-13754008D02*
X8882158Y-13763531D01*
X8882158Y-13763531D02*
X8891682Y-13782579D01*
X8891682Y-13782579D02*
X8901205Y-13820674D01*
X8901205Y-13820674D02*
X8901205Y-13868293D01*
X8901205Y-13868293D02*
X8891682Y-13906388D01*
X8891682Y-13906388D02*
X8882158Y-13925436D01*
X8882158Y-13925436D02*
X8872634Y-13934960D01*
X8872634Y-13934960D02*
X8853586Y-13944484D01*
X8853586Y-13944484D02*
X8834539Y-13944484D01*
X8834539Y-13944484D02*
X8815491Y-13934960D01*
X8815491Y-13934960D02*
X8805967Y-13925436D01*
X8805967Y-13925436D02*
X8796444Y-13906388D01*
X8796444Y-13906388D02*
X8786920Y-13868293D01*
X8786920Y-13868293D02*
X8786920Y-13820674D01*
X8786920Y-13820674D02*
X8796444Y-13782579D01*
X8796444Y-13782579D02*
X8805967Y-13763531D01*
X8805967Y-13763531D02*
X8815491Y-13754008D01*
X8815491Y-13754008D02*
X8834539Y-13744484D01*
X8986920Y-13944484D02*
X8986920Y-13811150D01*
X8986920Y-13830198D02*
X8996444Y-13820674D01*
X8996444Y-13820674D02*
X9015491Y-13811150D01*
X9015491Y-13811150D02*
X9044063Y-13811150D01*
X9044063Y-13811150D02*
X9063110Y-13820674D01*
X9063110Y-13820674D02*
X9072634Y-13839722D01*
X9072634Y-13839722D02*
X9072634Y-13944484D01*
X9072634Y-13839722D02*
X9082158Y-13820674D01*
X9082158Y-13820674D02*
X9101205Y-13811150D01*
X9101205Y-13811150D02*
X9129777Y-13811150D01*
X9129777Y-13811150D02*
X9148825Y-13820674D01*
X9148825Y-13820674D02*
X9158348Y-13839722D01*
X9158348Y-13839722D02*
X9158348Y-13944484D01*
X9253586Y-13944484D02*
X9253586Y-13811150D01*
X9253586Y-13830198D02*
X9263110Y-13820674D01*
X9263110Y-13820674D02*
X9282158Y-13811150D01*
X9282158Y-13811150D02*
X9310729Y-13811150D01*
X9310729Y-13811150D02*
X9329777Y-13820674D01*
X9329777Y-13820674D02*
X9339301Y-13839722D01*
X9339301Y-13839722D02*
X9339301Y-13944484D01*
X9339301Y-13839722D02*
X9348825Y-13820674D01*
X9348825Y-13820674D02*
X9367872Y-13811150D01*
X9367872Y-13811150D02*
X9396444Y-13811150D01*
X9396444Y-13811150D02*
X9415491Y-13820674D01*
X9415491Y-13820674D02*
X9425015Y-13839722D01*
X9425015Y-13839722D02*
X9425015Y-13944484D01*
X9815491Y-13734960D02*
X9644063Y-13992103D01*
X10072634Y-13744484D02*
X10091682Y-13744484D01*
X10091682Y-13744484D02*
X10110729Y-13754008D01*
X10110729Y-13754008D02*
X10120253Y-13763531D01*
X10120253Y-13763531D02*
X10129777Y-13782579D01*
X10129777Y-13782579D02*
X10139301Y-13820674D01*
X10139301Y-13820674D02*
X10139301Y-13868293D01*
X10139301Y-13868293D02*
X10129777Y-13906388D01*
X10129777Y-13906388D02*
X10120253Y-13925436D01*
X10120253Y-13925436D02*
X10110729Y-13934960D01*
X10110729Y-13934960D02*
X10091682Y-13944484D01*
X10091682Y-13944484D02*
X10072634Y-13944484D01*
X10072634Y-13944484D02*
X10053587Y-13934960D01*
X10053587Y-13934960D02*
X10044063Y-13925436D01*
X10044063Y-13925436D02*
X10034539Y-13906388D01*
X10034539Y-13906388D02*
X10025015Y-13868293D01*
X10025015Y-13868293D02*
X10025015Y-13820674D01*
X10025015Y-13820674D02*
X10034539Y-13782579D01*
X10034539Y-13782579D02*
X10044063Y-13763531D01*
X10044063Y-13763531D02*
X10053587Y-13754008D01*
X10053587Y-13754008D02*
X10072634Y-13744484D01*
X10225015Y-13925436D02*
X10234539Y-13934960D01*
X10234539Y-13934960D02*
X10225015Y-13944484D01*
X10225015Y-13944484D02*
X10215491Y-13934960D01*
X10215491Y-13934960D02*
X10225015Y-13925436D01*
X10225015Y-13925436D02*
X10225015Y-13944484D01*
X10358348Y-13744484D02*
X10377396Y-13744484D01*
X10377396Y-13744484D02*
X10396444Y-13754008D01*
X10396444Y-13754008D02*
X10405968Y-13763531D01*
X10405968Y-13763531D02*
X10415491Y-13782579D01*
X10415491Y-13782579D02*
X10425015Y-13820674D01*
X10425015Y-13820674D02*
X10425015Y-13868293D01*
X10425015Y-13868293D02*
X10415491Y-13906388D01*
X10415491Y-13906388D02*
X10405968Y-13925436D01*
X10405968Y-13925436D02*
X10396444Y-13934960D01*
X10396444Y-13934960D02*
X10377396Y-13944484D01*
X10377396Y-13944484D02*
X10358348Y-13944484D01*
X10358348Y-13944484D02*
X10339301Y-13934960D01*
X10339301Y-13934960D02*
X10329777Y-13925436D01*
X10329777Y-13925436D02*
X10320253Y-13906388D01*
X10320253Y-13906388D02*
X10310729Y-13868293D01*
X10310729Y-13868293D02*
X10310729Y-13820674D01*
X10310729Y-13820674D02*
X10320253Y-13782579D01*
X10320253Y-13782579D02*
X10329777Y-13763531D01*
X10329777Y-13763531D02*
X10339301Y-13754008D01*
X10339301Y-13754008D02*
X10358348Y-13744484D01*
X10501206Y-13763531D02*
X10510729Y-13754008D01*
X10510729Y-13754008D02*
X10529777Y-13744484D01*
X10529777Y-13744484D02*
X10577396Y-13744484D01*
X10577396Y-13744484D02*
X10596444Y-13754008D01*
X10596444Y-13754008D02*
X10605968Y-13763531D01*
X10605968Y-13763531D02*
X10615491Y-13782579D01*
X10615491Y-13782579D02*
X10615491Y-13801627D01*
X10615491Y-13801627D02*
X10605968Y-13830198D01*
X10605968Y-13830198D02*
X10491682Y-13944484D01*
X10491682Y-13944484D02*
X10615491Y-13944484D01*
X10710729Y-13944484D02*
X10748825Y-13944484D01*
X10748825Y-13944484D02*
X10767872Y-13934960D01*
X10767872Y-13934960D02*
X10777396Y-13925436D01*
X10777396Y-13925436D02*
X10796444Y-13896865D01*
X10796444Y-13896865D02*
X10805968Y-13858769D01*
X10805968Y-13858769D02*
X10805968Y-13782579D01*
X10805968Y-13782579D02*
X10796444Y-13763531D01*
X10796444Y-13763531D02*
X10786920Y-13754008D01*
X10786920Y-13754008D02*
X10767872Y-13744484D01*
X10767872Y-13744484D02*
X10729777Y-13744484D01*
X10729777Y-13744484D02*
X10710729Y-13754008D01*
X10710729Y-13754008D02*
X10701206Y-13763531D01*
X10701206Y-13763531D02*
X10691682Y-13782579D01*
X10691682Y-13782579D02*
X10691682Y-13830198D01*
X10691682Y-13830198D02*
X10701206Y-13849246D01*
X10701206Y-13849246D02*
X10710729Y-13858769D01*
X10710729Y-13858769D02*
X10729777Y-13868293D01*
X10729777Y-13868293D02*
X10767872Y-13868293D01*
X10767872Y-13868293D02*
X10786920Y-13858769D01*
X10786920Y-13858769D02*
X10796444Y-13849246D01*
X10796444Y-13849246D02*
X10805968Y-13830198D01*
X10986920Y-13744484D02*
X10891682Y-13744484D01*
X10891682Y-13744484D02*
X10882158Y-13839722D01*
X10882158Y-13839722D02*
X10891682Y-13830198D01*
X10891682Y-13830198D02*
X10910729Y-13820674D01*
X10910729Y-13820674D02*
X10958349Y-13820674D01*
X10958349Y-13820674D02*
X10977396Y-13830198D01*
X10977396Y-13830198D02*
X10986920Y-13839722D01*
X10986920Y-13839722D02*
X10996444Y-13858769D01*
X10996444Y-13858769D02*
X10996444Y-13906388D01*
X10996444Y-13906388D02*
X10986920Y-13925436D01*
X10986920Y-13925436D02*
X10977396Y-13934960D01*
X10977396Y-13934960D02*
X10958349Y-13944484D01*
X10958349Y-13944484D02*
X10910729Y-13944484D01*
X10910729Y-13944484D02*
X10891682Y-13934960D01*
X10891682Y-13934960D02*
X10882158Y-13925436D01*
X11072634Y-13744484D02*
X11072634Y-13782579D01*
X11148825Y-13744484D02*
X11148825Y-13782579D01*
X11444063Y-14020674D02*
X11434539Y-14011150D01*
X11434539Y-14011150D02*
X11415491Y-13982579D01*
X11415491Y-13982579D02*
X11405968Y-13963531D01*
X11405968Y-13963531D02*
X11396444Y-13934960D01*
X11396444Y-13934960D02*
X11386920Y-13887341D01*
X11386920Y-13887341D02*
X11386920Y-13849246D01*
X11386920Y-13849246D02*
X11396444Y-13801627D01*
X11396444Y-13801627D02*
X11405968Y-13773055D01*
X11405968Y-13773055D02*
X11415491Y-13754008D01*
X11415491Y-13754008D02*
X11434539Y-13725436D01*
X11434539Y-13725436D02*
X11444063Y-13715912D01*
X11605968Y-13744484D02*
X11567872Y-13744484D01*
X11567872Y-13744484D02*
X11548825Y-13754008D01*
X11548825Y-13754008D02*
X11539301Y-13763531D01*
X11539301Y-13763531D02*
X11520253Y-13792103D01*
X11520253Y-13792103D02*
X11510729Y-13830198D01*
X11510729Y-13830198D02*
X11510729Y-13906388D01*
X11510729Y-13906388D02*
X11520253Y-13925436D01*
X11520253Y-13925436D02*
X11529777Y-13934960D01*
X11529777Y-13934960D02*
X11548825Y-13944484D01*
X11548825Y-13944484D02*
X11586920Y-13944484D01*
X11586920Y-13944484D02*
X11605968Y-13934960D01*
X11605968Y-13934960D02*
X11615491Y-13925436D01*
X11615491Y-13925436D02*
X11625015Y-13906388D01*
X11625015Y-13906388D02*
X11625015Y-13858769D01*
X11625015Y-13858769D02*
X11615491Y-13839722D01*
X11615491Y-13839722D02*
X11605968Y-13830198D01*
X11605968Y-13830198D02*
X11586920Y-13820674D01*
X11586920Y-13820674D02*
X11548825Y-13820674D01*
X11548825Y-13820674D02*
X11529777Y-13830198D01*
X11529777Y-13830198D02*
X11520253Y-13839722D01*
X11520253Y-13839722D02*
X11510729Y-13858769D01*
X11863110Y-13944484D02*
X11863110Y-13744484D01*
X11948825Y-13944484D02*
X11948825Y-13839722D01*
X11948825Y-13839722D02*
X11939301Y-13820674D01*
X11939301Y-13820674D02*
X11920253Y-13811150D01*
X11920253Y-13811150D02*
X11891682Y-13811150D01*
X11891682Y-13811150D02*
X11872634Y-13820674D01*
X11872634Y-13820674D02*
X11863110Y-13830198D01*
X12072634Y-13944484D02*
X12053587Y-13934960D01*
X12053587Y-13934960D02*
X12044063Y-13925436D01*
X12044063Y-13925436D02*
X12034539Y-13906388D01*
X12034539Y-13906388D02*
X12034539Y-13849246D01*
X12034539Y-13849246D02*
X12044063Y-13830198D01*
X12044063Y-13830198D02*
X12053587Y-13820674D01*
X12053587Y-13820674D02*
X12072634Y-13811150D01*
X12072634Y-13811150D02*
X12101206Y-13811150D01*
X12101206Y-13811150D02*
X12120253Y-13820674D01*
X12120253Y-13820674D02*
X12129777Y-13830198D01*
X12129777Y-13830198D02*
X12139301Y-13849246D01*
X12139301Y-13849246D02*
X12139301Y-13906388D01*
X12139301Y-13906388D02*
X12129777Y-13925436D01*
X12129777Y-13925436D02*
X12120253Y-13934960D01*
X12120253Y-13934960D02*
X12101206Y-13944484D01*
X12101206Y-13944484D02*
X12072634Y-13944484D01*
X12253587Y-13944484D02*
X12234539Y-13934960D01*
X12234539Y-13934960D02*
X12225015Y-13915912D01*
X12225015Y-13915912D02*
X12225015Y-13744484D01*
X12405968Y-13934960D02*
X12386920Y-13944484D01*
X12386920Y-13944484D02*
X12348825Y-13944484D01*
X12348825Y-13944484D02*
X12329777Y-13934960D01*
X12329777Y-13934960D02*
X12320253Y-13915912D01*
X12320253Y-13915912D02*
X12320253Y-13839722D01*
X12320253Y-13839722D02*
X12329777Y-13820674D01*
X12329777Y-13820674D02*
X12348825Y-13811150D01*
X12348825Y-13811150D02*
X12386920Y-13811150D01*
X12386920Y-13811150D02*
X12405968Y-13820674D01*
X12405968Y-13820674D02*
X12415491Y-13839722D01*
X12415491Y-13839722D02*
X12415491Y-13858769D01*
X12415491Y-13858769D02*
X12320253Y-13877817D01*
X12491682Y-13934960D02*
X12510730Y-13944484D01*
X12510730Y-13944484D02*
X12548825Y-13944484D01*
X12548825Y-13944484D02*
X12567872Y-13934960D01*
X12567872Y-13934960D02*
X12577396Y-13915912D01*
X12577396Y-13915912D02*
X12577396Y-13906388D01*
X12577396Y-13906388D02*
X12567872Y-13887341D01*
X12567872Y-13887341D02*
X12548825Y-13877817D01*
X12548825Y-13877817D02*
X12520253Y-13877817D01*
X12520253Y-13877817D02*
X12501206Y-13868293D01*
X12501206Y-13868293D02*
X12491682Y-13849246D01*
X12491682Y-13849246D02*
X12491682Y-13839722D01*
X12491682Y-13839722D02*
X12501206Y-13820674D01*
X12501206Y-13820674D02*
X12520253Y-13811150D01*
X12520253Y-13811150D02*
X12548825Y-13811150D01*
X12548825Y-13811150D02*
X12567872Y-13820674D01*
X12644063Y-14020674D02*
X12653587Y-14011150D01*
X12653587Y-14011150D02*
X12672634Y-13982579D01*
X12672634Y-13982579D02*
X12682158Y-13963531D01*
X12682158Y-13963531D02*
X12691682Y-13934960D01*
X12691682Y-13934960D02*
X12701206Y-13887341D01*
X12701206Y-13887341D02*
X12701206Y-13849246D01*
X12701206Y-13849246D02*
X12691682Y-13801627D01*
X12691682Y-13801627D02*
X12682158Y-13773055D01*
X12682158Y-13773055D02*
X12672634Y-13754008D01*
X12672634Y-13754008D02*
X12653587Y-13725436D01*
X12653587Y-13725436D02*
X12644063Y-13715912D01*
D10*
X7869000Y-14117000D02*
G75*
G02*
X7792800Y-14117000I-38100J0D01*
G01*
X7792800Y-14117000D02*
G75*
G02*
X7869000Y-14117000I38100J0D01*
G01*
D11*
X8167872Y-14008484D02*
X8186920Y-14008484D01*
X8186920Y-14008484D02*
X8205967Y-14018008D01*
X8205967Y-14018008D02*
X8215491Y-14027531D01*
X8215491Y-14027531D02*
X8225015Y-14046579D01*
X8225015Y-14046579D02*
X8234539Y-14084674D01*
X8234539Y-14084674D02*
X8234539Y-14132293D01*
X8234539Y-14132293D02*
X8225015Y-14170388D01*
X8225015Y-14170388D02*
X8215491Y-14189436D01*
X8215491Y-14189436D02*
X8205967Y-14198960D01*
X8205967Y-14198960D02*
X8186920Y-14208484D01*
X8186920Y-14208484D02*
X8167872Y-14208484D01*
X8167872Y-14208484D02*
X8148824Y-14198960D01*
X8148824Y-14198960D02*
X8139301Y-14189436D01*
X8139301Y-14189436D02*
X8129777Y-14170388D01*
X8129777Y-14170388D02*
X8120253Y-14132293D01*
X8120253Y-14132293D02*
X8120253Y-14084674D01*
X8120253Y-14084674D02*
X8129777Y-14046579D01*
X8129777Y-14046579D02*
X8139301Y-14027531D01*
X8139301Y-14027531D02*
X8148824Y-14018008D01*
X8148824Y-14018008D02*
X8167872Y-14008484D01*
X8320253Y-14189436D02*
X8329777Y-14198960D01*
X8329777Y-14198960D02*
X8320253Y-14208484D01*
X8320253Y-14208484D02*
X8310729Y-14198960D01*
X8310729Y-14198960D02*
X8320253Y-14189436D01*
X8320253Y-14189436D02*
X8320253Y-14208484D01*
X8396444Y-14008484D02*
X8529777Y-14008484D01*
X8529777Y-14008484D02*
X8444063Y-14208484D01*
X8691682Y-14008484D02*
X8653586Y-14008484D01*
X8653586Y-14008484D02*
X8634539Y-14018008D01*
X8634539Y-14018008D02*
X8625015Y-14027531D01*
X8625015Y-14027531D02*
X8605967Y-14056103D01*
X8605967Y-14056103D02*
X8596444Y-14094198D01*
X8596444Y-14094198D02*
X8596444Y-14170388D01*
X8596444Y-14170388D02*
X8605967Y-14189436D01*
X8605967Y-14189436D02*
X8615491Y-14198960D01*
X8615491Y-14198960D02*
X8634539Y-14208484D01*
X8634539Y-14208484D02*
X8672634Y-14208484D01*
X8672634Y-14208484D02*
X8691682Y-14198960D01*
X8691682Y-14198960D02*
X8701205Y-14189436D01*
X8701205Y-14189436D02*
X8710729Y-14170388D01*
X8710729Y-14170388D02*
X8710729Y-14122769D01*
X8710729Y-14122769D02*
X8701205Y-14103722D01*
X8701205Y-14103722D02*
X8691682Y-14094198D01*
X8691682Y-14094198D02*
X8672634Y-14084674D01*
X8672634Y-14084674D02*
X8634539Y-14084674D01*
X8634539Y-14084674D02*
X8615491Y-14094198D01*
X8615491Y-14094198D02*
X8605967Y-14103722D01*
X8605967Y-14103722D02*
X8596444Y-14122769D01*
X8786920Y-14027531D02*
X8796444Y-14018008D01*
X8796444Y-14018008D02*
X8815491Y-14008484D01*
X8815491Y-14008484D02*
X8863110Y-14008484D01*
X8863110Y-14008484D02*
X8882158Y-14018008D01*
X8882158Y-14018008D02*
X8891682Y-14027531D01*
X8891682Y-14027531D02*
X8901205Y-14046579D01*
X8901205Y-14046579D02*
X8901205Y-14065627D01*
X8901205Y-14065627D02*
X8891682Y-14094198D01*
X8891682Y-14094198D02*
X8777396Y-14208484D01*
X8777396Y-14208484D02*
X8901205Y-14208484D01*
X8986920Y-14208484D02*
X8986920Y-14075150D01*
X8986920Y-14094198D02*
X8996444Y-14084674D01*
X8996444Y-14084674D02*
X9015491Y-14075150D01*
X9015491Y-14075150D02*
X9044063Y-14075150D01*
X9044063Y-14075150D02*
X9063110Y-14084674D01*
X9063110Y-14084674D02*
X9072634Y-14103722D01*
X9072634Y-14103722D02*
X9072634Y-14208484D01*
X9072634Y-14103722D02*
X9082158Y-14084674D01*
X9082158Y-14084674D02*
X9101205Y-14075150D01*
X9101205Y-14075150D02*
X9129777Y-14075150D01*
X9129777Y-14075150D02*
X9148825Y-14084674D01*
X9148825Y-14084674D02*
X9158348Y-14103722D01*
X9158348Y-14103722D02*
X9158348Y-14208484D01*
X9253586Y-14208484D02*
X9253586Y-14075150D01*
X9253586Y-14094198D02*
X9263110Y-14084674D01*
X9263110Y-14084674D02*
X9282158Y-14075150D01*
X9282158Y-14075150D02*
X9310729Y-14075150D01*
X9310729Y-14075150D02*
X9329777Y-14084674D01*
X9329777Y-14084674D02*
X9339301Y-14103722D01*
X9339301Y-14103722D02*
X9339301Y-14208484D01*
X9339301Y-14103722D02*
X9348825Y-14084674D01*
X9348825Y-14084674D02*
X9367872Y-14075150D01*
X9367872Y-14075150D02*
X9396444Y-14075150D01*
X9396444Y-14075150D02*
X9415491Y-14084674D01*
X9415491Y-14084674D02*
X9425015Y-14103722D01*
X9425015Y-14103722D02*
X9425015Y-14208484D01*
X9815491Y-13998960D02*
X9644063Y-14256103D01*
X10072634Y-14008484D02*
X10091682Y-14008484D01*
X10091682Y-14008484D02*
X10110729Y-14018008D01*
X10110729Y-14018008D02*
X10120253Y-14027531D01*
X10120253Y-14027531D02*
X10129777Y-14046579D01*
X10129777Y-14046579D02*
X10139301Y-14084674D01*
X10139301Y-14084674D02*
X10139301Y-14132293D01*
X10139301Y-14132293D02*
X10129777Y-14170388D01*
X10129777Y-14170388D02*
X10120253Y-14189436D01*
X10120253Y-14189436D02*
X10110729Y-14198960D01*
X10110729Y-14198960D02*
X10091682Y-14208484D01*
X10091682Y-14208484D02*
X10072634Y-14208484D01*
X10072634Y-14208484D02*
X10053587Y-14198960D01*
X10053587Y-14198960D02*
X10044063Y-14189436D01*
X10044063Y-14189436D02*
X10034539Y-14170388D01*
X10034539Y-14170388D02*
X10025015Y-14132293D01*
X10025015Y-14132293D02*
X10025015Y-14084674D01*
X10025015Y-14084674D02*
X10034539Y-14046579D01*
X10034539Y-14046579D02*
X10044063Y-14027531D01*
X10044063Y-14027531D02*
X10053587Y-14018008D01*
X10053587Y-14018008D02*
X10072634Y-14008484D01*
X10225015Y-14189436D02*
X10234539Y-14198960D01*
X10234539Y-14198960D02*
X10225015Y-14208484D01*
X10225015Y-14208484D02*
X10215491Y-14198960D01*
X10215491Y-14198960D02*
X10225015Y-14189436D01*
X10225015Y-14189436D02*
X10225015Y-14208484D01*
X10358348Y-14008484D02*
X10377396Y-14008484D01*
X10377396Y-14008484D02*
X10396444Y-14018008D01*
X10396444Y-14018008D02*
X10405968Y-14027531D01*
X10405968Y-14027531D02*
X10415491Y-14046579D01*
X10415491Y-14046579D02*
X10425015Y-14084674D01*
X10425015Y-14084674D02*
X10425015Y-14132293D01*
X10425015Y-14132293D02*
X10415491Y-14170388D01*
X10415491Y-14170388D02*
X10405968Y-14189436D01*
X10405968Y-14189436D02*
X10396444Y-14198960D01*
X10396444Y-14198960D02*
X10377396Y-14208484D01*
X10377396Y-14208484D02*
X10358348Y-14208484D01*
X10358348Y-14208484D02*
X10339301Y-14198960D01*
X10339301Y-14198960D02*
X10329777Y-14189436D01*
X10329777Y-14189436D02*
X10320253Y-14170388D01*
X10320253Y-14170388D02*
X10310729Y-14132293D01*
X10310729Y-14132293D02*
X10310729Y-14084674D01*
X10310729Y-14084674D02*
X10320253Y-14046579D01*
X10320253Y-14046579D02*
X10329777Y-14027531D01*
X10329777Y-14027531D02*
X10339301Y-14018008D01*
X10339301Y-14018008D02*
X10358348Y-14008484D01*
X10491682Y-14008484D02*
X10615491Y-14008484D01*
X10615491Y-14008484D02*
X10548825Y-14084674D01*
X10548825Y-14084674D02*
X10577396Y-14084674D01*
X10577396Y-14084674D02*
X10596444Y-14094198D01*
X10596444Y-14094198D02*
X10605968Y-14103722D01*
X10605968Y-14103722D02*
X10615491Y-14122769D01*
X10615491Y-14122769D02*
X10615491Y-14170388D01*
X10615491Y-14170388D02*
X10605968Y-14189436D01*
X10605968Y-14189436D02*
X10596444Y-14198960D01*
X10596444Y-14198960D02*
X10577396Y-14208484D01*
X10577396Y-14208484D02*
X10520253Y-14208484D01*
X10520253Y-14208484D02*
X10501206Y-14198960D01*
X10501206Y-14198960D02*
X10491682Y-14189436D01*
X10739301Y-14008484D02*
X10758349Y-14008484D01*
X10758349Y-14008484D02*
X10777396Y-14018008D01*
X10777396Y-14018008D02*
X10786920Y-14027531D01*
X10786920Y-14027531D02*
X10796444Y-14046579D01*
X10796444Y-14046579D02*
X10805968Y-14084674D01*
X10805968Y-14084674D02*
X10805968Y-14132293D01*
X10805968Y-14132293D02*
X10796444Y-14170388D01*
X10796444Y-14170388D02*
X10786920Y-14189436D01*
X10786920Y-14189436D02*
X10777396Y-14198960D01*
X10777396Y-14198960D02*
X10758349Y-14208484D01*
X10758349Y-14208484D02*
X10739301Y-14208484D01*
X10739301Y-14208484D02*
X10720253Y-14198960D01*
X10720253Y-14198960D02*
X10710729Y-14189436D01*
X10710729Y-14189436D02*
X10701206Y-14170388D01*
X10701206Y-14170388D02*
X10691682Y-14132293D01*
X10691682Y-14132293D02*
X10691682Y-14084674D01*
X10691682Y-14084674D02*
X10701206Y-14046579D01*
X10701206Y-14046579D02*
X10710729Y-14027531D01*
X10710729Y-14027531D02*
X10720253Y-14018008D01*
X10720253Y-14018008D02*
X10739301Y-14008484D01*
X10929777Y-14008484D02*
X10948825Y-14008484D01*
X10948825Y-14008484D02*
X10967872Y-14018008D01*
X10967872Y-14018008D02*
X10977396Y-14027531D01*
X10977396Y-14027531D02*
X10986920Y-14046579D01*
X10986920Y-14046579D02*
X10996444Y-14084674D01*
X10996444Y-14084674D02*
X10996444Y-14132293D01*
X10996444Y-14132293D02*
X10986920Y-14170388D01*
X10986920Y-14170388D02*
X10977396Y-14189436D01*
X10977396Y-14189436D02*
X10967872Y-14198960D01*
X10967872Y-14198960D02*
X10948825Y-14208484D01*
X10948825Y-14208484D02*
X10929777Y-14208484D01*
X10929777Y-14208484D02*
X10910729Y-14198960D01*
X10910729Y-14198960D02*
X10901206Y-14189436D01*
X10901206Y-14189436D02*
X10891682Y-14170388D01*
X10891682Y-14170388D02*
X10882158Y-14132293D01*
X10882158Y-14132293D02*
X10882158Y-14084674D01*
X10882158Y-14084674D02*
X10891682Y-14046579D01*
X10891682Y-14046579D02*
X10901206Y-14027531D01*
X10901206Y-14027531D02*
X10910729Y-14018008D01*
X10910729Y-14018008D02*
X10929777Y-14008484D01*
X11072634Y-14008484D02*
X11072634Y-14046579D01*
X11148825Y-14008484D02*
X11148825Y-14046579D01*
X11444063Y-14284674D02*
X11434539Y-14275150D01*
X11434539Y-14275150D02*
X11415491Y-14246579D01*
X11415491Y-14246579D02*
X11405968Y-14227531D01*
X11405968Y-14227531D02*
X11396444Y-14198960D01*
X11396444Y-14198960D02*
X11386920Y-14151341D01*
X11386920Y-14151341D02*
X11386920Y-14113246D01*
X11386920Y-14113246D02*
X11396444Y-14065627D01*
X11396444Y-14065627D02*
X11405968Y-14037055D01*
X11405968Y-14037055D02*
X11415491Y-14018008D01*
X11415491Y-14018008D02*
X11434539Y-13989436D01*
X11434539Y-13989436D02*
X11444063Y-13979912D01*
X11501206Y-14008484D02*
X11625015Y-14008484D01*
X11625015Y-14008484D02*
X11558348Y-14084674D01*
X11558348Y-14084674D02*
X11586920Y-14084674D01*
X11586920Y-14084674D02*
X11605968Y-14094198D01*
X11605968Y-14094198D02*
X11615491Y-14103722D01*
X11615491Y-14103722D02*
X11625015Y-14122769D01*
X11625015Y-14122769D02*
X11625015Y-14170388D01*
X11625015Y-14170388D02*
X11615491Y-14189436D01*
X11615491Y-14189436D02*
X11605968Y-14198960D01*
X11605968Y-14198960D02*
X11586920Y-14208484D01*
X11586920Y-14208484D02*
X11529777Y-14208484D01*
X11529777Y-14208484D02*
X11510729Y-14198960D01*
X11510729Y-14198960D02*
X11501206Y-14189436D01*
X11748825Y-14008484D02*
X11767872Y-14008484D01*
X11767872Y-14008484D02*
X11786920Y-14018008D01*
X11786920Y-14018008D02*
X11796444Y-14027531D01*
X11796444Y-14027531D02*
X11805968Y-14046579D01*
X11805968Y-14046579D02*
X11815491Y-14084674D01*
X11815491Y-14084674D02*
X11815491Y-14132293D01*
X11815491Y-14132293D02*
X11805968Y-14170388D01*
X11805968Y-14170388D02*
X11796444Y-14189436D01*
X11796444Y-14189436D02*
X11786920Y-14198960D01*
X11786920Y-14198960D02*
X11767872Y-14208484D01*
X11767872Y-14208484D02*
X11748825Y-14208484D01*
X11748825Y-14208484D02*
X11729777Y-14198960D01*
X11729777Y-14198960D02*
X11720253Y-14189436D01*
X11720253Y-14189436D02*
X11710729Y-14170388D01*
X11710729Y-14170388D02*
X11701206Y-14132293D01*
X11701206Y-14132293D02*
X11701206Y-14084674D01*
X11701206Y-14084674D02*
X11710729Y-14046579D01*
X11710729Y-14046579D02*
X11720253Y-14027531D01*
X11720253Y-14027531D02*
X11729777Y-14018008D01*
X11729777Y-14018008D02*
X11748825Y-14008484D01*
X12053587Y-14208484D02*
X12053587Y-14008484D01*
X12139301Y-14208484D02*
X12139301Y-14103722D01*
X12139301Y-14103722D02*
X12129777Y-14084674D01*
X12129777Y-14084674D02*
X12110730Y-14075150D01*
X12110730Y-14075150D02*
X12082158Y-14075150D01*
X12082158Y-14075150D02*
X12063110Y-14084674D01*
X12063110Y-14084674D02*
X12053587Y-14094198D01*
X12263110Y-14208484D02*
X12244063Y-14198960D01*
X12244063Y-14198960D02*
X12234539Y-14189436D01*
X12234539Y-14189436D02*
X12225015Y-14170388D01*
X12225015Y-14170388D02*
X12225015Y-14113246D01*
X12225015Y-14113246D02*
X12234539Y-14094198D01*
X12234539Y-14094198D02*
X12244063Y-14084674D01*
X12244063Y-14084674D02*
X12263110Y-14075150D01*
X12263110Y-14075150D02*
X12291682Y-14075150D01*
X12291682Y-14075150D02*
X12310730Y-14084674D01*
X12310730Y-14084674D02*
X12320253Y-14094198D01*
X12320253Y-14094198D02*
X12329777Y-14113246D01*
X12329777Y-14113246D02*
X12329777Y-14170388D01*
X12329777Y-14170388D02*
X12320253Y-14189436D01*
X12320253Y-14189436D02*
X12310730Y-14198960D01*
X12310730Y-14198960D02*
X12291682Y-14208484D01*
X12291682Y-14208484D02*
X12263110Y-14208484D01*
X12444063Y-14208484D02*
X12425015Y-14198960D01*
X12425015Y-14198960D02*
X12415491Y-14179912D01*
X12415491Y-14179912D02*
X12415491Y-14008484D01*
X12596444Y-14198960D02*
X12577396Y-14208484D01*
X12577396Y-14208484D02*
X12539301Y-14208484D01*
X12539301Y-14208484D02*
X12520253Y-14198960D01*
X12520253Y-14198960D02*
X12510730Y-14179912D01*
X12510730Y-14179912D02*
X12510730Y-14103722D01*
X12510730Y-14103722D02*
X12520253Y-14084674D01*
X12520253Y-14084674D02*
X12539301Y-14075150D01*
X12539301Y-14075150D02*
X12577396Y-14075150D01*
X12577396Y-14075150D02*
X12596444Y-14084674D01*
X12596444Y-14084674D02*
X12605968Y-14103722D01*
X12605968Y-14103722D02*
X12605968Y-14122769D01*
X12605968Y-14122769D02*
X12510730Y-14141817D01*
X12682158Y-14198960D02*
X12701206Y-14208484D01*
X12701206Y-14208484D02*
X12739301Y-14208484D01*
X12739301Y-14208484D02*
X12758349Y-14198960D01*
X12758349Y-14198960D02*
X12767872Y-14179912D01*
X12767872Y-14179912D02*
X12767872Y-14170388D01*
X12767872Y-14170388D02*
X12758349Y-14151341D01*
X12758349Y-14151341D02*
X12739301Y-14141817D01*
X12739301Y-14141817D02*
X12710730Y-14141817D01*
X12710730Y-14141817D02*
X12691682Y-14132293D01*
X12691682Y-14132293D02*
X12682158Y-14113246D01*
X12682158Y-14113246D02*
X12682158Y-14103722D01*
X12682158Y-14103722D02*
X12691682Y-14084674D01*
X12691682Y-14084674D02*
X12710730Y-14075150D01*
X12710730Y-14075150D02*
X12739301Y-14075150D01*
X12739301Y-14075150D02*
X12758349Y-14084674D01*
X12834539Y-14284674D02*
X12844063Y-14275150D01*
X12844063Y-14275150D02*
X12863111Y-14246579D01*
X12863111Y-14246579D02*
X12872634Y-14227531D01*
X12872634Y-14227531D02*
X12882158Y-14198960D01*
X12882158Y-14198960D02*
X12891682Y-14151341D01*
X12891682Y-14151341D02*
X12891682Y-14113246D01*
X12891682Y-14113246D02*
X12882158Y-14065627D01*
X12882158Y-14065627D02*
X12872634Y-14037055D01*
X12872634Y-14037055D02*
X12863111Y-14018008D01*
X12863111Y-14018008D02*
X12844063Y-13989436D01*
X12844063Y-13989436D02*
X12834539Y-13979912D01*
D10*
X7829000Y-14341000D02*
X7829000Y-14421000D01*
X7789000Y-14381000D02*
X7869000Y-14381000D01*
D11*
X8167872Y-14272484D02*
X8186920Y-14272484D01*
X8186920Y-14272484D02*
X8205967Y-14282008D01*
X8205967Y-14282008D02*
X8215491Y-14291531D01*
X8215491Y-14291531D02*
X8225015Y-14310579D01*
X8225015Y-14310579D02*
X8234539Y-14348674D01*
X8234539Y-14348674D02*
X8234539Y-14396293D01*
X8234539Y-14396293D02*
X8225015Y-14434388D01*
X8225015Y-14434388D02*
X8215491Y-14453436D01*
X8215491Y-14453436D02*
X8205967Y-14462960D01*
X8205967Y-14462960D02*
X8186920Y-14472484D01*
X8186920Y-14472484D02*
X8167872Y-14472484D01*
X8167872Y-14472484D02*
X8148824Y-14462960D01*
X8148824Y-14462960D02*
X8139301Y-14453436D01*
X8139301Y-14453436D02*
X8129777Y-14434388D01*
X8129777Y-14434388D02*
X8120253Y-14396293D01*
X8120253Y-14396293D02*
X8120253Y-14348674D01*
X8120253Y-14348674D02*
X8129777Y-14310579D01*
X8129777Y-14310579D02*
X8139301Y-14291531D01*
X8139301Y-14291531D02*
X8148824Y-14282008D01*
X8148824Y-14282008D02*
X8167872Y-14272484D01*
X8320253Y-14453436D02*
X8329777Y-14462960D01*
X8329777Y-14462960D02*
X8320253Y-14472484D01*
X8320253Y-14472484D02*
X8310729Y-14462960D01*
X8310729Y-14462960D02*
X8320253Y-14453436D01*
X8320253Y-14453436D02*
X8320253Y-14472484D01*
X8444063Y-14358198D02*
X8425015Y-14348674D01*
X8425015Y-14348674D02*
X8415491Y-14339150D01*
X8415491Y-14339150D02*
X8405967Y-14320103D01*
X8405967Y-14320103D02*
X8405967Y-14310579D01*
X8405967Y-14310579D02*
X8415491Y-14291531D01*
X8415491Y-14291531D02*
X8425015Y-14282008D01*
X8425015Y-14282008D02*
X8444063Y-14272484D01*
X8444063Y-14272484D02*
X8482158Y-14272484D01*
X8482158Y-14272484D02*
X8501205Y-14282008D01*
X8501205Y-14282008D02*
X8510729Y-14291531D01*
X8510729Y-14291531D02*
X8520253Y-14310579D01*
X8520253Y-14310579D02*
X8520253Y-14320103D01*
X8520253Y-14320103D02*
X8510729Y-14339150D01*
X8510729Y-14339150D02*
X8501205Y-14348674D01*
X8501205Y-14348674D02*
X8482158Y-14358198D01*
X8482158Y-14358198D02*
X8444063Y-14358198D01*
X8444063Y-14358198D02*
X8425015Y-14367722D01*
X8425015Y-14367722D02*
X8415491Y-14377246D01*
X8415491Y-14377246D02*
X8405967Y-14396293D01*
X8405967Y-14396293D02*
X8405967Y-14434388D01*
X8405967Y-14434388D02*
X8415491Y-14453436D01*
X8415491Y-14453436D02*
X8425015Y-14462960D01*
X8425015Y-14462960D02*
X8444063Y-14472484D01*
X8444063Y-14472484D02*
X8482158Y-14472484D01*
X8482158Y-14472484D02*
X8501205Y-14462960D01*
X8501205Y-14462960D02*
X8510729Y-14453436D01*
X8510729Y-14453436D02*
X8520253Y-14434388D01*
X8520253Y-14434388D02*
X8520253Y-14396293D01*
X8520253Y-14396293D02*
X8510729Y-14377246D01*
X8510729Y-14377246D02*
X8501205Y-14367722D01*
X8501205Y-14367722D02*
X8482158Y-14358198D01*
X8644063Y-14272484D02*
X8663110Y-14272484D01*
X8663110Y-14272484D02*
X8682158Y-14282008D01*
X8682158Y-14282008D02*
X8691682Y-14291531D01*
X8691682Y-14291531D02*
X8701205Y-14310579D01*
X8701205Y-14310579D02*
X8710729Y-14348674D01*
X8710729Y-14348674D02*
X8710729Y-14396293D01*
X8710729Y-14396293D02*
X8701205Y-14434388D01*
X8701205Y-14434388D02*
X8691682Y-14453436D01*
X8691682Y-14453436D02*
X8682158Y-14462960D01*
X8682158Y-14462960D02*
X8663110Y-14472484D01*
X8663110Y-14472484D02*
X8644063Y-14472484D01*
X8644063Y-14472484D02*
X8625015Y-14462960D01*
X8625015Y-14462960D02*
X8615491Y-14453436D01*
X8615491Y-14453436D02*
X8605967Y-14434388D01*
X8605967Y-14434388D02*
X8596444Y-14396293D01*
X8596444Y-14396293D02*
X8596444Y-14348674D01*
X8596444Y-14348674D02*
X8605967Y-14310579D01*
X8605967Y-14310579D02*
X8615491Y-14291531D01*
X8615491Y-14291531D02*
X8625015Y-14282008D01*
X8625015Y-14282008D02*
X8644063Y-14272484D01*
X8834539Y-14272484D02*
X8853586Y-14272484D01*
X8853586Y-14272484D02*
X8872634Y-14282008D01*
X8872634Y-14282008D02*
X8882158Y-14291531D01*
X8882158Y-14291531D02*
X8891682Y-14310579D01*
X8891682Y-14310579D02*
X8901205Y-14348674D01*
X8901205Y-14348674D02*
X8901205Y-14396293D01*
X8901205Y-14396293D02*
X8891682Y-14434388D01*
X8891682Y-14434388D02*
X8882158Y-14453436D01*
X8882158Y-14453436D02*
X8872634Y-14462960D01*
X8872634Y-14462960D02*
X8853586Y-14472484D01*
X8853586Y-14472484D02*
X8834539Y-14472484D01*
X8834539Y-14472484D02*
X8815491Y-14462960D01*
X8815491Y-14462960D02*
X8805967Y-14453436D01*
X8805967Y-14453436D02*
X8796444Y-14434388D01*
X8796444Y-14434388D02*
X8786920Y-14396293D01*
X8786920Y-14396293D02*
X8786920Y-14348674D01*
X8786920Y-14348674D02*
X8796444Y-14310579D01*
X8796444Y-14310579D02*
X8805967Y-14291531D01*
X8805967Y-14291531D02*
X8815491Y-14282008D01*
X8815491Y-14282008D02*
X8834539Y-14272484D01*
X8986920Y-14472484D02*
X8986920Y-14339150D01*
X8986920Y-14358198D02*
X8996444Y-14348674D01*
X8996444Y-14348674D02*
X9015491Y-14339150D01*
X9015491Y-14339150D02*
X9044063Y-14339150D01*
X9044063Y-14339150D02*
X9063110Y-14348674D01*
X9063110Y-14348674D02*
X9072634Y-14367722D01*
X9072634Y-14367722D02*
X9072634Y-14472484D01*
X9072634Y-14367722D02*
X9082158Y-14348674D01*
X9082158Y-14348674D02*
X9101205Y-14339150D01*
X9101205Y-14339150D02*
X9129777Y-14339150D01*
X9129777Y-14339150D02*
X9148825Y-14348674D01*
X9148825Y-14348674D02*
X9158348Y-14367722D01*
X9158348Y-14367722D02*
X9158348Y-14472484D01*
X9253586Y-14472484D02*
X9253586Y-14339150D01*
X9253586Y-14358198D02*
X9263110Y-14348674D01*
X9263110Y-14348674D02*
X9282158Y-14339150D01*
X9282158Y-14339150D02*
X9310729Y-14339150D01*
X9310729Y-14339150D02*
X9329777Y-14348674D01*
X9329777Y-14348674D02*
X9339301Y-14367722D01*
X9339301Y-14367722D02*
X9339301Y-14472484D01*
X9339301Y-14367722D02*
X9348825Y-14348674D01*
X9348825Y-14348674D02*
X9367872Y-14339150D01*
X9367872Y-14339150D02*
X9396444Y-14339150D01*
X9396444Y-14339150D02*
X9415491Y-14348674D01*
X9415491Y-14348674D02*
X9425015Y-14367722D01*
X9425015Y-14367722D02*
X9425015Y-14472484D01*
X9815491Y-14262960D02*
X9644063Y-14520103D01*
X10072634Y-14272484D02*
X10091682Y-14272484D01*
X10091682Y-14272484D02*
X10110729Y-14282008D01*
X10110729Y-14282008D02*
X10120253Y-14291531D01*
X10120253Y-14291531D02*
X10129777Y-14310579D01*
X10129777Y-14310579D02*
X10139301Y-14348674D01*
X10139301Y-14348674D02*
X10139301Y-14396293D01*
X10139301Y-14396293D02*
X10129777Y-14434388D01*
X10129777Y-14434388D02*
X10120253Y-14453436D01*
X10120253Y-14453436D02*
X10110729Y-14462960D01*
X10110729Y-14462960D02*
X10091682Y-14472484D01*
X10091682Y-14472484D02*
X10072634Y-14472484D01*
X10072634Y-14472484D02*
X10053587Y-14462960D01*
X10053587Y-14462960D02*
X10044063Y-14453436D01*
X10044063Y-14453436D02*
X10034539Y-14434388D01*
X10034539Y-14434388D02*
X10025015Y-14396293D01*
X10025015Y-14396293D02*
X10025015Y-14348674D01*
X10025015Y-14348674D02*
X10034539Y-14310579D01*
X10034539Y-14310579D02*
X10044063Y-14291531D01*
X10044063Y-14291531D02*
X10053587Y-14282008D01*
X10053587Y-14282008D02*
X10072634Y-14272484D01*
X10225015Y-14453436D02*
X10234539Y-14462960D01*
X10234539Y-14462960D02*
X10225015Y-14472484D01*
X10225015Y-14472484D02*
X10215491Y-14462960D01*
X10215491Y-14462960D02*
X10225015Y-14453436D01*
X10225015Y-14453436D02*
X10225015Y-14472484D01*
X10358348Y-14272484D02*
X10377396Y-14272484D01*
X10377396Y-14272484D02*
X10396444Y-14282008D01*
X10396444Y-14282008D02*
X10405968Y-14291531D01*
X10405968Y-14291531D02*
X10415491Y-14310579D01*
X10415491Y-14310579D02*
X10425015Y-14348674D01*
X10425015Y-14348674D02*
X10425015Y-14396293D01*
X10425015Y-14396293D02*
X10415491Y-14434388D01*
X10415491Y-14434388D02*
X10405968Y-14453436D01*
X10405968Y-14453436D02*
X10396444Y-14462960D01*
X10396444Y-14462960D02*
X10377396Y-14472484D01*
X10377396Y-14472484D02*
X10358348Y-14472484D01*
X10358348Y-14472484D02*
X10339301Y-14462960D01*
X10339301Y-14462960D02*
X10329777Y-14453436D01*
X10329777Y-14453436D02*
X10320253Y-14434388D01*
X10320253Y-14434388D02*
X10310729Y-14396293D01*
X10310729Y-14396293D02*
X10310729Y-14348674D01*
X10310729Y-14348674D02*
X10320253Y-14310579D01*
X10320253Y-14310579D02*
X10329777Y-14291531D01*
X10329777Y-14291531D02*
X10339301Y-14282008D01*
X10339301Y-14282008D02*
X10358348Y-14272484D01*
X10491682Y-14272484D02*
X10615491Y-14272484D01*
X10615491Y-14272484D02*
X10548825Y-14348674D01*
X10548825Y-14348674D02*
X10577396Y-14348674D01*
X10577396Y-14348674D02*
X10596444Y-14358198D01*
X10596444Y-14358198D02*
X10605968Y-14367722D01*
X10605968Y-14367722D02*
X10615491Y-14386769D01*
X10615491Y-14386769D02*
X10615491Y-14434388D01*
X10615491Y-14434388D02*
X10605968Y-14453436D01*
X10605968Y-14453436D02*
X10596444Y-14462960D01*
X10596444Y-14462960D02*
X10577396Y-14472484D01*
X10577396Y-14472484D02*
X10520253Y-14472484D01*
X10520253Y-14472484D02*
X10501206Y-14462960D01*
X10501206Y-14462960D02*
X10491682Y-14453436D01*
X10805968Y-14472484D02*
X10691682Y-14472484D01*
X10748825Y-14472484D02*
X10748825Y-14272484D01*
X10748825Y-14272484D02*
X10729777Y-14301055D01*
X10729777Y-14301055D02*
X10710729Y-14320103D01*
X10710729Y-14320103D02*
X10691682Y-14329627D01*
X10986920Y-14272484D02*
X10891682Y-14272484D01*
X10891682Y-14272484D02*
X10882158Y-14367722D01*
X10882158Y-14367722D02*
X10891682Y-14358198D01*
X10891682Y-14358198D02*
X10910729Y-14348674D01*
X10910729Y-14348674D02*
X10958349Y-14348674D01*
X10958349Y-14348674D02*
X10977396Y-14358198D01*
X10977396Y-14358198D02*
X10986920Y-14367722D01*
X10986920Y-14367722D02*
X10996444Y-14386769D01*
X10996444Y-14386769D02*
X10996444Y-14434388D01*
X10996444Y-14434388D02*
X10986920Y-14453436D01*
X10986920Y-14453436D02*
X10977396Y-14462960D01*
X10977396Y-14462960D02*
X10958349Y-14472484D01*
X10958349Y-14472484D02*
X10910729Y-14472484D01*
X10910729Y-14472484D02*
X10891682Y-14462960D01*
X10891682Y-14462960D02*
X10882158Y-14453436D01*
X11072634Y-14272484D02*
X11072634Y-14310579D01*
X11148825Y-14272484D02*
X11148825Y-14310579D01*
X11444063Y-14548674D02*
X11434539Y-14539150D01*
X11434539Y-14539150D02*
X11415491Y-14510579D01*
X11415491Y-14510579D02*
X11405968Y-14491531D01*
X11405968Y-14491531D02*
X11396444Y-14462960D01*
X11396444Y-14462960D02*
X11386920Y-14415341D01*
X11386920Y-14415341D02*
X11386920Y-14377246D01*
X11386920Y-14377246D02*
X11396444Y-14329627D01*
X11396444Y-14329627D02*
X11405968Y-14301055D01*
X11405968Y-14301055D02*
X11415491Y-14282008D01*
X11415491Y-14282008D02*
X11434539Y-14253436D01*
X11434539Y-14253436D02*
X11444063Y-14243912D01*
X11510729Y-14291531D02*
X11520253Y-14282008D01*
X11520253Y-14282008D02*
X11539301Y-14272484D01*
X11539301Y-14272484D02*
X11586920Y-14272484D01*
X11586920Y-14272484D02*
X11605968Y-14282008D01*
X11605968Y-14282008D02*
X11615491Y-14291531D01*
X11615491Y-14291531D02*
X11625015Y-14310579D01*
X11625015Y-14310579D02*
X11625015Y-14329627D01*
X11625015Y-14329627D02*
X11615491Y-14358198D01*
X11615491Y-14358198D02*
X11501206Y-14472484D01*
X11501206Y-14472484D02*
X11625015Y-14472484D01*
X11796444Y-14272484D02*
X11758348Y-14272484D01*
X11758348Y-14272484D02*
X11739301Y-14282008D01*
X11739301Y-14282008D02*
X11729777Y-14291531D01*
X11729777Y-14291531D02*
X11710729Y-14320103D01*
X11710729Y-14320103D02*
X11701206Y-14358198D01*
X11701206Y-14358198D02*
X11701206Y-14434388D01*
X11701206Y-14434388D02*
X11710729Y-14453436D01*
X11710729Y-14453436D02*
X11720253Y-14462960D01*
X11720253Y-14462960D02*
X11739301Y-14472484D01*
X11739301Y-14472484D02*
X11777396Y-14472484D01*
X11777396Y-14472484D02*
X11796444Y-14462960D01*
X11796444Y-14462960D02*
X11805968Y-14453436D01*
X11805968Y-14453436D02*
X11815491Y-14434388D01*
X11815491Y-14434388D02*
X11815491Y-14386769D01*
X11815491Y-14386769D02*
X11805968Y-14367722D01*
X11805968Y-14367722D02*
X11796444Y-14358198D01*
X11796444Y-14358198D02*
X11777396Y-14348674D01*
X11777396Y-14348674D02*
X11739301Y-14348674D01*
X11739301Y-14348674D02*
X11720253Y-14358198D01*
X11720253Y-14358198D02*
X11710729Y-14367722D01*
X11710729Y-14367722D02*
X11701206Y-14386769D01*
X12053587Y-14472484D02*
X12053587Y-14272484D01*
X12139301Y-14472484D02*
X12139301Y-14367722D01*
X12139301Y-14367722D02*
X12129777Y-14348674D01*
X12129777Y-14348674D02*
X12110730Y-14339150D01*
X12110730Y-14339150D02*
X12082158Y-14339150D01*
X12082158Y-14339150D02*
X12063110Y-14348674D01*
X12063110Y-14348674D02*
X12053587Y-14358198D01*
X12263110Y-14472484D02*
X12244063Y-14462960D01*
X12244063Y-14462960D02*
X12234539Y-14453436D01*
X12234539Y-14453436D02*
X12225015Y-14434388D01*
X12225015Y-14434388D02*
X12225015Y-14377246D01*
X12225015Y-14377246D02*
X12234539Y-14358198D01*
X12234539Y-14358198D02*
X12244063Y-14348674D01*
X12244063Y-14348674D02*
X12263110Y-14339150D01*
X12263110Y-14339150D02*
X12291682Y-14339150D01*
X12291682Y-14339150D02*
X12310730Y-14348674D01*
X12310730Y-14348674D02*
X12320253Y-14358198D01*
X12320253Y-14358198D02*
X12329777Y-14377246D01*
X12329777Y-14377246D02*
X12329777Y-14434388D01*
X12329777Y-14434388D02*
X12320253Y-14453436D01*
X12320253Y-14453436D02*
X12310730Y-14462960D01*
X12310730Y-14462960D02*
X12291682Y-14472484D01*
X12291682Y-14472484D02*
X12263110Y-14472484D01*
X12444063Y-14472484D02*
X12425015Y-14462960D01*
X12425015Y-14462960D02*
X12415491Y-14443912D01*
X12415491Y-14443912D02*
X12415491Y-14272484D01*
X12596444Y-14462960D02*
X12577396Y-14472484D01*
X12577396Y-14472484D02*
X12539301Y-14472484D01*
X12539301Y-14472484D02*
X12520253Y-14462960D01*
X12520253Y-14462960D02*
X12510730Y-14443912D01*
X12510730Y-14443912D02*
X12510730Y-14367722D01*
X12510730Y-14367722D02*
X12520253Y-14348674D01*
X12520253Y-14348674D02*
X12539301Y-14339150D01*
X12539301Y-14339150D02*
X12577396Y-14339150D01*
X12577396Y-14339150D02*
X12596444Y-14348674D01*
X12596444Y-14348674D02*
X12605968Y-14367722D01*
X12605968Y-14367722D02*
X12605968Y-14386769D01*
X12605968Y-14386769D02*
X12510730Y-14405817D01*
X12682158Y-14462960D02*
X12701206Y-14472484D01*
X12701206Y-14472484D02*
X12739301Y-14472484D01*
X12739301Y-14472484D02*
X12758349Y-14462960D01*
X12758349Y-14462960D02*
X12767872Y-14443912D01*
X12767872Y-14443912D02*
X12767872Y-14434388D01*
X12767872Y-14434388D02*
X12758349Y-14415341D01*
X12758349Y-14415341D02*
X12739301Y-14405817D01*
X12739301Y-14405817D02*
X12710730Y-14405817D01*
X12710730Y-14405817D02*
X12691682Y-14396293D01*
X12691682Y-14396293D02*
X12682158Y-14377246D01*
X12682158Y-14377246D02*
X12682158Y-14367722D01*
X12682158Y-14367722D02*
X12691682Y-14348674D01*
X12691682Y-14348674D02*
X12710730Y-14339150D01*
X12710730Y-14339150D02*
X12739301Y-14339150D01*
X12739301Y-14339150D02*
X12758349Y-14348674D01*
X12834539Y-14548674D02*
X12844063Y-14539150D01*
X12844063Y-14539150D02*
X12863111Y-14510579D01*
X12863111Y-14510579D02*
X12872634Y-14491531D01*
X12872634Y-14491531D02*
X12882158Y-14462960D01*
X12882158Y-14462960D02*
X12891682Y-14415341D01*
X12891682Y-14415341D02*
X12891682Y-14377246D01*
X12891682Y-14377246D02*
X12882158Y-14329627D01*
X12882158Y-14329627D02*
X12872634Y-14301055D01*
X12872634Y-14301055D02*
X12863111Y-14282008D01*
X12863111Y-14282008D02*
X12844063Y-14253436D01*
X12844063Y-14253436D02*
X12834539Y-14243912D01*
D10*
X7854356Y-14680356D02*
X7854356Y-14609644D01*
X7783644Y-14609644D01*
X7783644Y-14680356D01*
X7854356Y-14680356D01*
D11*
X8234539Y-14736484D02*
X8120253Y-14736484D01*
X8177396Y-14736484D02*
X8177396Y-14536484D01*
X8177396Y-14536484D02*
X8158348Y-14565055D01*
X8158348Y-14565055D02*
X8139301Y-14584103D01*
X8139301Y-14584103D02*
X8120253Y-14593627D01*
X8320253Y-14717436D02*
X8329777Y-14726960D01*
X8329777Y-14726960D02*
X8320253Y-14736484D01*
X8320253Y-14736484D02*
X8310729Y-14726960D01*
X8310729Y-14726960D02*
X8320253Y-14717436D01*
X8320253Y-14717436D02*
X8320253Y-14736484D01*
X8453586Y-14536484D02*
X8472634Y-14536484D01*
X8472634Y-14536484D02*
X8491682Y-14546008D01*
X8491682Y-14546008D02*
X8501205Y-14555531D01*
X8501205Y-14555531D02*
X8510729Y-14574579D01*
X8510729Y-14574579D02*
X8520253Y-14612674D01*
X8520253Y-14612674D02*
X8520253Y-14660293D01*
X8520253Y-14660293D02*
X8510729Y-14698388D01*
X8510729Y-14698388D02*
X8501205Y-14717436D01*
X8501205Y-14717436D02*
X8491682Y-14726960D01*
X8491682Y-14726960D02*
X8472634Y-14736484D01*
X8472634Y-14736484D02*
X8453586Y-14736484D01*
X8453586Y-14736484D02*
X8434539Y-14726960D01*
X8434539Y-14726960D02*
X8425015Y-14717436D01*
X8425015Y-14717436D02*
X8415491Y-14698388D01*
X8415491Y-14698388D02*
X8405967Y-14660293D01*
X8405967Y-14660293D02*
X8405967Y-14612674D01*
X8405967Y-14612674D02*
X8415491Y-14574579D01*
X8415491Y-14574579D02*
X8425015Y-14555531D01*
X8425015Y-14555531D02*
X8434539Y-14546008D01*
X8434539Y-14546008D02*
X8453586Y-14536484D01*
X8644063Y-14536484D02*
X8663110Y-14536484D01*
X8663110Y-14536484D02*
X8682158Y-14546008D01*
X8682158Y-14546008D02*
X8691682Y-14555531D01*
X8691682Y-14555531D02*
X8701205Y-14574579D01*
X8701205Y-14574579D02*
X8710729Y-14612674D01*
X8710729Y-14612674D02*
X8710729Y-14660293D01*
X8710729Y-14660293D02*
X8701205Y-14698388D01*
X8701205Y-14698388D02*
X8691682Y-14717436D01*
X8691682Y-14717436D02*
X8682158Y-14726960D01*
X8682158Y-14726960D02*
X8663110Y-14736484D01*
X8663110Y-14736484D02*
X8644063Y-14736484D01*
X8644063Y-14736484D02*
X8625015Y-14726960D01*
X8625015Y-14726960D02*
X8615491Y-14717436D01*
X8615491Y-14717436D02*
X8605967Y-14698388D01*
X8605967Y-14698388D02*
X8596444Y-14660293D01*
X8596444Y-14660293D02*
X8596444Y-14612674D01*
X8596444Y-14612674D02*
X8605967Y-14574579D01*
X8605967Y-14574579D02*
X8615491Y-14555531D01*
X8615491Y-14555531D02*
X8625015Y-14546008D01*
X8625015Y-14546008D02*
X8644063Y-14536484D01*
X8834539Y-14536484D02*
X8853586Y-14536484D01*
X8853586Y-14536484D02*
X8872634Y-14546008D01*
X8872634Y-14546008D02*
X8882158Y-14555531D01*
X8882158Y-14555531D02*
X8891682Y-14574579D01*
X8891682Y-14574579D02*
X8901205Y-14612674D01*
X8901205Y-14612674D02*
X8901205Y-14660293D01*
X8901205Y-14660293D02*
X8891682Y-14698388D01*
X8891682Y-14698388D02*
X8882158Y-14717436D01*
X8882158Y-14717436D02*
X8872634Y-14726960D01*
X8872634Y-14726960D02*
X8853586Y-14736484D01*
X8853586Y-14736484D02*
X8834539Y-14736484D01*
X8834539Y-14736484D02*
X8815491Y-14726960D01*
X8815491Y-14726960D02*
X8805967Y-14717436D01*
X8805967Y-14717436D02*
X8796444Y-14698388D01*
X8796444Y-14698388D02*
X8786920Y-14660293D01*
X8786920Y-14660293D02*
X8786920Y-14612674D01*
X8786920Y-14612674D02*
X8796444Y-14574579D01*
X8796444Y-14574579D02*
X8805967Y-14555531D01*
X8805967Y-14555531D02*
X8815491Y-14546008D01*
X8815491Y-14546008D02*
X8834539Y-14536484D01*
X8986920Y-14736484D02*
X8986920Y-14603150D01*
X8986920Y-14622198D02*
X8996444Y-14612674D01*
X8996444Y-14612674D02*
X9015491Y-14603150D01*
X9015491Y-14603150D02*
X9044063Y-14603150D01*
X9044063Y-14603150D02*
X9063110Y-14612674D01*
X9063110Y-14612674D02*
X9072634Y-14631722D01*
X9072634Y-14631722D02*
X9072634Y-14736484D01*
X9072634Y-14631722D02*
X9082158Y-14612674D01*
X9082158Y-14612674D02*
X9101205Y-14603150D01*
X9101205Y-14603150D02*
X9129777Y-14603150D01*
X9129777Y-14603150D02*
X9148825Y-14612674D01*
X9148825Y-14612674D02*
X9158348Y-14631722D01*
X9158348Y-14631722D02*
X9158348Y-14736484D01*
X9253586Y-14736484D02*
X9253586Y-14603150D01*
X9253586Y-14622198D02*
X9263110Y-14612674D01*
X9263110Y-14612674D02*
X9282158Y-14603150D01*
X9282158Y-14603150D02*
X9310729Y-14603150D01*
X9310729Y-14603150D02*
X9329777Y-14612674D01*
X9329777Y-14612674D02*
X9339301Y-14631722D01*
X9339301Y-14631722D02*
X9339301Y-14736484D01*
X9339301Y-14631722D02*
X9348825Y-14612674D01*
X9348825Y-14612674D02*
X9367872Y-14603150D01*
X9367872Y-14603150D02*
X9396444Y-14603150D01*
X9396444Y-14603150D02*
X9415491Y-14612674D01*
X9415491Y-14612674D02*
X9425015Y-14631722D01*
X9425015Y-14631722D02*
X9425015Y-14736484D01*
X9815491Y-14526960D02*
X9644063Y-14784103D01*
X10072634Y-14536484D02*
X10091682Y-14536484D01*
X10091682Y-14536484D02*
X10110729Y-14546008D01*
X10110729Y-14546008D02*
X10120253Y-14555531D01*
X10120253Y-14555531D02*
X10129777Y-14574579D01*
X10129777Y-14574579D02*
X10139301Y-14612674D01*
X10139301Y-14612674D02*
X10139301Y-14660293D01*
X10139301Y-14660293D02*
X10129777Y-14698388D01*
X10129777Y-14698388D02*
X10120253Y-14717436D01*
X10120253Y-14717436D02*
X10110729Y-14726960D01*
X10110729Y-14726960D02*
X10091682Y-14736484D01*
X10091682Y-14736484D02*
X10072634Y-14736484D01*
X10072634Y-14736484D02*
X10053587Y-14726960D01*
X10053587Y-14726960D02*
X10044063Y-14717436D01*
X10044063Y-14717436D02*
X10034539Y-14698388D01*
X10034539Y-14698388D02*
X10025015Y-14660293D01*
X10025015Y-14660293D02*
X10025015Y-14612674D01*
X10025015Y-14612674D02*
X10034539Y-14574579D01*
X10034539Y-14574579D02*
X10044063Y-14555531D01*
X10044063Y-14555531D02*
X10053587Y-14546008D01*
X10053587Y-14546008D02*
X10072634Y-14536484D01*
X10225015Y-14717436D02*
X10234539Y-14726960D01*
X10234539Y-14726960D02*
X10225015Y-14736484D01*
X10225015Y-14736484D02*
X10215491Y-14726960D01*
X10215491Y-14726960D02*
X10225015Y-14717436D01*
X10225015Y-14717436D02*
X10225015Y-14736484D01*
X10358348Y-14536484D02*
X10377396Y-14536484D01*
X10377396Y-14536484D02*
X10396444Y-14546008D01*
X10396444Y-14546008D02*
X10405968Y-14555531D01*
X10405968Y-14555531D02*
X10415491Y-14574579D01*
X10415491Y-14574579D02*
X10425015Y-14612674D01*
X10425015Y-14612674D02*
X10425015Y-14660293D01*
X10425015Y-14660293D02*
X10415491Y-14698388D01*
X10415491Y-14698388D02*
X10405968Y-14717436D01*
X10405968Y-14717436D02*
X10396444Y-14726960D01*
X10396444Y-14726960D02*
X10377396Y-14736484D01*
X10377396Y-14736484D02*
X10358348Y-14736484D01*
X10358348Y-14736484D02*
X10339301Y-14726960D01*
X10339301Y-14726960D02*
X10329777Y-14717436D01*
X10329777Y-14717436D02*
X10320253Y-14698388D01*
X10320253Y-14698388D02*
X10310729Y-14660293D01*
X10310729Y-14660293D02*
X10310729Y-14612674D01*
X10310729Y-14612674D02*
X10320253Y-14574579D01*
X10320253Y-14574579D02*
X10329777Y-14555531D01*
X10329777Y-14555531D02*
X10339301Y-14546008D01*
X10339301Y-14546008D02*
X10358348Y-14536484D01*
X10491682Y-14536484D02*
X10615491Y-14536484D01*
X10615491Y-14536484D02*
X10548825Y-14612674D01*
X10548825Y-14612674D02*
X10577396Y-14612674D01*
X10577396Y-14612674D02*
X10596444Y-14622198D01*
X10596444Y-14622198D02*
X10605968Y-14631722D01*
X10605968Y-14631722D02*
X10615491Y-14650769D01*
X10615491Y-14650769D02*
X10615491Y-14698388D01*
X10615491Y-14698388D02*
X10605968Y-14717436D01*
X10605968Y-14717436D02*
X10596444Y-14726960D01*
X10596444Y-14726960D02*
X10577396Y-14736484D01*
X10577396Y-14736484D02*
X10520253Y-14736484D01*
X10520253Y-14736484D02*
X10501206Y-14726960D01*
X10501206Y-14726960D02*
X10491682Y-14717436D01*
X10710729Y-14736484D02*
X10748825Y-14736484D01*
X10748825Y-14736484D02*
X10767872Y-14726960D01*
X10767872Y-14726960D02*
X10777396Y-14717436D01*
X10777396Y-14717436D02*
X10796444Y-14688865D01*
X10796444Y-14688865D02*
X10805968Y-14650769D01*
X10805968Y-14650769D02*
X10805968Y-14574579D01*
X10805968Y-14574579D02*
X10796444Y-14555531D01*
X10796444Y-14555531D02*
X10786920Y-14546008D01*
X10786920Y-14546008D02*
X10767872Y-14536484D01*
X10767872Y-14536484D02*
X10729777Y-14536484D01*
X10729777Y-14536484D02*
X10710729Y-14546008D01*
X10710729Y-14546008D02*
X10701206Y-14555531D01*
X10701206Y-14555531D02*
X10691682Y-14574579D01*
X10691682Y-14574579D02*
X10691682Y-14622198D01*
X10691682Y-14622198D02*
X10701206Y-14641246D01*
X10701206Y-14641246D02*
X10710729Y-14650769D01*
X10710729Y-14650769D02*
X10729777Y-14660293D01*
X10729777Y-14660293D02*
X10767872Y-14660293D01*
X10767872Y-14660293D02*
X10786920Y-14650769D01*
X10786920Y-14650769D02*
X10796444Y-14641246D01*
X10796444Y-14641246D02*
X10805968Y-14622198D01*
X10977396Y-14603150D02*
X10977396Y-14736484D01*
X10929777Y-14526960D02*
X10882158Y-14669817D01*
X10882158Y-14669817D02*
X11005968Y-14669817D01*
X11072634Y-14536484D02*
X11072634Y-14574579D01*
X11148825Y-14536484D02*
X11148825Y-14574579D01*
X11444063Y-14812674D02*
X11434539Y-14803150D01*
X11434539Y-14803150D02*
X11415491Y-14774579D01*
X11415491Y-14774579D02*
X11405968Y-14755531D01*
X11405968Y-14755531D02*
X11396444Y-14726960D01*
X11396444Y-14726960D02*
X11386920Y-14679341D01*
X11386920Y-14679341D02*
X11386920Y-14641246D01*
X11386920Y-14641246D02*
X11396444Y-14593627D01*
X11396444Y-14593627D02*
X11405968Y-14565055D01*
X11405968Y-14565055D02*
X11415491Y-14546008D01*
X11415491Y-14546008D02*
X11434539Y-14517436D01*
X11434539Y-14517436D02*
X11444063Y-14507912D01*
X11501206Y-14536484D02*
X11625015Y-14536484D01*
X11625015Y-14536484D02*
X11558348Y-14612674D01*
X11558348Y-14612674D02*
X11586920Y-14612674D01*
X11586920Y-14612674D02*
X11605968Y-14622198D01*
X11605968Y-14622198D02*
X11615491Y-14631722D01*
X11615491Y-14631722D02*
X11625015Y-14650769D01*
X11625015Y-14650769D02*
X11625015Y-14698388D01*
X11625015Y-14698388D02*
X11615491Y-14717436D01*
X11615491Y-14717436D02*
X11605968Y-14726960D01*
X11605968Y-14726960D02*
X11586920Y-14736484D01*
X11586920Y-14736484D02*
X11529777Y-14736484D01*
X11529777Y-14736484D02*
X11510729Y-14726960D01*
X11510729Y-14726960D02*
X11501206Y-14717436D01*
X11815491Y-14736484D02*
X11701206Y-14736484D01*
X11758348Y-14736484D02*
X11758348Y-14536484D01*
X11758348Y-14536484D02*
X11739301Y-14565055D01*
X11739301Y-14565055D02*
X11720253Y-14584103D01*
X11720253Y-14584103D02*
X11701206Y-14593627D01*
X12053587Y-14736484D02*
X12053587Y-14536484D01*
X12139301Y-14736484D02*
X12139301Y-14631722D01*
X12139301Y-14631722D02*
X12129777Y-14612674D01*
X12129777Y-14612674D02*
X12110730Y-14603150D01*
X12110730Y-14603150D02*
X12082158Y-14603150D01*
X12082158Y-14603150D02*
X12063110Y-14612674D01*
X12063110Y-14612674D02*
X12053587Y-14622198D01*
X12263110Y-14736484D02*
X12244063Y-14726960D01*
X12244063Y-14726960D02*
X12234539Y-14717436D01*
X12234539Y-14717436D02*
X12225015Y-14698388D01*
X12225015Y-14698388D02*
X12225015Y-14641246D01*
X12225015Y-14641246D02*
X12234539Y-14622198D01*
X12234539Y-14622198D02*
X12244063Y-14612674D01*
X12244063Y-14612674D02*
X12263110Y-14603150D01*
X12263110Y-14603150D02*
X12291682Y-14603150D01*
X12291682Y-14603150D02*
X12310730Y-14612674D01*
X12310730Y-14612674D02*
X12320253Y-14622198D01*
X12320253Y-14622198D02*
X12329777Y-14641246D01*
X12329777Y-14641246D02*
X12329777Y-14698388D01*
X12329777Y-14698388D02*
X12320253Y-14717436D01*
X12320253Y-14717436D02*
X12310730Y-14726960D01*
X12310730Y-14726960D02*
X12291682Y-14736484D01*
X12291682Y-14736484D02*
X12263110Y-14736484D01*
X12444063Y-14736484D02*
X12425015Y-14726960D01*
X12425015Y-14726960D02*
X12415491Y-14707912D01*
X12415491Y-14707912D02*
X12415491Y-14536484D01*
X12596444Y-14726960D02*
X12577396Y-14736484D01*
X12577396Y-14736484D02*
X12539301Y-14736484D01*
X12539301Y-14736484D02*
X12520253Y-14726960D01*
X12520253Y-14726960D02*
X12510730Y-14707912D01*
X12510730Y-14707912D02*
X12510730Y-14631722D01*
X12510730Y-14631722D02*
X12520253Y-14612674D01*
X12520253Y-14612674D02*
X12539301Y-14603150D01*
X12539301Y-14603150D02*
X12577396Y-14603150D01*
X12577396Y-14603150D02*
X12596444Y-14612674D01*
X12596444Y-14612674D02*
X12605968Y-14631722D01*
X12605968Y-14631722D02*
X12605968Y-14650769D01*
X12605968Y-14650769D02*
X12510730Y-14669817D01*
X12682158Y-14726960D02*
X12701206Y-14736484D01*
X12701206Y-14736484D02*
X12739301Y-14736484D01*
X12739301Y-14736484D02*
X12758349Y-14726960D01*
X12758349Y-14726960D02*
X12767872Y-14707912D01*
X12767872Y-14707912D02*
X12767872Y-14698388D01*
X12767872Y-14698388D02*
X12758349Y-14679341D01*
X12758349Y-14679341D02*
X12739301Y-14669817D01*
X12739301Y-14669817D02*
X12710730Y-14669817D01*
X12710730Y-14669817D02*
X12691682Y-14660293D01*
X12691682Y-14660293D02*
X12682158Y-14641246D01*
X12682158Y-14641246D02*
X12682158Y-14631722D01*
X12682158Y-14631722D02*
X12691682Y-14612674D01*
X12691682Y-14612674D02*
X12710730Y-14603150D01*
X12710730Y-14603150D02*
X12739301Y-14603150D01*
X12739301Y-14603150D02*
X12758349Y-14612674D01*
X12834539Y-14812674D02*
X12844063Y-14803150D01*
X12844063Y-14803150D02*
X12863111Y-14774579D01*
X12863111Y-14774579D02*
X12872634Y-14755531D01*
X12872634Y-14755531D02*
X12882158Y-14726960D01*
X12882158Y-14726960D02*
X12891682Y-14679341D01*
X12891682Y-14679341D02*
X12891682Y-14641246D01*
X12891682Y-14641246D02*
X12882158Y-14593627D01*
X12882158Y-14593627D02*
X12872634Y-14565055D01*
X12872634Y-14565055D02*
X12863111Y-14546008D01*
X12863111Y-14546008D02*
X12844063Y-14517436D01*
X12844063Y-14517436D02*
X12834539Y-14507912D01*
X7769000Y-15009000D02*
X7869000Y-14909000D01*
X7769000Y-14809000D01*
X7669000Y-14909000D01*
X7769000Y-15009000D01*
X8120253Y-14819531D02*
X8129777Y-14810008D01*
X8129777Y-14810008D02*
X8148824Y-14800484D01*
X8148824Y-14800484D02*
X8196443Y-14800484D01*
X8196443Y-14800484D02*
X8215491Y-14810008D01*
X8215491Y-14810008D02*
X8225015Y-14819531D01*
X8225015Y-14819531D02*
X8234539Y-14838579D01*
X8234539Y-14838579D02*
X8234539Y-14857627D01*
X8234539Y-14857627D02*
X8225015Y-14886198D01*
X8225015Y-14886198D02*
X8110729Y-15000484D01*
X8110729Y-15000484D02*
X8234539Y-15000484D01*
X8320253Y-14981436D02*
X8329777Y-14990960D01*
X8329777Y-14990960D02*
X8320253Y-15000484D01*
X8320253Y-15000484D02*
X8310729Y-14990960D01*
X8310729Y-14990960D02*
X8320253Y-14981436D01*
X8320253Y-14981436D02*
X8320253Y-15000484D01*
X8405967Y-14819531D02*
X8415491Y-14810008D01*
X8415491Y-14810008D02*
X8434539Y-14800484D01*
X8434539Y-14800484D02*
X8482158Y-14800484D01*
X8482158Y-14800484D02*
X8501205Y-14810008D01*
X8501205Y-14810008D02*
X8510729Y-14819531D01*
X8510729Y-14819531D02*
X8520253Y-14838579D01*
X8520253Y-14838579D02*
X8520253Y-14857627D01*
X8520253Y-14857627D02*
X8510729Y-14886198D01*
X8510729Y-14886198D02*
X8396444Y-15000484D01*
X8396444Y-15000484D02*
X8520253Y-15000484D01*
X8644063Y-14800484D02*
X8663110Y-14800484D01*
X8663110Y-14800484D02*
X8682158Y-14810008D01*
X8682158Y-14810008D02*
X8691682Y-14819531D01*
X8691682Y-14819531D02*
X8701205Y-14838579D01*
X8701205Y-14838579D02*
X8710729Y-14876674D01*
X8710729Y-14876674D02*
X8710729Y-14924293D01*
X8710729Y-14924293D02*
X8701205Y-14962388D01*
X8701205Y-14962388D02*
X8691682Y-14981436D01*
X8691682Y-14981436D02*
X8682158Y-14990960D01*
X8682158Y-14990960D02*
X8663110Y-15000484D01*
X8663110Y-15000484D02*
X8644063Y-15000484D01*
X8644063Y-15000484D02*
X8625015Y-14990960D01*
X8625015Y-14990960D02*
X8615491Y-14981436D01*
X8615491Y-14981436D02*
X8605967Y-14962388D01*
X8605967Y-14962388D02*
X8596444Y-14924293D01*
X8596444Y-14924293D02*
X8596444Y-14876674D01*
X8596444Y-14876674D02*
X8605967Y-14838579D01*
X8605967Y-14838579D02*
X8615491Y-14819531D01*
X8615491Y-14819531D02*
X8625015Y-14810008D01*
X8625015Y-14810008D02*
X8644063Y-14800484D01*
X8834539Y-14800484D02*
X8853586Y-14800484D01*
X8853586Y-14800484D02*
X8872634Y-14810008D01*
X8872634Y-14810008D02*
X8882158Y-14819531D01*
X8882158Y-14819531D02*
X8891682Y-14838579D01*
X8891682Y-14838579D02*
X8901205Y-14876674D01*
X8901205Y-14876674D02*
X8901205Y-14924293D01*
X8901205Y-14924293D02*
X8891682Y-14962388D01*
X8891682Y-14962388D02*
X8882158Y-14981436D01*
X8882158Y-14981436D02*
X8872634Y-14990960D01*
X8872634Y-14990960D02*
X8853586Y-15000484D01*
X8853586Y-15000484D02*
X8834539Y-15000484D01*
X8834539Y-15000484D02*
X8815491Y-14990960D01*
X8815491Y-14990960D02*
X8805967Y-14981436D01*
X8805967Y-14981436D02*
X8796444Y-14962388D01*
X8796444Y-14962388D02*
X8786920Y-14924293D01*
X8786920Y-14924293D02*
X8786920Y-14876674D01*
X8786920Y-14876674D02*
X8796444Y-14838579D01*
X8796444Y-14838579D02*
X8805967Y-14819531D01*
X8805967Y-14819531D02*
X8815491Y-14810008D01*
X8815491Y-14810008D02*
X8834539Y-14800484D01*
X8986920Y-15000484D02*
X8986920Y-14867150D01*
X8986920Y-14886198D02*
X8996444Y-14876674D01*
X8996444Y-14876674D02*
X9015491Y-14867150D01*
X9015491Y-14867150D02*
X9044063Y-14867150D01*
X9044063Y-14867150D02*
X9063110Y-14876674D01*
X9063110Y-14876674D02*
X9072634Y-14895722D01*
X9072634Y-14895722D02*
X9072634Y-15000484D01*
X9072634Y-14895722D02*
X9082158Y-14876674D01*
X9082158Y-14876674D02*
X9101205Y-14867150D01*
X9101205Y-14867150D02*
X9129777Y-14867150D01*
X9129777Y-14867150D02*
X9148825Y-14876674D01*
X9148825Y-14876674D02*
X9158348Y-14895722D01*
X9158348Y-14895722D02*
X9158348Y-15000484D01*
X9253586Y-15000484D02*
X9253586Y-14867150D01*
X9253586Y-14886198D02*
X9263110Y-14876674D01*
X9263110Y-14876674D02*
X9282158Y-14867150D01*
X9282158Y-14867150D02*
X9310729Y-14867150D01*
X9310729Y-14867150D02*
X9329777Y-14876674D01*
X9329777Y-14876674D02*
X9339301Y-14895722D01*
X9339301Y-14895722D02*
X9339301Y-15000484D01*
X9339301Y-14895722D02*
X9348825Y-14876674D01*
X9348825Y-14876674D02*
X9367872Y-14867150D01*
X9367872Y-14867150D02*
X9396444Y-14867150D01*
X9396444Y-14867150D02*
X9415491Y-14876674D01*
X9415491Y-14876674D02*
X9425015Y-14895722D01*
X9425015Y-14895722D02*
X9425015Y-15000484D01*
X9815491Y-14790960D02*
X9644063Y-15048103D01*
X10072634Y-14800484D02*
X10091682Y-14800484D01*
X10091682Y-14800484D02*
X10110729Y-14810008D01*
X10110729Y-14810008D02*
X10120253Y-14819531D01*
X10120253Y-14819531D02*
X10129777Y-14838579D01*
X10129777Y-14838579D02*
X10139301Y-14876674D01*
X10139301Y-14876674D02*
X10139301Y-14924293D01*
X10139301Y-14924293D02*
X10129777Y-14962388D01*
X10129777Y-14962388D02*
X10120253Y-14981436D01*
X10120253Y-14981436D02*
X10110729Y-14990960D01*
X10110729Y-14990960D02*
X10091682Y-15000484D01*
X10091682Y-15000484D02*
X10072634Y-15000484D01*
X10072634Y-15000484D02*
X10053587Y-14990960D01*
X10053587Y-14990960D02*
X10044063Y-14981436D01*
X10044063Y-14981436D02*
X10034539Y-14962388D01*
X10034539Y-14962388D02*
X10025015Y-14924293D01*
X10025015Y-14924293D02*
X10025015Y-14876674D01*
X10025015Y-14876674D02*
X10034539Y-14838579D01*
X10034539Y-14838579D02*
X10044063Y-14819531D01*
X10044063Y-14819531D02*
X10053587Y-14810008D01*
X10053587Y-14810008D02*
X10072634Y-14800484D01*
X10225015Y-14981436D02*
X10234539Y-14990960D01*
X10234539Y-14990960D02*
X10225015Y-15000484D01*
X10225015Y-15000484D02*
X10215491Y-14990960D01*
X10215491Y-14990960D02*
X10225015Y-14981436D01*
X10225015Y-14981436D02*
X10225015Y-15000484D01*
X10358348Y-14800484D02*
X10377396Y-14800484D01*
X10377396Y-14800484D02*
X10396444Y-14810008D01*
X10396444Y-14810008D02*
X10405968Y-14819531D01*
X10405968Y-14819531D02*
X10415491Y-14838579D01*
X10415491Y-14838579D02*
X10425015Y-14876674D01*
X10425015Y-14876674D02*
X10425015Y-14924293D01*
X10425015Y-14924293D02*
X10415491Y-14962388D01*
X10415491Y-14962388D02*
X10405968Y-14981436D01*
X10405968Y-14981436D02*
X10396444Y-14990960D01*
X10396444Y-14990960D02*
X10377396Y-15000484D01*
X10377396Y-15000484D02*
X10358348Y-15000484D01*
X10358348Y-15000484D02*
X10339301Y-14990960D01*
X10339301Y-14990960D02*
X10329777Y-14981436D01*
X10329777Y-14981436D02*
X10320253Y-14962388D01*
X10320253Y-14962388D02*
X10310729Y-14924293D01*
X10310729Y-14924293D02*
X10310729Y-14876674D01*
X10310729Y-14876674D02*
X10320253Y-14838579D01*
X10320253Y-14838579D02*
X10329777Y-14819531D01*
X10329777Y-14819531D02*
X10339301Y-14810008D01*
X10339301Y-14810008D02*
X10358348Y-14800484D01*
X10539301Y-14886198D02*
X10520253Y-14876674D01*
X10520253Y-14876674D02*
X10510729Y-14867150D01*
X10510729Y-14867150D02*
X10501206Y-14848103D01*
X10501206Y-14848103D02*
X10501206Y-14838579D01*
X10501206Y-14838579D02*
X10510729Y-14819531D01*
X10510729Y-14819531D02*
X10520253Y-14810008D01*
X10520253Y-14810008D02*
X10539301Y-14800484D01*
X10539301Y-14800484D02*
X10577396Y-14800484D01*
X10577396Y-14800484D02*
X10596444Y-14810008D01*
X10596444Y-14810008D02*
X10605968Y-14819531D01*
X10605968Y-14819531D02*
X10615491Y-14838579D01*
X10615491Y-14838579D02*
X10615491Y-14848103D01*
X10615491Y-14848103D02*
X10605968Y-14867150D01*
X10605968Y-14867150D02*
X10596444Y-14876674D01*
X10596444Y-14876674D02*
X10577396Y-14886198D01*
X10577396Y-14886198D02*
X10539301Y-14886198D01*
X10539301Y-14886198D02*
X10520253Y-14895722D01*
X10520253Y-14895722D02*
X10510729Y-14905246D01*
X10510729Y-14905246D02*
X10501206Y-14924293D01*
X10501206Y-14924293D02*
X10501206Y-14962388D01*
X10501206Y-14962388D02*
X10510729Y-14981436D01*
X10510729Y-14981436D02*
X10520253Y-14990960D01*
X10520253Y-14990960D02*
X10539301Y-15000484D01*
X10539301Y-15000484D02*
X10577396Y-15000484D01*
X10577396Y-15000484D02*
X10596444Y-14990960D01*
X10596444Y-14990960D02*
X10605968Y-14981436D01*
X10605968Y-14981436D02*
X10615491Y-14962388D01*
X10615491Y-14962388D02*
X10615491Y-14924293D01*
X10615491Y-14924293D02*
X10605968Y-14905246D01*
X10605968Y-14905246D02*
X10596444Y-14895722D01*
X10596444Y-14895722D02*
X10577396Y-14886198D01*
X10786920Y-14800484D02*
X10748825Y-14800484D01*
X10748825Y-14800484D02*
X10729777Y-14810008D01*
X10729777Y-14810008D02*
X10720253Y-14819531D01*
X10720253Y-14819531D02*
X10701206Y-14848103D01*
X10701206Y-14848103D02*
X10691682Y-14886198D01*
X10691682Y-14886198D02*
X10691682Y-14962388D01*
X10691682Y-14962388D02*
X10701206Y-14981436D01*
X10701206Y-14981436D02*
X10710729Y-14990960D01*
X10710729Y-14990960D02*
X10729777Y-15000484D01*
X10729777Y-15000484D02*
X10767872Y-15000484D01*
X10767872Y-15000484D02*
X10786920Y-14990960D01*
X10786920Y-14990960D02*
X10796444Y-14981436D01*
X10796444Y-14981436D02*
X10805968Y-14962388D01*
X10805968Y-14962388D02*
X10805968Y-14914769D01*
X10805968Y-14914769D02*
X10796444Y-14895722D01*
X10796444Y-14895722D02*
X10786920Y-14886198D01*
X10786920Y-14886198D02*
X10767872Y-14876674D01*
X10767872Y-14876674D02*
X10729777Y-14876674D01*
X10729777Y-14876674D02*
X10710729Y-14886198D01*
X10710729Y-14886198D02*
X10701206Y-14895722D01*
X10701206Y-14895722D02*
X10691682Y-14914769D01*
X10977396Y-14800484D02*
X10939301Y-14800484D01*
X10939301Y-14800484D02*
X10920253Y-14810008D01*
X10920253Y-14810008D02*
X10910729Y-14819531D01*
X10910729Y-14819531D02*
X10891682Y-14848103D01*
X10891682Y-14848103D02*
X10882158Y-14886198D01*
X10882158Y-14886198D02*
X10882158Y-14962388D01*
X10882158Y-14962388D02*
X10891682Y-14981436D01*
X10891682Y-14981436D02*
X10901206Y-14990960D01*
X10901206Y-14990960D02*
X10920253Y-15000484D01*
X10920253Y-15000484D02*
X10958349Y-15000484D01*
X10958349Y-15000484D02*
X10977396Y-14990960D01*
X10977396Y-14990960D02*
X10986920Y-14981436D01*
X10986920Y-14981436D02*
X10996444Y-14962388D01*
X10996444Y-14962388D02*
X10996444Y-14914769D01*
X10996444Y-14914769D02*
X10986920Y-14895722D01*
X10986920Y-14895722D02*
X10977396Y-14886198D01*
X10977396Y-14886198D02*
X10958349Y-14876674D01*
X10958349Y-14876674D02*
X10920253Y-14876674D01*
X10920253Y-14876674D02*
X10901206Y-14886198D01*
X10901206Y-14886198D02*
X10891682Y-14895722D01*
X10891682Y-14895722D02*
X10882158Y-14914769D01*
X11072634Y-14800484D02*
X11072634Y-14838579D01*
X11148825Y-14800484D02*
X11148825Y-14838579D01*
X11444063Y-15076674D02*
X11434539Y-15067150D01*
X11434539Y-15067150D02*
X11415491Y-15038579D01*
X11415491Y-15038579D02*
X11405968Y-15019531D01*
X11405968Y-15019531D02*
X11396444Y-14990960D01*
X11396444Y-14990960D02*
X11386920Y-14943341D01*
X11386920Y-14943341D02*
X11386920Y-14905246D01*
X11386920Y-14905246D02*
X11396444Y-14857627D01*
X11396444Y-14857627D02*
X11405968Y-14829055D01*
X11405968Y-14829055D02*
X11415491Y-14810008D01*
X11415491Y-14810008D02*
X11434539Y-14781436D01*
X11434539Y-14781436D02*
X11444063Y-14771912D01*
X11605968Y-14867150D02*
X11605968Y-15000484D01*
X11558348Y-14790960D02*
X11510729Y-14933817D01*
X11510729Y-14933817D02*
X11634539Y-14933817D01*
X11863110Y-15000484D02*
X11863110Y-14800484D01*
X11948825Y-15000484D02*
X11948825Y-14895722D01*
X11948825Y-14895722D02*
X11939301Y-14876674D01*
X11939301Y-14876674D02*
X11920253Y-14867150D01*
X11920253Y-14867150D02*
X11891682Y-14867150D01*
X11891682Y-14867150D02*
X11872634Y-14876674D01*
X11872634Y-14876674D02*
X11863110Y-14886198D01*
X12072634Y-15000484D02*
X12053587Y-14990960D01*
X12053587Y-14990960D02*
X12044063Y-14981436D01*
X12044063Y-14981436D02*
X12034539Y-14962388D01*
X12034539Y-14962388D02*
X12034539Y-14905246D01*
X12034539Y-14905246D02*
X12044063Y-14886198D01*
X12044063Y-14886198D02*
X12053587Y-14876674D01*
X12053587Y-14876674D02*
X12072634Y-14867150D01*
X12072634Y-14867150D02*
X12101206Y-14867150D01*
X12101206Y-14867150D02*
X12120253Y-14876674D01*
X12120253Y-14876674D02*
X12129777Y-14886198D01*
X12129777Y-14886198D02*
X12139301Y-14905246D01*
X12139301Y-14905246D02*
X12139301Y-14962388D01*
X12139301Y-14962388D02*
X12129777Y-14981436D01*
X12129777Y-14981436D02*
X12120253Y-14990960D01*
X12120253Y-14990960D02*
X12101206Y-15000484D01*
X12101206Y-15000484D02*
X12072634Y-15000484D01*
X12253587Y-15000484D02*
X12234539Y-14990960D01*
X12234539Y-14990960D02*
X12225015Y-14971912D01*
X12225015Y-14971912D02*
X12225015Y-14800484D01*
X12405968Y-14990960D02*
X12386920Y-15000484D01*
X12386920Y-15000484D02*
X12348825Y-15000484D01*
X12348825Y-15000484D02*
X12329777Y-14990960D01*
X12329777Y-14990960D02*
X12320253Y-14971912D01*
X12320253Y-14971912D02*
X12320253Y-14895722D01*
X12320253Y-14895722D02*
X12329777Y-14876674D01*
X12329777Y-14876674D02*
X12348825Y-14867150D01*
X12348825Y-14867150D02*
X12386920Y-14867150D01*
X12386920Y-14867150D02*
X12405968Y-14876674D01*
X12405968Y-14876674D02*
X12415491Y-14895722D01*
X12415491Y-14895722D02*
X12415491Y-14914769D01*
X12415491Y-14914769D02*
X12320253Y-14933817D01*
X12491682Y-14990960D02*
X12510730Y-15000484D01*
X12510730Y-15000484D02*
X12548825Y-15000484D01*
X12548825Y-15000484D02*
X12567872Y-14990960D01*
X12567872Y-14990960D02*
X12577396Y-14971912D01*
X12577396Y-14971912D02*
X12577396Y-14962388D01*
X12577396Y-14962388D02*
X12567872Y-14943341D01*
X12567872Y-14943341D02*
X12548825Y-14933817D01*
X12548825Y-14933817D02*
X12520253Y-14933817D01*
X12520253Y-14933817D02*
X12501206Y-14924293D01*
X12501206Y-14924293D02*
X12491682Y-14905246D01*
X12491682Y-14905246D02*
X12491682Y-14895722D01*
X12491682Y-14895722D02*
X12501206Y-14876674D01*
X12501206Y-14876674D02*
X12520253Y-14867150D01*
X12520253Y-14867150D02*
X12548825Y-14867150D01*
X12548825Y-14867150D02*
X12567872Y-14876674D01*
X12644063Y-15076674D02*
X12653587Y-15067150D01*
X12653587Y-15067150D02*
X12672634Y-15038579D01*
X12672634Y-15038579D02*
X12682158Y-15019531D01*
X12682158Y-15019531D02*
X12691682Y-14990960D01*
X12691682Y-14990960D02*
X12701206Y-14943341D01*
X12701206Y-14943341D02*
X12701206Y-14905246D01*
X12701206Y-14905246D02*
X12691682Y-14857627D01*
X12691682Y-14857627D02*
X12682158Y-14829055D01*
X12682158Y-14829055D02*
X12672634Y-14810008D01*
X12672634Y-14810008D02*
X12653587Y-14781436D01*
X12653587Y-14781436D02*
X12644063Y-14771912D01*
M02*
