%TF.GenerationSoftware,KiCad,Pcbnew,8.0.8*%
%TF.CreationDate,2025-01-19T23:46:45+01:00*%
%TF.ProjectId,ESP32ScoringDevice_PCB_THT_Rev1.2,45535033-3253-4636-9f72-696e67446576,1.1*%
%TF.SameCoordinates,Original*%
%TF.FileFunction,Drillmap*%
%TF.FilePolarity,Positive*%
%FSLAX45Y45*%
G04 Gerber Fmt 4.5, Leading zero omitted, Abs format (unit mm)*
G04 Created by KiCad (PCBNEW 8.0.8) date 2025-01-19 23:46:45*
%MOMM*%
%LPD*%
G01*
G04 APERTURE LIST*
%ADD10C,0.100000*%
%ADD11C,0.200000*%
%ADD12C,0.110000*%
%ADD13C,0.220000*%
G04 APERTURE END LIST*
D10*
X14478000Y-13208000D02*
X7874000Y-13208000D01*
X7874000Y-7874000D01*
X14478000Y-7874000D01*
X14478000Y-13208000D01*
D11*
D10*
X8316200Y-8316200D02*
X8346200Y-8346200D01*
X8346200Y-8316200D02*
X8316200Y-8346200D01*
X8671800Y-10068800D02*
X8701800Y-10098800D01*
X8701800Y-10068800D02*
X8671800Y-10098800D01*
X8671800Y-10805400D02*
X8701800Y-10835400D01*
X8701800Y-10805400D02*
X8671800Y-10835400D01*
X8722600Y-8316200D02*
X8752600Y-8346200D01*
X8752600Y-8316200D02*
X8722600Y-8346200D01*
X9332200Y-10805400D02*
X9362200Y-10835400D01*
X9362200Y-10805400D02*
X9332200Y-10835400D01*
X9383000Y-8595600D02*
X9413000Y-8625600D01*
X9413000Y-8595600D02*
X9383000Y-8625600D01*
X9637000Y-8290800D02*
X9667000Y-8320800D01*
X9667000Y-8290800D02*
X9637000Y-8320800D01*
X9662400Y-9738600D02*
X9692400Y-9768600D01*
X9692400Y-9738600D02*
X9662400Y-9768600D01*
X9662400Y-10348200D02*
X9692400Y-10378200D01*
X9692400Y-10348200D02*
X9662400Y-10378200D01*
X10348200Y-11415000D02*
X10378200Y-11445000D01*
X10378200Y-11415000D02*
X10348200Y-11445000D01*
X10348200Y-11923000D02*
X10378200Y-11953000D01*
X10378200Y-11923000D02*
X10348200Y-11953000D01*
X10957800Y-9052800D02*
X10987800Y-9082800D01*
X10987800Y-9052800D02*
X10957800Y-9082800D01*
X10957800Y-9357600D02*
X10987800Y-9387600D01*
X10987800Y-9357600D02*
X10957800Y-9387600D01*
X11059400Y-10145000D02*
X11089400Y-10175000D01*
X11089400Y-10145000D02*
X11059400Y-10175000D01*
X11407040Y-9121760D02*
X11437040Y-9151760D01*
X11437040Y-9121760D02*
X11407040Y-9151760D01*
X11440400Y-9357600D02*
X11470400Y-9387600D01*
X11470400Y-9357600D02*
X11440400Y-9387600D01*
X11440400Y-9662400D02*
X11470400Y-9692400D01*
X11470400Y-9662400D02*
X11440400Y-9692400D01*
X11770600Y-11796000D02*
X11800600Y-11826000D01*
X11800600Y-11796000D02*
X11770600Y-11826000D01*
X11923000Y-9357600D02*
X11953000Y-9387600D01*
X11953000Y-9357600D02*
X11923000Y-9387600D01*
X12939000Y-9383000D02*
X12969000Y-9413000D01*
X12969000Y-9383000D02*
X12939000Y-9413000D01*
X13193000Y-10856200D02*
X13223000Y-10886200D01*
X13223000Y-10856200D02*
X13193000Y-10886200D01*
X13802600Y-9383000D02*
X13832600Y-9413000D01*
X13832600Y-9383000D02*
X13802600Y-9413000D01*
X9079900Y-10515600D02*
G75*
G02*
X9004900Y-10515600I-37500J0D01*
G01*
X9004900Y-10515600D02*
G75*
G02*
X9079900Y-10515600I37500J0D01*
G01*
X9206900Y-10515600D02*
G75*
G02*
X9131900Y-10515600I-37500J0D01*
G01*
X9131900Y-10515600D02*
G75*
G02*
X9206900Y-10515600I37500J0D01*
G01*
X9333900Y-10515600D02*
G75*
G02*
X9258900Y-10515600I-37500J0D01*
G01*
X9258900Y-10515600D02*
G75*
G02*
X9333900Y-10515600I37500J0D01*
G01*
X13184980Y-10439400D02*
G75*
G02*
X13109980Y-10439400I-37500J0D01*
G01*
X13109980Y-10439400D02*
G75*
G02*
X13184980Y-10439400I37500J0D01*
G01*
X13184980Y-10566400D02*
G75*
G02*
X13109980Y-10566400I-37500J0D01*
G01*
X13109980Y-10566400D02*
G75*
G02*
X13184980Y-10566400I37500J0D01*
G01*
X13184980Y-10693400D02*
G75*
G02*
X13109980Y-10693400I-37500J0D01*
G01*
X13109980Y-10693400D02*
G75*
G02*
X13184980Y-10693400I37500J0D01*
G01*
X10033000Y-8597900D02*
X10033000Y-8674100D01*
X9994900Y-8636000D02*
X10071100Y-8636000D01*
X10033000Y-8851900D02*
X10033000Y-8928100D01*
X9994900Y-8890000D02*
X10071100Y-8890000D01*
X10033000Y-9105900D02*
X10033000Y-9182100D01*
X9994900Y-9144000D02*
X10071100Y-9144000D01*
X10033000Y-9359900D02*
X10033000Y-9436100D01*
X9994900Y-9398000D02*
X10071100Y-9398000D01*
X10033000Y-9613900D02*
X10033000Y-9690100D01*
X9994900Y-9652000D02*
X10071100Y-9652000D01*
X10033000Y-9867900D02*
X10033000Y-9944100D01*
X9994900Y-9906000D02*
X10071100Y-9906000D01*
X10033000Y-10121900D02*
X10033000Y-10198100D01*
X9994900Y-10160000D02*
X10071100Y-10160000D01*
X10033000Y-10375900D02*
X10033000Y-10452100D01*
X9994900Y-10414000D02*
X10071100Y-10414000D01*
X10033000Y-10629900D02*
X10033000Y-10706100D01*
X9994900Y-10668000D02*
X10071100Y-10668000D01*
X10033000Y-10883900D02*
X10033000Y-10960100D01*
X9994900Y-10922000D02*
X10071100Y-10922000D01*
X10033000Y-11137900D02*
X10033000Y-11214100D01*
X9994900Y-11176000D02*
X10071100Y-11176000D01*
X10033000Y-11391900D02*
X10033000Y-11468100D01*
X9994900Y-11430000D02*
X10071100Y-11430000D01*
X10033000Y-11645900D02*
X10033000Y-11722100D01*
X9994900Y-11684000D02*
X10071100Y-11684000D01*
X10033000Y-11899900D02*
X10033000Y-11976100D01*
X9994900Y-11938000D02*
X10071100Y-11938000D01*
X10033000Y-12153900D02*
X10033000Y-12230100D01*
X9994900Y-12192000D02*
X10071100Y-12192000D01*
X12573000Y-8597900D02*
X12573000Y-8674100D01*
X12534900Y-8636000D02*
X12611100Y-8636000D01*
X12573000Y-8851900D02*
X12573000Y-8928100D01*
X12534900Y-8890000D02*
X12611100Y-8890000D01*
X12573000Y-9105900D02*
X12573000Y-9182100D01*
X12534900Y-9144000D02*
X12611100Y-9144000D01*
X12573000Y-9359900D02*
X12573000Y-9436100D01*
X12534900Y-9398000D02*
X12611100Y-9398000D01*
X12573000Y-9613900D02*
X12573000Y-9690100D01*
X12534900Y-9652000D02*
X12611100Y-9652000D01*
X12573000Y-9867900D02*
X12573000Y-9944100D01*
X12534900Y-9906000D02*
X12611100Y-9906000D01*
X12573000Y-10121900D02*
X12573000Y-10198100D01*
X12534900Y-10160000D02*
X12611100Y-10160000D01*
X12573000Y-10375900D02*
X12573000Y-10452100D01*
X12534900Y-10414000D02*
X12611100Y-10414000D01*
X12573000Y-10629900D02*
X12573000Y-10706100D01*
X12534900Y-10668000D02*
X12611100Y-10668000D01*
X12573000Y-10883900D02*
X12573000Y-10960100D01*
X12534900Y-10922000D02*
X12611100Y-10922000D01*
X12573000Y-11137900D02*
X12573000Y-11214100D01*
X12534900Y-11176000D02*
X12611100Y-11176000D01*
X12573000Y-11391900D02*
X12573000Y-11468100D01*
X12534900Y-11430000D02*
X12611100Y-11430000D01*
X12573000Y-11645900D02*
X12573000Y-11722100D01*
X12534900Y-11684000D02*
X12611100Y-11684000D01*
X12573000Y-11899900D02*
X12573000Y-11976100D01*
X12534900Y-11938000D02*
X12611100Y-11938000D01*
X12573000Y-12153900D02*
X12573000Y-12230100D01*
X12534900Y-12192000D02*
X12611100Y-12192000D01*
X9502485Y-12251684D02*
X9502485Y-12195115D01*
X9445916Y-12195115D01*
X9445916Y-12251684D01*
X9502485Y-12251684D01*
X9502485Y-12376684D02*
X9502485Y-12320115D01*
X9445916Y-12320115D01*
X9445916Y-12376684D01*
X9502485Y-12376684D01*
X9502485Y-12626684D02*
X9502485Y-12570115D01*
X9445916Y-12570115D01*
X9445916Y-12626684D01*
X9502485Y-12626684D01*
X9502485Y-12751684D02*
X9502485Y-12695115D01*
X9445916Y-12695115D01*
X9445916Y-12751684D01*
X9502485Y-12751684D01*
X10968085Y-10475685D02*
X10968085Y-10419116D01*
X10911516Y-10419116D01*
X10911516Y-10475685D01*
X10968085Y-10475685D01*
X10968085Y-10780485D02*
X10968085Y-10723916D01*
X10911516Y-10723916D01*
X10911516Y-10780485D01*
X10968085Y-10780485D01*
X10969285Y-11085285D02*
X10969285Y-11028716D01*
X10912716Y-11028716D01*
X10912716Y-11085285D01*
X10969285Y-11085285D01*
X10969285Y-11390084D02*
X10969285Y-11333515D01*
X10912716Y-11333515D01*
X10912716Y-11390084D01*
X10969285Y-11390084D01*
X10969285Y-11694884D02*
X10969285Y-11638315D01*
X10912716Y-11638315D01*
X10912716Y-11694884D01*
X10969285Y-11694884D01*
X10969285Y-11995884D02*
X10969285Y-11939315D01*
X10912716Y-11939315D01*
X10912716Y-11995884D01*
X10969285Y-11995884D01*
X10969285Y-12300684D02*
X10969285Y-12244115D01*
X10912716Y-12244115D01*
X10912716Y-12300684D01*
X10969285Y-12300684D01*
X10969285Y-12605484D02*
X10969285Y-12548915D01*
X10912716Y-12548915D01*
X10912716Y-12605484D01*
X10969285Y-12605484D01*
X10969285Y-12910284D02*
X10969285Y-12853715D01*
X10912716Y-12853715D01*
X10912716Y-12910284D01*
X10969285Y-12910284D01*
X11730084Y-10475685D02*
X11730084Y-10419116D01*
X11673515Y-10419116D01*
X11673515Y-10475685D01*
X11730084Y-10475685D01*
X11730084Y-10780485D02*
X11730084Y-10723916D01*
X11673515Y-10723916D01*
X11673515Y-10780485D01*
X11730084Y-10780485D01*
X11731284Y-11085285D02*
X11731284Y-11028716D01*
X11674715Y-11028716D01*
X11674715Y-11085285D01*
X11731284Y-11085285D01*
X11731284Y-11390084D02*
X11731284Y-11333515D01*
X11674715Y-11333515D01*
X11674715Y-11390084D01*
X11731284Y-11390084D01*
X11731284Y-11694884D02*
X11731284Y-11638315D01*
X11674715Y-11638315D01*
X11674715Y-11694884D01*
X11731284Y-11694884D01*
X11731284Y-11995884D02*
X11731284Y-11939315D01*
X11674715Y-11939315D01*
X11674715Y-11995884D01*
X11731284Y-11995884D01*
X11731284Y-12300684D02*
X11731284Y-12244115D01*
X11674715Y-12244115D01*
X11674715Y-12300684D01*
X11731284Y-12300684D01*
X11731284Y-12605484D02*
X11731284Y-12548915D01*
X11674715Y-12548915D01*
X11674715Y-12605484D01*
X11731284Y-12605484D01*
X11731284Y-12910284D02*
X11731284Y-12853715D01*
X11674715Y-12853715D01*
X11674715Y-12910284D01*
X11731284Y-12910284D01*
X13007684Y-12198884D02*
X13007684Y-12142315D01*
X12951115Y-12142315D01*
X12951115Y-12198884D01*
X13007684Y-12198884D01*
X13007684Y-12323884D02*
X13007684Y-12267315D01*
X12951115Y-12267315D01*
X12951115Y-12323884D01*
X13007684Y-12323884D01*
X13007684Y-12573884D02*
X13007684Y-12517315D01*
X12951115Y-12517315D01*
X12951115Y-12573884D01*
X13007684Y-12573884D01*
X13007684Y-12698884D02*
X13007684Y-12642315D01*
X12951115Y-12642315D01*
X12951115Y-12698884D01*
X13007684Y-12698884D01*
X13058484Y-11026485D02*
X13058484Y-10969916D01*
X13001915Y-10969916D01*
X13001915Y-11026485D01*
X13058484Y-11026485D01*
X13058484Y-11788484D02*
X13058484Y-11731915D01*
X13001915Y-11731915D01*
X13001915Y-11788484D01*
X13058484Y-11788484D01*
X13363284Y-11026485D02*
X13363284Y-10969916D01*
X13306715Y-10969916D01*
X13306715Y-11026485D01*
X13363284Y-11026485D01*
X13363284Y-11788484D02*
X13363284Y-11731915D01*
X13306715Y-11731915D01*
X13306715Y-11788484D01*
X13363284Y-11788484D01*
X8305800Y-8699500D02*
X8353300Y-8652000D01*
X8305800Y-8604500D01*
X8258300Y-8652000D01*
X8305800Y-8699500D01*
X8305800Y-8949500D02*
X8353300Y-8902000D01*
X8305800Y-8854500D01*
X8258300Y-8902000D01*
X8305800Y-8949500D01*
X8305800Y-9199500D02*
X8353300Y-9152000D01*
X8305800Y-9104500D01*
X8258300Y-9152000D01*
X8305800Y-9199500D01*
X8305800Y-9449500D02*
X8353300Y-9402000D01*
X8305800Y-9354500D01*
X8258300Y-9402000D01*
X8305800Y-9449500D01*
X8305800Y-9699500D02*
X8353300Y-9652000D01*
X8305800Y-9604500D01*
X8258300Y-9652000D01*
X8305800Y-9699500D01*
X8305800Y-11172700D02*
X8353300Y-11125200D01*
X8305800Y-11077700D01*
X8258300Y-11125200D01*
X8305800Y-11172700D01*
X8305800Y-11422700D02*
X8353300Y-11375200D01*
X8305800Y-11327700D01*
X8258300Y-11375200D01*
X8305800Y-11422700D01*
X8305800Y-11672700D02*
X8353300Y-11625200D01*
X8305800Y-11577700D01*
X8258300Y-11625200D01*
X8305800Y-11672700D01*
X9194800Y-8480300D02*
X9242300Y-8432800D01*
X9194800Y-8385300D01*
X9147300Y-8432800D01*
X9194800Y-8480300D01*
X9194800Y-8730300D02*
X9242300Y-8682800D01*
X9194800Y-8635300D01*
X9147300Y-8682800D01*
X9194800Y-8730300D01*
X9194800Y-8980300D02*
X9242300Y-8932800D01*
X9194800Y-8885300D01*
X9147300Y-8932800D01*
X9194800Y-8980300D01*
X9194800Y-9230300D02*
X9242300Y-9182800D01*
X9194800Y-9135300D01*
X9147300Y-9182800D01*
X9194800Y-9230300D01*
X9194800Y-9480300D02*
X9242300Y-9432800D01*
X9194800Y-9385300D01*
X9147300Y-9432800D01*
X9194800Y-9480300D01*
X9194800Y-9730300D02*
X9242300Y-9682800D01*
X9194800Y-9635300D01*
X9147300Y-9682800D01*
X9194800Y-9730300D01*
X9194800Y-9980300D02*
X9242300Y-9932800D01*
X9194800Y-9885300D01*
X9147300Y-9932800D01*
X9194800Y-9980300D01*
X8255800Y-10215600D02*
X8355800Y-10315600D01*
X8355800Y-10215600D02*
X8255800Y-10315600D01*
X8355800Y-10265600D02*
G75*
G02*
X8255800Y-10265600I-50000J0D01*
G01*
X8255800Y-10265600D02*
G75*
G02*
X8355800Y-10265600I50000J0D01*
G01*
X8255800Y-10465600D02*
X8355800Y-10565600D01*
X8355800Y-10465600D02*
X8255800Y-10565600D01*
X8355800Y-10515600D02*
G75*
G02*
X8255800Y-10515600I-50000J0D01*
G01*
X8255800Y-10515600D02*
G75*
G02*
X8355800Y-10515600I50000J0D01*
G01*
X8662200Y-12142000D02*
X8762200Y-12242000D01*
X8762200Y-12142000D02*
X8662200Y-12242000D01*
X8762200Y-12192000D02*
G75*
G02*
X8662200Y-12192000I-50000J0D01*
G01*
X8662200Y-12192000D02*
G75*
G02*
X8762200Y-12192000I50000J0D01*
G01*
X8662200Y-12642000D02*
X8762200Y-12742000D01*
X8762200Y-12642000D02*
X8662200Y-12742000D01*
X8762200Y-12692000D02*
G75*
G02*
X8662200Y-12692000I-50000J0D01*
G01*
X8662200Y-12692000D02*
G75*
G02*
X8762200Y-12692000I50000J0D01*
G01*
X9197600Y-11454500D02*
X9297600Y-11554500D01*
X9297600Y-11454500D02*
X9197600Y-11554500D01*
X9297600Y-11504500D02*
G75*
G02*
X9197600Y-11504500I-50000J0D01*
G01*
X9197600Y-11504500D02*
G75*
G02*
X9297600Y-11504500I50000J0D01*
G01*
X9447600Y-11454500D02*
X9547600Y-11554500D01*
X9547600Y-11454500D02*
X9447600Y-11554500D01*
X9547600Y-11504500D02*
G75*
G02*
X9447600Y-11504500I-50000J0D01*
G01*
X9447600Y-11504500D02*
G75*
G02*
X9547600Y-11504500I50000J0D01*
G01*
X10618000Y-8814600D02*
X10718000Y-8914600D01*
X10718000Y-8814600D02*
X10618000Y-8914600D01*
X10718000Y-8864600D02*
G75*
G02*
X10618000Y-8864600I-50000J0D01*
G01*
X10618000Y-8864600D02*
G75*
G02*
X10718000Y-8864600I50000J0D01*
G01*
X10872000Y-8814600D02*
X10972000Y-8914600D01*
X10972000Y-8814600D02*
X10872000Y-8914600D01*
X10972000Y-8864600D02*
G75*
G02*
X10872000Y-8864600I-50000J0D01*
G01*
X10872000Y-8864600D02*
G75*
G02*
X10972000Y-8864600I50000J0D01*
G01*
X11126000Y-8814600D02*
X11226000Y-8914600D01*
X11226000Y-8814600D02*
X11126000Y-8914600D01*
X11226000Y-8864600D02*
G75*
G02*
X11126000Y-8864600I-50000J0D01*
G01*
X11126000Y-8864600D02*
G75*
G02*
X11226000Y-8864600I50000J0D01*
G01*
X11380000Y-8814600D02*
X11480000Y-8914600D01*
X11480000Y-8814600D02*
X11380000Y-8914600D01*
X11480000Y-8864600D02*
G75*
G02*
X11380000Y-8864600I-50000J0D01*
G01*
X11380000Y-8864600D02*
G75*
G02*
X11480000Y-8864600I50000J0D01*
G01*
X11634000Y-8814600D02*
X11734000Y-8914600D01*
X11734000Y-8814600D02*
X11634000Y-8914600D01*
X11734000Y-8864600D02*
G75*
G02*
X11634000Y-8864600I-50000J0D01*
G01*
X11634000Y-8864600D02*
G75*
G02*
X11734000Y-8864600I50000J0D01*
G01*
X11888000Y-8814600D02*
X11988000Y-8914600D01*
X11988000Y-8814600D02*
X11888000Y-8914600D01*
X11988000Y-8864600D02*
G75*
G02*
X11888000Y-8864600I-50000J0D01*
G01*
X11888000Y-8864600D02*
G75*
G02*
X11988000Y-8864600I50000J0D01*
G01*
X13081800Y-9475000D02*
X13181800Y-9575000D01*
X13181800Y-9475000D02*
X13081800Y-9575000D01*
X13181800Y-9525000D02*
G75*
G02*
X13081800Y-9525000I-50000J0D01*
G01*
X13081800Y-9525000D02*
G75*
G02*
X13181800Y-9525000I50000J0D01*
G01*
X13081800Y-9729000D02*
X13181800Y-9829000D01*
X13181800Y-9729000D02*
X13081800Y-9829000D01*
X13181800Y-9779000D02*
G75*
G02*
X13081800Y-9779000I-50000J0D01*
G01*
X13081800Y-9779000D02*
G75*
G02*
X13181800Y-9779000I50000J0D01*
G01*
X13081800Y-9983000D02*
X13181800Y-10083000D01*
X13181800Y-9983000D02*
X13081800Y-10083000D01*
X13181800Y-10033000D02*
G75*
G02*
X13081800Y-10033000I-50000J0D01*
G01*
X13081800Y-10033000D02*
G75*
G02*
X13181800Y-10033000I50000J0D01*
G01*
X13335800Y-9475000D02*
X13435800Y-9575000D01*
X13435800Y-9475000D02*
X13335800Y-9575000D01*
X13435800Y-9525000D02*
G75*
G02*
X13335800Y-9525000I-50000J0D01*
G01*
X13335800Y-9525000D02*
G75*
G02*
X13435800Y-9525000I50000J0D01*
G01*
X13335800Y-9729000D02*
X13435800Y-9829000D01*
X13435800Y-9729000D02*
X13335800Y-9829000D01*
X13435800Y-9779000D02*
G75*
G02*
X13335800Y-9779000I-50000J0D01*
G01*
X13335800Y-9779000D02*
G75*
G02*
X13435800Y-9779000I50000J0D01*
G01*
X13335800Y-9983000D02*
X13435800Y-10083000D01*
X13435800Y-9983000D02*
X13335800Y-10083000D01*
X13435800Y-10033000D02*
G75*
G02*
X13335800Y-10033000I-50000J0D01*
G01*
X13335800Y-10033000D02*
G75*
G02*
X13435800Y-10033000I50000J0D01*
G01*
X13666000Y-12081970D02*
X13766000Y-12181970D01*
X13766000Y-12081970D02*
X13666000Y-12181970D01*
X13766000Y-12131970D02*
G75*
G02*
X13666000Y-12131970I-50000J0D01*
G01*
X13666000Y-12131970D02*
G75*
G02*
X13766000Y-12131970I50000J0D01*
G01*
X13666000Y-12581970D02*
X13766000Y-12681970D01*
X13766000Y-12581970D02*
X13666000Y-12681970D01*
X13766000Y-12631970D02*
G75*
G02*
X13666000Y-12631970I-50000J0D01*
G01*
X13666000Y-12631970D02*
G75*
G02*
X13766000Y-12631970I50000J0D01*
G01*
X13716800Y-10694200D02*
X13816800Y-10794200D01*
X13816800Y-10694200D02*
X13716800Y-10794200D01*
X13816800Y-10744200D02*
G75*
G02*
X13716800Y-10744200I-50000J0D01*
G01*
X13716800Y-10744200D02*
G75*
G02*
X13816800Y-10744200I50000J0D01*
G01*
X13716800Y-10948200D02*
X13816800Y-11048200D01*
X13816800Y-10948200D02*
X13716800Y-11048200D01*
X13816800Y-10998200D02*
G75*
G02*
X13716800Y-10998200I-50000J0D01*
G01*
X13716800Y-10998200D02*
G75*
G02*
X13816800Y-10998200I50000J0D01*
G01*
X13716800Y-11329200D02*
X13816800Y-11429200D01*
X13816800Y-11329200D02*
X13716800Y-11429200D01*
X13816800Y-11379200D02*
G75*
G02*
X13716800Y-11379200I-50000J0D01*
G01*
X13716800Y-11379200D02*
G75*
G02*
X13816800Y-11379200I50000J0D01*
G01*
X13716800Y-11583200D02*
X13816800Y-11683200D01*
X13816800Y-11583200D02*
X13716800Y-11683200D01*
X13816800Y-11633200D02*
G75*
G02*
X13716800Y-11633200I-50000J0D01*
G01*
X13716800Y-11633200D02*
G75*
G02*
X13816800Y-11633200I50000J0D01*
G01*
D12*
X8962000Y-11012300D02*
X9072000Y-11122300D01*
X9072000Y-11012300D02*
X8962000Y-11122300D01*
X9017000Y-11012300D02*
X9017000Y-11122300D01*
X8962000Y-11067300D02*
X9072000Y-11067300D01*
X9216000Y-11012300D02*
X9326000Y-11122300D01*
X9326000Y-11012300D02*
X9216000Y-11122300D01*
X9271000Y-11012300D02*
X9271000Y-11122300D01*
X9216000Y-11067300D02*
X9326000Y-11067300D01*
X9470000Y-11012300D02*
X9580000Y-11122300D01*
X9580000Y-11012300D02*
X9470000Y-11122300D01*
X9525000Y-11012300D02*
X9525000Y-11122300D01*
X9470000Y-11067300D02*
X9580000Y-11067300D01*
D13*
X8018000Y-8018000D02*
X8238000Y-8238000D01*
X8238000Y-8018000D02*
X8018000Y-8238000D01*
X8205782Y-8205782D02*
X8205782Y-8050217D01*
X8050217Y-8050217D01*
X8050217Y-8205782D01*
X8205782Y-8205782D01*
X8018000Y-12844000D02*
X8238000Y-13064000D01*
X8238000Y-12844000D02*
X8018000Y-13064000D01*
X8205782Y-13031782D02*
X8205782Y-12876217D01*
X8050217Y-12876217D01*
X8050217Y-13031782D01*
X8205782Y-13031782D01*
X14114000Y-8018000D02*
X14334000Y-8238000D01*
X14334000Y-8018000D02*
X14114000Y-8238000D01*
X14301782Y-8205782D02*
X14301782Y-8050217D01*
X14146217Y-8050217D01*
X14146217Y-8205782D01*
X14301782Y-8205782D01*
X14114000Y-12844000D02*
X14334000Y-13064000D01*
X14334000Y-12844000D02*
X14114000Y-13064000D01*
X14301782Y-13031782D02*
X14301782Y-12876217D01*
X14146217Y-12876217D01*
X14146217Y-13031782D01*
X14301782Y-13031782D01*
D11*
X8129777Y-13524484D02*
X8129777Y-13324484D01*
X8129777Y-13324484D02*
X8177396Y-13324484D01*
X8177396Y-13324484D02*
X8205967Y-13334008D01*
X8205967Y-13334008D02*
X8225015Y-13353055D01*
X8225015Y-13353055D02*
X8234539Y-13372103D01*
X8234539Y-13372103D02*
X8244062Y-13410198D01*
X8244062Y-13410198D02*
X8244062Y-13438769D01*
X8244062Y-13438769D02*
X8234539Y-13476865D01*
X8234539Y-13476865D02*
X8225015Y-13495912D01*
X8225015Y-13495912D02*
X8205967Y-13514960D01*
X8205967Y-13514960D02*
X8177396Y-13524484D01*
X8177396Y-13524484D02*
X8129777Y-13524484D01*
X8329777Y-13524484D02*
X8329777Y-13391150D01*
X8329777Y-13429246D02*
X8339301Y-13410198D01*
X8339301Y-13410198D02*
X8348824Y-13400674D01*
X8348824Y-13400674D02*
X8367872Y-13391150D01*
X8367872Y-13391150D02*
X8386920Y-13391150D01*
X8453586Y-13524484D02*
X8453586Y-13391150D01*
X8453586Y-13324484D02*
X8444063Y-13334008D01*
X8444063Y-13334008D02*
X8453586Y-13343531D01*
X8453586Y-13343531D02*
X8463110Y-13334008D01*
X8463110Y-13334008D02*
X8453586Y-13324484D01*
X8453586Y-13324484D02*
X8453586Y-13343531D01*
X8577396Y-13524484D02*
X8558348Y-13514960D01*
X8558348Y-13514960D02*
X8548824Y-13495912D01*
X8548824Y-13495912D02*
X8548824Y-13324484D01*
X8682158Y-13524484D02*
X8663110Y-13514960D01*
X8663110Y-13514960D02*
X8653586Y-13495912D01*
X8653586Y-13495912D02*
X8653586Y-13324484D01*
X8910729Y-13524484D02*
X8910729Y-13324484D01*
X8910729Y-13324484D02*
X8977396Y-13467341D01*
X8977396Y-13467341D02*
X9044063Y-13324484D01*
X9044063Y-13324484D02*
X9044063Y-13524484D01*
X9225015Y-13524484D02*
X9225015Y-13419722D01*
X9225015Y-13419722D02*
X9215491Y-13400674D01*
X9215491Y-13400674D02*
X9196444Y-13391150D01*
X9196444Y-13391150D02*
X9158348Y-13391150D01*
X9158348Y-13391150D02*
X9139301Y-13400674D01*
X9225015Y-13514960D02*
X9205967Y-13524484D01*
X9205967Y-13524484D02*
X9158348Y-13524484D01*
X9158348Y-13524484D02*
X9139301Y-13514960D01*
X9139301Y-13514960D02*
X9129777Y-13495912D01*
X9129777Y-13495912D02*
X9129777Y-13476865D01*
X9129777Y-13476865D02*
X9139301Y-13457817D01*
X9139301Y-13457817D02*
X9158348Y-13448293D01*
X9158348Y-13448293D02*
X9205967Y-13448293D01*
X9205967Y-13448293D02*
X9225015Y-13438769D01*
X9320253Y-13391150D02*
X9320253Y-13591150D01*
X9320253Y-13400674D02*
X9339301Y-13391150D01*
X9339301Y-13391150D02*
X9377396Y-13391150D01*
X9377396Y-13391150D02*
X9396444Y-13400674D01*
X9396444Y-13400674D02*
X9405967Y-13410198D01*
X9405967Y-13410198D02*
X9415491Y-13429246D01*
X9415491Y-13429246D02*
X9415491Y-13486388D01*
X9415491Y-13486388D02*
X9405967Y-13505436D01*
X9405967Y-13505436D02*
X9396444Y-13514960D01*
X9396444Y-13514960D02*
X9377396Y-13524484D01*
X9377396Y-13524484D02*
X9339301Y-13524484D01*
X9339301Y-13524484D02*
X9320253Y-13514960D01*
X9501205Y-13505436D02*
X9510729Y-13514960D01*
X9510729Y-13514960D02*
X9501205Y-13524484D01*
X9501205Y-13524484D02*
X9491682Y-13514960D01*
X9491682Y-13514960D02*
X9501205Y-13505436D01*
X9501205Y-13505436D02*
X9501205Y-13524484D01*
X9501205Y-13400674D02*
X9510729Y-13410198D01*
X9510729Y-13410198D02*
X9501205Y-13419722D01*
X9501205Y-13419722D02*
X9491682Y-13410198D01*
X9491682Y-13410198D02*
X9501205Y-13400674D01*
X9501205Y-13400674D02*
X9501205Y-13419722D01*
D10*
X7839000Y-13838000D02*
X7869000Y-13868000D01*
X7869000Y-13838000D02*
X7839000Y-13868000D01*
D11*
X8167872Y-13744484D02*
X8186920Y-13744484D01*
X8186920Y-13744484D02*
X8205967Y-13754008D01*
X8205967Y-13754008D02*
X8215491Y-13763531D01*
X8215491Y-13763531D02*
X8225015Y-13782579D01*
X8225015Y-13782579D02*
X8234539Y-13820674D01*
X8234539Y-13820674D02*
X8234539Y-13868293D01*
X8234539Y-13868293D02*
X8225015Y-13906388D01*
X8225015Y-13906388D02*
X8215491Y-13925436D01*
X8215491Y-13925436D02*
X8205967Y-13934960D01*
X8205967Y-13934960D02*
X8186920Y-13944484D01*
X8186920Y-13944484D02*
X8167872Y-13944484D01*
X8167872Y-13944484D02*
X8148824Y-13934960D01*
X8148824Y-13934960D02*
X8139301Y-13925436D01*
X8139301Y-13925436D02*
X8129777Y-13906388D01*
X8129777Y-13906388D02*
X8120253Y-13868293D01*
X8120253Y-13868293D02*
X8120253Y-13820674D01*
X8120253Y-13820674D02*
X8129777Y-13782579D01*
X8129777Y-13782579D02*
X8139301Y-13763531D01*
X8139301Y-13763531D02*
X8148824Y-13754008D01*
X8148824Y-13754008D02*
X8167872Y-13744484D01*
X8320253Y-13925436D02*
X8329777Y-13934960D01*
X8329777Y-13934960D02*
X8320253Y-13944484D01*
X8320253Y-13944484D02*
X8310729Y-13934960D01*
X8310729Y-13934960D02*
X8320253Y-13925436D01*
X8320253Y-13925436D02*
X8320253Y-13944484D01*
X8396444Y-13744484D02*
X8520253Y-13744484D01*
X8520253Y-13744484D02*
X8453586Y-13820674D01*
X8453586Y-13820674D02*
X8482158Y-13820674D01*
X8482158Y-13820674D02*
X8501205Y-13830198D01*
X8501205Y-13830198D02*
X8510729Y-13839722D01*
X8510729Y-13839722D02*
X8520253Y-13858769D01*
X8520253Y-13858769D02*
X8520253Y-13906388D01*
X8520253Y-13906388D02*
X8510729Y-13925436D01*
X8510729Y-13925436D02*
X8501205Y-13934960D01*
X8501205Y-13934960D02*
X8482158Y-13944484D01*
X8482158Y-13944484D02*
X8425015Y-13944484D01*
X8425015Y-13944484D02*
X8405967Y-13934960D01*
X8405967Y-13934960D02*
X8396444Y-13925436D01*
X8644063Y-13744484D02*
X8663110Y-13744484D01*
X8663110Y-13744484D02*
X8682158Y-13754008D01*
X8682158Y-13754008D02*
X8691682Y-13763531D01*
X8691682Y-13763531D02*
X8701205Y-13782579D01*
X8701205Y-13782579D02*
X8710729Y-13820674D01*
X8710729Y-13820674D02*
X8710729Y-13868293D01*
X8710729Y-13868293D02*
X8701205Y-13906388D01*
X8701205Y-13906388D02*
X8691682Y-13925436D01*
X8691682Y-13925436D02*
X8682158Y-13934960D01*
X8682158Y-13934960D02*
X8663110Y-13944484D01*
X8663110Y-13944484D02*
X8644063Y-13944484D01*
X8644063Y-13944484D02*
X8625015Y-13934960D01*
X8625015Y-13934960D02*
X8615491Y-13925436D01*
X8615491Y-13925436D02*
X8605967Y-13906388D01*
X8605967Y-13906388D02*
X8596444Y-13868293D01*
X8596444Y-13868293D02*
X8596444Y-13820674D01*
X8596444Y-13820674D02*
X8605967Y-13782579D01*
X8605967Y-13782579D02*
X8615491Y-13763531D01*
X8615491Y-13763531D02*
X8625015Y-13754008D01*
X8625015Y-13754008D02*
X8644063Y-13744484D01*
X8834539Y-13744484D02*
X8853586Y-13744484D01*
X8853586Y-13744484D02*
X8872634Y-13754008D01*
X8872634Y-13754008D02*
X8882158Y-13763531D01*
X8882158Y-13763531D02*
X8891682Y-13782579D01*
X8891682Y-13782579D02*
X8901205Y-13820674D01*
X8901205Y-13820674D02*
X8901205Y-13868293D01*
X8901205Y-13868293D02*
X8891682Y-13906388D01*
X8891682Y-13906388D02*
X8882158Y-13925436D01*
X8882158Y-13925436D02*
X8872634Y-13934960D01*
X8872634Y-13934960D02*
X8853586Y-13944484D01*
X8853586Y-13944484D02*
X8834539Y-13944484D01*
X8834539Y-13944484D02*
X8815491Y-13934960D01*
X8815491Y-13934960D02*
X8805967Y-13925436D01*
X8805967Y-13925436D02*
X8796444Y-13906388D01*
X8796444Y-13906388D02*
X8786920Y-13868293D01*
X8786920Y-13868293D02*
X8786920Y-13820674D01*
X8786920Y-13820674D02*
X8796444Y-13782579D01*
X8796444Y-13782579D02*
X8805967Y-13763531D01*
X8805967Y-13763531D02*
X8815491Y-13754008D01*
X8815491Y-13754008D02*
X8834539Y-13744484D01*
X8986920Y-13944484D02*
X8986920Y-13811150D01*
X8986920Y-13830198D02*
X8996444Y-13820674D01*
X8996444Y-13820674D02*
X9015491Y-13811150D01*
X9015491Y-13811150D02*
X9044063Y-13811150D01*
X9044063Y-13811150D02*
X9063110Y-13820674D01*
X9063110Y-13820674D02*
X9072634Y-13839722D01*
X9072634Y-13839722D02*
X9072634Y-13944484D01*
X9072634Y-13839722D02*
X9082158Y-13820674D01*
X9082158Y-13820674D02*
X9101205Y-13811150D01*
X9101205Y-13811150D02*
X9129777Y-13811150D01*
X9129777Y-13811150D02*
X9148825Y-13820674D01*
X9148825Y-13820674D02*
X9158348Y-13839722D01*
X9158348Y-13839722D02*
X9158348Y-13944484D01*
X9253586Y-13944484D02*
X9253586Y-13811150D01*
X9253586Y-13830198D02*
X9263110Y-13820674D01*
X9263110Y-13820674D02*
X9282158Y-13811150D01*
X9282158Y-13811150D02*
X9310729Y-13811150D01*
X9310729Y-13811150D02*
X9329777Y-13820674D01*
X9329777Y-13820674D02*
X9339301Y-13839722D01*
X9339301Y-13839722D02*
X9339301Y-13944484D01*
X9339301Y-13839722D02*
X9348825Y-13820674D01*
X9348825Y-13820674D02*
X9367872Y-13811150D01*
X9367872Y-13811150D02*
X9396444Y-13811150D01*
X9396444Y-13811150D02*
X9415491Y-13820674D01*
X9415491Y-13820674D02*
X9425015Y-13839722D01*
X9425015Y-13839722D02*
X9425015Y-13944484D01*
X9815491Y-13734960D02*
X9644063Y-13992103D01*
X10072634Y-13744484D02*
X10091682Y-13744484D01*
X10091682Y-13744484D02*
X10110729Y-13754008D01*
X10110729Y-13754008D02*
X10120253Y-13763531D01*
X10120253Y-13763531D02*
X10129777Y-13782579D01*
X10129777Y-13782579D02*
X10139301Y-13820674D01*
X10139301Y-13820674D02*
X10139301Y-13868293D01*
X10139301Y-13868293D02*
X10129777Y-13906388D01*
X10129777Y-13906388D02*
X10120253Y-13925436D01*
X10120253Y-13925436D02*
X10110729Y-13934960D01*
X10110729Y-13934960D02*
X10091682Y-13944484D01*
X10091682Y-13944484D02*
X10072634Y-13944484D01*
X10072634Y-13944484D02*
X10053587Y-13934960D01*
X10053587Y-13934960D02*
X10044063Y-13925436D01*
X10044063Y-13925436D02*
X10034539Y-13906388D01*
X10034539Y-13906388D02*
X10025015Y-13868293D01*
X10025015Y-13868293D02*
X10025015Y-13820674D01*
X10025015Y-13820674D02*
X10034539Y-13782579D01*
X10034539Y-13782579D02*
X10044063Y-13763531D01*
X10044063Y-13763531D02*
X10053587Y-13754008D01*
X10053587Y-13754008D02*
X10072634Y-13744484D01*
X10225015Y-13925436D02*
X10234539Y-13934960D01*
X10234539Y-13934960D02*
X10225015Y-13944484D01*
X10225015Y-13944484D02*
X10215491Y-13934960D01*
X10215491Y-13934960D02*
X10225015Y-13925436D01*
X10225015Y-13925436D02*
X10225015Y-13944484D01*
X10358348Y-13744484D02*
X10377396Y-13744484D01*
X10377396Y-13744484D02*
X10396444Y-13754008D01*
X10396444Y-13754008D02*
X10405968Y-13763531D01*
X10405968Y-13763531D02*
X10415491Y-13782579D01*
X10415491Y-13782579D02*
X10425015Y-13820674D01*
X10425015Y-13820674D02*
X10425015Y-13868293D01*
X10425015Y-13868293D02*
X10415491Y-13906388D01*
X10415491Y-13906388D02*
X10405968Y-13925436D01*
X10405968Y-13925436D02*
X10396444Y-13934960D01*
X10396444Y-13934960D02*
X10377396Y-13944484D01*
X10377396Y-13944484D02*
X10358348Y-13944484D01*
X10358348Y-13944484D02*
X10339301Y-13934960D01*
X10339301Y-13934960D02*
X10329777Y-13925436D01*
X10329777Y-13925436D02*
X10320253Y-13906388D01*
X10320253Y-13906388D02*
X10310729Y-13868293D01*
X10310729Y-13868293D02*
X10310729Y-13820674D01*
X10310729Y-13820674D02*
X10320253Y-13782579D01*
X10320253Y-13782579D02*
X10329777Y-13763531D01*
X10329777Y-13763531D02*
X10339301Y-13754008D01*
X10339301Y-13754008D02*
X10358348Y-13744484D01*
X10615491Y-13944484D02*
X10501206Y-13944484D01*
X10558348Y-13944484D02*
X10558348Y-13744484D01*
X10558348Y-13744484D02*
X10539301Y-13773055D01*
X10539301Y-13773055D02*
X10520253Y-13792103D01*
X10520253Y-13792103D02*
X10501206Y-13801627D01*
X10805968Y-13944484D02*
X10691682Y-13944484D01*
X10748825Y-13944484D02*
X10748825Y-13744484D01*
X10748825Y-13744484D02*
X10729777Y-13773055D01*
X10729777Y-13773055D02*
X10710729Y-13792103D01*
X10710729Y-13792103D02*
X10691682Y-13801627D01*
X10920253Y-13830198D02*
X10901206Y-13820674D01*
X10901206Y-13820674D02*
X10891682Y-13811150D01*
X10891682Y-13811150D02*
X10882158Y-13792103D01*
X10882158Y-13792103D02*
X10882158Y-13782579D01*
X10882158Y-13782579D02*
X10891682Y-13763531D01*
X10891682Y-13763531D02*
X10901206Y-13754008D01*
X10901206Y-13754008D02*
X10920253Y-13744484D01*
X10920253Y-13744484D02*
X10958349Y-13744484D01*
X10958349Y-13744484D02*
X10977396Y-13754008D01*
X10977396Y-13754008D02*
X10986920Y-13763531D01*
X10986920Y-13763531D02*
X10996444Y-13782579D01*
X10996444Y-13782579D02*
X10996444Y-13792103D01*
X10996444Y-13792103D02*
X10986920Y-13811150D01*
X10986920Y-13811150D02*
X10977396Y-13820674D01*
X10977396Y-13820674D02*
X10958349Y-13830198D01*
X10958349Y-13830198D02*
X10920253Y-13830198D01*
X10920253Y-13830198D02*
X10901206Y-13839722D01*
X10901206Y-13839722D02*
X10891682Y-13849246D01*
X10891682Y-13849246D02*
X10882158Y-13868293D01*
X10882158Y-13868293D02*
X10882158Y-13906388D01*
X10882158Y-13906388D02*
X10891682Y-13925436D01*
X10891682Y-13925436D02*
X10901206Y-13934960D01*
X10901206Y-13934960D02*
X10920253Y-13944484D01*
X10920253Y-13944484D02*
X10958349Y-13944484D01*
X10958349Y-13944484D02*
X10977396Y-13934960D01*
X10977396Y-13934960D02*
X10986920Y-13925436D01*
X10986920Y-13925436D02*
X10996444Y-13906388D01*
X10996444Y-13906388D02*
X10996444Y-13868293D01*
X10996444Y-13868293D02*
X10986920Y-13849246D01*
X10986920Y-13849246D02*
X10977396Y-13839722D01*
X10977396Y-13839722D02*
X10958349Y-13830198D01*
X11072634Y-13744484D02*
X11072634Y-13782579D01*
X11148825Y-13744484D02*
X11148825Y-13782579D01*
X11444063Y-14020674D02*
X11434539Y-14011150D01*
X11434539Y-14011150D02*
X11415491Y-13982579D01*
X11415491Y-13982579D02*
X11405968Y-13963531D01*
X11405968Y-13963531D02*
X11396444Y-13934960D01*
X11396444Y-13934960D02*
X11386920Y-13887341D01*
X11386920Y-13887341D02*
X11386920Y-13849246D01*
X11386920Y-13849246D02*
X11396444Y-13801627D01*
X11396444Y-13801627D02*
X11405968Y-13773055D01*
X11405968Y-13773055D02*
X11415491Y-13754008D01*
X11415491Y-13754008D02*
X11434539Y-13725436D01*
X11434539Y-13725436D02*
X11444063Y-13715912D01*
X11510729Y-13763531D02*
X11520253Y-13754008D01*
X11520253Y-13754008D02*
X11539301Y-13744484D01*
X11539301Y-13744484D02*
X11586920Y-13744484D01*
X11586920Y-13744484D02*
X11605968Y-13754008D01*
X11605968Y-13754008D02*
X11615491Y-13763531D01*
X11615491Y-13763531D02*
X11625015Y-13782579D01*
X11625015Y-13782579D02*
X11625015Y-13801627D01*
X11625015Y-13801627D02*
X11615491Y-13830198D01*
X11615491Y-13830198D02*
X11501206Y-13944484D01*
X11501206Y-13944484D02*
X11625015Y-13944484D01*
X11701206Y-13763531D02*
X11710729Y-13754008D01*
X11710729Y-13754008D02*
X11729777Y-13744484D01*
X11729777Y-13744484D02*
X11777396Y-13744484D01*
X11777396Y-13744484D02*
X11796444Y-13754008D01*
X11796444Y-13754008D02*
X11805968Y-13763531D01*
X11805968Y-13763531D02*
X11815491Y-13782579D01*
X11815491Y-13782579D02*
X11815491Y-13801627D01*
X11815491Y-13801627D02*
X11805968Y-13830198D01*
X11805968Y-13830198D02*
X11691682Y-13944484D01*
X11691682Y-13944484D02*
X11815491Y-13944484D01*
X12053587Y-13944484D02*
X12053587Y-13744484D01*
X12139301Y-13944484D02*
X12139301Y-13839722D01*
X12139301Y-13839722D02*
X12129777Y-13820674D01*
X12129777Y-13820674D02*
X12110730Y-13811150D01*
X12110730Y-13811150D02*
X12082158Y-13811150D01*
X12082158Y-13811150D02*
X12063110Y-13820674D01*
X12063110Y-13820674D02*
X12053587Y-13830198D01*
X12263110Y-13944484D02*
X12244063Y-13934960D01*
X12244063Y-13934960D02*
X12234539Y-13925436D01*
X12234539Y-13925436D02*
X12225015Y-13906388D01*
X12225015Y-13906388D02*
X12225015Y-13849246D01*
X12225015Y-13849246D02*
X12234539Y-13830198D01*
X12234539Y-13830198D02*
X12244063Y-13820674D01*
X12244063Y-13820674D02*
X12263110Y-13811150D01*
X12263110Y-13811150D02*
X12291682Y-13811150D01*
X12291682Y-13811150D02*
X12310730Y-13820674D01*
X12310730Y-13820674D02*
X12320253Y-13830198D01*
X12320253Y-13830198D02*
X12329777Y-13849246D01*
X12329777Y-13849246D02*
X12329777Y-13906388D01*
X12329777Y-13906388D02*
X12320253Y-13925436D01*
X12320253Y-13925436D02*
X12310730Y-13934960D01*
X12310730Y-13934960D02*
X12291682Y-13944484D01*
X12291682Y-13944484D02*
X12263110Y-13944484D01*
X12444063Y-13944484D02*
X12425015Y-13934960D01*
X12425015Y-13934960D02*
X12415491Y-13915912D01*
X12415491Y-13915912D02*
X12415491Y-13744484D01*
X12596444Y-13934960D02*
X12577396Y-13944484D01*
X12577396Y-13944484D02*
X12539301Y-13944484D01*
X12539301Y-13944484D02*
X12520253Y-13934960D01*
X12520253Y-13934960D02*
X12510730Y-13915912D01*
X12510730Y-13915912D02*
X12510730Y-13839722D01*
X12510730Y-13839722D02*
X12520253Y-13820674D01*
X12520253Y-13820674D02*
X12539301Y-13811150D01*
X12539301Y-13811150D02*
X12577396Y-13811150D01*
X12577396Y-13811150D02*
X12596444Y-13820674D01*
X12596444Y-13820674D02*
X12605968Y-13839722D01*
X12605968Y-13839722D02*
X12605968Y-13858769D01*
X12605968Y-13858769D02*
X12510730Y-13877817D01*
X12682158Y-13934960D02*
X12701206Y-13944484D01*
X12701206Y-13944484D02*
X12739301Y-13944484D01*
X12739301Y-13944484D02*
X12758349Y-13934960D01*
X12758349Y-13934960D02*
X12767872Y-13915912D01*
X12767872Y-13915912D02*
X12767872Y-13906388D01*
X12767872Y-13906388D02*
X12758349Y-13887341D01*
X12758349Y-13887341D02*
X12739301Y-13877817D01*
X12739301Y-13877817D02*
X12710730Y-13877817D01*
X12710730Y-13877817D02*
X12691682Y-13868293D01*
X12691682Y-13868293D02*
X12682158Y-13849246D01*
X12682158Y-13849246D02*
X12682158Y-13839722D01*
X12682158Y-13839722D02*
X12691682Y-13820674D01*
X12691682Y-13820674D02*
X12710730Y-13811150D01*
X12710730Y-13811150D02*
X12739301Y-13811150D01*
X12739301Y-13811150D02*
X12758349Y-13820674D01*
X12834539Y-14020674D02*
X12844063Y-14011150D01*
X12844063Y-14011150D02*
X12863111Y-13982579D01*
X12863111Y-13982579D02*
X12872634Y-13963531D01*
X12872634Y-13963531D02*
X12882158Y-13934960D01*
X12882158Y-13934960D02*
X12891682Y-13887341D01*
X12891682Y-13887341D02*
X12891682Y-13849246D01*
X12891682Y-13849246D02*
X12882158Y-13801627D01*
X12882158Y-13801627D02*
X12872634Y-13773055D01*
X12872634Y-13773055D02*
X12863111Y-13754008D01*
X12863111Y-13754008D02*
X12844063Y-13725436D01*
X12844063Y-13725436D02*
X12834539Y-13715912D01*
D10*
X7869000Y-14117000D02*
G75*
G02*
X7794000Y-14117000I-37500J0D01*
G01*
X7794000Y-14117000D02*
G75*
G02*
X7869000Y-14117000I37500J0D01*
G01*
D11*
X8167872Y-14008484D02*
X8186920Y-14008484D01*
X8186920Y-14008484D02*
X8205967Y-14018008D01*
X8205967Y-14018008D02*
X8215491Y-14027531D01*
X8215491Y-14027531D02*
X8225015Y-14046579D01*
X8225015Y-14046579D02*
X8234539Y-14084674D01*
X8234539Y-14084674D02*
X8234539Y-14132293D01*
X8234539Y-14132293D02*
X8225015Y-14170388D01*
X8225015Y-14170388D02*
X8215491Y-14189436D01*
X8215491Y-14189436D02*
X8205967Y-14198960D01*
X8205967Y-14198960D02*
X8186920Y-14208484D01*
X8186920Y-14208484D02*
X8167872Y-14208484D01*
X8167872Y-14208484D02*
X8148824Y-14198960D01*
X8148824Y-14198960D02*
X8139301Y-14189436D01*
X8139301Y-14189436D02*
X8129777Y-14170388D01*
X8129777Y-14170388D02*
X8120253Y-14132293D01*
X8120253Y-14132293D02*
X8120253Y-14084674D01*
X8120253Y-14084674D02*
X8129777Y-14046579D01*
X8129777Y-14046579D02*
X8139301Y-14027531D01*
X8139301Y-14027531D02*
X8148824Y-14018008D01*
X8148824Y-14018008D02*
X8167872Y-14008484D01*
X8320253Y-14189436D02*
X8329777Y-14198960D01*
X8329777Y-14198960D02*
X8320253Y-14208484D01*
X8320253Y-14208484D02*
X8310729Y-14198960D01*
X8310729Y-14198960D02*
X8320253Y-14189436D01*
X8320253Y-14189436D02*
X8320253Y-14208484D01*
X8396444Y-14008484D02*
X8529777Y-14008484D01*
X8529777Y-14008484D02*
X8444063Y-14208484D01*
X8701205Y-14008484D02*
X8605967Y-14008484D01*
X8605967Y-14008484D02*
X8596444Y-14103722D01*
X8596444Y-14103722D02*
X8605967Y-14094198D01*
X8605967Y-14094198D02*
X8625015Y-14084674D01*
X8625015Y-14084674D02*
X8672634Y-14084674D01*
X8672634Y-14084674D02*
X8691682Y-14094198D01*
X8691682Y-14094198D02*
X8701205Y-14103722D01*
X8701205Y-14103722D02*
X8710729Y-14122769D01*
X8710729Y-14122769D02*
X8710729Y-14170388D01*
X8710729Y-14170388D02*
X8701205Y-14189436D01*
X8701205Y-14189436D02*
X8691682Y-14198960D01*
X8691682Y-14198960D02*
X8672634Y-14208484D01*
X8672634Y-14208484D02*
X8625015Y-14208484D01*
X8625015Y-14208484D02*
X8605967Y-14198960D01*
X8605967Y-14198960D02*
X8596444Y-14189436D01*
X8834539Y-14008484D02*
X8853586Y-14008484D01*
X8853586Y-14008484D02*
X8872634Y-14018008D01*
X8872634Y-14018008D02*
X8882158Y-14027531D01*
X8882158Y-14027531D02*
X8891682Y-14046579D01*
X8891682Y-14046579D02*
X8901205Y-14084674D01*
X8901205Y-14084674D02*
X8901205Y-14132293D01*
X8901205Y-14132293D02*
X8891682Y-14170388D01*
X8891682Y-14170388D02*
X8882158Y-14189436D01*
X8882158Y-14189436D02*
X8872634Y-14198960D01*
X8872634Y-14198960D02*
X8853586Y-14208484D01*
X8853586Y-14208484D02*
X8834539Y-14208484D01*
X8834539Y-14208484D02*
X8815491Y-14198960D01*
X8815491Y-14198960D02*
X8805967Y-14189436D01*
X8805967Y-14189436D02*
X8796444Y-14170388D01*
X8796444Y-14170388D02*
X8786920Y-14132293D01*
X8786920Y-14132293D02*
X8786920Y-14084674D01*
X8786920Y-14084674D02*
X8796444Y-14046579D01*
X8796444Y-14046579D02*
X8805967Y-14027531D01*
X8805967Y-14027531D02*
X8815491Y-14018008D01*
X8815491Y-14018008D02*
X8834539Y-14008484D01*
X8986920Y-14208484D02*
X8986920Y-14075150D01*
X8986920Y-14094198D02*
X8996444Y-14084674D01*
X8996444Y-14084674D02*
X9015491Y-14075150D01*
X9015491Y-14075150D02*
X9044063Y-14075150D01*
X9044063Y-14075150D02*
X9063110Y-14084674D01*
X9063110Y-14084674D02*
X9072634Y-14103722D01*
X9072634Y-14103722D02*
X9072634Y-14208484D01*
X9072634Y-14103722D02*
X9082158Y-14084674D01*
X9082158Y-14084674D02*
X9101205Y-14075150D01*
X9101205Y-14075150D02*
X9129777Y-14075150D01*
X9129777Y-14075150D02*
X9148825Y-14084674D01*
X9148825Y-14084674D02*
X9158348Y-14103722D01*
X9158348Y-14103722D02*
X9158348Y-14208484D01*
X9253586Y-14208484D02*
X9253586Y-14075150D01*
X9253586Y-14094198D02*
X9263110Y-14084674D01*
X9263110Y-14084674D02*
X9282158Y-14075150D01*
X9282158Y-14075150D02*
X9310729Y-14075150D01*
X9310729Y-14075150D02*
X9329777Y-14084674D01*
X9329777Y-14084674D02*
X9339301Y-14103722D01*
X9339301Y-14103722D02*
X9339301Y-14208484D01*
X9339301Y-14103722D02*
X9348825Y-14084674D01*
X9348825Y-14084674D02*
X9367872Y-14075150D01*
X9367872Y-14075150D02*
X9396444Y-14075150D01*
X9396444Y-14075150D02*
X9415491Y-14084674D01*
X9415491Y-14084674D02*
X9425015Y-14103722D01*
X9425015Y-14103722D02*
X9425015Y-14208484D01*
X9815491Y-13998960D02*
X9644063Y-14256103D01*
X10072634Y-14008484D02*
X10091682Y-14008484D01*
X10091682Y-14008484D02*
X10110729Y-14018008D01*
X10110729Y-14018008D02*
X10120253Y-14027531D01*
X10120253Y-14027531D02*
X10129777Y-14046579D01*
X10129777Y-14046579D02*
X10139301Y-14084674D01*
X10139301Y-14084674D02*
X10139301Y-14132293D01*
X10139301Y-14132293D02*
X10129777Y-14170388D01*
X10129777Y-14170388D02*
X10120253Y-14189436D01*
X10120253Y-14189436D02*
X10110729Y-14198960D01*
X10110729Y-14198960D02*
X10091682Y-14208484D01*
X10091682Y-14208484D02*
X10072634Y-14208484D01*
X10072634Y-14208484D02*
X10053587Y-14198960D01*
X10053587Y-14198960D02*
X10044063Y-14189436D01*
X10044063Y-14189436D02*
X10034539Y-14170388D01*
X10034539Y-14170388D02*
X10025015Y-14132293D01*
X10025015Y-14132293D02*
X10025015Y-14084674D01*
X10025015Y-14084674D02*
X10034539Y-14046579D01*
X10034539Y-14046579D02*
X10044063Y-14027531D01*
X10044063Y-14027531D02*
X10053587Y-14018008D01*
X10053587Y-14018008D02*
X10072634Y-14008484D01*
X10225015Y-14189436D02*
X10234539Y-14198960D01*
X10234539Y-14198960D02*
X10225015Y-14208484D01*
X10225015Y-14208484D02*
X10215491Y-14198960D01*
X10215491Y-14198960D02*
X10225015Y-14189436D01*
X10225015Y-14189436D02*
X10225015Y-14208484D01*
X10358348Y-14008484D02*
X10377396Y-14008484D01*
X10377396Y-14008484D02*
X10396444Y-14018008D01*
X10396444Y-14018008D02*
X10405968Y-14027531D01*
X10405968Y-14027531D02*
X10415491Y-14046579D01*
X10415491Y-14046579D02*
X10425015Y-14084674D01*
X10425015Y-14084674D02*
X10425015Y-14132293D01*
X10425015Y-14132293D02*
X10415491Y-14170388D01*
X10415491Y-14170388D02*
X10405968Y-14189436D01*
X10405968Y-14189436D02*
X10396444Y-14198960D01*
X10396444Y-14198960D02*
X10377396Y-14208484D01*
X10377396Y-14208484D02*
X10358348Y-14208484D01*
X10358348Y-14208484D02*
X10339301Y-14198960D01*
X10339301Y-14198960D02*
X10329777Y-14189436D01*
X10329777Y-14189436D02*
X10320253Y-14170388D01*
X10320253Y-14170388D02*
X10310729Y-14132293D01*
X10310729Y-14132293D02*
X10310729Y-14084674D01*
X10310729Y-14084674D02*
X10320253Y-14046579D01*
X10320253Y-14046579D02*
X10329777Y-14027531D01*
X10329777Y-14027531D02*
X10339301Y-14018008D01*
X10339301Y-14018008D02*
X10358348Y-14008484D01*
X10501206Y-14027531D02*
X10510729Y-14018008D01*
X10510729Y-14018008D02*
X10529777Y-14008484D01*
X10529777Y-14008484D02*
X10577396Y-14008484D01*
X10577396Y-14008484D02*
X10596444Y-14018008D01*
X10596444Y-14018008D02*
X10605968Y-14027531D01*
X10605968Y-14027531D02*
X10615491Y-14046579D01*
X10615491Y-14046579D02*
X10615491Y-14065627D01*
X10615491Y-14065627D02*
X10605968Y-14094198D01*
X10605968Y-14094198D02*
X10491682Y-14208484D01*
X10491682Y-14208484D02*
X10615491Y-14208484D01*
X10710729Y-14208484D02*
X10748825Y-14208484D01*
X10748825Y-14208484D02*
X10767872Y-14198960D01*
X10767872Y-14198960D02*
X10777396Y-14189436D01*
X10777396Y-14189436D02*
X10796444Y-14160865D01*
X10796444Y-14160865D02*
X10805968Y-14122769D01*
X10805968Y-14122769D02*
X10805968Y-14046579D01*
X10805968Y-14046579D02*
X10796444Y-14027531D01*
X10796444Y-14027531D02*
X10786920Y-14018008D01*
X10786920Y-14018008D02*
X10767872Y-14008484D01*
X10767872Y-14008484D02*
X10729777Y-14008484D01*
X10729777Y-14008484D02*
X10710729Y-14018008D01*
X10710729Y-14018008D02*
X10701206Y-14027531D01*
X10701206Y-14027531D02*
X10691682Y-14046579D01*
X10691682Y-14046579D02*
X10691682Y-14094198D01*
X10691682Y-14094198D02*
X10701206Y-14113246D01*
X10701206Y-14113246D02*
X10710729Y-14122769D01*
X10710729Y-14122769D02*
X10729777Y-14132293D01*
X10729777Y-14132293D02*
X10767872Y-14132293D01*
X10767872Y-14132293D02*
X10786920Y-14122769D01*
X10786920Y-14122769D02*
X10796444Y-14113246D01*
X10796444Y-14113246D02*
X10805968Y-14094198D01*
X10986920Y-14008484D02*
X10891682Y-14008484D01*
X10891682Y-14008484D02*
X10882158Y-14103722D01*
X10882158Y-14103722D02*
X10891682Y-14094198D01*
X10891682Y-14094198D02*
X10910729Y-14084674D01*
X10910729Y-14084674D02*
X10958349Y-14084674D01*
X10958349Y-14084674D02*
X10977396Y-14094198D01*
X10977396Y-14094198D02*
X10986920Y-14103722D01*
X10986920Y-14103722D02*
X10996444Y-14122769D01*
X10996444Y-14122769D02*
X10996444Y-14170388D01*
X10996444Y-14170388D02*
X10986920Y-14189436D01*
X10986920Y-14189436D02*
X10977396Y-14198960D01*
X10977396Y-14198960D02*
X10958349Y-14208484D01*
X10958349Y-14208484D02*
X10910729Y-14208484D01*
X10910729Y-14208484D02*
X10891682Y-14198960D01*
X10891682Y-14198960D02*
X10882158Y-14189436D01*
X11072634Y-14008484D02*
X11072634Y-14046579D01*
X11148825Y-14008484D02*
X11148825Y-14046579D01*
X11444063Y-14284674D02*
X11434539Y-14275150D01*
X11434539Y-14275150D02*
X11415491Y-14246579D01*
X11415491Y-14246579D02*
X11405968Y-14227531D01*
X11405968Y-14227531D02*
X11396444Y-14198960D01*
X11396444Y-14198960D02*
X11386920Y-14151341D01*
X11386920Y-14151341D02*
X11386920Y-14113246D01*
X11386920Y-14113246D02*
X11396444Y-14065627D01*
X11396444Y-14065627D02*
X11405968Y-14037055D01*
X11405968Y-14037055D02*
X11415491Y-14018008D01*
X11415491Y-14018008D02*
X11434539Y-13989436D01*
X11434539Y-13989436D02*
X11444063Y-13979912D01*
X11605968Y-14008484D02*
X11567872Y-14008484D01*
X11567872Y-14008484D02*
X11548825Y-14018008D01*
X11548825Y-14018008D02*
X11539301Y-14027531D01*
X11539301Y-14027531D02*
X11520253Y-14056103D01*
X11520253Y-14056103D02*
X11510729Y-14094198D01*
X11510729Y-14094198D02*
X11510729Y-14170388D01*
X11510729Y-14170388D02*
X11520253Y-14189436D01*
X11520253Y-14189436D02*
X11529777Y-14198960D01*
X11529777Y-14198960D02*
X11548825Y-14208484D01*
X11548825Y-14208484D02*
X11586920Y-14208484D01*
X11586920Y-14208484D02*
X11605968Y-14198960D01*
X11605968Y-14198960D02*
X11615491Y-14189436D01*
X11615491Y-14189436D02*
X11625015Y-14170388D01*
X11625015Y-14170388D02*
X11625015Y-14122769D01*
X11625015Y-14122769D02*
X11615491Y-14103722D01*
X11615491Y-14103722D02*
X11605968Y-14094198D01*
X11605968Y-14094198D02*
X11586920Y-14084674D01*
X11586920Y-14084674D02*
X11548825Y-14084674D01*
X11548825Y-14084674D02*
X11529777Y-14094198D01*
X11529777Y-14094198D02*
X11520253Y-14103722D01*
X11520253Y-14103722D02*
X11510729Y-14122769D01*
X11863110Y-14208484D02*
X11863110Y-14008484D01*
X11948825Y-14208484D02*
X11948825Y-14103722D01*
X11948825Y-14103722D02*
X11939301Y-14084674D01*
X11939301Y-14084674D02*
X11920253Y-14075150D01*
X11920253Y-14075150D02*
X11891682Y-14075150D01*
X11891682Y-14075150D02*
X11872634Y-14084674D01*
X11872634Y-14084674D02*
X11863110Y-14094198D01*
X12072634Y-14208484D02*
X12053587Y-14198960D01*
X12053587Y-14198960D02*
X12044063Y-14189436D01*
X12044063Y-14189436D02*
X12034539Y-14170388D01*
X12034539Y-14170388D02*
X12034539Y-14113246D01*
X12034539Y-14113246D02*
X12044063Y-14094198D01*
X12044063Y-14094198D02*
X12053587Y-14084674D01*
X12053587Y-14084674D02*
X12072634Y-14075150D01*
X12072634Y-14075150D02*
X12101206Y-14075150D01*
X12101206Y-14075150D02*
X12120253Y-14084674D01*
X12120253Y-14084674D02*
X12129777Y-14094198D01*
X12129777Y-14094198D02*
X12139301Y-14113246D01*
X12139301Y-14113246D02*
X12139301Y-14170388D01*
X12139301Y-14170388D02*
X12129777Y-14189436D01*
X12129777Y-14189436D02*
X12120253Y-14198960D01*
X12120253Y-14198960D02*
X12101206Y-14208484D01*
X12101206Y-14208484D02*
X12072634Y-14208484D01*
X12253587Y-14208484D02*
X12234539Y-14198960D01*
X12234539Y-14198960D02*
X12225015Y-14179912D01*
X12225015Y-14179912D02*
X12225015Y-14008484D01*
X12405968Y-14198960D02*
X12386920Y-14208484D01*
X12386920Y-14208484D02*
X12348825Y-14208484D01*
X12348825Y-14208484D02*
X12329777Y-14198960D01*
X12329777Y-14198960D02*
X12320253Y-14179912D01*
X12320253Y-14179912D02*
X12320253Y-14103722D01*
X12320253Y-14103722D02*
X12329777Y-14084674D01*
X12329777Y-14084674D02*
X12348825Y-14075150D01*
X12348825Y-14075150D02*
X12386920Y-14075150D01*
X12386920Y-14075150D02*
X12405968Y-14084674D01*
X12405968Y-14084674D02*
X12415491Y-14103722D01*
X12415491Y-14103722D02*
X12415491Y-14122769D01*
X12415491Y-14122769D02*
X12320253Y-14141817D01*
X12491682Y-14198960D02*
X12510730Y-14208484D01*
X12510730Y-14208484D02*
X12548825Y-14208484D01*
X12548825Y-14208484D02*
X12567872Y-14198960D01*
X12567872Y-14198960D02*
X12577396Y-14179912D01*
X12577396Y-14179912D02*
X12577396Y-14170388D01*
X12577396Y-14170388D02*
X12567872Y-14151341D01*
X12567872Y-14151341D02*
X12548825Y-14141817D01*
X12548825Y-14141817D02*
X12520253Y-14141817D01*
X12520253Y-14141817D02*
X12501206Y-14132293D01*
X12501206Y-14132293D02*
X12491682Y-14113246D01*
X12491682Y-14113246D02*
X12491682Y-14103722D01*
X12491682Y-14103722D02*
X12501206Y-14084674D01*
X12501206Y-14084674D02*
X12520253Y-14075150D01*
X12520253Y-14075150D02*
X12548825Y-14075150D01*
X12548825Y-14075150D02*
X12567872Y-14084674D01*
X12644063Y-14284674D02*
X12653587Y-14275150D01*
X12653587Y-14275150D02*
X12672634Y-14246579D01*
X12672634Y-14246579D02*
X12682158Y-14227531D01*
X12682158Y-14227531D02*
X12691682Y-14198960D01*
X12691682Y-14198960D02*
X12701206Y-14151341D01*
X12701206Y-14151341D02*
X12701206Y-14113246D01*
X12701206Y-14113246D02*
X12691682Y-14065627D01*
X12691682Y-14065627D02*
X12682158Y-14037055D01*
X12682158Y-14037055D02*
X12672634Y-14018008D01*
X12672634Y-14018008D02*
X12653587Y-13989436D01*
X12653587Y-13989436D02*
X12644063Y-13979912D01*
D10*
X7830900Y-14342900D02*
X7830900Y-14419100D01*
X7792800Y-14381000D02*
X7869000Y-14381000D01*
D11*
X8167872Y-14272484D02*
X8186920Y-14272484D01*
X8186920Y-14272484D02*
X8205967Y-14282008D01*
X8205967Y-14282008D02*
X8215491Y-14291531D01*
X8215491Y-14291531D02*
X8225015Y-14310579D01*
X8225015Y-14310579D02*
X8234539Y-14348674D01*
X8234539Y-14348674D02*
X8234539Y-14396293D01*
X8234539Y-14396293D02*
X8225015Y-14434388D01*
X8225015Y-14434388D02*
X8215491Y-14453436D01*
X8215491Y-14453436D02*
X8205967Y-14462960D01*
X8205967Y-14462960D02*
X8186920Y-14472484D01*
X8186920Y-14472484D02*
X8167872Y-14472484D01*
X8167872Y-14472484D02*
X8148824Y-14462960D01*
X8148824Y-14462960D02*
X8139301Y-14453436D01*
X8139301Y-14453436D02*
X8129777Y-14434388D01*
X8129777Y-14434388D02*
X8120253Y-14396293D01*
X8120253Y-14396293D02*
X8120253Y-14348674D01*
X8120253Y-14348674D02*
X8129777Y-14310579D01*
X8129777Y-14310579D02*
X8139301Y-14291531D01*
X8139301Y-14291531D02*
X8148824Y-14282008D01*
X8148824Y-14282008D02*
X8167872Y-14272484D01*
X8320253Y-14453436D02*
X8329777Y-14462960D01*
X8329777Y-14462960D02*
X8320253Y-14472484D01*
X8320253Y-14472484D02*
X8310729Y-14462960D01*
X8310729Y-14462960D02*
X8320253Y-14453436D01*
X8320253Y-14453436D02*
X8320253Y-14472484D01*
X8396444Y-14272484D02*
X8529777Y-14272484D01*
X8529777Y-14272484D02*
X8444063Y-14472484D01*
X8691682Y-14272484D02*
X8653586Y-14272484D01*
X8653586Y-14272484D02*
X8634539Y-14282008D01*
X8634539Y-14282008D02*
X8625015Y-14291531D01*
X8625015Y-14291531D02*
X8605967Y-14320103D01*
X8605967Y-14320103D02*
X8596444Y-14358198D01*
X8596444Y-14358198D02*
X8596444Y-14434388D01*
X8596444Y-14434388D02*
X8605967Y-14453436D01*
X8605967Y-14453436D02*
X8615491Y-14462960D01*
X8615491Y-14462960D02*
X8634539Y-14472484D01*
X8634539Y-14472484D02*
X8672634Y-14472484D01*
X8672634Y-14472484D02*
X8691682Y-14462960D01*
X8691682Y-14462960D02*
X8701205Y-14453436D01*
X8701205Y-14453436D02*
X8710729Y-14434388D01*
X8710729Y-14434388D02*
X8710729Y-14386769D01*
X8710729Y-14386769D02*
X8701205Y-14367722D01*
X8701205Y-14367722D02*
X8691682Y-14358198D01*
X8691682Y-14358198D02*
X8672634Y-14348674D01*
X8672634Y-14348674D02*
X8634539Y-14348674D01*
X8634539Y-14348674D02*
X8615491Y-14358198D01*
X8615491Y-14358198D02*
X8605967Y-14367722D01*
X8605967Y-14367722D02*
X8596444Y-14386769D01*
X8786920Y-14291531D02*
X8796444Y-14282008D01*
X8796444Y-14282008D02*
X8815491Y-14272484D01*
X8815491Y-14272484D02*
X8863110Y-14272484D01*
X8863110Y-14272484D02*
X8882158Y-14282008D01*
X8882158Y-14282008D02*
X8891682Y-14291531D01*
X8891682Y-14291531D02*
X8901205Y-14310579D01*
X8901205Y-14310579D02*
X8901205Y-14329627D01*
X8901205Y-14329627D02*
X8891682Y-14358198D01*
X8891682Y-14358198D02*
X8777396Y-14472484D01*
X8777396Y-14472484D02*
X8901205Y-14472484D01*
X8986920Y-14472484D02*
X8986920Y-14339150D01*
X8986920Y-14358198D02*
X8996444Y-14348674D01*
X8996444Y-14348674D02*
X9015491Y-14339150D01*
X9015491Y-14339150D02*
X9044063Y-14339150D01*
X9044063Y-14339150D02*
X9063110Y-14348674D01*
X9063110Y-14348674D02*
X9072634Y-14367722D01*
X9072634Y-14367722D02*
X9072634Y-14472484D01*
X9072634Y-14367722D02*
X9082158Y-14348674D01*
X9082158Y-14348674D02*
X9101205Y-14339150D01*
X9101205Y-14339150D02*
X9129777Y-14339150D01*
X9129777Y-14339150D02*
X9148825Y-14348674D01*
X9148825Y-14348674D02*
X9158348Y-14367722D01*
X9158348Y-14367722D02*
X9158348Y-14472484D01*
X9253586Y-14472484D02*
X9253586Y-14339150D01*
X9253586Y-14358198D02*
X9263110Y-14348674D01*
X9263110Y-14348674D02*
X9282158Y-14339150D01*
X9282158Y-14339150D02*
X9310729Y-14339150D01*
X9310729Y-14339150D02*
X9329777Y-14348674D01*
X9329777Y-14348674D02*
X9339301Y-14367722D01*
X9339301Y-14367722D02*
X9339301Y-14472484D01*
X9339301Y-14367722D02*
X9348825Y-14348674D01*
X9348825Y-14348674D02*
X9367872Y-14339150D01*
X9367872Y-14339150D02*
X9396444Y-14339150D01*
X9396444Y-14339150D02*
X9415491Y-14348674D01*
X9415491Y-14348674D02*
X9425015Y-14367722D01*
X9425015Y-14367722D02*
X9425015Y-14472484D01*
X9815491Y-14262960D02*
X9644063Y-14520103D01*
X10072634Y-14272484D02*
X10091682Y-14272484D01*
X10091682Y-14272484D02*
X10110729Y-14282008D01*
X10110729Y-14282008D02*
X10120253Y-14291531D01*
X10120253Y-14291531D02*
X10129777Y-14310579D01*
X10129777Y-14310579D02*
X10139301Y-14348674D01*
X10139301Y-14348674D02*
X10139301Y-14396293D01*
X10139301Y-14396293D02*
X10129777Y-14434388D01*
X10129777Y-14434388D02*
X10120253Y-14453436D01*
X10120253Y-14453436D02*
X10110729Y-14462960D01*
X10110729Y-14462960D02*
X10091682Y-14472484D01*
X10091682Y-14472484D02*
X10072634Y-14472484D01*
X10072634Y-14472484D02*
X10053587Y-14462960D01*
X10053587Y-14462960D02*
X10044063Y-14453436D01*
X10044063Y-14453436D02*
X10034539Y-14434388D01*
X10034539Y-14434388D02*
X10025015Y-14396293D01*
X10025015Y-14396293D02*
X10025015Y-14348674D01*
X10025015Y-14348674D02*
X10034539Y-14310579D01*
X10034539Y-14310579D02*
X10044063Y-14291531D01*
X10044063Y-14291531D02*
X10053587Y-14282008D01*
X10053587Y-14282008D02*
X10072634Y-14272484D01*
X10225015Y-14453436D02*
X10234539Y-14462960D01*
X10234539Y-14462960D02*
X10225015Y-14472484D01*
X10225015Y-14472484D02*
X10215491Y-14462960D01*
X10215491Y-14462960D02*
X10225015Y-14453436D01*
X10225015Y-14453436D02*
X10225015Y-14472484D01*
X10358348Y-14272484D02*
X10377396Y-14272484D01*
X10377396Y-14272484D02*
X10396444Y-14282008D01*
X10396444Y-14282008D02*
X10405968Y-14291531D01*
X10405968Y-14291531D02*
X10415491Y-14310579D01*
X10415491Y-14310579D02*
X10425015Y-14348674D01*
X10425015Y-14348674D02*
X10425015Y-14396293D01*
X10425015Y-14396293D02*
X10415491Y-14434388D01*
X10415491Y-14434388D02*
X10405968Y-14453436D01*
X10405968Y-14453436D02*
X10396444Y-14462960D01*
X10396444Y-14462960D02*
X10377396Y-14472484D01*
X10377396Y-14472484D02*
X10358348Y-14472484D01*
X10358348Y-14472484D02*
X10339301Y-14462960D01*
X10339301Y-14462960D02*
X10329777Y-14453436D01*
X10329777Y-14453436D02*
X10320253Y-14434388D01*
X10320253Y-14434388D02*
X10310729Y-14396293D01*
X10310729Y-14396293D02*
X10310729Y-14348674D01*
X10310729Y-14348674D02*
X10320253Y-14310579D01*
X10320253Y-14310579D02*
X10329777Y-14291531D01*
X10329777Y-14291531D02*
X10339301Y-14282008D01*
X10339301Y-14282008D02*
X10358348Y-14272484D01*
X10491682Y-14272484D02*
X10615491Y-14272484D01*
X10615491Y-14272484D02*
X10548825Y-14348674D01*
X10548825Y-14348674D02*
X10577396Y-14348674D01*
X10577396Y-14348674D02*
X10596444Y-14358198D01*
X10596444Y-14358198D02*
X10605968Y-14367722D01*
X10605968Y-14367722D02*
X10615491Y-14386769D01*
X10615491Y-14386769D02*
X10615491Y-14434388D01*
X10615491Y-14434388D02*
X10605968Y-14453436D01*
X10605968Y-14453436D02*
X10596444Y-14462960D01*
X10596444Y-14462960D02*
X10577396Y-14472484D01*
X10577396Y-14472484D02*
X10520253Y-14472484D01*
X10520253Y-14472484D02*
X10501206Y-14462960D01*
X10501206Y-14462960D02*
X10491682Y-14453436D01*
X10739301Y-14272484D02*
X10758349Y-14272484D01*
X10758349Y-14272484D02*
X10777396Y-14282008D01*
X10777396Y-14282008D02*
X10786920Y-14291531D01*
X10786920Y-14291531D02*
X10796444Y-14310579D01*
X10796444Y-14310579D02*
X10805968Y-14348674D01*
X10805968Y-14348674D02*
X10805968Y-14396293D01*
X10805968Y-14396293D02*
X10796444Y-14434388D01*
X10796444Y-14434388D02*
X10786920Y-14453436D01*
X10786920Y-14453436D02*
X10777396Y-14462960D01*
X10777396Y-14462960D02*
X10758349Y-14472484D01*
X10758349Y-14472484D02*
X10739301Y-14472484D01*
X10739301Y-14472484D02*
X10720253Y-14462960D01*
X10720253Y-14462960D02*
X10710729Y-14453436D01*
X10710729Y-14453436D02*
X10701206Y-14434388D01*
X10701206Y-14434388D02*
X10691682Y-14396293D01*
X10691682Y-14396293D02*
X10691682Y-14348674D01*
X10691682Y-14348674D02*
X10701206Y-14310579D01*
X10701206Y-14310579D02*
X10710729Y-14291531D01*
X10710729Y-14291531D02*
X10720253Y-14282008D01*
X10720253Y-14282008D02*
X10739301Y-14272484D01*
X10929777Y-14272484D02*
X10948825Y-14272484D01*
X10948825Y-14272484D02*
X10967872Y-14282008D01*
X10967872Y-14282008D02*
X10977396Y-14291531D01*
X10977396Y-14291531D02*
X10986920Y-14310579D01*
X10986920Y-14310579D02*
X10996444Y-14348674D01*
X10996444Y-14348674D02*
X10996444Y-14396293D01*
X10996444Y-14396293D02*
X10986920Y-14434388D01*
X10986920Y-14434388D02*
X10977396Y-14453436D01*
X10977396Y-14453436D02*
X10967872Y-14462960D01*
X10967872Y-14462960D02*
X10948825Y-14472484D01*
X10948825Y-14472484D02*
X10929777Y-14472484D01*
X10929777Y-14472484D02*
X10910729Y-14462960D01*
X10910729Y-14462960D02*
X10901206Y-14453436D01*
X10901206Y-14453436D02*
X10891682Y-14434388D01*
X10891682Y-14434388D02*
X10882158Y-14396293D01*
X10882158Y-14396293D02*
X10882158Y-14348674D01*
X10882158Y-14348674D02*
X10891682Y-14310579D01*
X10891682Y-14310579D02*
X10901206Y-14291531D01*
X10901206Y-14291531D02*
X10910729Y-14282008D01*
X10910729Y-14282008D02*
X10929777Y-14272484D01*
X11072634Y-14272484D02*
X11072634Y-14310579D01*
X11148825Y-14272484D02*
X11148825Y-14310579D01*
X11444063Y-14548674D02*
X11434539Y-14539150D01*
X11434539Y-14539150D02*
X11415491Y-14510579D01*
X11415491Y-14510579D02*
X11405968Y-14491531D01*
X11405968Y-14491531D02*
X11396444Y-14462960D01*
X11396444Y-14462960D02*
X11386920Y-14415341D01*
X11386920Y-14415341D02*
X11386920Y-14377246D01*
X11386920Y-14377246D02*
X11396444Y-14329627D01*
X11396444Y-14329627D02*
X11405968Y-14301055D01*
X11405968Y-14301055D02*
X11415491Y-14282008D01*
X11415491Y-14282008D02*
X11434539Y-14253436D01*
X11434539Y-14253436D02*
X11444063Y-14243912D01*
X11501206Y-14272484D02*
X11625015Y-14272484D01*
X11625015Y-14272484D02*
X11558348Y-14348674D01*
X11558348Y-14348674D02*
X11586920Y-14348674D01*
X11586920Y-14348674D02*
X11605968Y-14358198D01*
X11605968Y-14358198D02*
X11615491Y-14367722D01*
X11615491Y-14367722D02*
X11625015Y-14386769D01*
X11625015Y-14386769D02*
X11625015Y-14434388D01*
X11625015Y-14434388D02*
X11615491Y-14453436D01*
X11615491Y-14453436D02*
X11605968Y-14462960D01*
X11605968Y-14462960D02*
X11586920Y-14472484D01*
X11586920Y-14472484D02*
X11529777Y-14472484D01*
X11529777Y-14472484D02*
X11510729Y-14462960D01*
X11510729Y-14462960D02*
X11501206Y-14453436D01*
X11748825Y-14272484D02*
X11767872Y-14272484D01*
X11767872Y-14272484D02*
X11786920Y-14282008D01*
X11786920Y-14282008D02*
X11796444Y-14291531D01*
X11796444Y-14291531D02*
X11805968Y-14310579D01*
X11805968Y-14310579D02*
X11815491Y-14348674D01*
X11815491Y-14348674D02*
X11815491Y-14396293D01*
X11815491Y-14396293D02*
X11805968Y-14434388D01*
X11805968Y-14434388D02*
X11796444Y-14453436D01*
X11796444Y-14453436D02*
X11786920Y-14462960D01*
X11786920Y-14462960D02*
X11767872Y-14472484D01*
X11767872Y-14472484D02*
X11748825Y-14472484D01*
X11748825Y-14472484D02*
X11729777Y-14462960D01*
X11729777Y-14462960D02*
X11720253Y-14453436D01*
X11720253Y-14453436D02*
X11710729Y-14434388D01*
X11710729Y-14434388D02*
X11701206Y-14396293D01*
X11701206Y-14396293D02*
X11701206Y-14348674D01*
X11701206Y-14348674D02*
X11710729Y-14310579D01*
X11710729Y-14310579D02*
X11720253Y-14291531D01*
X11720253Y-14291531D02*
X11729777Y-14282008D01*
X11729777Y-14282008D02*
X11748825Y-14272484D01*
X12053587Y-14472484D02*
X12053587Y-14272484D01*
X12139301Y-14472484D02*
X12139301Y-14367722D01*
X12139301Y-14367722D02*
X12129777Y-14348674D01*
X12129777Y-14348674D02*
X12110730Y-14339150D01*
X12110730Y-14339150D02*
X12082158Y-14339150D01*
X12082158Y-14339150D02*
X12063110Y-14348674D01*
X12063110Y-14348674D02*
X12053587Y-14358198D01*
X12263110Y-14472484D02*
X12244063Y-14462960D01*
X12244063Y-14462960D02*
X12234539Y-14453436D01*
X12234539Y-14453436D02*
X12225015Y-14434388D01*
X12225015Y-14434388D02*
X12225015Y-14377246D01*
X12225015Y-14377246D02*
X12234539Y-14358198D01*
X12234539Y-14358198D02*
X12244063Y-14348674D01*
X12244063Y-14348674D02*
X12263110Y-14339150D01*
X12263110Y-14339150D02*
X12291682Y-14339150D01*
X12291682Y-14339150D02*
X12310730Y-14348674D01*
X12310730Y-14348674D02*
X12320253Y-14358198D01*
X12320253Y-14358198D02*
X12329777Y-14377246D01*
X12329777Y-14377246D02*
X12329777Y-14434388D01*
X12329777Y-14434388D02*
X12320253Y-14453436D01*
X12320253Y-14453436D02*
X12310730Y-14462960D01*
X12310730Y-14462960D02*
X12291682Y-14472484D01*
X12291682Y-14472484D02*
X12263110Y-14472484D01*
X12444063Y-14472484D02*
X12425015Y-14462960D01*
X12425015Y-14462960D02*
X12415491Y-14443912D01*
X12415491Y-14443912D02*
X12415491Y-14272484D01*
X12596444Y-14462960D02*
X12577396Y-14472484D01*
X12577396Y-14472484D02*
X12539301Y-14472484D01*
X12539301Y-14472484D02*
X12520253Y-14462960D01*
X12520253Y-14462960D02*
X12510730Y-14443912D01*
X12510730Y-14443912D02*
X12510730Y-14367722D01*
X12510730Y-14367722D02*
X12520253Y-14348674D01*
X12520253Y-14348674D02*
X12539301Y-14339150D01*
X12539301Y-14339150D02*
X12577396Y-14339150D01*
X12577396Y-14339150D02*
X12596444Y-14348674D01*
X12596444Y-14348674D02*
X12605968Y-14367722D01*
X12605968Y-14367722D02*
X12605968Y-14386769D01*
X12605968Y-14386769D02*
X12510730Y-14405817D01*
X12682158Y-14462960D02*
X12701206Y-14472484D01*
X12701206Y-14472484D02*
X12739301Y-14472484D01*
X12739301Y-14472484D02*
X12758349Y-14462960D01*
X12758349Y-14462960D02*
X12767872Y-14443912D01*
X12767872Y-14443912D02*
X12767872Y-14434388D01*
X12767872Y-14434388D02*
X12758349Y-14415341D01*
X12758349Y-14415341D02*
X12739301Y-14405817D01*
X12739301Y-14405817D02*
X12710730Y-14405817D01*
X12710730Y-14405817D02*
X12691682Y-14396293D01*
X12691682Y-14396293D02*
X12682158Y-14377246D01*
X12682158Y-14377246D02*
X12682158Y-14367722D01*
X12682158Y-14367722D02*
X12691682Y-14348674D01*
X12691682Y-14348674D02*
X12710730Y-14339150D01*
X12710730Y-14339150D02*
X12739301Y-14339150D01*
X12739301Y-14339150D02*
X12758349Y-14348674D01*
X12834539Y-14548674D02*
X12844063Y-14539150D01*
X12844063Y-14539150D02*
X12863111Y-14510579D01*
X12863111Y-14510579D02*
X12872634Y-14491531D01*
X12872634Y-14491531D02*
X12882158Y-14462960D01*
X12882158Y-14462960D02*
X12891682Y-14415341D01*
X12891682Y-14415341D02*
X12891682Y-14377246D01*
X12891682Y-14377246D02*
X12882158Y-14329627D01*
X12882158Y-14329627D02*
X12872634Y-14301055D01*
X12872634Y-14301055D02*
X12863111Y-14282008D01*
X12863111Y-14282008D02*
X12844063Y-14253436D01*
X12844063Y-14253436D02*
X12834539Y-14243912D01*
D10*
X7857284Y-14673284D02*
X7857284Y-14616715D01*
X7800715Y-14616715D01*
X7800715Y-14673284D01*
X7857284Y-14673284D01*
D11*
X8167872Y-14536484D02*
X8186920Y-14536484D01*
X8186920Y-14536484D02*
X8205967Y-14546008D01*
X8205967Y-14546008D02*
X8215491Y-14555531D01*
X8215491Y-14555531D02*
X8225015Y-14574579D01*
X8225015Y-14574579D02*
X8234539Y-14612674D01*
X8234539Y-14612674D02*
X8234539Y-14660293D01*
X8234539Y-14660293D02*
X8225015Y-14698388D01*
X8225015Y-14698388D02*
X8215491Y-14717436D01*
X8215491Y-14717436D02*
X8205967Y-14726960D01*
X8205967Y-14726960D02*
X8186920Y-14736484D01*
X8186920Y-14736484D02*
X8167872Y-14736484D01*
X8167872Y-14736484D02*
X8148824Y-14726960D01*
X8148824Y-14726960D02*
X8139301Y-14717436D01*
X8139301Y-14717436D02*
X8129777Y-14698388D01*
X8129777Y-14698388D02*
X8120253Y-14660293D01*
X8120253Y-14660293D02*
X8120253Y-14612674D01*
X8120253Y-14612674D02*
X8129777Y-14574579D01*
X8129777Y-14574579D02*
X8139301Y-14555531D01*
X8139301Y-14555531D02*
X8148824Y-14546008D01*
X8148824Y-14546008D02*
X8167872Y-14536484D01*
X8320253Y-14717436D02*
X8329777Y-14726960D01*
X8329777Y-14726960D02*
X8320253Y-14736484D01*
X8320253Y-14736484D02*
X8310729Y-14726960D01*
X8310729Y-14726960D02*
X8320253Y-14717436D01*
X8320253Y-14717436D02*
X8320253Y-14736484D01*
X8444063Y-14622198D02*
X8425015Y-14612674D01*
X8425015Y-14612674D02*
X8415491Y-14603150D01*
X8415491Y-14603150D02*
X8405967Y-14584103D01*
X8405967Y-14584103D02*
X8405967Y-14574579D01*
X8405967Y-14574579D02*
X8415491Y-14555531D01*
X8415491Y-14555531D02*
X8425015Y-14546008D01*
X8425015Y-14546008D02*
X8444063Y-14536484D01*
X8444063Y-14536484D02*
X8482158Y-14536484D01*
X8482158Y-14536484D02*
X8501205Y-14546008D01*
X8501205Y-14546008D02*
X8510729Y-14555531D01*
X8510729Y-14555531D02*
X8520253Y-14574579D01*
X8520253Y-14574579D02*
X8520253Y-14584103D01*
X8520253Y-14584103D02*
X8510729Y-14603150D01*
X8510729Y-14603150D02*
X8501205Y-14612674D01*
X8501205Y-14612674D02*
X8482158Y-14622198D01*
X8482158Y-14622198D02*
X8444063Y-14622198D01*
X8444063Y-14622198D02*
X8425015Y-14631722D01*
X8425015Y-14631722D02*
X8415491Y-14641246D01*
X8415491Y-14641246D02*
X8405967Y-14660293D01*
X8405967Y-14660293D02*
X8405967Y-14698388D01*
X8405967Y-14698388D02*
X8415491Y-14717436D01*
X8415491Y-14717436D02*
X8425015Y-14726960D01*
X8425015Y-14726960D02*
X8444063Y-14736484D01*
X8444063Y-14736484D02*
X8482158Y-14736484D01*
X8482158Y-14736484D02*
X8501205Y-14726960D01*
X8501205Y-14726960D02*
X8510729Y-14717436D01*
X8510729Y-14717436D02*
X8520253Y-14698388D01*
X8520253Y-14698388D02*
X8520253Y-14660293D01*
X8520253Y-14660293D02*
X8510729Y-14641246D01*
X8510729Y-14641246D02*
X8501205Y-14631722D01*
X8501205Y-14631722D02*
X8482158Y-14622198D01*
X8644063Y-14536484D02*
X8663110Y-14536484D01*
X8663110Y-14536484D02*
X8682158Y-14546008D01*
X8682158Y-14546008D02*
X8691682Y-14555531D01*
X8691682Y-14555531D02*
X8701205Y-14574579D01*
X8701205Y-14574579D02*
X8710729Y-14612674D01*
X8710729Y-14612674D02*
X8710729Y-14660293D01*
X8710729Y-14660293D02*
X8701205Y-14698388D01*
X8701205Y-14698388D02*
X8691682Y-14717436D01*
X8691682Y-14717436D02*
X8682158Y-14726960D01*
X8682158Y-14726960D02*
X8663110Y-14736484D01*
X8663110Y-14736484D02*
X8644063Y-14736484D01*
X8644063Y-14736484D02*
X8625015Y-14726960D01*
X8625015Y-14726960D02*
X8615491Y-14717436D01*
X8615491Y-14717436D02*
X8605967Y-14698388D01*
X8605967Y-14698388D02*
X8596444Y-14660293D01*
X8596444Y-14660293D02*
X8596444Y-14612674D01*
X8596444Y-14612674D02*
X8605967Y-14574579D01*
X8605967Y-14574579D02*
X8615491Y-14555531D01*
X8615491Y-14555531D02*
X8625015Y-14546008D01*
X8625015Y-14546008D02*
X8644063Y-14536484D01*
X8834539Y-14536484D02*
X8853586Y-14536484D01*
X8853586Y-14536484D02*
X8872634Y-14546008D01*
X8872634Y-14546008D02*
X8882158Y-14555531D01*
X8882158Y-14555531D02*
X8891682Y-14574579D01*
X8891682Y-14574579D02*
X8901205Y-14612674D01*
X8901205Y-14612674D02*
X8901205Y-14660293D01*
X8901205Y-14660293D02*
X8891682Y-14698388D01*
X8891682Y-14698388D02*
X8882158Y-14717436D01*
X8882158Y-14717436D02*
X8872634Y-14726960D01*
X8872634Y-14726960D02*
X8853586Y-14736484D01*
X8853586Y-14736484D02*
X8834539Y-14736484D01*
X8834539Y-14736484D02*
X8815491Y-14726960D01*
X8815491Y-14726960D02*
X8805967Y-14717436D01*
X8805967Y-14717436D02*
X8796444Y-14698388D01*
X8796444Y-14698388D02*
X8786920Y-14660293D01*
X8786920Y-14660293D02*
X8786920Y-14612674D01*
X8786920Y-14612674D02*
X8796444Y-14574579D01*
X8796444Y-14574579D02*
X8805967Y-14555531D01*
X8805967Y-14555531D02*
X8815491Y-14546008D01*
X8815491Y-14546008D02*
X8834539Y-14536484D01*
X8986920Y-14736484D02*
X8986920Y-14603150D01*
X8986920Y-14622198D02*
X8996444Y-14612674D01*
X8996444Y-14612674D02*
X9015491Y-14603150D01*
X9015491Y-14603150D02*
X9044063Y-14603150D01*
X9044063Y-14603150D02*
X9063110Y-14612674D01*
X9063110Y-14612674D02*
X9072634Y-14631722D01*
X9072634Y-14631722D02*
X9072634Y-14736484D01*
X9072634Y-14631722D02*
X9082158Y-14612674D01*
X9082158Y-14612674D02*
X9101205Y-14603150D01*
X9101205Y-14603150D02*
X9129777Y-14603150D01*
X9129777Y-14603150D02*
X9148825Y-14612674D01*
X9148825Y-14612674D02*
X9158348Y-14631722D01*
X9158348Y-14631722D02*
X9158348Y-14736484D01*
X9253586Y-14736484D02*
X9253586Y-14603150D01*
X9253586Y-14622198D02*
X9263110Y-14612674D01*
X9263110Y-14612674D02*
X9282158Y-14603150D01*
X9282158Y-14603150D02*
X9310729Y-14603150D01*
X9310729Y-14603150D02*
X9329777Y-14612674D01*
X9329777Y-14612674D02*
X9339301Y-14631722D01*
X9339301Y-14631722D02*
X9339301Y-14736484D01*
X9339301Y-14631722D02*
X9348825Y-14612674D01*
X9348825Y-14612674D02*
X9367872Y-14603150D01*
X9367872Y-14603150D02*
X9396444Y-14603150D01*
X9396444Y-14603150D02*
X9415491Y-14612674D01*
X9415491Y-14612674D02*
X9425015Y-14631722D01*
X9425015Y-14631722D02*
X9425015Y-14736484D01*
X9815491Y-14526960D02*
X9644063Y-14784103D01*
X10072634Y-14536484D02*
X10091682Y-14536484D01*
X10091682Y-14536484D02*
X10110729Y-14546008D01*
X10110729Y-14546008D02*
X10120253Y-14555531D01*
X10120253Y-14555531D02*
X10129777Y-14574579D01*
X10129777Y-14574579D02*
X10139301Y-14612674D01*
X10139301Y-14612674D02*
X10139301Y-14660293D01*
X10139301Y-14660293D02*
X10129777Y-14698388D01*
X10129777Y-14698388D02*
X10120253Y-14717436D01*
X10120253Y-14717436D02*
X10110729Y-14726960D01*
X10110729Y-14726960D02*
X10091682Y-14736484D01*
X10091682Y-14736484D02*
X10072634Y-14736484D01*
X10072634Y-14736484D02*
X10053587Y-14726960D01*
X10053587Y-14726960D02*
X10044063Y-14717436D01*
X10044063Y-14717436D02*
X10034539Y-14698388D01*
X10034539Y-14698388D02*
X10025015Y-14660293D01*
X10025015Y-14660293D02*
X10025015Y-14612674D01*
X10025015Y-14612674D02*
X10034539Y-14574579D01*
X10034539Y-14574579D02*
X10044063Y-14555531D01*
X10044063Y-14555531D02*
X10053587Y-14546008D01*
X10053587Y-14546008D02*
X10072634Y-14536484D01*
X10225015Y-14717436D02*
X10234539Y-14726960D01*
X10234539Y-14726960D02*
X10225015Y-14736484D01*
X10225015Y-14736484D02*
X10215491Y-14726960D01*
X10215491Y-14726960D02*
X10225015Y-14717436D01*
X10225015Y-14717436D02*
X10225015Y-14736484D01*
X10358348Y-14536484D02*
X10377396Y-14536484D01*
X10377396Y-14536484D02*
X10396444Y-14546008D01*
X10396444Y-14546008D02*
X10405968Y-14555531D01*
X10405968Y-14555531D02*
X10415491Y-14574579D01*
X10415491Y-14574579D02*
X10425015Y-14612674D01*
X10425015Y-14612674D02*
X10425015Y-14660293D01*
X10425015Y-14660293D02*
X10415491Y-14698388D01*
X10415491Y-14698388D02*
X10405968Y-14717436D01*
X10405968Y-14717436D02*
X10396444Y-14726960D01*
X10396444Y-14726960D02*
X10377396Y-14736484D01*
X10377396Y-14736484D02*
X10358348Y-14736484D01*
X10358348Y-14736484D02*
X10339301Y-14726960D01*
X10339301Y-14726960D02*
X10329777Y-14717436D01*
X10329777Y-14717436D02*
X10320253Y-14698388D01*
X10320253Y-14698388D02*
X10310729Y-14660293D01*
X10310729Y-14660293D02*
X10310729Y-14612674D01*
X10310729Y-14612674D02*
X10320253Y-14574579D01*
X10320253Y-14574579D02*
X10329777Y-14555531D01*
X10329777Y-14555531D02*
X10339301Y-14546008D01*
X10339301Y-14546008D02*
X10358348Y-14536484D01*
X10491682Y-14536484D02*
X10615491Y-14536484D01*
X10615491Y-14536484D02*
X10548825Y-14612674D01*
X10548825Y-14612674D02*
X10577396Y-14612674D01*
X10577396Y-14612674D02*
X10596444Y-14622198D01*
X10596444Y-14622198D02*
X10605968Y-14631722D01*
X10605968Y-14631722D02*
X10615491Y-14650769D01*
X10615491Y-14650769D02*
X10615491Y-14698388D01*
X10615491Y-14698388D02*
X10605968Y-14717436D01*
X10605968Y-14717436D02*
X10596444Y-14726960D01*
X10596444Y-14726960D02*
X10577396Y-14736484D01*
X10577396Y-14736484D02*
X10520253Y-14736484D01*
X10520253Y-14736484D02*
X10501206Y-14726960D01*
X10501206Y-14726960D02*
X10491682Y-14717436D01*
X10805968Y-14736484D02*
X10691682Y-14736484D01*
X10748825Y-14736484D02*
X10748825Y-14536484D01*
X10748825Y-14536484D02*
X10729777Y-14565055D01*
X10729777Y-14565055D02*
X10710729Y-14584103D01*
X10710729Y-14584103D02*
X10691682Y-14593627D01*
X10986920Y-14536484D02*
X10891682Y-14536484D01*
X10891682Y-14536484D02*
X10882158Y-14631722D01*
X10882158Y-14631722D02*
X10891682Y-14622198D01*
X10891682Y-14622198D02*
X10910729Y-14612674D01*
X10910729Y-14612674D02*
X10958349Y-14612674D01*
X10958349Y-14612674D02*
X10977396Y-14622198D01*
X10977396Y-14622198D02*
X10986920Y-14631722D01*
X10986920Y-14631722D02*
X10996444Y-14650769D01*
X10996444Y-14650769D02*
X10996444Y-14698388D01*
X10996444Y-14698388D02*
X10986920Y-14717436D01*
X10986920Y-14717436D02*
X10977396Y-14726960D01*
X10977396Y-14726960D02*
X10958349Y-14736484D01*
X10958349Y-14736484D02*
X10910729Y-14736484D01*
X10910729Y-14736484D02*
X10891682Y-14726960D01*
X10891682Y-14726960D02*
X10882158Y-14717436D01*
X11072634Y-14536484D02*
X11072634Y-14574579D01*
X11148825Y-14536484D02*
X11148825Y-14574579D01*
X11444063Y-14812674D02*
X11434539Y-14803150D01*
X11434539Y-14803150D02*
X11415491Y-14774579D01*
X11415491Y-14774579D02*
X11405968Y-14755531D01*
X11405968Y-14755531D02*
X11396444Y-14726960D01*
X11396444Y-14726960D02*
X11386920Y-14679341D01*
X11386920Y-14679341D02*
X11386920Y-14641246D01*
X11386920Y-14641246D02*
X11396444Y-14593627D01*
X11396444Y-14593627D02*
X11405968Y-14565055D01*
X11405968Y-14565055D02*
X11415491Y-14546008D01*
X11415491Y-14546008D02*
X11434539Y-14517436D01*
X11434539Y-14517436D02*
X11444063Y-14507912D01*
X11501206Y-14536484D02*
X11625015Y-14536484D01*
X11625015Y-14536484D02*
X11558348Y-14612674D01*
X11558348Y-14612674D02*
X11586920Y-14612674D01*
X11586920Y-14612674D02*
X11605968Y-14622198D01*
X11605968Y-14622198D02*
X11615491Y-14631722D01*
X11615491Y-14631722D02*
X11625015Y-14650769D01*
X11625015Y-14650769D02*
X11625015Y-14698388D01*
X11625015Y-14698388D02*
X11615491Y-14717436D01*
X11615491Y-14717436D02*
X11605968Y-14726960D01*
X11605968Y-14726960D02*
X11586920Y-14736484D01*
X11586920Y-14736484D02*
X11529777Y-14736484D01*
X11529777Y-14736484D02*
X11510729Y-14726960D01*
X11510729Y-14726960D02*
X11501206Y-14717436D01*
X11748825Y-14536484D02*
X11767872Y-14536484D01*
X11767872Y-14536484D02*
X11786920Y-14546008D01*
X11786920Y-14546008D02*
X11796444Y-14555531D01*
X11796444Y-14555531D02*
X11805968Y-14574579D01*
X11805968Y-14574579D02*
X11815491Y-14612674D01*
X11815491Y-14612674D02*
X11815491Y-14660293D01*
X11815491Y-14660293D02*
X11805968Y-14698388D01*
X11805968Y-14698388D02*
X11796444Y-14717436D01*
X11796444Y-14717436D02*
X11786920Y-14726960D01*
X11786920Y-14726960D02*
X11767872Y-14736484D01*
X11767872Y-14736484D02*
X11748825Y-14736484D01*
X11748825Y-14736484D02*
X11729777Y-14726960D01*
X11729777Y-14726960D02*
X11720253Y-14717436D01*
X11720253Y-14717436D02*
X11710729Y-14698388D01*
X11710729Y-14698388D02*
X11701206Y-14660293D01*
X11701206Y-14660293D02*
X11701206Y-14612674D01*
X11701206Y-14612674D02*
X11710729Y-14574579D01*
X11710729Y-14574579D02*
X11720253Y-14555531D01*
X11720253Y-14555531D02*
X11729777Y-14546008D01*
X11729777Y-14546008D02*
X11748825Y-14536484D01*
X12053587Y-14736484D02*
X12053587Y-14536484D01*
X12139301Y-14736484D02*
X12139301Y-14631722D01*
X12139301Y-14631722D02*
X12129777Y-14612674D01*
X12129777Y-14612674D02*
X12110730Y-14603150D01*
X12110730Y-14603150D02*
X12082158Y-14603150D01*
X12082158Y-14603150D02*
X12063110Y-14612674D01*
X12063110Y-14612674D02*
X12053587Y-14622198D01*
X12263110Y-14736484D02*
X12244063Y-14726960D01*
X12244063Y-14726960D02*
X12234539Y-14717436D01*
X12234539Y-14717436D02*
X12225015Y-14698388D01*
X12225015Y-14698388D02*
X12225015Y-14641246D01*
X12225015Y-14641246D02*
X12234539Y-14622198D01*
X12234539Y-14622198D02*
X12244063Y-14612674D01*
X12244063Y-14612674D02*
X12263110Y-14603150D01*
X12263110Y-14603150D02*
X12291682Y-14603150D01*
X12291682Y-14603150D02*
X12310730Y-14612674D01*
X12310730Y-14612674D02*
X12320253Y-14622198D01*
X12320253Y-14622198D02*
X12329777Y-14641246D01*
X12329777Y-14641246D02*
X12329777Y-14698388D01*
X12329777Y-14698388D02*
X12320253Y-14717436D01*
X12320253Y-14717436D02*
X12310730Y-14726960D01*
X12310730Y-14726960D02*
X12291682Y-14736484D01*
X12291682Y-14736484D02*
X12263110Y-14736484D01*
X12444063Y-14736484D02*
X12425015Y-14726960D01*
X12425015Y-14726960D02*
X12415491Y-14707912D01*
X12415491Y-14707912D02*
X12415491Y-14536484D01*
X12596444Y-14726960D02*
X12577396Y-14736484D01*
X12577396Y-14736484D02*
X12539301Y-14736484D01*
X12539301Y-14736484D02*
X12520253Y-14726960D01*
X12520253Y-14726960D02*
X12510730Y-14707912D01*
X12510730Y-14707912D02*
X12510730Y-14631722D01*
X12510730Y-14631722D02*
X12520253Y-14612674D01*
X12520253Y-14612674D02*
X12539301Y-14603150D01*
X12539301Y-14603150D02*
X12577396Y-14603150D01*
X12577396Y-14603150D02*
X12596444Y-14612674D01*
X12596444Y-14612674D02*
X12605968Y-14631722D01*
X12605968Y-14631722D02*
X12605968Y-14650769D01*
X12605968Y-14650769D02*
X12510730Y-14669817D01*
X12682158Y-14726960D02*
X12701206Y-14736484D01*
X12701206Y-14736484D02*
X12739301Y-14736484D01*
X12739301Y-14736484D02*
X12758349Y-14726960D01*
X12758349Y-14726960D02*
X12767872Y-14707912D01*
X12767872Y-14707912D02*
X12767872Y-14698388D01*
X12767872Y-14698388D02*
X12758349Y-14679341D01*
X12758349Y-14679341D02*
X12739301Y-14669817D01*
X12739301Y-14669817D02*
X12710730Y-14669817D01*
X12710730Y-14669817D02*
X12691682Y-14660293D01*
X12691682Y-14660293D02*
X12682158Y-14641246D01*
X12682158Y-14641246D02*
X12682158Y-14631722D01*
X12682158Y-14631722D02*
X12691682Y-14612674D01*
X12691682Y-14612674D02*
X12710730Y-14603150D01*
X12710730Y-14603150D02*
X12739301Y-14603150D01*
X12739301Y-14603150D02*
X12758349Y-14612674D01*
X12834539Y-14812674D02*
X12844063Y-14803150D01*
X12844063Y-14803150D02*
X12863111Y-14774579D01*
X12863111Y-14774579D02*
X12872634Y-14755531D01*
X12872634Y-14755531D02*
X12882158Y-14726960D01*
X12882158Y-14726960D02*
X12891682Y-14679341D01*
X12891682Y-14679341D02*
X12891682Y-14641246D01*
X12891682Y-14641246D02*
X12882158Y-14593627D01*
X12882158Y-14593627D02*
X12872634Y-14565055D01*
X12872634Y-14565055D02*
X12863111Y-14546008D01*
X12863111Y-14546008D02*
X12844063Y-14517436D01*
X12844063Y-14517436D02*
X12834539Y-14507912D01*
D10*
X7821500Y-14956500D02*
X7869000Y-14909000D01*
X7821500Y-14861500D01*
X7774000Y-14909000D01*
X7821500Y-14956500D01*
D11*
X8167872Y-14800484D02*
X8186920Y-14800484D01*
X8186920Y-14800484D02*
X8205967Y-14810008D01*
X8205967Y-14810008D02*
X8215491Y-14819531D01*
X8215491Y-14819531D02*
X8225015Y-14838579D01*
X8225015Y-14838579D02*
X8234539Y-14876674D01*
X8234539Y-14876674D02*
X8234539Y-14924293D01*
X8234539Y-14924293D02*
X8225015Y-14962388D01*
X8225015Y-14962388D02*
X8215491Y-14981436D01*
X8215491Y-14981436D02*
X8205967Y-14990960D01*
X8205967Y-14990960D02*
X8186920Y-15000484D01*
X8186920Y-15000484D02*
X8167872Y-15000484D01*
X8167872Y-15000484D02*
X8148824Y-14990960D01*
X8148824Y-14990960D02*
X8139301Y-14981436D01*
X8139301Y-14981436D02*
X8129777Y-14962388D01*
X8129777Y-14962388D02*
X8120253Y-14924293D01*
X8120253Y-14924293D02*
X8120253Y-14876674D01*
X8120253Y-14876674D02*
X8129777Y-14838579D01*
X8129777Y-14838579D02*
X8139301Y-14819531D01*
X8139301Y-14819531D02*
X8148824Y-14810008D01*
X8148824Y-14810008D02*
X8167872Y-14800484D01*
X8320253Y-14981436D02*
X8329777Y-14990960D01*
X8329777Y-14990960D02*
X8320253Y-15000484D01*
X8320253Y-15000484D02*
X8310729Y-14990960D01*
X8310729Y-14990960D02*
X8320253Y-14981436D01*
X8320253Y-14981436D02*
X8320253Y-15000484D01*
X8425015Y-15000484D02*
X8463110Y-15000484D01*
X8463110Y-15000484D02*
X8482158Y-14990960D01*
X8482158Y-14990960D02*
X8491682Y-14981436D01*
X8491682Y-14981436D02*
X8510729Y-14952865D01*
X8510729Y-14952865D02*
X8520253Y-14914769D01*
X8520253Y-14914769D02*
X8520253Y-14838579D01*
X8520253Y-14838579D02*
X8510729Y-14819531D01*
X8510729Y-14819531D02*
X8501205Y-14810008D01*
X8501205Y-14810008D02*
X8482158Y-14800484D01*
X8482158Y-14800484D02*
X8444063Y-14800484D01*
X8444063Y-14800484D02*
X8425015Y-14810008D01*
X8425015Y-14810008D02*
X8415491Y-14819531D01*
X8415491Y-14819531D02*
X8405967Y-14838579D01*
X8405967Y-14838579D02*
X8405967Y-14886198D01*
X8405967Y-14886198D02*
X8415491Y-14905246D01*
X8415491Y-14905246D02*
X8425015Y-14914769D01*
X8425015Y-14914769D02*
X8444063Y-14924293D01*
X8444063Y-14924293D02*
X8482158Y-14924293D01*
X8482158Y-14924293D02*
X8501205Y-14914769D01*
X8501205Y-14914769D02*
X8510729Y-14905246D01*
X8510729Y-14905246D02*
X8520253Y-14886198D01*
X8701205Y-14800484D02*
X8605967Y-14800484D01*
X8605967Y-14800484D02*
X8596444Y-14895722D01*
X8596444Y-14895722D02*
X8605967Y-14886198D01*
X8605967Y-14886198D02*
X8625015Y-14876674D01*
X8625015Y-14876674D02*
X8672634Y-14876674D01*
X8672634Y-14876674D02*
X8691682Y-14886198D01*
X8691682Y-14886198D02*
X8701205Y-14895722D01*
X8701205Y-14895722D02*
X8710729Y-14914769D01*
X8710729Y-14914769D02*
X8710729Y-14962388D01*
X8710729Y-14962388D02*
X8701205Y-14981436D01*
X8701205Y-14981436D02*
X8691682Y-14990960D01*
X8691682Y-14990960D02*
X8672634Y-15000484D01*
X8672634Y-15000484D02*
X8625015Y-15000484D01*
X8625015Y-15000484D02*
X8605967Y-14990960D01*
X8605967Y-14990960D02*
X8596444Y-14981436D01*
X8834539Y-14800484D02*
X8853586Y-14800484D01*
X8853586Y-14800484D02*
X8872634Y-14810008D01*
X8872634Y-14810008D02*
X8882158Y-14819531D01*
X8882158Y-14819531D02*
X8891682Y-14838579D01*
X8891682Y-14838579D02*
X8901205Y-14876674D01*
X8901205Y-14876674D02*
X8901205Y-14924293D01*
X8901205Y-14924293D02*
X8891682Y-14962388D01*
X8891682Y-14962388D02*
X8882158Y-14981436D01*
X8882158Y-14981436D02*
X8872634Y-14990960D01*
X8872634Y-14990960D02*
X8853586Y-15000484D01*
X8853586Y-15000484D02*
X8834539Y-15000484D01*
X8834539Y-15000484D02*
X8815491Y-14990960D01*
X8815491Y-14990960D02*
X8805967Y-14981436D01*
X8805967Y-14981436D02*
X8796444Y-14962388D01*
X8796444Y-14962388D02*
X8786920Y-14924293D01*
X8786920Y-14924293D02*
X8786920Y-14876674D01*
X8786920Y-14876674D02*
X8796444Y-14838579D01*
X8796444Y-14838579D02*
X8805967Y-14819531D01*
X8805967Y-14819531D02*
X8815491Y-14810008D01*
X8815491Y-14810008D02*
X8834539Y-14800484D01*
X8986920Y-15000484D02*
X8986920Y-14867150D01*
X8986920Y-14886198D02*
X8996444Y-14876674D01*
X8996444Y-14876674D02*
X9015491Y-14867150D01*
X9015491Y-14867150D02*
X9044063Y-14867150D01*
X9044063Y-14867150D02*
X9063110Y-14876674D01*
X9063110Y-14876674D02*
X9072634Y-14895722D01*
X9072634Y-14895722D02*
X9072634Y-15000484D01*
X9072634Y-14895722D02*
X9082158Y-14876674D01*
X9082158Y-14876674D02*
X9101205Y-14867150D01*
X9101205Y-14867150D02*
X9129777Y-14867150D01*
X9129777Y-14867150D02*
X9148825Y-14876674D01*
X9148825Y-14876674D02*
X9158348Y-14895722D01*
X9158348Y-14895722D02*
X9158348Y-15000484D01*
X9253586Y-15000484D02*
X9253586Y-14867150D01*
X9253586Y-14886198D02*
X9263110Y-14876674D01*
X9263110Y-14876674D02*
X9282158Y-14867150D01*
X9282158Y-14867150D02*
X9310729Y-14867150D01*
X9310729Y-14867150D02*
X9329777Y-14876674D01*
X9329777Y-14876674D02*
X9339301Y-14895722D01*
X9339301Y-14895722D02*
X9339301Y-15000484D01*
X9339301Y-14895722D02*
X9348825Y-14876674D01*
X9348825Y-14876674D02*
X9367872Y-14867150D01*
X9367872Y-14867150D02*
X9396444Y-14867150D01*
X9396444Y-14867150D02*
X9415491Y-14876674D01*
X9415491Y-14876674D02*
X9425015Y-14895722D01*
X9425015Y-14895722D02*
X9425015Y-15000484D01*
X9815491Y-14790960D02*
X9644063Y-15048103D01*
X10072634Y-14800484D02*
X10091682Y-14800484D01*
X10091682Y-14800484D02*
X10110729Y-14810008D01*
X10110729Y-14810008D02*
X10120253Y-14819531D01*
X10120253Y-14819531D02*
X10129777Y-14838579D01*
X10129777Y-14838579D02*
X10139301Y-14876674D01*
X10139301Y-14876674D02*
X10139301Y-14924293D01*
X10139301Y-14924293D02*
X10129777Y-14962388D01*
X10129777Y-14962388D02*
X10120253Y-14981436D01*
X10120253Y-14981436D02*
X10110729Y-14990960D01*
X10110729Y-14990960D02*
X10091682Y-15000484D01*
X10091682Y-15000484D02*
X10072634Y-15000484D01*
X10072634Y-15000484D02*
X10053587Y-14990960D01*
X10053587Y-14990960D02*
X10044063Y-14981436D01*
X10044063Y-14981436D02*
X10034539Y-14962388D01*
X10034539Y-14962388D02*
X10025015Y-14924293D01*
X10025015Y-14924293D02*
X10025015Y-14876674D01*
X10025015Y-14876674D02*
X10034539Y-14838579D01*
X10034539Y-14838579D02*
X10044063Y-14819531D01*
X10044063Y-14819531D02*
X10053587Y-14810008D01*
X10053587Y-14810008D02*
X10072634Y-14800484D01*
X10225015Y-14981436D02*
X10234539Y-14990960D01*
X10234539Y-14990960D02*
X10225015Y-15000484D01*
X10225015Y-15000484D02*
X10215491Y-14990960D01*
X10215491Y-14990960D02*
X10225015Y-14981436D01*
X10225015Y-14981436D02*
X10225015Y-15000484D01*
X10358348Y-14800484D02*
X10377396Y-14800484D01*
X10377396Y-14800484D02*
X10396444Y-14810008D01*
X10396444Y-14810008D02*
X10405968Y-14819531D01*
X10405968Y-14819531D02*
X10415491Y-14838579D01*
X10415491Y-14838579D02*
X10425015Y-14876674D01*
X10425015Y-14876674D02*
X10425015Y-14924293D01*
X10425015Y-14924293D02*
X10415491Y-14962388D01*
X10415491Y-14962388D02*
X10405968Y-14981436D01*
X10405968Y-14981436D02*
X10396444Y-14990960D01*
X10396444Y-14990960D02*
X10377396Y-15000484D01*
X10377396Y-15000484D02*
X10358348Y-15000484D01*
X10358348Y-15000484D02*
X10339301Y-14990960D01*
X10339301Y-14990960D02*
X10329777Y-14981436D01*
X10329777Y-14981436D02*
X10320253Y-14962388D01*
X10320253Y-14962388D02*
X10310729Y-14924293D01*
X10310729Y-14924293D02*
X10310729Y-14876674D01*
X10310729Y-14876674D02*
X10320253Y-14838579D01*
X10320253Y-14838579D02*
X10329777Y-14819531D01*
X10329777Y-14819531D02*
X10339301Y-14810008D01*
X10339301Y-14810008D02*
X10358348Y-14800484D01*
X10491682Y-14800484D02*
X10615491Y-14800484D01*
X10615491Y-14800484D02*
X10548825Y-14876674D01*
X10548825Y-14876674D02*
X10577396Y-14876674D01*
X10577396Y-14876674D02*
X10596444Y-14886198D01*
X10596444Y-14886198D02*
X10605968Y-14895722D01*
X10605968Y-14895722D02*
X10615491Y-14914769D01*
X10615491Y-14914769D02*
X10615491Y-14962388D01*
X10615491Y-14962388D02*
X10605968Y-14981436D01*
X10605968Y-14981436D02*
X10596444Y-14990960D01*
X10596444Y-14990960D02*
X10577396Y-15000484D01*
X10577396Y-15000484D02*
X10520253Y-15000484D01*
X10520253Y-15000484D02*
X10501206Y-14990960D01*
X10501206Y-14990960D02*
X10491682Y-14981436D01*
X10682158Y-14800484D02*
X10815491Y-14800484D01*
X10815491Y-14800484D02*
X10729777Y-15000484D01*
X10977396Y-14867150D02*
X10977396Y-15000484D01*
X10929777Y-14790960D02*
X10882158Y-14933817D01*
X10882158Y-14933817D02*
X11005968Y-14933817D01*
X11072634Y-14800484D02*
X11072634Y-14838579D01*
X11148825Y-14800484D02*
X11148825Y-14838579D01*
X11444063Y-15076674D02*
X11434539Y-15067150D01*
X11434539Y-15067150D02*
X11415491Y-15038579D01*
X11415491Y-15038579D02*
X11405968Y-15019531D01*
X11405968Y-15019531D02*
X11396444Y-14990960D01*
X11396444Y-14990960D02*
X11386920Y-14943341D01*
X11386920Y-14943341D02*
X11386920Y-14905246D01*
X11386920Y-14905246D02*
X11396444Y-14857627D01*
X11396444Y-14857627D02*
X11405968Y-14829055D01*
X11405968Y-14829055D02*
X11415491Y-14810008D01*
X11415491Y-14810008D02*
X11434539Y-14781436D01*
X11434539Y-14781436D02*
X11444063Y-14771912D01*
X11625015Y-15000484D02*
X11510729Y-15000484D01*
X11567872Y-15000484D02*
X11567872Y-14800484D01*
X11567872Y-14800484D02*
X11548825Y-14829055D01*
X11548825Y-14829055D02*
X11529777Y-14848103D01*
X11529777Y-14848103D02*
X11510729Y-14857627D01*
X11805968Y-14800484D02*
X11710729Y-14800484D01*
X11710729Y-14800484D02*
X11701206Y-14895722D01*
X11701206Y-14895722D02*
X11710729Y-14886198D01*
X11710729Y-14886198D02*
X11729777Y-14876674D01*
X11729777Y-14876674D02*
X11777396Y-14876674D01*
X11777396Y-14876674D02*
X11796444Y-14886198D01*
X11796444Y-14886198D02*
X11805968Y-14895722D01*
X11805968Y-14895722D02*
X11815491Y-14914769D01*
X11815491Y-14914769D02*
X11815491Y-14962388D01*
X11815491Y-14962388D02*
X11805968Y-14981436D01*
X11805968Y-14981436D02*
X11796444Y-14990960D01*
X11796444Y-14990960D02*
X11777396Y-15000484D01*
X11777396Y-15000484D02*
X11729777Y-15000484D01*
X11729777Y-15000484D02*
X11710729Y-14990960D01*
X11710729Y-14990960D02*
X11701206Y-14981436D01*
X12053587Y-15000484D02*
X12053587Y-14800484D01*
X12139301Y-15000484D02*
X12139301Y-14895722D01*
X12139301Y-14895722D02*
X12129777Y-14876674D01*
X12129777Y-14876674D02*
X12110730Y-14867150D01*
X12110730Y-14867150D02*
X12082158Y-14867150D01*
X12082158Y-14867150D02*
X12063110Y-14876674D01*
X12063110Y-14876674D02*
X12053587Y-14886198D01*
X12263110Y-15000484D02*
X12244063Y-14990960D01*
X12244063Y-14990960D02*
X12234539Y-14981436D01*
X12234539Y-14981436D02*
X12225015Y-14962388D01*
X12225015Y-14962388D02*
X12225015Y-14905246D01*
X12225015Y-14905246D02*
X12234539Y-14886198D01*
X12234539Y-14886198D02*
X12244063Y-14876674D01*
X12244063Y-14876674D02*
X12263110Y-14867150D01*
X12263110Y-14867150D02*
X12291682Y-14867150D01*
X12291682Y-14867150D02*
X12310730Y-14876674D01*
X12310730Y-14876674D02*
X12320253Y-14886198D01*
X12320253Y-14886198D02*
X12329777Y-14905246D01*
X12329777Y-14905246D02*
X12329777Y-14962388D01*
X12329777Y-14962388D02*
X12320253Y-14981436D01*
X12320253Y-14981436D02*
X12310730Y-14990960D01*
X12310730Y-14990960D02*
X12291682Y-15000484D01*
X12291682Y-15000484D02*
X12263110Y-15000484D01*
X12444063Y-15000484D02*
X12425015Y-14990960D01*
X12425015Y-14990960D02*
X12415491Y-14971912D01*
X12415491Y-14971912D02*
X12415491Y-14800484D01*
X12596444Y-14990960D02*
X12577396Y-15000484D01*
X12577396Y-15000484D02*
X12539301Y-15000484D01*
X12539301Y-15000484D02*
X12520253Y-14990960D01*
X12520253Y-14990960D02*
X12510730Y-14971912D01*
X12510730Y-14971912D02*
X12510730Y-14895722D01*
X12510730Y-14895722D02*
X12520253Y-14876674D01*
X12520253Y-14876674D02*
X12539301Y-14867150D01*
X12539301Y-14867150D02*
X12577396Y-14867150D01*
X12577396Y-14867150D02*
X12596444Y-14876674D01*
X12596444Y-14876674D02*
X12605968Y-14895722D01*
X12605968Y-14895722D02*
X12605968Y-14914769D01*
X12605968Y-14914769D02*
X12510730Y-14933817D01*
X12682158Y-14990960D02*
X12701206Y-15000484D01*
X12701206Y-15000484D02*
X12739301Y-15000484D01*
X12739301Y-15000484D02*
X12758349Y-14990960D01*
X12758349Y-14990960D02*
X12767872Y-14971912D01*
X12767872Y-14971912D02*
X12767872Y-14962388D01*
X12767872Y-14962388D02*
X12758349Y-14943341D01*
X12758349Y-14943341D02*
X12739301Y-14933817D01*
X12739301Y-14933817D02*
X12710730Y-14933817D01*
X12710730Y-14933817D02*
X12691682Y-14924293D01*
X12691682Y-14924293D02*
X12682158Y-14905246D01*
X12682158Y-14905246D02*
X12682158Y-14895722D01*
X12682158Y-14895722D02*
X12691682Y-14876674D01*
X12691682Y-14876674D02*
X12710730Y-14867150D01*
X12710730Y-14867150D02*
X12739301Y-14867150D01*
X12739301Y-14867150D02*
X12758349Y-14876674D01*
X12834539Y-15076674D02*
X12844063Y-15067150D01*
X12844063Y-15067150D02*
X12863111Y-15038579D01*
X12863111Y-15038579D02*
X12872634Y-15019531D01*
X12872634Y-15019531D02*
X12882158Y-14990960D01*
X12882158Y-14990960D02*
X12891682Y-14943341D01*
X12891682Y-14943341D02*
X12891682Y-14905246D01*
X12891682Y-14905246D02*
X12882158Y-14857627D01*
X12882158Y-14857627D02*
X12872634Y-14829055D01*
X12872634Y-14829055D02*
X12863111Y-14810008D01*
X12863111Y-14810008D02*
X12844063Y-14781436D01*
X12844063Y-14781436D02*
X12834539Y-14771912D01*
D10*
X7769000Y-15123000D02*
X7869000Y-15223000D01*
X7869000Y-15123000D02*
X7769000Y-15223000D01*
X7869000Y-15173000D02*
G75*
G02*
X7769000Y-15173000I-50000J0D01*
G01*
X7769000Y-15173000D02*
G75*
G02*
X7869000Y-15173000I50000J0D01*
G01*
D11*
X8234539Y-15264484D02*
X8120253Y-15264484D01*
X8177396Y-15264484D02*
X8177396Y-15064484D01*
X8177396Y-15064484D02*
X8158348Y-15093055D01*
X8158348Y-15093055D02*
X8139301Y-15112103D01*
X8139301Y-15112103D02*
X8120253Y-15121627D01*
X8320253Y-15245436D02*
X8329777Y-15254960D01*
X8329777Y-15254960D02*
X8320253Y-15264484D01*
X8320253Y-15264484D02*
X8310729Y-15254960D01*
X8310729Y-15254960D02*
X8320253Y-15245436D01*
X8320253Y-15245436D02*
X8320253Y-15264484D01*
X8453586Y-15064484D02*
X8472634Y-15064484D01*
X8472634Y-15064484D02*
X8491682Y-15074008D01*
X8491682Y-15074008D02*
X8501205Y-15083531D01*
X8501205Y-15083531D02*
X8510729Y-15102579D01*
X8510729Y-15102579D02*
X8520253Y-15140674D01*
X8520253Y-15140674D02*
X8520253Y-15188293D01*
X8520253Y-15188293D02*
X8510729Y-15226388D01*
X8510729Y-15226388D02*
X8501205Y-15245436D01*
X8501205Y-15245436D02*
X8491682Y-15254960D01*
X8491682Y-15254960D02*
X8472634Y-15264484D01*
X8472634Y-15264484D02*
X8453586Y-15264484D01*
X8453586Y-15264484D02*
X8434539Y-15254960D01*
X8434539Y-15254960D02*
X8425015Y-15245436D01*
X8425015Y-15245436D02*
X8415491Y-15226388D01*
X8415491Y-15226388D02*
X8405967Y-15188293D01*
X8405967Y-15188293D02*
X8405967Y-15140674D01*
X8405967Y-15140674D02*
X8415491Y-15102579D01*
X8415491Y-15102579D02*
X8425015Y-15083531D01*
X8425015Y-15083531D02*
X8434539Y-15074008D01*
X8434539Y-15074008D02*
X8453586Y-15064484D01*
X8644063Y-15064484D02*
X8663110Y-15064484D01*
X8663110Y-15064484D02*
X8682158Y-15074008D01*
X8682158Y-15074008D02*
X8691682Y-15083531D01*
X8691682Y-15083531D02*
X8701205Y-15102579D01*
X8701205Y-15102579D02*
X8710729Y-15140674D01*
X8710729Y-15140674D02*
X8710729Y-15188293D01*
X8710729Y-15188293D02*
X8701205Y-15226388D01*
X8701205Y-15226388D02*
X8691682Y-15245436D01*
X8691682Y-15245436D02*
X8682158Y-15254960D01*
X8682158Y-15254960D02*
X8663110Y-15264484D01*
X8663110Y-15264484D02*
X8644063Y-15264484D01*
X8644063Y-15264484D02*
X8625015Y-15254960D01*
X8625015Y-15254960D02*
X8615491Y-15245436D01*
X8615491Y-15245436D02*
X8605967Y-15226388D01*
X8605967Y-15226388D02*
X8596444Y-15188293D01*
X8596444Y-15188293D02*
X8596444Y-15140674D01*
X8596444Y-15140674D02*
X8605967Y-15102579D01*
X8605967Y-15102579D02*
X8615491Y-15083531D01*
X8615491Y-15083531D02*
X8625015Y-15074008D01*
X8625015Y-15074008D02*
X8644063Y-15064484D01*
X8834539Y-15064484D02*
X8853586Y-15064484D01*
X8853586Y-15064484D02*
X8872634Y-15074008D01*
X8872634Y-15074008D02*
X8882158Y-15083531D01*
X8882158Y-15083531D02*
X8891682Y-15102579D01*
X8891682Y-15102579D02*
X8901205Y-15140674D01*
X8901205Y-15140674D02*
X8901205Y-15188293D01*
X8901205Y-15188293D02*
X8891682Y-15226388D01*
X8891682Y-15226388D02*
X8882158Y-15245436D01*
X8882158Y-15245436D02*
X8872634Y-15254960D01*
X8872634Y-15254960D02*
X8853586Y-15264484D01*
X8853586Y-15264484D02*
X8834539Y-15264484D01*
X8834539Y-15264484D02*
X8815491Y-15254960D01*
X8815491Y-15254960D02*
X8805967Y-15245436D01*
X8805967Y-15245436D02*
X8796444Y-15226388D01*
X8796444Y-15226388D02*
X8786920Y-15188293D01*
X8786920Y-15188293D02*
X8786920Y-15140674D01*
X8786920Y-15140674D02*
X8796444Y-15102579D01*
X8796444Y-15102579D02*
X8805967Y-15083531D01*
X8805967Y-15083531D02*
X8815491Y-15074008D01*
X8815491Y-15074008D02*
X8834539Y-15064484D01*
X8986920Y-15264484D02*
X8986920Y-15131150D01*
X8986920Y-15150198D02*
X8996444Y-15140674D01*
X8996444Y-15140674D02*
X9015491Y-15131150D01*
X9015491Y-15131150D02*
X9044063Y-15131150D01*
X9044063Y-15131150D02*
X9063110Y-15140674D01*
X9063110Y-15140674D02*
X9072634Y-15159722D01*
X9072634Y-15159722D02*
X9072634Y-15264484D01*
X9072634Y-15159722D02*
X9082158Y-15140674D01*
X9082158Y-15140674D02*
X9101205Y-15131150D01*
X9101205Y-15131150D02*
X9129777Y-15131150D01*
X9129777Y-15131150D02*
X9148825Y-15140674D01*
X9148825Y-15140674D02*
X9158348Y-15159722D01*
X9158348Y-15159722D02*
X9158348Y-15264484D01*
X9253586Y-15264484D02*
X9253586Y-15131150D01*
X9253586Y-15150198D02*
X9263110Y-15140674D01*
X9263110Y-15140674D02*
X9282158Y-15131150D01*
X9282158Y-15131150D02*
X9310729Y-15131150D01*
X9310729Y-15131150D02*
X9329777Y-15140674D01*
X9329777Y-15140674D02*
X9339301Y-15159722D01*
X9339301Y-15159722D02*
X9339301Y-15264484D01*
X9339301Y-15159722D02*
X9348825Y-15140674D01*
X9348825Y-15140674D02*
X9367872Y-15131150D01*
X9367872Y-15131150D02*
X9396444Y-15131150D01*
X9396444Y-15131150D02*
X9415491Y-15140674D01*
X9415491Y-15140674D02*
X9425015Y-15159722D01*
X9425015Y-15159722D02*
X9425015Y-15264484D01*
X9815491Y-15054960D02*
X9644063Y-15312103D01*
X10072634Y-15064484D02*
X10091682Y-15064484D01*
X10091682Y-15064484D02*
X10110729Y-15074008D01*
X10110729Y-15074008D02*
X10120253Y-15083531D01*
X10120253Y-15083531D02*
X10129777Y-15102579D01*
X10129777Y-15102579D02*
X10139301Y-15140674D01*
X10139301Y-15140674D02*
X10139301Y-15188293D01*
X10139301Y-15188293D02*
X10129777Y-15226388D01*
X10129777Y-15226388D02*
X10120253Y-15245436D01*
X10120253Y-15245436D02*
X10110729Y-15254960D01*
X10110729Y-15254960D02*
X10091682Y-15264484D01*
X10091682Y-15264484D02*
X10072634Y-15264484D01*
X10072634Y-15264484D02*
X10053587Y-15254960D01*
X10053587Y-15254960D02*
X10044063Y-15245436D01*
X10044063Y-15245436D02*
X10034539Y-15226388D01*
X10034539Y-15226388D02*
X10025015Y-15188293D01*
X10025015Y-15188293D02*
X10025015Y-15140674D01*
X10025015Y-15140674D02*
X10034539Y-15102579D01*
X10034539Y-15102579D02*
X10044063Y-15083531D01*
X10044063Y-15083531D02*
X10053587Y-15074008D01*
X10053587Y-15074008D02*
X10072634Y-15064484D01*
X10225015Y-15245436D02*
X10234539Y-15254960D01*
X10234539Y-15254960D02*
X10225015Y-15264484D01*
X10225015Y-15264484D02*
X10215491Y-15254960D01*
X10215491Y-15254960D02*
X10225015Y-15245436D01*
X10225015Y-15245436D02*
X10225015Y-15264484D01*
X10358348Y-15064484D02*
X10377396Y-15064484D01*
X10377396Y-15064484D02*
X10396444Y-15074008D01*
X10396444Y-15074008D02*
X10405968Y-15083531D01*
X10405968Y-15083531D02*
X10415491Y-15102579D01*
X10415491Y-15102579D02*
X10425015Y-15140674D01*
X10425015Y-15140674D02*
X10425015Y-15188293D01*
X10425015Y-15188293D02*
X10415491Y-15226388D01*
X10415491Y-15226388D02*
X10405968Y-15245436D01*
X10405968Y-15245436D02*
X10396444Y-15254960D01*
X10396444Y-15254960D02*
X10377396Y-15264484D01*
X10377396Y-15264484D02*
X10358348Y-15264484D01*
X10358348Y-15264484D02*
X10339301Y-15254960D01*
X10339301Y-15254960D02*
X10329777Y-15245436D01*
X10329777Y-15245436D02*
X10320253Y-15226388D01*
X10320253Y-15226388D02*
X10310729Y-15188293D01*
X10310729Y-15188293D02*
X10310729Y-15140674D01*
X10310729Y-15140674D02*
X10320253Y-15102579D01*
X10320253Y-15102579D02*
X10329777Y-15083531D01*
X10329777Y-15083531D02*
X10339301Y-15074008D01*
X10339301Y-15074008D02*
X10358348Y-15064484D01*
X10491682Y-15064484D02*
X10615491Y-15064484D01*
X10615491Y-15064484D02*
X10548825Y-15140674D01*
X10548825Y-15140674D02*
X10577396Y-15140674D01*
X10577396Y-15140674D02*
X10596444Y-15150198D01*
X10596444Y-15150198D02*
X10605968Y-15159722D01*
X10605968Y-15159722D02*
X10615491Y-15178769D01*
X10615491Y-15178769D02*
X10615491Y-15226388D01*
X10615491Y-15226388D02*
X10605968Y-15245436D01*
X10605968Y-15245436D02*
X10596444Y-15254960D01*
X10596444Y-15254960D02*
X10577396Y-15264484D01*
X10577396Y-15264484D02*
X10520253Y-15264484D01*
X10520253Y-15264484D02*
X10501206Y-15254960D01*
X10501206Y-15254960D02*
X10491682Y-15245436D01*
X10710729Y-15264484D02*
X10748825Y-15264484D01*
X10748825Y-15264484D02*
X10767872Y-15254960D01*
X10767872Y-15254960D02*
X10777396Y-15245436D01*
X10777396Y-15245436D02*
X10796444Y-15216865D01*
X10796444Y-15216865D02*
X10805968Y-15178769D01*
X10805968Y-15178769D02*
X10805968Y-15102579D01*
X10805968Y-15102579D02*
X10796444Y-15083531D01*
X10796444Y-15083531D02*
X10786920Y-15074008D01*
X10786920Y-15074008D02*
X10767872Y-15064484D01*
X10767872Y-15064484D02*
X10729777Y-15064484D01*
X10729777Y-15064484D02*
X10710729Y-15074008D01*
X10710729Y-15074008D02*
X10701206Y-15083531D01*
X10701206Y-15083531D02*
X10691682Y-15102579D01*
X10691682Y-15102579D02*
X10691682Y-15150198D01*
X10691682Y-15150198D02*
X10701206Y-15169246D01*
X10701206Y-15169246D02*
X10710729Y-15178769D01*
X10710729Y-15178769D02*
X10729777Y-15188293D01*
X10729777Y-15188293D02*
X10767872Y-15188293D01*
X10767872Y-15188293D02*
X10786920Y-15178769D01*
X10786920Y-15178769D02*
X10796444Y-15169246D01*
X10796444Y-15169246D02*
X10805968Y-15150198D01*
X10977396Y-15131150D02*
X10977396Y-15264484D01*
X10929777Y-15054960D02*
X10882158Y-15197817D01*
X10882158Y-15197817D02*
X11005968Y-15197817D01*
X11072634Y-15064484D02*
X11072634Y-15102579D01*
X11148825Y-15064484D02*
X11148825Y-15102579D01*
X11444063Y-15340674D02*
X11434539Y-15331150D01*
X11434539Y-15331150D02*
X11415491Y-15302579D01*
X11415491Y-15302579D02*
X11405968Y-15283531D01*
X11405968Y-15283531D02*
X11396444Y-15254960D01*
X11396444Y-15254960D02*
X11386920Y-15207341D01*
X11386920Y-15207341D02*
X11386920Y-15169246D01*
X11386920Y-15169246D02*
X11396444Y-15121627D01*
X11396444Y-15121627D02*
X11405968Y-15093055D01*
X11405968Y-15093055D02*
X11415491Y-15074008D01*
X11415491Y-15074008D02*
X11434539Y-15045436D01*
X11434539Y-15045436D02*
X11444063Y-15035912D01*
X11510729Y-15083531D02*
X11520253Y-15074008D01*
X11520253Y-15074008D02*
X11539301Y-15064484D01*
X11539301Y-15064484D02*
X11586920Y-15064484D01*
X11586920Y-15064484D02*
X11605968Y-15074008D01*
X11605968Y-15074008D02*
X11615491Y-15083531D01*
X11615491Y-15083531D02*
X11625015Y-15102579D01*
X11625015Y-15102579D02*
X11625015Y-15121627D01*
X11625015Y-15121627D02*
X11615491Y-15150198D01*
X11615491Y-15150198D02*
X11501206Y-15264484D01*
X11501206Y-15264484D02*
X11625015Y-15264484D01*
X11796444Y-15131150D02*
X11796444Y-15264484D01*
X11748825Y-15054960D02*
X11701206Y-15197817D01*
X11701206Y-15197817D02*
X11825015Y-15197817D01*
X12053587Y-15264484D02*
X12053587Y-15064484D01*
X12139301Y-15264484D02*
X12139301Y-15159722D01*
X12139301Y-15159722D02*
X12129777Y-15140674D01*
X12129777Y-15140674D02*
X12110730Y-15131150D01*
X12110730Y-15131150D02*
X12082158Y-15131150D01*
X12082158Y-15131150D02*
X12063110Y-15140674D01*
X12063110Y-15140674D02*
X12053587Y-15150198D01*
X12263110Y-15264484D02*
X12244063Y-15254960D01*
X12244063Y-15254960D02*
X12234539Y-15245436D01*
X12234539Y-15245436D02*
X12225015Y-15226388D01*
X12225015Y-15226388D02*
X12225015Y-15169246D01*
X12225015Y-15169246D02*
X12234539Y-15150198D01*
X12234539Y-15150198D02*
X12244063Y-15140674D01*
X12244063Y-15140674D02*
X12263110Y-15131150D01*
X12263110Y-15131150D02*
X12291682Y-15131150D01*
X12291682Y-15131150D02*
X12310730Y-15140674D01*
X12310730Y-15140674D02*
X12320253Y-15150198D01*
X12320253Y-15150198D02*
X12329777Y-15169246D01*
X12329777Y-15169246D02*
X12329777Y-15226388D01*
X12329777Y-15226388D02*
X12320253Y-15245436D01*
X12320253Y-15245436D02*
X12310730Y-15254960D01*
X12310730Y-15254960D02*
X12291682Y-15264484D01*
X12291682Y-15264484D02*
X12263110Y-15264484D01*
X12444063Y-15264484D02*
X12425015Y-15254960D01*
X12425015Y-15254960D02*
X12415491Y-15235912D01*
X12415491Y-15235912D02*
X12415491Y-15064484D01*
X12596444Y-15254960D02*
X12577396Y-15264484D01*
X12577396Y-15264484D02*
X12539301Y-15264484D01*
X12539301Y-15264484D02*
X12520253Y-15254960D01*
X12520253Y-15254960D02*
X12510730Y-15235912D01*
X12510730Y-15235912D02*
X12510730Y-15159722D01*
X12510730Y-15159722D02*
X12520253Y-15140674D01*
X12520253Y-15140674D02*
X12539301Y-15131150D01*
X12539301Y-15131150D02*
X12577396Y-15131150D01*
X12577396Y-15131150D02*
X12596444Y-15140674D01*
X12596444Y-15140674D02*
X12605968Y-15159722D01*
X12605968Y-15159722D02*
X12605968Y-15178769D01*
X12605968Y-15178769D02*
X12510730Y-15197817D01*
X12682158Y-15254960D02*
X12701206Y-15264484D01*
X12701206Y-15264484D02*
X12739301Y-15264484D01*
X12739301Y-15264484D02*
X12758349Y-15254960D01*
X12758349Y-15254960D02*
X12767872Y-15235912D01*
X12767872Y-15235912D02*
X12767872Y-15226388D01*
X12767872Y-15226388D02*
X12758349Y-15207341D01*
X12758349Y-15207341D02*
X12739301Y-15197817D01*
X12739301Y-15197817D02*
X12710730Y-15197817D01*
X12710730Y-15197817D02*
X12691682Y-15188293D01*
X12691682Y-15188293D02*
X12682158Y-15169246D01*
X12682158Y-15169246D02*
X12682158Y-15159722D01*
X12682158Y-15159722D02*
X12691682Y-15140674D01*
X12691682Y-15140674D02*
X12710730Y-15131150D01*
X12710730Y-15131150D02*
X12739301Y-15131150D01*
X12739301Y-15131150D02*
X12758349Y-15140674D01*
X12834539Y-15340674D02*
X12844063Y-15331150D01*
X12844063Y-15331150D02*
X12863111Y-15302579D01*
X12863111Y-15302579D02*
X12872634Y-15283531D01*
X12872634Y-15283531D02*
X12882158Y-15254960D01*
X12882158Y-15254960D02*
X12891682Y-15207341D01*
X12891682Y-15207341D02*
X12891682Y-15169246D01*
X12891682Y-15169246D02*
X12882158Y-15121627D01*
X12882158Y-15121627D02*
X12872634Y-15093055D01*
X12872634Y-15093055D02*
X12863111Y-15074008D01*
X12863111Y-15074008D02*
X12844063Y-15045436D01*
X12844063Y-15045436D02*
X12834539Y-15035912D01*
D12*
X7759000Y-15382000D02*
X7869000Y-15492000D01*
X7869000Y-15382000D02*
X7759000Y-15492000D01*
X7814000Y-15382000D02*
X7814000Y-15492000D01*
X7759000Y-15437000D02*
X7869000Y-15437000D01*
D11*
X8234539Y-15528484D02*
X8120253Y-15528484D01*
X8177396Y-15528484D02*
X8177396Y-15328484D01*
X8177396Y-15328484D02*
X8158348Y-15357055D01*
X8158348Y-15357055D02*
X8139301Y-15376103D01*
X8139301Y-15376103D02*
X8120253Y-15385627D01*
X8320253Y-15509436D02*
X8329777Y-15518960D01*
X8329777Y-15518960D02*
X8320253Y-15528484D01*
X8320253Y-15528484D02*
X8310729Y-15518960D01*
X8310729Y-15518960D02*
X8320253Y-15509436D01*
X8320253Y-15509436D02*
X8320253Y-15528484D01*
X8520253Y-15528484D02*
X8405967Y-15528484D01*
X8463110Y-15528484D02*
X8463110Y-15328484D01*
X8463110Y-15328484D02*
X8444063Y-15357055D01*
X8444063Y-15357055D02*
X8425015Y-15376103D01*
X8425015Y-15376103D02*
X8405967Y-15385627D01*
X8644063Y-15328484D02*
X8663110Y-15328484D01*
X8663110Y-15328484D02*
X8682158Y-15338008D01*
X8682158Y-15338008D02*
X8691682Y-15347531D01*
X8691682Y-15347531D02*
X8701205Y-15366579D01*
X8701205Y-15366579D02*
X8710729Y-15404674D01*
X8710729Y-15404674D02*
X8710729Y-15452293D01*
X8710729Y-15452293D02*
X8701205Y-15490388D01*
X8701205Y-15490388D02*
X8691682Y-15509436D01*
X8691682Y-15509436D02*
X8682158Y-15518960D01*
X8682158Y-15518960D02*
X8663110Y-15528484D01*
X8663110Y-15528484D02*
X8644063Y-15528484D01*
X8644063Y-15528484D02*
X8625015Y-15518960D01*
X8625015Y-15518960D02*
X8615491Y-15509436D01*
X8615491Y-15509436D02*
X8605967Y-15490388D01*
X8605967Y-15490388D02*
X8596444Y-15452293D01*
X8596444Y-15452293D02*
X8596444Y-15404674D01*
X8596444Y-15404674D02*
X8605967Y-15366579D01*
X8605967Y-15366579D02*
X8615491Y-15347531D01*
X8615491Y-15347531D02*
X8625015Y-15338008D01*
X8625015Y-15338008D02*
X8644063Y-15328484D01*
X8834539Y-15328484D02*
X8853586Y-15328484D01*
X8853586Y-15328484D02*
X8872634Y-15338008D01*
X8872634Y-15338008D02*
X8882158Y-15347531D01*
X8882158Y-15347531D02*
X8891682Y-15366579D01*
X8891682Y-15366579D02*
X8901205Y-15404674D01*
X8901205Y-15404674D02*
X8901205Y-15452293D01*
X8901205Y-15452293D02*
X8891682Y-15490388D01*
X8891682Y-15490388D02*
X8882158Y-15509436D01*
X8882158Y-15509436D02*
X8872634Y-15518960D01*
X8872634Y-15518960D02*
X8853586Y-15528484D01*
X8853586Y-15528484D02*
X8834539Y-15528484D01*
X8834539Y-15528484D02*
X8815491Y-15518960D01*
X8815491Y-15518960D02*
X8805967Y-15509436D01*
X8805967Y-15509436D02*
X8796444Y-15490388D01*
X8796444Y-15490388D02*
X8786920Y-15452293D01*
X8786920Y-15452293D02*
X8786920Y-15404674D01*
X8786920Y-15404674D02*
X8796444Y-15366579D01*
X8796444Y-15366579D02*
X8805967Y-15347531D01*
X8805967Y-15347531D02*
X8815491Y-15338008D01*
X8815491Y-15338008D02*
X8834539Y-15328484D01*
X8986920Y-15528484D02*
X8986920Y-15395150D01*
X8986920Y-15414198D02*
X8996444Y-15404674D01*
X8996444Y-15404674D02*
X9015491Y-15395150D01*
X9015491Y-15395150D02*
X9044063Y-15395150D01*
X9044063Y-15395150D02*
X9063110Y-15404674D01*
X9063110Y-15404674D02*
X9072634Y-15423722D01*
X9072634Y-15423722D02*
X9072634Y-15528484D01*
X9072634Y-15423722D02*
X9082158Y-15404674D01*
X9082158Y-15404674D02*
X9101205Y-15395150D01*
X9101205Y-15395150D02*
X9129777Y-15395150D01*
X9129777Y-15395150D02*
X9148825Y-15404674D01*
X9148825Y-15404674D02*
X9158348Y-15423722D01*
X9158348Y-15423722D02*
X9158348Y-15528484D01*
X9253586Y-15528484D02*
X9253586Y-15395150D01*
X9253586Y-15414198D02*
X9263110Y-15404674D01*
X9263110Y-15404674D02*
X9282158Y-15395150D01*
X9282158Y-15395150D02*
X9310729Y-15395150D01*
X9310729Y-15395150D02*
X9329777Y-15404674D01*
X9329777Y-15404674D02*
X9339301Y-15423722D01*
X9339301Y-15423722D02*
X9339301Y-15528484D01*
X9339301Y-15423722D02*
X9348825Y-15404674D01*
X9348825Y-15404674D02*
X9367872Y-15395150D01*
X9367872Y-15395150D02*
X9396444Y-15395150D01*
X9396444Y-15395150D02*
X9415491Y-15404674D01*
X9415491Y-15404674D02*
X9425015Y-15423722D01*
X9425015Y-15423722D02*
X9425015Y-15528484D01*
X9815491Y-15318960D02*
X9644063Y-15576103D01*
X10072634Y-15328484D02*
X10091682Y-15328484D01*
X10091682Y-15328484D02*
X10110729Y-15338008D01*
X10110729Y-15338008D02*
X10120253Y-15347531D01*
X10120253Y-15347531D02*
X10129777Y-15366579D01*
X10129777Y-15366579D02*
X10139301Y-15404674D01*
X10139301Y-15404674D02*
X10139301Y-15452293D01*
X10139301Y-15452293D02*
X10129777Y-15490388D01*
X10129777Y-15490388D02*
X10120253Y-15509436D01*
X10120253Y-15509436D02*
X10110729Y-15518960D01*
X10110729Y-15518960D02*
X10091682Y-15528484D01*
X10091682Y-15528484D02*
X10072634Y-15528484D01*
X10072634Y-15528484D02*
X10053587Y-15518960D01*
X10053587Y-15518960D02*
X10044063Y-15509436D01*
X10044063Y-15509436D02*
X10034539Y-15490388D01*
X10034539Y-15490388D02*
X10025015Y-15452293D01*
X10025015Y-15452293D02*
X10025015Y-15404674D01*
X10025015Y-15404674D02*
X10034539Y-15366579D01*
X10034539Y-15366579D02*
X10044063Y-15347531D01*
X10044063Y-15347531D02*
X10053587Y-15338008D01*
X10053587Y-15338008D02*
X10072634Y-15328484D01*
X10225015Y-15509436D02*
X10234539Y-15518960D01*
X10234539Y-15518960D02*
X10225015Y-15528484D01*
X10225015Y-15528484D02*
X10215491Y-15518960D01*
X10215491Y-15518960D02*
X10225015Y-15509436D01*
X10225015Y-15509436D02*
X10225015Y-15528484D01*
X10358348Y-15328484D02*
X10377396Y-15328484D01*
X10377396Y-15328484D02*
X10396444Y-15338008D01*
X10396444Y-15338008D02*
X10405968Y-15347531D01*
X10405968Y-15347531D02*
X10415491Y-15366579D01*
X10415491Y-15366579D02*
X10425015Y-15404674D01*
X10425015Y-15404674D02*
X10425015Y-15452293D01*
X10425015Y-15452293D02*
X10415491Y-15490388D01*
X10415491Y-15490388D02*
X10405968Y-15509436D01*
X10405968Y-15509436D02*
X10396444Y-15518960D01*
X10396444Y-15518960D02*
X10377396Y-15528484D01*
X10377396Y-15528484D02*
X10358348Y-15528484D01*
X10358348Y-15528484D02*
X10339301Y-15518960D01*
X10339301Y-15518960D02*
X10329777Y-15509436D01*
X10329777Y-15509436D02*
X10320253Y-15490388D01*
X10320253Y-15490388D02*
X10310729Y-15452293D01*
X10310729Y-15452293D02*
X10310729Y-15404674D01*
X10310729Y-15404674D02*
X10320253Y-15366579D01*
X10320253Y-15366579D02*
X10329777Y-15347531D01*
X10329777Y-15347531D02*
X10339301Y-15338008D01*
X10339301Y-15338008D02*
X10358348Y-15328484D01*
X10596444Y-15395150D02*
X10596444Y-15528484D01*
X10548825Y-15318960D02*
X10501206Y-15461817D01*
X10501206Y-15461817D02*
X10625015Y-15461817D01*
X10682158Y-15328484D02*
X10805968Y-15328484D01*
X10805968Y-15328484D02*
X10739301Y-15404674D01*
X10739301Y-15404674D02*
X10767872Y-15404674D01*
X10767872Y-15404674D02*
X10786920Y-15414198D01*
X10786920Y-15414198D02*
X10796444Y-15423722D01*
X10796444Y-15423722D02*
X10805968Y-15442769D01*
X10805968Y-15442769D02*
X10805968Y-15490388D01*
X10805968Y-15490388D02*
X10796444Y-15509436D01*
X10796444Y-15509436D02*
X10786920Y-15518960D01*
X10786920Y-15518960D02*
X10767872Y-15528484D01*
X10767872Y-15528484D02*
X10710729Y-15528484D01*
X10710729Y-15528484D02*
X10691682Y-15518960D01*
X10691682Y-15518960D02*
X10682158Y-15509436D01*
X10872634Y-15328484D02*
X10996444Y-15328484D01*
X10996444Y-15328484D02*
X10929777Y-15404674D01*
X10929777Y-15404674D02*
X10958349Y-15404674D01*
X10958349Y-15404674D02*
X10977396Y-15414198D01*
X10977396Y-15414198D02*
X10986920Y-15423722D01*
X10986920Y-15423722D02*
X10996444Y-15442769D01*
X10996444Y-15442769D02*
X10996444Y-15490388D01*
X10996444Y-15490388D02*
X10986920Y-15509436D01*
X10986920Y-15509436D02*
X10977396Y-15518960D01*
X10977396Y-15518960D02*
X10958349Y-15528484D01*
X10958349Y-15528484D02*
X10901206Y-15528484D01*
X10901206Y-15528484D02*
X10882158Y-15518960D01*
X10882158Y-15518960D02*
X10872634Y-15509436D01*
X11072634Y-15328484D02*
X11072634Y-15366579D01*
X11148825Y-15328484D02*
X11148825Y-15366579D01*
X11444063Y-15604674D02*
X11434539Y-15595150D01*
X11434539Y-15595150D02*
X11415491Y-15566579D01*
X11415491Y-15566579D02*
X11405968Y-15547531D01*
X11405968Y-15547531D02*
X11396444Y-15518960D01*
X11396444Y-15518960D02*
X11386920Y-15471341D01*
X11386920Y-15471341D02*
X11386920Y-15433246D01*
X11386920Y-15433246D02*
X11396444Y-15385627D01*
X11396444Y-15385627D02*
X11405968Y-15357055D01*
X11405968Y-15357055D02*
X11415491Y-15338008D01*
X11415491Y-15338008D02*
X11434539Y-15309436D01*
X11434539Y-15309436D02*
X11444063Y-15299912D01*
X11501206Y-15328484D02*
X11625015Y-15328484D01*
X11625015Y-15328484D02*
X11558348Y-15404674D01*
X11558348Y-15404674D02*
X11586920Y-15404674D01*
X11586920Y-15404674D02*
X11605968Y-15414198D01*
X11605968Y-15414198D02*
X11615491Y-15423722D01*
X11615491Y-15423722D02*
X11625015Y-15442769D01*
X11625015Y-15442769D02*
X11625015Y-15490388D01*
X11625015Y-15490388D02*
X11615491Y-15509436D01*
X11615491Y-15509436D02*
X11605968Y-15518960D01*
X11605968Y-15518960D02*
X11586920Y-15528484D01*
X11586920Y-15528484D02*
X11529777Y-15528484D01*
X11529777Y-15528484D02*
X11510729Y-15518960D01*
X11510729Y-15518960D02*
X11501206Y-15509436D01*
X11863110Y-15528484D02*
X11863110Y-15328484D01*
X11948825Y-15528484D02*
X11948825Y-15423722D01*
X11948825Y-15423722D02*
X11939301Y-15404674D01*
X11939301Y-15404674D02*
X11920253Y-15395150D01*
X11920253Y-15395150D02*
X11891682Y-15395150D01*
X11891682Y-15395150D02*
X11872634Y-15404674D01*
X11872634Y-15404674D02*
X11863110Y-15414198D01*
X12072634Y-15528484D02*
X12053587Y-15518960D01*
X12053587Y-15518960D02*
X12044063Y-15509436D01*
X12044063Y-15509436D02*
X12034539Y-15490388D01*
X12034539Y-15490388D02*
X12034539Y-15433246D01*
X12034539Y-15433246D02*
X12044063Y-15414198D01*
X12044063Y-15414198D02*
X12053587Y-15404674D01*
X12053587Y-15404674D02*
X12072634Y-15395150D01*
X12072634Y-15395150D02*
X12101206Y-15395150D01*
X12101206Y-15395150D02*
X12120253Y-15404674D01*
X12120253Y-15404674D02*
X12129777Y-15414198D01*
X12129777Y-15414198D02*
X12139301Y-15433246D01*
X12139301Y-15433246D02*
X12139301Y-15490388D01*
X12139301Y-15490388D02*
X12129777Y-15509436D01*
X12129777Y-15509436D02*
X12120253Y-15518960D01*
X12120253Y-15518960D02*
X12101206Y-15528484D01*
X12101206Y-15528484D02*
X12072634Y-15528484D01*
X12253587Y-15528484D02*
X12234539Y-15518960D01*
X12234539Y-15518960D02*
X12225015Y-15499912D01*
X12225015Y-15499912D02*
X12225015Y-15328484D01*
X12405968Y-15518960D02*
X12386920Y-15528484D01*
X12386920Y-15528484D02*
X12348825Y-15528484D01*
X12348825Y-15528484D02*
X12329777Y-15518960D01*
X12329777Y-15518960D02*
X12320253Y-15499912D01*
X12320253Y-15499912D02*
X12320253Y-15423722D01*
X12320253Y-15423722D02*
X12329777Y-15404674D01*
X12329777Y-15404674D02*
X12348825Y-15395150D01*
X12348825Y-15395150D02*
X12386920Y-15395150D01*
X12386920Y-15395150D02*
X12405968Y-15404674D01*
X12405968Y-15404674D02*
X12415491Y-15423722D01*
X12415491Y-15423722D02*
X12415491Y-15442769D01*
X12415491Y-15442769D02*
X12320253Y-15461817D01*
X12491682Y-15518960D02*
X12510730Y-15528484D01*
X12510730Y-15528484D02*
X12548825Y-15528484D01*
X12548825Y-15528484D02*
X12567872Y-15518960D01*
X12567872Y-15518960D02*
X12577396Y-15499912D01*
X12577396Y-15499912D02*
X12577396Y-15490388D01*
X12577396Y-15490388D02*
X12567872Y-15471341D01*
X12567872Y-15471341D02*
X12548825Y-15461817D01*
X12548825Y-15461817D02*
X12520253Y-15461817D01*
X12520253Y-15461817D02*
X12501206Y-15452293D01*
X12501206Y-15452293D02*
X12491682Y-15433246D01*
X12491682Y-15433246D02*
X12491682Y-15423722D01*
X12491682Y-15423722D02*
X12501206Y-15404674D01*
X12501206Y-15404674D02*
X12520253Y-15395150D01*
X12520253Y-15395150D02*
X12548825Y-15395150D01*
X12548825Y-15395150D02*
X12567872Y-15404674D01*
X12644063Y-15604674D02*
X12653587Y-15595150D01*
X12653587Y-15595150D02*
X12672634Y-15566579D01*
X12672634Y-15566579D02*
X12682158Y-15547531D01*
X12682158Y-15547531D02*
X12691682Y-15518960D01*
X12691682Y-15518960D02*
X12701206Y-15471341D01*
X12701206Y-15471341D02*
X12701206Y-15433246D01*
X12701206Y-15433246D02*
X12691682Y-15385627D01*
X12691682Y-15385627D02*
X12682158Y-15357055D01*
X12682158Y-15357055D02*
X12672634Y-15338008D01*
X12672634Y-15338008D02*
X12653587Y-15309436D01*
X12653587Y-15309436D02*
X12644063Y-15299912D01*
X7669000Y-15601000D02*
X7869000Y-15801000D01*
X7869000Y-15601000D02*
X7669000Y-15801000D01*
X7839711Y-15771711D02*
X7839711Y-15630289D01*
X7698289Y-15630289D01*
X7698289Y-15771711D01*
X7839711Y-15771711D01*
X8120253Y-15611531D02*
X8129777Y-15602008D01*
X8129777Y-15602008D02*
X8148824Y-15592484D01*
X8148824Y-15592484D02*
X8196443Y-15592484D01*
X8196443Y-15592484D02*
X8215491Y-15602008D01*
X8215491Y-15602008D02*
X8225015Y-15611531D01*
X8225015Y-15611531D02*
X8234539Y-15630579D01*
X8234539Y-15630579D02*
X8234539Y-15649627D01*
X8234539Y-15649627D02*
X8225015Y-15678198D01*
X8225015Y-15678198D02*
X8110729Y-15792484D01*
X8110729Y-15792484D02*
X8234539Y-15792484D01*
X8320253Y-15773436D02*
X8329777Y-15782960D01*
X8329777Y-15782960D02*
X8320253Y-15792484D01*
X8320253Y-15792484D02*
X8310729Y-15782960D01*
X8310729Y-15782960D02*
X8320253Y-15773436D01*
X8320253Y-15773436D02*
X8320253Y-15792484D01*
X8405967Y-15611531D02*
X8415491Y-15602008D01*
X8415491Y-15602008D02*
X8434539Y-15592484D01*
X8434539Y-15592484D02*
X8482158Y-15592484D01*
X8482158Y-15592484D02*
X8501205Y-15602008D01*
X8501205Y-15602008D02*
X8510729Y-15611531D01*
X8510729Y-15611531D02*
X8520253Y-15630579D01*
X8520253Y-15630579D02*
X8520253Y-15649627D01*
X8520253Y-15649627D02*
X8510729Y-15678198D01*
X8510729Y-15678198D02*
X8396444Y-15792484D01*
X8396444Y-15792484D02*
X8520253Y-15792484D01*
X8644063Y-15592484D02*
X8663110Y-15592484D01*
X8663110Y-15592484D02*
X8682158Y-15602008D01*
X8682158Y-15602008D02*
X8691682Y-15611531D01*
X8691682Y-15611531D02*
X8701205Y-15630579D01*
X8701205Y-15630579D02*
X8710729Y-15668674D01*
X8710729Y-15668674D02*
X8710729Y-15716293D01*
X8710729Y-15716293D02*
X8701205Y-15754388D01*
X8701205Y-15754388D02*
X8691682Y-15773436D01*
X8691682Y-15773436D02*
X8682158Y-15782960D01*
X8682158Y-15782960D02*
X8663110Y-15792484D01*
X8663110Y-15792484D02*
X8644063Y-15792484D01*
X8644063Y-15792484D02*
X8625015Y-15782960D01*
X8625015Y-15782960D02*
X8615491Y-15773436D01*
X8615491Y-15773436D02*
X8605967Y-15754388D01*
X8605967Y-15754388D02*
X8596444Y-15716293D01*
X8596444Y-15716293D02*
X8596444Y-15668674D01*
X8596444Y-15668674D02*
X8605967Y-15630579D01*
X8605967Y-15630579D02*
X8615491Y-15611531D01*
X8615491Y-15611531D02*
X8625015Y-15602008D01*
X8625015Y-15602008D02*
X8644063Y-15592484D01*
X8834539Y-15592484D02*
X8853586Y-15592484D01*
X8853586Y-15592484D02*
X8872634Y-15602008D01*
X8872634Y-15602008D02*
X8882158Y-15611531D01*
X8882158Y-15611531D02*
X8891682Y-15630579D01*
X8891682Y-15630579D02*
X8901205Y-15668674D01*
X8901205Y-15668674D02*
X8901205Y-15716293D01*
X8901205Y-15716293D02*
X8891682Y-15754388D01*
X8891682Y-15754388D02*
X8882158Y-15773436D01*
X8882158Y-15773436D02*
X8872634Y-15782960D01*
X8872634Y-15782960D02*
X8853586Y-15792484D01*
X8853586Y-15792484D02*
X8834539Y-15792484D01*
X8834539Y-15792484D02*
X8815491Y-15782960D01*
X8815491Y-15782960D02*
X8805967Y-15773436D01*
X8805967Y-15773436D02*
X8796444Y-15754388D01*
X8796444Y-15754388D02*
X8786920Y-15716293D01*
X8786920Y-15716293D02*
X8786920Y-15668674D01*
X8786920Y-15668674D02*
X8796444Y-15630579D01*
X8796444Y-15630579D02*
X8805967Y-15611531D01*
X8805967Y-15611531D02*
X8815491Y-15602008D01*
X8815491Y-15602008D02*
X8834539Y-15592484D01*
X8986920Y-15792484D02*
X8986920Y-15659150D01*
X8986920Y-15678198D02*
X8996444Y-15668674D01*
X8996444Y-15668674D02*
X9015491Y-15659150D01*
X9015491Y-15659150D02*
X9044063Y-15659150D01*
X9044063Y-15659150D02*
X9063110Y-15668674D01*
X9063110Y-15668674D02*
X9072634Y-15687722D01*
X9072634Y-15687722D02*
X9072634Y-15792484D01*
X9072634Y-15687722D02*
X9082158Y-15668674D01*
X9082158Y-15668674D02*
X9101205Y-15659150D01*
X9101205Y-15659150D02*
X9129777Y-15659150D01*
X9129777Y-15659150D02*
X9148825Y-15668674D01*
X9148825Y-15668674D02*
X9158348Y-15687722D01*
X9158348Y-15687722D02*
X9158348Y-15792484D01*
X9253586Y-15792484D02*
X9253586Y-15659150D01*
X9253586Y-15678198D02*
X9263110Y-15668674D01*
X9263110Y-15668674D02*
X9282158Y-15659150D01*
X9282158Y-15659150D02*
X9310729Y-15659150D01*
X9310729Y-15659150D02*
X9329777Y-15668674D01*
X9329777Y-15668674D02*
X9339301Y-15687722D01*
X9339301Y-15687722D02*
X9339301Y-15792484D01*
X9339301Y-15687722D02*
X9348825Y-15668674D01*
X9348825Y-15668674D02*
X9367872Y-15659150D01*
X9367872Y-15659150D02*
X9396444Y-15659150D01*
X9396444Y-15659150D02*
X9415491Y-15668674D01*
X9415491Y-15668674D02*
X9425015Y-15687722D01*
X9425015Y-15687722D02*
X9425015Y-15792484D01*
X9815491Y-15582960D02*
X9644063Y-15840103D01*
X10072634Y-15592484D02*
X10091682Y-15592484D01*
X10091682Y-15592484D02*
X10110729Y-15602008D01*
X10110729Y-15602008D02*
X10120253Y-15611531D01*
X10120253Y-15611531D02*
X10129777Y-15630579D01*
X10129777Y-15630579D02*
X10139301Y-15668674D01*
X10139301Y-15668674D02*
X10139301Y-15716293D01*
X10139301Y-15716293D02*
X10129777Y-15754388D01*
X10129777Y-15754388D02*
X10120253Y-15773436D01*
X10120253Y-15773436D02*
X10110729Y-15782960D01*
X10110729Y-15782960D02*
X10091682Y-15792484D01*
X10091682Y-15792484D02*
X10072634Y-15792484D01*
X10072634Y-15792484D02*
X10053587Y-15782960D01*
X10053587Y-15782960D02*
X10044063Y-15773436D01*
X10044063Y-15773436D02*
X10034539Y-15754388D01*
X10034539Y-15754388D02*
X10025015Y-15716293D01*
X10025015Y-15716293D02*
X10025015Y-15668674D01*
X10025015Y-15668674D02*
X10034539Y-15630579D01*
X10034539Y-15630579D02*
X10044063Y-15611531D01*
X10044063Y-15611531D02*
X10053587Y-15602008D01*
X10053587Y-15602008D02*
X10072634Y-15592484D01*
X10225015Y-15773436D02*
X10234539Y-15782960D01*
X10234539Y-15782960D02*
X10225015Y-15792484D01*
X10225015Y-15792484D02*
X10215491Y-15782960D01*
X10215491Y-15782960D02*
X10225015Y-15773436D01*
X10225015Y-15773436D02*
X10225015Y-15792484D01*
X10358348Y-15592484D02*
X10377396Y-15592484D01*
X10377396Y-15592484D02*
X10396444Y-15602008D01*
X10396444Y-15602008D02*
X10405968Y-15611531D01*
X10405968Y-15611531D02*
X10415491Y-15630579D01*
X10415491Y-15630579D02*
X10425015Y-15668674D01*
X10425015Y-15668674D02*
X10425015Y-15716293D01*
X10425015Y-15716293D02*
X10415491Y-15754388D01*
X10415491Y-15754388D02*
X10405968Y-15773436D01*
X10405968Y-15773436D02*
X10396444Y-15782960D01*
X10396444Y-15782960D02*
X10377396Y-15792484D01*
X10377396Y-15792484D02*
X10358348Y-15792484D01*
X10358348Y-15792484D02*
X10339301Y-15782960D01*
X10339301Y-15782960D02*
X10329777Y-15773436D01*
X10329777Y-15773436D02*
X10320253Y-15754388D01*
X10320253Y-15754388D02*
X10310729Y-15716293D01*
X10310729Y-15716293D02*
X10310729Y-15668674D01*
X10310729Y-15668674D02*
X10320253Y-15630579D01*
X10320253Y-15630579D02*
X10329777Y-15611531D01*
X10329777Y-15611531D02*
X10339301Y-15602008D01*
X10339301Y-15602008D02*
X10358348Y-15592484D01*
X10539301Y-15678198D02*
X10520253Y-15668674D01*
X10520253Y-15668674D02*
X10510729Y-15659150D01*
X10510729Y-15659150D02*
X10501206Y-15640103D01*
X10501206Y-15640103D02*
X10501206Y-15630579D01*
X10501206Y-15630579D02*
X10510729Y-15611531D01*
X10510729Y-15611531D02*
X10520253Y-15602008D01*
X10520253Y-15602008D02*
X10539301Y-15592484D01*
X10539301Y-15592484D02*
X10577396Y-15592484D01*
X10577396Y-15592484D02*
X10596444Y-15602008D01*
X10596444Y-15602008D02*
X10605968Y-15611531D01*
X10605968Y-15611531D02*
X10615491Y-15630579D01*
X10615491Y-15630579D02*
X10615491Y-15640103D01*
X10615491Y-15640103D02*
X10605968Y-15659150D01*
X10605968Y-15659150D02*
X10596444Y-15668674D01*
X10596444Y-15668674D02*
X10577396Y-15678198D01*
X10577396Y-15678198D02*
X10539301Y-15678198D01*
X10539301Y-15678198D02*
X10520253Y-15687722D01*
X10520253Y-15687722D02*
X10510729Y-15697246D01*
X10510729Y-15697246D02*
X10501206Y-15716293D01*
X10501206Y-15716293D02*
X10501206Y-15754388D01*
X10501206Y-15754388D02*
X10510729Y-15773436D01*
X10510729Y-15773436D02*
X10520253Y-15782960D01*
X10520253Y-15782960D02*
X10539301Y-15792484D01*
X10539301Y-15792484D02*
X10577396Y-15792484D01*
X10577396Y-15792484D02*
X10596444Y-15782960D01*
X10596444Y-15782960D02*
X10605968Y-15773436D01*
X10605968Y-15773436D02*
X10615491Y-15754388D01*
X10615491Y-15754388D02*
X10615491Y-15716293D01*
X10615491Y-15716293D02*
X10605968Y-15697246D01*
X10605968Y-15697246D02*
X10596444Y-15687722D01*
X10596444Y-15687722D02*
X10577396Y-15678198D01*
X10786920Y-15592484D02*
X10748825Y-15592484D01*
X10748825Y-15592484D02*
X10729777Y-15602008D01*
X10729777Y-15602008D02*
X10720253Y-15611531D01*
X10720253Y-15611531D02*
X10701206Y-15640103D01*
X10701206Y-15640103D02*
X10691682Y-15678198D01*
X10691682Y-15678198D02*
X10691682Y-15754388D01*
X10691682Y-15754388D02*
X10701206Y-15773436D01*
X10701206Y-15773436D02*
X10710729Y-15782960D01*
X10710729Y-15782960D02*
X10729777Y-15792484D01*
X10729777Y-15792484D02*
X10767872Y-15792484D01*
X10767872Y-15792484D02*
X10786920Y-15782960D01*
X10786920Y-15782960D02*
X10796444Y-15773436D01*
X10796444Y-15773436D02*
X10805968Y-15754388D01*
X10805968Y-15754388D02*
X10805968Y-15706769D01*
X10805968Y-15706769D02*
X10796444Y-15687722D01*
X10796444Y-15687722D02*
X10786920Y-15678198D01*
X10786920Y-15678198D02*
X10767872Y-15668674D01*
X10767872Y-15668674D02*
X10729777Y-15668674D01*
X10729777Y-15668674D02*
X10710729Y-15678198D01*
X10710729Y-15678198D02*
X10701206Y-15687722D01*
X10701206Y-15687722D02*
X10691682Y-15706769D01*
X10977396Y-15592484D02*
X10939301Y-15592484D01*
X10939301Y-15592484D02*
X10920253Y-15602008D01*
X10920253Y-15602008D02*
X10910729Y-15611531D01*
X10910729Y-15611531D02*
X10891682Y-15640103D01*
X10891682Y-15640103D02*
X10882158Y-15678198D01*
X10882158Y-15678198D02*
X10882158Y-15754388D01*
X10882158Y-15754388D02*
X10891682Y-15773436D01*
X10891682Y-15773436D02*
X10901206Y-15782960D01*
X10901206Y-15782960D02*
X10920253Y-15792484D01*
X10920253Y-15792484D02*
X10958349Y-15792484D01*
X10958349Y-15792484D02*
X10977396Y-15782960D01*
X10977396Y-15782960D02*
X10986920Y-15773436D01*
X10986920Y-15773436D02*
X10996444Y-15754388D01*
X10996444Y-15754388D02*
X10996444Y-15706769D01*
X10996444Y-15706769D02*
X10986920Y-15687722D01*
X10986920Y-15687722D02*
X10977396Y-15678198D01*
X10977396Y-15678198D02*
X10958349Y-15668674D01*
X10958349Y-15668674D02*
X10920253Y-15668674D01*
X10920253Y-15668674D02*
X10901206Y-15678198D01*
X10901206Y-15678198D02*
X10891682Y-15687722D01*
X10891682Y-15687722D02*
X10882158Y-15706769D01*
X11072634Y-15592484D02*
X11072634Y-15630579D01*
X11148825Y-15592484D02*
X11148825Y-15630579D01*
X11444063Y-15868674D02*
X11434539Y-15859150D01*
X11434539Y-15859150D02*
X11415491Y-15830579D01*
X11415491Y-15830579D02*
X11405968Y-15811531D01*
X11405968Y-15811531D02*
X11396444Y-15782960D01*
X11396444Y-15782960D02*
X11386920Y-15735341D01*
X11386920Y-15735341D02*
X11386920Y-15697246D01*
X11386920Y-15697246D02*
X11396444Y-15649627D01*
X11396444Y-15649627D02*
X11405968Y-15621055D01*
X11405968Y-15621055D02*
X11415491Y-15602008D01*
X11415491Y-15602008D02*
X11434539Y-15573436D01*
X11434539Y-15573436D02*
X11444063Y-15563912D01*
X11605968Y-15659150D02*
X11605968Y-15792484D01*
X11558348Y-15582960D02*
X11510729Y-15725817D01*
X11510729Y-15725817D02*
X11634539Y-15725817D01*
X11863110Y-15792484D02*
X11863110Y-15592484D01*
X11948825Y-15792484D02*
X11948825Y-15687722D01*
X11948825Y-15687722D02*
X11939301Y-15668674D01*
X11939301Y-15668674D02*
X11920253Y-15659150D01*
X11920253Y-15659150D02*
X11891682Y-15659150D01*
X11891682Y-15659150D02*
X11872634Y-15668674D01*
X11872634Y-15668674D02*
X11863110Y-15678198D01*
X12072634Y-15792484D02*
X12053587Y-15782960D01*
X12053587Y-15782960D02*
X12044063Y-15773436D01*
X12044063Y-15773436D02*
X12034539Y-15754388D01*
X12034539Y-15754388D02*
X12034539Y-15697246D01*
X12034539Y-15697246D02*
X12044063Y-15678198D01*
X12044063Y-15678198D02*
X12053587Y-15668674D01*
X12053587Y-15668674D02*
X12072634Y-15659150D01*
X12072634Y-15659150D02*
X12101206Y-15659150D01*
X12101206Y-15659150D02*
X12120253Y-15668674D01*
X12120253Y-15668674D02*
X12129777Y-15678198D01*
X12129777Y-15678198D02*
X12139301Y-15697246D01*
X12139301Y-15697246D02*
X12139301Y-15754388D01*
X12139301Y-15754388D02*
X12129777Y-15773436D01*
X12129777Y-15773436D02*
X12120253Y-15782960D01*
X12120253Y-15782960D02*
X12101206Y-15792484D01*
X12101206Y-15792484D02*
X12072634Y-15792484D01*
X12253587Y-15792484D02*
X12234539Y-15782960D01*
X12234539Y-15782960D02*
X12225015Y-15763912D01*
X12225015Y-15763912D02*
X12225015Y-15592484D01*
X12405968Y-15782960D02*
X12386920Y-15792484D01*
X12386920Y-15792484D02*
X12348825Y-15792484D01*
X12348825Y-15792484D02*
X12329777Y-15782960D01*
X12329777Y-15782960D02*
X12320253Y-15763912D01*
X12320253Y-15763912D02*
X12320253Y-15687722D01*
X12320253Y-15687722D02*
X12329777Y-15668674D01*
X12329777Y-15668674D02*
X12348825Y-15659150D01*
X12348825Y-15659150D02*
X12386920Y-15659150D01*
X12386920Y-15659150D02*
X12405968Y-15668674D01*
X12405968Y-15668674D02*
X12415491Y-15687722D01*
X12415491Y-15687722D02*
X12415491Y-15706769D01*
X12415491Y-15706769D02*
X12320253Y-15725817D01*
X12491682Y-15782960D02*
X12510730Y-15792484D01*
X12510730Y-15792484D02*
X12548825Y-15792484D01*
X12548825Y-15792484D02*
X12567872Y-15782960D01*
X12567872Y-15782960D02*
X12577396Y-15763912D01*
X12577396Y-15763912D02*
X12577396Y-15754388D01*
X12577396Y-15754388D02*
X12567872Y-15735341D01*
X12567872Y-15735341D02*
X12548825Y-15725817D01*
X12548825Y-15725817D02*
X12520253Y-15725817D01*
X12520253Y-15725817D02*
X12501206Y-15716293D01*
X12501206Y-15716293D02*
X12491682Y-15697246D01*
X12491682Y-15697246D02*
X12491682Y-15687722D01*
X12491682Y-15687722D02*
X12501206Y-15668674D01*
X12501206Y-15668674D02*
X12520253Y-15659150D01*
X12520253Y-15659150D02*
X12548825Y-15659150D01*
X12548825Y-15659150D02*
X12567872Y-15668674D01*
X12644063Y-15868674D02*
X12653587Y-15859150D01*
X12653587Y-15859150D02*
X12672634Y-15830579D01*
X12672634Y-15830579D02*
X12682158Y-15811531D01*
X12682158Y-15811531D02*
X12691682Y-15782960D01*
X12691682Y-15782960D02*
X12701206Y-15735341D01*
X12701206Y-15735341D02*
X12701206Y-15697246D01*
X12701206Y-15697246D02*
X12691682Y-15649627D01*
X12691682Y-15649627D02*
X12682158Y-15621055D01*
X12682158Y-15621055D02*
X12672634Y-15602008D01*
X12672634Y-15602008D02*
X12653587Y-15573436D01*
X12653587Y-15573436D02*
X12644063Y-15563912D01*
M02*
