G04 #@! TF.GenerationSoftware,KiCad,Pcbnew,8.0.7*
G04 #@! TF.CreationDate,2024-12-29T16:59:57+01:00*
G04 #@! TF.ProjectId,ESP32ScoringDeviceV1.1,45535033-3253-4636-9f72-696e67446576,1.1*
G04 #@! TF.SameCoordinates,Original*
G04 #@! TF.FileFunction,Soldermask,Bot*
G04 #@! TF.FilePolarity,Negative*
%FSLAX46Y46*%
G04 Gerber Fmt 4.6, Leading zero omitted, Abs format (unit mm)*
G04 Created by KiCad (PCBNEW 8.0.7) date 2024-12-29 16:59:57*
%MOMM*%
%LPD*%
G01*
G04 APERTURE LIST*
%ADD10C,2.600000*%
%ADD11C,3.800000*%
%ADD12R,1.700000X1.700000*%
%ADD13O,1.700000X1.700000*%
%ADD14C,1.600000*%
%ADD15R,1.524000X1.524000*%
%ADD16C,1.524000*%
%ADD17O,1.600000X1.600000*%
%ADD18R,2.000000X2.000000*%
%ADD19C,2.000000*%
%ADD20R,1.050000X1.500000*%
%ADD21O,1.050000X1.500000*%
G04 APERTURE END LIST*
D10*
X142280000Y-129540000D03*
D11*
X142280000Y-129540000D03*
D10*
X81280000Y-129540000D03*
D11*
X81280000Y-129540000D03*
D10*
X142280000Y-81040000D03*
D11*
X142280000Y-81040000D03*
D10*
X81280000Y-81040000D03*
D11*
X81280000Y-81040000D03*
D12*
X129540000Y-106680000D03*
D13*
X129540000Y-109220000D03*
X129540000Y-111760000D03*
X129540000Y-114300000D03*
D14*
X129540000Y-124460000D03*
X129540000Y-119460000D03*
D12*
X134620000Y-93980000D03*
D13*
X132080000Y-93980000D03*
D12*
X142240000Y-109220000D03*
D13*
X142240000Y-106680000D03*
D15*
X99060000Y-86360000D03*
D16*
X99060000Y-88900000D03*
X99060000Y-91440000D03*
X99060000Y-93980000D03*
X99060000Y-96520000D03*
X99060000Y-99060000D03*
X99060000Y-101600000D03*
X99060000Y-104140000D03*
X99060000Y-106680000D03*
X99060000Y-109220000D03*
X99060000Y-111760000D03*
X99060000Y-114300000D03*
X99060000Y-116840000D03*
X99060000Y-119380000D03*
X99060000Y-121920000D03*
X124460000Y-121920000D03*
X124460000Y-119380000D03*
X124460000Y-116840000D03*
X124460000Y-114300000D03*
X124460000Y-111760000D03*
X124460000Y-109220000D03*
X124460000Y-106680000D03*
X124460000Y-104140000D03*
X124460000Y-101600000D03*
X124460000Y-99060000D03*
X124460000Y-96520000D03*
X124460000Y-93980000D03*
X124460000Y-91440000D03*
X124460000Y-88900000D03*
X124460000Y-86360000D03*
D14*
X116840000Y-88900000D03*
D17*
X106680000Y-88900000D03*
D14*
X93980000Y-124460000D03*
X93980000Y-119460000D03*
D18*
X86360000Y-124460000D03*
D19*
X86360000Y-119460000D03*
D14*
X116840000Y-96520000D03*
D17*
X106680000Y-96520000D03*
D20*
X86360000Y-88900000D03*
D21*
X87630000Y-88900000D03*
X88900000Y-88900000D03*
D12*
X94280000Y-99065000D03*
D13*
X94280000Y-96525000D03*
X94280000Y-93985000D03*
X94280000Y-91445000D03*
X94280000Y-88905000D03*
X94280000Y-86365000D03*
X94280000Y-83825000D03*
D12*
X93980000Y-104140000D03*
D13*
X93980000Y-106680000D03*
X93980000Y-109220000D03*
X93980000Y-111760000D03*
X93980000Y-114300000D03*
D14*
X116840000Y-93980000D03*
D17*
X106680000Y-93980000D03*
D20*
X139700000Y-99060000D03*
D21*
X138430000Y-99060000D03*
X137160000Y-99060000D03*
D14*
X134620000Y-101600000D03*
D17*
X134620000Y-111760000D03*
D12*
X86360000Y-101600000D03*
D13*
X86360000Y-104140000D03*
X86360000Y-106680000D03*
D12*
X86360000Y-96520000D03*
D13*
X86360000Y-93980000D03*
D14*
X116840000Y-91440000D03*
D17*
X106680000Y-91440000D03*
D12*
X129540000Y-91440000D03*
D13*
X129540000Y-93980000D03*
D14*
X116840000Y-99060000D03*
D17*
X106680000Y-99060000D03*
D14*
X116840000Y-106680000D03*
D17*
X106680000Y-106680000D03*
D14*
X106680000Y-104140000D03*
D17*
X116840000Y-104140000D03*
D14*
X137780000Y-114300000D03*
D17*
X137780000Y-104140000D03*
D14*
X81280000Y-86360000D03*
D17*
X81280000Y-96520000D03*
D18*
X137160000Y-124460000D03*
D19*
X137160000Y-119460000D03*
D14*
X106680000Y-101600000D03*
D17*
X116840000Y-101600000D03*
M02*
