G04 #@! TF.GenerationSoftware,KiCad,Pcbnew,8.0.7*
G04 #@! TF.CreationDate,2024-12-29T16:59:57+01:00*
G04 #@! TF.ProjectId,ESP32ScoringDeviceV1.1,45535033-3253-4636-9f72-696e67446576,1.1*
G04 #@! TF.SameCoordinates,Original*
G04 #@! TF.FileFunction,Copper,L2,Bot*
G04 #@! TF.FilePolarity,Positive*
%FSLAX46Y46*%
G04 Gerber Fmt 4.6, Leading zero omitted, Abs format (unit mm)*
G04 Created by KiCad (PCBNEW 8.0.7) date 2024-12-29 16:59:57*
%MOMM*%
%LPD*%
G01*
G04 APERTURE LIST*
G04 #@! TA.AperFunction,ComponentPad*
%ADD10C,2.600000*%
G04 #@! TD*
G04 #@! TA.AperFunction,ConnectorPad*
%ADD11C,3.800000*%
G04 #@! TD*
G04 #@! TA.AperFunction,ComponentPad*
%ADD12R,1.700000X1.700000*%
G04 #@! TD*
G04 #@! TA.AperFunction,ComponentPad*
%ADD13O,1.700000X1.700000*%
G04 #@! TD*
G04 #@! TA.AperFunction,ComponentPad*
%ADD14C,1.600000*%
G04 #@! TD*
G04 #@! TA.AperFunction,ComponentPad*
%ADD15R,1.524000X1.524000*%
G04 #@! TD*
G04 #@! TA.AperFunction,ComponentPad*
%ADD16C,1.524000*%
G04 #@! TD*
G04 #@! TA.AperFunction,ComponentPad*
%ADD17O,1.600000X1.600000*%
G04 #@! TD*
G04 #@! TA.AperFunction,ComponentPad*
%ADD18R,2.000000X2.000000*%
G04 #@! TD*
G04 #@! TA.AperFunction,ComponentPad*
%ADD19C,2.000000*%
G04 #@! TD*
G04 #@! TA.AperFunction,ComponentPad*
%ADD20R,1.050000X1.500000*%
G04 #@! TD*
G04 #@! TA.AperFunction,ComponentPad*
%ADD21O,1.050000X1.500000*%
G04 #@! TD*
G04 #@! TA.AperFunction,Conductor*
%ADD22C,1.270000*%
G04 #@! TD*
G04 #@! TA.AperFunction,Conductor*
%ADD23C,1.049800*%
G04 #@! TD*
G04 APERTURE END LIST*
D10*
X142280000Y-129540000D03*
D11*
X142280000Y-129540000D03*
D10*
X81280000Y-129540000D03*
D11*
X81280000Y-129540000D03*
D10*
X142280000Y-81040000D03*
D11*
X142280000Y-81040000D03*
D10*
X81280000Y-81040000D03*
D11*
X81280000Y-81040000D03*
D12*
X129540000Y-106680000D03*
D13*
X129540000Y-109220000D03*
X129540000Y-111760000D03*
X129540000Y-114300000D03*
D14*
X129540000Y-124460000D03*
X129540000Y-119460000D03*
D12*
X134620000Y-93980000D03*
D13*
X132080000Y-93980000D03*
D12*
X142240000Y-109220000D03*
D13*
X142240000Y-106680000D03*
D15*
X99060000Y-86360000D03*
D16*
X99060000Y-88900000D03*
X99060000Y-91440000D03*
X99060000Y-93980000D03*
X99060000Y-96520000D03*
X99060000Y-99060000D03*
X99060000Y-101600000D03*
X99060000Y-104140000D03*
X99060000Y-106680000D03*
X99060000Y-109220000D03*
X99060000Y-111760000D03*
X99060000Y-114300000D03*
X99060000Y-116840000D03*
X99060000Y-119380000D03*
X99060000Y-121920000D03*
X124460000Y-121920000D03*
X124460000Y-119380000D03*
X124460000Y-116840000D03*
X124460000Y-114300000D03*
X124460000Y-111760000D03*
X124460000Y-109220000D03*
X124460000Y-106680000D03*
X124460000Y-104140000D03*
X124460000Y-101600000D03*
X124460000Y-99060000D03*
X124460000Y-96520000D03*
X124460000Y-93980000D03*
X124460000Y-91440000D03*
X124460000Y-88900000D03*
X124460000Y-86360000D03*
D14*
X116840000Y-88900000D03*
D17*
X106680000Y-88900000D03*
D14*
X93980000Y-124460000D03*
X93980000Y-119460000D03*
D18*
X86360000Y-124460000D03*
D19*
X86360000Y-119460000D03*
D14*
X116840000Y-96520000D03*
D17*
X106680000Y-96520000D03*
D20*
X86360000Y-88900000D03*
D21*
X87630000Y-88900000D03*
X88900000Y-88900000D03*
D12*
X94280000Y-99065000D03*
D13*
X94280000Y-96525000D03*
X94280000Y-93985000D03*
X94280000Y-91445000D03*
X94280000Y-88905000D03*
X94280000Y-86365000D03*
X94280000Y-83825000D03*
D12*
X93980000Y-104140000D03*
D13*
X93980000Y-106680000D03*
X93980000Y-109220000D03*
X93980000Y-111760000D03*
X93980000Y-114300000D03*
D14*
X116840000Y-93980000D03*
D17*
X106680000Y-93980000D03*
D20*
X139700000Y-99060000D03*
D21*
X138430000Y-99060000D03*
X137160000Y-99060000D03*
D14*
X134620000Y-101600000D03*
D17*
X134620000Y-111760000D03*
D12*
X86360000Y-101600000D03*
D13*
X86360000Y-104140000D03*
X86360000Y-106680000D03*
D12*
X86360000Y-96520000D03*
D13*
X86360000Y-93980000D03*
D14*
X116840000Y-91440000D03*
D17*
X106680000Y-91440000D03*
D12*
X129540000Y-91440000D03*
D13*
X129540000Y-93980000D03*
D14*
X116840000Y-99060000D03*
D17*
X106680000Y-99060000D03*
D14*
X116840000Y-106680000D03*
D17*
X106680000Y-106680000D03*
D14*
X106680000Y-104140000D03*
D17*
X116840000Y-104140000D03*
D14*
X137780000Y-114300000D03*
D17*
X137780000Y-104140000D03*
D14*
X81280000Y-86360000D03*
D17*
X81280000Y-96520000D03*
D18*
X137160000Y-124460000D03*
D19*
X137160000Y-119460000D03*
D14*
X106680000Y-101600000D03*
D17*
X116840000Y-101600000D03*
D22*
X84015200Y-91714800D02*
X84015200Y-87314800D01*
X81280000Y-94450000D02*
X84015200Y-91714800D01*
D23*
X87305300Y-87314800D02*
X87630000Y-86990100D01*
X84015200Y-87314800D02*
X87305300Y-87314800D01*
X87630000Y-88900000D02*
X87630000Y-86990100D01*
D22*
X81280000Y-96520000D02*
X81280000Y-94450000D01*
D23*
X85920900Y-89339100D02*
X86360000Y-88900000D01*
D22*
X85920900Y-91420900D02*
X86360000Y-91860000D01*
X85920900Y-89339100D02*
X85920900Y-91420900D01*
X86360000Y-93980000D02*
X86360000Y-91860000D01*
X134620000Y-101600000D02*
X134620000Y-93980000D01*
X137785000Y-104140000D02*
X138430000Y-103495000D01*
X137780000Y-104140000D02*
X137785000Y-104140000D01*
D23*
X138430000Y-103495000D02*
X138430000Y-99060000D01*
X139900000Y-99060000D02*
X139700000Y-99060000D01*
D22*
X142240000Y-101400000D02*
X142240000Y-106680000D01*
X139900000Y-99060000D02*
X142240000Y-101400000D01*
X98864500Y-88900000D02*
X99060000Y-88900000D01*
X96552900Y-86588400D02*
X98864500Y-88900000D01*
X96552900Y-86097900D02*
X96552900Y-86588400D01*
X94280000Y-83825000D02*
X96552900Y-86097900D01*
X100675600Y-89824400D02*
X99060000Y-91440000D01*
X100675600Y-85208100D02*
X100675600Y-89824400D01*
X97586100Y-82118600D02*
X100675600Y-85208100D01*
X93545900Y-82118600D02*
X97586100Y-82118600D01*
X92581200Y-83083300D02*
X93545900Y-82118600D01*
X92581200Y-87206200D02*
X92581200Y-83083300D01*
X94280000Y-88905000D02*
X92581200Y-87206200D01*
X98935000Y-93980000D02*
X96400000Y-91445000D01*
X99060000Y-93980000D02*
X98935000Y-93980000D01*
X94280000Y-91445000D02*
X96400000Y-91445000D01*
X96400000Y-121522300D02*
X96400000Y-96525000D01*
X98421300Y-123543600D02*
X96400000Y-121522300D01*
X99761300Y-123543600D02*
X98421300Y-123543600D01*
X105044800Y-118260100D02*
X99761300Y-123543600D01*
X105044800Y-115935200D02*
X105044800Y-118260100D01*
X116840000Y-104140000D02*
X105044800Y-115935200D01*
X94280000Y-96525000D02*
X96400000Y-96525000D01*
X86360000Y-101600000D02*
X86360000Y-96520000D01*
X93980000Y-104140000D02*
X91860000Y-104140000D01*
X89320000Y-101600000D02*
X91860000Y-104140000D01*
X86360000Y-101600000D02*
X89320000Y-101600000D01*
X91860000Y-122340000D02*
X93980000Y-124460000D01*
X91860000Y-104140000D02*
X91860000Y-122340000D01*
X140740000Y-111340000D02*
X137780000Y-114300000D01*
X142240000Y-111340000D02*
X140740000Y-111340000D01*
X142240000Y-109220000D02*
X142240000Y-111340000D01*
X119380000Y-86360000D02*
X124460000Y-86360000D01*
X116840000Y-88900000D02*
X119380000Y-86360000D01*
G04 #@! TA.AperFunction,Conductor*
G36*
X95945338Y-92600185D02*
G01*
X95965980Y-92616819D01*
X97953963Y-94604803D01*
X97967857Y-94621361D01*
X98089170Y-94794615D01*
X98089175Y-94794621D01*
X98245378Y-94950824D01*
X98245384Y-94950829D01*
X98426333Y-95077531D01*
X98426335Y-95077532D01*
X98426338Y-95077534D01*
X98545748Y-95133215D01*
X98555189Y-95137618D01*
X98607628Y-95183790D01*
X98626780Y-95250984D01*
X98606564Y-95317865D01*
X98555189Y-95362382D01*
X98426340Y-95422465D01*
X98426338Y-95422466D01*
X98245377Y-95549175D01*
X98089175Y-95705377D01*
X97962466Y-95886338D01*
X97962465Y-95886340D01*
X97869107Y-96086548D01*
X97869104Y-96086554D01*
X97811930Y-96299929D01*
X97811929Y-96299937D01*
X97792677Y-96519997D01*
X97792677Y-96520002D01*
X97811929Y-96740062D01*
X97811930Y-96740070D01*
X97869104Y-96953445D01*
X97869105Y-96953447D01*
X97869106Y-96953450D01*
X97962466Y-97153662D01*
X97962468Y-97153666D01*
X98089170Y-97334615D01*
X98089175Y-97334621D01*
X98245378Y-97490824D01*
X98245384Y-97490829D01*
X98426333Y-97617531D01*
X98426335Y-97617532D01*
X98426338Y-97617534D01*
X98545748Y-97673215D01*
X98555189Y-97677618D01*
X98607628Y-97723790D01*
X98626780Y-97790984D01*
X98606564Y-97857865D01*
X98555189Y-97902382D01*
X98426340Y-97962465D01*
X98426338Y-97962466D01*
X98245377Y-98089175D01*
X98089175Y-98245377D01*
X97962466Y-98426338D01*
X97962465Y-98426340D01*
X97869107Y-98626548D01*
X97869104Y-98626554D01*
X97811930Y-98839929D01*
X97811929Y-98839937D01*
X97792677Y-99059997D01*
X97792677Y-99060002D01*
X97811929Y-99280062D01*
X97811930Y-99280070D01*
X97869104Y-99493445D01*
X97869105Y-99493447D01*
X97869106Y-99493450D01*
X97911389Y-99584127D01*
X97962466Y-99693662D01*
X97962468Y-99693666D01*
X98089170Y-99874615D01*
X98089175Y-99874621D01*
X98245378Y-100030824D01*
X98245384Y-100030829D01*
X98426333Y-100157531D01*
X98426335Y-100157532D01*
X98426338Y-100157534D01*
X98545748Y-100213215D01*
X98555189Y-100217618D01*
X98607628Y-100263790D01*
X98626780Y-100330984D01*
X98606564Y-100397865D01*
X98555189Y-100442382D01*
X98426340Y-100502465D01*
X98426338Y-100502466D01*
X98245377Y-100629175D01*
X98089175Y-100785377D01*
X97962466Y-100966338D01*
X97962465Y-100966340D01*
X97869107Y-101166548D01*
X97869104Y-101166554D01*
X97811930Y-101379929D01*
X97811929Y-101379937D01*
X97792677Y-101599997D01*
X97792677Y-101600002D01*
X97811929Y-101820062D01*
X97811930Y-101820070D01*
X97869104Y-102033445D01*
X97869105Y-102033447D01*
X97869106Y-102033450D01*
X97875190Y-102046497D01*
X97962466Y-102233662D01*
X97962468Y-102233666D01*
X98089170Y-102414615D01*
X98089175Y-102414621D01*
X98245378Y-102570824D01*
X98245384Y-102570829D01*
X98426333Y-102697531D01*
X98426335Y-102697532D01*
X98426338Y-102697534D01*
X98507757Y-102735500D01*
X98555189Y-102757618D01*
X98607628Y-102803790D01*
X98626780Y-102870984D01*
X98606564Y-102937865D01*
X98555189Y-102982382D01*
X98426340Y-103042465D01*
X98426338Y-103042466D01*
X98245377Y-103169175D01*
X98089175Y-103325377D01*
X97962466Y-103506338D01*
X97962465Y-103506340D01*
X97869107Y-103706548D01*
X97869104Y-103706554D01*
X97811930Y-103919929D01*
X97811929Y-103919937D01*
X97792677Y-104139997D01*
X97792677Y-104140002D01*
X97811929Y-104360062D01*
X97811930Y-104360070D01*
X97869104Y-104573445D01*
X97869105Y-104573447D01*
X97869106Y-104573450D01*
X97883195Y-104603664D01*
X97962466Y-104773662D01*
X97962468Y-104773666D01*
X98089170Y-104954615D01*
X98089175Y-104954621D01*
X98245378Y-105110824D01*
X98245384Y-105110829D01*
X98426333Y-105237531D01*
X98426335Y-105237532D01*
X98426338Y-105237534D01*
X98545748Y-105293215D01*
X98555189Y-105297618D01*
X98607628Y-105343790D01*
X98626780Y-105410984D01*
X98606564Y-105477865D01*
X98555189Y-105522382D01*
X98426340Y-105582465D01*
X98426338Y-105582466D01*
X98245377Y-105709175D01*
X98089175Y-105865377D01*
X97962466Y-106046338D01*
X97962465Y-106046340D01*
X97869107Y-106246548D01*
X97869104Y-106246554D01*
X97811930Y-106459929D01*
X97811929Y-106459937D01*
X97792677Y-106679997D01*
X97792677Y-106680002D01*
X97811929Y-106900062D01*
X97811930Y-106900070D01*
X97869104Y-107113445D01*
X97869105Y-107113447D01*
X97869106Y-107113450D01*
X97962466Y-107313662D01*
X97962468Y-107313666D01*
X98089170Y-107494615D01*
X98089175Y-107494621D01*
X98245378Y-107650824D01*
X98245384Y-107650829D01*
X98426333Y-107777531D01*
X98426335Y-107777532D01*
X98426338Y-107777534D01*
X98496245Y-107810132D01*
X98555189Y-107837618D01*
X98607628Y-107883790D01*
X98626780Y-107950984D01*
X98606564Y-108017865D01*
X98555189Y-108062382D01*
X98426340Y-108122465D01*
X98426338Y-108122466D01*
X98245377Y-108249175D01*
X98089175Y-108405377D01*
X97962466Y-108586338D01*
X97962465Y-108586340D01*
X97869107Y-108786548D01*
X97869104Y-108786554D01*
X97811930Y-108999929D01*
X97811929Y-108999937D01*
X97792677Y-109219997D01*
X97792677Y-109220002D01*
X97811929Y-109440062D01*
X97811930Y-109440070D01*
X97869104Y-109653445D01*
X97869105Y-109653447D01*
X97869106Y-109653450D01*
X97883195Y-109683664D01*
X97962466Y-109853662D01*
X97962468Y-109853666D01*
X98089170Y-110034615D01*
X98089175Y-110034621D01*
X98245378Y-110190824D01*
X98245384Y-110190829D01*
X98426333Y-110317531D01*
X98426335Y-110317532D01*
X98426338Y-110317534D01*
X98536350Y-110368833D01*
X98555189Y-110377618D01*
X98607628Y-110423790D01*
X98626780Y-110490984D01*
X98606564Y-110557865D01*
X98555189Y-110602382D01*
X98426340Y-110662465D01*
X98426338Y-110662466D01*
X98245377Y-110789175D01*
X98089175Y-110945377D01*
X97962466Y-111126338D01*
X97962465Y-111126340D01*
X97869107Y-111326548D01*
X97869104Y-111326554D01*
X97811930Y-111539929D01*
X97811929Y-111539937D01*
X97792677Y-111759997D01*
X97792677Y-111760002D01*
X97811929Y-111980062D01*
X97811930Y-111980070D01*
X97869104Y-112193445D01*
X97869105Y-112193447D01*
X97869106Y-112193450D01*
X97900139Y-112260000D01*
X97962466Y-112393662D01*
X97962468Y-112393666D01*
X98089170Y-112574615D01*
X98089175Y-112574621D01*
X98245378Y-112730824D01*
X98245384Y-112730829D01*
X98426333Y-112857531D01*
X98426335Y-112857532D01*
X98426338Y-112857534D01*
X98545748Y-112913215D01*
X98555189Y-112917618D01*
X98607628Y-112963790D01*
X98626780Y-113030984D01*
X98606564Y-113097865D01*
X98555189Y-113142382D01*
X98426340Y-113202465D01*
X98426338Y-113202466D01*
X98245377Y-113329175D01*
X98089175Y-113485377D01*
X97962466Y-113666338D01*
X97962465Y-113666340D01*
X97869107Y-113866548D01*
X97869104Y-113866554D01*
X97811930Y-114079929D01*
X97811929Y-114079937D01*
X97792677Y-114299997D01*
X97792677Y-114300002D01*
X97811929Y-114520062D01*
X97811930Y-114520070D01*
X97869104Y-114733445D01*
X97869105Y-114733447D01*
X97869106Y-114733450D01*
X97883195Y-114763664D01*
X97962466Y-114933662D01*
X97962468Y-114933666D01*
X98089170Y-115114615D01*
X98089175Y-115114621D01*
X98245378Y-115270824D01*
X98245384Y-115270829D01*
X98426333Y-115397531D01*
X98426335Y-115397532D01*
X98426338Y-115397534D01*
X98497178Y-115430567D01*
X98555189Y-115457618D01*
X98607628Y-115503790D01*
X98626780Y-115570984D01*
X98606564Y-115637865D01*
X98555189Y-115682382D01*
X98426340Y-115742465D01*
X98426338Y-115742466D01*
X98245377Y-115869175D01*
X98089175Y-116025377D01*
X97962466Y-116206338D01*
X97962465Y-116206340D01*
X97886514Y-116369219D01*
X97869578Y-116405539D01*
X97869107Y-116406548D01*
X97869104Y-116406554D01*
X97811930Y-116619929D01*
X97811929Y-116619937D01*
X97792677Y-116839997D01*
X97792677Y-116840002D01*
X97811929Y-117060062D01*
X97811930Y-117060070D01*
X97869104Y-117273445D01*
X97869105Y-117273447D01*
X97869106Y-117273450D01*
X97962466Y-117473662D01*
X97962468Y-117473666D01*
X98089170Y-117654615D01*
X98089175Y-117654621D01*
X98245378Y-117810824D01*
X98245384Y-117810829D01*
X98426333Y-117937531D01*
X98426335Y-117937532D01*
X98426338Y-117937534D01*
X98474517Y-117960000D01*
X98555781Y-117997894D01*
X98608220Y-118044066D01*
X98627372Y-118111260D01*
X98607156Y-118178141D01*
X98555781Y-118222658D01*
X98426590Y-118282901D01*
X98361811Y-118328258D01*
X99032554Y-118999000D01*
X99009840Y-118999000D01*
X98912939Y-119024964D01*
X98826060Y-119075124D01*
X98755124Y-119146060D01*
X98704964Y-119232939D01*
X98679000Y-119329840D01*
X98679000Y-119352553D01*
X98008258Y-118681811D01*
X97962901Y-118746590D01*
X97869579Y-118946720D01*
X97869575Y-118946729D01*
X97812426Y-119160013D01*
X97812424Y-119160023D01*
X97793179Y-119379999D01*
X97793179Y-119380000D01*
X97812424Y-119599976D01*
X97812426Y-119599986D01*
X97869575Y-119813270D01*
X97869580Y-119813284D01*
X97962898Y-120013405D01*
X97962901Y-120013411D01*
X98008258Y-120078187D01*
X98008258Y-120078188D01*
X98679000Y-119407446D01*
X98679000Y-119430160D01*
X98704964Y-119527061D01*
X98755124Y-119613940D01*
X98826060Y-119684876D01*
X98912939Y-119735036D01*
X99009840Y-119761000D01*
X99032553Y-119761000D01*
X98361810Y-120431740D01*
X98426589Y-120477098D01*
X98555781Y-120537342D01*
X98608220Y-120583514D01*
X98627372Y-120650708D01*
X98607156Y-120717589D01*
X98555781Y-120762106D01*
X98426340Y-120822465D01*
X98426338Y-120822466D01*
X98245377Y-120949175D01*
X98089175Y-121105377D01*
X97967913Y-121278560D01*
X97913337Y-121322185D01*
X97843838Y-121329379D01*
X97781483Y-121297856D01*
X97778657Y-121295118D01*
X97571819Y-121088280D01*
X97538334Y-121026957D01*
X97535500Y-121000599D01*
X97535500Y-96435634D01*
X97507540Y-96259103D01*
X97507539Y-96259099D01*
X97507539Y-96259098D01*
X97452310Y-96089121D01*
X97452308Y-96089118D01*
X97444353Y-96073504D01*
X97371167Y-95929868D01*
X97266111Y-95785272D01*
X97139728Y-95658889D01*
X96995132Y-95553833D01*
X96835881Y-95472691D01*
X96835878Y-95472689D01*
X96665899Y-95417460D01*
X96548209Y-95398820D01*
X96489366Y-95389500D01*
X96489365Y-95389500D01*
X95051960Y-95389500D01*
X94984921Y-95369815D01*
X94980862Y-95367092D01*
X94965840Y-95356573D01*
X94922216Y-95302000D01*
X94915022Y-95232501D01*
X94946544Y-95170146D01*
X94965837Y-95153428D01*
X95151401Y-95023495D01*
X95318495Y-94856401D01*
X95454035Y-94662830D01*
X95553903Y-94448663D01*
X95615063Y-94220408D01*
X95635659Y-93985000D01*
X95635221Y-93979999D01*
X95624274Y-93854868D01*
X95615063Y-93749592D01*
X95553903Y-93521337D01*
X95454035Y-93307171D01*
X95444924Y-93294158D01*
X95318494Y-93113597D01*
X95151402Y-92946506D01*
X95151401Y-92946505D01*
X95121190Y-92925351D01*
X94965839Y-92816573D01*
X94922216Y-92761997D01*
X94915023Y-92692498D01*
X94946545Y-92630144D01*
X94965832Y-92613431D01*
X94980844Y-92602920D01*
X95047050Y-92580597D01*
X95051960Y-92580500D01*
X95878299Y-92580500D01*
X95945338Y-92600185D01*
G37*
G04 #@! TD.AperFunction*
G04 #@! TA.AperFunction,Conductor*
G36*
X95225354Y-115122927D02*
G01*
X95260769Y-115183157D01*
X95264500Y-115213347D01*
X95264500Y-118634697D01*
X95244815Y-118701736D01*
X95192011Y-118747491D01*
X95122853Y-118757435D01*
X95075929Y-118736005D01*
X95059025Y-118734526D01*
X94380000Y-119413551D01*
X94380000Y-119407339D01*
X94352741Y-119305606D01*
X94300080Y-119214394D01*
X94225606Y-119139920D01*
X94134394Y-119087259D01*
X94032661Y-119060000D01*
X94026446Y-119060000D01*
X94705472Y-118380974D01*
X94632478Y-118329863D01*
X94426331Y-118233735D01*
X94426317Y-118233730D01*
X94206610Y-118174860D01*
X94206599Y-118174858D01*
X93980002Y-118155034D01*
X93979998Y-118155034D01*
X93753400Y-118174858D01*
X93753389Y-118174860D01*
X93533682Y-118233730D01*
X93533673Y-118233734D01*
X93327517Y-118329866D01*
X93190624Y-118425720D01*
X93124417Y-118448047D01*
X93056650Y-118431037D01*
X93008837Y-118380089D01*
X92995500Y-118324145D01*
X92995500Y-115497504D01*
X93015185Y-115430465D01*
X93067989Y-115384710D01*
X93137147Y-115374766D01*
X93190622Y-115395928D01*
X93302170Y-115474035D01*
X93516337Y-115573903D01*
X93744592Y-115635063D01*
X93905101Y-115649106D01*
X93979999Y-115655659D01*
X93980000Y-115655659D01*
X93980001Y-115655659D01*
X94054899Y-115649106D01*
X94215408Y-115635063D01*
X94443663Y-115573903D01*
X94657830Y-115474035D01*
X94851401Y-115338495D01*
X95018495Y-115171401D01*
X95038925Y-115142224D01*
X95093501Y-115098599D01*
X95163000Y-115091405D01*
X95225354Y-115122927D01*
G37*
G04 #@! TD.AperFunction*
G04 #@! TA.AperFunction,Conductor*
G36*
X140456746Y-79260185D02*
G01*
X140502501Y-79312989D01*
X140512445Y-79382147D01*
X140485250Y-79443541D01*
X140334116Y-79626229D01*
X140334113Y-79626233D01*
X140172268Y-79881261D01*
X140172265Y-79881267D01*
X140043661Y-80154563D01*
X140043659Y-80154568D01*
X139950320Y-80441835D01*
X139893719Y-80738546D01*
X139893718Y-80738553D01*
X139874754Y-81039994D01*
X139874754Y-81040005D01*
X139893718Y-81341446D01*
X139893719Y-81341453D01*
X139950320Y-81638164D01*
X140043659Y-81925431D01*
X140043661Y-81925436D01*
X140172265Y-82198732D01*
X140172268Y-82198738D01*
X140334111Y-82453763D01*
X140334114Y-82453767D01*
X140334115Y-82453768D01*
X140526649Y-82686502D01*
X140526652Y-82686505D01*
X140746836Y-82893272D01*
X140746846Y-82893280D01*
X140991193Y-83070808D01*
X140991198Y-83070810D01*
X140991205Y-83070816D01*
X141255896Y-83216332D01*
X141255901Y-83216334D01*
X141255903Y-83216335D01*
X141255904Y-83216336D01*
X141536734Y-83327524D01*
X141536737Y-83327525D01*
X141586657Y-83340342D01*
X141829302Y-83402642D01*
X141976039Y-83421179D01*
X142128963Y-83440499D01*
X142128969Y-83440499D01*
X142128973Y-83440500D01*
X142128975Y-83440500D01*
X142431025Y-83440500D01*
X142431027Y-83440500D01*
X142431032Y-83440499D01*
X142431036Y-83440499D01*
X142510591Y-83430448D01*
X142730698Y-83402642D01*
X143023262Y-83327525D01*
X143023265Y-83327524D01*
X143304095Y-83216336D01*
X143304096Y-83216335D01*
X143304094Y-83216335D01*
X143304104Y-83216332D01*
X143568795Y-83070816D01*
X143813162Y-82893274D01*
X144033349Y-82686504D01*
X144059957Y-82654340D01*
X144117856Y-82615234D01*
X144187708Y-82613638D01*
X144247333Y-82650059D01*
X144277803Y-82712935D01*
X144279500Y-82733382D01*
X144279500Y-127846617D01*
X144259815Y-127913656D01*
X144207011Y-127959411D01*
X144137853Y-127969355D01*
X144074297Y-127940330D01*
X144059957Y-127925659D01*
X144033348Y-127893495D01*
X143813163Y-127686727D01*
X143813153Y-127686719D01*
X143568806Y-127509191D01*
X143568799Y-127509186D01*
X143568795Y-127509184D01*
X143304104Y-127363668D01*
X143304101Y-127363666D01*
X143304096Y-127363664D01*
X143304095Y-127363663D01*
X143023265Y-127252475D01*
X143023262Y-127252474D01*
X142730695Y-127177357D01*
X142431036Y-127139500D01*
X142431027Y-127139500D01*
X142128973Y-127139500D01*
X142128963Y-127139500D01*
X141829304Y-127177357D01*
X141536737Y-127252474D01*
X141536734Y-127252475D01*
X141255904Y-127363663D01*
X141255903Y-127363664D01*
X140991205Y-127509184D01*
X140991193Y-127509191D01*
X140746846Y-127686719D01*
X140746836Y-127686727D01*
X140526652Y-127893494D01*
X140334111Y-128126236D01*
X140172268Y-128381261D01*
X140172265Y-128381267D01*
X140043661Y-128654563D01*
X140043659Y-128654568D01*
X139950320Y-128941835D01*
X139893719Y-129238546D01*
X139893718Y-129238553D01*
X139874754Y-129539994D01*
X139874754Y-129540005D01*
X139893718Y-129841446D01*
X139893719Y-129841453D01*
X139950320Y-130138164D01*
X140043659Y-130425431D01*
X140043661Y-130425436D01*
X140172265Y-130698732D01*
X140172268Y-130698738D01*
X140334111Y-130953763D01*
X140526652Y-131186505D01*
X140674781Y-131325608D01*
X140710176Y-131385849D01*
X140707382Y-131455663D01*
X140667289Y-131512884D01*
X140602623Y-131539345D01*
X140589897Y-131540000D01*
X82970103Y-131540000D01*
X82903064Y-131520315D01*
X82857309Y-131467511D01*
X82847365Y-131398353D01*
X82876390Y-131334797D01*
X82885219Y-131325608D01*
X82916778Y-131295971D01*
X83033349Y-131186504D01*
X83225885Y-130953768D01*
X83387733Y-130698736D01*
X83516341Y-130425430D01*
X83609681Y-130138160D01*
X83666280Y-129841457D01*
X83685246Y-129540000D01*
X83666280Y-129238543D01*
X83609681Y-128941840D01*
X83516341Y-128654570D01*
X83387733Y-128381264D01*
X83359828Y-128337293D01*
X83225888Y-128126236D01*
X83096105Y-127969355D01*
X83033349Y-127893496D01*
X82813162Y-127686726D01*
X82813159Y-127686724D01*
X82813153Y-127686719D01*
X82568806Y-127509191D01*
X82568799Y-127509186D01*
X82568795Y-127509184D01*
X82304104Y-127363668D01*
X82304101Y-127363666D01*
X82304096Y-127363664D01*
X82304095Y-127363663D01*
X82023265Y-127252475D01*
X82023262Y-127252474D01*
X81730695Y-127177357D01*
X81431036Y-127139500D01*
X81431027Y-127139500D01*
X81128973Y-127139500D01*
X81128963Y-127139500D01*
X80829304Y-127177357D01*
X80536737Y-127252474D01*
X80536734Y-127252475D01*
X80255904Y-127363663D01*
X80255903Y-127363664D01*
X79991205Y-127509184D01*
X79991193Y-127509191D01*
X79746846Y-127686719D01*
X79746836Y-127686727D01*
X79526649Y-127893497D01*
X79526647Y-127893499D01*
X79499543Y-127926263D01*
X79441643Y-127965370D01*
X79371792Y-127966966D01*
X79312166Y-127930544D01*
X79281697Y-127867668D01*
X79280000Y-127847222D01*
X79280000Y-123412135D01*
X84859500Y-123412135D01*
X84859500Y-125507870D01*
X84859501Y-125507876D01*
X84865908Y-125567483D01*
X84916202Y-125702328D01*
X84916206Y-125702335D01*
X85002452Y-125817544D01*
X85002455Y-125817547D01*
X85117664Y-125903793D01*
X85117671Y-125903797D01*
X85252517Y-125954091D01*
X85252516Y-125954091D01*
X85259444Y-125954835D01*
X85312127Y-125960500D01*
X87407872Y-125960499D01*
X87467483Y-125954091D01*
X87602331Y-125903796D01*
X87717546Y-125817546D01*
X87803796Y-125702331D01*
X87854091Y-125567483D01*
X87860500Y-125507873D01*
X87860499Y-123412128D01*
X87854091Y-123352517D01*
X87845480Y-123329431D01*
X87803797Y-123217671D01*
X87803793Y-123217664D01*
X87717547Y-123102455D01*
X87717544Y-123102452D01*
X87602335Y-123016206D01*
X87602328Y-123016202D01*
X87467482Y-122965908D01*
X87467483Y-122965908D01*
X87407883Y-122959501D01*
X87407881Y-122959500D01*
X87407873Y-122959500D01*
X87407864Y-122959500D01*
X85312129Y-122959500D01*
X85312123Y-122959501D01*
X85252516Y-122965908D01*
X85117671Y-123016202D01*
X85117664Y-123016206D01*
X85002455Y-123102452D01*
X85002452Y-123102455D01*
X84916206Y-123217664D01*
X84916202Y-123217671D01*
X84865908Y-123352517D01*
X84859501Y-123412116D01*
X84859501Y-123412123D01*
X84859500Y-123412135D01*
X79280000Y-123412135D01*
X79280000Y-119459994D01*
X84854859Y-119459994D01*
X84854859Y-119460005D01*
X84875385Y-119707729D01*
X84875387Y-119707738D01*
X84936412Y-119948717D01*
X85036267Y-120176367D01*
X85136562Y-120329881D01*
X85877037Y-119589408D01*
X85894075Y-119652993D01*
X85959901Y-119767007D01*
X86052993Y-119860099D01*
X86167007Y-119925925D01*
X86230591Y-119942962D01*
X85489943Y-120683609D01*
X85536768Y-120720055D01*
X85536771Y-120720057D01*
X85755385Y-120838364D01*
X85755396Y-120838369D01*
X85990506Y-120919083D01*
X86235707Y-120960000D01*
X86484293Y-120960000D01*
X86729493Y-120919083D01*
X86964603Y-120838369D01*
X86964614Y-120838364D01*
X87183230Y-120720056D01*
X87183236Y-120720051D01*
X87230055Y-120683610D01*
X87230056Y-120683609D01*
X86489408Y-119942962D01*
X86552993Y-119925925D01*
X86667007Y-119860099D01*
X86760099Y-119767007D01*
X86825925Y-119652993D01*
X86842962Y-119589408D01*
X87583435Y-120329882D01*
X87683733Y-120176364D01*
X87783587Y-119948717D01*
X87844612Y-119707738D01*
X87844614Y-119707729D01*
X87865141Y-119460005D01*
X87865141Y-119459994D01*
X87844614Y-119212270D01*
X87844612Y-119212261D01*
X87783587Y-118971282D01*
X87683732Y-118743632D01*
X87583435Y-118590116D01*
X86842962Y-119330590D01*
X86825925Y-119267007D01*
X86760099Y-119152993D01*
X86667007Y-119059901D01*
X86552993Y-118994075D01*
X86489409Y-118977037D01*
X87230055Y-118236389D01*
X87230055Y-118236388D01*
X87183236Y-118199947D01*
X87183231Y-118199944D01*
X86964614Y-118081635D01*
X86964603Y-118081630D01*
X86729493Y-118000916D01*
X86484293Y-117960000D01*
X86235707Y-117960000D01*
X85990506Y-118000916D01*
X85755396Y-118081630D01*
X85755385Y-118081635D01*
X85536770Y-118199943D01*
X85489943Y-118236389D01*
X86230591Y-118977037D01*
X86167007Y-118994075D01*
X86052993Y-119059901D01*
X85959901Y-119152993D01*
X85894075Y-119267007D01*
X85877037Y-119330591D01*
X85136563Y-118590117D01*
X85036267Y-118743633D01*
X85036265Y-118743637D01*
X84936412Y-118971282D01*
X84875387Y-119212261D01*
X84875385Y-119212270D01*
X84854859Y-119459994D01*
X79280000Y-119459994D01*
X79280000Y-96519998D01*
X79974532Y-96519998D01*
X79974532Y-96520001D01*
X79994364Y-96746686D01*
X79994366Y-96746697D01*
X80053258Y-96966488D01*
X80053261Y-96966497D01*
X80149431Y-97172732D01*
X80149432Y-97172734D01*
X80279954Y-97359141D01*
X80440858Y-97520045D01*
X80440861Y-97520047D01*
X80627266Y-97650568D01*
X80833504Y-97746739D01*
X81053308Y-97805635D01*
X81215230Y-97819801D01*
X81279998Y-97825468D01*
X81280000Y-97825468D01*
X81280002Y-97825468D01*
X81336673Y-97820509D01*
X81506692Y-97805635D01*
X81726496Y-97746739D01*
X81932734Y-97650568D01*
X82119139Y-97520047D01*
X82280047Y-97359139D01*
X82410568Y-97172734D01*
X82506739Y-96966496D01*
X82565635Y-96746692D01*
X82585468Y-96520000D01*
X82565635Y-96293308D01*
X82506739Y-96073504D01*
X82427118Y-95902756D01*
X82415500Y-95850351D01*
X82415500Y-94971701D01*
X82435185Y-94904662D01*
X82451819Y-94884020D01*
X83625570Y-93710269D01*
X84881311Y-92454528D01*
X84912815Y-92411167D01*
X84986367Y-92309932D01*
X84986374Y-92309917D01*
X84986900Y-92309061D01*
X84987191Y-92308797D01*
X84989231Y-92305990D01*
X84989820Y-92306418D01*
X85038706Y-92262179D01*
X85107634Y-92250747D01*
X85171800Y-92278396D01*
X85180317Y-92286156D01*
X85188181Y-92294020D01*
X85221666Y-92355343D01*
X85224500Y-92381701D01*
X85224500Y-93208040D01*
X85204815Y-93275079D01*
X85202076Y-93279161D01*
X85185967Y-93302169D01*
X85185963Y-93302174D01*
X85086098Y-93516335D01*
X85086094Y-93516344D01*
X85024938Y-93744586D01*
X85024936Y-93744596D01*
X85004341Y-93979999D01*
X85004341Y-93980000D01*
X85024936Y-94215403D01*
X85024938Y-94215413D01*
X85086094Y-94443655D01*
X85086096Y-94443659D01*
X85086097Y-94443663D01*
X85090000Y-94452032D01*
X85185965Y-94657830D01*
X85185967Y-94657834D01*
X85281743Y-94794615D01*
X85321501Y-94851396D01*
X85321506Y-94851402D01*
X85443430Y-94973326D01*
X85476915Y-95034649D01*
X85471931Y-95104341D01*
X85430059Y-95160274D01*
X85399083Y-95177189D01*
X85267669Y-95226203D01*
X85267664Y-95226206D01*
X85152455Y-95312452D01*
X85152452Y-95312455D01*
X85066206Y-95427664D01*
X85066202Y-95427671D01*
X85015908Y-95562517D01*
X85009501Y-95622116D01*
X85009501Y-95622123D01*
X85009500Y-95622135D01*
X85009500Y-97417870D01*
X85009501Y-97417876D01*
X85015908Y-97477483D01*
X85066202Y-97612328D01*
X85066203Y-97612329D01*
X85066204Y-97612331D01*
X85152454Y-97727546D01*
X85174810Y-97744281D01*
X85216681Y-97800213D01*
X85224500Y-97843548D01*
X85224500Y-100276450D01*
X85204815Y-100343489D01*
X85174812Y-100375716D01*
X85152457Y-100392450D01*
X85152451Y-100392457D01*
X85066206Y-100507664D01*
X85066202Y-100507671D01*
X85015908Y-100642517D01*
X85009501Y-100702116D01*
X85009500Y-100702127D01*
X85009500Y-102497870D01*
X85009501Y-102497876D01*
X85015908Y-102557483D01*
X85066202Y-102692328D01*
X85066206Y-102692335D01*
X85152452Y-102807544D01*
X85152455Y-102807547D01*
X85267664Y-102893793D01*
X85267671Y-102893797D01*
X85399081Y-102942810D01*
X85455015Y-102984681D01*
X85479432Y-103050145D01*
X85464580Y-103118418D01*
X85443430Y-103146673D01*
X85321503Y-103268600D01*
X85185965Y-103462169D01*
X85185964Y-103462171D01*
X85086098Y-103676335D01*
X85086094Y-103676344D01*
X85024938Y-103904586D01*
X85024936Y-103904596D01*
X85004341Y-104139999D01*
X85004341Y-104140000D01*
X85024936Y-104375403D01*
X85024938Y-104375413D01*
X85086094Y-104603655D01*
X85086096Y-104603659D01*
X85086097Y-104603663D01*
X85100870Y-104635343D01*
X85185965Y-104817830D01*
X85185967Y-104817834D01*
X85321501Y-105011395D01*
X85321506Y-105011402D01*
X85488597Y-105178493D01*
X85488603Y-105178498D01*
X85674594Y-105308730D01*
X85718219Y-105363307D01*
X85725413Y-105432805D01*
X85693890Y-105495160D01*
X85674595Y-105511880D01*
X85488922Y-105641890D01*
X85488920Y-105641891D01*
X85321891Y-105808920D01*
X85321886Y-105808926D01*
X85186400Y-106002420D01*
X85186399Y-106002422D01*
X85086570Y-106216507D01*
X85086567Y-106216513D01*
X85029364Y-106429999D01*
X85029364Y-106430000D01*
X85926988Y-106430000D01*
X85894075Y-106487007D01*
X85860000Y-106614174D01*
X85860000Y-106745826D01*
X85894075Y-106872993D01*
X85926988Y-106930000D01*
X85029364Y-106930000D01*
X85086567Y-107143486D01*
X85086570Y-107143492D01*
X85186399Y-107357578D01*
X85321894Y-107551082D01*
X85488917Y-107718105D01*
X85682421Y-107853600D01*
X85896507Y-107953429D01*
X85896516Y-107953433D01*
X86110000Y-108010634D01*
X86110000Y-107113012D01*
X86167007Y-107145925D01*
X86294174Y-107180000D01*
X86425826Y-107180000D01*
X86552993Y-107145925D01*
X86610000Y-107113012D01*
X86610000Y-108010633D01*
X86823483Y-107953433D01*
X86823492Y-107953429D01*
X87037578Y-107853600D01*
X87231082Y-107718105D01*
X87398105Y-107551082D01*
X87533600Y-107357578D01*
X87633429Y-107143492D01*
X87633432Y-107143486D01*
X87690636Y-106930000D01*
X86793012Y-106930000D01*
X86825925Y-106872993D01*
X86860000Y-106745826D01*
X86860000Y-106614174D01*
X86825925Y-106487007D01*
X86793012Y-106430000D01*
X87690636Y-106430000D01*
X87690635Y-106429999D01*
X87633432Y-106216513D01*
X87633429Y-106216507D01*
X87533600Y-106002422D01*
X87533599Y-106002420D01*
X87398113Y-105808926D01*
X87398108Y-105808920D01*
X87231078Y-105641890D01*
X87045405Y-105511879D01*
X87001780Y-105457302D01*
X86994588Y-105387804D01*
X87026110Y-105325449D01*
X87045406Y-105308730D01*
X87099907Y-105270568D01*
X87231401Y-105178495D01*
X87398495Y-105011401D01*
X87534035Y-104817830D01*
X87633903Y-104603663D01*
X87695063Y-104375408D01*
X87715659Y-104140000D01*
X87695063Y-103904592D01*
X87642000Y-103706554D01*
X87633905Y-103676344D01*
X87633904Y-103676343D01*
X87633903Y-103676337D01*
X87534035Y-103462171D01*
X87438253Y-103325380D01*
X87398496Y-103268600D01*
X87358999Y-103229103D01*
X87276567Y-103146671D01*
X87243084Y-103085351D01*
X87248068Y-103015659D01*
X87289939Y-102959725D01*
X87320915Y-102942810D01*
X87452331Y-102893796D01*
X87567546Y-102807546D01*
X87572364Y-102801111D01*
X87584282Y-102785190D01*
X87640215Y-102743318D01*
X87683549Y-102735500D01*
X88798299Y-102735500D01*
X88865338Y-102755185D01*
X88885980Y-102771819D01*
X90688181Y-104574020D01*
X90721666Y-104635343D01*
X90724500Y-104661701D01*
X90724500Y-122429370D01*
X90752458Y-122605893D01*
X90794146Y-122734194D01*
X90807688Y-122775875D01*
X90807691Y-122775881D01*
X90888833Y-122935132D01*
X90947736Y-123016204D01*
X90993886Y-123079724D01*
X90993891Y-123079730D01*
X92705097Y-124790936D01*
X92737190Y-124846521D01*
X92753261Y-124906496D01*
X92849431Y-125112732D01*
X92849432Y-125112734D01*
X92979954Y-125299141D01*
X93140858Y-125460045D01*
X93140861Y-125460047D01*
X93327266Y-125590568D01*
X93533504Y-125686739D01*
X93753308Y-125745635D01*
X93915230Y-125759801D01*
X93979998Y-125765468D01*
X93980000Y-125765468D01*
X93980002Y-125765468D01*
X94036673Y-125760509D01*
X94206692Y-125745635D01*
X94426496Y-125686739D01*
X94632734Y-125590568D01*
X94819139Y-125460047D01*
X94980047Y-125299139D01*
X95110568Y-125112734D01*
X95206739Y-124906496D01*
X95265635Y-124686692D01*
X95285468Y-124460000D01*
X95265635Y-124233308D01*
X95206739Y-124013504D01*
X95110568Y-123807266D01*
X94980047Y-123620861D01*
X94980045Y-123620858D01*
X94819141Y-123459954D01*
X94632734Y-123329432D01*
X94632732Y-123329431D01*
X94426496Y-123233261D01*
X94366521Y-123217190D01*
X94310936Y-123185097D01*
X93031819Y-121905980D01*
X92998334Y-121844657D01*
X92995500Y-121818299D01*
X92995500Y-120595854D01*
X93015185Y-120528815D01*
X93067989Y-120483060D01*
X93137147Y-120473116D01*
X93190624Y-120494280D01*
X93327510Y-120590129D01*
X93327516Y-120590133D01*
X93533673Y-120686265D01*
X93533682Y-120686269D01*
X93753389Y-120745139D01*
X93753400Y-120745141D01*
X93979998Y-120764966D01*
X93980002Y-120764966D01*
X94206599Y-120745141D01*
X94206610Y-120745139D01*
X94426317Y-120686269D01*
X94426331Y-120686264D01*
X94632478Y-120590136D01*
X94705471Y-120539024D01*
X94026447Y-119860000D01*
X94032661Y-119860000D01*
X94134394Y-119832741D01*
X94225606Y-119780080D01*
X94300080Y-119705606D01*
X94352741Y-119614394D01*
X94380000Y-119512661D01*
X94380000Y-119506447D01*
X95059025Y-120185472D01*
X95076777Y-120183919D01*
X95093501Y-120170551D01*
X95162999Y-120163357D01*
X95225354Y-120194879D01*
X95260769Y-120255109D01*
X95264500Y-120285299D01*
X95264500Y-121611670D01*
X95292458Y-121788193D01*
X95334146Y-121916494D01*
X95347688Y-121958175D01*
X95347691Y-121958181D01*
X95428833Y-122117432D01*
X95525611Y-122250634D01*
X95525610Y-122250634D01*
X95533886Y-122262025D01*
X95533892Y-122262032D01*
X96601292Y-123329431D01*
X97555189Y-124283328D01*
X97681572Y-124409711D01*
X97750790Y-124460001D01*
X97826169Y-124514768D01*
X97909008Y-124556975D01*
X97985419Y-124595909D01*
X98027102Y-124609451D01*
X98027104Y-124609453D01*
X98027105Y-124609453D01*
X98059180Y-124619875D01*
X98155403Y-124651141D01*
X98231059Y-124663123D01*
X98331930Y-124679100D01*
X98331934Y-124679100D01*
X99850670Y-124679100D01*
X99929124Y-124666673D01*
X100027197Y-124651141D01*
X100155493Y-124609453D01*
X100197181Y-124595909D01*
X100356432Y-124514767D01*
X100431814Y-124459998D01*
X128234532Y-124459998D01*
X128234532Y-124460001D01*
X128254364Y-124686686D01*
X128254366Y-124686697D01*
X128313258Y-124906488D01*
X128313261Y-124906497D01*
X128409431Y-125112732D01*
X128409432Y-125112734D01*
X128539954Y-125299141D01*
X128700858Y-125460045D01*
X128700861Y-125460047D01*
X128887266Y-125590568D01*
X129093504Y-125686739D01*
X129313308Y-125745635D01*
X129475230Y-125759801D01*
X129539998Y-125765468D01*
X129540000Y-125765468D01*
X129540002Y-125765468D01*
X129596673Y-125760509D01*
X129766692Y-125745635D01*
X129986496Y-125686739D01*
X130192734Y-125590568D01*
X130379139Y-125460047D01*
X130540047Y-125299139D01*
X130670568Y-125112734D01*
X130766739Y-124906496D01*
X130825635Y-124686692D01*
X130845468Y-124460000D01*
X130825635Y-124233308D01*
X130766739Y-124013504D01*
X130670568Y-123807266D01*
X130540047Y-123620861D01*
X130540045Y-123620858D01*
X130379141Y-123459954D01*
X130310848Y-123412135D01*
X135659500Y-123412135D01*
X135659500Y-125507870D01*
X135659501Y-125507876D01*
X135665908Y-125567483D01*
X135716202Y-125702328D01*
X135716206Y-125702335D01*
X135802452Y-125817544D01*
X135802455Y-125817547D01*
X135917664Y-125903793D01*
X135917671Y-125903797D01*
X136052517Y-125954091D01*
X136052516Y-125954091D01*
X136059444Y-125954835D01*
X136112127Y-125960500D01*
X138207872Y-125960499D01*
X138267483Y-125954091D01*
X138402331Y-125903796D01*
X138517546Y-125817546D01*
X138603796Y-125702331D01*
X138654091Y-125567483D01*
X138660500Y-125507873D01*
X138660499Y-123412128D01*
X138654091Y-123352517D01*
X138645480Y-123329431D01*
X138603797Y-123217671D01*
X138603793Y-123217664D01*
X138517547Y-123102455D01*
X138517544Y-123102452D01*
X138402335Y-123016206D01*
X138402328Y-123016202D01*
X138267482Y-122965908D01*
X138267483Y-122965908D01*
X138207883Y-122959501D01*
X138207881Y-122959500D01*
X138207873Y-122959500D01*
X138207864Y-122959500D01*
X136112129Y-122959500D01*
X136112123Y-122959501D01*
X136052516Y-122965908D01*
X135917671Y-123016202D01*
X135917664Y-123016206D01*
X135802455Y-123102452D01*
X135802452Y-123102455D01*
X135716206Y-123217664D01*
X135716202Y-123217671D01*
X135665908Y-123352517D01*
X135659501Y-123412116D01*
X135659501Y-123412123D01*
X135659500Y-123412135D01*
X130310848Y-123412135D01*
X130192734Y-123329432D01*
X130192732Y-123329431D01*
X129986497Y-123233261D01*
X129986488Y-123233258D01*
X129766697Y-123174366D01*
X129766693Y-123174365D01*
X129766692Y-123174365D01*
X129766691Y-123174364D01*
X129766686Y-123174364D01*
X129540002Y-123154532D01*
X129539998Y-123154532D01*
X129313313Y-123174364D01*
X129313302Y-123174366D01*
X129093511Y-123233258D01*
X129093502Y-123233261D01*
X128887267Y-123329431D01*
X128887265Y-123329432D01*
X128700858Y-123459954D01*
X128539954Y-123620858D01*
X128409432Y-123807265D01*
X128409431Y-123807267D01*
X128313261Y-124013502D01*
X128313258Y-124013511D01*
X128254366Y-124233302D01*
X128254364Y-124233313D01*
X128234532Y-124459998D01*
X100431814Y-124459998D01*
X100501028Y-124409711D01*
X100627411Y-124283328D01*
X100685970Y-124224769D01*
X100685983Y-124224754D01*
X105910911Y-118999829D01*
X105955119Y-118938981D01*
X106015967Y-118855232D01*
X106097109Y-118695981D01*
X106152340Y-118525997D01*
X106180300Y-118349466D01*
X106180300Y-116456900D01*
X106199985Y-116389861D01*
X106216614Y-116369224D01*
X115439470Y-107146367D01*
X115500789Y-107112885D01*
X115570481Y-107117869D01*
X115626414Y-107159741D01*
X115639529Y-107181646D01*
X115709864Y-107332480D01*
X115760974Y-107405472D01*
X116440000Y-106726446D01*
X116440000Y-106732661D01*
X116467259Y-106834394D01*
X116519920Y-106925606D01*
X116594394Y-107000080D01*
X116685606Y-107052741D01*
X116787339Y-107080000D01*
X116793553Y-107080000D01*
X116114526Y-107759025D01*
X116187513Y-107810132D01*
X116187521Y-107810136D01*
X116393668Y-107906264D01*
X116393682Y-107906269D01*
X116613389Y-107965139D01*
X116613400Y-107965141D01*
X116839998Y-107984966D01*
X116840002Y-107984966D01*
X117066599Y-107965141D01*
X117066610Y-107965139D01*
X117286317Y-107906269D01*
X117286331Y-107906264D01*
X117492478Y-107810136D01*
X117565471Y-107759024D01*
X116886447Y-107080000D01*
X116892661Y-107080000D01*
X116994394Y-107052741D01*
X117085606Y-107000080D01*
X117160080Y-106925606D01*
X117212741Y-106834394D01*
X117240000Y-106732661D01*
X117240000Y-106726447D01*
X117919024Y-107405471D01*
X117970136Y-107332478D01*
X118066264Y-107126331D01*
X118066269Y-107126317D01*
X118125139Y-106906610D01*
X118125141Y-106906599D01*
X118144966Y-106680002D01*
X118144966Y-106679997D01*
X118125141Y-106453400D01*
X118125139Y-106453389D01*
X118066269Y-106233682D01*
X118066264Y-106233668D01*
X117970136Y-106027521D01*
X117970132Y-106027513D01*
X117919025Y-105954526D01*
X117240000Y-106633551D01*
X117240000Y-106627339D01*
X117212741Y-106525606D01*
X117160080Y-106434394D01*
X117085606Y-106359920D01*
X116994394Y-106307259D01*
X116892661Y-106280000D01*
X116886446Y-106280000D01*
X117565472Y-105600974D01*
X117492480Y-105549864D01*
X117434134Y-105522657D01*
X117381695Y-105476484D01*
X117362543Y-105409291D01*
X117382759Y-105342410D01*
X117434134Y-105297893D01*
X117492734Y-105270568D01*
X117679139Y-105140047D01*
X117840047Y-104979139D01*
X117970568Y-104792734D01*
X118066739Y-104586496D01*
X118125635Y-104366692D01*
X118145468Y-104140000D01*
X118125635Y-103913308D01*
X118066739Y-103693504D01*
X117970568Y-103487266D01*
X117840047Y-103300861D01*
X117840045Y-103300858D01*
X117679141Y-103139954D01*
X117492734Y-103009432D01*
X117492728Y-103009429D01*
X117439943Y-102984815D01*
X117434724Y-102982381D01*
X117382285Y-102936210D01*
X117363133Y-102869017D01*
X117383348Y-102802135D01*
X117434725Y-102757618D01*
X117492734Y-102730568D01*
X117679139Y-102600047D01*
X117840047Y-102439139D01*
X117970568Y-102252734D01*
X118066739Y-102046496D01*
X118125635Y-101826692D01*
X118145468Y-101600000D01*
X118125635Y-101373308D01*
X118066739Y-101153504D01*
X117970568Y-100947266D01*
X117840047Y-100760861D01*
X117840045Y-100760858D01*
X117679141Y-100599954D01*
X117492734Y-100469432D01*
X117492728Y-100469429D01*
X117434725Y-100442382D01*
X117382285Y-100396210D01*
X117363133Y-100329017D01*
X117383348Y-100262135D01*
X117434725Y-100217618D01*
X117492734Y-100190568D01*
X117679139Y-100060047D01*
X117840047Y-99899139D01*
X117970568Y-99712734D01*
X118066739Y-99506496D01*
X118125635Y-99286692D01*
X118145468Y-99060000D01*
X118125635Y-98833308D01*
X118066739Y-98613504D01*
X117970568Y-98407266D01*
X117840047Y-98220861D01*
X117840045Y-98220858D01*
X117679141Y-98059954D01*
X117492734Y-97929432D01*
X117492728Y-97929429D01*
X117434725Y-97902382D01*
X117382285Y-97856210D01*
X117363133Y-97789017D01*
X117383348Y-97722135D01*
X117434725Y-97677618D01*
X117492734Y-97650568D01*
X117679139Y-97520047D01*
X117840047Y-97359139D01*
X117970568Y-97172734D01*
X118066739Y-96966496D01*
X118125635Y-96746692D01*
X118145468Y-96520000D01*
X118125635Y-96293308D01*
X118066739Y-96073504D01*
X117970568Y-95867266D01*
X117840047Y-95680861D01*
X117840045Y-95680858D01*
X117679141Y-95519954D01*
X117492734Y-95389432D01*
X117492728Y-95389429D01*
X117450665Y-95369815D01*
X117434724Y-95362381D01*
X117382285Y-95316210D01*
X117363133Y-95249017D01*
X117383348Y-95182135D01*
X117434725Y-95137618D01*
X117492734Y-95110568D01*
X117679139Y-94980047D01*
X117840047Y-94819139D01*
X117970568Y-94632734D01*
X118066739Y-94426496D01*
X118125635Y-94206692D01*
X118145468Y-93980000D01*
X118125635Y-93753308D01*
X118066739Y-93533504D01*
X117970568Y-93327266D01*
X117840047Y-93140861D01*
X117840045Y-93140858D01*
X117679141Y-92979954D01*
X117492734Y-92849432D01*
X117492728Y-92849429D01*
X117465038Y-92836517D01*
X117434724Y-92822381D01*
X117382285Y-92776210D01*
X117363133Y-92709017D01*
X117383348Y-92642135D01*
X117434725Y-92597618D01*
X117492734Y-92570568D01*
X117679139Y-92440047D01*
X117840047Y-92279139D01*
X117970568Y-92092734D01*
X118066739Y-91886496D01*
X118125635Y-91666692D01*
X118145468Y-91440000D01*
X118125635Y-91213308D01*
X118066739Y-90993504D01*
X117970568Y-90787266D01*
X117840047Y-90600861D01*
X117840045Y-90600858D01*
X117679141Y-90439954D01*
X117492734Y-90309432D01*
X117492728Y-90309429D01*
X117450665Y-90289815D01*
X117434724Y-90282381D01*
X117382285Y-90236210D01*
X117363133Y-90169017D01*
X117383348Y-90102135D01*
X117434725Y-90057618D01*
X117492734Y-90030568D01*
X117679139Y-89900047D01*
X117840047Y-89739139D01*
X117970568Y-89552734D01*
X118066739Y-89346496D01*
X118082808Y-89286521D01*
X118114899Y-89230938D01*
X119814021Y-87531819D01*
X119875344Y-87498334D01*
X119901702Y-87495500D01*
X123880267Y-87495500D01*
X123932672Y-87507118D01*
X123955189Y-87517618D01*
X124007628Y-87563791D01*
X124026780Y-87630984D01*
X124006564Y-87697865D01*
X123955189Y-87742382D01*
X123826340Y-87802465D01*
X123826338Y-87802466D01*
X123645377Y-87929175D01*
X123489175Y-88085377D01*
X123362466Y-88266338D01*
X123362465Y-88266340D01*
X123269107Y-88466548D01*
X123269104Y-88466554D01*
X123211930Y-88679929D01*
X123211929Y-88679937D01*
X123192677Y-88899997D01*
X123192677Y-88900002D01*
X123211929Y-89120062D01*
X123211930Y-89120070D01*
X123269104Y-89333445D01*
X123269105Y-89333447D01*
X123269106Y-89333450D01*
X123311318Y-89423974D01*
X123362466Y-89533662D01*
X123362468Y-89533666D01*
X123489170Y-89714615D01*
X123489175Y-89714621D01*
X123645378Y-89870824D01*
X123645384Y-89870829D01*
X123826333Y-89997531D01*
X123826335Y-89997532D01*
X123826338Y-89997534D01*
X123940250Y-90050652D01*
X123955189Y-90057618D01*
X124007628Y-90103790D01*
X124026780Y-90170984D01*
X124006564Y-90237865D01*
X123955189Y-90282382D01*
X123826340Y-90342465D01*
X123826338Y-90342466D01*
X123645377Y-90469175D01*
X123489175Y-90625377D01*
X123362466Y-90806338D01*
X123362465Y-90806340D01*
X123269107Y-91006548D01*
X123269104Y-91006554D01*
X123211930Y-91219929D01*
X123211929Y-91219937D01*
X123192677Y-91439997D01*
X123192677Y-91440002D01*
X123211929Y-91660062D01*
X123211930Y-91660070D01*
X123269104Y-91873445D01*
X123269105Y-91873447D01*
X123269106Y-91873450D01*
X123362464Y-92073658D01*
X123362466Y-92073662D01*
X123362468Y-92073666D01*
X123489170Y-92254615D01*
X123489175Y-92254621D01*
X123645378Y-92410824D01*
X123645384Y-92410829D01*
X123826333Y-92537531D01*
X123826335Y-92537532D01*
X123826338Y-92537534D01*
X123945748Y-92593215D01*
X123955189Y-92597618D01*
X124007628Y-92643790D01*
X124026780Y-92710984D01*
X124006564Y-92777865D01*
X123955189Y-92822382D01*
X123826340Y-92882465D01*
X123826338Y-92882466D01*
X123645377Y-93009175D01*
X123489175Y-93165377D01*
X123362466Y-93346338D01*
X123362465Y-93346340D01*
X123269107Y-93546548D01*
X123269104Y-93546554D01*
X123211930Y-93759929D01*
X123211929Y-93759937D01*
X123192677Y-93979997D01*
X123192677Y-93980002D01*
X123211929Y-94200062D01*
X123211930Y-94200070D01*
X123269104Y-94413445D01*
X123269105Y-94413447D01*
X123269106Y-94413450D01*
X123287097Y-94452032D01*
X123362466Y-94613662D01*
X123362468Y-94613666D01*
X123489170Y-94794615D01*
X123489175Y-94794621D01*
X123645378Y-94950824D01*
X123645384Y-94950829D01*
X123826333Y-95077531D01*
X123826335Y-95077532D01*
X123826338Y-95077534D01*
X123945748Y-95133215D01*
X123955189Y-95137618D01*
X124007628Y-95183790D01*
X124026780Y-95250984D01*
X124006564Y-95317865D01*
X123955189Y-95362382D01*
X123826340Y-95422465D01*
X123826338Y-95422466D01*
X123645377Y-95549175D01*
X123489175Y-95705377D01*
X123362466Y-95886338D01*
X123362465Y-95886340D01*
X123269107Y-96086548D01*
X123269104Y-96086554D01*
X123211930Y-96299929D01*
X123211929Y-96299937D01*
X123192677Y-96519997D01*
X123192677Y-96520002D01*
X123211929Y-96740062D01*
X123211930Y-96740070D01*
X123269104Y-96953445D01*
X123269105Y-96953447D01*
X123269106Y-96953450D01*
X123362466Y-97153662D01*
X123362468Y-97153666D01*
X123489170Y-97334615D01*
X123489175Y-97334621D01*
X123645378Y-97490824D01*
X123645384Y-97490829D01*
X123826333Y-97617531D01*
X123826335Y-97617532D01*
X123826338Y-97617534D01*
X123945748Y-97673215D01*
X123955189Y-97677618D01*
X124007628Y-97723790D01*
X124026780Y-97790984D01*
X124006564Y-97857865D01*
X123955189Y-97902382D01*
X123826340Y-97962465D01*
X123826338Y-97962466D01*
X123645377Y-98089175D01*
X123489175Y-98245377D01*
X123362466Y-98426338D01*
X123362465Y-98426340D01*
X123269107Y-98626548D01*
X123269104Y-98626554D01*
X123211930Y-98839929D01*
X123211929Y-98839937D01*
X123192677Y-99059997D01*
X123192677Y-99060002D01*
X123211929Y-99280062D01*
X123211930Y-99280070D01*
X123269104Y-99493445D01*
X123269105Y-99493447D01*
X123269106Y-99493450D01*
X123311389Y-99584127D01*
X123362466Y-99693662D01*
X123362468Y-99693666D01*
X123489170Y-99874615D01*
X123489175Y-99874621D01*
X123645378Y-100030824D01*
X123645384Y-100030829D01*
X123826333Y-100157531D01*
X123826335Y-100157532D01*
X123826338Y-100157534D01*
X123945748Y-100213215D01*
X123955189Y-100217618D01*
X124007628Y-100263790D01*
X124026780Y-100330984D01*
X124006564Y-100397865D01*
X123955189Y-100442382D01*
X123826340Y-100502465D01*
X123826338Y-100502466D01*
X123645377Y-100629175D01*
X123489175Y-100785377D01*
X123362466Y-100966338D01*
X123362465Y-100966340D01*
X123269107Y-101166548D01*
X123269104Y-101166554D01*
X123211930Y-101379929D01*
X123211929Y-101379937D01*
X123192677Y-101599997D01*
X123192677Y-101600002D01*
X123211929Y-101820062D01*
X123211930Y-101820070D01*
X123269104Y-102033445D01*
X123269105Y-102033447D01*
X123269106Y-102033450D01*
X123275190Y-102046497D01*
X123362466Y-102233662D01*
X123362468Y-102233666D01*
X123489170Y-102414615D01*
X123489175Y-102414621D01*
X123645378Y-102570824D01*
X123645384Y-102570829D01*
X123826333Y-102697531D01*
X123826335Y-102697532D01*
X123826338Y-102697534D01*
X123907757Y-102735500D01*
X123955189Y-102757618D01*
X124007628Y-102803790D01*
X124026780Y-102870984D01*
X124006564Y-102937865D01*
X123955189Y-102982382D01*
X123826340Y-103042465D01*
X123826338Y-103042466D01*
X123645377Y-103169175D01*
X123489175Y-103325377D01*
X123362466Y-103506338D01*
X123362465Y-103506340D01*
X123269107Y-103706548D01*
X123269104Y-103706554D01*
X123211930Y-103919929D01*
X123211929Y-103919937D01*
X123192677Y-104139997D01*
X123192677Y-104140002D01*
X123211929Y-104360062D01*
X123211930Y-104360070D01*
X123269104Y-104573445D01*
X123269105Y-104573447D01*
X123269106Y-104573450D01*
X123283195Y-104603664D01*
X123362466Y-104773662D01*
X123362468Y-104773666D01*
X123489170Y-104954615D01*
X123489175Y-104954621D01*
X123645378Y-105110824D01*
X123645384Y-105110829D01*
X123826333Y-105237531D01*
X123826335Y-105237532D01*
X123826338Y-105237534D01*
X123945748Y-105293215D01*
X123955189Y-105297618D01*
X124007628Y-105343790D01*
X124026780Y-105410984D01*
X124006564Y-105477865D01*
X123955189Y-105522382D01*
X123826340Y-105582465D01*
X123826338Y-105582466D01*
X123645377Y-105709175D01*
X123489175Y-105865377D01*
X123362466Y-106046338D01*
X123362465Y-106046340D01*
X123269107Y-106246548D01*
X123269104Y-106246554D01*
X123211930Y-106459929D01*
X123211929Y-106459937D01*
X123192677Y-106679997D01*
X123192677Y-106680002D01*
X123211929Y-106900062D01*
X123211930Y-106900070D01*
X123269104Y-107113445D01*
X123269105Y-107113447D01*
X123269106Y-107113450D01*
X123362466Y-107313662D01*
X123362468Y-107313666D01*
X123489170Y-107494615D01*
X123489175Y-107494621D01*
X123645378Y-107650824D01*
X123645384Y-107650829D01*
X123826333Y-107777531D01*
X123826335Y-107777532D01*
X123826338Y-107777534D01*
X123896245Y-107810132D01*
X123955189Y-107837618D01*
X124007628Y-107883790D01*
X124026780Y-107950984D01*
X124006564Y-108017865D01*
X123955189Y-108062382D01*
X123826340Y-108122465D01*
X123826338Y-108122466D01*
X123645377Y-108249175D01*
X123489175Y-108405377D01*
X123362466Y-108586338D01*
X123362465Y-108586340D01*
X123269107Y-108786548D01*
X123269104Y-108786554D01*
X123211930Y-108999929D01*
X123211929Y-108999937D01*
X123192677Y-109219997D01*
X123192677Y-109220002D01*
X123211929Y-109440062D01*
X123211930Y-109440070D01*
X123269104Y-109653445D01*
X123269105Y-109653447D01*
X123269106Y-109653450D01*
X123283195Y-109683664D01*
X123362466Y-109853662D01*
X123362468Y-109853666D01*
X123489170Y-110034615D01*
X123489175Y-110034621D01*
X123645378Y-110190824D01*
X123645384Y-110190829D01*
X123826333Y-110317531D01*
X123826335Y-110317532D01*
X123826338Y-110317534D01*
X123936350Y-110368833D01*
X123955189Y-110377618D01*
X124007628Y-110423790D01*
X124026780Y-110490984D01*
X124006564Y-110557865D01*
X123955189Y-110602382D01*
X123826340Y-110662465D01*
X123826338Y-110662466D01*
X123645377Y-110789175D01*
X123489175Y-110945377D01*
X123362466Y-111126338D01*
X123362465Y-111126340D01*
X123269107Y-111326548D01*
X123269104Y-111326554D01*
X123211930Y-111539929D01*
X123211929Y-111539937D01*
X123192677Y-111759997D01*
X123192677Y-111760002D01*
X123211929Y-111980062D01*
X123211930Y-111980070D01*
X123269104Y-112193445D01*
X123269105Y-112193447D01*
X123269106Y-112193450D01*
X123300139Y-112260000D01*
X123362466Y-112393662D01*
X123362468Y-112393666D01*
X123489170Y-112574615D01*
X123489175Y-112574621D01*
X123645378Y-112730824D01*
X123645384Y-112730829D01*
X123826333Y-112857531D01*
X123826335Y-112857532D01*
X123826338Y-112857534D01*
X123945748Y-112913215D01*
X123955189Y-112917618D01*
X124007628Y-112963790D01*
X124026780Y-113030984D01*
X124006564Y-113097865D01*
X123955189Y-113142382D01*
X123826340Y-113202465D01*
X123826338Y-113202466D01*
X123645377Y-113329175D01*
X123489175Y-113485377D01*
X123362466Y-113666338D01*
X123362465Y-113666340D01*
X123269107Y-113866548D01*
X123269104Y-113866554D01*
X123211930Y-114079929D01*
X123211929Y-114079937D01*
X123192677Y-114299997D01*
X123192677Y-114300002D01*
X123211929Y-114520062D01*
X123211930Y-114520070D01*
X123269104Y-114733445D01*
X123269105Y-114733447D01*
X123269106Y-114733450D01*
X123283195Y-114763664D01*
X123362466Y-114933662D01*
X123362468Y-114933666D01*
X123489170Y-115114615D01*
X123489175Y-115114621D01*
X123645378Y-115270824D01*
X123645384Y-115270829D01*
X123826333Y-115397531D01*
X123826335Y-115397532D01*
X123826338Y-115397534D01*
X123897178Y-115430567D01*
X123955189Y-115457618D01*
X124007628Y-115503790D01*
X124026780Y-115570984D01*
X124006564Y-115637865D01*
X123955189Y-115682382D01*
X123826340Y-115742465D01*
X123826338Y-115742466D01*
X123645377Y-115869175D01*
X123489175Y-116025377D01*
X123362466Y-116206338D01*
X123362465Y-116206340D01*
X123286514Y-116369219D01*
X123269578Y-116405539D01*
X123269107Y-116406548D01*
X123269104Y-116406554D01*
X123211930Y-116619929D01*
X123211929Y-116619937D01*
X123192677Y-116839997D01*
X123192677Y-116840002D01*
X123211929Y-117060062D01*
X123211930Y-117060070D01*
X123269104Y-117273445D01*
X123269105Y-117273447D01*
X123269106Y-117273450D01*
X123362466Y-117473662D01*
X123362468Y-117473666D01*
X123489170Y-117654615D01*
X123489175Y-117654621D01*
X123645378Y-117810824D01*
X123645384Y-117810829D01*
X123826333Y-117937531D01*
X123826335Y-117937532D01*
X123826338Y-117937534D01*
X123874517Y-117960000D01*
X123955781Y-117997894D01*
X124008220Y-118044066D01*
X124027372Y-118111260D01*
X124007156Y-118178141D01*
X123955781Y-118222658D01*
X123826590Y-118282901D01*
X123761811Y-118328258D01*
X124432554Y-118999000D01*
X124409840Y-118999000D01*
X124312939Y-119024964D01*
X124226060Y-119075124D01*
X124155124Y-119146060D01*
X124104964Y-119232939D01*
X124079000Y-119329840D01*
X124079000Y-119352553D01*
X123408258Y-118681811D01*
X123362901Y-118746590D01*
X123269579Y-118946720D01*
X123269575Y-118946729D01*
X123212426Y-119160013D01*
X123212424Y-119160023D01*
X123193179Y-119379999D01*
X123193179Y-119380000D01*
X123212424Y-119599976D01*
X123212426Y-119599986D01*
X123269575Y-119813270D01*
X123269580Y-119813284D01*
X123362898Y-120013405D01*
X123362901Y-120013411D01*
X123408258Y-120078187D01*
X123408258Y-120078188D01*
X124079000Y-119407446D01*
X124079000Y-119430160D01*
X124104964Y-119527061D01*
X124155124Y-119613940D01*
X124226060Y-119684876D01*
X124312939Y-119735036D01*
X124409840Y-119761000D01*
X124432553Y-119761000D01*
X123761810Y-120431740D01*
X123826589Y-120477098D01*
X123955781Y-120537342D01*
X124008220Y-120583514D01*
X124027372Y-120650708D01*
X124007156Y-120717589D01*
X123955781Y-120762106D01*
X123826340Y-120822465D01*
X123826338Y-120822466D01*
X123645377Y-120949175D01*
X123489175Y-121105377D01*
X123362466Y-121286338D01*
X123362465Y-121286340D01*
X123269107Y-121486548D01*
X123269104Y-121486554D01*
X123211930Y-121699929D01*
X123211929Y-121699937D01*
X123192677Y-121919997D01*
X123192677Y-121920002D01*
X123211929Y-122140062D01*
X123211930Y-122140070D01*
X123269104Y-122353445D01*
X123269105Y-122353447D01*
X123269106Y-122353450D01*
X123304506Y-122429366D01*
X123362466Y-122553662D01*
X123362468Y-122553666D01*
X123489170Y-122734615D01*
X123489175Y-122734621D01*
X123645378Y-122890824D01*
X123645384Y-122890829D01*
X123826333Y-123017531D01*
X123826335Y-123017532D01*
X123826338Y-123017534D01*
X124026550Y-123110894D01*
X124239932Y-123168070D01*
X124397123Y-123181822D01*
X124459998Y-123187323D01*
X124460000Y-123187323D01*
X124460002Y-123187323D01*
X124515017Y-123182509D01*
X124680068Y-123168070D01*
X124893450Y-123110894D01*
X125093662Y-123017534D01*
X125274620Y-122890826D01*
X125430826Y-122734620D01*
X125557534Y-122553662D01*
X125650894Y-122353450D01*
X125708070Y-122140068D01*
X125727323Y-121920000D01*
X125727016Y-121916494D01*
X125720103Y-121837474D01*
X125708070Y-121699932D01*
X125650894Y-121486550D01*
X125557534Y-121286339D01*
X125430826Y-121105380D01*
X125274620Y-120949174D01*
X125274616Y-120949171D01*
X125274615Y-120949170D01*
X125093666Y-120822468D01*
X125093662Y-120822466D01*
X124964218Y-120762105D01*
X124911779Y-120715932D01*
X124892627Y-120648739D01*
X124912843Y-120581858D01*
X124964219Y-120537340D01*
X125093416Y-120477095D01*
X125093417Y-120477094D01*
X125158188Y-120431741D01*
X124487448Y-119761000D01*
X124510160Y-119761000D01*
X124607061Y-119735036D01*
X124693940Y-119684876D01*
X124764876Y-119613940D01*
X124815036Y-119527061D01*
X124841000Y-119430160D01*
X124841000Y-119407447D01*
X125511741Y-120078188D01*
X125557094Y-120013417D01*
X125557100Y-120013407D01*
X125650419Y-119813284D01*
X125650424Y-119813270D01*
X125707573Y-119599986D01*
X125707575Y-119599976D01*
X125719822Y-119459997D01*
X128235034Y-119459997D01*
X128235034Y-119460002D01*
X128254858Y-119686599D01*
X128254860Y-119686610D01*
X128313730Y-119906317D01*
X128313735Y-119906331D01*
X128409863Y-120112478D01*
X128460974Y-120185472D01*
X129140000Y-119506446D01*
X129140000Y-119512661D01*
X129167259Y-119614394D01*
X129219920Y-119705606D01*
X129294394Y-119780080D01*
X129385606Y-119832741D01*
X129487339Y-119860000D01*
X129493553Y-119860000D01*
X128814526Y-120539025D01*
X128887513Y-120590132D01*
X128887521Y-120590136D01*
X129093668Y-120686264D01*
X129093682Y-120686269D01*
X129313389Y-120745139D01*
X129313400Y-120745141D01*
X129539998Y-120764966D01*
X129540002Y-120764966D01*
X129766599Y-120745141D01*
X129766610Y-120745139D01*
X129986317Y-120686269D01*
X129986331Y-120686264D01*
X130192478Y-120590136D01*
X130265471Y-120539024D01*
X129586447Y-119860000D01*
X129592661Y-119860000D01*
X129694394Y-119832741D01*
X129785606Y-119780080D01*
X129860080Y-119705606D01*
X129912741Y-119614394D01*
X129940000Y-119512661D01*
X129940000Y-119506447D01*
X130619024Y-120185471D01*
X130670136Y-120112478D01*
X130766264Y-119906331D01*
X130766269Y-119906317D01*
X130825139Y-119686610D01*
X130825141Y-119686599D01*
X130844966Y-119460002D01*
X130844966Y-119459997D01*
X130844966Y-119459994D01*
X135654859Y-119459994D01*
X135654859Y-119460005D01*
X135675385Y-119707729D01*
X135675387Y-119707738D01*
X135736412Y-119948717D01*
X135836267Y-120176367D01*
X135936562Y-120329881D01*
X136677037Y-119589408D01*
X136694075Y-119652993D01*
X136759901Y-119767007D01*
X136852993Y-119860099D01*
X136967007Y-119925925D01*
X137030591Y-119942962D01*
X136289943Y-120683609D01*
X136336768Y-120720055D01*
X136336771Y-120720057D01*
X136555385Y-120838364D01*
X136555396Y-120838369D01*
X136790506Y-120919083D01*
X137035707Y-120960000D01*
X137284293Y-120960000D01*
X137529493Y-120919083D01*
X137764603Y-120838369D01*
X137764614Y-120838364D01*
X137983230Y-120720056D01*
X137983236Y-120720051D01*
X138030055Y-120683610D01*
X138030056Y-120683609D01*
X137289408Y-119942962D01*
X137352993Y-119925925D01*
X137467007Y-119860099D01*
X137560099Y-119767007D01*
X137625925Y-119652993D01*
X137642962Y-119589408D01*
X138383435Y-120329882D01*
X138483733Y-120176364D01*
X138583587Y-119948717D01*
X138644612Y-119707738D01*
X138644614Y-119707729D01*
X138665141Y-119460005D01*
X138665141Y-119459994D01*
X138644614Y-119212270D01*
X138644612Y-119212261D01*
X138583587Y-118971282D01*
X138483732Y-118743632D01*
X138383435Y-118590116D01*
X137642962Y-119330590D01*
X137625925Y-119267007D01*
X137560099Y-119152993D01*
X137467007Y-119059901D01*
X137352993Y-118994075D01*
X137289409Y-118977037D01*
X138030055Y-118236389D01*
X138030055Y-118236388D01*
X137983236Y-118199947D01*
X137983231Y-118199944D01*
X137764614Y-118081635D01*
X137764603Y-118081630D01*
X137529493Y-118000916D01*
X137284293Y-117960000D01*
X137035707Y-117960000D01*
X136790506Y-118000916D01*
X136555396Y-118081630D01*
X136555385Y-118081635D01*
X136336770Y-118199943D01*
X136289943Y-118236389D01*
X137030591Y-118977037D01*
X136967007Y-118994075D01*
X136852993Y-119059901D01*
X136759901Y-119152993D01*
X136694075Y-119267007D01*
X136677037Y-119330591D01*
X135936563Y-118590117D01*
X135836267Y-118743633D01*
X135836265Y-118743637D01*
X135736412Y-118971282D01*
X135675387Y-119212261D01*
X135675385Y-119212270D01*
X135654859Y-119459994D01*
X130844966Y-119459994D01*
X130825141Y-119233400D01*
X130825139Y-119233389D01*
X130766269Y-119013682D01*
X130766264Y-119013668D01*
X130670136Y-118807521D01*
X130670132Y-118807513D01*
X130619025Y-118734526D01*
X129940000Y-119413551D01*
X129940000Y-119407339D01*
X129912741Y-119305606D01*
X129860080Y-119214394D01*
X129785606Y-119139920D01*
X129694394Y-119087259D01*
X129592661Y-119060000D01*
X129586445Y-119060000D01*
X130265472Y-118380974D01*
X130192478Y-118329863D01*
X129986331Y-118233735D01*
X129986317Y-118233730D01*
X129766610Y-118174860D01*
X129766599Y-118174858D01*
X129540002Y-118155034D01*
X129539998Y-118155034D01*
X129313400Y-118174858D01*
X129313389Y-118174860D01*
X129093682Y-118233730D01*
X129093673Y-118233734D01*
X128887516Y-118329866D01*
X128887512Y-118329868D01*
X128814526Y-118380973D01*
X128814526Y-118380974D01*
X129493553Y-119060000D01*
X129487339Y-119060000D01*
X129385606Y-119087259D01*
X129294394Y-119139920D01*
X129219920Y-119214394D01*
X129167259Y-119305606D01*
X129140000Y-119407339D01*
X129140000Y-119413552D01*
X128460974Y-118734526D01*
X128460973Y-118734526D01*
X128409868Y-118807512D01*
X128409866Y-118807516D01*
X128313734Y-119013673D01*
X128313730Y-119013682D01*
X128254860Y-119233389D01*
X128254858Y-119233400D01*
X128235034Y-119459997D01*
X125719822Y-119459997D01*
X125726821Y-119380000D01*
X125726821Y-119379999D01*
X125707575Y-119160023D01*
X125707573Y-119160013D01*
X125650424Y-118946729D01*
X125650420Y-118946720D01*
X125557096Y-118746586D01*
X125511741Y-118681811D01*
X125511740Y-118681810D01*
X124841000Y-119352551D01*
X124841000Y-119329840D01*
X124815036Y-119232939D01*
X124764876Y-119146060D01*
X124693940Y-119075124D01*
X124607061Y-119024964D01*
X124510160Y-118999000D01*
X124487447Y-118999000D01*
X125158188Y-118328258D01*
X125093411Y-118282901D01*
X125093405Y-118282898D01*
X124964219Y-118222658D01*
X124911779Y-118176486D01*
X124892627Y-118109293D01*
X124912843Y-118042411D01*
X124964219Y-117997894D01*
X125093662Y-117937534D01*
X125274620Y-117810826D01*
X125430826Y-117654620D01*
X125557534Y-117473662D01*
X125650894Y-117273450D01*
X125708070Y-117060068D01*
X125727323Y-116840000D01*
X125708070Y-116619932D01*
X125650894Y-116406550D01*
X125557534Y-116206339D01*
X125430826Y-116025380D01*
X125274620Y-115869174D01*
X125274616Y-115869171D01*
X125274615Y-115869170D01*
X125093666Y-115742468D01*
X125093658Y-115742464D01*
X124964811Y-115682382D01*
X124912371Y-115636210D01*
X124893219Y-115569017D01*
X124913435Y-115502135D01*
X124964811Y-115457618D01*
X124970802Y-115454824D01*
X125093662Y-115397534D01*
X125274620Y-115270826D01*
X125430826Y-115114620D01*
X125557534Y-114933662D01*
X125650894Y-114733450D01*
X125708070Y-114520068D01*
X125727323Y-114300000D01*
X125708070Y-114079932D01*
X125650894Y-113866550D01*
X125557534Y-113666339D01*
X125430826Y-113485380D01*
X125274620Y-113329174D01*
X125274616Y-113329171D01*
X125274615Y-113329170D01*
X125093666Y-113202468D01*
X125093658Y-113202464D01*
X124964811Y-113142382D01*
X124912371Y-113096210D01*
X124893219Y-113029017D01*
X124913435Y-112962135D01*
X124964811Y-112917618D01*
X124970802Y-112914824D01*
X125093662Y-112857534D01*
X125274620Y-112730826D01*
X125430826Y-112574620D01*
X125557534Y-112393662D01*
X125650894Y-112193450D01*
X125708070Y-111980068D01*
X125727323Y-111760000D01*
X125708070Y-111539932D01*
X125650894Y-111326550D01*
X125557534Y-111126339D01*
X125430826Y-110945380D01*
X125274620Y-110789174D01*
X125274616Y-110789171D01*
X125274615Y-110789170D01*
X125093666Y-110662468D01*
X125093658Y-110662464D01*
X124964811Y-110602382D01*
X124912371Y-110556210D01*
X124893219Y-110489017D01*
X124913435Y-110422135D01*
X124964811Y-110377618D01*
X124983650Y-110368833D01*
X125093662Y-110317534D01*
X125274620Y-110190826D01*
X125430826Y-110034620D01*
X125557534Y-109853662D01*
X125650894Y-109653450D01*
X125708070Y-109440068D01*
X125727323Y-109220000D01*
X125727323Y-109219999D01*
X128184341Y-109219999D01*
X128184341Y-109220000D01*
X128204936Y-109455403D01*
X128204938Y-109455413D01*
X128266094Y-109683655D01*
X128266096Y-109683659D01*
X128266097Y-109683663D01*
X128345369Y-109853662D01*
X128365965Y-109897830D01*
X128365967Y-109897834D01*
X128445491Y-110011405D01*
X128501501Y-110091396D01*
X128501506Y-110091402D01*
X128668597Y-110258493D01*
X128668603Y-110258498D01*
X128854594Y-110388730D01*
X128898219Y-110443307D01*
X128905413Y-110512805D01*
X128873890Y-110575160D01*
X128854595Y-110591880D01*
X128668922Y-110721890D01*
X128668920Y-110721891D01*
X128501891Y-110888920D01*
X128501886Y-110888926D01*
X128366400Y-111082420D01*
X128366399Y-111082422D01*
X128266570Y-111296507D01*
X128266567Y-111296513D01*
X128209364Y-111509999D01*
X128209364Y-111510000D01*
X129106988Y-111510000D01*
X129074075Y-111567007D01*
X129040000Y-111694174D01*
X129040000Y-111825826D01*
X129074075Y-111952993D01*
X129106988Y-112010000D01*
X128209364Y-112010000D01*
X128266567Y-112223486D01*
X128266570Y-112223492D01*
X128366399Y-112437578D01*
X128501894Y-112631082D01*
X128668917Y-112798105D01*
X128854595Y-112928119D01*
X128898219Y-112982696D01*
X128905412Y-113052195D01*
X128873890Y-113114549D01*
X128854595Y-113131269D01*
X128668594Y-113261508D01*
X128501505Y-113428597D01*
X128365965Y-113622169D01*
X128365964Y-113622171D01*
X128266098Y-113836335D01*
X128266094Y-113836344D01*
X128204938Y-114064586D01*
X128204936Y-114064596D01*
X128184341Y-114299999D01*
X128184341Y-114300000D01*
X128204936Y-114535403D01*
X128204938Y-114535413D01*
X128266094Y-114763655D01*
X128266096Y-114763659D01*
X128266097Y-114763663D01*
X128345369Y-114933662D01*
X128365965Y-114977830D01*
X128365967Y-114977834D01*
X128429865Y-115069089D01*
X128501505Y-115171401D01*
X128668599Y-115338495D01*
X128734601Y-115384710D01*
X128862165Y-115474032D01*
X128862167Y-115474033D01*
X128862170Y-115474035D01*
X129076337Y-115573903D01*
X129304592Y-115635063D01*
X129465101Y-115649106D01*
X129539999Y-115655659D01*
X129540000Y-115655659D01*
X129540001Y-115655659D01*
X129614899Y-115649106D01*
X129775408Y-115635063D01*
X130003663Y-115573903D01*
X130217830Y-115474035D01*
X130411401Y-115338495D01*
X130578495Y-115171401D01*
X130714035Y-114977830D01*
X130813903Y-114763663D01*
X130875063Y-114535408D01*
X130895659Y-114300000D01*
X130875063Y-114064592D01*
X130822000Y-113866554D01*
X130813905Y-113836344D01*
X130813904Y-113836343D01*
X130813903Y-113836337D01*
X130714035Y-113622171D01*
X130635066Y-113509390D01*
X130578494Y-113428597D01*
X130411402Y-113261506D01*
X130411401Y-113261505D01*
X130225405Y-113131269D01*
X130181781Y-113076692D01*
X130174588Y-113007193D01*
X130206110Y-112944839D01*
X130225405Y-112928119D01*
X130411082Y-112798105D01*
X130578105Y-112631082D01*
X130713600Y-112437578D01*
X130813429Y-112223492D01*
X130813432Y-112223486D01*
X130870636Y-112010000D01*
X129973012Y-112010000D01*
X130005925Y-111952993D01*
X130040000Y-111825826D01*
X130040000Y-111694174D01*
X130005925Y-111567007D01*
X129973012Y-111510000D01*
X130870636Y-111510000D01*
X130870635Y-111509999D01*
X133341127Y-111509999D01*
X133341128Y-111510000D01*
X134304314Y-111510000D01*
X134299920Y-111514394D01*
X134247259Y-111605606D01*
X134220000Y-111707339D01*
X134220000Y-111812661D01*
X134247259Y-111914394D01*
X134299920Y-112005606D01*
X134304314Y-112010000D01*
X133341128Y-112010000D01*
X133393730Y-112206317D01*
X133393734Y-112206326D01*
X133489865Y-112412482D01*
X133620342Y-112598820D01*
X133781179Y-112759657D01*
X133967517Y-112890134D01*
X134173673Y-112986265D01*
X134173682Y-112986269D01*
X134369999Y-113038872D01*
X134370000Y-113038871D01*
X134370000Y-112075686D01*
X134374394Y-112080080D01*
X134465606Y-112132741D01*
X134567339Y-112160000D01*
X134672661Y-112160000D01*
X134774394Y-112132741D01*
X134865606Y-112080080D01*
X134870000Y-112075686D01*
X134870000Y-113038872D01*
X135066317Y-112986269D01*
X135066326Y-112986265D01*
X135272482Y-112890134D01*
X135458820Y-112759657D01*
X135619657Y-112598820D01*
X135750134Y-112412482D01*
X135846265Y-112206326D01*
X135846269Y-112206317D01*
X135898872Y-112010000D01*
X134935686Y-112010000D01*
X134940080Y-112005606D01*
X134992741Y-111914394D01*
X135020000Y-111812661D01*
X135020000Y-111707339D01*
X134992741Y-111605606D01*
X134940080Y-111514394D01*
X134935686Y-111510000D01*
X135898872Y-111510000D01*
X135898872Y-111509999D01*
X135846269Y-111313682D01*
X135846265Y-111313673D01*
X135750134Y-111107517D01*
X135619657Y-110921179D01*
X135458820Y-110760342D01*
X135272482Y-110629865D01*
X135066328Y-110533734D01*
X134870000Y-110481127D01*
X134870000Y-111444314D01*
X134865606Y-111439920D01*
X134774394Y-111387259D01*
X134672661Y-111360000D01*
X134567339Y-111360000D01*
X134465606Y-111387259D01*
X134374394Y-111439920D01*
X134370000Y-111444314D01*
X134370000Y-110481127D01*
X134173671Y-110533734D01*
X133967517Y-110629865D01*
X133781179Y-110760342D01*
X133620342Y-110921179D01*
X133489865Y-111107517D01*
X133393734Y-111313673D01*
X133393730Y-111313682D01*
X133341127Y-111509999D01*
X130870635Y-111509999D01*
X130813432Y-111296513D01*
X130813429Y-111296507D01*
X130713600Y-111082422D01*
X130713599Y-111082420D01*
X130578113Y-110888926D01*
X130578108Y-110888920D01*
X130411078Y-110721890D01*
X130225405Y-110591879D01*
X130181780Y-110537302D01*
X130174588Y-110467804D01*
X130206110Y-110405449D01*
X130225406Y-110388730D01*
X130327083Y-110317535D01*
X130411401Y-110258495D01*
X130578495Y-110091401D01*
X130714035Y-109897830D01*
X130813903Y-109683663D01*
X130875063Y-109455408D01*
X130895659Y-109220000D01*
X130875063Y-108984592D01*
X130822000Y-108786554D01*
X130813905Y-108756344D01*
X130813904Y-108756343D01*
X130813903Y-108756337D01*
X130714035Y-108542171D01*
X130635065Y-108429390D01*
X130578496Y-108348600D01*
X130524500Y-108294604D01*
X130456567Y-108226671D01*
X130423084Y-108165351D01*
X130428068Y-108095659D01*
X130469939Y-108039725D01*
X130500915Y-108022810D01*
X130632331Y-107973796D01*
X130747546Y-107887546D01*
X130833796Y-107772331D01*
X130884091Y-107637483D01*
X130890500Y-107577873D01*
X130890499Y-105782128D01*
X130884091Y-105722517D01*
X130879114Y-105709174D01*
X130833797Y-105587671D01*
X130833793Y-105587664D01*
X130747547Y-105472455D01*
X130747544Y-105472452D01*
X130632335Y-105386206D01*
X130632328Y-105386202D01*
X130497482Y-105335908D01*
X130497483Y-105335908D01*
X130437883Y-105329501D01*
X130437881Y-105329500D01*
X130437873Y-105329500D01*
X130437864Y-105329500D01*
X128642129Y-105329500D01*
X128642123Y-105329501D01*
X128582516Y-105335908D01*
X128447671Y-105386202D01*
X128447664Y-105386206D01*
X128332455Y-105472452D01*
X128332452Y-105472455D01*
X128246206Y-105587664D01*
X128246202Y-105587671D01*
X128195908Y-105722517D01*
X128189501Y-105782116D01*
X128189501Y-105782123D01*
X128189500Y-105782135D01*
X128189500Y-107577870D01*
X128189501Y-107577876D01*
X128195908Y-107637483D01*
X128246202Y-107772328D01*
X128246206Y-107772335D01*
X128332452Y-107887544D01*
X128332455Y-107887547D01*
X128447664Y-107973793D01*
X128447671Y-107973797D01*
X128579081Y-108022810D01*
X128635015Y-108064681D01*
X128659432Y-108130145D01*
X128644580Y-108198418D01*
X128623430Y-108226673D01*
X128501503Y-108348600D01*
X128365965Y-108542169D01*
X128365964Y-108542171D01*
X128266098Y-108756335D01*
X128266094Y-108756344D01*
X128204938Y-108984586D01*
X128204936Y-108984596D01*
X128184341Y-109219999D01*
X125727323Y-109219999D01*
X125708070Y-108999932D01*
X125650894Y-108786550D01*
X125557534Y-108586339D01*
X125430826Y-108405380D01*
X125274620Y-108249174D01*
X125274616Y-108249171D01*
X125274615Y-108249170D01*
X125093666Y-108122468D01*
X125093658Y-108122464D01*
X124964811Y-108062382D01*
X124912371Y-108016210D01*
X124893219Y-107949017D01*
X124913435Y-107882135D01*
X124964811Y-107837618D01*
X124970802Y-107834824D01*
X125093662Y-107777534D01*
X125274620Y-107650826D01*
X125430826Y-107494620D01*
X125557534Y-107313662D01*
X125650894Y-107113450D01*
X125708070Y-106900068D01*
X125727323Y-106680000D01*
X125708070Y-106459932D01*
X125650894Y-106246550D01*
X125557534Y-106046339D01*
X125493246Y-105954526D01*
X125430827Y-105865381D01*
X125374366Y-105808920D01*
X125274620Y-105709174D01*
X125274616Y-105709171D01*
X125274615Y-105709170D01*
X125093666Y-105582468D01*
X125093658Y-105582464D01*
X124964811Y-105522382D01*
X124912371Y-105476210D01*
X124893219Y-105409017D01*
X124913435Y-105342135D01*
X124964811Y-105297618D01*
X124970802Y-105294824D01*
X125093662Y-105237534D01*
X125274620Y-105110826D01*
X125430826Y-104954620D01*
X125557534Y-104773662D01*
X125650894Y-104573450D01*
X125708070Y-104360068D01*
X125727323Y-104140000D01*
X125708070Y-103919932D01*
X125650894Y-103706550D01*
X125557534Y-103506339D01*
X125430826Y-103325380D01*
X125274620Y-103169174D01*
X125274616Y-103169171D01*
X125274615Y-103169170D01*
X125093666Y-103042468D01*
X125093658Y-103042464D01*
X124964811Y-102982382D01*
X124912371Y-102936210D01*
X124893219Y-102869017D01*
X124913435Y-102802135D01*
X124964811Y-102757618D01*
X125012243Y-102735500D01*
X125093662Y-102697534D01*
X125274620Y-102570826D01*
X125430826Y-102414620D01*
X125557534Y-102233662D01*
X125650894Y-102033450D01*
X125708070Y-101820068D01*
X125727323Y-101600000D01*
X125708070Y-101379932D01*
X125650894Y-101166550D01*
X125557534Y-100966339D01*
X125430826Y-100785380D01*
X125274620Y-100629174D01*
X125274616Y-100629171D01*
X125274615Y-100629170D01*
X125093666Y-100502468D01*
X125093658Y-100502464D01*
X124964811Y-100442382D01*
X124912371Y-100396210D01*
X124893219Y-100329017D01*
X124913435Y-100262135D01*
X124964811Y-100217618D01*
X124970802Y-100214824D01*
X125093662Y-100157534D01*
X125274620Y-100030826D01*
X125430826Y-99874620D01*
X125557534Y-99693662D01*
X125650894Y-99493450D01*
X125708070Y-99280068D01*
X125727323Y-99060000D01*
X125708070Y-98839932D01*
X125650894Y-98626550D01*
X125557534Y-98426339D01*
X125430826Y-98245380D01*
X125274620Y-98089174D01*
X125274616Y-98089171D01*
X125274615Y-98089170D01*
X125093666Y-97962468D01*
X125093658Y-97962464D01*
X124964811Y-97902382D01*
X124912371Y-97856210D01*
X124893219Y-97789017D01*
X124913435Y-97722135D01*
X124964811Y-97677618D01*
X124970802Y-97674824D01*
X125093662Y-97617534D01*
X125274620Y-97490826D01*
X125430826Y-97334620D01*
X125557534Y-97153662D01*
X125650894Y-96953450D01*
X125708070Y-96740068D01*
X125727323Y-96520000D01*
X125708070Y-96299932D01*
X125650894Y-96086550D01*
X125557534Y-95886339D01*
X125430826Y-95705380D01*
X125274620Y-95549174D01*
X125274616Y-95549171D01*
X125274615Y-95549170D01*
X125093666Y-95422468D01*
X125093658Y-95422464D01*
X124964811Y-95362382D01*
X124912371Y-95316210D01*
X124893219Y-95249017D01*
X124913435Y-95182135D01*
X124964811Y-95137618D01*
X124970802Y-95134824D01*
X125093662Y-95077534D01*
X125274620Y-94950826D01*
X125430826Y-94794620D01*
X125557534Y-94613662D01*
X125650894Y-94413450D01*
X125708070Y-94200068D01*
X125727323Y-93980000D01*
X125727323Y-93979999D01*
X128184341Y-93979999D01*
X128184341Y-93980000D01*
X128204936Y-94215403D01*
X128204938Y-94215413D01*
X128266094Y-94443655D01*
X128266096Y-94443659D01*
X128266097Y-94443663D01*
X128270000Y-94452032D01*
X128365965Y-94657830D01*
X128365967Y-94657834D01*
X128461743Y-94794615D01*
X128501505Y-94851401D01*
X128668599Y-95018495D01*
X128745483Y-95072330D01*
X128862165Y-95154032D01*
X128862167Y-95154033D01*
X128862170Y-95154035D01*
X129076337Y-95253903D01*
X129076343Y-95253904D01*
X129076344Y-95253905D01*
X129131285Y-95268626D01*
X129304592Y-95315063D01*
X129465101Y-95329106D01*
X129539999Y-95335659D01*
X129540000Y-95335659D01*
X129540001Y-95335659D01*
X129614899Y-95329106D01*
X129775408Y-95315063D01*
X130003663Y-95253903D01*
X130217830Y-95154035D01*
X130411401Y-95018495D01*
X130578495Y-94851401D01*
X130708425Y-94665842D01*
X130763002Y-94622217D01*
X130832500Y-94615023D01*
X130894855Y-94646546D01*
X130911575Y-94665842D01*
X131041500Y-94851395D01*
X131041505Y-94851401D01*
X131208599Y-95018495D01*
X131285483Y-95072330D01*
X131402165Y-95154032D01*
X131402167Y-95154033D01*
X131402170Y-95154035D01*
X131616337Y-95253903D01*
X131616343Y-95253904D01*
X131616344Y-95253905D01*
X131671285Y-95268626D01*
X131844592Y-95315063D01*
X132005101Y-95329106D01*
X132079999Y-95335659D01*
X132080000Y-95335659D01*
X132080001Y-95335659D01*
X132154899Y-95329106D01*
X132315408Y-95315063D01*
X132543663Y-95253903D01*
X132757830Y-95154035D01*
X132951401Y-95018495D01*
X133073329Y-94896566D01*
X133134648Y-94863084D01*
X133204340Y-94868068D01*
X133260274Y-94909939D01*
X133277189Y-94940917D01*
X133326202Y-95072328D01*
X133326203Y-95072329D01*
X133326204Y-95072331D01*
X133412454Y-95187546D01*
X133434810Y-95204281D01*
X133476681Y-95260213D01*
X133484500Y-95303548D01*
X133484500Y-100930351D01*
X133472882Y-100982756D01*
X133393262Y-101153502D01*
X133393258Y-101153511D01*
X133334366Y-101373302D01*
X133334364Y-101373313D01*
X133314532Y-101599998D01*
X133314532Y-101600001D01*
X133334364Y-101826686D01*
X133334366Y-101826697D01*
X133393258Y-102046488D01*
X133393261Y-102046497D01*
X133489431Y-102252732D01*
X133489432Y-102252734D01*
X133619954Y-102439141D01*
X133780858Y-102600045D01*
X133780861Y-102600047D01*
X133967266Y-102730568D01*
X134173504Y-102826739D01*
X134393308Y-102885635D01*
X134555230Y-102899801D01*
X134619998Y-102905468D01*
X134620000Y-102905468D01*
X134620002Y-102905468D01*
X134676673Y-102900509D01*
X134846692Y-102885635D01*
X135066496Y-102826739D01*
X135272734Y-102730568D01*
X135459139Y-102600047D01*
X135620047Y-102439139D01*
X135750568Y-102252734D01*
X135846739Y-102046496D01*
X135905635Y-101826692D01*
X135925468Y-101600000D01*
X135905635Y-101373308D01*
X135846739Y-101153504D01*
X135767118Y-100982756D01*
X135755500Y-100930351D01*
X135755500Y-98733992D01*
X136134500Y-98733992D01*
X136134500Y-99386007D01*
X136173907Y-99584119D01*
X136173909Y-99584127D01*
X136251212Y-99770752D01*
X136251217Y-99770762D01*
X136363441Y-99938718D01*
X136506281Y-100081558D01*
X136674237Y-100193782D01*
X136674241Y-100193784D01*
X136674244Y-100193786D01*
X136860873Y-100271091D01*
X137055996Y-100309903D01*
X137058992Y-100310499D01*
X137058996Y-100310500D01*
X137058997Y-100310500D01*
X137261004Y-100310500D01*
X137267066Y-100309903D01*
X137267311Y-100312394D01*
X137325976Y-100317632D01*
X137381162Y-100360483D01*
X137404421Y-100426368D01*
X137404600Y-100433031D01*
X137404600Y-102801111D01*
X137384915Y-102868150D01*
X137333005Y-102913493D01*
X137127267Y-103009431D01*
X137127265Y-103009432D01*
X136940858Y-103139954D01*
X136779954Y-103300858D01*
X136649432Y-103487265D01*
X136649431Y-103487267D01*
X136553261Y-103693502D01*
X136553258Y-103693511D01*
X136494366Y-103913302D01*
X136494364Y-103913313D01*
X136474532Y-104139998D01*
X136474532Y-104140001D01*
X136494364Y-104366686D01*
X136494366Y-104366697D01*
X136553258Y-104586488D01*
X136553261Y-104586497D01*
X136649431Y-104792732D01*
X136649432Y-104792734D01*
X136779954Y-104979141D01*
X136940858Y-105140045D01*
X136940861Y-105140047D01*
X137127266Y-105270568D01*
X137333504Y-105366739D01*
X137553308Y-105425635D01*
X137715230Y-105439801D01*
X137779998Y-105445468D01*
X137780000Y-105445468D01*
X137780002Y-105445468D01*
X137836673Y-105440509D01*
X138006692Y-105425635D01*
X138226496Y-105366739D01*
X138432734Y-105270568D01*
X138619139Y-105140047D01*
X138780047Y-104979139D01*
X138910568Y-104792734D01*
X139006739Y-104586496D01*
X139020978Y-104533351D01*
X139053068Y-104477769D01*
X139296111Y-104234728D01*
X139401167Y-104090131D01*
X139482309Y-103930880D01*
X139537541Y-103760897D01*
X139554316Y-103654978D01*
X139565500Y-103584370D01*
X139565500Y-103405629D01*
X139548906Y-103300861D01*
X139537541Y-103229103D01*
X139482309Y-103059119D01*
X139468915Y-103032831D01*
X139455400Y-102976537D01*
X139455400Y-100520601D01*
X139475085Y-100453562D01*
X139527889Y-100407807D01*
X139597047Y-100397863D01*
X139660603Y-100426888D01*
X139667081Y-100432920D01*
X141068181Y-101834020D01*
X141101666Y-101895343D01*
X141104500Y-101921701D01*
X141104500Y-105908040D01*
X141084815Y-105975079D01*
X141082076Y-105979162D01*
X141065963Y-106002174D01*
X140966098Y-106216335D01*
X140966094Y-106216344D01*
X140904938Y-106444586D01*
X140904936Y-106444596D01*
X140884341Y-106679999D01*
X140884341Y-106680000D01*
X140904936Y-106915403D01*
X140904938Y-106915413D01*
X140966094Y-107143655D01*
X140966096Y-107143659D01*
X140966097Y-107143663D01*
X140983809Y-107181646D01*
X141065965Y-107357830D01*
X141065967Y-107357834D01*
X141099324Y-107405472D01*
X141201501Y-107551396D01*
X141201506Y-107551402D01*
X141323430Y-107673326D01*
X141356915Y-107734649D01*
X141351931Y-107804341D01*
X141310059Y-107860274D01*
X141279083Y-107877189D01*
X141147669Y-107926203D01*
X141147664Y-107926206D01*
X141032455Y-108012452D01*
X141032452Y-108012455D01*
X140946206Y-108127664D01*
X140946202Y-108127671D01*
X140895908Y-108262517D01*
X140889501Y-108322116D01*
X140889500Y-108322127D01*
X140889500Y-109219999D01*
X140889501Y-110080500D01*
X140869816Y-110147539D01*
X140817013Y-110193294D01*
X140765501Y-110204500D01*
X140650630Y-110204500D01*
X140474108Y-110232458D01*
X140474106Y-110232458D01*
X140474103Y-110232459D01*
X140389111Y-110260075D01*
X140304114Y-110287692D01*
X140144867Y-110368833D01*
X140094470Y-110405449D01*
X140000271Y-110473889D01*
X140000269Y-110473891D01*
X140000268Y-110473891D01*
X137449062Y-113025097D01*
X137393477Y-113057190D01*
X137333504Y-113073260D01*
X137127267Y-113169431D01*
X137127265Y-113169432D01*
X136940858Y-113299954D01*
X136779954Y-113460858D01*
X136649432Y-113647265D01*
X136649431Y-113647267D01*
X136553261Y-113853502D01*
X136553258Y-113853511D01*
X136494366Y-114073302D01*
X136494364Y-114073313D01*
X136474532Y-114299998D01*
X136474532Y-114300001D01*
X136494364Y-114526686D01*
X136494366Y-114526697D01*
X136553258Y-114746488D01*
X136553261Y-114746497D01*
X136649431Y-114952732D01*
X136649432Y-114952734D01*
X136779954Y-115139141D01*
X136940858Y-115300045D01*
X136940861Y-115300047D01*
X137127266Y-115430568D01*
X137333504Y-115526739D01*
X137553308Y-115585635D01*
X137715230Y-115599801D01*
X137779998Y-115605468D01*
X137780000Y-115605468D01*
X137780002Y-115605468D01*
X137836673Y-115600509D01*
X138006692Y-115585635D01*
X138226496Y-115526739D01*
X138432734Y-115430568D01*
X138619139Y-115300047D01*
X138780047Y-115139139D01*
X138910568Y-114952734D01*
X139006739Y-114746496D01*
X139022808Y-114686521D01*
X139054899Y-114630938D01*
X141174021Y-112511819D01*
X141235344Y-112478334D01*
X141261702Y-112475500D01*
X142329365Y-112475500D01*
X142329366Y-112475500D01*
X142505897Y-112447540D01*
X142505900Y-112447539D01*
X142505901Y-112447539D01*
X142675878Y-112392310D01*
X142675878Y-112392309D01*
X142675881Y-112392309D01*
X142835132Y-112311167D01*
X142979728Y-112206111D01*
X143106111Y-112079728D01*
X143211167Y-111935132D01*
X143292309Y-111775881D01*
X143347540Y-111605897D01*
X143375500Y-111429366D01*
X143375500Y-110543548D01*
X143395185Y-110476509D01*
X143425188Y-110444282D01*
X143447546Y-110427546D01*
X143533796Y-110312331D01*
X143584091Y-110177483D01*
X143590500Y-110117873D01*
X143590499Y-108322128D01*
X143584091Y-108262517D01*
X143579114Y-108249174D01*
X143533797Y-108127671D01*
X143533793Y-108127664D01*
X143447547Y-108012455D01*
X143447544Y-108012452D01*
X143332335Y-107926206D01*
X143332328Y-107926202D01*
X143200917Y-107877189D01*
X143144983Y-107835318D01*
X143120566Y-107769853D01*
X143135418Y-107701580D01*
X143156563Y-107673332D01*
X143278495Y-107551401D01*
X143414035Y-107357830D01*
X143513903Y-107143663D01*
X143575063Y-106915408D01*
X143595659Y-106680000D01*
X143575063Y-106444592D01*
X143522000Y-106246554D01*
X143513905Y-106216344D01*
X143513904Y-106216343D01*
X143513903Y-106216337D01*
X143414035Y-106002171D01*
X143397923Y-105979161D01*
X143375597Y-105912955D01*
X143375500Y-105908040D01*
X143375500Y-101310633D01*
X143375109Y-101308164D01*
X143375109Y-101308163D01*
X143364081Y-101238540D01*
X143347541Y-101134103D01*
X143306136Y-101006676D01*
X143293815Y-100968754D01*
X143292754Y-100964993D01*
X143292309Y-100964119D01*
X143211167Y-100804868D01*
X143106111Y-100660272D01*
X142979728Y-100533889D01*
X140758544Y-98312705D01*
X140725059Y-98251382D01*
X140722935Y-98238277D01*
X140719091Y-98202516D01*
X140668797Y-98067671D01*
X140668793Y-98067664D01*
X140582547Y-97952455D01*
X140582544Y-97952452D01*
X140467335Y-97866206D01*
X140467328Y-97866202D01*
X140332482Y-97815908D01*
X140332483Y-97815908D01*
X140272883Y-97809501D01*
X140272881Y-97809500D01*
X140272873Y-97809500D01*
X140272864Y-97809500D01*
X139127129Y-97809500D01*
X139127123Y-97809501D01*
X139067516Y-97815908D01*
X138932672Y-97866202D01*
X138932665Y-97866206D01*
X138931556Y-97867037D01*
X138930258Y-97867520D01*
X138924887Y-97870454D01*
X138924465Y-97869681D01*
X138866090Y-97891449D01*
X138809800Y-97882325D01*
X138729127Y-97848909D01*
X138729119Y-97848907D01*
X138531007Y-97809500D01*
X138531003Y-97809500D01*
X138328997Y-97809500D01*
X138328992Y-97809500D01*
X138130880Y-97848907D01*
X138130872Y-97848909D01*
X137944244Y-97926213D01*
X137863891Y-97979904D01*
X137797213Y-98000782D01*
X137729833Y-97982297D01*
X137726109Y-97979904D01*
X137645755Y-97926213D01*
X137459127Y-97848909D01*
X137459119Y-97848907D01*
X137261007Y-97809500D01*
X137261003Y-97809500D01*
X137058997Y-97809500D01*
X137058992Y-97809500D01*
X136860880Y-97848907D01*
X136860872Y-97848909D01*
X136674247Y-97926212D01*
X136674237Y-97926217D01*
X136506281Y-98038441D01*
X136363441Y-98181281D01*
X136251217Y-98349237D01*
X136251212Y-98349247D01*
X136173909Y-98535872D01*
X136173907Y-98535880D01*
X136134500Y-98733992D01*
X135755500Y-98733992D01*
X135755500Y-95303548D01*
X135775185Y-95236509D01*
X135805188Y-95204282D01*
X135827546Y-95187546D01*
X135913796Y-95072331D01*
X135964091Y-94937483D01*
X135970500Y-94877873D01*
X135970499Y-93082128D01*
X135964091Y-93022517D01*
X135962810Y-93019083D01*
X135913797Y-92887671D01*
X135913793Y-92887664D01*
X135827547Y-92772455D01*
X135827544Y-92772452D01*
X135712335Y-92686206D01*
X135712328Y-92686202D01*
X135577482Y-92635908D01*
X135577483Y-92635908D01*
X135517883Y-92629501D01*
X135517881Y-92629500D01*
X135517873Y-92629500D01*
X135517864Y-92629500D01*
X133722129Y-92629500D01*
X133722123Y-92629501D01*
X133662516Y-92635908D01*
X133527671Y-92686202D01*
X133527664Y-92686206D01*
X133412455Y-92772452D01*
X133412452Y-92772455D01*
X133326206Y-92887664D01*
X133326203Y-92887669D01*
X133277189Y-93019083D01*
X133235317Y-93075016D01*
X133169853Y-93099433D01*
X133101580Y-93084581D01*
X133073326Y-93063430D01*
X132951402Y-92941506D01*
X132951395Y-92941501D01*
X132757834Y-92805967D01*
X132757830Y-92805965D01*
X132708174Y-92782810D01*
X132543663Y-92706097D01*
X132543659Y-92706096D01*
X132543655Y-92706094D01*
X132315413Y-92644938D01*
X132315403Y-92644936D01*
X132080001Y-92624341D01*
X132079999Y-92624341D01*
X131844596Y-92644936D01*
X131844586Y-92644938D01*
X131616344Y-92706094D01*
X131616335Y-92706098D01*
X131402171Y-92805964D01*
X131402169Y-92805965D01*
X131208597Y-92941505D01*
X131041505Y-93108597D01*
X130911575Y-93294158D01*
X130856998Y-93337783D01*
X130787500Y-93344977D01*
X130725145Y-93313454D01*
X130708425Y-93294158D01*
X130578496Y-93108600D01*
X130533326Y-93063430D01*
X130456567Y-92986671D01*
X130423084Y-92925351D01*
X130428068Y-92855659D01*
X130469939Y-92799725D01*
X130500915Y-92782810D01*
X130632331Y-92733796D01*
X130747546Y-92647546D01*
X130833796Y-92532331D01*
X130884091Y-92397483D01*
X130890500Y-92337873D01*
X130890499Y-90542128D01*
X130884091Y-90482517D01*
X130882387Y-90477949D01*
X130833797Y-90347671D01*
X130833793Y-90347664D01*
X130747547Y-90232455D01*
X130747544Y-90232452D01*
X130632335Y-90146206D01*
X130632328Y-90146202D01*
X130497482Y-90095908D01*
X130497483Y-90095908D01*
X130437883Y-90089501D01*
X130437881Y-90089500D01*
X130437873Y-90089500D01*
X130437864Y-90089500D01*
X128642129Y-90089500D01*
X128642123Y-90089501D01*
X128582516Y-90095908D01*
X128447671Y-90146202D01*
X128447664Y-90146206D01*
X128332455Y-90232452D01*
X128332452Y-90232455D01*
X128246206Y-90347664D01*
X128246202Y-90347671D01*
X128195908Y-90482517D01*
X128189501Y-90542116D01*
X128189501Y-90542123D01*
X128189500Y-90542135D01*
X128189500Y-92337870D01*
X128189501Y-92337876D01*
X128195908Y-92397483D01*
X128246202Y-92532328D01*
X128246206Y-92532335D01*
X128332452Y-92647544D01*
X128332455Y-92647547D01*
X128447664Y-92733793D01*
X128447671Y-92733797D01*
X128579081Y-92782810D01*
X128635015Y-92824681D01*
X128659432Y-92890145D01*
X128644580Y-92958418D01*
X128623430Y-92986673D01*
X128501503Y-93108600D01*
X128365965Y-93302169D01*
X128365964Y-93302171D01*
X128266098Y-93516335D01*
X128266094Y-93516344D01*
X128204938Y-93744586D01*
X128204936Y-93744596D01*
X128184341Y-93979999D01*
X125727323Y-93979999D01*
X125708070Y-93759932D01*
X125650894Y-93546550D01*
X125557534Y-93346339D01*
X125494180Y-93255859D01*
X125430827Y-93165381D01*
X125364879Y-93099433D01*
X125274620Y-93009174D01*
X125274616Y-93009171D01*
X125274615Y-93009170D01*
X125093666Y-92882468D01*
X125093658Y-92882464D01*
X124964811Y-92822382D01*
X124912371Y-92776210D01*
X124893219Y-92709017D01*
X124913435Y-92642135D01*
X124964811Y-92597618D01*
X124970802Y-92594824D01*
X125093662Y-92537534D01*
X125274620Y-92410826D01*
X125430826Y-92254620D01*
X125557534Y-92073662D01*
X125650894Y-91873450D01*
X125708070Y-91660068D01*
X125727323Y-91440000D01*
X125708070Y-91219932D01*
X125650894Y-91006550D01*
X125557534Y-90806339D01*
X125430826Y-90625380D01*
X125274620Y-90469174D01*
X125274616Y-90469171D01*
X125274615Y-90469170D01*
X125093666Y-90342468D01*
X125093658Y-90342464D01*
X124964811Y-90282382D01*
X124912371Y-90236210D01*
X124893219Y-90169017D01*
X124913435Y-90102135D01*
X124964811Y-90057618D01*
X124970802Y-90054824D01*
X125093662Y-89997534D01*
X125274620Y-89870826D01*
X125430826Y-89714620D01*
X125557534Y-89533662D01*
X125650894Y-89333450D01*
X125708070Y-89120068D01*
X125727323Y-88900000D01*
X125708070Y-88679932D01*
X125650894Y-88466550D01*
X125557534Y-88266339D01*
X125430826Y-88085380D01*
X125274620Y-87929174D01*
X125274616Y-87929171D01*
X125274615Y-87929170D01*
X125093666Y-87802468D01*
X125093658Y-87802464D01*
X124964811Y-87742382D01*
X124912371Y-87696210D01*
X124893219Y-87629017D01*
X124913435Y-87562135D01*
X124964811Y-87517618D01*
X124987328Y-87507118D01*
X125093662Y-87457534D01*
X125274620Y-87330826D01*
X125430826Y-87174620D01*
X125557534Y-86993662D01*
X125650894Y-86793450D01*
X125708070Y-86580068D01*
X125727323Y-86360000D01*
X125725262Y-86336446D01*
X125708070Y-86139937D01*
X125708070Y-86139932D01*
X125650894Y-85926550D01*
X125557534Y-85726339D01*
X125430826Y-85545380D01*
X125274620Y-85389174D01*
X125274616Y-85389171D01*
X125274615Y-85389170D01*
X125093666Y-85262468D01*
X125093662Y-85262466D01*
X125046457Y-85240454D01*
X124893450Y-85169106D01*
X124893447Y-85169105D01*
X124893445Y-85169104D01*
X124680070Y-85111930D01*
X124680062Y-85111929D01*
X124460002Y-85092677D01*
X124459998Y-85092677D01*
X124239937Y-85111929D01*
X124239929Y-85111930D01*
X124026554Y-85169104D01*
X124026543Y-85169108D01*
X123932671Y-85212882D01*
X123880267Y-85224500D01*
X119290634Y-85224500D01*
X119231790Y-85233820D01*
X119114101Y-85252460D01*
X119114098Y-85252460D01*
X118944121Y-85307689D01*
X118944118Y-85307690D01*
X118784866Y-85388834D01*
X118701116Y-85449681D01*
X118701115Y-85449680D01*
X118640279Y-85493881D01*
X118640271Y-85493888D01*
X116509062Y-87625097D01*
X116453477Y-87657190D01*
X116393504Y-87673260D01*
X116187267Y-87769431D01*
X116187265Y-87769432D01*
X116000858Y-87899954D01*
X115839954Y-88060858D01*
X115709432Y-88247265D01*
X115709431Y-88247267D01*
X115613261Y-88453502D01*
X115613258Y-88453511D01*
X115554366Y-88673302D01*
X115554364Y-88673313D01*
X115534532Y-88899998D01*
X115534532Y-88900001D01*
X115554364Y-89126686D01*
X115554366Y-89126697D01*
X115613258Y-89346488D01*
X115613261Y-89346497D01*
X115709431Y-89552732D01*
X115709432Y-89552734D01*
X115839954Y-89739141D01*
X116000858Y-89900045D01*
X116020454Y-89913766D01*
X116187266Y-90030568D01*
X116245275Y-90057618D01*
X116297714Y-90103791D01*
X116316866Y-90170984D01*
X116296650Y-90237865D01*
X116245275Y-90282382D01*
X116187267Y-90309431D01*
X116187265Y-90309432D01*
X116000858Y-90439954D01*
X115839954Y-90600858D01*
X115709432Y-90787265D01*
X115709431Y-90787267D01*
X115613261Y-90993502D01*
X115613258Y-90993511D01*
X115554366Y-91213302D01*
X115554364Y-91213313D01*
X115534532Y-91439998D01*
X115534532Y-91440001D01*
X115554364Y-91666686D01*
X115554366Y-91666697D01*
X115613258Y-91886488D01*
X115613261Y-91886497D01*
X115709431Y-92092732D01*
X115709432Y-92092734D01*
X115839954Y-92279141D01*
X116000858Y-92440045D01*
X116000861Y-92440047D01*
X116187266Y-92570568D01*
X116245275Y-92597618D01*
X116297714Y-92643791D01*
X116316866Y-92710984D01*
X116296650Y-92777865D01*
X116245275Y-92822381D01*
X116228272Y-92830310D01*
X116187267Y-92849431D01*
X116187265Y-92849432D01*
X116000858Y-92979954D01*
X115839954Y-93140858D01*
X115709432Y-93327265D01*
X115709431Y-93327267D01*
X115613261Y-93533502D01*
X115613258Y-93533511D01*
X115554366Y-93753302D01*
X115554364Y-93753313D01*
X115534532Y-93979998D01*
X115534532Y-93980001D01*
X115554364Y-94206686D01*
X115554366Y-94206697D01*
X115613258Y-94426488D01*
X115613261Y-94426497D01*
X115709431Y-94632732D01*
X115709432Y-94632734D01*
X115839954Y-94819141D01*
X116000858Y-94980045D01*
X116000861Y-94980047D01*
X116187266Y-95110568D01*
X116245275Y-95137618D01*
X116297714Y-95183791D01*
X116316866Y-95250984D01*
X116296650Y-95317865D01*
X116245275Y-95362382D01*
X116187267Y-95389431D01*
X116187265Y-95389432D01*
X116000858Y-95519954D01*
X115839954Y-95680858D01*
X115709432Y-95867265D01*
X115709431Y-95867267D01*
X115613261Y-96073502D01*
X115613258Y-96073511D01*
X115554366Y-96293302D01*
X115554364Y-96293313D01*
X115534532Y-96519998D01*
X115534532Y-96520001D01*
X115554364Y-96746686D01*
X115554366Y-96746697D01*
X115613258Y-96966488D01*
X115613261Y-96966497D01*
X115709431Y-97172732D01*
X115709432Y-97172734D01*
X115839954Y-97359141D01*
X116000858Y-97520045D01*
X116000861Y-97520047D01*
X116187266Y-97650568D01*
X116245275Y-97677618D01*
X116297714Y-97723791D01*
X116316866Y-97790984D01*
X116296650Y-97857865D01*
X116245275Y-97902382D01*
X116187267Y-97929431D01*
X116187265Y-97929432D01*
X116000858Y-98059954D01*
X115839954Y-98220858D01*
X115709432Y-98407265D01*
X115709431Y-98407267D01*
X115613261Y-98613502D01*
X115613258Y-98613511D01*
X115554366Y-98833302D01*
X115554364Y-98833313D01*
X115534532Y-99059998D01*
X115534532Y-99060001D01*
X115554364Y-99286686D01*
X115554366Y-99286697D01*
X115613258Y-99506488D01*
X115613261Y-99506497D01*
X115709431Y-99712732D01*
X115709432Y-99712734D01*
X115839954Y-99899141D01*
X116000858Y-100060045D01*
X116000861Y-100060047D01*
X116187266Y-100190568D01*
X116245275Y-100217618D01*
X116297714Y-100263791D01*
X116316866Y-100330984D01*
X116296650Y-100397865D01*
X116245275Y-100442382D01*
X116187267Y-100469431D01*
X116187265Y-100469432D01*
X116000858Y-100599954D01*
X115839954Y-100760858D01*
X115709432Y-100947265D01*
X115709431Y-100947267D01*
X115613261Y-101153502D01*
X115613258Y-101153511D01*
X115554366Y-101373302D01*
X115554364Y-101373313D01*
X115534532Y-101599998D01*
X115534532Y-101600001D01*
X115554364Y-101826686D01*
X115554366Y-101826697D01*
X115613258Y-102046488D01*
X115613261Y-102046497D01*
X115709431Y-102252732D01*
X115709432Y-102252734D01*
X115839954Y-102439141D01*
X116000858Y-102600045D01*
X116000861Y-102600047D01*
X116187266Y-102730568D01*
X116240057Y-102755185D01*
X116245275Y-102757618D01*
X116297714Y-102803791D01*
X116316866Y-102870984D01*
X116296650Y-102937865D01*
X116245275Y-102982381D01*
X116240057Y-102984815D01*
X116187267Y-103009431D01*
X116187265Y-103009432D01*
X116000858Y-103139954D01*
X115839954Y-103300858D01*
X115709432Y-103487265D01*
X115709431Y-103487267D01*
X115613260Y-103693504D01*
X115597190Y-103753477D01*
X115565097Y-103809062D01*
X104305072Y-115069089D01*
X104178691Y-115195469D01*
X104178690Y-115195470D01*
X104073633Y-115340067D01*
X103992043Y-115500197D01*
X103990984Y-115503954D01*
X103937258Y-115669305D01*
X103909300Y-115845829D01*
X103909300Y-117738398D01*
X103889615Y-117805437D01*
X103872981Y-117826079D01*
X100363908Y-121335151D01*
X100302585Y-121368636D01*
X100232893Y-121363652D01*
X100176960Y-121321780D01*
X100163847Y-121299878D01*
X100157534Y-121286339D01*
X100030826Y-121105380D01*
X99874620Y-120949174D01*
X99874616Y-120949171D01*
X99874615Y-120949170D01*
X99693666Y-120822468D01*
X99693662Y-120822466D01*
X99564218Y-120762105D01*
X99511779Y-120715932D01*
X99492627Y-120648739D01*
X99512843Y-120581858D01*
X99564219Y-120537340D01*
X99693416Y-120477095D01*
X99693417Y-120477094D01*
X99758188Y-120431741D01*
X99087448Y-119761000D01*
X99110160Y-119761000D01*
X99207061Y-119735036D01*
X99293940Y-119684876D01*
X99364876Y-119613940D01*
X99415036Y-119527061D01*
X99441000Y-119430160D01*
X99441000Y-119407447D01*
X100111741Y-120078188D01*
X100157094Y-120013417D01*
X100157100Y-120013407D01*
X100250419Y-119813284D01*
X100250424Y-119813270D01*
X100307573Y-119599986D01*
X100307575Y-119599976D01*
X100326821Y-119380000D01*
X100326821Y-119379999D01*
X100307575Y-119160023D01*
X100307573Y-119160013D01*
X100250424Y-118946729D01*
X100250420Y-118946720D01*
X100157096Y-118746586D01*
X100111741Y-118681811D01*
X100111740Y-118681810D01*
X99441000Y-119352551D01*
X99441000Y-119329840D01*
X99415036Y-119232939D01*
X99364876Y-119146060D01*
X99293940Y-119075124D01*
X99207061Y-119024964D01*
X99110160Y-118999000D01*
X99087447Y-118999000D01*
X99758188Y-118328258D01*
X99693411Y-118282901D01*
X99693405Y-118282898D01*
X99564219Y-118222658D01*
X99511779Y-118176486D01*
X99492627Y-118109293D01*
X99512843Y-118042411D01*
X99564219Y-117997894D01*
X99693662Y-117937534D01*
X99874620Y-117810826D01*
X100030826Y-117654620D01*
X100157534Y-117473662D01*
X100250894Y-117273450D01*
X100308070Y-117060068D01*
X100327323Y-116840000D01*
X100308070Y-116619932D01*
X100250894Y-116406550D01*
X100157534Y-116206339D01*
X100030826Y-116025380D01*
X99874620Y-115869174D01*
X99874616Y-115869171D01*
X99874615Y-115869170D01*
X99693666Y-115742468D01*
X99693658Y-115742464D01*
X99564811Y-115682382D01*
X99512371Y-115636210D01*
X99493219Y-115569017D01*
X99513435Y-115502135D01*
X99564811Y-115457618D01*
X99570802Y-115454824D01*
X99693662Y-115397534D01*
X99874620Y-115270826D01*
X100030826Y-115114620D01*
X100157534Y-114933662D01*
X100250894Y-114733450D01*
X100308070Y-114520068D01*
X100327323Y-114300000D01*
X100308070Y-114079932D01*
X100250894Y-113866550D01*
X100157534Y-113666339D01*
X100030826Y-113485380D01*
X99874620Y-113329174D01*
X99874616Y-113329171D01*
X99874615Y-113329170D01*
X99693666Y-113202468D01*
X99693658Y-113202464D01*
X99564811Y-113142382D01*
X99512371Y-113096210D01*
X99493219Y-113029017D01*
X99513435Y-112962135D01*
X99564811Y-112917618D01*
X99570802Y-112914824D01*
X99693662Y-112857534D01*
X99874620Y-112730826D01*
X100030826Y-112574620D01*
X100157534Y-112393662D01*
X100250894Y-112193450D01*
X100308070Y-111980068D01*
X100327323Y-111760000D01*
X100308070Y-111539932D01*
X100250894Y-111326550D01*
X100157534Y-111126339D01*
X100030826Y-110945380D01*
X99874620Y-110789174D01*
X99874616Y-110789171D01*
X99874615Y-110789170D01*
X99693666Y-110662468D01*
X99693658Y-110662464D01*
X99564811Y-110602382D01*
X99512371Y-110556210D01*
X99493219Y-110489017D01*
X99513435Y-110422135D01*
X99564811Y-110377618D01*
X99583650Y-110368833D01*
X99693662Y-110317534D01*
X99874620Y-110190826D01*
X100030826Y-110034620D01*
X100157534Y-109853662D01*
X100250894Y-109653450D01*
X100308070Y-109440068D01*
X100327323Y-109220000D01*
X100308070Y-108999932D01*
X100250894Y-108786550D01*
X100157534Y-108586339D01*
X100030826Y-108405380D01*
X99874620Y-108249174D01*
X99874616Y-108249171D01*
X99874615Y-108249170D01*
X99693666Y-108122468D01*
X99693658Y-108122464D01*
X99564811Y-108062382D01*
X99512371Y-108016210D01*
X99493219Y-107949017D01*
X99513435Y-107882135D01*
X99564811Y-107837618D01*
X99570802Y-107834824D01*
X99693662Y-107777534D01*
X99874620Y-107650826D01*
X100030826Y-107494620D01*
X100157534Y-107313662D01*
X100250894Y-107113450D01*
X100308070Y-106900068D01*
X100327323Y-106680000D01*
X100308070Y-106459932D01*
X100250894Y-106246550D01*
X100157534Y-106046339D01*
X100093246Y-105954526D01*
X100030827Y-105865381D01*
X99974366Y-105808920D01*
X99874620Y-105709174D01*
X99874616Y-105709171D01*
X99874615Y-105709170D01*
X99693666Y-105582468D01*
X99693658Y-105582464D01*
X99564811Y-105522382D01*
X99512371Y-105476210D01*
X99493219Y-105409017D01*
X99513435Y-105342135D01*
X99564811Y-105297618D01*
X99570802Y-105294824D01*
X99693662Y-105237534D01*
X99874620Y-105110826D01*
X100030826Y-104954620D01*
X100157534Y-104773662D01*
X100250894Y-104573450D01*
X100308070Y-104360068D01*
X100327323Y-104140000D01*
X100308070Y-103919932D01*
X100250894Y-103706550D01*
X100157534Y-103506339D01*
X100030826Y-103325380D01*
X99874620Y-103169174D01*
X99874616Y-103169171D01*
X99874615Y-103169170D01*
X99693666Y-103042468D01*
X99693658Y-103042464D01*
X99564811Y-102982382D01*
X99512371Y-102936210D01*
X99493219Y-102869017D01*
X99513435Y-102802135D01*
X99564811Y-102757618D01*
X99612243Y-102735500D01*
X99693662Y-102697534D01*
X99874620Y-102570826D01*
X100030826Y-102414620D01*
X100157534Y-102233662D01*
X100250894Y-102033450D01*
X100308070Y-101820068D01*
X100327323Y-101600000D01*
X100308070Y-101379932D01*
X100250894Y-101166550D01*
X100157534Y-100966339D01*
X100030826Y-100785380D01*
X99874620Y-100629174D01*
X99874616Y-100629171D01*
X99874615Y-100629170D01*
X99693666Y-100502468D01*
X99693658Y-100502464D01*
X99564811Y-100442382D01*
X99512371Y-100396210D01*
X99493219Y-100329017D01*
X99513435Y-100262135D01*
X99564811Y-100217618D01*
X99570802Y-100214824D01*
X99693662Y-100157534D01*
X99874620Y-100030826D01*
X100030826Y-99874620D01*
X100157534Y-99693662D01*
X100250894Y-99493450D01*
X100308070Y-99280068D01*
X100327323Y-99060000D01*
X100308070Y-98839932D01*
X100250894Y-98626550D01*
X100157534Y-98426339D01*
X100030826Y-98245380D01*
X99874620Y-98089174D01*
X99874616Y-98089171D01*
X99874615Y-98089170D01*
X99693666Y-97962468D01*
X99693658Y-97962464D01*
X99564811Y-97902382D01*
X99512371Y-97856210D01*
X99493219Y-97789017D01*
X99513435Y-97722135D01*
X99564811Y-97677618D01*
X99570802Y-97674824D01*
X99693662Y-97617534D01*
X99874620Y-97490826D01*
X100030826Y-97334620D01*
X100157534Y-97153662D01*
X100250894Y-96953450D01*
X100308070Y-96740068D01*
X100327323Y-96520000D01*
X100308070Y-96299932D01*
X100250894Y-96086550D01*
X100157534Y-95886339D01*
X100030826Y-95705380D01*
X99874620Y-95549174D01*
X99874616Y-95549171D01*
X99874615Y-95549170D01*
X99693666Y-95422468D01*
X99693658Y-95422464D01*
X99564811Y-95362382D01*
X99512371Y-95316210D01*
X99493219Y-95249017D01*
X99513435Y-95182135D01*
X99564811Y-95137618D01*
X99570802Y-95134824D01*
X99693662Y-95077534D01*
X99874620Y-94950826D01*
X100030826Y-94794620D01*
X100157534Y-94613662D01*
X100250894Y-94413450D01*
X100308070Y-94200068D01*
X100327323Y-93980000D01*
X100308070Y-93759932D01*
X100250894Y-93546550D01*
X100157534Y-93346339D01*
X100094180Y-93255859D01*
X100030827Y-93165381D01*
X99964879Y-93099433D01*
X99874620Y-93009174D01*
X99874616Y-93009171D01*
X99874615Y-93009170D01*
X99693666Y-92882468D01*
X99693658Y-92882464D01*
X99564811Y-92822382D01*
X99512371Y-92776210D01*
X99493219Y-92709017D01*
X99513435Y-92642135D01*
X99564811Y-92597618D01*
X99570802Y-92594824D01*
X99693662Y-92537534D01*
X99874620Y-92410826D01*
X100030826Y-92254620D01*
X100157534Y-92073662D01*
X100250894Y-91873450D01*
X100250898Y-91873433D01*
X100252079Y-91870192D01*
X100280920Y-91824917D01*
X101541711Y-90564129D01*
X101604324Y-90477949D01*
X101646767Y-90419532D01*
X101727909Y-90260281D01*
X101743187Y-90213261D01*
X101783139Y-90090301D01*
X101783139Y-90090300D01*
X101783140Y-90090297D01*
X101811100Y-89913766D01*
X101811100Y-88899998D01*
X105374532Y-88899998D01*
X105374532Y-88900001D01*
X105394364Y-89126686D01*
X105394366Y-89126697D01*
X105453258Y-89346488D01*
X105453261Y-89346497D01*
X105549431Y-89552732D01*
X105549432Y-89552734D01*
X105679954Y-89739141D01*
X105840858Y-89900045D01*
X105860454Y-89913766D01*
X106027266Y-90030568D01*
X106085275Y-90057618D01*
X106137714Y-90103791D01*
X106156866Y-90170984D01*
X106136650Y-90237865D01*
X106085275Y-90282382D01*
X106027267Y-90309431D01*
X106027265Y-90309432D01*
X105840858Y-90439954D01*
X105679954Y-90600858D01*
X105549432Y-90787265D01*
X105549431Y-90787267D01*
X105453261Y-90993502D01*
X105453258Y-90993511D01*
X105394366Y-91213302D01*
X105394364Y-91213313D01*
X105374532Y-91439998D01*
X105374532Y-91440001D01*
X105394364Y-91666686D01*
X105394366Y-91666697D01*
X105453258Y-91886488D01*
X105453261Y-91886497D01*
X105549431Y-92092732D01*
X105549432Y-92092734D01*
X105679954Y-92279141D01*
X105840858Y-92440045D01*
X105840861Y-92440047D01*
X106027266Y-92570568D01*
X106085275Y-92597618D01*
X106137714Y-92643791D01*
X106156866Y-92710984D01*
X106136650Y-92777865D01*
X106085275Y-92822381D01*
X106068272Y-92830310D01*
X106027267Y-92849431D01*
X106027265Y-92849432D01*
X105840858Y-92979954D01*
X105679954Y-93140858D01*
X105549432Y-93327265D01*
X105549431Y-93327267D01*
X105453261Y-93533502D01*
X105453258Y-93533511D01*
X105394366Y-93753302D01*
X105394364Y-93753313D01*
X105374532Y-93979998D01*
X105374532Y-93980001D01*
X105394364Y-94206686D01*
X105394366Y-94206697D01*
X105453258Y-94426488D01*
X105453261Y-94426497D01*
X105549431Y-94632732D01*
X105549432Y-94632734D01*
X105679954Y-94819141D01*
X105840858Y-94980045D01*
X105840861Y-94980047D01*
X106027266Y-95110568D01*
X106085275Y-95137618D01*
X106137714Y-95183791D01*
X106156866Y-95250984D01*
X106136650Y-95317865D01*
X106085275Y-95362382D01*
X106027267Y-95389431D01*
X106027265Y-95389432D01*
X105840858Y-95519954D01*
X105679954Y-95680858D01*
X105549432Y-95867265D01*
X105549431Y-95867267D01*
X105453261Y-96073502D01*
X105453258Y-96073511D01*
X105394366Y-96293302D01*
X105394364Y-96293313D01*
X105374532Y-96519998D01*
X105374532Y-96520001D01*
X105394364Y-96746686D01*
X105394366Y-96746697D01*
X105453258Y-96966488D01*
X105453261Y-96966497D01*
X105549431Y-97172732D01*
X105549432Y-97172734D01*
X105679954Y-97359141D01*
X105840858Y-97520045D01*
X105840861Y-97520047D01*
X106027266Y-97650568D01*
X106085275Y-97677618D01*
X106137714Y-97723791D01*
X106156866Y-97790984D01*
X106136650Y-97857865D01*
X106085275Y-97902382D01*
X106027267Y-97929431D01*
X106027265Y-97929432D01*
X105840858Y-98059954D01*
X105679954Y-98220858D01*
X105549432Y-98407265D01*
X105549431Y-98407267D01*
X105453261Y-98613502D01*
X105453258Y-98613511D01*
X105394366Y-98833302D01*
X105394364Y-98833313D01*
X105374532Y-99059998D01*
X105374532Y-99060001D01*
X105394364Y-99286686D01*
X105394366Y-99286697D01*
X105453258Y-99506488D01*
X105453261Y-99506497D01*
X105549431Y-99712732D01*
X105549432Y-99712734D01*
X105679954Y-99899141D01*
X105840858Y-100060045D01*
X105840861Y-100060047D01*
X106027266Y-100190568D01*
X106085275Y-100217618D01*
X106137714Y-100263791D01*
X106156866Y-100330984D01*
X106136650Y-100397865D01*
X106085275Y-100442382D01*
X106027267Y-100469431D01*
X106027265Y-100469432D01*
X105840858Y-100599954D01*
X105679954Y-100760858D01*
X105549432Y-100947265D01*
X105549431Y-100947267D01*
X105453261Y-101153502D01*
X105453258Y-101153511D01*
X105394366Y-101373302D01*
X105394364Y-101373313D01*
X105374532Y-101599998D01*
X105374532Y-101600001D01*
X105394364Y-101826686D01*
X105394366Y-101826697D01*
X105453258Y-102046488D01*
X105453261Y-102046497D01*
X105549431Y-102252732D01*
X105549432Y-102252734D01*
X105679954Y-102439141D01*
X105840858Y-102600045D01*
X105840861Y-102600047D01*
X106027266Y-102730568D01*
X106080057Y-102755185D01*
X106085275Y-102757618D01*
X106137714Y-102803791D01*
X106156866Y-102870984D01*
X106136650Y-102937865D01*
X106085275Y-102982381D01*
X106080057Y-102984815D01*
X106027267Y-103009431D01*
X106027265Y-103009432D01*
X105840858Y-103139954D01*
X105679954Y-103300858D01*
X105549432Y-103487265D01*
X105549431Y-103487267D01*
X105453261Y-103693502D01*
X105453258Y-103693511D01*
X105394366Y-103913302D01*
X105394364Y-103913313D01*
X105374532Y-104139998D01*
X105374532Y-104140001D01*
X105394364Y-104366686D01*
X105394366Y-104366697D01*
X105453258Y-104586488D01*
X105453261Y-104586497D01*
X105549431Y-104792732D01*
X105549432Y-104792734D01*
X105679954Y-104979141D01*
X105840858Y-105140045D01*
X105840861Y-105140047D01*
X106027266Y-105270568D01*
X106085275Y-105297618D01*
X106137714Y-105343791D01*
X106156866Y-105410984D01*
X106136650Y-105477865D01*
X106085275Y-105522382D01*
X106027267Y-105549431D01*
X106027265Y-105549432D01*
X105840858Y-105679954D01*
X105679954Y-105840858D01*
X105549432Y-106027265D01*
X105549431Y-106027267D01*
X105453261Y-106233502D01*
X105453258Y-106233511D01*
X105394366Y-106453302D01*
X105394364Y-106453313D01*
X105374532Y-106679998D01*
X105374532Y-106680001D01*
X105394364Y-106906686D01*
X105394366Y-106906697D01*
X105453258Y-107126488D01*
X105453261Y-107126497D01*
X105549431Y-107332732D01*
X105549432Y-107332734D01*
X105679954Y-107519141D01*
X105840858Y-107680045D01*
X105840861Y-107680047D01*
X106027266Y-107810568D01*
X106233504Y-107906739D01*
X106453308Y-107965635D01*
X106615230Y-107979801D01*
X106679998Y-107985468D01*
X106680000Y-107985468D01*
X106680002Y-107985468D01*
X106736673Y-107980509D01*
X106906692Y-107965635D01*
X107126496Y-107906739D01*
X107332734Y-107810568D01*
X107519139Y-107680047D01*
X107680047Y-107519139D01*
X107810568Y-107332734D01*
X107906739Y-107126496D01*
X107965635Y-106906692D01*
X107985468Y-106680000D01*
X107965635Y-106453308D01*
X107906739Y-106233504D01*
X107810568Y-106027266D01*
X107680047Y-105840861D01*
X107680045Y-105840858D01*
X107519141Y-105679954D01*
X107332734Y-105549432D01*
X107332728Y-105549429D01*
X107274725Y-105522382D01*
X107222285Y-105476210D01*
X107203133Y-105409017D01*
X107223348Y-105342135D01*
X107274725Y-105297618D01*
X107332734Y-105270568D01*
X107519139Y-105140047D01*
X107680047Y-104979139D01*
X107810568Y-104792734D01*
X107906739Y-104586496D01*
X107965635Y-104366692D01*
X107985468Y-104140000D01*
X107965635Y-103913308D01*
X107906739Y-103693504D01*
X107810568Y-103487266D01*
X107680047Y-103300861D01*
X107680045Y-103300858D01*
X107519141Y-103139954D01*
X107332734Y-103009432D01*
X107332728Y-103009429D01*
X107279943Y-102984815D01*
X107274724Y-102982381D01*
X107222285Y-102936210D01*
X107203133Y-102869017D01*
X107223348Y-102802135D01*
X107274725Y-102757618D01*
X107332734Y-102730568D01*
X107519139Y-102600047D01*
X107680047Y-102439139D01*
X107810568Y-102252734D01*
X107906739Y-102046496D01*
X107965635Y-101826692D01*
X107985468Y-101600000D01*
X107965635Y-101373308D01*
X107906739Y-101153504D01*
X107810568Y-100947266D01*
X107680047Y-100760861D01*
X107680045Y-100760858D01*
X107519141Y-100599954D01*
X107332734Y-100469432D01*
X107332728Y-100469429D01*
X107274725Y-100442382D01*
X107222285Y-100396210D01*
X107203133Y-100329017D01*
X107223348Y-100262135D01*
X107274725Y-100217618D01*
X107332734Y-100190568D01*
X107519139Y-100060047D01*
X107680047Y-99899139D01*
X107810568Y-99712734D01*
X107906739Y-99506496D01*
X107965635Y-99286692D01*
X107985468Y-99060000D01*
X107965635Y-98833308D01*
X107906739Y-98613504D01*
X107810568Y-98407266D01*
X107680047Y-98220861D01*
X107680045Y-98220858D01*
X107519141Y-98059954D01*
X107332734Y-97929432D01*
X107332728Y-97929429D01*
X107274725Y-97902382D01*
X107222285Y-97856210D01*
X107203133Y-97789017D01*
X107223348Y-97722135D01*
X107274725Y-97677618D01*
X107332734Y-97650568D01*
X107519139Y-97520047D01*
X107680047Y-97359139D01*
X107810568Y-97172734D01*
X107906739Y-96966496D01*
X107965635Y-96746692D01*
X107985468Y-96520000D01*
X107965635Y-96293308D01*
X107906739Y-96073504D01*
X107810568Y-95867266D01*
X107680047Y-95680861D01*
X107680045Y-95680858D01*
X107519141Y-95519954D01*
X107332734Y-95389432D01*
X107332728Y-95389429D01*
X107290665Y-95369815D01*
X107274724Y-95362381D01*
X107222285Y-95316210D01*
X107203133Y-95249017D01*
X107223348Y-95182135D01*
X107274725Y-95137618D01*
X107332734Y-95110568D01*
X107519139Y-94980047D01*
X107680047Y-94819139D01*
X107810568Y-94632734D01*
X107906739Y-94426496D01*
X107965635Y-94206692D01*
X107985468Y-93980000D01*
X107965635Y-93753308D01*
X107906739Y-93533504D01*
X107810568Y-93327266D01*
X107680047Y-93140861D01*
X107680045Y-93140858D01*
X107519141Y-92979954D01*
X107332734Y-92849432D01*
X107332728Y-92849429D01*
X107305038Y-92836517D01*
X107274724Y-92822381D01*
X107222285Y-92776210D01*
X107203133Y-92709017D01*
X107223348Y-92642135D01*
X107274725Y-92597618D01*
X107332734Y-92570568D01*
X107519139Y-92440047D01*
X107680047Y-92279139D01*
X107810568Y-92092734D01*
X107906739Y-91886496D01*
X107965635Y-91666692D01*
X107985468Y-91440000D01*
X107965635Y-91213308D01*
X107906739Y-90993504D01*
X107810568Y-90787266D01*
X107680047Y-90600861D01*
X107680045Y-90600858D01*
X107519141Y-90439954D01*
X107332734Y-90309432D01*
X107332728Y-90309429D01*
X107290665Y-90289815D01*
X107274724Y-90282381D01*
X107222285Y-90236210D01*
X107203133Y-90169017D01*
X107223348Y-90102135D01*
X107274725Y-90057618D01*
X107332734Y-90030568D01*
X107519139Y-89900047D01*
X107680047Y-89739139D01*
X107810568Y-89552734D01*
X107906739Y-89346496D01*
X107965635Y-89126692D01*
X107985468Y-88900000D01*
X107965635Y-88673308D01*
X107906739Y-88453504D01*
X107810568Y-88247266D01*
X107680047Y-88060861D01*
X107680045Y-88060858D01*
X107519141Y-87899954D01*
X107332734Y-87769432D01*
X107332732Y-87769431D01*
X107126497Y-87673261D01*
X107126488Y-87673258D01*
X106906697Y-87614366D01*
X106906693Y-87614365D01*
X106906692Y-87614365D01*
X106906691Y-87614364D01*
X106906686Y-87614364D01*
X106680002Y-87594532D01*
X106679998Y-87594532D01*
X106453313Y-87614364D01*
X106453302Y-87614366D01*
X106233511Y-87673258D01*
X106233502Y-87673261D01*
X106027267Y-87769431D01*
X106027265Y-87769432D01*
X105840858Y-87899954D01*
X105679954Y-88060858D01*
X105549432Y-88247265D01*
X105549431Y-88247267D01*
X105453261Y-88453502D01*
X105453258Y-88453511D01*
X105394366Y-88673302D01*
X105394364Y-88673313D01*
X105374532Y-88899998D01*
X101811100Y-88899998D01*
X101811100Y-85118734D01*
X101811100Y-85118730D01*
X101804073Y-85074367D01*
X101804073Y-85074365D01*
X101783142Y-84942207D01*
X101783141Y-84942206D01*
X101783141Y-84942203D01*
X101729415Y-84776854D01*
X101728354Y-84773093D01*
X101646766Y-84612967D01*
X101541711Y-84468372D01*
X101415328Y-84341989D01*
X98325828Y-81252489D01*
X98181232Y-81147433D01*
X98021981Y-81066291D01*
X98021975Y-81066288D01*
X97980294Y-81052746D01*
X97913553Y-81031060D01*
X97851997Y-81011059D01*
X97851995Y-81011058D01*
X97851994Y-81011058D01*
X97675470Y-80983100D01*
X97675466Y-80983100D01*
X93635266Y-80983100D01*
X93456534Y-80983100D01*
X93456530Y-80983100D01*
X93280005Y-81011058D01*
X93151705Y-81052746D01*
X93151704Y-81052745D01*
X93110018Y-81066290D01*
X92950767Y-81147433D01*
X92806170Y-81252490D01*
X91715090Y-82343570D01*
X91610033Y-82488167D01*
X91528443Y-82648297D01*
X91527384Y-82652054D01*
X91473658Y-82817405D01*
X91473657Y-82817407D01*
X91447161Y-82984707D01*
X91445700Y-82993931D01*
X91445700Y-87295566D01*
X91445699Y-87295569D01*
X91473658Y-87472093D01*
X91473659Y-87472097D01*
X91479661Y-87490568D01*
X91505450Y-87569938D01*
X91528889Y-87642078D01*
X91610033Y-87801332D01*
X91666056Y-87878441D01*
X91715088Y-87945927D01*
X92934387Y-89165226D01*
X92966481Y-89220814D01*
X93006094Y-89368655D01*
X93006096Y-89368659D01*
X93006097Y-89368663D01*
X93091930Y-89552732D01*
X93105965Y-89582830D01*
X93105967Y-89582834D01*
X93241501Y-89776395D01*
X93241506Y-89776402D01*
X93408597Y-89943493D01*
X93408603Y-89943498D01*
X93594158Y-90073425D01*
X93637783Y-90128002D01*
X93644977Y-90197500D01*
X93613454Y-90259855D01*
X93594158Y-90276575D01*
X93408597Y-90406505D01*
X93241505Y-90573597D01*
X93105965Y-90767169D01*
X93105964Y-90767171D01*
X93006098Y-90981335D01*
X93006094Y-90981344D01*
X92944938Y-91209586D01*
X92944936Y-91209596D01*
X92924341Y-91444999D01*
X92924341Y-91445000D01*
X92944936Y-91680403D01*
X92944938Y-91680413D01*
X93006094Y-91908655D01*
X93006096Y-91908659D01*
X93006097Y-91908663D01*
X93091930Y-92092732D01*
X93105965Y-92122830D01*
X93105967Y-92122834D01*
X93198242Y-92254615D01*
X93236975Y-92309932D01*
X93241501Y-92316395D01*
X93241506Y-92316402D01*
X93408597Y-92483493D01*
X93408603Y-92483498D01*
X93594158Y-92613425D01*
X93637783Y-92668002D01*
X93644977Y-92737500D01*
X93613454Y-92799855D01*
X93594158Y-92816575D01*
X93408597Y-92946505D01*
X93241505Y-93113597D01*
X93105965Y-93307169D01*
X93105964Y-93307171D01*
X93012401Y-93507816D01*
X93008430Y-93516335D01*
X93006098Y-93521335D01*
X93006094Y-93521344D01*
X92944938Y-93749586D01*
X92944936Y-93749596D01*
X92924341Y-93984999D01*
X92924341Y-93985000D01*
X92944936Y-94220403D01*
X92944938Y-94220413D01*
X93006094Y-94448655D01*
X93006096Y-94448659D01*
X93006097Y-94448663D01*
X93083672Y-94615023D01*
X93105965Y-94662830D01*
X93105967Y-94662834D01*
X93198242Y-94794615D01*
X93238000Y-94851396D01*
X93241501Y-94856395D01*
X93241506Y-94856402D01*
X93408597Y-95023493D01*
X93408603Y-95023498D01*
X93594158Y-95153425D01*
X93637783Y-95208002D01*
X93644977Y-95277500D01*
X93613454Y-95339855D01*
X93594158Y-95356575D01*
X93408597Y-95486505D01*
X93241505Y-95653597D01*
X93105965Y-95847169D01*
X93105964Y-95847171D01*
X93006098Y-96061335D01*
X93006094Y-96061344D01*
X92944938Y-96289586D01*
X92944936Y-96289596D01*
X92924341Y-96524999D01*
X92924341Y-96525000D01*
X92944936Y-96760403D01*
X92944938Y-96760413D01*
X93006094Y-96988655D01*
X93006096Y-96988659D01*
X93006097Y-96988663D01*
X93091930Y-97172732D01*
X93105965Y-97202830D01*
X93105967Y-97202834D01*
X93241501Y-97396395D01*
X93241506Y-97396402D01*
X93363430Y-97518326D01*
X93396915Y-97579649D01*
X93391931Y-97649341D01*
X93350059Y-97705274D01*
X93319083Y-97722189D01*
X93187669Y-97771203D01*
X93187664Y-97771206D01*
X93072455Y-97857452D01*
X93072452Y-97857455D01*
X92986206Y-97972664D01*
X92986202Y-97972671D01*
X92935908Y-98107517D01*
X92929501Y-98167116D01*
X92929500Y-98167135D01*
X92929500Y-99962870D01*
X92929501Y-99962876D01*
X92935908Y-100022483D01*
X92986202Y-100157328D01*
X92986206Y-100157335D01*
X93072452Y-100272544D01*
X93072455Y-100272547D01*
X93187664Y-100358793D01*
X93187671Y-100358797D01*
X93322517Y-100409091D01*
X93322516Y-100409091D01*
X93329444Y-100409835D01*
X93382127Y-100415500D01*
X95140500Y-100415499D01*
X95207539Y-100435184D01*
X95253294Y-100487987D01*
X95264500Y-100539499D01*
X95264500Y-102742339D01*
X95244815Y-102809378D01*
X95192011Y-102855133D01*
X95122853Y-102865077D01*
X95081484Y-102847944D01*
X95080114Y-102850454D01*
X95072328Y-102846202D01*
X94937482Y-102795908D01*
X94937483Y-102795908D01*
X94877883Y-102789501D01*
X94877881Y-102789500D01*
X94877873Y-102789500D01*
X94877864Y-102789500D01*
X93082129Y-102789500D01*
X93082123Y-102789501D01*
X93022516Y-102795908D01*
X92887671Y-102846202D01*
X92887664Y-102846206D01*
X92772457Y-102932451D01*
X92772449Y-102932458D01*
X92755718Y-102954810D01*
X92699785Y-102996682D01*
X92656451Y-103004500D01*
X92381702Y-103004500D01*
X92314663Y-102984815D01*
X92294021Y-102968181D01*
X90059730Y-100733891D01*
X90059727Y-100733888D01*
X90016013Y-100702128D01*
X89915132Y-100628833D01*
X89755885Y-100547692D01*
X89730669Y-100539499D01*
X89713403Y-100533889D01*
X89713401Y-100533888D01*
X89713400Y-100533887D01*
X89614735Y-100501829D01*
X89585897Y-100492459D01*
X89585895Y-100492458D01*
X89585894Y-100492458D01*
X89409370Y-100464500D01*
X89409366Y-100464500D01*
X87683549Y-100464500D01*
X87616510Y-100444815D01*
X87584282Y-100414810D01*
X87567546Y-100392454D01*
X87545188Y-100375716D01*
X87503318Y-100319782D01*
X87495500Y-100276450D01*
X87495500Y-97843548D01*
X87515185Y-97776509D01*
X87545188Y-97744282D01*
X87567546Y-97727546D01*
X87653796Y-97612331D01*
X87704091Y-97477483D01*
X87710500Y-97417873D01*
X87710499Y-95622128D01*
X87704091Y-95562517D01*
X87699114Y-95549174D01*
X87653797Y-95427671D01*
X87653793Y-95427664D01*
X87567547Y-95312455D01*
X87567544Y-95312452D01*
X87452335Y-95226206D01*
X87452328Y-95226202D01*
X87320917Y-95177189D01*
X87264983Y-95135318D01*
X87240566Y-95069853D01*
X87255418Y-95001580D01*
X87276563Y-94973332D01*
X87398495Y-94851401D01*
X87534035Y-94657830D01*
X87633903Y-94443663D01*
X87695063Y-94215408D01*
X87715659Y-93980000D01*
X87695063Y-93744592D01*
X87642000Y-93546554D01*
X87633905Y-93516344D01*
X87633904Y-93516343D01*
X87633903Y-93516337D01*
X87534035Y-93302171D01*
X87517923Y-93279161D01*
X87495597Y-93212955D01*
X87495500Y-93208040D01*
X87495500Y-91770634D01*
X87483857Y-91697125D01*
X87483857Y-91697121D01*
X87467541Y-91594104D01*
X87467539Y-91594098D01*
X87419094Y-91445000D01*
X87412309Y-91424119D01*
X87412307Y-91424116D01*
X87412307Y-91424114D01*
X87376164Y-91353180D01*
X87331167Y-91264868D01*
X87251345Y-91155003D01*
X87251345Y-91155002D01*
X87251343Y-91155001D01*
X87226111Y-91120271D01*
X87092719Y-90986879D01*
X87059234Y-90925556D01*
X87056400Y-90899198D01*
X87056400Y-90206100D01*
X87076085Y-90139061D01*
X87120971Y-90097269D01*
X87127321Y-90093801D01*
X87127324Y-90093798D01*
X87127331Y-90093796D01*
X87128430Y-90092972D01*
X87129717Y-90092492D01*
X87135114Y-90089546D01*
X87135537Y-90090321D01*
X87193887Y-90068552D01*
X87250198Y-90077673D01*
X87330873Y-90111091D01*
X87528992Y-90150499D01*
X87528996Y-90150500D01*
X87528997Y-90150500D01*
X87731004Y-90150500D01*
X87731005Y-90150499D01*
X87929127Y-90111091D01*
X88115756Y-90033786D01*
X88196562Y-89979792D01*
X88263234Y-89958917D01*
X88330614Y-89977401D01*
X88334340Y-89979795D01*
X88414479Y-90033343D01*
X88414486Y-90033347D01*
X88601016Y-90110609D01*
X88601025Y-90110612D01*
X88650000Y-90120353D01*
X88650000Y-89265865D01*
X88652383Y-89241671D01*
X88654519Y-89230936D01*
X88655500Y-89226003D01*
X88655500Y-89185830D01*
X88669745Y-89200075D01*
X88755255Y-89249444D01*
X88850630Y-89275000D01*
X88949370Y-89275000D01*
X89044745Y-89249444D01*
X89130255Y-89200075D01*
X89150000Y-89180330D01*
X89150000Y-90120352D01*
X89198974Y-90110612D01*
X89198983Y-90110609D01*
X89385513Y-90033347D01*
X89385526Y-90033340D01*
X89553399Y-89921170D01*
X89553403Y-89921167D01*
X89696167Y-89778403D01*
X89696170Y-89778399D01*
X89808340Y-89610526D01*
X89808347Y-89610513D01*
X89885609Y-89423983D01*
X89885612Y-89423974D01*
X89924999Y-89225958D01*
X89925000Y-89225955D01*
X89925000Y-89150000D01*
X89180330Y-89150000D01*
X89200075Y-89130255D01*
X89249444Y-89044745D01*
X89275000Y-88949370D01*
X89275000Y-88850630D01*
X89249444Y-88755255D01*
X89200075Y-88669745D01*
X89180330Y-88650000D01*
X89925000Y-88650000D01*
X89925000Y-88574045D01*
X89924999Y-88574041D01*
X89885612Y-88376025D01*
X89885609Y-88376016D01*
X89808347Y-88189486D01*
X89808340Y-88189473D01*
X89696170Y-88021600D01*
X89696167Y-88021596D01*
X89553403Y-87878832D01*
X89553399Y-87878829D01*
X89385526Y-87766659D01*
X89385513Y-87766652D01*
X89198984Y-87689390D01*
X89198977Y-87689388D01*
X89150000Y-87679645D01*
X89150000Y-88619670D01*
X89130255Y-88599925D01*
X89044745Y-88550556D01*
X88949370Y-88525000D01*
X88850630Y-88525000D01*
X88755255Y-88550556D01*
X88669745Y-88599925D01*
X88655500Y-88614170D01*
X88655500Y-88573997D01*
X88655500Y-88568929D01*
X88655400Y-88566892D01*
X88655400Y-86889104D01*
X88615995Y-86691007D01*
X88615994Y-86691006D01*
X88615994Y-86691002D01*
X88538697Y-86504391D01*
X88538696Y-86504390D01*
X88538693Y-86504384D01*
X88426480Y-86336446D01*
X88426477Y-86336442D01*
X88283657Y-86193622D01*
X88283653Y-86193619D01*
X88115715Y-86081406D01*
X88115706Y-86081401D01*
X87929098Y-86004106D01*
X87929092Y-86004104D01*
X87730995Y-85964700D01*
X87730993Y-85964700D01*
X87529007Y-85964700D01*
X87529005Y-85964700D01*
X87330907Y-86004104D01*
X87330901Y-86004106D01*
X87144292Y-86081402D01*
X86976345Y-86193619D01*
X86946615Y-86223350D01*
X86916882Y-86253082D01*
X86855562Y-86286566D01*
X86829203Y-86289400D01*
X84533663Y-86289400D01*
X84477367Y-86275884D01*
X84451080Y-86262490D01*
X84281100Y-86207260D01*
X84148698Y-86186290D01*
X84104566Y-86179300D01*
X83925834Y-86179300D01*
X83866990Y-86188620D01*
X83749301Y-86207260D01*
X83749298Y-86207260D01*
X83579321Y-86262489D01*
X83579321Y-86262490D01*
X83420067Y-86343633D01*
X83275470Y-86448690D01*
X83149090Y-86575070D01*
X83044033Y-86719667D01*
X82962891Y-86878918D01*
X82962889Y-86878921D01*
X82907660Y-87048898D01*
X82907660Y-87048901D01*
X82879700Y-87225434D01*
X82879700Y-91193099D01*
X82860015Y-91260138D01*
X82843381Y-91280780D01*
X80413891Y-93710269D01*
X80413890Y-93710270D01*
X80308833Y-93854867D01*
X80227243Y-94014997D01*
X80226184Y-94018754D01*
X80172458Y-94184105D01*
X80144500Y-94360629D01*
X80144500Y-95850351D01*
X80132882Y-95902756D01*
X80053262Y-96073502D01*
X80053258Y-96073511D01*
X79994366Y-96293302D01*
X79994364Y-96293313D01*
X79974532Y-96519998D01*
X79280000Y-96519998D01*
X79280000Y-86359998D01*
X79974532Y-86359998D01*
X79974532Y-86360001D01*
X79994364Y-86586686D01*
X79994366Y-86586697D01*
X80053258Y-86806488D01*
X80053261Y-86806497D01*
X80149431Y-87012732D01*
X80149432Y-87012734D01*
X80279954Y-87199141D01*
X80440858Y-87360045D01*
X80440861Y-87360047D01*
X80627266Y-87490568D01*
X80833504Y-87586739D01*
X81053308Y-87645635D01*
X81215230Y-87659801D01*
X81279998Y-87665468D01*
X81280000Y-87665468D01*
X81280002Y-87665468D01*
X81336673Y-87660509D01*
X81506692Y-87645635D01*
X81726496Y-87586739D01*
X81932734Y-87490568D01*
X82119139Y-87360047D01*
X82280047Y-87199139D01*
X82410568Y-87012734D01*
X82506739Y-86806496D01*
X82565635Y-86586692D01*
X82585468Y-86360000D01*
X82565635Y-86133308D01*
X82506739Y-85913504D01*
X82410568Y-85707266D01*
X82280047Y-85520861D01*
X82280045Y-85520858D01*
X82119141Y-85359954D01*
X81932734Y-85229432D01*
X81932732Y-85229431D01*
X81726497Y-85133261D01*
X81726488Y-85133258D01*
X81506697Y-85074366D01*
X81506693Y-85074365D01*
X81506692Y-85074365D01*
X81506691Y-85074364D01*
X81506686Y-85074364D01*
X81280002Y-85054532D01*
X81279998Y-85054532D01*
X81053313Y-85074364D01*
X81053302Y-85074366D01*
X80833511Y-85133258D01*
X80833502Y-85133261D01*
X80627267Y-85229431D01*
X80627265Y-85229432D01*
X80440858Y-85359954D01*
X80279954Y-85520858D01*
X80149432Y-85707265D01*
X80149431Y-85707267D01*
X80053261Y-85913502D01*
X80053258Y-85913511D01*
X79994366Y-86133302D01*
X79994364Y-86133313D01*
X79974532Y-86359998D01*
X79280000Y-86359998D01*
X79280000Y-82732777D01*
X79299685Y-82665738D01*
X79352489Y-82619983D01*
X79421647Y-82610039D01*
X79485203Y-82639064D01*
X79499542Y-82653735D01*
X79509472Y-82665738D01*
X79526649Y-82686502D01*
X79746836Y-82893272D01*
X79746846Y-82893280D01*
X79991193Y-83070808D01*
X79991198Y-83070810D01*
X79991205Y-83070816D01*
X80255896Y-83216332D01*
X80255901Y-83216334D01*
X80255903Y-83216335D01*
X80255904Y-83216336D01*
X80536734Y-83327524D01*
X80536737Y-83327525D01*
X80586657Y-83340342D01*
X80829302Y-83402642D01*
X80976039Y-83421179D01*
X81128963Y-83440499D01*
X81128969Y-83440499D01*
X81128973Y-83440500D01*
X81128975Y-83440500D01*
X81431025Y-83440500D01*
X81431027Y-83440500D01*
X81431032Y-83440499D01*
X81431036Y-83440499D01*
X81510591Y-83430448D01*
X81730698Y-83402642D01*
X82023262Y-83327525D01*
X82023265Y-83327524D01*
X82304095Y-83216336D01*
X82304096Y-83216335D01*
X82304094Y-83216335D01*
X82304104Y-83216332D01*
X82568795Y-83070816D01*
X82813162Y-82893274D01*
X83033349Y-82686504D01*
X83225885Y-82453768D01*
X83387733Y-82198736D01*
X83516341Y-81925430D01*
X83609681Y-81638160D01*
X83666280Y-81341457D01*
X83666281Y-81341446D01*
X83685246Y-81040005D01*
X83685246Y-81039994D01*
X83666281Y-80738553D01*
X83666280Y-80738546D01*
X83666280Y-80738543D01*
X83609681Y-80441840D01*
X83516341Y-80154570D01*
X83387733Y-79881264D01*
X83354015Y-79828133D01*
X83225886Y-79626233D01*
X83225883Y-79626229D01*
X83074750Y-79443541D01*
X83047184Y-79379339D01*
X83058705Y-79310425D01*
X83105654Y-79258680D01*
X83170293Y-79240500D01*
X140389707Y-79240500D01*
X140456746Y-79260185D01*
G37*
G04 #@! TD.AperFunction*
M02*
