%TF.GenerationSoftware,KiCad,Pcbnew,8.0.8*%
%TF.CreationDate,2025-01-19T23:46:45+01:00*%
%TF.ProjectId,ESP32ScoringDevice_PCB_THT_Rev1.2,45535033-3253-4636-9f72-696e67446576,1.1*%
%TF.SameCoordinates,Original*%
%TF.FileFunction,Drillmap*%
%TF.FilePolarity,Positive*%
%FSLAX45Y45*%
G04 Gerber Fmt 4.5, Leading zero omitted, Abs format (unit mm)*
G04 Created by KiCad (PCBNEW 8.0.8) date 2025-01-19 23:46:45*
%MOMM*%
%LPD*%
G01*
G04 APERTURE LIST*
%ADD10C,0.100000*%
%ADD11C,0.200000*%
G04 APERTURE END LIST*
D10*
X14478000Y-13208000D02*
X7874000Y-13208000D01*
X7874000Y-7874000D01*
X14478000Y-7874000D01*
X14478000Y-13208000D01*
D11*
X8129777Y-13524484D02*
X8129777Y-13324484D01*
X8129777Y-13324484D02*
X8177396Y-13324484D01*
X8177396Y-13324484D02*
X8205967Y-13334008D01*
X8205967Y-13334008D02*
X8225015Y-13353055D01*
X8225015Y-13353055D02*
X8234539Y-13372103D01*
X8234539Y-13372103D02*
X8244062Y-13410198D01*
X8244062Y-13410198D02*
X8244062Y-13438769D01*
X8244062Y-13438769D02*
X8234539Y-13476865D01*
X8234539Y-13476865D02*
X8225015Y-13495912D01*
X8225015Y-13495912D02*
X8205967Y-13514960D01*
X8205967Y-13514960D02*
X8177396Y-13524484D01*
X8177396Y-13524484D02*
X8129777Y-13524484D01*
X8329777Y-13524484D02*
X8329777Y-13391150D01*
X8329777Y-13429246D02*
X8339301Y-13410198D01*
X8339301Y-13410198D02*
X8348824Y-13400674D01*
X8348824Y-13400674D02*
X8367872Y-13391150D01*
X8367872Y-13391150D02*
X8386920Y-13391150D01*
X8453586Y-13524484D02*
X8453586Y-13391150D01*
X8453586Y-13324484D02*
X8444063Y-13334008D01*
X8444063Y-13334008D02*
X8453586Y-13343531D01*
X8453586Y-13343531D02*
X8463110Y-13334008D01*
X8463110Y-13334008D02*
X8453586Y-13324484D01*
X8453586Y-13324484D02*
X8453586Y-13343531D01*
X8577396Y-13524484D02*
X8558348Y-13514960D01*
X8558348Y-13514960D02*
X8548824Y-13495912D01*
X8548824Y-13495912D02*
X8548824Y-13324484D01*
X8682158Y-13524484D02*
X8663110Y-13514960D01*
X8663110Y-13514960D02*
X8653586Y-13495912D01*
X8653586Y-13495912D02*
X8653586Y-13324484D01*
X8910729Y-13524484D02*
X8910729Y-13324484D01*
X8910729Y-13324484D02*
X8977396Y-13467341D01*
X8977396Y-13467341D02*
X9044063Y-13324484D01*
X9044063Y-13324484D02*
X9044063Y-13524484D01*
X9225015Y-13524484D02*
X9225015Y-13419722D01*
X9225015Y-13419722D02*
X9215491Y-13400674D01*
X9215491Y-13400674D02*
X9196444Y-13391150D01*
X9196444Y-13391150D02*
X9158348Y-13391150D01*
X9158348Y-13391150D02*
X9139301Y-13400674D01*
X9225015Y-13514960D02*
X9205967Y-13524484D01*
X9205967Y-13524484D02*
X9158348Y-13524484D01*
X9158348Y-13524484D02*
X9139301Y-13514960D01*
X9139301Y-13514960D02*
X9129777Y-13495912D01*
X9129777Y-13495912D02*
X9129777Y-13476865D01*
X9129777Y-13476865D02*
X9139301Y-13457817D01*
X9139301Y-13457817D02*
X9158348Y-13448293D01*
X9158348Y-13448293D02*
X9205967Y-13448293D01*
X9205967Y-13448293D02*
X9225015Y-13438769D01*
X9320253Y-13391150D02*
X9320253Y-13591150D01*
X9320253Y-13400674D02*
X9339301Y-13391150D01*
X9339301Y-13391150D02*
X9377396Y-13391150D01*
X9377396Y-13391150D02*
X9396444Y-13400674D01*
X9396444Y-13400674D02*
X9405967Y-13410198D01*
X9405967Y-13410198D02*
X9415491Y-13429246D01*
X9415491Y-13429246D02*
X9415491Y-13486388D01*
X9415491Y-13486388D02*
X9405967Y-13505436D01*
X9405967Y-13505436D02*
X9396444Y-13514960D01*
X9396444Y-13514960D02*
X9377396Y-13524484D01*
X9377396Y-13524484D02*
X9339301Y-13524484D01*
X9339301Y-13524484D02*
X9320253Y-13514960D01*
X9501205Y-13505436D02*
X9510729Y-13514960D01*
X9510729Y-13514960D02*
X9501205Y-13524484D01*
X9501205Y-13524484D02*
X9491682Y-13514960D01*
X9491682Y-13514960D02*
X9501205Y-13505436D01*
X9501205Y-13505436D02*
X9501205Y-13524484D01*
X9501205Y-13400674D02*
X9510729Y-13410198D01*
X9510729Y-13410198D02*
X9501205Y-13419722D01*
X9501205Y-13419722D02*
X9491682Y-13410198D01*
X9491682Y-13410198D02*
X9501205Y-13400674D01*
X9501205Y-13400674D02*
X9501205Y-13419722D01*
M02*
