M48
; DRILL file {KiCad 8.0.7} date 2024-12-29T17:01:06+0100
; FORMAT={-:-/ absolute / metric / decimal}
; #@! TF.CreationDate,2024-12-29T17:01:06+01:00
; #@! TF.GenerationSoftware,Kicad,Pcbnew,8.0.7
; #@! TF.FileFunction,Plated,1,2,PTH
FMAT,2
METRIC
; #@! TA.AperFunction,Plated,PTH,ComponentDrill
T1C0.750
; #@! TA.AperFunction,Plated,PTH,ComponentDrill
T2C0.762
; #@! TA.AperFunction,Plated,PTH,ComponentDrill
T3C0.800
; #@! TA.AperFunction,Plated,PTH,ComponentDrill
T4C1.000
; #@! TA.AperFunction,Plated,PTH,ComponentDrill
T5C2.200
%
G90
G05
T1
X86.36Y-88.9
X87.63Y-88.9
X88.9Y-88.9
X137.16Y-99.06
X138.43Y-99.06
X139.7Y-99.06
T2
X99.06Y-86.36
X99.06Y-88.9
X99.06Y-91.44
X99.06Y-93.98
X99.06Y-96.52
X99.06Y-99.06
X99.06Y-101.6
X99.06Y-104.14
X99.06Y-106.68
X99.06Y-109.22
X99.06Y-111.76
X99.06Y-114.3
X99.06Y-116.84
X99.06Y-119.38
X99.06Y-121.92
X124.46Y-86.36
X124.46Y-88.9
X124.46Y-91.44
X124.46Y-93.98
X124.46Y-96.52
X124.46Y-99.06
X124.46Y-101.6
X124.46Y-104.14
X124.46Y-106.68
X124.46Y-109.22
X124.46Y-111.76
X124.46Y-114.3
X124.46Y-116.84
X124.46Y-119.38
X124.46Y-121.92
T3
X81.28Y-86.36
X81.28Y-96.52
X93.98Y-119.46
X93.98Y-124.46
X106.68Y-88.9
X106.68Y-91.44
X106.68Y-93.98
X106.68Y-96.52
X106.68Y-99.06
X106.68Y-101.6
X106.68Y-104.14
X106.68Y-106.68
X116.84Y-88.9
X116.84Y-91.44
X116.84Y-93.98
X116.84Y-96.52
X116.84Y-99.06
X116.84Y-101.6
X116.84Y-104.14
X116.84Y-106.68
X129.54Y-119.46
X129.54Y-124.46
X134.62Y-101.6
X134.62Y-111.76
X137.78Y-104.14
X137.78Y-114.3
T4
X86.36Y-93.98
X86.36Y-96.52
X86.36Y-101.6
X86.36Y-104.14
X86.36Y-106.68
X86.36Y-119.46
X86.36Y-124.46
X93.98Y-104.14
X93.98Y-106.68
X93.98Y-109.22
X93.98Y-111.76
X93.98Y-114.3
X94.28Y-83.825
X94.28Y-86.365
X94.28Y-88.905
X94.28Y-91.445
X94.28Y-93.985
X94.28Y-96.525
X94.28Y-99.065
X129.54Y-91.44
X129.54Y-93.98
X129.54Y-106.68
X129.54Y-109.22
X129.54Y-111.76
X129.54Y-114.3
X132.08Y-93.98
X134.62Y-93.98
X137.16Y-119.46
X137.16Y-124.46
X142.24Y-106.68
X142.24Y-109.22
T5
X81.28Y-81.04
X81.28Y-129.54
X142.28Y-81.04
X142.28Y-129.54
M30
