G04 #@! TF.GenerationSoftware,KiCad,Pcbnew,8.0.8*
G04 #@! TF.CreationDate,2025-01-19T23:43:05+01:00*
G04 #@! TF.ProjectId,ESP32ScoringDevice_PCB_THT_Rev1.2,45535033-3253-4636-9f72-696e67446576,1.1*
G04 #@! TF.SameCoordinates,Original*
G04 #@! TF.FileFunction,Copper,L2,Bot*
G04 #@! TF.FilePolarity,Positive*
%FSLAX46Y46*%
G04 Gerber Fmt 4.6, Leading zero omitted, Abs format (unit mm)*
G04 Created by KiCad (PCBNEW 8.0.8) date 2025-01-19 23:43:05*
%MOMM*%
%LPD*%
G01*
G04 APERTURE LIST*
G04 Aperture macros list*
%AMRoundRect*
0 Rectangle with rounded corners*
0 $1 Rounding radius*
0 $2 $3 $4 $5 $6 $7 $8 $9 X,Y pos of 4 corners*
0 Add a 4 corners polygon primitive as box body*
4,1,4,$2,$3,$4,$5,$6,$7,$8,$9,$2,$3,0*
0 Add four circle primitives for the rounded corners*
1,1,$1+$1,$2,$3*
1,1,$1+$1,$4,$5*
1,1,$1+$1,$6,$7*
1,1,$1+$1,$8,$9*
0 Add four rect primitives between the rounded corners*
20,1,$1+$1,$2,$3,$4,$5,0*
20,1,$1+$1,$4,$5,$6,$7,0*
20,1,$1+$1,$6,$7,$8,$9,0*
20,1,$1+$1,$8,$9,$2,$3,0*%
G04 Aperture macros list end*
G04 #@! TA.AperFunction,ComponentPad*
%ADD10C,1.600000*%
G04 #@! TD*
G04 #@! TA.AperFunction,ComponentPad*
%ADD11R,1.700000X1.700000*%
G04 #@! TD*
G04 #@! TA.AperFunction,ComponentPad*
%ADD12O,1.700000X1.700000*%
G04 #@! TD*
G04 #@! TA.AperFunction,ComponentPad*
%ADD13RoundRect,0.250000X-0.600000X-0.750000X0.600000X-0.750000X0.600000X0.750000X-0.600000X0.750000X0*%
G04 #@! TD*
G04 #@! TA.AperFunction,ComponentPad*
%ADD14O,1.700000X2.000000*%
G04 #@! TD*
G04 #@! TA.AperFunction,ComponentPad*
%ADD15R,1.524000X1.524000*%
G04 #@! TD*
G04 #@! TA.AperFunction,ComponentPad*
%ADD16C,1.524000*%
G04 #@! TD*
G04 #@! TA.AperFunction,ComponentPad*
%ADD17O,1.600000X1.600000*%
G04 #@! TD*
G04 #@! TA.AperFunction,ComponentPad*
%ADD18R,2.000000X2.000000*%
G04 #@! TD*
G04 #@! TA.AperFunction,ComponentPad*
%ADD19C,2.000000*%
G04 #@! TD*
G04 #@! TA.AperFunction,ComponentPad*
%ADD20R,1.050000X1.500000*%
G04 #@! TD*
G04 #@! TA.AperFunction,ComponentPad*
%ADD21O,1.050000X1.500000*%
G04 #@! TD*
G04 #@! TA.AperFunction,ComponentPad*
%ADD22C,3.800000*%
G04 #@! TD*
G04 #@! TA.AperFunction,ComponentPad*
%ADD23RoundRect,0.250000X-0.725000X0.600000X-0.725000X-0.600000X0.725000X-0.600000X0.725000X0.600000X0*%
G04 #@! TD*
G04 #@! TA.AperFunction,ComponentPad*
%ADD24O,1.950000X1.700000*%
G04 #@! TD*
G04 #@! TA.AperFunction,ComponentPad*
%ADD25R,1.500000X1.050000*%
G04 #@! TD*
G04 #@! TA.AperFunction,ComponentPad*
%ADD26O,1.500000X1.050000*%
G04 #@! TD*
G04 #@! TA.AperFunction,ComponentPad*
%ADD27RoundRect,0.250000X-0.750000X0.600000X-0.750000X-0.600000X0.750000X-0.600000X0.750000X0.600000X0*%
G04 #@! TD*
G04 #@! TA.AperFunction,ComponentPad*
%ADD28O,2.000000X1.700000*%
G04 #@! TD*
G04 #@! TA.AperFunction,ComponentPad*
%ADD29R,1.905000X2.000000*%
G04 #@! TD*
G04 #@! TA.AperFunction,ComponentPad*
%ADD30O,1.905000X2.000000*%
G04 #@! TD*
G04 #@! TA.AperFunction,ViaPad*
%ADD31C,0.450000*%
G04 #@! TD*
G04 #@! TA.AperFunction,Conductor*
%ADD32C,0.381000*%
G04 #@! TD*
G04 #@! TA.AperFunction,Conductor*
%ADD33C,1.270000*%
G04 #@! TD*
G04 APERTURE END LIST*
D10*
X129794000Y-126706000D03*
X129794000Y-125456000D03*
X129794000Y-122956000D03*
X129794000Y-121706000D03*
D11*
X137668000Y-116332000D03*
D12*
X137668000Y-113792000D03*
D11*
X137668000Y-109982000D03*
D12*
X137668000Y-107442000D03*
D13*
X92476000Y-115045000D03*
D14*
X94976000Y-115045000D03*
D15*
X100330000Y-86360000D03*
D16*
X100330000Y-88900000D03*
X100330000Y-91440000D03*
X100330000Y-93980000D03*
X100330000Y-96520000D03*
X100330000Y-99060000D03*
X100330000Y-101600000D03*
X100330000Y-104140000D03*
X100330000Y-106680000D03*
X100330000Y-109220000D03*
X100330000Y-111760000D03*
X100330000Y-114300000D03*
X100330000Y-116840000D03*
X100330000Y-119380000D03*
X100330000Y-121920000D03*
X125730000Y-121920000D03*
X125730000Y-119380000D03*
X125730000Y-116840000D03*
X125730000Y-114300000D03*
X125730000Y-111760000D03*
X125730000Y-109220000D03*
X125730000Y-106680000D03*
X125730000Y-104140000D03*
X125730000Y-101600000D03*
X125730000Y-99060000D03*
X125730000Y-96520000D03*
X125730000Y-93980000D03*
X125730000Y-91440000D03*
X125730000Y-88900000D03*
X125730000Y-86360000D03*
D10*
X109398000Y-107522000D03*
D17*
X117018000Y-107522000D03*
D10*
X94742000Y-127234000D03*
X94742000Y-125984000D03*
X94742000Y-123484000D03*
X94742000Y-122234000D03*
D18*
X87122000Y-126920000D03*
D19*
X87122000Y-121920000D03*
D10*
X117030000Y-113618000D03*
D17*
X109410000Y-113618000D03*
D20*
X90424000Y-105156000D03*
D21*
X91694000Y-105156000D03*
X92964000Y-105156000D03*
D11*
X106680000Y-88646000D03*
D12*
X109220000Y-88646000D03*
X111760000Y-88646000D03*
X114300000Y-88646000D03*
X116840000Y-88646000D03*
X119380000Y-88646000D03*
D22*
X81280000Y-81280000D03*
D23*
X91948000Y-84328000D03*
D24*
X91948000Y-86828000D03*
X91948000Y-89328000D03*
X91948000Y-91828000D03*
X91948000Y-94328000D03*
X91948000Y-96828000D03*
X91948000Y-99328000D03*
D23*
X83058000Y-86520000D03*
D24*
X83058000Y-89020000D03*
X83058000Y-91520000D03*
X83058000Y-94020000D03*
X83058000Y-96520000D03*
D10*
X117030000Y-110570000D03*
D17*
X109410000Y-110570000D03*
D22*
X142240000Y-129540000D03*
D25*
X131474800Y-106934000D03*
D26*
X131474800Y-105664000D03*
X131474800Y-104394000D03*
D10*
X130302000Y-109982000D03*
D17*
X130302000Y-117602000D03*
D23*
X83058000Y-111252000D03*
D24*
X83058000Y-113752000D03*
X83058000Y-116252000D03*
D27*
X83058000Y-102656000D03*
D28*
X83058000Y-105156000D03*
D10*
X117018000Y-104474000D03*
D17*
X109398000Y-104474000D03*
D11*
X131318000Y-95250000D03*
D12*
X133858000Y-95250000D03*
X131318000Y-97790000D03*
X133858000Y-97790000D03*
X131318000Y-100330000D03*
X133858000Y-100330000D03*
D10*
X117030000Y-116666000D03*
D17*
X109410000Y-116666000D03*
D10*
X109410000Y-128820000D03*
D17*
X117030000Y-128820000D03*
D22*
X81280000Y-129540000D03*
D10*
X109410000Y-122724000D03*
D17*
X117030000Y-122724000D03*
D10*
X133350000Y-117602000D03*
D17*
X133350000Y-109982000D03*
D22*
X142240000Y-81280000D03*
D29*
X90170000Y-110673000D03*
D30*
X92710000Y-110673000D03*
X95250000Y-110673000D03*
D10*
X109410000Y-125772000D03*
D17*
X117030000Y-125772000D03*
D18*
X137160000Y-126319700D03*
D19*
X137160000Y-121319700D03*
D10*
X109410000Y-119676000D03*
D17*
X117030000Y-119676000D03*
D31*
X103632000Y-114300000D03*
X103632000Y-119380000D03*
X138176000Y-93980000D03*
X129540000Y-93980000D03*
X86868000Y-108204000D03*
X83312000Y-83312000D03*
X87376000Y-83312000D03*
X114554000Y-96774000D03*
X132080000Y-108712000D03*
X93472000Y-108204000D03*
X110744000Y-101600000D03*
X119380000Y-93726000D03*
X109728000Y-90678000D03*
X109728000Y-93726000D03*
X114554000Y-93726000D03*
X117856000Y-118110000D03*
X93980000Y-86106000D03*
X96774000Y-97536000D03*
X96520000Y-83058000D03*
X86868000Y-100838000D03*
X96774000Y-103632000D03*
X114220400Y-91367600D03*
D32*
X130556000Y-100330000D02*
X131318000Y-100330000D01*
X129032000Y-98806000D02*
X130556000Y-100330000D01*
X129032000Y-94742000D02*
X129032000Y-98806000D01*
X125730000Y-91440000D02*
X129032000Y-94742000D01*
X136422600Y-111301200D02*
X136422600Y-100354600D01*
X137668000Y-112546600D02*
X136422600Y-111301200D01*
X137668000Y-113792000D02*
X137668000Y-112546600D01*
X136422600Y-100354600D02*
X133858000Y-97790000D01*
X92676800Y-109277600D02*
X81663500Y-98264300D01*
X81663500Y-98264300D02*
X81663500Y-92914500D01*
X95894700Y-109277600D02*
X92676800Y-109277600D01*
X97088600Y-110471500D02*
X95894700Y-109277600D01*
X97088600Y-113598600D02*
X97088600Y-110471500D01*
X100330000Y-116840000D02*
X97088600Y-113598600D01*
X81663500Y-92914500D02*
X83058000Y-91520000D01*
X138914100Y-94718100D02*
X138176000Y-93980000D01*
X138914100Y-100428700D02*
X138914100Y-94718100D01*
X112944700Y-93894700D02*
X125730000Y-106680000D01*
X113030000Y-87376000D02*
X113030000Y-93809400D01*
X113030000Y-93809400D02*
X112944700Y-93894700D01*
X110490000Y-87376000D02*
X113030000Y-87376000D01*
X109220000Y-88646000D02*
X110490000Y-87376000D01*
X118419700Y-91367600D02*
X114220400Y-91367600D01*
X122095800Y-87691500D02*
X118419700Y-91367600D01*
X126166000Y-87691500D02*
X122095800Y-87691500D01*
X132588100Y-94113600D02*
X126166000Y-87691500D01*
X132588100Y-99060100D02*
X132588100Y-94113600D01*
X133858000Y-100330000D02*
X132588100Y-99060100D01*
X111760000Y-95250000D02*
X111760000Y-88646000D01*
X125730000Y-109220000D02*
X111760000Y-95250000D01*
X124544100Y-90085900D02*
X125730000Y-88900000D01*
X124544100Y-102123800D02*
X124544100Y-90085900D01*
X125402900Y-102982600D02*
X124544100Y-102123800D01*
X126209500Y-102982600D02*
X125402900Y-102982600D01*
X126896900Y-103670000D02*
X126209500Y-102982600D01*
X126896900Y-112257000D02*
X126896900Y-103670000D01*
X126123900Y-113030000D02*
X126896900Y-112257000D01*
X125362000Y-113030000D02*
X126123900Y-113030000D01*
X118225400Y-120166600D02*
X125362000Y-113030000D01*
X118225400Y-123381200D02*
X118225400Y-120166600D01*
X117030000Y-124576600D02*
X118225400Y-123381200D01*
X117030000Y-125772000D02*
X117030000Y-124576600D01*
D33*
X104994800Y-108804800D02*
X100330000Y-104140000D01*
X104994800Y-118308800D02*
X104994800Y-108804800D01*
X109410000Y-122724000D02*
X104994800Y-118308800D01*
X107074100Y-117340100D02*
X109410000Y-119676000D01*
X107074100Y-108344100D02*
X107074100Y-117340100D01*
X100330000Y-101600000D02*
X107074100Y-108344100D01*
D32*
X134562700Y-107606500D02*
X132620200Y-105664000D01*
X134562700Y-116389300D02*
X134562700Y-107606500D01*
X133350000Y-117602000D02*
X134562700Y-116389300D01*
X131474800Y-105664000D02*
X132620200Y-105664000D01*
X110621500Y-126983500D02*
X109410000Y-125772000D01*
X110621500Y-129391600D02*
X110621500Y-126983500D01*
X109978900Y-130034200D02*
X110621500Y-129391600D01*
X108881900Y-130034200D02*
X109978900Y-130034200D01*
X101487400Y-122639700D02*
X108881900Y-130034200D01*
X101487400Y-116351500D02*
X101487400Y-122639700D01*
X100705900Y-115570000D02*
X101487400Y-116351500D01*
X99925900Y-115570000D02*
X100705900Y-115570000D01*
X98216900Y-113861000D02*
X99925900Y-115570000D01*
X98216900Y-110706800D02*
X98216900Y-113861000D01*
X93811500Y-106301400D02*
X98216900Y-110706800D01*
X91694000Y-106301400D02*
X93811500Y-106301400D01*
X91694000Y-105156000D02*
X91694000Y-106301400D01*
X130302000Y-104421400D02*
X130329400Y-104394000D01*
X130302000Y-109982000D02*
X130302000Y-104421400D01*
X131474800Y-104394000D02*
X130329400Y-104394000D01*
X99953700Y-109220000D02*
X100330000Y-109220000D01*
X84753700Y-94020000D02*
X99953700Y-109220000D01*
X83058000Y-94020000D02*
X84753700Y-94020000D01*
X100330000Y-110963800D02*
X100330000Y-111760000D01*
X85886200Y-96520000D02*
X100330000Y-110963800D01*
X83058000Y-96520000D02*
X85886200Y-96520000D01*
X102316800Y-121726800D02*
X109410000Y-128820000D01*
X102316800Y-108666800D02*
X102316800Y-121726800D01*
X100330000Y-106680000D02*
X102316800Y-108666800D01*
X129794000Y-125456000D02*
X129794000Y-126706000D01*
X138914100Y-123170200D02*
X138914100Y-100428700D01*
X137160000Y-124924300D02*
X138914100Y-123170200D01*
X137160000Y-126319700D02*
X137160000Y-124924300D01*
D33*
X94742000Y-125984000D02*
X94742000Y-127234000D01*
X115062000Y-120756000D02*
X117030000Y-122724000D01*
X115062000Y-100838000D02*
X115062000Y-120756000D01*
X103124000Y-88900000D02*
X115062000Y-100838000D01*
X103124000Y-85598000D02*
X103124000Y-88900000D01*
X101600000Y-84074000D02*
X103124000Y-85598000D01*
X99314000Y-84074000D02*
X101600000Y-84074000D01*
X94742000Y-88646000D02*
X99314000Y-84074000D01*
X94742000Y-94742000D02*
X94742000Y-88646000D01*
X92656000Y-96828000D02*
X94742000Y-94742000D01*
X91948000Y-96828000D02*
X92656000Y-96828000D01*
G04 #@! TA.AperFunction,Conductor*
G36*
X116402703Y-100870371D02*
G01*
X116409181Y-100876403D01*
X124445128Y-108912350D01*
X124478613Y-108973673D01*
X124480975Y-109010838D01*
X124462677Y-109219997D01*
X124462677Y-109220002D01*
X124481929Y-109440062D01*
X124481930Y-109440070D01*
X124539104Y-109653445D01*
X124539105Y-109653447D01*
X124539106Y-109653450D01*
X124626955Y-109841844D01*
X124632466Y-109853662D01*
X124632468Y-109853666D01*
X124759170Y-110034615D01*
X124759175Y-110034621D01*
X124915378Y-110190824D01*
X124915384Y-110190829D01*
X125096333Y-110317531D01*
X125096335Y-110317532D01*
X125096338Y-110317534D01*
X125215748Y-110373215D01*
X125225189Y-110377618D01*
X125277628Y-110423790D01*
X125296780Y-110490984D01*
X125276564Y-110557865D01*
X125225189Y-110602382D01*
X125096340Y-110662465D01*
X125096338Y-110662466D01*
X124915377Y-110789175D01*
X124759175Y-110945377D01*
X124632466Y-111126338D01*
X124632465Y-111126340D01*
X124539107Y-111326548D01*
X124539104Y-111326554D01*
X124481930Y-111539929D01*
X124481929Y-111539937D01*
X124462677Y-111759997D01*
X124462677Y-111760002D01*
X124481929Y-111980062D01*
X124481930Y-111980070D01*
X124539104Y-112193445D01*
X124539105Y-112193447D01*
X124539106Y-112193450D01*
X124603883Y-112332365D01*
X124632466Y-112393662D01*
X124632468Y-112393666D01*
X124732846Y-112537021D01*
X124755173Y-112603227D01*
X124738163Y-112670994D01*
X124718952Y-112695825D01*
X118359232Y-119055544D01*
X118297909Y-119089029D01*
X118228217Y-119084045D01*
X118172284Y-119042173D01*
X118163647Y-119027742D01*
X118163276Y-119027957D01*
X118160567Y-119023265D01*
X118030045Y-118836858D01*
X117869141Y-118675954D01*
X117682734Y-118545432D01*
X117682732Y-118545431D01*
X117476497Y-118449261D01*
X117476488Y-118449258D01*
X117256697Y-118390366D01*
X117256693Y-118390365D01*
X117256692Y-118390365D01*
X117256691Y-118390364D01*
X117256686Y-118390364D01*
X117030002Y-118370532D01*
X117029998Y-118370532D01*
X116803313Y-118390364D01*
X116803302Y-118390366D01*
X116583511Y-118449258D01*
X116583502Y-118449262D01*
X116373905Y-118546999D01*
X116304827Y-118557491D01*
X116241043Y-118528971D01*
X116202804Y-118470495D01*
X116197500Y-118434617D01*
X116197500Y-117907382D01*
X116217185Y-117840343D01*
X116269989Y-117794588D01*
X116339147Y-117784644D01*
X116373905Y-117795000D01*
X116377262Y-117796565D01*
X116377266Y-117796568D01*
X116583504Y-117892739D01*
X116803308Y-117951635D01*
X116965230Y-117965801D01*
X117029998Y-117971468D01*
X117030000Y-117971468D01*
X117030002Y-117971468D01*
X117086673Y-117966509D01*
X117256692Y-117951635D01*
X117476496Y-117892739D01*
X117682734Y-117796568D01*
X117869139Y-117666047D01*
X118030047Y-117505139D01*
X118160568Y-117318734D01*
X118256739Y-117112496D01*
X118315635Y-116892692D01*
X118335468Y-116666000D01*
X118315635Y-116439308D01*
X118268569Y-116263655D01*
X118256741Y-116219511D01*
X118256738Y-116219502D01*
X118250600Y-116206339D01*
X118160568Y-116013266D01*
X118030047Y-115826861D01*
X118030045Y-115826858D01*
X117869141Y-115665954D01*
X117682734Y-115535432D01*
X117682732Y-115535431D01*
X117476497Y-115439261D01*
X117476488Y-115439258D01*
X117256697Y-115380366D01*
X117256693Y-115380365D01*
X117256692Y-115380365D01*
X117256691Y-115380364D01*
X117256686Y-115380364D01*
X117030002Y-115360532D01*
X117029998Y-115360532D01*
X116803313Y-115380364D01*
X116803302Y-115380366D01*
X116583511Y-115439258D01*
X116583504Y-115439260D01*
X116583504Y-115439261D01*
X116544138Y-115457618D01*
X116373905Y-115536999D01*
X116304827Y-115547491D01*
X116241043Y-115518971D01*
X116202804Y-115460495D01*
X116197500Y-115424617D01*
X116197500Y-114859382D01*
X116217185Y-114792343D01*
X116269989Y-114746588D01*
X116339147Y-114736644D01*
X116373905Y-114747000D01*
X116377262Y-114748565D01*
X116377266Y-114748568D01*
X116583504Y-114844739D01*
X116583509Y-114844740D01*
X116583511Y-114844741D01*
X116636415Y-114858916D01*
X116803308Y-114903635D01*
X116965230Y-114917801D01*
X117029998Y-114923468D01*
X117030000Y-114923468D01*
X117030002Y-114923468D01*
X117086673Y-114918509D01*
X117256692Y-114903635D01*
X117476496Y-114844739D01*
X117682734Y-114748568D01*
X117869139Y-114618047D01*
X118030047Y-114457139D01*
X118160568Y-114270734D01*
X118256739Y-114064496D01*
X118315635Y-113844692D01*
X118335468Y-113618000D01*
X118334784Y-113610187D01*
X118322695Y-113472006D01*
X118315635Y-113391308D01*
X118256739Y-113171504D01*
X118160568Y-112965266D01*
X118030047Y-112778861D01*
X118030045Y-112778858D01*
X117869141Y-112617954D01*
X117682734Y-112487432D01*
X117682732Y-112487431D01*
X117476497Y-112391261D01*
X117476488Y-112391258D01*
X117256697Y-112332366D01*
X117256693Y-112332365D01*
X117256692Y-112332365D01*
X117256691Y-112332364D01*
X117256686Y-112332364D01*
X117030002Y-112312532D01*
X117029998Y-112312532D01*
X116803313Y-112332364D01*
X116803302Y-112332366D01*
X116583511Y-112391258D01*
X116583504Y-112391260D01*
X116583504Y-112391261D01*
X116541703Y-112410753D01*
X116373905Y-112488999D01*
X116304827Y-112499491D01*
X116241043Y-112470971D01*
X116202804Y-112412495D01*
X116197500Y-112376617D01*
X116197500Y-111811382D01*
X116217185Y-111744343D01*
X116269989Y-111698588D01*
X116339147Y-111688644D01*
X116373905Y-111699000D01*
X116377262Y-111700565D01*
X116377266Y-111700568D01*
X116583504Y-111796739D01*
X116583509Y-111796740D01*
X116583511Y-111796741D01*
X116621067Y-111806804D01*
X116803308Y-111855635D01*
X116965230Y-111869801D01*
X117029998Y-111875468D01*
X117030000Y-111875468D01*
X117030002Y-111875468D01*
X117086673Y-111870509D01*
X117256692Y-111855635D01*
X117476496Y-111796739D01*
X117682734Y-111700568D01*
X117869139Y-111570047D01*
X118030047Y-111409139D01*
X118160568Y-111222734D01*
X118256739Y-111016496D01*
X118315635Y-110796692D01*
X118335468Y-110570000D01*
X118315635Y-110343308D01*
X118256739Y-110123504D01*
X118160568Y-109917266D01*
X118030047Y-109730861D01*
X118030045Y-109730858D01*
X117869141Y-109569954D01*
X117682734Y-109439432D01*
X117682732Y-109439431D01*
X117476497Y-109343261D01*
X117476488Y-109343258D01*
X117256697Y-109284366D01*
X117256693Y-109284365D01*
X117256692Y-109284365D01*
X117256691Y-109284364D01*
X117256686Y-109284364D01*
X117030002Y-109264532D01*
X117029998Y-109264532D01*
X116803313Y-109284364D01*
X116803302Y-109284366D01*
X116583511Y-109343258D01*
X116583502Y-109343262D01*
X116373905Y-109440999D01*
X116304827Y-109451491D01*
X116241043Y-109422971D01*
X116202804Y-109364495D01*
X116197500Y-109328617D01*
X116197500Y-108768978D01*
X116217185Y-108701939D01*
X116269989Y-108656184D01*
X116339147Y-108646240D01*
X116373902Y-108656595D01*
X116571504Y-108748739D01*
X116571509Y-108748740D01*
X116571511Y-108748741D01*
X116624415Y-108762916D01*
X116791308Y-108807635D01*
X116953230Y-108821801D01*
X117017998Y-108827468D01*
X117018000Y-108827468D01*
X117018002Y-108827468D01*
X117074673Y-108822509D01*
X117244692Y-108807635D01*
X117464496Y-108748739D01*
X117670734Y-108652568D01*
X117857139Y-108522047D01*
X118018047Y-108361139D01*
X118148568Y-108174734D01*
X118244739Y-107968496D01*
X118303635Y-107748692D01*
X118323468Y-107522000D01*
X118303635Y-107295308D01*
X118244739Y-107075504D01*
X118148568Y-106869266D01*
X118018047Y-106682861D01*
X118018045Y-106682858D01*
X117857141Y-106521954D01*
X117670734Y-106391432D01*
X117670732Y-106391431D01*
X117464497Y-106295261D01*
X117464488Y-106295258D01*
X117244697Y-106236366D01*
X117244693Y-106236365D01*
X117244692Y-106236365D01*
X117244691Y-106236364D01*
X117244686Y-106236364D01*
X117018002Y-106216532D01*
X117017998Y-106216532D01*
X116791313Y-106236364D01*
X116791302Y-106236366D01*
X116571511Y-106295258D01*
X116571502Y-106295262D01*
X116373905Y-106387403D01*
X116304827Y-106397895D01*
X116241043Y-106369375D01*
X116202804Y-106310899D01*
X116197500Y-106275021D01*
X116197500Y-105720978D01*
X116217185Y-105653939D01*
X116269989Y-105608184D01*
X116339147Y-105598240D01*
X116373902Y-105608595D01*
X116571504Y-105700739D01*
X116791308Y-105759635D01*
X116953230Y-105773801D01*
X117017998Y-105779468D01*
X117018000Y-105779468D01*
X117018002Y-105779468D01*
X117074673Y-105774509D01*
X117244692Y-105759635D01*
X117464496Y-105700739D01*
X117670734Y-105604568D01*
X117857139Y-105474047D01*
X118018047Y-105313139D01*
X118148568Y-105126734D01*
X118244739Y-104920496D01*
X118303635Y-104700692D01*
X118321630Y-104495004D01*
X118323468Y-104474001D01*
X118323468Y-104473998D01*
X118312912Y-104353342D01*
X118303635Y-104247308D01*
X118258916Y-104080415D01*
X118244741Y-104027511D01*
X118244738Y-104027502D01*
X118207340Y-103947302D01*
X118148568Y-103821266D01*
X118018047Y-103634861D01*
X118018045Y-103634858D01*
X117857141Y-103473954D01*
X117670734Y-103343432D01*
X117670732Y-103343431D01*
X117464497Y-103247261D01*
X117464488Y-103247258D01*
X117244697Y-103188366D01*
X117244693Y-103188365D01*
X117244692Y-103188365D01*
X117244691Y-103188364D01*
X117244686Y-103188364D01*
X117018002Y-103168532D01*
X117017998Y-103168532D01*
X116791313Y-103188364D01*
X116791302Y-103188366D01*
X116571511Y-103247258D01*
X116571502Y-103247262D01*
X116373905Y-103339403D01*
X116304827Y-103349895D01*
X116241043Y-103321375D01*
X116202804Y-103262899D01*
X116197500Y-103227021D01*
X116197500Y-100964084D01*
X116217185Y-100897045D01*
X116269989Y-100851290D01*
X116339147Y-100841346D01*
X116402703Y-100870371D01*
G37*
G04 #@! TD.AperFunction*
G04 #@! TA.AperFunction,Conductor*
G36*
X93540955Y-107012085D02*
G01*
X93561597Y-107028719D01*
X94907797Y-108374919D01*
X94941282Y-108436242D01*
X94936298Y-108505934D01*
X94894426Y-108561867D01*
X94828962Y-108586284D01*
X94820116Y-108586600D01*
X93014384Y-108586600D01*
X92947345Y-108566915D01*
X92926703Y-108550281D01*
X91580503Y-107204081D01*
X91547018Y-107142758D01*
X91552002Y-107073066D01*
X91593874Y-107017133D01*
X91659338Y-106992716D01*
X91668184Y-106992400D01*
X91762058Y-106992400D01*
X93473916Y-106992400D01*
X93540955Y-107012085D01*
G37*
G04 #@! TD.AperFunction*
G04 #@! TA.AperFunction,Conductor*
G36*
X98986834Y-86109518D02*
G01*
X99042767Y-86151390D01*
X99067184Y-86216854D01*
X99067500Y-86225700D01*
X99067500Y-87169870D01*
X99067501Y-87169876D01*
X99073908Y-87229483D01*
X99124202Y-87364328D01*
X99124206Y-87364335D01*
X99210452Y-87479544D01*
X99210455Y-87479547D01*
X99325664Y-87565793D01*
X99325671Y-87565797D01*
X99460517Y-87616091D01*
X99460516Y-87616091D01*
X99467444Y-87616835D01*
X99520127Y-87622500D01*
X99560079Y-87622499D01*
X99627116Y-87642182D01*
X99672872Y-87694985D01*
X99682817Y-87764143D01*
X99653794Y-87827700D01*
X99631203Y-87848074D01*
X99515375Y-87929177D01*
X99359175Y-88085377D01*
X99232466Y-88266338D01*
X99232465Y-88266340D01*
X99139107Y-88466548D01*
X99139106Y-88466550D01*
X99081930Y-88679929D01*
X99081929Y-88679937D01*
X99062677Y-88899997D01*
X99062677Y-88900002D01*
X99081929Y-89120062D01*
X99081930Y-89120070D01*
X99139104Y-89333445D01*
X99139105Y-89333447D01*
X99139106Y-89333450D01*
X99209429Y-89484258D01*
X99232466Y-89533662D01*
X99232468Y-89533666D01*
X99359170Y-89714615D01*
X99359174Y-89714620D01*
X99515378Y-89870824D01*
X99515384Y-89870829D01*
X99696333Y-89997531D01*
X99696335Y-89997532D01*
X99696338Y-89997534D01*
X99778443Y-90035820D01*
X99825189Y-90057618D01*
X99877628Y-90103790D01*
X99896780Y-90170984D01*
X99876564Y-90237865D01*
X99825189Y-90282382D01*
X99696340Y-90342465D01*
X99696338Y-90342466D01*
X99515377Y-90469175D01*
X99359175Y-90625377D01*
X99232466Y-90806338D01*
X99232465Y-90806340D01*
X99139107Y-91006548D01*
X99139104Y-91006554D01*
X99081930Y-91219929D01*
X99081929Y-91219937D01*
X99062677Y-91439997D01*
X99062677Y-91440002D01*
X99081929Y-91660062D01*
X99081930Y-91660070D01*
X99139104Y-91873445D01*
X99139105Y-91873447D01*
X99139106Y-91873450D01*
X99188772Y-91979959D01*
X99232466Y-92073662D01*
X99232468Y-92073666D01*
X99359170Y-92254615D01*
X99359175Y-92254621D01*
X99515378Y-92410824D01*
X99515384Y-92410829D01*
X99696333Y-92537531D01*
X99696335Y-92537532D01*
X99696338Y-92537534D01*
X99723295Y-92550104D01*
X99825189Y-92597618D01*
X99877628Y-92643790D01*
X99896780Y-92710984D01*
X99876564Y-92777865D01*
X99825189Y-92822382D01*
X99696340Y-92882465D01*
X99696338Y-92882466D01*
X99515377Y-93009175D01*
X99359175Y-93165377D01*
X99232466Y-93346338D01*
X99232465Y-93346340D01*
X99139107Y-93546548D01*
X99139104Y-93546554D01*
X99081930Y-93759929D01*
X99081929Y-93759937D01*
X99062677Y-93979997D01*
X99062677Y-93980002D01*
X99081929Y-94200062D01*
X99081930Y-94200070D01*
X99139104Y-94413445D01*
X99139105Y-94413447D01*
X99139106Y-94413450D01*
X99203157Y-94550808D01*
X99232466Y-94613662D01*
X99232468Y-94613666D01*
X99359170Y-94794615D01*
X99359175Y-94794621D01*
X99515378Y-94950824D01*
X99515384Y-94950829D01*
X99696333Y-95077531D01*
X99696335Y-95077532D01*
X99696338Y-95077534D01*
X99800274Y-95126000D01*
X99825189Y-95137618D01*
X99877628Y-95183790D01*
X99896780Y-95250984D01*
X99876564Y-95317865D01*
X99825189Y-95362382D01*
X99696340Y-95422465D01*
X99696338Y-95422466D01*
X99515377Y-95549175D01*
X99359175Y-95705377D01*
X99232466Y-95886338D01*
X99232465Y-95886340D01*
X99139107Y-96086548D01*
X99139104Y-96086554D01*
X99081930Y-96299929D01*
X99081929Y-96299937D01*
X99062677Y-96519997D01*
X99062677Y-96520002D01*
X99081929Y-96740062D01*
X99081930Y-96740070D01*
X99139104Y-96953445D01*
X99139105Y-96953447D01*
X99139106Y-96953450D01*
X99213118Y-97112169D01*
X99232466Y-97153662D01*
X99232468Y-97153666D01*
X99359170Y-97334615D01*
X99359175Y-97334621D01*
X99515378Y-97490824D01*
X99515384Y-97490829D01*
X99696333Y-97617531D01*
X99696335Y-97617532D01*
X99696338Y-97617534D01*
X99815748Y-97673215D01*
X99825189Y-97677618D01*
X99877628Y-97723790D01*
X99896780Y-97790984D01*
X99876564Y-97857865D01*
X99825189Y-97902382D01*
X99696340Y-97962465D01*
X99696338Y-97962466D01*
X99515377Y-98089175D01*
X99359175Y-98245377D01*
X99232466Y-98426338D01*
X99232465Y-98426340D01*
X99139107Y-98626548D01*
X99139104Y-98626554D01*
X99081930Y-98839929D01*
X99081929Y-98839937D01*
X99062677Y-99059997D01*
X99062677Y-99060002D01*
X99081929Y-99280062D01*
X99081930Y-99280070D01*
X99139104Y-99493445D01*
X99139105Y-99493447D01*
X99139106Y-99493450D01*
X99209420Y-99644239D01*
X99232466Y-99693662D01*
X99232468Y-99693666D01*
X99359170Y-99874615D01*
X99359175Y-99874621D01*
X99515378Y-100030824D01*
X99515384Y-100030829D01*
X99696333Y-100157531D01*
X99696335Y-100157532D01*
X99696338Y-100157534D01*
X99804104Y-100207786D01*
X99825189Y-100217618D01*
X99877628Y-100263790D01*
X99896780Y-100330984D01*
X99876564Y-100397865D01*
X99825189Y-100442382D01*
X99696340Y-100502465D01*
X99696338Y-100502466D01*
X99515377Y-100629175D01*
X99359175Y-100785377D01*
X99232466Y-100966338D01*
X99232465Y-100966340D01*
X99139107Y-101166548D01*
X99139104Y-101166554D01*
X99081930Y-101379929D01*
X99081929Y-101379937D01*
X99062677Y-101599997D01*
X99062677Y-101600002D01*
X99081929Y-101820062D01*
X99081930Y-101820070D01*
X99139104Y-102033445D01*
X99139105Y-102033447D01*
X99139106Y-102033450D01*
X99232466Y-102233661D01*
X99232466Y-102233662D01*
X99232468Y-102233666D01*
X99359170Y-102414615D01*
X99359175Y-102414621D01*
X99515378Y-102570824D01*
X99515384Y-102570829D01*
X99696333Y-102697531D01*
X99696335Y-102697532D01*
X99696338Y-102697534D01*
X99815748Y-102753215D01*
X99825189Y-102757618D01*
X99877628Y-102803790D01*
X99896780Y-102870984D01*
X99876564Y-102937865D01*
X99825189Y-102982382D01*
X99696340Y-103042465D01*
X99696338Y-103042466D01*
X99515377Y-103169175D01*
X99359175Y-103325377D01*
X99232466Y-103506338D01*
X99232465Y-103506340D01*
X99139107Y-103706548D01*
X99139104Y-103706554D01*
X99081930Y-103919929D01*
X99081929Y-103919937D01*
X99062677Y-104139997D01*
X99062677Y-104140002D01*
X99081929Y-104360062D01*
X99081930Y-104360070D01*
X99139104Y-104573445D01*
X99139105Y-104573447D01*
X99139106Y-104573450D01*
X99194912Y-104693127D01*
X99232466Y-104773662D01*
X99232468Y-104773666D01*
X99359170Y-104954615D01*
X99359175Y-104954621D01*
X99515378Y-105110824D01*
X99515384Y-105110829D01*
X99696333Y-105237531D01*
X99696335Y-105237532D01*
X99696338Y-105237534D01*
X99815748Y-105293215D01*
X99825189Y-105297618D01*
X99877628Y-105343790D01*
X99896780Y-105410984D01*
X99876564Y-105477865D01*
X99825189Y-105522382D01*
X99696340Y-105582465D01*
X99696338Y-105582466D01*
X99515377Y-105709175D01*
X99359175Y-105865377D01*
X99232466Y-106046338D01*
X99232465Y-106046340D01*
X99139107Y-106246548D01*
X99139104Y-106246554D01*
X99081930Y-106459929D01*
X99081929Y-106459937D01*
X99062677Y-106679997D01*
X99062677Y-106680002D01*
X99081929Y-106900062D01*
X99081931Y-106900073D01*
X99134531Y-107096379D01*
X99132868Y-107166229D01*
X99093705Y-107224091D01*
X99029477Y-107251595D01*
X98960575Y-107240008D01*
X98927075Y-107216153D01*
X92507361Y-100796439D01*
X92473876Y-100735116D01*
X92478860Y-100665424D01*
X92520732Y-100609491D01*
X92556722Y-100590828D01*
X92591412Y-100579557D01*
X92780816Y-100483051D01*
X92802789Y-100467086D01*
X92952786Y-100358109D01*
X92952788Y-100358106D01*
X92952792Y-100358104D01*
X93103104Y-100207792D01*
X93103106Y-100207788D01*
X93103109Y-100207786D01*
X93228048Y-100035820D01*
X93228047Y-100035820D01*
X93228051Y-100035816D01*
X93324557Y-99846412D01*
X93390246Y-99644243D01*
X93423500Y-99434287D01*
X93423500Y-99221713D01*
X93390246Y-99011757D01*
X93324557Y-98809588D01*
X93228051Y-98620184D01*
X93228049Y-98620181D01*
X93228048Y-98620179D01*
X93103109Y-98448213D01*
X92952790Y-98297894D01*
X92952785Y-98297890D01*
X92788206Y-98178317D01*
X92745540Y-98122987D01*
X92739561Y-98053374D01*
X92772166Y-97991579D01*
X92788199Y-97977686D01*
X92801029Y-97968365D01*
X92854509Y-97946213D01*
X92921897Y-97935541D01*
X93066545Y-97888541D01*
X93091881Y-97880309D01*
X93251132Y-97799167D01*
X93395728Y-97694111D01*
X93522111Y-97567728D01*
X93580670Y-97509169D01*
X93580682Y-97509155D01*
X95608111Y-95481729D01*
X95680172Y-95382545D01*
X95713167Y-95337132D01*
X95794309Y-95177881D01*
X95826915Y-95077531D01*
X95849539Y-95007901D01*
X95849539Y-95007900D01*
X95849540Y-95007897D01*
X95877500Y-94831366D01*
X95877500Y-89167701D01*
X95897185Y-89100662D01*
X95913819Y-89080020D01*
X97377748Y-87616091D01*
X98855821Y-86138017D01*
X98917142Y-86104534D01*
X98986834Y-86109518D01*
G37*
G04 #@! TD.AperFunction*
G04 #@! TA.AperFunction,Conductor*
G36*
X112656203Y-94583870D02*
G01*
X112662681Y-94589902D01*
X124445129Y-106372350D01*
X124478614Y-106433673D01*
X124480976Y-106470838D01*
X124462205Y-106685393D01*
X124460002Y-106685200D01*
X124442992Y-106743132D01*
X124390188Y-106788887D01*
X124321030Y-106798831D01*
X124257474Y-106769806D01*
X124250996Y-106763774D01*
X112487319Y-95000097D01*
X112453834Y-94938774D01*
X112451000Y-94912416D01*
X112451000Y-94677583D01*
X112470685Y-94610544D01*
X112523489Y-94564789D01*
X112592647Y-94554845D01*
X112656203Y-94583870D01*
G37*
G04 #@! TD.AperFunction*
G04 #@! TA.AperFunction,Conductor*
G36*
X85615655Y-97230685D02*
G01*
X85636297Y-97247319D01*
X92134038Y-103745060D01*
X92167523Y-103806383D01*
X92162539Y-103876075D01*
X92120667Y-103932008D01*
X92055203Y-103956425D01*
X91998905Y-103947302D01*
X91993131Y-103944910D01*
X91993119Y-103944907D01*
X91795007Y-103905500D01*
X91795003Y-103905500D01*
X91592997Y-103905500D01*
X91592992Y-103905500D01*
X91394880Y-103944907D01*
X91394868Y-103944910D01*
X91314198Y-103978325D01*
X91244729Y-103985794D01*
X91199342Y-103966036D01*
X91199114Y-103966454D01*
X91194447Y-103963905D01*
X91192432Y-103963028D01*
X91191331Y-103962204D01*
X91191330Y-103962203D01*
X91191328Y-103962202D01*
X91056482Y-103911908D01*
X91056483Y-103911908D01*
X90996883Y-103905501D01*
X90996881Y-103905500D01*
X90996873Y-103905500D01*
X90996864Y-103905500D01*
X89851129Y-103905500D01*
X89851123Y-103905501D01*
X89791516Y-103911908D01*
X89656671Y-103962202D01*
X89656664Y-103962206D01*
X89541455Y-104048452D01*
X89541452Y-104048455D01*
X89455206Y-104163664D01*
X89455202Y-104163671D01*
X89404908Y-104298517D01*
X89398501Y-104358116D01*
X89398500Y-104358135D01*
X89398500Y-104722716D01*
X89378815Y-104789755D01*
X89326011Y-104835510D01*
X89256853Y-104845454D01*
X89193297Y-104816429D01*
X89186819Y-104810397D01*
X82390819Y-98014397D01*
X82357334Y-97953074D01*
X82354500Y-97926716D01*
X82354500Y-97922704D01*
X82374185Y-97855665D01*
X82426989Y-97809910D01*
X82496147Y-97799966D01*
X82516807Y-97804770D01*
X82616757Y-97837246D01*
X82826713Y-97870500D01*
X82826714Y-97870500D01*
X83289286Y-97870500D01*
X83289287Y-97870500D01*
X83499243Y-97837246D01*
X83701412Y-97771557D01*
X83890816Y-97675051D01*
X83969982Y-97617534D01*
X84062786Y-97550109D01*
X84062788Y-97550106D01*
X84062792Y-97550104D01*
X84213104Y-97399792D01*
X84313132Y-97262114D01*
X84368461Y-97219449D01*
X84413450Y-97211000D01*
X85548616Y-97211000D01*
X85615655Y-97230685D01*
G37*
G04 #@! TD.AperFunction*
G04 #@! TA.AperFunction,Conductor*
G36*
X124467066Y-88402185D02*
G01*
X124512821Y-88454989D01*
X124522765Y-88524147D01*
X124519802Y-88538594D01*
X124481930Y-88679930D01*
X124481929Y-88679937D01*
X124462677Y-88899997D01*
X124462677Y-88900002D01*
X124480975Y-89109160D01*
X124467208Y-89177660D01*
X124445128Y-89207648D01*
X124007366Y-89645410D01*
X123961122Y-89714619D01*
X123961123Y-89714620D01*
X123931741Y-89758592D01*
X123879656Y-89884338D01*
X123879653Y-89884348D01*
X123853100Y-90017839D01*
X123853100Y-102191860D01*
X123861416Y-102233666D01*
X123871569Y-102284706D01*
X123877226Y-102313145D01*
X123879655Y-102325357D01*
X123879656Y-102325361D01*
X123931742Y-102451109D01*
X123931744Y-102451112D01*
X124007363Y-102564285D01*
X124007369Y-102564292D01*
X124689424Y-103246346D01*
X124722909Y-103307669D01*
X124717925Y-103377360D01*
X124703319Y-103405149D01*
X124632465Y-103506340D01*
X124539107Y-103706548D01*
X124539104Y-103706554D01*
X124481930Y-103919929D01*
X124481929Y-103919937D01*
X124462205Y-104145393D01*
X124460002Y-104145200D01*
X124442992Y-104203132D01*
X124390188Y-104248887D01*
X124321030Y-104258831D01*
X124257474Y-104229806D01*
X124250996Y-104223774D01*
X113757319Y-93730097D01*
X113723834Y-93668774D01*
X113721000Y-93642416D01*
X113721000Y-92134786D01*
X113740685Y-92067747D01*
X113793489Y-92021992D01*
X113862647Y-92012048D01*
X113898809Y-92023070D01*
X113903622Y-92025388D01*
X113903625Y-92025389D01*
X114057939Y-92079386D01*
X114057942Y-92079386D01*
X114057944Y-92079387D01*
X114220396Y-92097691D01*
X114220400Y-92097691D01*
X114220404Y-92097691D01*
X114382856Y-92079387D01*
X114382857Y-92079386D01*
X114382861Y-92079386D01*
X114411343Y-92069419D01*
X114422380Y-92065558D01*
X114463333Y-92058600D01*
X118487760Y-92058600D01*
X118589248Y-92038412D01*
X118621257Y-92032045D01*
X118747011Y-91979956D01*
X118776150Y-91960486D01*
X118797663Y-91946112D01*
X118815360Y-91934287D01*
X118860187Y-91904335D01*
X122345703Y-88418819D01*
X122407026Y-88385334D01*
X122433384Y-88382500D01*
X124400027Y-88382500D01*
X124467066Y-88402185D01*
G37*
G04 #@! TD.AperFunction*
G04 #@! TA.AperFunction,Conductor*
G36*
X110574855Y-89312546D02*
G01*
X110591575Y-89331842D01*
X110721501Y-89517396D01*
X110721506Y-89517402D01*
X110888597Y-89684493D01*
X110888603Y-89684498D01*
X111016123Y-89773788D01*
X111059748Y-89828365D01*
X111069000Y-89875363D01*
X111069000Y-94939799D01*
X111049315Y-95006838D01*
X110996511Y-95052593D01*
X110927353Y-95062537D01*
X110863797Y-95033512D01*
X110857319Y-95027480D01*
X106038019Y-90208180D01*
X106004534Y-90146857D01*
X106009518Y-90077165D01*
X106051390Y-90021232D01*
X106116854Y-89996815D01*
X106125700Y-89996499D01*
X107577871Y-89996499D01*
X107577872Y-89996499D01*
X107637483Y-89990091D01*
X107772331Y-89939796D01*
X107887546Y-89853546D01*
X107973796Y-89738331D01*
X108022810Y-89606916D01*
X108064681Y-89550984D01*
X108130145Y-89526566D01*
X108198418Y-89541417D01*
X108226673Y-89562569D01*
X108348599Y-89684495D01*
X108445384Y-89752265D01*
X108542165Y-89820032D01*
X108542167Y-89820033D01*
X108542170Y-89820035D01*
X108756337Y-89919903D01*
X108984592Y-89981063D01*
X109164634Y-89996815D01*
X109219999Y-90001659D01*
X109220000Y-90001659D01*
X109220001Y-90001659D01*
X109275366Y-89996815D01*
X109455408Y-89981063D01*
X109683663Y-89919903D01*
X109897830Y-89820035D01*
X110091401Y-89684495D01*
X110258495Y-89517401D01*
X110387299Y-89333450D01*
X110388425Y-89331842D01*
X110443002Y-89288217D01*
X110512500Y-89281023D01*
X110574855Y-89312546D01*
G37*
G04 #@! TD.AperFunction*
G04 #@! TA.AperFunction,Conductor*
G36*
X127012972Y-89515780D02*
G01*
X127015798Y-89518519D01*
X131185098Y-93687819D01*
X131218583Y-93749142D01*
X131213599Y-93818834D01*
X131171727Y-93874767D01*
X131106263Y-93899184D01*
X131097417Y-93899500D01*
X130420129Y-93899500D01*
X130420123Y-93899501D01*
X130360516Y-93905908D01*
X130225671Y-93956202D01*
X130225664Y-93956206D01*
X130110455Y-94042452D01*
X130110452Y-94042455D01*
X130024206Y-94157664D01*
X130024202Y-94157671D01*
X129973908Y-94292517D01*
X129967501Y-94352116D01*
X129967500Y-94352135D01*
X129967500Y-94644133D01*
X129947815Y-94711172D01*
X129895011Y-94756927D01*
X129825853Y-94766871D01*
X129762297Y-94737846D01*
X129724523Y-94679068D01*
X129721883Y-94668325D01*
X129696446Y-94540448D01*
X129696445Y-94540447D01*
X129696445Y-94540443D01*
X129652474Y-94434287D01*
X129644358Y-94414693D01*
X129644357Y-94414691D01*
X129644356Y-94414689D01*
X129632902Y-94397547D01*
X129628387Y-94390790D01*
X129568736Y-94301514D01*
X129568730Y-94301507D01*
X127014871Y-91747649D01*
X126981386Y-91686326D01*
X126979024Y-91649161D01*
X126997323Y-91440001D01*
X126997323Y-91439997D01*
X126978070Y-91219937D01*
X126978070Y-91219932D01*
X126920894Y-91006550D01*
X126827534Y-90806339D01*
X126737893Y-90678318D01*
X126700827Y-90625381D01*
X126628822Y-90553376D01*
X126544620Y-90469174D01*
X126544616Y-90469171D01*
X126544615Y-90469170D01*
X126363666Y-90342468D01*
X126363658Y-90342464D01*
X126234811Y-90282382D01*
X126182371Y-90236210D01*
X126163219Y-90169017D01*
X126183435Y-90102135D01*
X126234811Y-90057618D01*
X126251746Y-90049721D01*
X126363662Y-89997534D01*
X126544620Y-89870826D01*
X126700826Y-89714620D01*
X126826544Y-89535074D01*
X126881118Y-89491452D01*
X126950617Y-89484258D01*
X127012972Y-89515780D01*
G37*
G04 #@! TD.AperFunction*
G04 #@! TA.AperFunction,Conductor*
G36*
X114550000Y-89976633D02*
G01*
X114763483Y-89919433D01*
X114763492Y-89919429D01*
X114977578Y-89819600D01*
X115171082Y-89684105D01*
X115338105Y-89517082D01*
X115468119Y-89331405D01*
X115522696Y-89287781D01*
X115592195Y-89280588D01*
X115654549Y-89312110D01*
X115671269Y-89331405D01*
X115672701Y-89333450D01*
X115801505Y-89517401D01*
X115968599Y-89684495D01*
X116065384Y-89752265D01*
X116162165Y-89820032D01*
X116162167Y-89820033D01*
X116162170Y-89820035D01*
X116376337Y-89919903D01*
X116604592Y-89981063D01*
X116784634Y-89996815D01*
X116839999Y-90001659D01*
X116840000Y-90001659D01*
X116840001Y-90001659D01*
X116895366Y-89996815D01*
X117075408Y-89981063D01*
X117303663Y-89919903D01*
X117517830Y-89820035D01*
X117711401Y-89684495D01*
X117878495Y-89517401D01*
X118007299Y-89333450D01*
X118008425Y-89331842D01*
X118063002Y-89288217D01*
X118132500Y-89281023D01*
X118194855Y-89312546D01*
X118211575Y-89331842D01*
X118341281Y-89517082D01*
X118341505Y-89517401D01*
X118508599Y-89684495D01*
X118614416Y-89758589D01*
X118702168Y-89820034D01*
X118702174Y-89820037D01*
X118737995Y-89836741D01*
X118790435Y-89882913D01*
X118809587Y-89950106D01*
X118789371Y-90016988D01*
X118773272Y-90036804D01*
X118169797Y-90640281D01*
X118108474Y-90673766D01*
X118082116Y-90676600D01*
X114463333Y-90676600D01*
X114422380Y-90669642D01*
X114382855Y-90655812D01*
X114382857Y-90655812D01*
X114220404Y-90637509D01*
X114220396Y-90637509D01*
X114057944Y-90655812D01*
X113903618Y-90709812D01*
X113898801Y-90712133D01*
X113829860Y-90723485D01*
X113765726Y-90695763D01*
X113726760Y-90637767D01*
X113721000Y-90600413D01*
X113721000Y-90050080D01*
X113740685Y-89983041D01*
X113793489Y-89937286D01*
X113862647Y-89927342D01*
X113877093Y-89930305D01*
X114050000Y-89976634D01*
X114050000Y-89079012D01*
X114107007Y-89111925D01*
X114234174Y-89146000D01*
X114365826Y-89146000D01*
X114492993Y-89111925D01*
X114550000Y-89079012D01*
X114550000Y-89976633D01*
G37*
G04 #@! TD.AperFunction*
G04 #@! TA.AperFunction,Conductor*
G36*
X140650480Y-79268185D02*
G01*
X140696235Y-79320989D01*
X140706179Y-79390147D01*
X140677154Y-79453703D01*
X140668325Y-79462892D01*
X140486652Y-79633494D01*
X140294111Y-79866236D01*
X140132268Y-80121261D01*
X140132265Y-80121267D01*
X140003661Y-80394563D01*
X140003659Y-80394568D01*
X139910320Y-80681835D01*
X139853719Y-80978546D01*
X139853718Y-80978553D01*
X139834754Y-81279994D01*
X139834754Y-81280005D01*
X139853718Y-81581446D01*
X139853719Y-81581453D01*
X139910320Y-81878164D01*
X140003659Y-82165431D01*
X140003661Y-82165436D01*
X140132265Y-82438732D01*
X140132268Y-82438738D01*
X140294111Y-82693763D01*
X140294114Y-82693767D01*
X140294115Y-82693768D01*
X140486651Y-82926504D01*
X140588013Y-83021690D01*
X140706836Y-83133272D01*
X140706846Y-83133280D01*
X140951193Y-83310808D01*
X140951198Y-83310810D01*
X140951205Y-83310816D01*
X141215896Y-83456332D01*
X141215901Y-83456334D01*
X141215903Y-83456335D01*
X141215904Y-83456336D01*
X141496734Y-83567524D01*
X141496737Y-83567525D01*
X141594259Y-83592564D01*
X141789302Y-83642642D01*
X141936039Y-83661179D01*
X142088963Y-83680499D01*
X142088969Y-83680499D01*
X142088973Y-83680500D01*
X142088975Y-83680500D01*
X142391025Y-83680500D01*
X142391027Y-83680500D01*
X142391032Y-83680499D01*
X142391036Y-83680499D01*
X142470591Y-83670448D01*
X142690698Y-83642642D01*
X142983262Y-83567525D01*
X142983265Y-83567524D01*
X143264095Y-83456336D01*
X143264096Y-83456335D01*
X143264094Y-83456335D01*
X143264104Y-83456332D01*
X143528795Y-83310816D01*
X143773162Y-83133274D01*
X143993349Y-82926504D01*
X144051956Y-82855659D01*
X144109856Y-82816552D01*
X144179707Y-82814956D01*
X144239333Y-82851377D01*
X144269803Y-82914253D01*
X144271500Y-82934700D01*
X144271500Y-127885299D01*
X144251815Y-127952338D01*
X144199011Y-127998093D01*
X144129853Y-128008037D01*
X144066297Y-127979012D01*
X144051957Y-127964340D01*
X143993352Y-127893499D01*
X143993350Y-127893497D01*
X143854915Y-127763497D01*
X143773162Y-127686726D01*
X143773159Y-127686724D01*
X143773153Y-127686719D01*
X143528806Y-127509191D01*
X143528799Y-127509186D01*
X143528795Y-127509184D01*
X143264104Y-127363668D01*
X143264101Y-127363666D01*
X143264096Y-127363664D01*
X143264095Y-127363663D01*
X142983265Y-127252475D01*
X142983262Y-127252474D01*
X142690695Y-127177357D01*
X142391036Y-127139500D01*
X142391027Y-127139500D01*
X142088973Y-127139500D01*
X142088963Y-127139500D01*
X141789304Y-127177357D01*
X141496737Y-127252474D01*
X141496734Y-127252475D01*
X141215904Y-127363663D01*
X141215903Y-127363664D01*
X140951205Y-127509184D01*
X140951193Y-127509191D01*
X140706846Y-127686719D01*
X140706836Y-127686727D01*
X140486652Y-127893494D01*
X140294111Y-128126236D01*
X140132268Y-128381261D01*
X140132265Y-128381267D01*
X140003661Y-128654563D01*
X140003659Y-128654568D01*
X139910320Y-128941835D01*
X139853719Y-129238546D01*
X139853718Y-129238553D01*
X139834754Y-129539994D01*
X139834754Y-129540005D01*
X139853718Y-129841446D01*
X139853719Y-129841453D01*
X139853720Y-129841457D01*
X139902824Y-130098872D01*
X139910320Y-130138164D01*
X140003659Y-130425431D01*
X140003661Y-130425436D01*
X140132265Y-130698732D01*
X140132268Y-130698738D01*
X140294111Y-130953763D01*
X140486652Y-131186505D01*
X140634781Y-131325608D01*
X140670176Y-131385849D01*
X140667382Y-131455663D01*
X140627289Y-131512884D01*
X140562623Y-131539345D01*
X140549897Y-131540000D01*
X82970103Y-131540000D01*
X82903064Y-131520315D01*
X82857309Y-131467511D01*
X82847365Y-131398353D01*
X82876390Y-131334797D01*
X82885219Y-131325608D01*
X82916778Y-131295971D01*
X83033349Y-131186504D01*
X83225885Y-130953768D01*
X83387733Y-130698736D01*
X83516341Y-130425430D01*
X83609681Y-130138160D01*
X83666280Y-129841457D01*
X83666281Y-129841446D01*
X83685246Y-129540005D01*
X83685246Y-129539994D01*
X83666281Y-129238553D01*
X83666280Y-129238546D01*
X83666280Y-129238543D01*
X83609681Y-128941840D01*
X83516341Y-128654570D01*
X83387733Y-128381264D01*
X83321912Y-128277546D01*
X83225888Y-128126236D01*
X83181964Y-128073141D01*
X83033349Y-127893496D01*
X82813162Y-127686726D01*
X82813159Y-127686724D01*
X82813153Y-127686719D01*
X82568806Y-127509191D01*
X82568799Y-127509186D01*
X82568795Y-127509184D01*
X82304104Y-127363668D01*
X82304101Y-127363666D01*
X82304096Y-127363664D01*
X82304095Y-127363663D01*
X82023265Y-127252475D01*
X82023262Y-127252474D01*
X81730695Y-127177357D01*
X81431036Y-127139500D01*
X81431027Y-127139500D01*
X81128973Y-127139500D01*
X81128963Y-127139500D01*
X80829304Y-127177357D01*
X80536737Y-127252474D01*
X80536734Y-127252475D01*
X80255904Y-127363663D01*
X80255903Y-127363664D01*
X79991205Y-127509184D01*
X79991193Y-127509191D01*
X79746846Y-127686719D01*
X79746836Y-127686727D01*
X79526649Y-127893497D01*
X79526647Y-127893499D01*
X79499543Y-127926263D01*
X79441643Y-127965370D01*
X79371792Y-127966966D01*
X79312166Y-127930544D01*
X79281697Y-127867668D01*
X79280000Y-127847222D01*
X79280000Y-125872135D01*
X85621500Y-125872135D01*
X85621500Y-127967870D01*
X85621501Y-127967876D01*
X85627908Y-128027483D01*
X85678202Y-128162328D01*
X85678206Y-128162335D01*
X85764452Y-128277544D01*
X85764455Y-128277547D01*
X85879664Y-128363793D01*
X85879671Y-128363797D01*
X86014517Y-128414091D01*
X86014516Y-128414091D01*
X86021444Y-128414835D01*
X86074127Y-128420500D01*
X88169872Y-128420499D01*
X88229483Y-128414091D01*
X88364331Y-128363796D01*
X88479546Y-128277546D01*
X88565796Y-128162331D01*
X88616091Y-128027483D01*
X88622500Y-127967873D01*
X88622499Y-125983998D01*
X93436532Y-125983998D01*
X93436532Y-125984001D01*
X93456364Y-126210686D01*
X93456366Y-126210697D01*
X93515258Y-126430488D01*
X93515260Y-126430492D01*
X93515261Y-126430496D01*
X93566128Y-126539581D01*
X93574062Y-126556595D01*
X93584554Y-126625673D01*
X93574061Y-126661405D01*
X93517857Y-126781938D01*
X93515262Y-126787502D01*
X93515258Y-126787511D01*
X93456366Y-127007302D01*
X93456364Y-127007313D01*
X93436532Y-127233998D01*
X93436532Y-127234001D01*
X93456364Y-127460686D01*
X93456366Y-127460697D01*
X93515258Y-127680488D01*
X93515261Y-127680497D01*
X93611431Y-127886732D01*
X93611432Y-127886734D01*
X93741954Y-128073141D01*
X93902858Y-128234045D01*
X93902861Y-128234047D01*
X94089266Y-128364568D01*
X94295504Y-128460739D01*
X94515308Y-128519635D01*
X94677230Y-128533801D01*
X94741998Y-128539468D01*
X94742000Y-128539468D01*
X94742002Y-128539468D01*
X94798673Y-128534509D01*
X94968692Y-128519635D01*
X95188496Y-128460739D01*
X95394734Y-128364568D01*
X95581139Y-128234047D01*
X95742047Y-128073139D01*
X95872568Y-127886734D01*
X95968739Y-127680496D01*
X96027635Y-127460692D01*
X96047468Y-127234000D01*
X96027635Y-127007308D01*
X95968739Y-126787504D01*
X95909936Y-126661404D01*
X95899445Y-126592328D01*
X95909937Y-126556595D01*
X95945980Y-126479302D01*
X95968739Y-126430496D01*
X96027635Y-126210692D01*
X96047468Y-125984000D01*
X96027635Y-125757308D01*
X95975424Y-125562452D01*
X95968741Y-125537511D01*
X95968738Y-125537502D01*
X95916701Y-125425909D01*
X95872568Y-125331266D01*
X95742047Y-125144861D01*
X95742045Y-125144858D01*
X95581141Y-124983954D01*
X95394734Y-124853432D01*
X95394730Y-124853430D01*
X95379022Y-124846105D01*
X95326583Y-124799931D01*
X95307433Y-124732737D01*
X95327650Y-124665857D01*
X95379028Y-124621340D01*
X95394481Y-124614134D01*
X95467471Y-124563024D01*
X94788447Y-123884000D01*
X94794661Y-123884000D01*
X94896394Y-123856741D01*
X94987606Y-123804080D01*
X95062080Y-123729606D01*
X95114741Y-123638394D01*
X95142000Y-123536661D01*
X95142000Y-123530447D01*
X95821024Y-124209471D01*
X95872136Y-124136478D01*
X95968264Y-123930331D01*
X95968269Y-123930317D01*
X96027139Y-123710610D01*
X96027141Y-123710599D01*
X96046966Y-123484000D01*
X96046966Y-123483997D01*
X96027141Y-123257400D01*
X96027139Y-123257389D01*
X95968269Y-123037682D01*
X95968266Y-123037673D01*
X95909385Y-122911405D01*
X95898893Y-122842328D01*
X95909385Y-122806595D01*
X95968266Y-122680326D01*
X95968269Y-122680317D01*
X96027139Y-122460610D01*
X96027141Y-122460599D01*
X96046966Y-122234000D01*
X96046966Y-122233997D01*
X96027141Y-122007400D01*
X96027139Y-122007389D01*
X95968269Y-121787682D01*
X95968264Y-121787668D01*
X95872136Y-121581521D01*
X95872132Y-121581513D01*
X95821025Y-121508526D01*
X95142000Y-122187551D01*
X95142000Y-122181339D01*
X95114741Y-122079606D01*
X95062080Y-121988394D01*
X94987606Y-121913920D01*
X94896394Y-121861259D01*
X94794661Y-121834000D01*
X94788445Y-121834000D01*
X95467472Y-121154974D01*
X95394478Y-121103863D01*
X95188331Y-121007735D01*
X95188317Y-121007730D01*
X94968610Y-120948860D01*
X94968599Y-120948858D01*
X94742002Y-120929034D01*
X94741998Y-120929034D01*
X94515400Y-120948858D01*
X94515389Y-120948860D01*
X94295682Y-121007730D01*
X94295673Y-121007734D01*
X94089516Y-121103866D01*
X94089512Y-121103868D01*
X94016526Y-121154973D01*
X94016526Y-121154974D01*
X94695553Y-121834000D01*
X94689339Y-121834000D01*
X94587606Y-121861259D01*
X94496394Y-121913920D01*
X94421920Y-121988394D01*
X94369259Y-122079606D01*
X94342000Y-122181339D01*
X94342000Y-122187552D01*
X93662974Y-121508526D01*
X93662973Y-121508526D01*
X93611868Y-121581512D01*
X93611866Y-121581516D01*
X93515734Y-121787673D01*
X93515730Y-121787682D01*
X93456860Y-122007389D01*
X93456858Y-122007400D01*
X93437034Y-122233997D01*
X93437034Y-122234000D01*
X93456858Y-122460599D01*
X93456860Y-122460610D01*
X93515730Y-122680317D01*
X93515735Y-122680331D01*
X93574613Y-122806596D01*
X93585105Y-122875673D01*
X93574613Y-122911404D01*
X93515735Y-123037668D01*
X93515730Y-123037682D01*
X93456860Y-123257389D01*
X93456858Y-123257400D01*
X93437034Y-123483997D01*
X93437034Y-123484000D01*
X93456858Y-123710599D01*
X93456860Y-123710610D01*
X93515730Y-123930317D01*
X93515735Y-123930331D01*
X93611863Y-124136478D01*
X93662974Y-124209472D01*
X94342000Y-123530446D01*
X94342000Y-123536661D01*
X94369259Y-123638394D01*
X94421920Y-123729606D01*
X94496394Y-123804080D01*
X94587606Y-123856741D01*
X94689339Y-123884000D01*
X94695553Y-123884000D01*
X94016526Y-124563025D01*
X94089513Y-124614132D01*
X94089515Y-124614133D01*
X94104973Y-124621341D01*
X94157413Y-124667513D01*
X94176566Y-124734706D01*
X94156351Y-124801587D01*
X94104979Y-124846104D01*
X94089270Y-124853429D01*
X94089265Y-124853432D01*
X93902858Y-124983954D01*
X93741954Y-125144858D01*
X93611432Y-125331265D01*
X93611431Y-125331267D01*
X93515261Y-125537502D01*
X93515258Y-125537511D01*
X93456366Y-125757302D01*
X93456364Y-125757313D01*
X93436532Y-125983998D01*
X88622499Y-125983998D01*
X88622499Y-125872128D01*
X88616091Y-125812517D01*
X88600978Y-125771998D01*
X88565797Y-125677671D01*
X88565793Y-125677664D01*
X88479547Y-125562455D01*
X88479544Y-125562452D01*
X88364335Y-125476206D01*
X88364328Y-125476202D01*
X88229482Y-125425908D01*
X88229483Y-125425908D01*
X88169883Y-125419501D01*
X88169881Y-125419500D01*
X88169873Y-125419500D01*
X88169864Y-125419500D01*
X86074129Y-125419500D01*
X86074123Y-125419501D01*
X86014516Y-125425908D01*
X85879671Y-125476202D01*
X85879664Y-125476206D01*
X85764455Y-125562452D01*
X85764452Y-125562455D01*
X85678206Y-125677664D01*
X85678202Y-125677671D01*
X85627908Y-125812517D01*
X85621501Y-125872116D01*
X85621501Y-125872123D01*
X85621500Y-125872135D01*
X79280000Y-125872135D01*
X79280000Y-121919994D01*
X85616859Y-121919994D01*
X85616859Y-121920005D01*
X85637385Y-122167729D01*
X85637387Y-122167738D01*
X85698412Y-122408717D01*
X85798267Y-122636367D01*
X85898562Y-122789881D01*
X86639037Y-122049408D01*
X86656075Y-122112993D01*
X86721901Y-122227007D01*
X86814993Y-122320099D01*
X86929007Y-122385925D01*
X86992591Y-122402962D01*
X86251943Y-123143609D01*
X86298768Y-123180055D01*
X86298771Y-123180057D01*
X86517385Y-123298364D01*
X86517396Y-123298369D01*
X86752506Y-123379083D01*
X86997707Y-123420000D01*
X87246293Y-123420000D01*
X87491493Y-123379083D01*
X87726603Y-123298369D01*
X87726614Y-123298364D01*
X87945230Y-123180056D01*
X87945236Y-123180051D01*
X87992055Y-123143610D01*
X87992056Y-123143609D01*
X87251408Y-122402962D01*
X87314993Y-122385925D01*
X87429007Y-122320099D01*
X87522099Y-122227007D01*
X87587925Y-122112993D01*
X87604962Y-122049408D01*
X88345435Y-122789882D01*
X88445733Y-122636364D01*
X88545587Y-122408717D01*
X88606612Y-122167738D01*
X88606614Y-122167729D01*
X88627141Y-121920005D01*
X88627141Y-121919994D01*
X88606614Y-121672270D01*
X88606612Y-121672261D01*
X88545587Y-121431282D01*
X88445732Y-121203632D01*
X88345435Y-121050116D01*
X87604962Y-121790590D01*
X87587925Y-121727007D01*
X87522099Y-121612993D01*
X87429007Y-121519901D01*
X87314993Y-121454075D01*
X87251409Y-121437037D01*
X87992055Y-120696389D01*
X87992055Y-120696388D01*
X87945236Y-120659947D01*
X87945231Y-120659944D01*
X87726614Y-120541635D01*
X87726603Y-120541630D01*
X87491493Y-120460916D01*
X87246293Y-120420000D01*
X86997707Y-120420000D01*
X86752506Y-120460916D01*
X86517396Y-120541630D01*
X86517385Y-120541635D01*
X86298770Y-120659943D01*
X86251943Y-120696389D01*
X86992591Y-121437037D01*
X86929007Y-121454075D01*
X86814993Y-121519901D01*
X86721901Y-121612993D01*
X86656075Y-121727007D01*
X86639037Y-121790591D01*
X85898563Y-121050117D01*
X85798267Y-121203633D01*
X85798265Y-121203637D01*
X85698412Y-121431282D01*
X85637387Y-121672261D01*
X85637385Y-121672270D01*
X85616859Y-121919994D01*
X79280000Y-121919994D01*
X79280000Y-110601983D01*
X81582500Y-110601983D01*
X81582500Y-111902001D01*
X81582501Y-111902018D01*
X81593000Y-112004796D01*
X81593001Y-112004799D01*
X81648185Y-112171331D01*
X81648187Y-112171336D01*
X81740289Y-112320657D01*
X81864344Y-112444712D01*
X82019120Y-112540178D01*
X82065845Y-112592126D01*
X82077068Y-112661088D01*
X82049224Y-112725171D01*
X82041706Y-112733398D01*
X81902889Y-112872215D01*
X81777951Y-113044179D01*
X81681444Y-113233585D01*
X81615753Y-113435760D01*
X81588127Y-113610185D01*
X81582500Y-113645713D01*
X81582500Y-113858287D01*
X81592534Y-113921644D01*
X81615160Y-114064497D01*
X81615754Y-114068243D01*
X81673183Y-114244991D01*
X81681444Y-114270414D01*
X81777951Y-114459820D01*
X81902890Y-114631786D01*
X82053209Y-114782105D01*
X82053214Y-114782109D01*
X82218218Y-114901991D01*
X82260884Y-114957320D01*
X82266863Y-115026934D01*
X82234258Y-115088729D01*
X82218218Y-115102627D01*
X82053540Y-115222272D01*
X82053535Y-115222276D01*
X81903276Y-115372535D01*
X81903272Y-115372540D01*
X81778379Y-115544442D01*
X81681904Y-115733782D01*
X81616242Y-115935870D01*
X81616242Y-115935873D01*
X81605769Y-116002000D01*
X82653854Y-116002000D01*
X82615370Y-116068657D01*
X82583000Y-116189465D01*
X82583000Y-116314535D01*
X82615370Y-116435343D01*
X82653854Y-116502000D01*
X81605769Y-116502000D01*
X81616242Y-116568126D01*
X81616242Y-116568129D01*
X81681904Y-116770217D01*
X81778379Y-116959557D01*
X81903272Y-117131459D01*
X81903276Y-117131464D01*
X82053535Y-117281723D01*
X82053540Y-117281727D01*
X82225442Y-117406620D01*
X82414782Y-117503095D01*
X82616872Y-117568757D01*
X82808000Y-117599029D01*
X82808000Y-116656145D01*
X82874657Y-116694630D01*
X82995465Y-116727000D01*
X83120535Y-116727000D01*
X83241343Y-116694630D01*
X83308000Y-116656145D01*
X83308000Y-117599028D01*
X83499127Y-117568757D01*
X83701217Y-117503095D01*
X83890557Y-117406620D01*
X84062459Y-117281727D01*
X84062464Y-117281723D01*
X84212723Y-117131464D01*
X84212727Y-117131459D01*
X84337620Y-116959557D01*
X84434095Y-116770217D01*
X84499757Y-116568129D01*
X84499757Y-116568126D01*
X84510231Y-116502000D01*
X83462146Y-116502000D01*
X83500630Y-116435343D01*
X83533000Y-116314535D01*
X83533000Y-116189465D01*
X83500630Y-116068657D01*
X83462146Y-116002000D01*
X84510231Y-116002000D01*
X84499757Y-115935873D01*
X84499757Y-115935870D01*
X84434095Y-115733782D01*
X84337620Y-115544442D01*
X84212727Y-115372540D01*
X84212723Y-115372535D01*
X84062464Y-115222276D01*
X84062459Y-115222272D01*
X83897781Y-115102627D01*
X83855115Y-115047297D01*
X83849136Y-114977684D01*
X83881741Y-114915889D01*
X83897776Y-114901994D01*
X84062792Y-114782104D01*
X84213104Y-114631792D01*
X84213106Y-114631788D01*
X84213109Y-114631786D01*
X84322086Y-114481789D01*
X84338051Y-114459816D01*
X84434557Y-114270412D01*
X84442819Y-114244983D01*
X91125500Y-114244983D01*
X91125500Y-115845001D01*
X91125501Y-115845018D01*
X91136000Y-115947796D01*
X91136001Y-115947799D01*
X91170031Y-116050493D01*
X91191186Y-116114334D01*
X91283288Y-116263656D01*
X91407344Y-116387712D01*
X91556666Y-116479814D01*
X91723203Y-116534999D01*
X91825991Y-116545500D01*
X93126008Y-116545499D01*
X93228797Y-116534999D01*
X93395334Y-116479814D01*
X93544656Y-116387712D01*
X93668712Y-116263656D01*
X93760814Y-116114334D01*
X93760814Y-116114331D01*
X93764448Y-116108441D01*
X93816395Y-116061716D01*
X93885358Y-116050493D01*
X93949440Y-116078336D01*
X93957668Y-116085856D01*
X94096535Y-116224723D01*
X94096540Y-116224727D01*
X94268442Y-116349620D01*
X94457782Y-116446095D01*
X94659871Y-116511757D01*
X94726000Y-116522231D01*
X94726000Y-115478012D01*
X94783007Y-115510925D01*
X94910174Y-115545000D01*
X95041826Y-115545000D01*
X95168993Y-115510925D01*
X95226000Y-115478012D01*
X95226000Y-116522230D01*
X95292126Y-116511757D01*
X95292129Y-116511757D01*
X95494217Y-116446095D01*
X95683557Y-116349620D01*
X95855459Y-116224727D01*
X95855464Y-116224723D01*
X96005723Y-116074464D01*
X96005727Y-116074459D01*
X96130620Y-115902557D01*
X96227095Y-115713217D01*
X96292757Y-115511130D01*
X96292757Y-115511127D01*
X96326000Y-115301246D01*
X96326000Y-115295000D01*
X95409012Y-115295000D01*
X95441925Y-115237993D01*
X95476000Y-115110826D01*
X95476000Y-114979174D01*
X95441925Y-114852007D01*
X95409012Y-114795000D01*
X96326000Y-114795000D01*
X96326000Y-114788753D01*
X96292757Y-114578872D01*
X96292757Y-114578869D01*
X96227095Y-114376782D01*
X96130620Y-114187442D01*
X96005727Y-114015540D01*
X96005723Y-114015535D01*
X95855464Y-113865276D01*
X95855459Y-113865272D01*
X95683557Y-113740379D01*
X95494215Y-113643903D01*
X95292124Y-113578241D01*
X95226000Y-113567768D01*
X95226000Y-114611988D01*
X95168993Y-114579075D01*
X95041826Y-114545000D01*
X94910174Y-114545000D01*
X94783007Y-114579075D01*
X94726000Y-114611988D01*
X94726000Y-113567768D01*
X94725999Y-113567768D01*
X94659875Y-113578241D01*
X94457784Y-113643903D01*
X94268442Y-113740379D01*
X94096541Y-113865271D01*
X93957668Y-114004144D01*
X93896345Y-114037628D01*
X93826653Y-114032644D01*
X93770720Y-113990772D01*
X93764448Y-113981558D01*
X93668712Y-113826344D01*
X93544657Y-113702289D01*
X93544656Y-113702288D01*
X93449998Y-113643903D01*
X93395336Y-113610187D01*
X93395331Y-113610185D01*
X93393862Y-113609698D01*
X93228797Y-113555001D01*
X93228795Y-113555000D01*
X93126010Y-113544500D01*
X91825998Y-113544500D01*
X91825981Y-113544501D01*
X91723203Y-113555000D01*
X91723200Y-113555001D01*
X91556668Y-113610185D01*
X91556663Y-113610187D01*
X91407342Y-113702289D01*
X91283289Y-113826342D01*
X91191187Y-113975663D01*
X91191185Y-113975668D01*
X91186180Y-113990772D01*
X91136001Y-114142203D01*
X91136001Y-114142204D01*
X91136000Y-114142204D01*
X91125500Y-114244983D01*
X84442819Y-114244983D01*
X84500246Y-114068243D01*
X84533500Y-113858287D01*
X84533500Y-113645713D01*
X84500246Y-113435757D01*
X84434557Y-113233588D01*
X84338051Y-113044184D01*
X84338049Y-113044181D01*
X84338048Y-113044179D01*
X84213109Y-112872213D01*
X84074294Y-112733398D01*
X84040809Y-112672075D01*
X84045793Y-112602383D01*
X84087665Y-112546450D01*
X84096879Y-112540178D01*
X84102331Y-112536814D01*
X84102334Y-112536814D01*
X84251656Y-112444712D01*
X84375712Y-112320656D01*
X84467814Y-112171334D01*
X84522999Y-112004797D01*
X84533500Y-111902009D01*
X84533499Y-110601992D01*
X84522999Y-110499203D01*
X84467814Y-110332666D01*
X84375712Y-110183344D01*
X84251656Y-110059288D01*
X84126353Y-109982001D01*
X84102336Y-109967187D01*
X84102331Y-109967185D01*
X84092073Y-109963786D01*
X83935797Y-109912001D01*
X83935795Y-109912000D01*
X83833010Y-109901500D01*
X82282998Y-109901500D01*
X82282981Y-109901501D01*
X82180203Y-109912000D01*
X82180200Y-109912001D01*
X82013668Y-109967185D01*
X82013663Y-109967187D01*
X81864342Y-110059289D01*
X81740289Y-110183342D01*
X81648187Y-110332663D01*
X81648185Y-110332668D01*
X81644658Y-110343313D01*
X81593001Y-110499203D01*
X81593001Y-110499204D01*
X81593000Y-110499204D01*
X81582500Y-110601983D01*
X79280000Y-110601983D01*
X79280000Y-92846439D01*
X80972500Y-92846439D01*
X80972500Y-98332359D01*
X80985091Y-98395654D01*
X80985091Y-98395656D01*
X80999053Y-98465849D01*
X80999056Y-98465861D01*
X81051142Y-98591609D01*
X81051144Y-98591612D01*
X81126763Y-98704785D01*
X81126769Y-98704792D01*
X83515797Y-101093819D01*
X83549282Y-101155142D01*
X83544298Y-101224834D01*
X83502426Y-101280767D01*
X83436962Y-101305184D01*
X83428116Y-101305500D01*
X82257998Y-101305500D01*
X82257981Y-101305501D01*
X82155203Y-101316000D01*
X82155200Y-101316001D01*
X81988668Y-101371185D01*
X81988663Y-101371187D01*
X81839342Y-101463289D01*
X81715289Y-101587342D01*
X81623187Y-101736663D01*
X81623186Y-101736666D01*
X81568001Y-101903203D01*
X81568001Y-101903204D01*
X81568000Y-101903204D01*
X81557500Y-102005983D01*
X81557500Y-103306001D01*
X81557501Y-103306018D01*
X81568000Y-103408796D01*
X81568001Y-103408799D01*
X81623185Y-103575331D01*
X81623187Y-103575336D01*
X81636822Y-103597442D01*
X81715287Y-103724655D01*
X81715289Y-103724657D01*
X81839344Y-103848712D01*
X81994120Y-103944178D01*
X82040845Y-103996126D01*
X82052068Y-104065088D01*
X82024224Y-104129171D01*
X82016706Y-104137398D01*
X81877889Y-104276215D01*
X81752951Y-104448179D01*
X81656444Y-104637585D01*
X81590753Y-104839760D01*
X81557500Y-105049713D01*
X81557500Y-105262286D01*
X81586068Y-105442661D01*
X81590754Y-105472243D01*
X81644272Y-105636955D01*
X81656444Y-105674414D01*
X81752951Y-105863820D01*
X81877890Y-106035786D01*
X82028213Y-106186109D01*
X82200179Y-106311048D01*
X82200181Y-106311049D01*
X82200184Y-106311051D01*
X82389588Y-106407557D01*
X82591757Y-106473246D01*
X82801713Y-106506500D01*
X82801714Y-106506500D01*
X83314286Y-106506500D01*
X83314287Y-106506500D01*
X83524243Y-106473246D01*
X83726412Y-106407557D01*
X83915816Y-106311051D01*
X83937789Y-106295086D01*
X84087786Y-106186109D01*
X84087788Y-106186106D01*
X84087792Y-106186104D01*
X84238104Y-106035792D01*
X84238106Y-106035788D01*
X84238109Y-106035786D01*
X84363048Y-105863820D01*
X84363047Y-105863820D01*
X84363051Y-105863816D01*
X84459557Y-105674412D01*
X84525246Y-105472243D01*
X84558500Y-105262287D01*
X84558500Y-105049713D01*
X84525246Y-104839757D01*
X84459557Y-104637588D01*
X84363051Y-104448184D01*
X84363049Y-104448181D01*
X84363048Y-104448179D01*
X84238109Y-104276213D01*
X84099294Y-104137398D01*
X84065809Y-104076075D01*
X84070793Y-104006383D01*
X84112665Y-103950450D01*
X84121879Y-103944178D01*
X84127331Y-103940814D01*
X84127334Y-103940814D01*
X84276656Y-103848712D01*
X84400712Y-103724656D01*
X84492814Y-103575334D01*
X84547999Y-103408797D01*
X84558500Y-103306009D01*
X84558499Y-102435882D01*
X84578183Y-102368844D01*
X84630987Y-102323089D01*
X84700146Y-102313145D01*
X84763702Y-102342170D01*
X84770180Y-102348202D01*
X91419303Y-108997325D01*
X91452788Y-109058648D01*
X91447804Y-109128340D01*
X91405932Y-109184273D01*
X91340468Y-109208690D01*
X91288290Y-109201188D01*
X91229882Y-109179403D01*
X91229872Y-109179401D01*
X91170344Y-109173000D01*
X90420000Y-109173000D01*
X90420000Y-110182252D01*
X90382292Y-110160482D01*
X90242409Y-110123000D01*
X90097591Y-110123000D01*
X89957708Y-110160482D01*
X89920000Y-110182252D01*
X89920000Y-109173000D01*
X89169655Y-109173000D01*
X89110127Y-109179401D01*
X89110120Y-109179403D01*
X88975413Y-109229645D01*
X88975406Y-109229649D01*
X88860312Y-109315809D01*
X88860309Y-109315812D01*
X88774149Y-109430906D01*
X88774145Y-109430913D01*
X88723903Y-109565620D01*
X88723901Y-109565627D01*
X88717500Y-109625155D01*
X88717500Y-110423000D01*
X89679252Y-110423000D01*
X89657482Y-110460708D01*
X89620000Y-110600591D01*
X89620000Y-110745409D01*
X89657482Y-110885292D01*
X89679252Y-110923000D01*
X88717500Y-110923000D01*
X88717500Y-111720844D01*
X88723901Y-111780372D01*
X88723903Y-111780379D01*
X88774145Y-111915086D01*
X88774149Y-111915093D01*
X88860309Y-112030187D01*
X88860312Y-112030190D01*
X88975406Y-112116350D01*
X88975413Y-112116354D01*
X89110120Y-112166596D01*
X89110127Y-112166598D01*
X89169655Y-112172999D01*
X89169672Y-112173000D01*
X89920000Y-112173000D01*
X89920000Y-111163747D01*
X89957708Y-111185518D01*
X90097591Y-111223000D01*
X90242409Y-111223000D01*
X90382292Y-111185518D01*
X90420000Y-111163747D01*
X90420000Y-112173000D01*
X91170328Y-112173000D01*
X91170344Y-112172999D01*
X91229872Y-112166598D01*
X91229879Y-112166596D01*
X91364586Y-112116354D01*
X91364593Y-112116350D01*
X91479687Y-112030190D01*
X91479690Y-112030187D01*
X91565850Y-111915093D01*
X91565854Y-111915086D01*
X91576272Y-111887155D01*
X91618143Y-111831221D01*
X91683607Y-111806804D01*
X91751880Y-111821655D01*
X91765331Y-111830164D01*
X91948462Y-111963217D01*
X92079904Y-112030190D01*
X92152244Y-112067049D01*
X92369751Y-112137721D01*
X92369752Y-112137721D01*
X92369755Y-112137722D01*
X92595646Y-112173500D01*
X92595647Y-112173500D01*
X92824353Y-112173500D01*
X92824354Y-112173500D01*
X93050245Y-112137722D01*
X93050248Y-112137721D01*
X93050249Y-112137721D01*
X93267755Y-112067049D01*
X93267755Y-112067048D01*
X93267758Y-112067048D01*
X93471538Y-111963217D01*
X93656566Y-111828786D01*
X93818286Y-111667066D01*
X93879683Y-111582559D01*
X93935012Y-111539896D01*
X94004625Y-111533917D01*
X94066420Y-111566523D01*
X94080314Y-111582556D01*
X94141714Y-111667066D01*
X94303434Y-111828786D01*
X94488462Y-111963217D01*
X94619904Y-112030190D01*
X94692244Y-112067049D01*
X94909751Y-112137721D01*
X94909752Y-112137721D01*
X94909755Y-112137722D01*
X95135646Y-112173500D01*
X95135647Y-112173500D01*
X95364353Y-112173500D01*
X95364354Y-112173500D01*
X95590245Y-112137722D01*
X95590248Y-112137721D01*
X95590249Y-112137721D01*
X95807755Y-112067049D01*
X95807755Y-112067048D01*
X95807758Y-112067048D01*
X96011538Y-111963217D01*
X96196566Y-111828786D01*
X96196568Y-111828783D01*
X96200507Y-111825922D01*
X96201895Y-111827833D01*
X96256759Y-111803212D01*
X96325851Y-111813609D01*
X96378353Y-111859710D01*
X96397600Y-111926063D01*
X96397600Y-113666661D01*
X96411806Y-113738078D01*
X96424152Y-113800150D01*
X96424155Y-113800159D01*
X96476242Y-113925909D01*
X96476244Y-113925912D01*
X96551863Y-114039085D01*
X96551869Y-114039092D01*
X99045129Y-116532350D01*
X99078614Y-116593673D01*
X99080976Y-116630838D01*
X99062677Y-116839997D01*
X99062677Y-116840002D01*
X99081929Y-117060062D01*
X99081930Y-117060070D01*
X99139104Y-117273445D01*
X99139105Y-117273447D01*
X99139106Y-117273450D01*
X99201204Y-117406620D01*
X99232466Y-117473662D01*
X99232468Y-117473666D01*
X99359170Y-117654615D01*
X99359175Y-117654621D01*
X99515378Y-117810824D01*
X99515384Y-117810829D01*
X99696333Y-117937531D01*
X99696335Y-117937532D01*
X99696338Y-117937534D01*
X99776129Y-117974741D01*
X99825781Y-117997894D01*
X99878220Y-118044066D01*
X99897372Y-118111260D01*
X99877156Y-118178141D01*
X99825781Y-118222658D01*
X99696590Y-118282901D01*
X99631811Y-118328258D01*
X100302553Y-118999000D01*
X100279840Y-118999000D01*
X100182939Y-119024964D01*
X100096060Y-119075124D01*
X100025124Y-119146060D01*
X99974964Y-119232939D01*
X99949000Y-119329840D01*
X99949000Y-119352553D01*
X99278258Y-118681811D01*
X99232901Y-118746590D01*
X99139579Y-118946720D01*
X99139575Y-118946729D01*
X99082426Y-119160013D01*
X99082424Y-119160023D01*
X99063179Y-119379999D01*
X99063179Y-119380000D01*
X99082424Y-119599976D01*
X99082426Y-119599986D01*
X99139575Y-119813270D01*
X99139580Y-119813284D01*
X99232898Y-120013405D01*
X99232901Y-120013411D01*
X99278258Y-120078187D01*
X99278258Y-120078188D01*
X99949000Y-119407446D01*
X99949000Y-119430160D01*
X99974964Y-119527061D01*
X100025124Y-119613940D01*
X100096060Y-119684876D01*
X100182939Y-119735036D01*
X100279840Y-119761000D01*
X100302552Y-119761000D01*
X99631810Y-120431740D01*
X99696589Y-120477098D01*
X99825781Y-120537342D01*
X99878220Y-120583514D01*
X99897372Y-120650708D01*
X99877156Y-120717589D01*
X99825781Y-120762106D01*
X99696340Y-120822465D01*
X99696338Y-120822466D01*
X99515377Y-120949175D01*
X99359175Y-121105377D01*
X99232466Y-121286338D01*
X99232465Y-121286340D01*
X99139107Y-121486548D01*
X99139104Y-121486554D01*
X99081930Y-121699929D01*
X99081929Y-121699937D01*
X99062677Y-121919997D01*
X99062677Y-121920002D01*
X99081929Y-122140062D01*
X99081930Y-122140070D01*
X99139104Y-122353445D01*
X99139105Y-122353447D01*
X99139106Y-122353450D01*
X99197933Y-122479606D01*
X99232466Y-122553662D01*
X99232468Y-122553666D01*
X99359170Y-122734615D01*
X99359175Y-122734621D01*
X99515378Y-122890824D01*
X99515384Y-122890829D01*
X99696333Y-123017531D01*
X99696335Y-123017532D01*
X99696338Y-123017534D01*
X99896550Y-123110894D01*
X100109932Y-123168070D01*
X100267123Y-123181822D01*
X100329998Y-123187323D01*
X100330000Y-123187323D01*
X100330002Y-123187323D01*
X100385017Y-123182509D01*
X100550068Y-123168070D01*
X100763450Y-123110894D01*
X100833378Y-123078285D01*
X100902453Y-123067793D01*
X100966237Y-123096312D01*
X100973463Y-123102986D01*
X108441407Y-130570930D01*
X108441414Y-130570936D01*
X108554587Y-130646555D01*
X108554590Y-130646557D01*
X108680338Y-130698643D01*
X108680343Y-130698645D01*
X108680347Y-130698645D01*
X108680348Y-130698646D01*
X108813839Y-130725200D01*
X108813842Y-130725200D01*
X110046960Y-130725200D01*
X110179989Y-130698738D01*
X110180457Y-130698645D01*
X110306211Y-130646556D01*
X110419387Y-130570935D01*
X111158235Y-129832086D01*
X111233856Y-129718911D01*
X111285945Y-129593157D01*
X111312500Y-129459657D01*
X111312500Y-129323543D01*
X111312500Y-128569999D01*
X115751127Y-128569999D01*
X115751128Y-128570000D01*
X116714314Y-128570000D01*
X116709920Y-128574394D01*
X116657259Y-128665606D01*
X116630000Y-128767339D01*
X116630000Y-128872661D01*
X116657259Y-128974394D01*
X116709920Y-129065606D01*
X116714314Y-129070000D01*
X115751128Y-129070000D01*
X115803730Y-129266317D01*
X115803734Y-129266326D01*
X115899865Y-129472482D01*
X116030342Y-129658820D01*
X116191179Y-129819657D01*
X116377517Y-129950134D01*
X116583673Y-130046265D01*
X116583682Y-130046269D01*
X116779999Y-130098872D01*
X116780000Y-130098871D01*
X116780000Y-129135686D01*
X116784394Y-129140080D01*
X116875606Y-129192741D01*
X116977339Y-129220000D01*
X117082661Y-129220000D01*
X117184394Y-129192741D01*
X117275606Y-129140080D01*
X117280000Y-129135686D01*
X117280000Y-130098872D01*
X117476317Y-130046269D01*
X117476326Y-130046265D01*
X117682482Y-129950134D01*
X117868820Y-129819657D01*
X118029657Y-129658820D01*
X118160134Y-129472482D01*
X118256265Y-129266326D01*
X118256269Y-129266317D01*
X118308872Y-129070000D01*
X117345686Y-129070000D01*
X117350080Y-129065606D01*
X117402741Y-128974394D01*
X117430000Y-128872661D01*
X117430000Y-128767339D01*
X117402741Y-128665606D01*
X117350080Y-128574394D01*
X117345686Y-128570000D01*
X118308872Y-128570000D01*
X118308872Y-128569999D01*
X118256269Y-128373682D01*
X118256265Y-128373673D01*
X118160134Y-128167517D01*
X118029657Y-127981179D01*
X117868820Y-127820342D01*
X117682482Y-127689865D01*
X117476328Y-127593734D01*
X117280000Y-127541127D01*
X117280000Y-128504314D01*
X117275606Y-128499920D01*
X117184394Y-128447259D01*
X117082661Y-128420000D01*
X116977339Y-128420000D01*
X116875606Y-128447259D01*
X116784394Y-128499920D01*
X116780000Y-128504314D01*
X116780000Y-127541127D01*
X116583671Y-127593734D01*
X116377517Y-127689865D01*
X116191179Y-127820342D01*
X116030342Y-127981179D01*
X115899865Y-128167517D01*
X115803734Y-128373673D01*
X115803730Y-128373682D01*
X115751127Y-128569999D01*
X111312500Y-128569999D01*
X111312500Y-126915442D01*
X111312500Y-126915439D01*
X111285946Y-126781948D01*
X111285945Y-126781947D01*
X111285945Y-126781943D01*
X111254489Y-126706001D01*
X111233859Y-126656195D01*
X111233851Y-126656180D01*
X111204020Y-126611536D01*
X111204020Y-126611535D01*
X111204018Y-126611533D01*
X111173496Y-126565854D01*
X111158236Y-126543015D01*
X111158232Y-126543010D01*
X110728988Y-126113766D01*
X110695503Y-126052443D01*
X110696669Y-126004377D01*
X110694694Y-126004029D01*
X110695631Y-125998704D01*
X110695635Y-125998692D01*
X110715468Y-125772000D01*
X110695635Y-125545308D01*
X110636739Y-125325504D01*
X110540568Y-125119266D01*
X110410047Y-124932861D01*
X110410045Y-124932858D01*
X110249141Y-124771954D01*
X110062734Y-124641432D01*
X110062732Y-124641431D01*
X109856497Y-124545261D01*
X109856488Y-124545258D01*
X109636697Y-124486366D01*
X109636693Y-124486365D01*
X109636692Y-124486365D01*
X109636691Y-124486364D01*
X109636686Y-124486364D01*
X109410002Y-124466532D01*
X109409998Y-124466532D01*
X109183313Y-124486364D01*
X109183302Y-124486366D01*
X108963511Y-124545258D01*
X108963502Y-124545261D01*
X108757267Y-124641431D01*
X108757265Y-124641432D01*
X108570858Y-124771954D01*
X108409954Y-124932858D01*
X108279432Y-125119265D01*
X108279431Y-125119267D01*
X108183261Y-125325502D01*
X108183258Y-125325511D01*
X108124366Y-125545302D01*
X108124364Y-125545313D01*
X108104532Y-125771998D01*
X108104532Y-125772001D01*
X108124364Y-125998686D01*
X108124366Y-125998697D01*
X108183258Y-126218488D01*
X108183261Y-126218497D01*
X108202383Y-126259504D01*
X108233410Y-126326040D01*
X108243902Y-126395116D01*
X108215383Y-126458900D01*
X108156906Y-126497140D01*
X108087039Y-126497695D01*
X108033347Y-126466125D01*
X103044119Y-121476897D01*
X103010634Y-121415574D01*
X103007800Y-121389216D01*
X103007800Y-108723001D01*
X103027485Y-108655962D01*
X103080289Y-108610207D01*
X103149447Y-108600263D01*
X103213003Y-108629288D01*
X103219470Y-108635310D01*
X103397835Y-108813674D01*
X103822981Y-109238820D01*
X103856466Y-109300143D01*
X103859300Y-109326501D01*
X103859300Y-118398170D01*
X103887258Y-118574693D01*
X103920160Y-118675954D01*
X103942489Y-118744678D01*
X103942491Y-118744681D01*
X104023633Y-118903932D01*
X104110334Y-119023265D01*
X104128688Y-119048527D01*
X108135097Y-123054936D01*
X108167190Y-123110521D01*
X108183261Y-123170496D01*
X108279431Y-123376732D01*
X108279432Y-123376734D01*
X108409954Y-123563141D01*
X108570858Y-123724045D01*
X108570861Y-123724047D01*
X108757266Y-123854568D01*
X108963504Y-123950739D01*
X108963509Y-123950740D01*
X108963511Y-123950741D01*
X109016415Y-123964916D01*
X109183308Y-124009635D01*
X109345230Y-124023801D01*
X109409998Y-124029468D01*
X109410000Y-124029468D01*
X109410002Y-124029468D01*
X109466673Y-124024509D01*
X109636692Y-124009635D01*
X109856496Y-123950739D01*
X110062734Y-123854568D01*
X110249139Y-123724047D01*
X110410047Y-123563139D01*
X110540568Y-123376734D01*
X110636739Y-123170496D01*
X110695635Y-122950692D01*
X110715468Y-122724000D01*
X110711647Y-122680331D01*
X110700602Y-122554080D01*
X110695635Y-122497308D01*
X110636739Y-122277504D01*
X110540568Y-122071266D01*
X110410047Y-121884861D01*
X110410045Y-121884858D01*
X110249141Y-121723954D01*
X110062734Y-121593432D01*
X110062732Y-121593431D01*
X109856496Y-121497261D01*
X109796521Y-121481190D01*
X109740936Y-121449097D01*
X109472336Y-121180497D01*
X109438851Y-121119174D01*
X109443835Y-121049482D01*
X109485707Y-120993549D01*
X109549207Y-120969288D01*
X109636692Y-120961635D01*
X109856496Y-120902739D01*
X110062734Y-120806568D01*
X110249139Y-120676047D01*
X110410047Y-120515139D01*
X110540568Y-120328734D01*
X110636739Y-120122496D01*
X110695635Y-119902692D01*
X110712634Y-119708384D01*
X110715468Y-119676001D01*
X110715468Y-119675998D01*
X110702731Y-119530418D01*
X110695635Y-119449308D01*
X110641308Y-119246557D01*
X110636741Y-119229511D01*
X110636738Y-119229502D01*
X110604339Y-119160023D01*
X110540568Y-119023266D01*
X110410047Y-118836861D01*
X110410045Y-118836858D01*
X110249141Y-118675954D01*
X110062734Y-118545432D01*
X110062732Y-118545431D01*
X109856495Y-118449260D01*
X109796522Y-118433190D01*
X109740937Y-118401097D01*
X109507280Y-118167440D01*
X109473795Y-118106117D01*
X109478779Y-118036425D01*
X109520651Y-117980492D01*
X109584153Y-117956231D01*
X109636692Y-117951635D01*
X109856496Y-117892739D01*
X110062734Y-117796568D01*
X110249139Y-117666047D01*
X110410047Y-117505139D01*
X110540568Y-117318734D01*
X110636739Y-117112496D01*
X110695635Y-116892692D01*
X110715468Y-116666000D01*
X110695635Y-116439308D01*
X110648569Y-116263655D01*
X110636741Y-116219511D01*
X110636738Y-116219502D01*
X110630600Y-116206339D01*
X110540568Y-116013266D01*
X110410047Y-115826861D01*
X110410045Y-115826858D01*
X110249141Y-115665954D01*
X110062734Y-115535432D01*
X110062732Y-115535431D01*
X109856497Y-115439261D01*
X109856488Y-115439258D01*
X109636697Y-115380366D01*
X109636693Y-115380365D01*
X109636692Y-115380365D01*
X109636691Y-115380364D01*
X109636686Y-115380364D01*
X109410002Y-115360532D01*
X109409998Y-115360532D01*
X109183313Y-115380364D01*
X109183302Y-115380366D01*
X108963511Y-115439258D01*
X108963502Y-115439261D01*
X108757267Y-115535431D01*
X108757265Y-115535432D01*
X108570858Y-115665954D01*
X108421281Y-115815532D01*
X108359958Y-115849017D01*
X108290266Y-115844033D01*
X108234333Y-115802161D01*
X108209916Y-115736697D01*
X108209600Y-115727851D01*
X108209600Y-114556149D01*
X108229285Y-114489110D01*
X108282089Y-114443355D01*
X108351247Y-114433411D01*
X108414803Y-114462436D01*
X108421281Y-114468468D01*
X108570858Y-114618045D01*
X108590491Y-114631792D01*
X108757266Y-114748568D01*
X108963504Y-114844739D01*
X108963509Y-114844740D01*
X108963511Y-114844741D01*
X109016415Y-114858916D01*
X109183308Y-114903635D01*
X109345230Y-114917801D01*
X109409998Y-114923468D01*
X109410000Y-114923468D01*
X109410002Y-114923468D01*
X109466673Y-114918509D01*
X109636692Y-114903635D01*
X109856496Y-114844739D01*
X110062734Y-114748568D01*
X110249139Y-114618047D01*
X110410047Y-114457139D01*
X110540568Y-114270734D01*
X110636739Y-114064496D01*
X110695635Y-113844692D01*
X110715468Y-113618000D01*
X110714784Y-113610187D01*
X110702695Y-113472006D01*
X110695635Y-113391308D01*
X110636739Y-113171504D01*
X110540568Y-112965266D01*
X110410047Y-112778861D01*
X110410045Y-112778858D01*
X110249141Y-112617954D01*
X110062734Y-112487432D01*
X110062732Y-112487431D01*
X109856497Y-112391261D01*
X109856488Y-112391258D01*
X109636697Y-112332366D01*
X109636693Y-112332365D01*
X109636692Y-112332365D01*
X109636691Y-112332364D01*
X109636686Y-112332364D01*
X109410002Y-112312532D01*
X109409998Y-112312532D01*
X109183313Y-112332364D01*
X109183302Y-112332366D01*
X108963511Y-112391258D01*
X108963502Y-112391261D01*
X108757267Y-112487431D01*
X108757265Y-112487432D01*
X108570858Y-112617954D01*
X108421281Y-112767532D01*
X108359958Y-112801017D01*
X108290266Y-112796033D01*
X108234333Y-112754161D01*
X108209916Y-112688697D01*
X108209600Y-112679851D01*
X108209600Y-111508149D01*
X108229285Y-111441110D01*
X108282089Y-111395355D01*
X108351247Y-111385411D01*
X108414803Y-111414436D01*
X108421281Y-111420468D01*
X108570858Y-111570045D01*
X108570861Y-111570047D01*
X108757266Y-111700568D01*
X108963504Y-111796739D01*
X108963509Y-111796740D01*
X108963511Y-111796741D01*
X109001067Y-111806804D01*
X109183308Y-111855635D01*
X109345230Y-111869801D01*
X109409998Y-111875468D01*
X109410000Y-111875468D01*
X109410002Y-111875468D01*
X109466673Y-111870509D01*
X109636692Y-111855635D01*
X109856496Y-111796739D01*
X110062734Y-111700568D01*
X110249139Y-111570047D01*
X110410047Y-111409139D01*
X110540568Y-111222734D01*
X110636739Y-111016496D01*
X110695635Y-110796692D01*
X110715468Y-110570000D01*
X110695635Y-110343308D01*
X110636739Y-110123504D01*
X110540568Y-109917266D01*
X110410047Y-109730861D01*
X110410045Y-109730858D01*
X110249141Y-109569954D01*
X110062734Y-109439432D01*
X110062732Y-109439431D01*
X109856497Y-109343261D01*
X109856488Y-109343258D01*
X109636697Y-109284366D01*
X109636693Y-109284365D01*
X109636692Y-109284365D01*
X109636691Y-109284364D01*
X109636686Y-109284364D01*
X109410002Y-109264532D01*
X109409998Y-109264532D01*
X109183313Y-109284364D01*
X109183302Y-109284366D01*
X108963511Y-109343258D01*
X108963502Y-109343261D01*
X108757267Y-109439431D01*
X108757265Y-109439432D01*
X108570858Y-109569954D01*
X108421281Y-109719532D01*
X108359958Y-109753017D01*
X108290266Y-109748033D01*
X108234333Y-109706161D01*
X108209916Y-109640697D01*
X108209600Y-109631851D01*
X108209600Y-108472149D01*
X108229285Y-108405110D01*
X108282089Y-108359355D01*
X108351247Y-108349411D01*
X108414803Y-108378436D01*
X108421281Y-108384468D01*
X108558858Y-108522045D01*
X108558861Y-108522047D01*
X108745266Y-108652568D01*
X108951504Y-108748739D01*
X108951509Y-108748740D01*
X108951511Y-108748741D01*
X109004415Y-108762916D01*
X109171308Y-108807635D01*
X109333230Y-108821801D01*
X109397998Y-108827468D01*
X109398000Y-108827468D01*
X109398002Y-108827468D01*
X109454673Y-108822509D01*
X109624692Y-108807635D01*
X109844496Y-108748739D01*
X110050734Y-108652568D01*
X110237139Y-108522047D01*
X110398047Y-108361139D01*
X110528568Y-108174734D01*
X110624739Y-107968496D01*
X110683635Y-107748692D01*
X110703468Y-107522000D01*
X110683635Y-107295308D01*
X110624739Y-107075504D01*
X110528568Y-106869266D01*
X110398047Y-106682861D01*
X110398045Y-106682858D01*
X110237141Y-106521954D01*
X110050734Y-106391432D01*
X110050732Y-106391431D01*
X109844497Y-106295261D01*
X109844488Y-106295258D01*
X109624697Y-106236366D01*
X109624693Y-106236365D01*
X109624692Y-106236365D01*
X109624691Y-106236364D01*
X109624686Y-106236364D01*
X109398002Y-106216532D01*
X109397998Y-106216532D01*
X109171313Y-106236364D01*
X109171302Y-106236366D01*
X108951511Y-106295258D01*
X108951502Y-106295261D01*
X108745267Y-106391431D01*
X108745265Y-106391432D01*
X108558858Y-106521954D01*
X108397954Y-106682858D01*
X108267432Y-106869265D01*
X108267431Y-106869267D01*
X108171261Y-107075502D01*
X108171258Y-107075511D01*
X108112366Y-107295302D01*
X108112364Y-107295312D01*
X108096827Y-107472906D01*
X108071374Y-107537974D01*
X108014784Y-107578953D01*
X107945022Y-107582831D01*
X107885618Y-107549779D01*
X104809837Y-104473998D01*
X108092532Y-104473998D01*
X108092532Y-104474001D01*
X108112364Y-104700686D01*
X108112366Y-104700697D01*
X108171258Y-104920488D01*
X108171261Y-104920497D01*
X108267431Y-105126732D01*
X108267432Y-105126734D01*
X108397954Y-105313141D01*
X108558858Y-105474045D01*
X108558861Y-105474047D01*
X108745266Y-105604568D01*
X108951504Y-105700739D01*
X109171308Y-105759635D01*
X109333230Y-105773801D01*
X109397998Y-105779468D01*
X109398000Y-105779468D01*
X109398002Y-105779468D01*
X109454673Y-105774509D01*
X109624692Y-105759635D01*
X109844496Y-105700739D01*
X110050734Y-105604568D01*
X110237139Y-105474047D01*
X110398047Y-105313139D01*
X110528568Y-105126734D01*
X110624739Y-104920496D01*
X110683635Y-104700692D01*
X110701630Y-104495004D01*
X110703468Y-104474001D01*
X110703468Y-104473998D01*
X110692912Y-104353342D01*
X110683635Y-104247308D01*
X110638916Y-104080415D01*
X110624741Y-104027511D01*
X110624738Y-104027502D01*
X110587340Y-103947302D01*
X110528568Y-103821266D01*
X110398047Y-103634861D01*
X110398045Y-103634858D01*
X110237141Y-103473954D01*
X110050734Y-103343432D01*
X110050732Y-103343431D01*
X109844497Y-103247261D01*
X109844488Y-103247258D01*
X109624697Y-103188366D01*
X109624693Y-103188365D01*
X109624692Y-103188365D01*
X109624691Y-103188364D01*
X109624686Y-103188364D01*
X109398002Y-103168532D01*
X109397998Y-103168532D01*
X109171313Y-103188364D01*
X109171302Y-103188366D01*
X108951511Y-103247258D01*
X108951502Y-103247261D01*
X108745267Y-103343431D01*
X108745265Y-103343432D01*
X108558858Y-103473954D01*
X108397954Y-103634858D01*
X108267432Y-103821265D01*
X108267431Y-103821267D01*
X108171261Y-104027502D01*
X108171258Y-104027511D01*
X108112366Y-104247302D01*
X108112364Y-104247313D01*
X108092532Y-104473998D01*
X104809837Y-104473998D01*
X101550922Y-101215083D01*
X101522080Y-101169811D01*
X101520898Y-101166565D01*
X101520894Y-101166550D01*
X101427534Y-100966339D01*
X101308570Y-100796439D01*
X101300827Y-100785381D01*
X101250562Y-100735116D01*
X101144620Y-100629174D01*
X101144616Y-100629171D01*
X101144615Y-100629170D01*
X100963666Y-100502468D01*
X100963658Y-100502464D01*
X100834811Y-100442382D01*
X100782371Y-100396210D01*
X100763219Y-100329017D01*
X100783435Y-100262135D01*
X100834811Y-100217618D01*
X100855896Y-100207786D01*
X100963662Y-100157534D01*
X101144620Y-100030826D01*
X101300826Y-99874620D01*
X101427534Y-99693662D01*
X101520894Y-99493450D01*
X101578070Y-99280068D01*
X101597323Y-99060000D01*
X101592734Y-99007551D01*
X101588927Y-98964035D01*
X101578070Y-98839932D01*
X101520894Y-98626550D01*
X101427534Y-98426339D01*
X101337598Y-98297896D01*
X101300827Y-98245381D01*
X101228036Y-98172590D01*
X101144620Y-98089174D01*
X101144616Y-98089171D01*
X101144615Y-98089170D01*
X100963666Y-97962468D01*
X100963658Y-97962464D01*
X100834811Y-97902382D01*
X100782371Y-97856210D01*
X100763219Y-97789017D01*
X100783435Y-97722135D01*
X100834811Y-97677618D01*
X100840802Y-97674824D01*
X100963662Y-97617534D01*
X101144620Y-97490826D01*
X101300826Y-97334620D01*
X101427534Y-97153662D01*
X101520894Y-96953450D01*
X101578070Y-96740068D01*
X101595241Y-96543796D01*
X101597323Y-96520002D01*
X101597323Y-96519997D01*
X101588410Y-96418119D01*
X101578070Y-96299932D01*
X101520894Y-96086550D01*
X101427534Y-95886339D01*
X101300826Y-95705380D01*
X101144620Y-95549174D01*
X101144616Y-95549171D01*
X101144615Y-95549170D01*
X100963666Y-95422468D01*
X100963658Y-95422464D01*
X100834811Y-95362382D01*
X100782371Y-95316210D01*
X100763219Y-95249017D01*
X100783435Y-95182135D01*
X100834811Y-95137618D01*
X100859726Y-95126000D01*
X100963662Y-95077534D01*
X101144620Y-94950826D01*
X101300826Y-94794620D01*
X101427534Y-94613662D01*
X101520894Y-94413450D01*
X101578070Y-94200068D01*
X101597323Y-93980000D01*
X101596846Y-93974553D01*
X101589466Y-93890194D01*
X101578070Y-93759932D01*
X101520894Y-93546550D01*
X101427534Y-93346339D01*
X101300826Y-93165380D01*
X101144620Y-93009174D01*
X101144616Y-93009171D01*
X101144615Y-93009170D01*
X100963666Y-92882468D01*
X100963658Y-92882464D01*
X100834811Y-92822382D01*
X100782371Y-92776210D01*
X100763219Y-92709017D01*
X100783435Y-92642135D01*
X100834811Y-92597618D01*
X100857178Y-92587188D01*
X100963662Y-92537534D01*
X101144620Y-92410826D01*
X101300826Y-92254620D01*
X101427534Y-92073662D01*
X101520894Y-91873450D01*
X101578070Y-91660068D01*
X101597323Y-91440000D01*
X101578070Y-91219932D01*
X101520894Y-91006550D01*
X101427534Y-90806339D01*
X101337893Y-90678318D01*
X101300827Y-90625381D01*
X101228822Y-90553376D01*
X101144620Y-90469174D01*
X101144616Y-90469171D01*
X101144615Y-90469170D01*
X100963666Y-90342468D01*
X100963658Y-90342464D01*
X100834811Y-90282382D01*
X100782371Y-90236210D01*
X100763219Y-90169017D01*
X100783435Y-90102135D01*
X100834811Y-90057618D01*
X100851746Y-90049721D01*
X100963662Y-89997534D01*
X101144620Y-89870826D01*
X101300826Y-89714620D01*
X101427534Y-89533662D01*
X101520894Y-89333450D01*
X101578070Y-89120068D01*
X101597323Y-88900000D01*
X101596834Y-88894414D01*
X101580860Y-88711826D01*
X101578070Y-88679932D01*
X101520894Y-88466550D01*
X101427534Y-88266339D01*
X101300826Y-88085380D01*
X101144620Y-87929174D01*
X101144616Y-87929171D01*
X101144615Y-87929170D01*
X101028797Y-87848074D01*
X100985172Y-87793497D01*
X100977978Y-87723999D01*
X101009501Y-87661644D01*
X101069730Y-87626230D01*
X101099919Y-87622499D01*
X101139872Y-87622499D01*
X101199483Y-87616091D01*
X101334331Y-87565796D01*
X101449546Y-87479546D01*
X101535796Y-87364331D01*
X101586091Y-87229483D01*
X101592500Y-87169873D01*
X101592499Y-85971699D01*
X101612184Y-85904661D01*
X101664987Y-85858906D01*
X101734146Y-85848962D01*
X101797702Y-85877987D01*
X101804180Y-85884019D01*
X101952181Y-86032020D01*
X101985666Y-86093343D01*
X101988500Y-86119701D01*
X101988500Y-88989370D01*
X102016458Y-89165894D01*
X102054763Y-89283783D01*
X102054763Y-89283784D01*
X102071688Y-89335876D01*
X102152833Y-89495132D01*
X102217913Y-89584706D01*
X102217912Y-89584706D01*
X102257884Y-89639721D01*
X102257891Y-89639730D01*
X113890181Y-101272020D01*
X113923666Y-101333343D01*
X113926500Y-101359701D01*
X113926500Y-120845370D01*
X113954458Y-121021894D01*
X113981585Y-121105380D01*
X114009692Y-121191885D01*
X114090833Y-121351132D01*
X114154212Y-121438365D01*
X114154211Y-121438365D01*
X114195884Y-121495721D01*
X114195891Y-121495730D01*
X115755097Y-123054937D01*
X115787190Y-123110522D01*
X115803260Y-123170495D01*
X115899431Y-123376732D01*
X115899432Y-123376734D01*
X116029954Y-123563141D01*
X116190858Y-123724045D01*
X116190861Y-123724047D01*
X116377266Y-123854568D01*
X116487888Y-123906152D01*
X116540326Y-123952323D01*
X116559478Y-124019517D01*
X116539262Y-124086398D01*
X116523165Y-124106213D01*
X116493263Y-124136115D01*
X116493261Y-124136118D01*
X116417644Y-124249287D01*
X116417642Y-124249290D01*
X116365556Y-124375038D01*
X116365553Y-124375048D01*
X116339000Y-124508539D01*
X116339000Y-124603674D01*
X116319315Y-124670713D01*
X116286124Y-124705249D01*
X116190863Y-124771951D01*
X116029951Y-124932862D01*
X115899432Y-125119265D01*
X115899431Y-125119267D01*
X115803261Y-125325502D01*
X115803258Y-125325511D01*
X115744366Y-125545302D01*
X115744364Y-125545313D01*
X115724532Y-125771998D01*
X115724532Y-125772001D01*
X115744364Y-125998686D01*
X115744366Y-125998697D01*
X115803258Y-126218488D01*
X115803261Y-126218497D01*
X115899431Y-126424732D01*
X115899432Y-126424734D01*
X116029954Y-126611141D01*
X116190858Y-126772045D01*
X116190861Y-126772047D01*
X116377266Y-126902568D01*
X116583504Y-126998739D01*
X116803308Y-127057635D01*
X116965230Y-127071801D01*
X117029998Y-127077468D01*
X117030000Y-127077468D01*
X117030002Y-127077468D01*
X117086673Y-127072509D01*
X117256692Y-127057635D01*
X117476496Y-126998739D01*
X117682734Y-126902568D01*
X117869139Y-126772047D01*
X118030047Y-126611139D01*
X118160568Y-126424734D01*
X118256739Y-126218496D01*
X118315635Y-125998692D01*
X118335468Y-125772000D01*
X118315635Y-125545308D01*
X118291705Y-125455998D01*
X128488532Y-125455998D01*
X128488532Y-125456001D01*
X128508364Y-125682686D01*
X128508366Y-125682697D01*
X128567258Y-125902488D01*
X128567260Y-125902492D01*
X128567261Y-125902496D01*
X128605266Y-125983998D01*
X128626062Y-126028595D01*
X128636554Y-126097673D01*
X128626062Y-126133405D01*
X128567262Y-126259502D01*
X128567258Y-126259511D01*
X128508366Y-126479302D01*
X128508364Y-126479313D01*
X128488532Y-126705998D01*
X128488532Y-126706001D01*
X128508364Y-126932686D01*
X128508366Y-126932697D01*
X128567258Y-127152488D01*
X128567261Y-127152497D01*
X128663431Y-127358732D01*
X128663432Y-127358734D01*
X128793954Y-127545141D01*
X128954858Y-127706045D01*
X128954861Y-127706047D01*
X129141266Y-127836568D01*
X129347504Y-127932739D01*
X129567308Y-127991635D01*
X129729230Y-128005801D01*
X129793998Y-128011468D01*
X129794000Y-128011468D01*
X129794002Y-128011468D01*
X129850673Y-128006509D01*
X130020692Y-127991635D01*
X130240496Y-127932739D01*
X130446734Y-127836568D01*
X130633139Y-127706047D01*
X130794047Y-127545139D01*
X130924568Y-127358734D01*
X131020739Y-127152496D01*
X131079635Y-126932692D01*
X131099468Y-126706000D01*
X131079635Y-126479308D01*
X131020739Y-126259504D01*
X130961936Y-126133404D01*
X130951445Y-126064328D01*
X130961937Y-126028595D01*
X130973230Y-126004377D01*
X131020739Y-125902496D01*
X131079635Y-125682692D01*
X131099468Y-125456000D01*
X131079635Y-125229308D01*
X131020739Y-125009504D01*
X130924568Y-124803266D01*
X130794047Y-124616861D01*
X130794045Y-124616858D01*
X130633141Y-124455954D01*
X130446734Y-124325432D01*
X130446730Y-124325430D01*
X130431022Y-124318105D01*
X130378583Y-124271931D01*
X130359433Y-124204737D01*
X130379650Y-124137857D01*
X130431028Y-124093340D01*
X130446481Y-124086134D01*
X130519471Y-124035024D01*
X129840447Y-123356000D01*
X129846661Y-123356000D01*
X129948394Y-123328741D01*
X130039606Y-123276080D01*
X130114080Y-123201606D01*
X130166741Y-123110394D01*
X130194000Y-123008661D01*
X130194000Y-123002447D01*
X130873024Y-123681471D01*
X130924136Y-123608478D01*
X131020264Y-123402331D01*
X131020269Y-123402317D01*
X131079139Y-123182610D01*
X131079141Y-123182599D01*
X131098966Y-122956000D01*
X131098966Y-122955997D01*
X131079141Y-122729400D01*
X131079139Y-122729389D01*
X131020269Y-122509682D01*
X131020266Y-122509673D01*
X130961385Y-122383405D01*
X130950893Y-122314328D01*
X130961385Y-122278595D01*
X131020266Y-122152326D01*
X131020269Y-122152317D01*
X131079139Y-121932610D01*
X131079141Y-121932599D01*
X131098966Y-121706000D01*
X131098966Y-121705997D01*
X131079141Y-121479400D01*
X131079139Y-121479389D01*
X131020269Y-121259682D01*
X131020264Y-121259668D01*
X130924136Y-121053521D01*
X130924132Y-121053513D01*
X130873025Y-120980526D01*
X130194000Y-121659551D01*
X130194000Y-121653339D01*
X130166741Y-121551606D01*
X130114080Y-121460394D01*
X130039606Y-121385920D01*
X129948394Y-121333259D01*
X129846661Y-121306000D01*
X129840445Y-121306000D01*
X130519472Y-120626974D01*
X130446478Y-120575863D01*
X130240331Y-120479735D01*
X130240317Y-120479730D01*
X130020610Y-120420860D01*
X130020599Y-120420858D01*
X129794002Y-120401034D01*
X129793998Y-120401034D01*
X129567400Y-120420858D01*
X129567389Y-120420860D01*
X129347682Y-120479730D01*
X129347673Y-120479734D01*
X129141516Y-120575866D01*
X129141512Y-120575868D01*
X129068526Y-120626973D01*
X129068526Y-120626974D01*
X129747553Y-121306000D01*
X129741339Y-121306000D01*
X129639606Y-121333259D01*
X129548394Y-121385920D01*
X129473920Y-121460394D01*
X129421259Y-121551606D01*
X129394000Y-121653339D01*
X129394000Y-121659552D01*
X128714974Y-120980526D01*
X128714973Y-120980526D01*
X128663868Y-121053512D01*
X128663866Y-121053516D01*
X128567734Y-121259673D01*
X128567730Y-121259682D01*
X128508860Y-121479389D01*
X128508858Y-121479400D01*
X128489034Y-121705997D01*
X128489034Y-121706000D01*
X128508858Y-121932599D01*
X128508860Y-121932610D01*
X128567730Y-122152317D01*
X128567735Y-122152331D01*
X128626613Y-122278596D01*
X128637105Y-122347673D01*
X128626613Y-122383404D01*
X128567735Y-122509668D01*
X128567730Y-122509682D01*
X128508860Y-122729389D01*
X128508858Y-122729400D01*
X128489034Y-122955997D01*
X128489034Y-122956000D01*
X128508858Y-123182599D01*
X128508860Y-123182610D01*
X128567730Y-123402317D01*
X128567735Y-123402331D01*
X128663863Y-123608478D01*
X128714974Y-123681472D01*
X129394000Y-123002446D01*
X129394000Y-123008661D01*
X129421259Y-123110394D01*
X129473920Y-123201606D01*
X129548394Y-123276080D01*
X129639606Y-123328741D01*
X129741339Y-123356000D01*
X129747553Y-123356000D01*
X129068526Y-124035025D01*
X129141513Y-124086132D01*
X129141515Y-124086133D01*
X129156973Y-124093341D01*
X129209413Y-124139513D01*
X129228566Y-124206706D01*
X129208351Y-124273587D01*
X129156979Y-124318104D01*
X129141270Y-124325429D01*
X129141265Y-124325432D01*
X128954858Y-124455954D01*
X128793954Y-124616858D01*
X128663432Y-124803265D01*
X128663431Y-124803267D01*
X128567261Y-125009502D01*
X128567258Y-125009511D01*
X128508366Y-125229302D01*
X128508364Y-125229313D01*
X128488532Y-125455998D01*
X118291705Y-125455998D01*
X118256739Y-125325504D01*
X118160568Y-125119266D01*
X118030047Y-124932861D01*
X118030045Y-124932858D01*
X117928185Y-124830998D01*
X117894700Y-124769675D01*
X117899684Y-124699983D01*
X117928185Y-124655636D01*
X118762132Y-123821689D01*
X118762135Y-123821686D01*
X118837756Y-123708511D01*
X118889845Y-123582757D01*
X118899014Y-123536661D01*
X118916400Y-123449259D01*
X118916400Y-120504182D01*
X118936085Y-120437143D01*
X118952714Y-120416506D01*
X124446879Y-114922340D01*
X124508200Y-114888857D01*
X124577892Y-114893841D01*
X124633825Y-114935713D01*
X124636132Y-114938898D01*
X124665963Y-114981501D01*
X124759174Y-115114620D01*
X124915378Y-115270824D01*
X124915384Y-115270829D01*
X125096333Y-115397531D01*
X125096335Y-115397532D01*
X125096338Y-115397534D01*
X125198342Y-115445099D01*
X125225189Y-115457618D01*
X125277628Y-115503790D01*
X125296780Y-115570984D01*
X125276564Y-115637865D01*
X125225189Y-115682382D01*
X125096340Y-115742465D01*
X125096338Y-115742466D01*
X124915377Y-115869175D01*
X124759175Y-116025377D01*
X124632466Y-116206338D01*
X124632465Y-116206340D01*
X124539107Y-116406548D01*
X124539104Y-116406554D01*
X124481930Y-116619929D01*
X124481929Y-116619937D01*
X124462677Y-116839997D01*
X124462677Y-116840002D01*
X124481929Y-117060062D01*
X124481930Y-117060070D01*
X124539104Y-117273445D01*
X124539105Y-117273447D01*
X124539106Y-117273450D01*
X124601204Y-117406620D01*
X124632466Y-117473662D01*
X124632468Y-117473666D01*
X124759170Y-117654615D01*
X124759175Y-117654621D01*
X124915378Y-117810824D01*
X124915384Y-117810829D01*
X125096333Y-117937531D01*
X125096335Y-117937532D01*
X125096338Y-117937534D01*
X125176129Y-117974741D01*
X125225781Y-117997894D01*
X125278220Y-118044066D01*
X125297372Y-118111260D01*
X125277156Y-118178141D01*
X125225781Y-118222658D01*
X125096590Y-118282901D01*
X125031811Y-118328258D01*
X125702554Y-118999000D01*
X125679840Y-118999000D01*
X125582939Y-119024964D01*
X125496060Y-119075124D01*
X125425124Y-119146060D01*
X125374964Y-119232939D01*
X125349000Y-119329840D01*
X125349000Y-119352553D01*
X124678258Y-118681811D01*
X124632901Y-118746590D01*
X124539579Y-118946720D01*
X124539575Y-118946729D01*
X124482426Y-119160013D01*
X124482424Y-119160023D01*
X124463179Y-119379999D01*
X124463179Y-119380000D01*
X124482424Y-119599976D01*
X124482426Y-119599986D01*
X124539575Y-119813270D01*
X124539580Y-119813284D01*
X124632898Y-120013405D01*
X124632901Y-120013411D01*
X124678258Y-120078187D01*
X124678258Y-120078188D01*
X125349000Y-119407446D01*
X125349000Y-119430160D01*
X125374964Y-119527061D01*
X125425124Y-119613940D01*
X125496060Y-119684876D01*
X125582939Y-119735036D01*
X125679840Y-119761000D01*
X125702553Y-119761000D01*
X125031810Y-120431740D01*
X125096589Y-120477098D01*
X125225781Y-120537342D01*
X125278220Y-120583514D01*
X125297372Y-120650708D01*
X125277156Y-120717589D01*
X125225781Y-120762106D01*
X125096340Y-120822465D01*
X125096338Y-120822466D01*
X124915377Y-120949175D01*
X124759175Y-121105377D01*
X124632466Y-121286338D01*
X124632465Y-121286340D01*
X124539107Y-121486548D01*
X124539104Y-121486554D01*
X124481930Y-121699929D01*
X124481929Y-121699937D01*
X124462677Y-121919997D01*
X124462677Y-121920002D01*
X124481929Y-122140062D01*
X124481930Y-122140070D01*
X124539104Y-122353445D01*
X124539105Y-122353447D01*
X124539106Y-122353450D01*
X124597933Y-122479606D01*
X124632466Y-122553662D01*
X124632468Y-122553666D01*
X124759170Y-122734615D01*
X124759175Y-122734621D01*
X124915378Y-122890824D01*
X124915384Y-122890829D01*
X125096333Y-123017531D01*
X125096335Y-123017532D01*
X125096338Y-123017534D01*
X125296550Y-123110894D01*
X125509932Y-123168070D01*
X125667123Y-123181822D01*
X125729998Y-123187323D01*
X125730000Y-123187323D01*
X125730002Y-123187323D01*
X125785017Y-123182509D01*
X125950068Y-123168070D01*
X126163450Y-123110894D01*
X126363662Y-123017534D01*
X126544620Y-122890826D01*
X126700826Y-122734620D01*
X126827534Y-122553662D01*
X126920894Y-122353450D01*
X126978070Y-122140068D01*
X126997323Y-121920000D01*
X126997322Y-121919994D01*
X126987561Y-121808417D01*
X126978070Y-121699932D01*
X126920894Y-121486550D01*
X126827534Y-121286339D01*
X126700826Y-121105380D01*
X126544620Y-120949174D01*
X126544616Y-120949171D01*
X126544615Y-120949170D01*
X126363666Y-120822468D01*
X126363662Y-120822466D01*
X126234218Y-120762105D01*
X126181779Y-120715932D01*
X126162627Y-120648739D01*
X126182843Y-120581858D01*
X126234219Y-120537340D01*
X126363416Y-120477095D01*
X126363417Y-120477094D01*
X126428188Y-120431741D01*
X125757448Y-119761000D01*
X125780160Y-119761000D01*
X125877061Y-119735036D01*
X125963940Y-119684876D01*
X126034876Y-119613940D01*
X126085036Y-119527061D01*
X126111000Y-119430160D01*
X126111000Y-119407447D01*
X126781741Y-120078188D01*
X126827094Y-120013417D01*
X126827100Y-120013407D01*
X126920419Y-119813284D01*
X126920424Y-119813270D01*
X126977573Y-119599986D01*
X126977575Y-119599976D01*
X126996821Y-119380000D01*
X126996821Y-119379999D01*
X126977575Y-119160023D01*
X126977573Y-119160013D01*
X126920424Y-118946729D01*
X126920420Y-118946720D01*
X126827096Y-118746586D01*
X126781741Y-118681811D01*
X126781740Y-118681810D01*
X126111000Y-119352551D01*
X126111000Y-119329840D01*
X126085036Y-119232939D01*
X126034876Y-119146060D01*
X125963940Y-119075124D01*
X125877061Y-119024964D01*
X125780160Y-118999000D01*
X125757447Y-118999000D01*
X126428188Y-118328258D01*
X126363411Y-118282901D01*
X126363405Y-118282898D01*
X126234219Y-118222658D01*
X126181779Y-118176486D01*
X126162627Y-118109293D01*
X126182843Y-118042411D01*
X126234219Y-117997894D01*
X126363662Y-117937534D01*
X126544620Y-117810826D01*
X126700826Y-117654620D01*
X126827534Y-117473662D01*
X126884266Y-117351999D01*
X129023127Y-117351999D01*
X129023128Y-117352000D01*
X129986314Y-117352000D01*
X129981920Y-117356394D01*
X129929259Y-117447606D01*
X129902000Y-117549339D01*
X129902000Y-117654661D01*
X129929259Y-117756394D01*
X129981920Y-117847606D01*
X129986314Y-117852000D01*
X129023128Y-117852000D01*
X129075730Y-118048317D01*
X129075734Y-118048326D01*
X129171865Y-118254482D01*
X129302342Y-118440820D01*
X129463179Y-118601657D01*
X129649517Y-118732134D01*
X129855673Y-118828265D01*
X129855682Y-118828269D01*
X130051999Y-118880872D01*
X130052000Y-118880871D01*
X130052000Y-117917686D01*
X130056394Y-117922080D01*
X130147606Y-117974741D01*
X130249339Y-118002000D01*
X130354661Y-118002000D01*
X130456394Y-117974741D01*
X130547606Y-117922080D01*
X130552000Y-117917686D01*
X130552000Y-118880872D01*
X130748317Y-118828269D01*
X130748326Y-118828265D01*
X130954482Y-118732134D01*
X131140820Y-118601657D01*
X131301657Y-118440820D01*
X131432134Y-118254482D01*
X131528265Y-118048326D01*
X131528269Y-118048317D01*
X131580872Y-117852000D01*
X130617686Y-117852000D01*
X130622080Y-117847606D01*
X130674741Y-117756394D01*
X130702000Y-117654661D01*
X130702000Y-117549339D01*
X130674741Y-117447606D01*
X130622080Y-117356394D01*
X130617686Y-117352000D01*
X131580872Y-117352000D01*
X131580872Y-117351999D01*
X131528269Y-117155682D01*
X131528265Y-117155673D01*
X131432134Y-116949517D01*
X131301657Y-116763179D01*
X131140820Y-116602342D01*
X130954482Y-116471865D01*
X130748328Y-116375734D01*
X130552000Y-116323127D01*
X130552000Y-117286314D01*
X130547606Y-117281920D01*
X130456394Y-117229259D01*
X130354661Y-117202000D01*
X130249339Y-117202000D01*
X130147606Y-117229259D01*
X130056394Y-117281920D01*
X130052000Y-117286314D01*
X130052000Y-116323127D01*
X129855671Y-116375734D01*
X129649517Y-116471865D01*
X129463179Y-116602342D01*
X129302342Y-116763179D01*
X129171865Y-116949517D01*
X129075734Y-117155673D01*
X129075730Y-117155682D01*
X129023127Y-117351999D01*
X126884266Y-117351999D01*
X126920894Y-117273450D01*
X126978070Y-117060068D01*
X126997323Y-116840000D01*
X126996429Y-116829786D01*
X126986528Y-116716611D01*
X126978070Y-116619932D01*
X126920894Y-116406550D01*
X126827534Y-116206339D01*
X126755230Y-116103078D01*
X126700827Y-116025381D01*
X126623242Y-115947796D01*
X126544620Y-115869174D01*
X126544616Y-115869171D01*
X126544615Y-115869170D01*
X126363666Y-115742468D01*
X126363658Y-115742464D01*
X126234811Y-115682382D01*
X126182371Y-115636210D01*
X126163219Y-115569017D01*
X126183435Y-115502135D01*
X126234811Y-115457618D01*
X126261658Y-115445099D01*
X126363662Y-115397534D01*
X126544620Y-115270826D01*
X126700826Y-115114620D01*
X126827534Y-114933662D01*
X126920894Y-114733450D01*
X126978070Y-114520068D01*
X126997323Y-114300000D01*
X126994762Y-114270732D01*
X126978070Y-114079937D01*
X126978070Y-114079932D01*
X126920894Y-113866550D01*
X126827534Y-113666339D01*
X126737818Y-113538211D01*
X126715492Y-113472006D01*
X126732502Y-113404239D01*
X126751709Y-113379412D01*
X127433635Y-112697487D01*
X127509256Y-112584311D01*
X127561345Y-112458557D01*
X127569483Y-112417644D01*
X127574253Y-112393666D01*
X127587900Y-112325060D01*
X127587900Y-109981998D01*
X128996532Y-109981998D01*
X128996532Y-109982001D01*
X129016364Y-110208686D01*
X129016366Y-110208697D01*
X129075258Y-110428488D01*
X129075261Y-110428497D01*
X129171431Y-110634732D01*
X129171432Y-110634734D01*
X129301954Y-110821141D01*
X129462858Y-110982045D01*
X129462861Y-110982047D01*
X129649266Y-111112568D01*
X129855504Y-111208739D01*
X130075308Y-111267635D01*
X130237230Y-111281801D01*
X130301998Y-111287468D01*
X130302000Y-111287468D01*
X130302002Y-111287468D01*
X130358673Y-111282509D01*
X130528692Y-111267635D01*
X130748496Y-111208739D01*
X130954734Y-111112568D01*
X131141139Y-110982047D01*
X131302047Y-110821139D01*
X131432568Y-110634734D01*
X131528739Y-110428496D01*
X131587635Y-110208692D01*
X131607468Y-109982000D01*
X131605874Y-109963786D01*
X131587635Y-109755313D01*
X131587635Y-109755308D01*
X131528739Y-109535504D01*
X131432568Y-109329266D01*
X131327634Y-109179403D01*
X131302048Y-109142862D01*
X131287526Y-109128340D01*
X131141139Y-108981953D01*
X131045876Y-108915249D01*
X131002251Y-108860672D01*
X130993000Y-108813674D01*
X130993000Y-108083499D01*
X131012685Y-108016460D01*
X131065489Y-107970705D01*
X131117000Y-107959499D01*
X132272671Y-107959499D01*
X132272672Y-107959499D01*
X132332283Y-107953091D01*
X132467131Y-107902796D01*
X132582346Y-107816546D01*
X132668596Y-107701331D01*
X132718891Y-107566483D01*
X132725300Y-107506873D01*
X132725299Y-107045681D01*
X132744983Y-106978644D01*
X132797787Y-106932889D01*
X132866946Y-106922945D01*
X132930502Y-106951970D01*
X132936980Y-106958002D01*
X133835381Y-107856402D01*
X133868866Y-107917725D01*
X133871700Y-107944083D01*
X133871700Y-108613811D01*
X133852015Y-108680850D01*
X133799211Y-108726605D01*
X133730053Y-108736549D01*
X133715607Y-108733586D01*
X133576697Y-108696366D01*
X133576693Y-108696365D01*
X133576692Y-108696365D01*
X133576691Y-108696364D01*
X133576686Y-108696364D01*
X133350002Y-108676532D01*
X133349998Y-108676532D01*
X133123313Y-108696364D01*
X133123302Y-108696366D01*
X132903511Y-108755258D01*
X132903502Y-108755261D01*
X132697267Y-108851431D01*
X132697265Y-108851432D01*
X132510858Y-108981954D01*
X132349954Y-109142858D01*
X132219432Y-109329265D01*
X132219431Y-109329267D01*
X132123261Y-109535502D01*
X132123258Y-109535511D01*
X132064366Y-109755302D01*
X132064364Y-109755313D01*
X132044532Y-109981998D01*
X132044532Y-109982001D01*
X132064364Y-110208686D01*
X132064366Y-110208697D01*
X132123258Y-110428488D01*
X132123261Y-110428497D01*
X132219431Y-110634732D01*
X132219432Y-110634734D01*
X132349954Y-110821141D01*
X132510858Y-110982045D01*
X132510861Y-110982047D01*
X132697266Y-111112568D01*
X132903504Y-111208739D01*
X133123308Y-111267635D01*
X133285230Y-111281801D01*
X133349998Y-111287468D01*
X133350000Y-111287468D01*
X133350002Y-111287468D01*
X133406673Y-111282509D01*
X133576692Y-111267635D01*
X133715607Y-111230413D01*
X133785457Y-111232076D01*
X133843319Y-111271239D01*
X133870823Y-111335467D01*
X133871700Y-111350188D01*
X133871700Y-116051715D01*
X133852015Y-116118754D01*
X133835381Y-116139397D01*
X133691765Y-116283012D01*
X133630442Y-116316496D01*
X133582363Y-116315383D01*
X133582025Y-116317306D01*
X133576686Y-116316364D01*
X133350001Y-116296532D01*
X133349998Y-116296532D01*
X133123313Y-116316364D01*
X133123302Y-116316366D01*
X132903511Y-116375258D01*
X132903502Y-116375261D01*
X132697267Y-116471431D01*
X132697265Y-116471432D01*
X132510858Y-116601954D01*
X132349954Y-116762858D01*
X132219432Y-116949265D01*
X132219431Y-116949267D01*
X132123261Y-117155502D01*
X132123258Y-117155511D01*
X132064366Y-117375302D01*
X132064364Y-117375313D01*
X132044532Y-117601998D01*
X132044532Y-117602001D01*
X132064364Y-117828686D01*
X132064366Y-117828697D01*
X132123258Y-118048488D01*
X132123261Y-118048497D01*
X132219431Y-118254732D01*
X132219432Y-118254734D01*
X132349954Y-118441141D01*
X132510858Y-118602045D01*
X132510861Y-118602047D01*
X132697266Y-118732568D01*
X132903504Y-118828739D01*
X132903509Y-118828740D01*
X132903511Y-118828741D01*
X132933816Y-118836861D01*
X133123308Y-118887635D01*
X133285230Y-118901801D01*
X133349998Y-118907468D01*
X133350000Y-118907468D01*
X133350002Y-118907468D01*
X133406673Y-118902509D01*
X133576692Y-118887635D01*
X133796496Y-118828739D01*
X134002734Y-118732568D01*
X134189139Y-118602047D01*
X134350047Y-118441139D01*
X134480568Y-118254734D01*
X134576739Y-118048496D01*
X134635635Y-117828692D01*
X134655468Y-117602000D01*
X134635635Y-117375308D01*
X134635632Y-117375298D01*
X134634694Y-117369974D01*
X134637142Y-117369542D01*
X134638558Y-117310155D01*
X134668988Y-117260233D01*
X135099432Y-116829789D01*
X135099435Y-116829786D01*
X135175056Y-116716611D01*
X135227145Y-116590857D01*
X135249233Y-116479814D01*
X135253700Y-116457359D01*
X135253700Y-107538439D01*
X135227146Y-107404948D01*
X135227145Y-107404947D01*
X135227145Y-107404943D01*
X135181735Y-107295313D01*
X135175058Y-107279193D01*
X135175057Y-107279191D01*
X135146572Y-107236560D01*
X135146572Y-107236559D01*
X135146570Y-107236558D01*
X135099435Y-107166014D01*
X135099432Y-107166010D01*
X133060692Y-105127269D01*
X133060685Y-105127263D01*
X132947512Y-105051644D01*
X132947509Y-105051642D01*
X132821761Y-104999556D01*
X132821751Y-104999553D01*
X132727158Y-104980737D01*
X132665247Y-104948352D01*
X132630673Y-104887636D01*
X132634414Y-104817866D01*
X132636780Y-104811688D01*
X132685891Y-104693127D01*
X132725300Y-104495003D01*
X132725300Y-104292997D01*
X132685891Y-104094873D01*
X132608586Y-103908244D01*
X132608584Y-103908241D01*
X132608582Y-103908237D01*
X132496358Y-103740281D01*
X132353518Y-103597441D01*
X132185562Y-103485217D01*
X132185552Y-103485212D01*
X131998927Y-103407909D01*
X131998919Y-103407907D01*
X131800807Y-103368500D01*
X131800803Y-103368500D01*
X131148797Y-103368500D01*
X131148792Y-103368500D01*
X130950680Y-103407907D01*
X130950672Y-103407909D01*
X130764047Y-103485212D01*
X130764037Y-103485217D01*
X130596083Y-103597440D01*
X130561463Y-103632060D01*
X130526841Y-103666682D01*
X130465521Y-103700166D01*
X130439162Y-103703000D01*
X130261340Y-103703000D01*
X130152474Y-103724655D01*
X130127848Y-103729553D01*
X130127838Y-103729556D01*
X130002094Y-103781640D01*
X130002081Y-103781647D01*
X129888913Y-103857264D01*
X129888909Y-103857267D01*
X129765266Y-103980910D01*
X129707951Y-104066688D01*
X129707952Y-104066689D01*
X129689642Y-104094092D01*
X129637556Y-104219838D01*
X129637553Y-104219848D01*
X129611000Y-104353339D01*
X129611000Y-108813674D01*
X129591315Y-108880713D01*
X129558124Y-108915249D01*
X129462863Y-108981951D01*
X129301951Y-109142862D01*
X129171432Y-109329265D01*
X129171431Y-109329267D01*
X129075261Y-109535502D01*
X129075258Y-109535511D01*
X129016366Y-109755302D01*
X129016364Y-109755313D01*
X128996532Y-109981998D01*
X127587900Y-109981998D01*
X127587900Y-103601939D01*
X127561346Y-103468449D01*
X127561345Y-103468443D01*
X127519948Y-103368500D01*
X127509256Y-103342688D01*
X127433635Y-103229513D01*
X127433633Y-103229510D01*
X127433632Y-103229509D01*
X126740594Y-102536472D01*
X126707109Y-102475149D01*
X126712093Y-102405458D01*
X126726697Y-102377671D01*
X126827534Y-102233662D01*
X126920894Y-102033450D01*
X126978070Y-101820068D01*
X126992509Y-101655017D01*
X126997323Y-101600002D01*
X126997323Y-101599997D01*
X126988927Y-101504032D01*
X126978070Y-101379932D01*
X126920894Y-101166550D01*
X126827534Y-100966339D01*
X126708570Y-100796439D01*
X126700827Y-100785381D01*
X126650562Y-100735116D01*
X126544620Y-100629174D01*
X126544616Y-100629171D01*
X126544615Y-100629170D01*
X126363666Y-100502468D01*
X126363658Y-100502464D01*
X126234811Y-100442382D01*
X126182371Y-100396210D01*
X126163219Y-100329017D01*
X126183435Y-100262135D01*
X126234811Y-100217618D01*
X126255896Y-100207786D01*
X126363662Y-100157534D01*
X126544620Y-100030826D01*
X126700826Y-99874620D01*
X126827534Y-99693662D01*
X126920894Y-99493450D01*
X126978070Y-99280068D01*
X126997323Y-99060000D01*
X126992734Y-99007551D01*
X126988927Y-98964035D01*
X126978070Y-98839932D01*
X126920894Y-98626550D01*
X126827534Y-98426339D01*
X126737598Y-98297896D01*
X126700827Y-98245381D01*
X126628036Y-98172590D01*
X126544620Y-98089174D01*
X126544616Y-98089171D01*
X126544615Y-98089170D01*
X126363666Y-97962468D01*
X126363658Y-97962464D01*
X126234811Y-97902382D01*
X126182371Y-97856210D01*
X126163219Y-97789017D01*
X126183435Y-97722135D01*
X126234811Y-97677618D01*
X126240802Y-97674824D01*
X126363662Y-97617534D01*
X126544620Y-97490826D01*
X126700826Y-97334620D01*
X126827534Y-97153662D01*
X126920894Y-96953450D01*
X126978070Y-96740068D01*
X126995241Y-96543796D01*
X126997323Y-96520002D01*
X126997323Y-96519997D01*
X126988410Y-96418119D01*
X126978070Y-96299932D01*
X126920894Y-96086550D01*
X126827534Y-95886339D01*
X126700826Y-95705380D01*
X126544620Y-95549174D01*
X126544616Y-95549171D01*
X126544615Y-95549170D01*
X126363666Y-95422468D01*
X126363658Y-95422464D01*
X126234811Y-95362382D01*
X126182371Y-95316210D01*
X126163219Y-95249017D01*
X126183435Y-95182135D01*
X126234811Y-95137618D01*
X126259726Y-95126000D01*
X126363662Y-95077534D01*
X126544620Y-94950826D01*
X126700826Y-94794620D01*
X126827534Y-94613662D01*
X126920894Y-94413450D01*
X126978070Y-94200068D01*
X126997323Y-93980000D01*
X126997323Y-93979997D01*
X126997795Y-93974607D01*
X126999997Y-93974799D01*
X127017008Y-93916868D01*
X127069812Y-93871113D01*
X127138970Y-93861169D01*
X127202526Y-93890194D01*
X127209004Y-93896226D01*
X128304681Y-94991903D01*
X128338166Y-95053226D01*
X128341000Y-95079584D01*
X128341000Y-98737943D01*
X128341000Y-98874057D01*
X128341000Y-98874059D01*
X128340999Y-98874059D01*
X128367553Y-99007551D01*
X128367556Y-99007561D01*
X128419642Y-99133309D01*
X128419644Y-99133312D01*
X128495263Y-99246485D01*
X128495269Y-99246492D01*
X130030081Y-100781303D01*
X130054782Y-100816579D01*
X130143964Y-101007829D01*
X130143965Y-101007831D01*
X130204175Y-101093819D01*
X130279505Y-101201401D01*
X130446599Y-101368495D01*
X130462933Y-101379932D01*
X130640165Y-101504032D01*
X130640167Y-101504033D01*
X130640170Y-101504035D01*
X130854337Y-101603903D01*
X131082592Y-101665063D01*
X131270918Y-101681539D01*
X131317999Y-101685659D01*
X131318000Y-101685659D01*
X131318001Y-101685659D01*
X131357234Y-101682226D01*
X131553408Y-101665063D01*
X131781663Y-101603903D01*
X131995830Y-101504035D01*
X132189401Y-101368495D01*
X132356495Y-101201401D01*
X132486425Y-101015842D01*
X132541002Y-100972217D01*
X132610500Y-100965023D01*
X132672855Y-100996546D01*
X132689575Y-101015842D01*
X132819500Y-101201395D01*
X132819505Y-101201401D01*
X132986599Y-101368495D01*
X133002933Y-101379932D01*
X133180165Y-101504032D01*
X133180167Y-101504033D01*
X133180170Y-101504035D01*
X133394337Y-101603903D01*
X133622592Y-101665063D01*
X133810918Y-101681539D01*
X133857999Y-101685659D01*
X133858000Y-101685659D01*
X133858001Y-101685659D01*
X133897234Y-101682226D01*
X134093408Y-101665063D01*
X134321663Y-101603903D01*
X134535830Y-101504035D01*
X134729401Y-101368495D01*
X134896495Y-101201401D01*
X135032035Y-101007830D01*
X135131903Y-100793663D01*
X135193063Y-100565408D01*
X135207145Y-100404448D01*
X135232597Y-100339381D01*
X135289188Y-100298402D01*
X135358950Y-100294524D01*
X135418354Y-100327576D01*
X135695281Y-100604503D01*
X135728766Y-100665826D01*
X135731600Y-100692184D01*
X135731600Y-111233143D01*
X135731600Y-111369257D01*
X135731600Y-111369259D01*
X135731599Y-111369259D01*
X135758153Y-111502751D01*
X135758156Y-111502761D01*
X135810242Y-111628509D01*
X135810244Y-111628512D01*
X135885863Y-111741685D01*
X135885869Y-111741692D01*
X136759460Y-112615281D01*
X136792945Y-112676604D01*
X136787961Y-112746295D01*
X136759460Y-112790643D01*
X136629505Y-112920597D01*
X136493965Y-113114169D01*
X136493964Y-113114171D01*
X136394098Y-113328335D01*
X136394094Y-113328344D01*
X136332938Y-113556586D01*
X136332936Y-113556596D01*
X136312341Y-113791999D01*
X136312341Y-113792000D01*
X136332936Y-114027403D01*
X136332938Y-114027413D01*
X136394094Y-114255655D01*
X136394096Y-114255659D01*
X136394097Y-114255663D01*
X136488047Y-114457139D01*
X136493965Y-114469830D01*
X136493967Y-114469834D01*
X136629501Y-114663395D01*
X136629506Y-114663402D01*
X136751430Y-114785326D01*
X136784915Y-114846649D01*
X136779931Y-114916341D01*
X136738059Y-114972274D01*
X136707083Y-114989189D01*
X136575669Y-115038203D01*
X136575664Y-115038206D01*
X136460455Y-115124452D01*
X136460452Y-115124455D01*
X136374206Y-115239664D01*
X136374202Y-115239671D01*
X136323908Y-115374517D01*
X136317501Y-115434116D01*
X136317500Y-115434135D01*
X136317500Y-117229870D01*
X136317501Y-117229876D01*
X136323908Y-117289483D01*
X136374202Y-117424328D01*
X136374206Y-117424335D01*
X136460452Y-117539544D01*
X136460455Y-117539547D01*
X136575664Y-117625793D01*
X136575671Y-117625797D01*
X136710517Y-117676091D01*
X136710516Y-117676091D01*
X136717444Y-117676835D01*
X136770127Y-117682500D01*
X138099100Y-117682499D01*
X138166139Y-117702184D01*
X138211894Y-117754987D01*
X138223100Y-117806499D01*
X138223100Y-119992695D01*
X138203415Y-120059734D01*
X138150611Y-120105489D01*
X138081453Y-120115433D01*
X138022939Y-120090549D01*
X137983236Y-120059648D01*
X137983228Y-120059642D01*
X137764614Y-119941335D01*
X137764603Y-119941330D01*
X137529493Y-119860616D01*
X137284293Y-119819700D01*
X137035707Y-119819700D01*
X136790506Y-119860616D01*
X136555396Y-119941330D01*
X136555385Y-119941335D01*
X136336770Y-120059643D01*
X136289943Y-120096089D01*
X137030591Y-120836737D01*
X136967007Y-120853775D01*
X136852993Y-120919601D01*
X136759901Y-121012693D01*
X136694075Y-121126707D01*
X136677037Y-121190291D01*
X135936563Y-120449817D01*
X135836267Y-120603333D01*
X135836265Y-120603337D01*
X135736412Y-120830982D01*
X135675387Y-121071961D01*
X135675385Y-121071970D01*
X135654859Y-121319694D01*
X135654859Y-121319705D01*
X135675385Y-121567429D01*
X135675387Y-121567438D01*
X135736412Y-121808417D01*
X135836267Y-122036067D01*
X135936562Y-122189581D01*
X136677037Y-121449108D01*
X136694075Y-121512693D01*
X136759901Y-121626707D01*
X136852993Y-121719799D01*
X136967007Y-121785625D01*
X137030589Y-121802662D01*
X136289943Y-122543309D01*
X136336768Y-122579755D01*
X136336771Y-122579757D01*
X136555385Y-122698064D01*
X136555396Y-122698069D01*
X136790506Y-122778783D01*
X137035707Y-122819700D01*
X137284293Y-122819700D01*
X137529493Y-122778783D01*
X137764603Y-122698069D01*
X137764614Y-122698064D01*
X137983228Y-122579757D01*
X137983231Y-122579755D01*
X138022937Y-122548851D01*
X138087931Y-122523208D01*
X138156471Y-122536774D01*
X138206796Y-122585242D01*
X138223100Y-122646704D01*
X138223100Y-122832615D01*
X138203415Y-122899654D01*
X138186781Y-122920296D01*
X136623269Y-124483807D01*
X136623263Y-124483814D01*
X136575366Y-124555499D01*
X136575366Y-124555500D01*
X136570339Y-124563024D01*
X136547644Y-124596988D01*
X136547640Y-124596995D01*
X136495556Y-124722738D01*
X136493786Y-124728575D01*
X136491743Y-124727955D01*
X136463828Y-124781311D01*
X136403109Y-124815879D01*
X136374604Y-124819200D01*
X136112130Y-124819200D01*
X136112123Y-124819201D01*
X136052516Y-124825608D01*
X135917671Y-124875902D01*
X135917664Y-124875906D01*
X135802455Y-124962152D01*
X135802452Y-124962155D01*
X135716206Y-125077364D01*
X135716202Y-125077371D01*
X135665908Y-125212217D01*
X135659501Y-125271816D01*
X135659501Y-125271823D01*
X135659500Y-125271835D01*
X135659500Y-127367570D01*
X135659501Y-127367576D01*
X135665908Y-127427183D01*
X135716202Y-127562028D01*
X135716206Y-127562035D01*
X135802452Y-127677244D01*
X135802455Y-127677247D01*
X135917664Y-127763493D01*
X135917671Y-127763497D01*
X136052517Y-127813791D01*
X136052516Y-127813791D01*
X136059444Y-127814535D01*
X136112127Y-127820200D01*
X138207872Y-127820199D01*
X138267483Y-127813791D01*
X138402331Y-127763496D01*
X138517546Y-127677246D01*
X138603796Y-127562031D01*
X138654091Y-127427183D01*
X138660500Y-127367573D01*
X138660499Y-125271828D01*
X138654091Y-125212217D01*
X138603796Y-125077369D01*
X138603795Y-125077368D01*
X138603793Y-125077364D01*
X138517547Y-124962155D01*
X138517544Y-124962152D01*
X138395231Y-124870588D01*
X138397007Y-124868214D01*
X138358136Y-124829345D01*
X138343283Y-124761072D01*
X138367699Y-124695607D01*
X138379286Y-124682235D01*
X138852050Y-124209472D01*
X139450835Y-123610687D01*
X139526456Y-123497511D01*
X139532053Y-123484000D01*
X139565881Y-123402331D01*
X139578545Y-123371757D01*
X139593144Y-123298364D01*
X139605100Y-123238259D01*
X139605100Y-94650039D01*
X139578546Y-94516548D01*
X139578545Y-94516547D01*
X139578545Y-94516543D01*
X139578543Y-94516538D01*
X139526457Y-94390790D01*
X139508135Y-94363370D01*
X139508135Y-94363369D01*
X139450833Y-94277610D01*
X139450830Y-94277607D01*
X138839175Y-93665953D01*
X138821862Y-93644244D01*
X138746808Y-93524796D01*
X138631204Y-93409192D01*
X138545843Y-93355556D01*
X138492774Y-93322210D01*
X138338455Y-93268212D01*
X138176004Y-93249909D01*
X138175996Y-93249909D01*
X138013544Y-93268212D01*
X137859225Y-93322210D01*
X137720795Y-93409192D01*
X137605192Y-93524795D01*
X137518210Y-93663225D01*
X137464212Y-93817544D01*
X137445909Y-93979996D01*
X137445909Y-93980003D01*
X137464212Y-94142455D01*
X137518210Y-94296774D01*
X137592304Y-94414693D01*
X137605192Y-94435204D01*
X137720796Y-94550808D01*
X137840245Y-94625863D01*
X137861953Y-94643175D01*
X138186781Y-94968003D01*
X138220266Y-95029326D01*
X138223100Y-95055684D01*
X138223100Y-106030997D01*
X138203415Y-106098036D01*
X138150611Y-106143791D01*
X138081453Y-106153735D01*
X138067007Y-106150772D01*
X137903413Y-106106938D01*
X137903403Y-106106936D01*
X137668001Y-106086341D01*
X137667999Y-106086341D01*
X137432596Y-106106936D01*
X137432583Y-106106939D01*
X137269692Y-106150584D01*
X137199843Y-106148921D01*
X137141980Y-106109758D01*
X137114477Y-106045529D01*
X137113600Y-106030809D01*
X137113600Y-100286539D01*
X137087046Y-100153048D01*
X137087045Y-100153047D01*
X137087045Y-100153043D01*
X137038488Y-100035816D01*
X137034958Y-100027293D01*
X137034957Y-100027291D01*
X137034956Y-100027289D01*
X137018518Y-100002688D01*
X136959335Y-99914113D01*
X136959333Y-99914111D01*
X136959331Y-99914108D01*
X136959330Y-99914107D01*
X135217812Y-98172590D01*
X135184327Y-98111267D01*
X135185718Y-98052816D01*
X135193063Y-98025408D01*
X135213659Y-97790000D01*
X135193063Y-97554592D01*
X135134123Y-97334621D01*
X135131905Y-97326344D01*
X135131904Y-97326343D01*
X135131903Y-97326337D01*
X135032035Y-97112171D01*
X134920895Y-96953445D01*
X134896494Y-96918597D01*
X134729402Y-96751506D01*
X134729401Y-96751505D01*
X134543405Y-96621269D01*
X134499781Y-96566692D01*
X134492588Y-96497193D01*
X134524110Y-96434839D01*
X134543405Y-96418119D01*
X134729082Y-96288105D01*
X134896105Y-96121082D01*
X135031600Y-95927578D01*
X135131429Y-95713492D01*
X135131432Y-95713486D01*
X135188636Y-95500000D01*
X134291012Y-95500000D01*
X134323925Y-95442993D01*
X134358000Y-95315826D01*
X134358000Y-95184174D01*
X134323925Y-95057007D01*
X134291012Y-95000000D01*
X135188636Y-95000000D01*
X135188635Y-94999999D01*
X135131432Y-94786513D01*
X135131429Y-94786507D01*
X135031600Y-94572422D01*
X135031599Y-94572420D01*
X134896113Y-94378926D01*
X134896108Y-94378920D01*
X134729082Y-94211894D01*
X134535578Y-94076399D01*
X134321492Y-93976570D01*
X134321486Y-93976567D01*
X134108000Y-93919364D01*
X134108000Y-94816988D01*
X134050993Y-94784075D01*
X133923826Y-94750000D01*
X133792174Y-94750000D01*
X133665007Y-94784075D01*
X133608000Y-94816988D01*
X133608000Y-93919364D01*
X133607999Y-93919363D01*
X133395823Y-93976216D01*
X133325974Y-93974553D01*
X133268111Y-93935390D01*
X133249169Y-93903893D01*
X133247349Y-93899500D01*
X133213937Y-93818834D01*
X133200459Y-93786295D01*
X133200452Y-93786282D01*
X133138218Y-93693143D01*
X133138217Y-93693142D01*
X133134660Y-93687819D01*
X133124835Y-93673114D01*
X133124833Y-93673111D01*
X133124832Y-93673110D01*
X126743723Y-87292002D01*
X126710238Y-87230679D01*
X126715222Y-87160987D01*
X126729828Y-87133200D01*
X126827534Y-86993662D01*
X126920894Y-86793450D01*
X126978070Y-86580068D01*
X126997323Y-86360000D01*
X126978070Y-86139932D01*
X126920894Y-85926550D01*
X126827534Y-85726339D01*
X126750399Y-85616178D01*
X126700827Y-85545381D01*
X126676158Y-85520712D01*
X126544620Y-85389174D01*
X126544616Y-85389171D01*
X126544615Y-85389170D01*
X126363666Y-85262468D01*
X126363662Y-85262466D01*
X126331205Y-85247331D01*
X126163450Y-85169106D01*
X126163447Y-85169105D01*
X126163445Y-85169104D01*
X125950070Y-85111930D01*
X125950062Y-85111929D01*
X125730002Y-85092677D01*
X125729998Y-85092677D01*
X125509937Y-85111929D01*
X125509929Y-85111930D01*
X125296554Y-85169104D01*
X125296548Y-85169107D01*
X125096340Y-85262465D01*
X125096338Y-85262466D01*
X124915377Y-85389175D01*
X124759175Y-85545377D01*
X124632466Y-85726338D01*
X124632465Y-85726340D01*
X124539107Y-85926548D01*
X124539104Y-85926554D01*
X124481930Y-86139929D01*
X124481929Y-86139937D01*
X124462677Y-86359997D01*
X124462677Y-86360002D01*
X124481929Y-86580062D01*
X124481930Y-86580070D01*
X124539104Y-86793445D01*
X124539108Y-86793456D01*
X124553396Y-86824096D01*
X124563888Y-86893173D01*
X124535368Y-86956957D01*
X124476891Y-86995196D01*
X124441014Y-87000500D01*
X122044000Y-87000500D01*
X121976961Y-86980815D01*
X121931206Y-86928011D01*
X121920000Y-86876500D01*
X121920000Y-81534000D01*
X104140000Y-81534000D01*
X104140000Y-84708798D01*
X104120315Y-84775837D01*
X104067511Y-84821592D01*
X103998353Y-84831536D01*
X103934797Y-84802511D01*
X103928319Y-84796479D01*
X102339730Y-83207891D01*
X102339729Y-83207890D01*
X102339726Y-83207888D01*
X102195132Y-83102833D01*
X102035881Y-83021691D01*
X102035875Y-83021688D01*
X101994194Y-83008146D01*
X101927453Y-82986460D01*
X101865897Y-82966459D01*
X101865895Y-82966458D01*
X101865894Y-82966458D01*
X101689370Y-82938500D01*
X101689366Y-82938500D01*
X99224634Y-82938500D01*
X99165790Y-82947820D01*
X99048101Y-82966460D01*
X99048098Y-82966460D01*
X98878121Y-83021689D01*
X98878118Y-83021690D01*
X98718866Y-83102834D01*
X98635116Y-83163681D01*
X98635115Y-83163680D01*
X98574279Y-83207881D01*
X98574271Y-83207888D01*
X94002272Y-87779889D01*
X93875891Y-87906269D01*
X93875890Y-87906270D01*
X93770833Y-88050867D01*
X93689243Y-88210997D01*
X93688184Y-88214754D01*
X93634459Y-88380101D01*
X93634458Y-88380108D01*
X93620767Y-88466549D01*
X93620768Y-88466550D01*
X93606500Y-88556634D01*
X93606500Y-88556639D01*
X93606500Y-88894414D01*
X93586815Y-88961453D01*
X93534011Y-89007208D01*
X93464853Y-89017152D01*
X93401297Y-88988127D01*
X93364569Y-88932732D01*
X93353934Y-88900002D01*
X93324557Y-88809588D01*
X93228051Y-88620184D01*
X93228049Y-88620181D01*
X93228048Y-88620179D01*
X93103109Y-88448213D01*
X92952792Y-88297896D01*
X92952784Y-88297890D01*
X92788204Y-88178316D01*
X92745540Y-88122989D01*
X92739561Y-88053376D01*
X92772166Y-87991580D01*
X92788199Y-87977686D01*
X92952792Y-87858104D01*
X93103104Y-87707792D01*
X93103106Y-87707788D01*
X93103109Y-87707786D01*
X93228048Y-87535820D01*
X93228047Y-87535820D01*
X93228051Y-87535816D01*
X93324557Y-87346412D01*
X93390246Y-87144243D01*
X93423500Y-86934287D01*
X93423500Y-86721713D01*
X93390246Y-86511757D01*
X93324557Y-86309588D01*
X93228051Y-86120184D01*
X93228049Y-86120181D01*
X93228048Y-86120179D01*
X93103109Y-85948213D01*
X92964294Y-85809398D01*
X92930809Y-85748075D01*
X92935793Y-85678383D01*
X92977665Y-85622450D01*
X92986879Y-85616178D01*
X92992331Y-85612814D01*
X92992334Y-85612814D01*
X93141656Y-85520712D01*
X93265712Y-85396656D01*
X93357814Y-85247334D01*
X93412999Y-85080797D01*
X93423500Y-84978009D01*
X93423499Y-83677992D01*
X93412999Y-83575203D01*
X93357814Y-83408666D01*
X93265712Y-83259344D01*
X93141656Y-83135288D01*
X92992334Y-83043186D01*
X92825797Y-82988001D01*
X92825795Y-82988000D01*
X92723010Y-82977500D01*
X91172998Y-82977500D01*
X91172981Y-82977501D01*
X91070203Y-82988000D01*
X91070200Y-82988001D01*
X90903668Y-83043185D01*
X90903663Y-83043187D01*
X90754342Y-83135289D01*
X90630289Y-83259342D01*
X90538187Y-83408663D01*
X90538186Y-83408666D01*
X90483001Y-83575203D01*
X90483001Y-83575204D01*
X90483000Y-83575204D01*
X90472500Y-83677983D01*
X90472500Y-84978001D01*
X90472501Y-84978018D01*
X90483000Y-85080796D01*
X90483001Y-85080799D01*
X90538185Y-85247331D01*
X90538187Y-85247336D01*
X90630289Y-85396657D01*
X90754344Y-85520712D01*
X90909120Y-85616178D01*
X90955845Y-85668126D01*
X90967068Y-85737088D01*
X90939224Y-85801171D01*
X90931706Y-85809398D01*
X90792889Y-85948215D01*
X90667951Y-86120179D01*
X90571444Y-86309585D01*
X90505753Y-86511760D01*
X90472500Y-86721713D01*
X90472500Y-86934286D01*
X90505348Y-87141685D01*
X90505754Y-87144243D01*
X90567306Y-87333681D01*
X90571444Y-87346414D01*
X90667951Y-87535820D01*
X90792890Y-87707786D01*
X90943209Y-87858105D01*
X90943214Y-87858109D01*
X91107793Y-87977682D01*
X91150459Y-88033011D01*
X91156438Y-88102625D01*
X91123833Y-88164420D01*
X91107793Y-88178318D01*
X90943214Y-88297890D01*
X90943209Y-88297894D01*
X90792890Y-88448213D01*
X90667951Y-88620179D01*
X90571444Y-88809585D01*
X90505753Y-89011760D01*
X90472500Y-89221713D01*
X90472500Y-89434286D01*
X90505037Y-89639721D01*
X90505754Y-89644243D01*
X90562873Y-89820037D01*
X90571444Y-89846414D01*
X90667951Y-90035820D01*
X90792890Y-90207786D01*
X90943209Y-90358105D01*
X90943214Y-90358109D01*
X91107793Y-90477682D01*
X91150459Y-90533011D01*
X91156438Y-90602625D01*
X91123833Y-90664420D01*
X91107793Y-90678318D01*
X90943214Y-90797890D01*
X90943209Y-90797894D01*
X90792890Y-90948213D01*
X90667951Y-91120179D01*
X90571444Y-91309585D01*
X90505753Y-91511760D01*
X90472500Y-91721713D01*
X90472500Y-91934286D01*
X90495481Y-92079386D01*
X90505754Y-92144243D01*
X90541616Y-92254615D01*
X90571444Y-92346414D01*
X90667951Y-92535820D01*
X90792890Y-92707786D01*
X90943209Y-92858105D01*
X90943214Y-92858109D01*
X91107793Y-92977682D01*
X91150459Y-93033011D01*
X91156438Y-93102625D01*
X91123833Y-93164420D01*
X91107793Y-93178318D01*
X90943214Y-93297890D01*
X90943209Y-93297894D01*
X90792890Y-93448213D01*
X90667951Y-93620179D01*
X90571444Y-93809585D01*
X90505753Y-94011760D01*
X90472500Y-94221713D01*
X90472500Y-94434286D01*
X90505736Y-94644133D01*
X90505754Y-94644243D01*
X90566554Y-94831366D01*
X90571444Y-94846414D01*
X90667951Y-95035820D01*
X90792890Y-95207786D01*
X90943209Y-95358105D01*
X90943214Y-95358109D01*
X91107793Y-95477682D01*
X91150459Y-95533011D01*
X91156438Y-95602625D01*
X91123833Y-95664420D01*
X91107793Y-95678318D01*
X90943214Y-95797890D01*
X90943209Y-95797894D01*
X90792890Y-95948213D01*
X90667951Y-96120179D01*
X90571444Y-96309585D01*
X90505753Y-96511760D01*
X90475916Y-96700145D01*
X90472500Y-96721713D01*
X90472500Y-96934287D01*
X90505754Y-97144243D01*
X90564922Y-97326344D01*
X90571444Y-97346414D01*
X90667951Y-97535820D01*
X90792890Y-97707786D01*
X90943209Y-97858105D01*
X90943214Y-97858109D01*
X91107793Y-97977682D01*
X91150459Y-98033011D01*
X91156438Y-98102625D01*
X91123833Y-98164420D01*
X91107793Y-98178318D01*
X90943214Y-98297890D01*
X90943209Y-98297894D01*
X90792890Y-98448213D01*
X90667951Y-98620180D01*
X90631734Y-98691260D01*
X90583759Y-98742056D01*
X90515938Y-98758851D01*
X90449803Y-98736314D01*
X90433568Y-98722646D01*
X85194192Y-93483269D01*
X85194185Y-93483263D01*
X85081012Y-93407644D01*
X85081009Y-93407642D01*
X84955261Y-93355556D01*
X84955251Y-93355553D01*
X84821760Y-93329000D01*
X84821758Y-93329000D01*
X84413450Y-93329000D01*
X84346411Y-93309315D01*
X84313131Y-93277885D01*
X84306103Y-93268212D01*
X84213104Y-93140208D01*
X84062792Y-92989896D01*
X83898204Y-92870316D01*
X83855540Y-92814989D01*
X83849561Y-92745376D01*
X83882166Y-92683580D01*
X83898199Y-92669686D01*
X84062792Y-92550104D01*
X84213104Y-92399792D01*
X84213106Y-92399788D01*
X84213109Y-92399786D01*
X84338048Y-92227820D01*
X84338047Y-92227820D01*
X84338051Y-92227816D01*
X84434557Y-92038412D01*
X84500246Y-91836243D01*
X84533500Y-91626287D01*
X84533500Y-91413713D01*
X84500246Y-91203757D01*
X84434557Y-91001588D01*
X84338051Y-90812184D01*
X84338049Y-90812181D01*
X84338048Y-90812179D01*
X84213109Y-90640213D01*
X84062790Y-90489894D01*
X84062785Y-90489890D01*
X83897781Y-90370008D01*
X83855115Y-90314678D01*
X83849136Y-90245065D01*
X83881741Y-90183270D01*
X83897781Y-90169371D01*
X84062466Y-90049721D01*
X84212723Y-89899464D01*
X84212727Y-89899459D01*
X84337620Y-89727557D01*
X84434095Y-89538217D01*
X84499757Y-89336129D01*
X84499757Y-89336126D01*
X84510231Y-89270000D01*
X83462146Y-89270000D01*
X83500630Y-89203343D01*
X83533000Y-89082535D01*
X83533000Y-88957465D01*
X83500630Y-88836657D01*
X83462146Y-88770000D01*
X84510231Y-88770000D01*
X84499757Y-88703873D01*
X84499757Y-88703870D01*
X84434095Y-88501782D01*
X84337620Y-88312442D01*
X84212727Y-88140540D01*
X84212723Y-88140535D01*
X84073856Y-88001668D01*
X84040371Y-87940345D01*
X84045355Y-87870653D01*
X84087227Y-87814720D01*
X84096441Y-87808448D01*
X84102331Y-87804814D01*
X84102334Y-87804814D01*
X84251656Y-87712712D01*
X84375712Y-87588656D01*
X84467814Y-87439334D01*
X84522999Y-87272797D01*
X84533500Y-87170009D01*
X84533499Y-85869992D01*
X84522999Y-85767203D01*
X84467814Y-85600666D01*
X84375712Y-85451344D01*
X84251656Y-85327288D01*
X84158888Y-85270069D01*
X84102336Y-85235187D01*
X84102331Y-85235185D01*
X84100862Y-85234698D01*
X83935797Y-85180001D01*
X83935795Y-85180000D01*
X83833010Y-85169500D01*
X82282998Y-85169500D01*
X82282981Y-85169501D01*
X82180203Y-85180000D01*
X82180200Y-85180001D01*
X82013668Y-85235185D01*
X82013663Y-85235187D01*
X81864342Y-85327289D01*
X81740289Y-85451342D01*
X81648187Y-85600663D01*
X81648185Y-85600668D01*
X81643046Y-85616178D01*
X81593001Y-85767203D01*
X81593001Y-85767204D01*
X81593000Y-85767204D01*
X81582500Y-85869983D01*
X81582500Y-87170001D01*
X81582501Y-87170018D01*
X81593000Y-87272796D01*
X81593001Y-87272799D01*
X81648185Y-87439331D01*
X81648187Y-87439336D01*
X81672988Y-87479544D01*
X81740288Y-87588656D01*
X81864344Y-87712712D01*
X82009859Y-87802466D01*
X82019558Y-87808448D01*
X82066283Y-87860396D01*
X82077506Y-87929358D01*
X82049663Y-87993441D01*
X82042144Y-88001668D01*
X81903271Y-88140541D01*
X81778379Y-88312442D01*
X81681904Y-88501782D01*
X81616242Y-88703870D01*
X81616242Y-88703873D01*
X81605769Y-88770000D01*
X82653854Y-88770000D01*
X82615370Y-88836657D01*
X82583000Y-88957465D01*
X82583000Y-89082535D01*
X82615370Y-89203343D01*
X82653854Y-89270000D01*
X81605769Y-89270000D01*
X81616242Y-89336126D01*
X81616242Y-89336129D01*
X81681904Y-89538217D01*
X81778379Y-89727557D01*
X81903272Y-89899459D01*
X81903276Y-89899464D01*
X82053535Y-90049723D01*
X82053540Y-90049727D01*
X82218218Y-90169372D01*
X82260884Y-90224701D01*
X82266863Y-90294315D01*
X82234258Y-90356110D01*
X82218218Y-90370008D01*
X82053214Y-90489890D01*
X82053209Y-90489894D01*
X81902890Y-90640213D01*
X81777951Y-90812179D01*
X81681444Y-91001585D01*
X81615753Y-91203760D01*
X81582500Y-91413713D01*
X81582500Y-91626286D01*
X81615753Y-91836242D01*
X81628759Y-91876271D01*
X81630753Y-91946112D01*
X81598508Y-92002268D01*
X81126767Y-92474009D01*
X81126761Y-92474017D01*
X81075922Y-92550102D01*
X81075923Y-92550103D01*
X81051143Y-92587188D01*
X81051142Y-92587190D01*
X80999056Y-92712938D01*
X80999053Y-92712948D01*
X80972500Y-92846439D01*
X79280000Y-92846439D01*
X79280000Y-82972777D01*
X79299685Y-82905738D01*
X79352489Y-82859983D01*
X79421647Y-82850039D01*
X79485203Y-82879064D01*
X79499542Y-82893735D01*
X79526651Y-82926504D01*
X79650906Y-83043187D01*
X79746836Y-83133272D01*
X79746846Y-83133280D01*
X79991193Y-83310808D01*
X79991198Y-83310810D01*
X79991205Y-83310816D01*
X80255896Y-83456332D01*
X80255901Y-83456334D01*
X80255903Y-83456335D01*
X80255904Y-83456336D01*
X80536734Y-83567524D01*
X80536737Y-83567525D01*
X80634259Y-83592564D01*
X80829302Y-83642642D01*
X80976039Y-83661179D01*
X81128963Y-83680499D01*
X81128969Y-83680499D01*
X81128973Y-83680500D01*
X81128975Y-83680500D01*
X81431025Y-83680500D01*
X81431027Y-83680500D01*
X81431032Y-83680499D01*
X81431036Y-83680499D01*
X81510591Y-83670448D01*
X81730698Y-83642642D01*
X82023262Y-83567525D01*
X82023265Y-83567524D01*
X82304095Y-83456336D01*
X82304096Y-83456335D01*
X82304094Y-83456335D01*
X82304104Y-83456332D01*
X82568795Y-83310816D01*
X82813162Y-83133274D01*
X83033349Y-82926504D01*
X83225885Y-82693768D01*
X83387733Y-82438736D01*
X83516341Y-82165430D01*
X83609681Y-81878160D01*
X83666280Y-81581457D01*
X83685246Y-81280000D01*
X83666280Y-80978543D01*
X83609681Y-80681840D01*
X83516341Y-80394570D01*
X83387733Y-80121264D01*
X83359828Y-80077293D01*
X83225888Y-79866236D01*
X83033347Y-79633494D01*
X82851675Y-79462892D01*
X82816280Y-79402651D01*
X82819074Y-79332837D01*
X82859167Y-79275616D01*
X82923833Y-79249155D01*
X82936559Y-79248500D01*
X140583441Y-79248500D01*
X140650480Y-79268185D01*
G37*
G04 #@! TD.AperFunction*
M02*
