M48
; DRILL file {KiCad 8.0.8} date 2025-02-16T00:04:42+0100
; FORMAT={-:-/ absolute / metric / decimal}
; #@! TF.CreationDate,2025-02-16T00:04:42+01:00
; #@! TF.GenerationSoftware,Kicad,Pcbnew,8.0.8
; #@! TF.FileFunction,Plated,1,2,PTH
FMAT,2
METRIC
; #@! TA.AperFunction,Plated,PTH,ViaDrill
T1C0.300
; #@! TA.AperFunction,Plated,PTH,ComponentDrill
T2C0.750
; #@! TA.AperFunction,Plated,PTH,ComponentDrill
T3C0.762
; #@! TA.AperFunction,Plated,PTH,ComponentDrill
T4C0.800
; #@! TA.AperFunction,Plated,PTH,ComponentDrill
T5C0.950
; #@! TA.AperFunction,Plated,PTH,ComponentDrill
T6C1.000
; #@! TA.AperFunction,Plated,PTH,ComponentDrill
T7C1.100
; #@! TA.AperFunction,Plated,PTH,ComponentDrill
T8C2.200
%
G90
G05
T1
X83.312Y-83.312
X86.868Y-100.838
X86.868Y-108.204
X87.376Y-83.312
X93.472Y-108.204
X93.98Y-86.106
X96.52Y-83.058
X96.774Y-97.536
X96.774Y-103.632
X103.632Y-114.3
X103.632Y-119.38
X109.728Y-90.678
X109.728Y-93.726
X110.744Y-101.6
X114.22Y-91.368
X114.554Y-93.726
X114.554Y-96.774
X117.856Y-118.11
X119.38Y-93.726
X129.54Y-93.98
X132.08Y-108.712
X138.176Y-93.98
T2
X90.424Y-105.156
X91.694Y-105.156
X92.964Y-105.156
X131.475Y-104.394
X131.475Y-105.664
X131.475Y-106.934
T3
X100.33Y-86.36
X100.33Y-88.9
X100.33Y-91.44
X100.33Y-93.98
X100.33Y-96.52
X100.33Y-99.06
X100.33Y-101.6
X100.33Y-104.14
X100.33Y-106.68
X100.33Y-109.22
X100.33Y-111.76
X100.33Y-114.3
X100.33Y-116.84
X100.33Y-119.38
X100.33Y-121.92
X125.73Y-86.36
X125.73Y-88.9
X125.73Y-91.44
X125.73Y-93.98
X125.73Y-96.52
X125.73Y-99.06
X125.73Y-101.6
X125.73Y-104.14
X125.73Y-106.68
X125.73Y-109.22
X125.73Y-111.76
X125.73Y-114.3
X125.73Y-116.84
X125.73Y-119.38
X125.73Y-121.92
T4
X94.742Y-122.234
X94.742Y-123.484
X94.742Y-125.984
X94.742Y-127.234
X109.398Y-104.474
X109.398Y-107.522
X109.41Y-110.57
X109.41Y-113.618
X109.41Y-116.666
X109.41Y-119.676
X109.41Y-122.724
X109.41Y-125.772
X109.41Y-128.82
X117.018Y-104.474
X117.018Y-107.522
X117.03Y-110.57
X117.03Y-113.618
X117.03Y-116.666
X117.03Y-119.676
X117.03Y-122.724
X117.03Y-125.772
X117.03Y-128.82
X129.794Y-121.706
X129.794Y-122.956
X129.794Y-125.456
X129.794Y-126.706
X130.302Y-109.982
X130.302Y-117.602
X133.35Y-109.982
X133.35Y-117.602
T5
X83.058Y-86.52
X83.058Y-89.02
X83.058Y-91.52
X83.058Y-94.02
X83.058Y-96.52
X83.058Y-111.252
X83.058Y-113.752
X83.058Y-116.252
X91.948Y-84.328
X91.948Y-86.828
X91.948Y-89.328
X91.948Y-91.828
X91.948Y-94.328
X91.948Y-96.828
X91.948Y-99.328
T6
X83.058Y-102.656
X83.058Y-105.156
X87.122Y-121.92
X87.122Y-126.92
X92.476Y-115.045
X94.976Y-115.045
X106.68Y-88.646
X109.22Y-88.646
X111.76Y-88.646
X114.3Y-88.646
X116.84Y-88.646
X119.38Y-88.646
X131.318Y-95.25
X131.318Y-97.79
X131.318Y-100.33
X133.858Y-95.25
X133.858Y-97.79
X133.858Y-100.33
X137.16Y-121.32
X137.16Y-126.32
X137.668Y-107.442
X137.668Y-109.982
X137.668Y-113.792
X137.668Y-116.332
T7
X90.17Y-110.673
X92.71Y-110.673
X95.25Y-110.673
T8
X81.28Y-81.28
X81.28Y-129.54
X142.24Y-81.28
X142.24Y-129.54
M30
