G04 #@! TF.GenerationSoftware,KiCad,Pcbnew,8.0.8*
G04 #@! TF.CreationDate,2025-01-19T23:43:05+01:00*
G04 #@! TF.ProjectId,ESP32ScoringDevice_PCB_THT_Rev1.2,45535033-3253-4636-9f72-696e67446576,1.1*
G04 #@! TF.SameCoordinates,Original*
G04 #@! TF.FileFunction,Legend,Bot*
G04 #@! TF.FilePolarity,Positive*
%FSLAX46Y46*%
G04 Gerber Fmt 4.6, Leading zero omitted, Abs format (unit mm)*
G04 Created by KiCad (PCBNEW 8.0.8) date 2025-01-19 23:43:05*
%MOMM*%
%LPD*%
G01*
G04 APERTURE LIST*
G04 Aperture macros list*
%AMRoundRect*
0 Rectangle with rounded corners*
0 $1 Rounding radius*
0 $2 $3 $4 $5 $6 $7 $8 $9 X,Y pos of 4 corners*
0 Add a 4 corners polygon primitive as box body*
4,1,4,$2,$3,$4,$5,$6,$7,$8,$9,$2,$3,0*
0 Add four circle primitives for the rounded corners*
1,1,$1+$1,$2,$3*
1,1,$1+$1,$4,$5*
1,1,$1+$1,$6,$7*
1,1,$1+$1,$8,$9*
0 Add four rect primitives between the rounded corners*
20,1,$1+$1,$2,$3,$4,$5,0*
20,1,$1+$1,$4,$5,$6,$7,0*
20,1,$1+$1,$6,$7,$8,$9,0*
20,1,$1+$1,$8,$9,$2,$3,0*%
G04 Aperture macros list end*
%ADD10C,0.150000*%
%ADD11C,1.600000*%
%ADD12R,1.700000X1.700000*%
%ADD13O,1.700000X1.700000*%
%ADD14RoundRect,0.250000X-0.600000X-0.750000X0.600000X-0.750000X0.600000X0.750000X-0.600000X0.750000X0*%
%ADD15O,1.700000X2.000000*%
%ADD16R,1.524000X1.524000*%
%ADD17C,1.524000*%
%ADD18O,1.600000X1.600000*%
%ADD19R,2.000000X2.000000*%
%ADD20C,2.000000*%
%ADD21R,1.050000X1.500000*%
%ADD22O,1.050000X1.500000*%
%ADD23C,3.800000*%
%ADD24RoundRect,0.250000X-0.725000X0.600000X-0.725000X-0.600000X0.725000X-0.600000X0.725000X0.600000X0*%
%ADD25O,1.950000X1.700000*%
%ADD26R,1.500000X1.050000*%
%ADD27O,1.500000X1.050000*%
%ADD28RoundRect,0.250000X-0.750000X0.600000X-0.750000X-0.600000X0.750000X-0.600000X0.750000X0.600000X0*%
%ADD29O,2.000000X1.700000*%
%ADD30R,1.905000X2.000000*%
%ADD31O,1.905000X2.000000*%
G04 APERTURE END LIST*
D10*
X139443220Y-80556177D02*
X139109887Y-80556177D01*
X138967030Y-81079987D02*
X139443220Y-81079987D01*
X139443220Y-81079987D02*
X139443220Y-80079987D01*
X139443220Y-80079987D02*
X138967030Y-80079987D01*
X138586077Y-81032368D02*
X138443220Y-81079987D01*
X138443220Y-81079987D02*
X138205125Y-81079987D01*
X138205125Y-81079987D02*
X138109887Y-81032368D01*
X138109887Y-81032368D02*
X138062268Y-80984748D01*
X138062268Y-80984748D02*
X138014649Y-80889510D01*
X138014649Y-80889510D02*
X138014649Y-80794272D01*
X138014649Y-80794272D02*
X138062268Y-80699034D01*
X138062268Y-80699034D02*
X138109887Y-80651415D01*
X138109887Y-80651415D02*
X138205125Y-80603796D01*
X138205125Y-80603796D02*
X138395601Y-80556177D01*
X138395601Y-80556177D02*
X138490839Y-80508558D01*
X138490839Y-80508558D02*
X138538458Y-80460939D01*
X138538458Y-80460939D02*
X138586077Y-80365701D01*
X138586077Y-80365701D02*
X138586077Y-80270463D01*
X138586077Y-80270463D02*
X138538458Y-80175225D01*
X138538458Y-80175225D02*
X138490839Y-80127606D01*
X138490839Y-80127606D02*
X138395601Y-80079987D01*
X138395601Y-80079987D02*
X138157506Y-80079987D01*
X138157506Y-80079987D02*
X138014649Y-80127606D01*
X137586077Y-81079987D02*
X137586077Y-80079987D01*
X137586077Y-80079987D02*
X137205125Y-80079987D01*
X137205125Y-80079987D02*
X137109887Y-80127606D01*
X137109887Y-80127606D02*
X137062268Y-80175225D01*
X137062268Y-80175225D02*
X137014649Y-80270463D01*
X137014649Y-80270463D02*
X137014649Y-80413320D01*
X137014649Y-80413320D02*
X137062268Y-80508558D01*
X137062268Y-80508558D02*
X137109887Y-80556177D01*
X137109887Y-80556177D02*
X137205125Y-80603796D01*
X137205125Y-80603796D02*
X137586077Y-80603796D01*
X136681315Y-80079987D02*
X136062268Y-80079987D01*
X136062268Y-80079987D02*
X136395601Y-80460939D01*
X136395601Y-80460939D02*
X136252744Y-80460939D01*
X136252744Y-80460939D02*
X136157506Y-80508558D01*
X136157506Y-80508558D02*
X136109887Y-80556177D01*
X136109887Y-80556177D02*
X136062268Y-80651415D01*
X136062268Y-80651415D02*
X136062268Y-80889510D01*
X136062268Y-80889510D02*
X136109887Y-80984748D01*
X136109887Y-80984748D02*
X136157506Y-81032368D01*
X136157506Y-81032368D02*
X136252744Y-81079987D01*
X136252744Y-81079987D02*
X136538458Y-81079987D01*
X136538458Y-81079987D02*
X136633696Y-81032368D01*
X136633696Y-81032368D02*
X136681315Y-80984748D01*
X135681315Y-80175225D02*
X135633696Y-80127606D01*
X135633696Y-80127606D02*
X135538458Y-80079987D01*
X135538458Y-80079987D02*
X135300363Y-80079987D01*
X135300363Y-80079987D02*
X135205125Y-80127606D01*
X135205125Y-80127606D02*
X135157506Y-80175225D01*
X135157506Y-80175225D02*
X135109887Y-80270463D01*
X135109887Y-80270463D02*
X135109887Y-80365701D01*
X135109887Y-80365701D02*
X135157506Y-80508558D01*
X135157506Y-80508558D02*
X135728934Y-81079987D01*
X135728934Y-81079987D02*
X135109887Y-81079987D01*
X134062267Y-80413320D02*
X133681315Y-80413320D01*
X133919410Y-81079987D02*
X133919410Y-80222844D01*
X133919410Y-80222844D02*
X133871791Y-80127606D01*
X133871791Y-80127606D02*
X133776553Y-80079987D01*
X133776553Y-80079987D02*
X133681315Y-80079987D01*
X132967029Y-81032368D02*
X133062267Y-81079987D01*
X133062267Y-81079987D02*
X133252743Y-81079987D01*
X133252743Y-81079987D02*
X133347981Y-81032368D01*
X133347981Y-81032368D02*
X133395600Y-80937129D01*
X133395600Y-80937129D02*
X133395600Y-80556177D01*
X133395600Y-80556177D02*
X133347981Y-80460939D01*
X133347981Y-80460939D02*
X133252743Y-80413320D01*
X133252743Y-80413320D02*
X133062267Y-80413320D01*
X133062267Y-80413320D02*
X132967029Y-80460939D01*
X132967029Y-80460939D02*
X132919410Y-80556177D01*
X132919410Y-80556177D02*
X132919410Y-80651415D01*
X132919410Y-80651415D02*
X133395600Y-80746653D01*
X132490838Y-80413320D02*
X132490838Y-81079987D01*
X132490838Y-80508558D02*
X132443219Y-80460939D01*
X132443219Y-80460939D02*
X132347981Y-80413320D01*
X132347981Y-80413320D02*
X132205124Y-80413320D01*
X132205124Y-80413320D02*
X132109886Y-80460939D01*
X132109886Y-80460939D02*
X132062267Y-80556177D01*
X132062267Y-80556177D02*
X132062267Y-81079987D01*
X131157505Y-81032368D02*
X131252743Y-81079987D01*
X131252743Y-81079987D02*
X131443219Y-81079987D01*
X131443219Y-81079987D02*
X131538457Y-81032368D01*
X131538457Y-81032368D02*
X131586076Y-80984748D01*
X131586076Y-80984748D02*
X131633695Y-80889510D01*
X131633695Y-80889510D02*
X131633695Y-80603796D01*
X131633695Y-80603796D02*
X131586076Y-80508558D01*
X131586076Y-80508558D02*
X131538457Y-80460939D01*
X131538457Y-80460939D02*
X131443219Y-80413320D01*
X131443219Y-80413320D02*
X131252743Y-80413320D01*
X131252743Y-80413320D02*
X131157505Y-80460939D01*
X130728933Y-81079987D02*
X130728933Y-80413320D01*
X130728933Y-80079987D02*
X130776552Y-80127606D01*
X130776552Y-80127606D02*
X130728933Y-80175225D01*
X130728933Y-80175225D02*
X130681314Y-80127606D01*
X130681314Y-80127606D02*
X130728933Y-80079987D01*
X130728933Y-80079987D02*
X130728933Y-80175225D01*
X130252743Y-80413320D02*
X130252743Y-81079987D01*
X130252743Y-80508558D02*
X130205124Y-80460939D01*
X130205124Y-80460939D02*
X130109886Y-80413320D01*
X130109886Y-80413320D02*
X129967029Y-80413320D01*
X129967029Y-80413320D02*
X129871791Y-80460939D01*
X129871791Y-80460939D02*
X129824172Y-80556177D01*
X129824172Y-80556177D02*
X129824172Y-81079987D01*
X128919410Y-80413320D02*
X128919410Y-81222844D01*
X128919410Y-81222844D02*
X128967029Y-81318082D01*
X128967029Y-81318082D02*
X129014648Y-81365701D01*
X129014648Y-81365701D02*
X129109886Y-81413320D01*
X129109886Y-81413320D02*
X129252743Y-81413320D01*
X129252743Y-81413320D02*
X129347981Y-81365701D01*
X128919410Y-81032368D02*
X129014648Y-81079987D01*
X129014648Y-81079987D02*
X129205124Y-81079987D01*
X129205124Y-81079987D02*
X129300362Y-81032368D01*
X129300362Y-81032368D02*
X129347981Y-80984748D01*
X129347981Y-80984748D02*
X129395600Y-80889510D01*
X129395600Y-80889510D02*
X129395600Y-80603796D01*
X129395600Y-80603796D02*
X129347981Y-80508558D01*
X129347981Y-80508558D02*
X129300362Y-80460939D01*
X129300362Y-80460939D02*
X129205124Y-80413320D01*
X129205124Y-80413320D02*
X129014648Y-80413320D01*
X129014648Y-80413320D02*
X128919410Y-80460939D01*
X127728933Y-81032368D02*
X127633695Y-81079987D01*
X127633695Y-81079987D02*
X127443219Y-81079987D01*
X127443219Y-81079987D02*
X127347981Y-81032368D01*
X127347981Y-81032368D02*
X127300362Y-80937129D01*
X127300362Y-80937129D02*
X127300362Y-80889510D01*
X127300362Y-80889510D02*
X127347981Y-80794272D01*
X127347981Y-80794272D02*
X127443219Y-80746653D01*
X127443219Y-80746653D02*
X127586076Y-80746653D01*
X127586076Y-80746653D02*
X127681314Y-80699034D01*
X127681314Y-80699034D02*
X127728933Y-80603796D01*
X127728933Y-80603796D02*
X127728933Y-80556177D01*
X127728933Y-80556177D02*
X127681314Y-80460939D01*
X127681314Y-80460939D02*
X127586076Y-80413320D01*
X127586076Y-80413320D02*
X127443219Y-80413320D01*
X127443219Y-80413320D02*
X127347981Y-80460939D01*
X126443219Y-81032368D02*
X126538457Y-81079987D01*
X126538457Y-81079987D02*
X126728933Y-81079987D01*
X126728933Y-81079987D02*
X126824171Y-81032368D01*
X126824171Y-81032368D02*
X126871790Y-80984748D01*
X126871790Y-80984748D02*
X126919409Y-80889510D01*
X126919409Y-80889510D02*
X126919409Y-80603796D01*
X126919409Y-80603796D02*
X126871790Y-80508558D01*
X126871790Y-80508558D02*
X126824171Y-80460939D01*
X126824171Y-80460939D02*
X126728933Y-80413320D01*
X126728933Y-80413320D02*
X126538457Y-80413320D01*
X126538457Y-80413320D02*
X126443219Y-80460939D01*
X125871790Y-81079987D02*
X125967028Y-81032368D01*
X125967028Y-81032368D02*
X126014647Y-80984748D01*
X126014647Y-80984748D02*
X126062266Y-80889510D01*
X126062266Y-80889510D02*
X126062266Y-80603796D01*
X126062266Y-80603796D02*
X126014647Y-80508558D01*
X126014647Y-80508558D02*
X125967028Y-80460939D01*
X125967028Y-80460939D02*
X125871790Y-80413320D01*
X125871790Y-80413320D02*
X125728933Y-80413320D01*
X125728933Y-80413320D02*
X125633695Y-80460939D01*
X125633695Y-80460939D02*
X125586076Y-80508558D01*
X125586076Y-80508558D02*
X125538457Y-80603796D01*
X125538457Y-80603796D02*
X125538457Y-80889510D01*
X125538457Y-80889510D02*
X125586076Y-80984748D01*
X125586076Y-80984748D02*
X125633695Y-81032368D01*
X125633695Y-81032368D02*
X125728933Y-81079987D01*
X125728933Y-81079987D02*
X125871790Y-81079987D01*
X125109885Y-81079987D02*
X125109885Y-80413320D01*
X125109885Y-80603796D02*
X125062266Y-80508558D01*
X125062266Y-80508558D02*
X125014647Y-80460939D01*
X125014647Y-80460939D02*
X124919409Y-80413320D01*
X124919409Y-80413320D02*
X124824171Y-80413320D01*
X124490837Y-81079987D02*
X124490837Y-80413320D01*
X124490837Y-80079987D02*
X124538456Y-80127606D01*
X124538456Y-80127606D02*
X124490837Y-80175225D01*
X124490837Y-80175225D02*
X124443218Y-80127606D01*
X124443218Y-80127606D02*
X124490837Y-80079987D01*
X124490837Y-80079987D02*
X124490837Y-80175225D01*
X124014647Y-80413320D02*
X124014647Y-81079987D01*
X124014647Y-80508558D02*
X123967028Y-80460939D01*
X123967028Y-80460939D02*
X123871790Y-80413320D01*
X123871790Y-80413320D02*
X123728933Y-80413320D01*
X123728933Y-80413320D02*
X123633695Y-80460939D01*
X123633695Y-80460939D02*
X123586076Y-80556177D01*
X123586076Y-80556177D02*
X123586076Y-81079987D01*
X122681314Y-80413320D02*
X122681314Y-81222844D01*
X122681314Y-81222844D02*
X122728933Y-81318082D01*
X122728933Y-81318082D02*
X122776552Y-81365701D01*
X122776552Y-81365701D02*
X122871790Y-81413320D01*
X122871790Y-81413320D02*
X123014647Y-81413320D01*
X123014647Y-81413320D02*
X123109885Y-81365701D01*
X122681314Y-81032368D02*
X122776552Y-81079987D01*
X122776552Y-81079987D02*
X122967028Y-81079987D01*
X122967028Y-81079987D02*
X123062266Y-81032368D01*
X123062266Y-81032368D02*
X123109885Y-80984748D01*
X123109885Y-80984748D02*
X123157504Y-80889510D01*
X123157504Y-80889510D02*
X123157504Y-80603796D01*
X123157504Y-80603796D02*
X123109885Y-80508558D01*
X123109885Y-80508558D02*
X123062266Y-80460939D01*
X123062266Y-80460939D02*
X122967028Y-80413320D01*
X122967028Y-80413320D02*
X122776552Y-80413320D01*
X122776552Y-80413320D02*
X122681314Y-80460939D01*
X121014647Y-81079987D02*
X121014647Y-80079987D01*
X121014647Y-81032368D02*
X121109885Y-81079987D01*
X121109885Y-81079987D02*
X121300361Y-81079987D01*
X121300361Y-81079987D02*
X121395599Y-81032368D01*
X121395599Y-81032368D02*
X121443218Y-80984748D01*
X121443218Y-80984748D02*
X121490837Y-80889510D01*
X121490837Y-80889510D02*
X121490837Y-80603796D01*
X121490837Y-80603796D02*
X121443218Y-80508558D01*
X121443218Y-80508558D02*
X121395599Y-80460939D01*
X121395599Y-80460939D02*
X121300361Y-80413320D01*
X121300361Y-80413320D02*
X121109885Y-80413320D01*
X121109885Y-80413320D02*
X121014647Y-80460939D01*
X120157504Y-81032368D02*
X120252742Y-81079987D01*
X120252742Y-81079987D02*
X120443218Y-81079987D01*
X120443218Y-81079987D02*
X120538456Y-81032368D01*
X120538456Y-81032368D02*
X120586075Y-80937129D01*
X120586075Y-80937129D02*
X120586075Y-80556177D01*
X120586075Y-80556177D02*
X120538456Y-80460939D01*
X120538456Y-80460939D02*
X120443218Y-80413320D01*
X120443218Y-80413320D02*
X120252742Y-80413320D01*
X120252742Y-80413320D02*
X120157504Y-80460939D01*
X120157504Y-80460939D02*
X120109885Y-80556177D01*
X120109885Y-80556177D02*
X120109885Y-80651415D01*
X120109885Y-80651415D02*
X120586075Y-80746653D01*
X119776551Y-80413320D02*
X119538456Y-81079987D01*
X119538456Y-81079987D02*
X119300361Y-80413320D01*
X118919408Y-81079987D02*
X118919408Y-80413320D01*
X118919408Y-80079987D02*
X118967027Y-80127606D01*
X118967027Y-80127606D02*
X118919408Y-80175225D01*
X118919408Y-80175225D02*
X118871789Y-80127606D01*
X118871789Y-80127606D02*
X118919408Y-80079987D01*
X118919408Y-80079987D02*
X118919408Y-80175225D01*
X118014647Y-81032368D02*
X118109885Y-81079987D01*
X118109885Y-81079987D02*
X118300361Y-81079987D01*
X118300361Y-81079987D02*
X118395599Y-81032368D01*
X118395599Y-81032368D02*
X118443218Y-80984748D01*
X118443218Y-80984748D02*
X118490837Y-80889510D01*
X118490837Y-80889510D02*
X118490837Y-80603796D01*
X118490837Y-80603796D02*
X118443218Y-80508558D01*
X118443218Y-80508558D02*
X118395599Y-80460939D01*
X118395599Y-80460939D02*
X118300361Y-80413320D01*
X118300361Y-80413320D02*
X118109885Y-80413320D01*
X118109885Y-80413320D02*
X118014647Y-80460939D01*
X117205123Y-81032368D02*
X117300361Y-81079987D01*
X117300361Y-81079987D02*
X117490837Y-81079987D01*
X117490837Y-81079987D02*
X117586075Y-81032368D01*
X117586075Y-81032368D02*
X117633694Y-80937129D01*
X117633694Y-80937129D02*
X117633694Y-80556177D01*
X117633694Y-80556177D02*
X117586075Y-80460939D01*
X117586075Y-80460939D02*
X117490837Y-80413320D01*
X117490837Y-80413320D02*
X117300361Y-80413320D01*
X117300361Y-80413320D02*
X117205123Y-80460939D01*
X117205123Y-80460939D02*
X117157504Y-80556177D01*
X117157504Y-80556177D02*
X117157504Y-80651415D01*
X117157504Y-80651415D02*
X117633694Y-80746653D01*
X115252742Y-80032368D02*
X116109884Y-81318082D01*
X114252741Y-80413320D02*
X114062265Y-81079987D01*
X114062265Y-81079987D02*
X113871789Y-80603796D01*
X113871789Y-80603796D02*
X113681313Y-81079987D01*
X113681313Y-81079987D02*
X113490837Y-80413320D01*
X112728932Y-81032368D02*
X112824170Y-81079987D01*
X112824170Y-81079987D02*
X113014646Y-81079987D01*
X113014646Y-81079987D02*
X113109884Y-81032368D01*
X113109884Y-81032368D02*
X113157503Y-80937129D01*
X113157503Y-80937129D02*
X113157503Y-80556177D01*
X113157503Y-80556177D02*
X113109884Y-80460939D01*
X113109884Y-80460939D02*
X113014646Y-80413320D01*
X113014646Y-80413320D02*
X112824170Y-80413320D01*
X112824170Y-80413320D02*
X112728932Y-80460939D01*
X112728932Y-80460939D02*
X112681313Y-80556177D01*
X112681313Y-80556177D02*
X112681313Y-80651415D01*
X112681313Y-80651415D02*
X113157503Y-80746653D01*
X111824170Y-81079987D02*
X111824170Y-80556177D01*
X111824170Y-80556177D02*
X111871789Y-80460939D01*
X111871789Y-80460939D02*
X111967027Y-80413320D01*
X111967027Y-80413320D02*
X112157503Y-80413320D01*
X112157503Y-80413320D02*
X112252741Y-80460939D01*
X111824170Y-81032368D02*
X111919408Y-81079987D01*
X111919408Y-81079987D02*
X112157503Y-81079987D01*
X112157503Y-81079987D02*
X112252741Y-81032368D01*
X112252741Y-81032368D02*
X112300360Y-80937129D01*
X112300360Y-80937129D02*
X112300360Y-80841891D01*
X112300360Y-80841891D02*
X112252741Y-80746653D01*
X112252741Y-80746653D02*
X112157503Y-80699034D01*
X112157503Y-80699034D02*
X111919408Y-80699034D01*
X111919408Y-80699034D02*
X111824170Y-80651415D01*
X111347979Y-80413320D02*
X111347979Y-81413320D01*
X111347979Y-80460939D02*
X111252741Y-80413320D01*
X111252741Y-80413320D02*
X111062265Y-80413320D01*
X111062265Y-80413320D02*
X110967027Y-80460939D01*
X110967027Y-80460939D02*
X110919408Y-80508558D01*
X110919408Y-80508558D02*
X110871789Y-80603796D01*
X110871789Y-80603796D02*
X110871789Y-80889510D01*
X110871789Y-80889510D02*
X110919408Y-80984748D01*
X110919408Y-80984748D02*
X110967027Y-81032368D01*
X110967027Y-81032368D02*
X111062265Y-81079987D01*
X111062265Y-81079987D02*
X111252741Y-81079987D01*
X111252741Y-81079987D02*
X111347979Y-81032368D01*
X110300360Y-81079987D02*
X110395598Y-81032368D01*
X110395598Y-81032368D02*
X110443217Y-80984748D01*
X110443217Y-80984748D02*
X110490836Y-80889510D01*
X110490836Y-80889510D02*
X110490836Y-80603796D01*
X110490836Y-80603796D02*
X110443217Y-80508558D01*
X110443217Y-80508558D02*
X110395598Y-80460939D01*
X110395598Y-80460939D02*
X110300360Y-80413320D01*
X110300360Y-80413320D02*
X110157503Y-80413320D01*
X110157503Y-80413320D02*
X110062265Y-80460939D01*
X110062265Y-80460939D02*
X110014646Y-80508558D01*
X110014646Y-80508558D02*
X109967027Y-80603796D01*
X109967027Y-80603796D02*
X109967027Y-80889510D01*
X109967027Y-80889510D02*
X110014646Y-80984748D01*
X110014646Y-80984748D02*
X110062265Y-81032368D01*
X110062265Y-81032368D02*
X110157503Y-81079987D01*
X110157503Y-81079987D02*
X110300360Y-81079987D01*
X109538455Y-80413320D02*
X109538455Y-81079987D01*
X109538455Y-80508558D02*
X109490836Y-80460939D01*
X109490836Y-80460939D02*
X109395598Y-80413320D01*
X109395598Y-80413320D02*
X109252741Y-80413320D01*
X109252741Y-80413320D02*
X109157503Y-80460939D01*
X109157503Y-80460939D02*
X109109884Y-80556177D01*
X109109884Y-80556177D02*
X109109884Y-81079987D01*
X108681312Y-81032368D02*
X108586074Y-81079987D01*
X108586074Y-81079987D02*
X108395598Y-81079987D01*
X108395598Y-81079987D02*
X108300360Y-81032368D01*
X108300360Y-81032368D02*
X108252741Y-80937129D01*
X108252741Y-80937129D02*
X108252741Y-80889510D01*
X108252741Y-80889510D02*
X108300360Y-80794272D01*
X108300360Y-80794272D02*
X108395598Y-80746653D01*
X108395598Y-80746653D02*
X108538455Y-80746653D01*
X108538455Y-80746653D02*
X108633693Y-80699034D01*
X108633693Y-80699034D02*
X108681312Y-80603796D01*
X108681312Y-80603796D02*
X108681312Y-80556177D01*
X108681312Y-80556177D02*
X108633693Y-80460939D01*
X108633693Y-80460939D02*
X108538455Y-80413320D01*
X108538455Y-80413320D02*
X108395598Y-80413320D01*
X108395598Y-80413320D02*
X108300360Y-80460939D01*
X107205121Y-80413320D02*
X106824169Y-80413320D01*
X107062264Y-80079987D02*
X107062264Y-80937129D01*
X107062264Y-80937129D02*
X107014645Y-81032368D01*
X107014645Y-81032368D02*
X106919407Y-81079987D01*
X106919407Y-81079987D02*
X106824169Y-81079987D01*
X106109883Y-81032368D02*
X106205121Y-81079987D01*
X106205121Y-81079987D02*
X106395597Y-81079987D01*
X106395597Y-81079987D02*
X106490835Y-81032368D01*
X106490835Y-81032368D02*
X106538454Y-80937129D01*
X106538454Y-80937129D02*
X106538454Y-80556177D01*
X106538454Y-80556177D02*
X106490835Y-80460939D01*
X106490835Y-80460939D02*
X106395597Y-80413320D01*
X106395597Y-80413320D02*
X106205121Y-80413320D01*
X106205121Y-80413320D02*
X106109883Y-80460939D01*
X106109883Y-80460939D02*
X106062264Y-80556177D01*
X106062264Y-80556177D02*
X106062264Y-80651415D01*
X106062264Y-80651415D02*
X106538454Y-80746653D01*
X105681311Y-81032368D02*
X105586073Y-81079987D01*
X105586073Y-81079987D02*
X105395597Y-81079987D01*
X105395597Y-81079987D02*
X105300359Y-81032368D01*
X105300359Y-81032368D02*
X105252740Y-80937129D01*
X105252740Y-80937129D02*
X105252740Y-80889510D01*
X105252740Y-80889510D02*
X105300359Y-80794272D01*
X105300359Y-80794272D02*
X105395597Y-80746653D01*
X105395597Y-80746653D02*
X105538454Y-80746653D01*
X105538454Y-80746653D02*
X105633692Y-80699034D01*
X105633692Y-80699034D02*
X105681311Y-80603796D01*
X105681311Y-80603796D02*
X105681311Y-80556177D01*
X105681311Y-80556177D02*
X105633692Y-80460939D01*
X105633692Y-80460939D02*
X105538454Y-80413320D01*
X105538454Y-80413320D02*
X105395597Y-80413320D01*
X105395597Y-80413320D02*
X105300359Y-80460939D01*
X104967025Y-80413320D02*
X104586073Y-80413320D01*
X104824168Y-80079987D02*
X104824168Y-80937129D01*
X104824168Y-80937129D02*
X104776549Y-81032368D01*
X104776549Y-81032368D02*
X104681311Y-81079987D01*
X104681311Y-81079987D02*
X104586073Y-81079987D01*
X103871787Y-81032368D02*
X103967025Y-81079987D01*
X103967025Y-81079987D02*
X104157501Y-81079987D01*
X104157501Y-81079987D02*
X104252739Y-81032368D01*
X104252739Y-81032368D02*
X104300358Y-80937129D01*
X104300358Y-80937129D02*
X104300358Y-80556177D01*
X104300358Y-80556177D02*
X104252739Y-80460939D01*
X104252739Y-80460939D02*
X104157501Y-80413320D01*
X104157501Y-80413320D02*
X103967025Y-80413320D01*
X103967025Y-80413320D02*
X103871787Y-80460939D01*
X103871787Y-80460939D02*
X103824168Y-80556177D01*
X103824168Y-80556177D02*
X103824168Y-80651415D01*
X103824168Y-80651415D02*
X104300358Y-80746653D01*
X103395596Y-81079987D02*
X103395596Y-80413320D01*
X103395596Y-80603796D02*
X103347977Y-80508558D01*
X103347977Y-80508558D02*
X103300358Y-80460939D01*
X103300358Y-80460939D02*
X103205120Y-80413320D01*
X103205120Y-80413320D02*
X103109882Y-80413320D01*
X139014649Y-82023264D02*
X139014649Y-82832788D01*
X139014649Y-82832788D02*
X139062268Y-82928026D01*
X139062268Y-82928026D02*
X139109887Y-82975645D01*
X139109887Y-82975645D02*
X139205125Y-83023264D01*
X139205125Y-83023264D02*
X139347982Y-83023264D01*
X139347982Y-83023264D02*
X139443220Y-82975645D01*
X139014649Y-82642312D02*
X139109887Y-82689931D01*
X139109887Y-82689931D02*
X139300363Y-82689931D01*
X139300363Y-82689931D02*
X139395601Y-82642312D01*
X139395601Y-82642312D02*
X139443220Y-82594692D01*
X139443220Y-82594692D02*
X139490839Y-82499454D01*
X139490839Y-82499454D02*
X139490839Y-82213740D01*
X139490839Y-82213740D02*
X139443220Y-82118502D01*
X139443220Y-82118502D02*
X139395601Y-82070883D01*
X139395601Y-82070883D02*
X139300363Y-82023264D01*
X139300363Y-82023264D02*
X139109887Y-82023264D01*
X139109887Y-82023264D02*
X139014649Y-82070883D01*
X138538458Y-82689931D02*
X138538458Y-82023264D01*
X138538458Y-81689931D02*
X138586077Y-81737550D01*
X138586077Y-81737550D02*
X138538458Y-81785169D01*
X138538458Y-81785169D02*
X138490839Y-81737550D01*
X138490839Y-81737550D02*
X138538458Y-81689931D01*
X138538458Y-81689931D02*
X138538458Y-81785169D01*
X138205125Y-82023264D02*
X137824173Y-82023264D01*
X138062268Y-81689931D02*
X138062268Y-82547073D01*
X138062268Y-82547073D02*
X138014649Y-82642312D01*
X138014649Y-82642312D02*
X137919411Y-82689931D01*
X137919411Y-82689931D02*
X137824173Y-82689931D01*
X137490839Y-82689931D02*
X137490839Y-81689931D01*
X137062268Y-82689931D02*
X137062268Y-82166121D01*
X137062268Y-82166121D02*
X137109887Y-82070883D01*
X137109887Y-82070883D02*
X137205125Y-82023264D01*
X137205125Y-82023264D02*
X137347982Y-82023264D01*
X137347982Y-82023264D02*
X137443220Y-82070883D01*
X137443220Y-82070883D02*
X137490839Y-82118502D01*
X136157506Y-82023264D02*
X136157506Y-82689931D01*
X136586077Y-82023264D02*
X136586077Y-82547073D01*
X136586077Y-82547073D02*
X136538458Y-82642312D01*
X136538458Y-82642312D02*
X136443220Y-82689931D01*
X136443220Y-82689931D02*
X136300363Y-82689931D01*
X136300363Y-82689931D02*
X136205125Y-82642312D01*
X136205125Y-82642312D02*
X136157506Y-82594692D01*
X135681315Y-82689931D02*
X135681315Y-81689931D01*
X135681315Y-82070883D02*
X135586077Y-82023264D01*
X135586077Y-82023264D02*
X135395601Y-82023264D01*
X135395601Y-82023264D02*
X135300363Y-82070883D01*
X135300363Y-82070883D02*
X135252744Y-82118502D01*
X135252744Y-82118502D02*
X135205125Y-82213740D01*
X135205125Y-82213740D02*
X135205125Y-82499454D01*
X135205125Y-82499454D02*
X135252744Y-82594692D01*
X135252744Y-82594692D02*
X135300363Y-82642312D01*
X135300363Y-82642312D02*
X135395601Y-82689931D01*
X135395601Y-82689931D02*
X135586077Y-82689931D01*
X135586077Y-82689931D02*
X135681315Y-82642312D01*
X134776553Y-82594692D02*
X134728934Y-82642312D01*
X134728934Y-82642312D02*
X134776553Y-82689931D01*
X134776553Y-82689931D02*
X134824172Y-82642312D01*
X134824172Y-82642312D02*
X134776553Y-82594692D01*
X134776553Y-82594692D02*
X134776553Y-82689931D01*
X133871792Y-82642312D02*
X133967030Y-82689931D01*
X133967030Y-82689931D02*
X134157506Y-82689931D01*
X134157506Y-82689931D02*
X134252744Y-82642312D01*
X134252744Y-82642312D02*
X134300363Y-82594692D01*
X134300363Y-82594692D02*
X134347982Y-82499454D01*
X134347982Y-82499454D02*
X134347982Y-82213740D01*
X134347982Y-82213740D02*
X134300363Y-82118502D01*
X134300363Y-82118502D02*
X134252744Y-82070883D01*
X134252744Y-82070883D02*
X134157506Y-82023264D01*
X134157506Y-82023264D02*
X133967030Y-82023264D01*
X133967030Y-82023264D02*
X133871792Y-82070883D01*
X133300363Y-82689931D02*
X133395601Y-82642312D01*
X133395601Y-82642312D02*
X133443220Y-82594692D01*
X133443220Y-82594692D02*
X133490839Y-82499454D01*
X133490839Y-82499454D02*
X133490839Y-82213740D01*
X133490839Y-82213740D02*
X133443220Y-82118502D01*
X133443220Y-82118502D02*
X133395601Y-82070883D01*
X133395601Y-82070883D02*
X133300363Y-82023264D01*
X133300363Y-82023264D02*
X133157506Y-82023264D01*
X133157506Y-82023264D02*
X133062268Y-82070883D01*
X133062268Y-82070883D02*
X133014649Y-82118502D01*
X133014649Y-82118502D02*
X132967030Y-82213740D01*
X132967030Y-82213740D02*
X132967030Y-82499454D01*
X132967030Y-82499454D02*
X133014649Y-82594692D01*
X133014649Y-82594692D02*
X133062268Y-82642312D01*
X133062268Y-82642312D02*
X133157506Y-82689931D01*
X133157506Y-82689931D02*
X133300363Y-82689931D01*
X132538458Y-82689931D02*
X132538458Y-82023264D01*
X132538458Y-82118502D02*
X132490839Y-82070883D01*
X132490839Y-82070883D02*
X132395601Y-82023264D01*
X132395601Y-82023264D02*
X132252744Y-82023264D01*
X132252744Y-82023264D02*
X132157506Y-82070883D01*
X132157506Y-82070883D02*
X132109887Y-82166121D01*
X132109887Y-82166121D02*
X132109887Y-82689931D01*
X132109887Y-82166121D02*
X132062268Y-82070883D01*
X132062268Y-82070883D02*
X131967030Y-82023264D01*
X131967030Y-82023264D02*
X131824173Y-82023264D01*
X131824173Y-82023264D02*
X131728934Y-82070883D01*
X131728934Y-82070883D02*
X131681315Y-82166121D01*
X131681315Y-82166121D02*
X131681315Y-82689931D01*
X130490840Y-81642312D02*
X131347982Y-82928026D01*
X130157506Y-82023264D02*
X130157506Y-83023264D01*
X130157506Y-82070883D02*
X130062268Y-82023264D01*
X130062268Y-82023264D02*
X129871792Y-82023264D01*
X129871792Y-82023264D02*
X129776554Y-82070883D01*
X129776554Y-82070883D02*
X129728935Y-82118502D01*
X129728935Y-82118502D02*
X129681316Y-82213740D01*
X129681316Y-82213740D02*
X129681316Y-82499454D01*
X129681316Y-82499454D02*
X129728935Y-82594692D01*
X129728935Y-82594692D02*
X129776554Y-82642312D01*
X129776554Y-82642312D02*
X129871792Y-82689931D01*
X129871792Y-82689931D02*
X130062268Y-82689931D01*
X130062268Y-82689931D02*
X130157506Y-82642312D01*
X129252744Y-82689931D02*
X129252744Y-82023264D01*
X129252744Y-81689931D02*
X129300363Y-81737550D01*
X129300363Y-81737550D02*
X129252744Y-81785169D01*
X129252744Y-81785169D02*
X129205125Y-81737550D01*
X129205125Y-81737550D02*
X129252744Y-81689931D01*
X129252744Y-81689931D02*
X129252744Y-81785169D01*
X128395602Y-82642312D02*
X128490840Y-82689931D01*
X128490840Y-82689931D02*
X128681316Y-82689931D01*
X128681316Y-82689931D02*
X128776554Y-82642312D01*
X128776554Y-82642312D02*
X128824173Y-82547073D01*
X128824173Y-82547073D02*
X128824173Y-82166121D01*
X128824173Y-82166121D02*
X128776554Y-82070883D01*
X128776554Y-82070883D02*
X128681316Y-82023264D01*
X128681316Y-82023264D02*
X128490840Y-82023264D01*
X128490840Y-82023264D02*
X128395602Y-82070883D01*
X128395602Y-82070883D02*
X128347983Y-82166121D01*
X128347983Y-82166121D02*
X128347983Y-82261359D01*
X128347983Y-82261359D02*
X128824173Y-82356597D01*
X128062268Y-82023264D02*
X127681316Y-82023264D01*
X127919411Y-81689931D02*
X127919411Y-82547073D01*
X127919411Y-82547073D02*
X127871792Y-82642312D01*
X127871792Y-82642312D02*
X127776554Y-82689931D01*
X127776554Y-82689931D02*
X127681316Y-82689931D01*
X127443220Y-82023264D02*
X127252744Y-82689931D01*
X127252744Y-82689931D02*
X127062268Y-82213740D01*
X127062268Y-82213740D02*
X126871792Y-82689931D01*
X126871792Y-82689931D02*
X126681316Y-82023264D01*
X125871792Y-82689931D02*
X125871792Y-82166121D01*
X125871792Y-82166121D02*
X125919411Y-82070883D01*
X125919411Y-82070883D02*
X126014649Y-82023264D01*
X126014649Y-82023264D02*
X126205125Y-82023264D01*
X126205125Y-82023264D02*
X126300363Y-82070883D01*
X125871792Y-82642312D02*
X125967030Y-82689931D01*
X125967030Y-82689931D02*
X126205125Y-82689931D01*
X126205125Y-82689931D02*
X126300363Y-82642312D01*
X126300363Y-82642312D02*
X126347982Y-82547073D01*
X126347982Y-82547073D02*
X126347982Y-82451835D01*
X126347982Y-82451835D02*
X126300363Y-82356597D01*
X126300363Y-82356597D02*
X126205125Y-82308978D01*
X126205125Y-82308978D02*
X125967030Y-82308978D01*
X125967030Y-82308978D02*
X125871792Y-82261359D01*
X124967030Y-82023264D02*
X124967030Y-82689931D01*
X125395601Y-82023264D02*
X125395601Y-82547073D01*
X125395601Y-82547073D02*
X125347982Y-82642312D01*
X125347982Y-82642312D02*
X125252744Y-82689931D01*
X125252744Y-82689931D02*
X125109887Y-82689931D01*
X125109887Y-82689931D02*
X125014649Y-82642312D01*
X125014649Y-82642312D02*
X124967030Y-82594692D01*
X124633696Y-82023264D02*
X124252744Y-82023264D01*
X124490839Y-81689931D02*
X124490839Y-82547073D01*
X124490839Y-82547073D02*
X124443220Y-82642312D01*
X124443220Y-82642312D02*
X124347982Y-82689931D01*
X124347982Y-82689931D02*
X124252744Y-82689931D01*
X123538458Y-82642312D02*
X123633696Y-82689931D01*
X123633696Y-82689931D02*
X123824172Y-82689931D01*
X123824172Y-82689931D02*
X123919410Y-82642312D01*
X123919410Y-82642312D02*
X123967029Y-82547073D01*
X123967029Y-82547073D02*
X123967029Y-82166121D01*
X123967029Y-82166121D02*
X123919410Y-82070883D01*
X123919410Y-82070883D02*
X123824172Y-82023264D01*
X123824172Y-82023264D02*
X123633696Y-82023264D01*
X123633696Y-82023264D02*
X123538458Y-82070883D01*
X123538458Y-82070883D02*
X123490839Y-82166121D01*
X123490839Y-82166121D02*
X123490839Y-82261359D01*
X123490839Y-82261359D02*
X123967029Y-82356597D01*
X123062267Y-82689931D02*
X123062267Y-82023264D01*
X123062267Y-82213740D02*
X123014648Y-82118502D01*
X123014648Y-82118502D02*
X122967029Y-82070883D01*
X122967029Y-82070883D02*
X122871791Y-82023264D01*
X122871791Y-82023264D02*
X122776553Y-82023264D01*
X122490838Y-82642312D02*
X122395600Y-82689931D01*
X122395600Y-82689931D02*
X122205124Y-82689931D01*
X122205124Y-82689931D02*
X122109886Y-82642312D01*
X122109886Y-82642312D02*
X122062267Y-82547073D01*
X122062267Y-82547073D02*
X122062267Y-82499454D01*
X122062267Y-82499454D02*
X122109886Y-82404216D01*
X122109886Y-82404216D02*
X122205124Y-82356597D01*
X122205124Y-82356597D02*
X122347981Y-82356597D01*
X122347981Y-82356597D02*
X122443219Y-82308978D01*
X122443219Y-82308978D02*
X122490838Y-82213740D01*
X122490838Y-82213740D02*
X122490838Y-82166121D01*
X122490838Y-82166121D02*
X122443219Y-82070883D01*
X122443219Y-82070883D02*
X122347981Y-82023264D01*
X122347981Y-82023264D02*
X122205124Y-82023264D01*
X122205124Y-82023264D02*
X122109886Y-82070883D01*
X120919410Y-81642312D02*
X121776552Y-82928026D01*
X120205124Y-82642312D02*
X120300362Y-82689931D01*
X120300362Y-82689931D02*
X120490838Y-82689931D01*
X120490838Y-82689931D02*
X120586076Y-82642312D01*
X120586076Y-82642312D02*
X120633695Y-82547073D01*
X120633695Y-82547073D02*
X120633695Y-82166121D01*
X120633695Y-82166121D02*
X120586076Y-82070883D01*
X120586076Y-82070883D02*
X120490838Y-82023264D01*
X120490838Y-82023264D02*
X120300362Y-82023264D01*
X120300362Y-82023264D02*
X120205124Y-82070883D01*
X120205124Y-82070883D02*
X120157505Y-82166121D01*
X120157505Y-82166121D02*
X120157505Y-82261359D01*
X120157505Y-82261359D02*
X120633695Y-82356597D01*
X119776552Y-82642312D02*
X119681314Y-82689931D01*
X119681314Y-82689931D02*
X119490838Y-82689931D01*
X119490838Y-82689931D02*
X119395600Y-82642312D01*
X119395600Y-82642312D02*
X119347981Y-82547073D01*
X119347981Y-82547073D02*
X119347981Y-82499454D01*
X119347981Y-82499454D02*
X119395600Y-82404216D01*
X119395600Y-82404216D02*
X119490838Y-82356597D01*
X119490838Y-82356597D02*
X119633695Y-82356597D01*
X119633695Y-82356597D02*
X119728933Y-82308978D01*
X119728933Y-82308978D02*
X119776552Y-82213740D01*
X119776552Y-82213740D02*
X119776552Y-82166121D01*
X119776552Y-82166121D02*
X119728933Y-82070883D01*
X119728933Y-82070883D02*
X119633695Y-82023264D01*
X119633695Y-82023264D02*
X119490838Y-82023264D01*
X119490838Y-82023264D02*
X119395600Y-82070883D01*
X118919409Y-82023264D02*
X118919409Y-83023264D01*
X118919409Y-82070883D02*
X118824171Y-82023264D01*
X118824171Y-82023264D02*
X118633695Y-82023264D01*
X118633695Y-82023264D02*
X118538457Y-82070883D01*
X118538457Y-82070883D02*
X118490838Y-82118502D01*
X118490838Y-82118502D02*
X118443219Y-82213740D01*
X118443219Y-82213740D02*
X118443219Y-82499454D01*
X118443219Y-82499454D02*
X118490838Y-82594692D01*
X118490838Y-82594692D02*
X118538457Y-82642312D01*
X118538457Y-82642312D02*
X118633695Y-82689931D01*
X118633695Y-82689931D02*
X118824171Y-82689931D01*
X118824171Y-82689931D02*
X118919409Y-82642312D01*
X118109885Y-81689931D02*
X117490838Y-81689931D01*
X117490838Y-81689931D02*
X117824171Y-82070883D01*
X117824171Y-82070883D02*
X117681314Y-82070883D01*
X117681314Y-82070883D02*
X117586076Y-82118502D01*
X117586076Y-82118502D02*
X117538457Y-82166121D01*
X117538457Y-82166121D02*
X117490838Y-82261359D01*
X117490838Y-82261359D02*
X117490838Y-82499454D01*
X117490838Y-82499454D02*
X117538457Y-82594692D01*
X117538457Y-82594692D02*
X117586076Y-82642312D01*
X117586076Y-82642312D02*
X117681314Y-82689931D01*
X117681314Y-82689931D02*
X117967028Y-82689931D01*
X117967028Y-82689931D02*
X118062266Y-82642312D01*
X118062266Y-82642312D02*
X118109885Y-82594692D01*
X117109885Y-81785169D02*
X117062266Y-81737550D01*
X117062266Y-81737550D02*
X116967028Y-81689931D01*
X116967028Y-81689931D02*
X116728933Y-81689931D01*
X116728933Y-81689931D02*
X116633695Y-81737550D01*
X116633695Y-81737550D02*
X116586076Y-81785169D01*
X116586076Y-81785169D02*
X116538457Y-81880407D01*
X116538457Y-81880407D02*
X116538457Y-81975645D01*
X116538457Y-81975645D02*
X116586076Y-82118502D01*
X116586076Y-82118502D02*
X117157504Y-82689931D01*
X117157504Y-82689931D02*
X116538457Y-82689931D01*
X116347981Y-82785169D02*
X115586076Y-82785169D01*
X115395599Y-82642312D02*
X115300361Y-82689931D01*
X115300361Y-82689931D02*
X115109885Y-82689931D01*
X115109885Y-82689931D02*
X115014647Y-82642312D01*
X115014647Y-82642312D02*
X114967028Y-82547073D01*
X114967028Y-82547073D02*
X114967028Y-82499454D01*
X114967028Y-82499454D02*
X115014647Y-82404216D01*
X115014647Y-82404216D02*
X115109885Y-82356597D01*
X115109885Y-82356597D02*
X115252742Y-82356597D01*
X115252742Y-82356597D02*
X115347980Y-82308978D01*
X115347980Y-82308978D02*
X115395599Y-82213740D01*
X115395599Y-82213740D02*
X115395599Y-82166121D01*
X115395599Y-82166121D02*
X115347980Y-82070883D01*
X115347980Y-82070883D02*
X115252742Y-82023264D01*
X115252742Y-82023264D02*
X115109885Y-82023264D01*
X115109885Y-82023264D02*
X115014647Y-82070883D01*
X114109885Y-82642312D02*
X114205123Y-82689931D01*
X114205123Y-82689931D02*
X114395599Y-82689931D01*
X114395599Y-82689931D02*
X114490837Y-82642312D01*
X114490837Y-82642312D02*
X114538456Y-82594692D01*
X114538456Y-82594692D02*
X114586075Y-82499454D01*
X114586075Y-82499454D02*
X114586075Y-82213740D01*
X114586075Y-82213740D02*
X114538456Y-82118502D01*
X114538456Y-82118502D02*
X114490837Y-82070883D01*
X114490837Y-82070883D02*
X114395599Y-82023264D01*
X114395599Y-82023264D02*
X114205123Y-82023264D01*
X114205123Y-82023264D02*
X114109885Y-82070883D01*
X113538456Y-82689931D02*
X113633694Y-82642312D01*
X113633694Y-82642312D02*
X113681313Y-82594692D01*
X113681313Y-82594692D02*
X113728932Y-82499454D01*
X113728932Y-82499454D02*
X113728932Y-82213740D01*
X113728932Y-82213740D02*
X113681313Y-82118502D01*
X113681313Y-82118502D02*
X113633694Y-82070883D01*
X113633694Y-82070883D02*
X113538456Y-82023264D01*
X113538456Y-82023264D02*
X113395599Y-82023264D01*
X113395599Y-82023264D02*
X113300361Y-82070883D01*
X113300361Y-82070883D02*
X113252742Y-82118502D01*
X113252742Y-82118502D02*
X113205123Y-82213740D01*
X113205123Y-82213740D02*
X113205123Y-82499454D01*
X113205123Y-82499454D02*
X113252742Y-82594692D01*
X113252742Y-82594692D02*
X113300361Y-82642312D01*
X113300361Y-82642312D02*
X113395599Y-82689931D01*
X113395599Y-82689931D02*
X113538456Y-82689931D01*
X112776551Y-82689931D02*
X112776551Y-82023264D01*
X112776551Y-82213740D02*
X112728932Y-82118502D01*
X112728932Y-82118502D02*
X112681313Y-82070883D01*
X112681313Y-82070883D02*
X112586075Y-82023264D01*
X112586075Y-82023264D02*
X112490837Y-82023264D01*
X112157503Y-82689931D02*
X112157503Y-82023264D01*
X112157503Y-81689931D02*
X112205122Y-81737550D01*
X112205122Y-81737550D02*
X112157503Y-81785169D01*
X112157503Y-81785169D02*
X112109884Y-81737550D01*
X112109884Y-81737550D02*
X112157503Y-81689931D01*
X112157503Y-81689931D02*
X112157503Y-81785169D01*
X111681313Y-82023264D02*
X111681313Y-82689931D01*
X111681313Y-82118502D02*
X111633694Y-82070883D01*
X111633694Y-82070883D02*
X111538456Y-82023264D01*
X111538456Y-82023264D02*
X111395599Y-82023264D01*
X111395599Y-82023264D02*
X111300361Y-82070883D01*
X111300361Y-82070883D02*
X111252742Y-82166121D01*
X111252742Y-82166121D02*
X111252742Y-82689931D01*
X110347980Y-82023264D02*
X110347980Y-82832788D01*
X110347980Y-82832788D02*
X110395599Y-82928026D01*
X110395599Y-82928026D02*
X110443218Y-82975645D01*
X110443218Y-82975645D02*
X110538456Y-83023264D01*
X110538456Y-83023264D02*
X110681313Y-83023264D01*
X110681313Y-83023264D02*
X110776551Y-82975645D01*
X110347980Y-82642312D02*
X110443218Y-82689931D01*
X110443218Y-82689931D02*
X110633694Y-82689931D01*
X110633694Y-82689931D02*
X110728932Y-82642312D01*
X110728932Y-82642312D02*
X110776551Y-82594692D01*
X110776551Y-82594692D02*
X110824170Y-82499454D01*
X110824170Y-82499454D02*
X110824170Y-82213740D01*
X110824170Y-82213740D02*
X110776551Y-82118502D01*
X110776551Y-82118502D02*
X110728932Y-82070883D01*
X110728932Y-82070883D02*
X110633694Y-82023264D01*
X110633694Y-82023264D02*
X110443218Y-82023264D01*
X110443218Y-82023264D02*
X110347980Y-82070883D01*
X110109885Y-82785169D02*
X109347980Y-82785169D01*
X108681313Y-82689931D02*
X108681313Y-81689931D01*
X108681313Y-82642312D02*
X108776551Y-82689931D01*
X108776551Y-82689931D02*
X108967027Y-82689931D01*
X108967027Y-82689931D02*
X109062265Y-82642312D01*
X109062265Y-82642312D02*
X109109884Y-82594692D01*
X109109884Y-82594692D02*
X109157503Y-82499454D01*
X109157503Y-82499454D02*
X109157503Y-82213740D01*
X109157503Y-82213740D02*
X109109884Y-82118502D01*
X109109884Y-82118502D02*
X109062265Y-82070883D01*
X109062265Y-82070883D02*
X108967027Y-82023264D01*
X108967027Y-82023264D02*
X108776551Y-82023264D01*
X108776551Y-82023264D02*
X108681313Y-82070883D01*
X107824170Y-82642312D02*
X107919408Y-82689931D01*
X107919408Y-82689931D02*
X108109884Y-82689931D01*
X108109884Y-82689931D02*
X108205122Y-82642312D01*
X108205122Y-82642312D02*
X108252741Y-82547073D01*
X108252741Y-82547073D02*
X108252741Y-82166121D01*
X108252741Y-82166121D02*
X108205122Y-82070883D01*
X108205122Y-82070883D02*
X108109884Y-82023264D01*
X108109884Y-82023264D02*
X107919408Y-82023264D01*
X107919408Y-82023264D02*
X107824170Y-82070883D01*
X107824170Y-82070883D02*
X107776551Y-82166121D01*
X107776551Y-82166121D02*
X107776551Y-82261359D01*
X107776551Y-82261359D02*
X108252741Y-82356597D01*
X107443217Y-82023264D02*
X107205122Y-82689931D01*
X107205122Y-82689931D02*
X106967027Y-82023264D01*
X106586074Y-82689931D02*
X106586074Y-82023264D01*
X106586074Y-81689931D02*
X106633693Y-81737550D01*
X106633693Y-81737550D02*
X106586074Y-81785169D01*
X106586074Y-81785169D02*
X106538455Y-81737550D01*
X106538455Y-81737550D02*
X106586074Y-81689931D01*
X106586074Y-81689931D02*
X106586074Y-81785169D01*
X105681313Y-82642312D02*
X105776551Y-82689931D01*
X105776551Y-82689931D02*
X105967027Y-82689931D01*
X105967027Y-82689931D02*
X106062265Y-82642312D01*
X106062265Y-82642312D02*
X106109884Y-82594692D01*
X106109884Y-82594692D02*
X106157503Y-82499454D01*
X106157503Y-82499454D02*
X106157503Y-82213740D01*
X106157503Y-82213740D02*
X106109884Y-82118502D01*
X106109884Y-82118502D02*
X106062265Y-82070883D01*
X106062265Y-82070883D02*
X105967027Y-82023264D01*
X105967027Y-82023264D02*
X105776551Y-82023264D01*
X105776551Y-82023264D02*
X105681313Y-82070883D01*
X104871789Y-82642312D02*
X104967027Y-82689931D01*
X104967027Y-82689931D02*
X105157503Y-82689931D01*
X105157503Y-82689931D02*
X105252741Y-82642312D01*
X105252741Y-82642312D02*
X105300360Y-82547073D01*
X105300360Y-82547073D02*
X105300360Y-82166121D01*
X105300360Y-82166121D02*
X105252741Y-82070883D01*
X105252741Y-82070883D02*
X105157503Y-82023264D01*
X105157503Y-82023264D02*
X104967027Y-82023264D01*
X104967027Y-82023264D02*
X104871789Y-82070883D01*
X104871789Y-82070883D02*
X104824170Y-82166121D01*
X104824170Y-82166121D02*
X104824170Y-82261359D01*
X104824170Y-82261359D02*
X105300360Y-82356597D01*
X104633694Y-82785169D02*
X103871789Y-82785169D01*
X103633693Y-82689931D02*
X103633693Y-81689931D01*
X103205122Y-82689931D02*
X103205122Y-82166121D01*
X103205122Y-82166121D02*
X103252741Y-82070883D01*
X103252741Y-82070883D02*
X103347979Y-82023264D01*
X103347979Y-82023264D02*
X103490836Y-82023264D01*
X103490836Y-82023264D02*
X103586074Y-82070883D01*
X103586074Y-82070883D02*
X103633693Y-82118502D01*
X102300360Y-82689931D02*
X102300360Y-82166121D01*
X102300360Y-82166121D02*
X102347979Y-82070883D01*
X102347979Y-82070883D02*
X102443217Y-82023264D01*
X102443217Y-82023264D02*
X102633693Y-82023264D01*
X102633693Y-82023264D02*
X102728931Y-82070883D01*
X102300360Y-82642312D02*
X102395598Y-82689931D01*
X102395598Y-82689931D02*
X102633693Y-82689931D01*
X102633693Y-82689931D02*
X102728931Y-82642312D01*
X102728931Y-82642312D02*
X102776550Y-82547073D01*
X102776550Y-82547073D02*
X102776550Y-82451835D01*
X102776550Y-82451835D02*
X102728931Y-82356597D01*
X102728931Y-82356597D02*
X102633693Y-82308978D01*
X102633693Y-82308978D02*
X102395598Y-82308978D01*
X102395598Y-82308978D02*
X102300360Y-82261359D01*
X101824169Y-82689931D02*
X101824169Y-82023264D01*
X101824169Y-82213740D02*
X101776550Y-82118502D01*
X101776550Y-82118502D02*
X101728931Y-82070883D01*
X101728931Y-82070883D02*
X101633693Y-82023264D01*
X101633693Y-82023264D02*
X101538455Y-82023264D01*
X100776550Y-82689931D02*
X100776550Y-81689931D01*
X100776550Y-82642312D02*
X100871788Y-82689931D01*
X100871788Y-82689931D02*
X101062264Y-82689931D01*
X101062264Y-82689931D02*
X101157502Y-82642312D01*
X101157502Y-82642312D02*
X101205121Y-82594692D01*
X101205121Y-82594692D02*
X101252740Y-82499454D01*
X101252740Y-82499454D02*
X101252740Y-82213740D01*
X101252740Y-82213740D02*
X101205121Y-82118502D01*
X101205121Y-82118502D02*
X101157502Y-82070883D01*
X101157502Y-82070883D02*
X101062264Y-82023264D01*
X101062264Y-82023264D02*
X100871788Y-82023264D01*
X100871788Y-82023264D02*
X100776550Y-82070883D01*
X100395597Y-82023264D02*
X100205121Y-82689931D01*
X100205121Y-82689931D02*
X100014645Y-82213740D01*
X100014645Y-82213740D02*
X99824169Y-82689931D01*
X99824169Y-82689931D02*
X99633693Y-82023264D01*
X98824169Y-82689931D02*
X98824169Y-82166121D01*
X98824169Y-82166121D02*
X98871788Y-82070883D01*
X98871788Y-82070883D02*
X98967026Y-82023264D01*
X98967026Y-82023264D02*
X99157502Y-82023264D01*
X99157502Y-82023264D02*
X99252740Y-82070883D01*
X98824169Y-82642312D02*
X98919407Y-82689931D01*
X98919407Y-82689931D02*
X99157502Y-82689931D01*
X99157502Y-82689931D02*
X99252740Y-82642312D01*
X99252740Y-82642312D02*
X99300359Y-82547073D01*
X99300359Y-82547073D02*
X99300359Y-82451835D01*
X99300359Y-82451835D02*
X99252740Y-82356597D01*
X99252740Y-82356597D02*
X99157502Y-82308978D01*
X99157502Y-82308978D02*
X98919407Y-82308978D01*
X98919407Y-82308978D02*
X98824169Y-82261359D01*
X98347978Y-82689931D02*
X98347978Y-82023264D01*
X98347978Y-82213740D02*
X98300359Y-82118502D01*
X98300359Y-82118502D02*
X98252740Y-82070883D01*
X98252740Y-82070883D02*
X98157502Y-82023264D01*
X98157502Y-82023264D02*
X98062264Y-82023264D01*
X97347978Y-82642312D02*
X97443216Y-82689931D01*
X97443216Y-82689931D02*
X97633692Y-82689931D01*
X97633692Y-82689931D02*
X97728930Y-82642312D01*
X97728930Y-82642312D02*
X97776549Y-82547073D01*
X97776549Y-82547073D02*
X97776549Y-82166121D01*
X97776549Y-82166121D02*
X97728930Y-82070883D01*
X97728930Y-82070883D02*
X97633692Y-82023264D01*
X97633692Y-82023264D02*
X97443216Y-82023264D01*
X97443216Y-82023264D02*
X97347978Y-82070883D01*
X97347978Y-82070883D02*
X97300359Y-82166121D01*
X97300359Y-82166121D02*
X97300359Y-82261359D01*
X97300359Y-82261359D02*
X97776549Y-82356597D01*
X138633696Y-83537970D02*
X138728935Y-83490351D01*
X138728935Y-83490351D02*
X138919411Y-83490351D01*
X138919411Y-83490351D02*
X139014649Y-83537970D01*
X139014649Y-83537970D02*
X139109887Y-83633208D01*
X139109887Y-83633208D02*
X139157506Y-83728446D01*
X139157506Y-83728446D02*
X139157506Y-83918922D01*
X139157506Y-83918922D02*
X139109887Y-84014160D01*
X139109887Y-84014160D02*
X139014649Y-84109398D01*
X139014649Y-84109398D02*
X138919411Y-84157017D01*
X138919411Y-84157017D02*
X138728935Y-84157017D01*
X138728935Y-84157017D02*
X138633696Y-84109398D01*
X138824173Y-83157017D02*
X139062268Y-83204636D01*
X139062268Y-83204636D02*
X139300363Y-83347494D01*
X139300363Y-83347494D02*
X139443220Y-83585589D01*
X139443220Y-83585589D02*
X139490839Y-83823684D01*
X139490839Y-83823684D02*
X139443220Y-84061779D01*
X139443220Y-84061779D02*
X139300363Y-84299875D01*
X139300363Y-84299875D02*
X139062268Y-84442732D01*
X139062268Y-84442732D02*
X138824173Y-84490351D01*
X138824173Y-84490351D02*
X138586077Y-84442732D01*
X138586077Y-84442732D02*
X138347982Y-84299875D01*
X138347982Y-84299875D02*
X138205125Y-84061779D01*
X138205125Y-84061779D02*
X138157506Y-83823684D01*
X138157506Y-83823684D02*
X138205125Y-83585589D01*
X138205125Y-83585589D02*
X138347982Y-83347494D01*
X138347982Y-83347494D02*
X138586077Y-83204636D01*
X138586077Y-83204636D02*
X138824173Y-83157017D01*
X137728934Y-84299875D02*
X137728934Y-83299875D01*
X137728934Y-83299875D02*
X137347982Y-83299875D01*
X137347982Y-83299875D02*
X137252744Y-83347494D01*
X137252744Y-83347494D02*
X137205125Y-83395113D01*
X137205125Y-83395113D02*
X137157506Y-83490351D01*
X137157506Y-83490351D02*
X137157506Y-83633208D01*
X137157506Y-83633208D02*
X137205125Y-83728446D01*
X137205125Y-83728446D02*
X137252744Y-83776065D01*
X137252744Y-83776065D02*
X137347982Y-83823684D01*
X137347982Y-83823684D02*
X137728934Y-83823684D01*
X136728934Y-84299875D02*
X136728934Y-83633208D01*
X136728934Y-83299875D02*
X136776553Y-83347494D01*
X136776553Y-83347494D02*
X136728934Y-83395113D01*
X136728934Y-83395113D02*
X136681315Y-83347494D01*
X136681315Y-83347494D02*
X136728934Y-83299875D01*
X136728934Y-83299875D02*
X136728934Y-83395113D01*
X135871792Y-84252256D02*
X135967030Y-84299875D01*
X135967030Y-84299875D02*
X136157506Y-84299875D01*
X136157506Y-84299875D02*
X136252744Y-84252256D01*
X136252744Y-84252256D02*
X136300363Y-84157017D01*
X136300363Y-84157017D02*
X136300363Y-83776065D01*
X136300363Y-83776065D02*
X136252744Y-83680827D01*
X136252744Y-83680827D02*
X136157506Y-83633208D01*
X136157506Y-83633208D02*
X135967030Y-83633208D01*
X135967030Y-83633208D02*
X135871792Y-83680827D01*
X135871792Y-83680827D02*
X135824173Y-83776065D01*
X135824173Y-83776065D02*
X135824173Y-83871303D01*
X135824173Y-83871303D02*
X136300363Y-83966541D01*
X135538458Y-83633208D02*
X135157506Y-83633208D01*
X135395601Y-83299875D02*
X135395601Y-84157017D01*
X135395601Y-84157017D02*
X135347982Y-84252256D01*
X135347982Y-84252256D02*
X135252744Y-84299875D01*
X135252744Y-84299875D02*
X135157506Y-84299875D01*
X134157505Y-83299875D02*
X133919410Y-84299875D01*
X133919410Y-84299875D02*
X133728934Y-83585589D01*
X133728934Y-83585589D02*
X133538458Y-84299875D01*
X133538458Y-84299875D02*
X133300363Y-83299875D01*
X132490839Y-84299875D02*
X132490839Y-83776065D01*
X132490839Y-83776065D02*
X132538458Y-83680827D01*
X132538458Y-83680827D02*
X132633696Y-83633208D01*
X132633696Y-83633208D02*
X132824172Y-83633208D01*
X132824172Y-83633208D02*
X132919410Y-83680827D01*
X132490839Y-84252256D02*
X132586077Y-84299875D01*
X132586077Y-84299875D02*
X132824172Y-84299875D01*
X132824172Y-84299875D02*
X132919410Y-84252256D01*
X132919410Y-84252256D02*
X132967029Y-84157017D01*
X132967029Y-84157017D02*
X132967029Y-84061779D01*
X132967029Y-84061779D02*
X132919410Y-83966541D01*
X132919410Y-83966541D02*
X132824172Y-83918922D01*
X132824172Y-83918922D02*
X132586077Y-83918922D01*
X132586077Y-83918922D02*
X132490839Y-83871303D01*
X131586077Y-83633208D02*
X131586077Y-84299875D01*
X132014648Y-83633208D02*
X132014648Y-84157017D01*
X132014648Y-84157017D02*
X131967029Y-84252256D01*
X131967029Y-84252256D02*
X131871791Y-84299875D01*
X131871791Y-84299875D02*
X131728934Y-84299875D01*
X131728934Y-84299875D02*
X131633696Y-84252256D01*
X131633696Y-84252256D02*
X131586077Y-84204636D01*
X131252743Y-83633208D02*
X130871791Y-83633208D01*
X131109886Y-83299875D02*
X131109886Y-84157017D01*
X131109886Y-84157017D02*
X131062267Y-84252256D01*
X131062267Y-84252256D02*
X130967029Y-84299875D01*
X130967029Y-84299875D02*
X130871791Y-84299875D01*
X130157505Y-84252256D02*
X130252743Y-84299875D01*
X130252743Y-84299875D02*
X130443219Y-84299875D01*
X130443219Y-84299875D02*
X130538457Y-84252256D01*
X130538457Y-84252256D02*
X130586076Y-84157017D01*
X130586076Y-84157017D02*
X130586076Y-83776065D01*
X130586076Y-83776065D02*
X130538457Y-83680827D01*
X130538457Y-83680827D02*
X130443219Y-83633208D01*
X130443219Y-83633208D02*
X130252743Y-83633208D01*
X130252743Y-83633208D02*
X130157505Y-83680827D01*
X130157505Y-83680827D02*
X130109886Y-83776065D01*
X130109886Y-83776065D02*
X130109886Y-83871303D01*
X130109886Y-83871303D02*
X130586076Y-83966541D01*
X129681314Y-84299875D02*
X129681314Y-83633208D01*
X129681314Y-83823684D02*
X129633695Y-83728446D01*
X129633695Y-83728446D02*
X129586076Y-83680827D01*
X129586076Y-83680827D02*
X129490838Y-83633208D01*
X129490838Y-83633208D02*
X129395600Y-83633208D01*
X129109885Y-84252256D02*
X129014647Y-84299875D01*
X129014647Y-84299875D02*
X128824171Y-84299875D01*
X128824171Y-84299875D02*
X128728933Y-84252256D01*
X128728933Y-84252256D02*
X128681314Y-84157017D01*
X128681314Y-84157017D02*
X128681314Y-84109398D01*
X128681314Y-84109398D02*
X128728933Y-84014160D01*
X128728933Y-84014160D02*
X128824171Y-83966541D01*
X128824171Y-83966541D02*
X128967028Y-83966541D01*
X128967028Y-83966541D02*
X129062266Y-83918922D01*
X129062266Y-83918922D02*
X129109885Y-83823684D01*
X129109885Y-83823684D02*
X129109885Y-83776065D01*
X129109885Y-83776065D02*
X129062266Y-83680827D01*
X129062266Y-83680827D02*
X128967028Y-83633208D01*
X128967028Y-83633208D02*
X128824171Y-83633208D01*
X128824171Y-83633208D02*
X128728933Y-83680827D01*
X127538456Y-83395113D02*
X127490837Y-83347494D01*
X127490837Y-83347494D02*
X127395599Y-83299875D01*
X127395599Y-83299875D02*
X127157504Y-83299875D01*
X127157504Y-83299875D02*
X127062266Y-83347494D01*
X127062266Y-83347494D02*
X127014647Y-83395113D01*
X127014647Y-83395113D02*
X126967028Y-83490351D01*
X126967028Y-83490351D02*
X126967028Y-83585589D01*
X126967028Y-83585589D02*
X127014647Y-83728446D01*
X127014647Y-83728446D02*
X127586075Y-84299875D01*
X127586075Y-84299875D02*
X126967028Y-84299875D01*
X126347980Y-83299875D02*
X126252742Y-83299875D01*
X126252742Y-83299875D02*
X126157504Y-83347494D01*
X126157504Y-83347494D02*
X126109885Y-83395113D01*
X126109885Y-83395113D02*
X126062266Y-83490351D01*
X126062266Y-83490351D02*
X126014647Y-83680827D01*
X126014647Y-83680827D02*
X126014647Y-83918922D01*
X126014647Y-83918922D02*
X126062266Y-84109398D01*
X126062266Y-84109398D02*
X126109885Y-84204636D01*
X126109885Y-84204636D02*
X126157504Y-84252256D01*
X126157504Y-84252256D02*
X126252742Y-84299875D01*
X126252742Y-84299875D02*
X126347980Y-84299875D01*
X126347980Y-84299875D02*
X126443218Y-84252256D01*
X126443218Y-84252256D02*
X126490837Y-84204636D01*
X126490837Y-84204636D02*
X126538456Y-84109398D01*
X126538456Y-84109398D02*
X126586075Y-83918922D01*
X126586075Y-83918922D02*
X126586075Y-83680827D01*
X126586075Y-83680827D02*
X126538456Y-83490351D01*
X126538456Y-83490351D02*
X126490837Y-83395113D01*
X126490837Y-83395113D02*
X126443218Y-83347494D01*
X126443218Y-83347494D02*
X126347980Y-83299875D01*
X125633694Y-83395113D02*
X125586075Y-83347494D01*
X125586075Y-83347494D02*
X125490837Y-83299875D01*
X125490837Y-83299875D02*
X125252742Y-83299875D01*
X125252742Y-83299875D02*
X125157504Y-83347494D01*
X125157504Y-83347494D02*
X125109885Y-83395113D01*
X125109885Y-83395113D02*
X125062266Y-83490351D01*
X125062266Y-83490351D02*
X125062266Y-83585589D01*
X125062266Y-83585589D02*
X125109885Y-83728446D01*
X125109885Y-83728446D02*
X125681313Y-84299875D01*
X125681313Y-84299875D02*
X125062266Y-84299875D01*
X124205123Y-83633208D02*
X124205123Y-84299875D01*
X124443218Y-83252256D02*
X124681313Y-83966541D01*
X124681313Y-83966541D02*
X124062266Y-83966541D01*
X122395599Y-83347494D02*
X122490837Y-83299875D01*
X122490837Y-83299875D02*
X122633694Y-83299875D01*
X122633694Y-83299875D02*
X122776551Y-83347494D01*
X122776551Y-83347494D02*
X122871789Y-83442732D01*
X122871789Y-83442732D02*
X122919408Y-83537970D01*
X122919408Y-83537970D02*
X122967027Y-83728446D01*
X122967027Y-83728446D02*
X122967027Y-83871303D01*
X122967027Y-83871303D02*
X122919408Y-84061779D01*
X122919408Y-84061779D02*
X122871789Y-84157017D01*
X122871789Y-84157017D02*
X122776551Y-84252256D01*
X122776551Y-84252256D02*
X122633694Y-84299875D01*
X122633694Y-84299875D02*
X122538456Y-84299875D01*
X122538456Y-84299875D02*
X122395599Y-84252256D01*
X122395599Y-84252256D02*
X122347980Y-84204636D01*
X122347980Y-84204636D02*
X122347980Y-83871303D01*
X122347980Y-83871303D02*
X122538456Y-83871303D01*
X121919408Y-84299875D02*
X121919408Y-83299875D01*
X121919408Y-83299875D02*
X121347980Y-84299875D01*
X121347980Y-84299875D02*
X121347980Y-83299875D01*
X120871789Y-83299875D02*
X120871789Y-84109398D01*
X120871789Y-84109398D02*
X120824170Y-84204636D01*
X120824170Y-84204636D02*
X120776551Y-84252256D01*
X120776551Y-84252256D02*
X120681313Y-84299875D01*
X120681313Y-84299875D02*
X120490837Y-84299875D01*
X120490837Y-84299875D02*
X120395599Y-84252256D01*
X120395599Y-84252256D02*
X120347980Y-84204636D01*
X120347980Y-84204636D02*
X120300361Y-84109398D01*
X120300361Y-84109398D02*
X120300361Y-83299875D01*
X118538456Y-83347494D02*
X118633694Y-83299875D01*
X118633694Y-83299875D02*
X118776551Y-83299875D01*
X118776551Y-83299875D02*
X118919408Y-83347494D01*
X118919408Y-83347494D02*
X119014646Y-83442732D01*
X119014646Y-83442732D02*
X119062265Y-83537970D01*
X119062265Y-83537970D02*
X119109884Y-83728446D01*
X119109884Y-83728446D02*
X119109884Y-83871303D01*
X119109884Y-83871303D02*
X119062265Y-84061779D01*
X119062265Y-84061779D02*
X119014646Y-84157017D01*
X119014646Y-84157017D02*
X118919408Y-84252256D01*
X118919408Y-84252256D02*
X118776551Y-84299875D01*
X118776551Y-84299875D02*
X118681313Y-84299875D01*
X118681313Y-84299875D02*
X118538456Y-84252256D01*
X118538456Y-84252256D02*
X118490837Y-84204636D01*
X118490837Y-84204636D02*
X118490837Y-83871303D01*
X118490837Y-83871303D02*
X118681313Y-83871303D01*
X118062265Y-84299875D02*
X118062265Y-83299875D01*
X118062265Y-83299875D02*
X117681313Y-83299875D01*
X117681313Y-83299875D02*
X117586075Y-83347494D01*
X117586075Y-83347494D02*
X117538456Y-83395113D01*
X117538456Y-83395113D02*
X117490837Y-83490351D01*
X117490837Y-83490351D02*
X117490837Y-83633208D01*
X117490837Y-83633208D02*
X117538456Y-83728446D01*
X117538456Y-83728446D02*
X117586075Y-83776065D01*
X117586075Y-83776065D02*
X117681313Y-83823684D01*
X117681313Y-83823684D02*
X118062265Y-83823684D01*
X116586075Y-84299875D02*
X117062265Y-84299875D01*
X117062265Y-84299875D02*
X117062265Y-83299875D01*
X115633693Y-83299875D02*
X115300360Y-84299875D01*
X115300360Y-84299875D02*
X114967027Y-83299875D01*
X114728931Y-83299875D02*
X114109884Y-83299875D01*
X114109884Y-83299875D02*
X114443217Y-83680827D01*
X114443217Y-83680827D02*
X114300360Y-83680827D01*
X114300360Y-83680827D02*
X114205122Y-83728446D01*
X114205122Y-83728446D02*
X114157503Y-83776065D01*
X114157503Y-83776065D02*
X114109884Y-83871303D01*
X114109884Y-83871303D02*
X114109884Y-84109398D01*
X114109884Y-84109398D02*
X114157503Y-84204636D01*
X114157503Y-84204636D02*
X114205122Y-84252256D01*
X114205122Y-84252256D02*
X114300360Y-84299875D01*
X114300360Y-84299875D02*
X114586074Y-84299875D01*
X114586074Y-84299875D02*
X114681312Y-84252256D01*
X114681312Y-84252256D02*
X114728931Y-84204636D01*
X113681312Y-84204636D02*
X113633693Y-84252256D01*
X113633693Y-84252256D02*
X113681312Y-84299875D01*
X113681312Y-84299875D02*
X113728931Y-84252256D01*
X113728931Y-84252256D02*
X113681312Y-84204636D01*
X113681312Y-84204636D02*
X113681312Y-84299875D01*
X113014646Y-83299875D02*
X112919408Y-83299875D01*
X112919408Y-83299875D02*
X112824170Y-83347494D01*
X112824170Y-83347494D02*
X112776551Y-83395113D01*
X112776551Y-83395113D02*
X112728932Y-83490351D01*
X112728932Y-83490351D02*
X112681313Y-83680827D01*
X112681313Y-83680827D02*
X112681313Y-83918922D01*
X112681313Y-83918922D02*
X112728932Y-84109398D01*
X112728932Y-84109398D02*
X112776551Y-84204636D01*
X112776551Y-84204636D02*
X112824170Y-84252256D01*
X112824170Y-84252256D02*
X112919408Y-84299875D01*
X112919408Y-84299875D02*
X113014646Y-84299875D01*
X113014646Y-84299875D02*
X113109884Y-84252256D01*
X113109884Y-84252256D02*
X113157503Y-84204636D01*
X113157503Y-84204636D02*
X113205122Y-84109398D01*
X113205122Y-84109398D02*
X113252741Y-83918922D01*
X113252741Y-83918922D02*
X113252741Y-83680827D01*
X113252741Y-83680827D02*
X113205122Y-83490351D01*
X113205122Y-83490351D02*
X113157503Y-83395113D01*
X113157503Y-83395113D02*
X113109884Y-83347494D01*
X113109884Y-83347494D02*
X113014646Y-83299875D01*
X139443220Y-85909819D02*
X139443220Y-84909819D01*
X139443220Y-84909819D02*
X139062268Y-84909819D01*
X139062268Y-84909819D02*
X138967030Y-84957438D01*
X138967030Y-84957438D02*
X138919411Y-85005057D01*
X138919411Y-85005057D02*
X138871792Y-85100295D01*
X138871792Y-85100295D02*
X138871792Y-85243152D01*
X138871792Y-85243152D02*
X138919411Y-85338390D01*
X138919411Y-85338390D02*
X138967030Y-85386009D01*
X138967030Y-85386009D02*
X139062268Y-85433628D01*
X139062268Y-85433628D02*
X139443220Y-85433628D01*
X137871792Y-85814580D02*
X137919411Y-85862200D01*
X137919411Y-85862200D02*
X138062268Y-85909819D01*
X138062268Y-85909819D02*
X138157506Y-85909819D01*
X138157506Y-85909819D02*
X138300363Y-85862200D01*
X138300363Y-85862200D02*
X138395601Y-85766961D01*
X138395601Y-85766961D02*
X138443220Y-85671723D01*
X138443220Y-85671723D02*
X138490839Y-85481247D01*
X138490839Y-85481247D02*
X138490839Y-85338390D01*
X138490839Y-85338390D02*
X138443220Y-85147914D01*
X138443220Y-85147914D02*
X138395601Y-85052676D01*
X138395601Y-85052676D02*
X138300363Y-84957438D01*
X138300363Y-84957438D02*
X138157506Y-84909819D01*
X138157506Y-84909819D02*
X138062268Y-84909819D01*
X138062268Y-84909819D02*
X137919411Y-84957438D01*
X137919411Y-84957438D02*
X137871792Y-85005057D01*
X137109887Y-85386009D02*
X136967030Y-85433628D01*
X136967030Y-85433628D02*
X136919411Y-85481247D01*
X136919411Y-85481247D02*
X136871792Y-85576485D01*
X136871792Y-85576485D02*
X136871792Y-85719342D01*
X136871792Y-85719342D02*
X136919411Y-85814580D01*
X136919411Y-85814580D02*
X136967030Y-85862200D01*
X136967030Y-85862200D02*
X137062268Y-85909819D01*
X137062268Y-85909819D02*
X137443220Y-85909819D01*
X137443220Y-85909819D02*
X137443220Y-84909819D01*
X137443220Y-84909819D02*
X137109887Y-84909819D01*
X137109887Y-84909819D02*
X137014649Y-84957438D01*
X137014649Y-84957438D02*
X136967030Y-85005057D01*
X136967030Y-85005057D02*
X136919411Y-85100295D01*
X136919411Y-85100295D02*
X136919411Y-85195533D01*
X136919411Y-85195533D02*
X136967030Y-85290771D01*
X136967030Y-85290771D02*
X137014649Y-85338390D01*
X137014649Y-85338390D02*
X137109887Y-85386009D01*
X137109887Y-85386009D02*
X137443220Y-85386009D01*
X135109887Y-85909819D02*
X135443220Y-85433628D01*
X135681315Y-85909819D02*
X135681315Y-84909819D01*
X135681315Y-84909819D02*
X135300363Y-84909819D01*
X135300363Y-84909819D02*
X135205125Y-84957438D01*
X135205125Y-84957438D02*
X135157506Y-85005057D01*
X135157506Y-85005057D02*
X135109887Y-85100295D01*
X135109887Y-85100295D02*
X135109887Y-85243152D01*
X135109887Y-85243152D02*
X135157506Y-85338390D01*
X135157506Y-85338390D02*
X135205125Y-85386009D01*
X135205125Y-85386009D02*
X135300363Y-85433628D01*
X135300363Y-85433628D02*
X135681315Y-85433628D01*
X134300363Y-85862200D02*
X134395601Y-85909819D01*
X134395601Y-85909819D02*
X134586077Y-85909819D01*
X134586077Y-85909819D02*
X134681315Y-85862200D01*
X134681315Y-85862200D02*
X134728934Y-85766961D01*
X134728934Y-85766961D02*
X134728934Y-85386009D01*
X134728934Y-85386009D02*
X134681315Y-85290771D01*
X134681315Y-85290771D02*
X134586077Y-85243152D01*
X134586077Y-85243152D02*
X134395601Y-85243152D01*
X134395601Y-85243152D02*
X134300363Y-85290771D01*
X134300363Y-85290771D02*
X134252744Y-85386009D01*
X134252744Y-85386009D02*
X134252744Y-85481247D01*
X134252744Y-85481247D02*
X134728934Y-85576485D01*
X133919410Y-85243152D02*
X133681315Y-85909819D01*
X133681315Y-85909819D02*
X133443220Y-85243152D01*
X133062267Y-85814580D02*
X133014648Y-85862200D01*
X133014648Y-85862200D02*
X133062267Y-85909819D01*
X133062267Y-85909819D02*
X133109886Y-85862200D01*
X133109886Y-85862200D02*
X133062267Y-85814580D01*
X133062267Y-85814580D02*
X133062267Y-85909819D01*
X131300363Y-85909819D02*
X131871791Y-85909819D01*
X131586077Y-85909819D02*
X131586077Y-84909819D01*
X131586077Y-84909819D02*
X131681315Y-85052676D01*
X131681315Y-85052676D02*
X131776553Y-85147914D01*
X131776553Y-85147914D02*
X131871791Y-85195533D01*
X130871791Y-85814580D02*
X130824172Y-85862200D01*
X130824172Y-85862200D02*
X130871791Y-85909819D01*
X130871791Y-85909819D02*
X130919410Y-85862200D01*
X130919410Y-85862200D02*
X130871791Y-85814580D01*
X130871791Y-85814580D02*
X130871791Y-85909819D01*
X130443220Y-85005057D02*
X130395601Y-84957438D01*
X130395601Y-84957438D02*
X130300363Y-84909819D01*
X130300363Y-84909819D02*
X130062268Y-84909819D01*
X130062268Y-84909819D02*
X129967030Y-84957438D01*
X129967030Y-84957438D02*
X129919411Y-85005057D01*
X129919411Y-85005057D02*
X129871792Y-85100295D01*
X129871792Y-85100295D02*
X129871792Y-85195533D01*
X129871792Y-85195533D02*
X129919411Y-85338390D01*
X129919411Y-85338390D02*
X130490839Y-85909819D01*
X130490839Y-85909819D02*
X129871792Y-85909819D01*
%LPC*%
D11*
X129794000Y-126706000D03*
X129794000Y-125456000D03*
X129794000Y-122956000D03*
X129794000Y-121706000D03*
D12*
X137668000Y-116332000D03*
D13*
X137668000Y-113792000D03*
D12*
X137668000Y-109982000D03*
D13*
X137668000Y-107442000D03*
D14*
X92476000Y-115045000D03*
D15*
X94976000Y-115045000D03*
D16*
X100330000Y-86360000D03*
D17*
X100330000Y-88900000D03*
X100330000Y-91440000D03*
X100330000Y-93980000D03*
X100330000Y-96520000D03*
X100330000Y-99060000D03*
X100330000Y-101600000D03*
X100330000Y-104140000D03*
X100330000Y-106680000D03*
X100330000Y-109220000D03*
X100330000Y-111760000D03*
X100330000Y-114300000D03*
X100330000Y-116840000D03*
X100330000Y-119380000D03*
X100330000Y-121920000D03*
X125730000Y-121920000D03*
X125730000Y-119380000D03*
X125730000Y-116840000D03*
X125730000Y-114300000D03*
X125730000Y-111760000D03*
X125730000Y-109220000D03*
X125730000Y-106680000D03*
X125730000Y-104140000D03*
X125730000Y-101600000D03*
X125730000Y-99060000D03*
X125730000Y-96520000D03*
X125730000Y-93980000D03*
X125730000Y-91440000D03*
X125730000Y-88900000D03*
X125730000Y-86360000D03*
D11*
X109398000Y-107522000D03*
D18*
X117018000Y-107522000D03*
D11*
X94742000Y-127234000D03*
X94742000Y-125984000D03*
X94742000Y-123484000D03*
X94742000Y-122234000D03*
D19*
X87122000Y-126920000D03*
D20*
X87122000Y-121920000D03*
D11*
X117030000Y-113618000D03*
D18*
X109410000Y-113618000D03*
D21*
X90424000Y-105156000D03*
D22*
X91694000Y-105156000D03*
X92964000Y-105156000D03*
D12*
X106680000Y-88646000D03*
D13*
X109220000Y-88646000D03*
X111760000Y-88646000D03*
X114300000Y-88646000D03*
X116840000Y-88646000D03*
X119380000Y-88646000D03*
D23*
X81280000Y-81280000D03*
D24*
X91948000Y-84328000D03*
D25*
X91948000Y-86828000D03*
X91948000Y-89328000D03*
X91948000Y-91828000D03*
X91948000Y-94328000D03*
X91948000Y-96828000D03*
X91948000Y-99328000D03*
D24*
X83058000Y-86520000D03*
D25*
X83058000Y-89020000D03*
X83058000Y-91520000D03*
X83058000Y-94020000D03*
X83058000Y-96520000D03*
D11*
X117030000Y-110570000D03*
D18*
X109410000Y-110570000D03*
D23*
X142240000Y-129540000D03*
D26*
X131474800Y-106934000D03*
D27*
X131474800Y-105664000D03*
X131474800Y-104394000D03*
D11*
X130302000Y-109982000D03*
D18*
X130302000Y-117602000D03*
D24*
X83058000Y-111252000D03*
D25*
X83058000Y-113752000D03*
X83058000Y-116252000D03*
D28*
X83058000Y-102656000D03*
D29*
X83058000Y-105156000D03*
D11*
X117018000Y-104474000D03*
D18*
X109398000Y-104474000D03*
D12*
X131318000Y-95250000D03*
D13*
X133858000Y-95250000D03*
X131318000Y-97790000D03*
X133858000Y-97790000D03*
X131318000Y-100330000D03*
X133858000Y-100330000D03*
D11*
X117030000Y-116666000D03*
D18*
X109410000Y-116666000D03*
D11*
X109410000Y-128820000D03*
D18*
X117030000Y-128820000D03*
D23*
X81280000Y-129540000D03*
D11*
X109410000Y-122724000D03*
D18*
X117030000Y-122724000D03*
D11*
X133350000Y-117602000D03*
D18*
X133350000Y-109982000D03*
D23*
X142240000Y-81280000D03*
D30*
X90170000Y-110673000D03*
D31*
X92710000Y-110673000D03*
X95250000Y-110673000D03*
D11*
X109410000Y-125772000D03*
D18*
X117030000Y-125772000D03*
D19*
X137160000Y-126319700D03*
D20*
X137160000Y-121319700D03*
D11*
X109410000Y-119676000D03*
D18*
X117030000Y-119676000D03*
%LPD*%
M02*
