G04 #@! TF.GenerationSoftware,KiCad,Pcbnew,8.0.8*
G04 #@! TF.CreationDate,2025-02-16T00:04:15+01:00*
G04 #@! TF.ProjectId,ESP32ScoringDevice_PCB_THT_Rev1.2,45535033-3253-4636-9f72-696e67446576,1.1*
G04 #@! TF.SameCoordinates,Original*
G04 #@! TF.FileFunction,Legend,Top*
G04 #@! TF.FilePolarity,Positive*
%FSLAX46Y46*%
G04 Gerber Fmt 4.6, Leading zero omitted, Abs format (unit mm)*
G04 Created by KiCad (PCBNEW 8.0.8) date 2025-02-16 00:04:15*
%MOMM*%
%LPD*%
G01*
G04 APERTURE LIST*
G04 Aperture macros list*
%AMRoundRect*
0 Rectangle with rounded corners*
0 $1 Rounding radius*
0 $2 $3 $4 $5 $6 $7 $8 $9 X,Y pos of 4 corners*
0 Add a 4 corners polygon primitive as box body*
4,1,4,$2,$3,$4,$5,$6,$7,$8,$9,$2,$3,0*
0 Add four circle primitives for the rounded corners*
1,1,$1+$1,$2,$3*
1,1,$1+$1,$4,$5*
1,1,$1+$1,$6,$7*
1,1,$1+$1,$8,$9*
0 Add four rect primitives between the rounded corners*
20,1,$1+$1,$2,$3,$4,$5,0*
20,1,$1+$1,$4,$5,$6,$7,0*
20,1,$1+$1,$6,$7,$8,$9,0*
20,1,$1+$1,$8,$9,$2,$3,0*%
G04 Aperture macros list end*
%ADD10C,0.150000*%
%ADD11C,0.100000*%
%ADD12C,0.120000*%
%ADD13C,1.000000*%
%ADD14C,0.800000*%
%ADD15C,1.600000*%
%ADD16R,1.700000X1.700000*%
%ADD17O,1.700000X1.700000*%
%ADD18RoundRect,0.250000X-0.600000X-0.750000X0.600000X-0.750000X0.600000X0.750000X-0.600000X0.750000X0*%
%ADD19O,1.700000X2.000000*%
%ADD20R,1.524000X1.524000*%
%ADD21C,1.524000*%
%ADD22O,1.600000X1.600000*%
%ADD23R,2.000000X2.000000*%
%ADD24C,2.000000*%
%ADD25R,1.050000X1.500000*%
%ADD26O,1.050000X1.500000*%
%ADD27C,3.800000*%
%ADD28RoundRect,0.250000X-0.725000X0.600000X-0.725000X-0.600000X0.725000X-0.600000X0.725000X0.600000X0*%
%ADD29O,1.950000X1.700000*%
%ADD30R,1.500000X1.050000*%
%ADD31O,1.500000X1.050000*%
%ADD32RoundRect,0.250000X-0.750000X0.600000X-0.750000X-0.600000X0.750000X-0.600000X0.750000X0.600000X0*%
%ADD33O,2.000000X1.700000*%
%ADD34R,1.905000X2.000000*%
%ADD35O,1.905000X2.000000*%
G04 APERTURE END LIST*
D10*
X111961541Y-119045819D02*
X112580588Y-119045819D01*
X112580588Y-119045819D02*
X112247255Y-119426771D01*
X112247255Y-119426771D02*
X112390112Y-119426771D01*
X112390112Y-119426771D02*
X112485350Y-119474390D01*
X112485350Y-119474390D02*
X112532969Y-119522009D01*
X112532969Y-119522009D02*
X112580588Y-119617247D01*
X112580588Y-119617247D02*
X112580588Y-119855342D01*
X112580588Y-119855342D02*
X112532969Y-119950580D01*
X112532969Y-119950580D02*
X112485350Y-119998200D01*
X112485350Y-119998200D02*
X112390112Y-120045819D01*
X112390112Y-120045819D02*
X112104398Y-120045819D01*
X112104398Y-120045819D02*
X112009160Y-119998200D01*
X112009160Y-119998200D02*
X111961541Y-119950580D01*
X112913922Y-119045819D02*
X113532969Y-119045819D01*
X113532969Y-119045819D02*
X113199636Y-119426771D01*
X113199636Y-119426771D02*
X113342493Y-119426771D01*
X113342493Y-119426771D02*
X113437731Y-119474390D01*
X113437731Y-119474390D02*
X113485350Y-119522009D01*
X113485350Y-119522009D02*
X113532969Y-119617247D01*
X113532969Y-119617247D02*
X113532969Y-119855342D01*
X113532969Y-119855342D02*
X113485350Y-119950580D01*
X113485350Y-119950580D02*
X113437731Y-119998200D01*
X113437731Y-119998200D02*
X113342493Y-120045819D01*
X113342493Y-120045819D02*
X113056779Y-120045819D01*
X113056779Y-120045819D02*
X112961541Y-119998200D01*
X112961541Y-119998200D02*
X112913922Y-119950580D01*
X113913922Y-120045819D02*
X114152017Y-120045819D01*
X114152017Y-120045819D02*
X114152017Y-119855342D01*
X114152017Y-119855342D02*
X114056779Y-119807723D01*
X114056779Y-119807723D02*
X113961541Y-119712485D01*
X113961541Y-119712485D02*
X113913922Y-119569628D01*
X113913922Y-119569628D02*
X113913922Y-119331533D01*
X113913922Y-119331533D02*
X113961541Y-119188676D01*
X113961541Y-119188676D02*
X114056779Y-119093438D01*
X114056779Y-119093438D02*
X114199636Y-119045819D01*
X114199636Y-119045819D02*
X114390112Y-119045819D01*
X114390112Y-119045819D02*
X114532969Y-119093438D01*
X114532969Y-119093438D02*
X114628207Y-119188676D01*
X114628207Y-119188676D02*
X114675826Y-119331533D01*
X114675826Y-119331533D02*
X114675826Y-119569628D01*
X114675826Y-119569628D02*
X114628207Y-119712485D01*
X114628207Y-119712485D02*
X114532969Y-119807723D01*
X114532969Y-119807723D02*
X114437731Y-119855342D01*
X114437731Y-119855342D02*
X114437731Y-120045819D01*
X114437731Y-120045819D02*
X114675826Y-120045819D01*
X111961541Y-122045819D02*
X112580588Y-122045819D01*
X112580588Y-122045819D02*
X112247255Y-122426771D01*
X112247255Y-122426771D02*
X112390112Y-122426771D01*
X112390112Y-122426771D02*
X112485350Y-122474390D01*
X112485350Y-122474390D02*
X112532969Y-122522009D01*
X112532969Y-122522009D02*
X112580588Y-122617247D01*
X112580588Y-122617247D02*
X112580588Y-122855342D01*
X112580588Y-122855342D02*
X112532969Y-122950580D01*
X112532969Y-122950580D02*
X112485350Y-122998200D01*
X112485350Y-122998200D02*
X112390112Y-123045819D01*
X112390112Y-123045819D02*
X112104398Y-123045819D01*
X112104398Y-123045819D02*
X112009160Y-122998200D01*
X112009160Y-122998200D02*
X111961541Y-122950580D01*
X112913922Y-122045819D02*
X113532969Y-122045819D01*
X113532969Y-122045819D02*
X113199636Y-122426771D01*
X113199636Y-122426771D02*
X113342493Y-122426771D01*
X113342493Y-122426771D02*
X113437731Y-122474390D01*
X113437731Y-122474390D02*
X113485350Y-122522009D01*
X113485350Y-122522009D02*
X113532969Y-122617247D01*
X113532969Y-122617247D02*
X113532969Y-122855342D01*
X113532969Y-122855342D02*
X113485350Y-122950580D01*
X113485350Y-122950580D02*
X113437731Y-122998200D01*
X113437731Y-122998200D02*
X113342493Y-123045819D01*
X113342493Y-123045819D02*
X113056779Y-123045819D01*
X113056779Y-123045819D02*
X112961541Y-122998200D01*
X112961541Y-122998200D02*
X112913922Y-122950580D01*
X113913922Y-123045819D02*
X114152017Y-123045819D01*
X114152017Y-123045819D02*
X114152017Y-122855342D01*
X114152017Y-122855342D02*
X114056779Y-122807723D01*
X114056779Y-122807723D02*
X113961541Y-122712485D01*
X113961541Y-122712485D02*
X113913922Y-122569628D01*
X113913922Y-122569628D02*
X113913922Y-122331533D01*
X113913922Y-122331533D02*
X113961541Y-122188676D01*
X113961541Y-122188676D02*
X114056779Y-122093438D01*
X114056779Y-122093438D02*
X114199636Y-122045819D01*
X114199636Y-122045819D02*
X114390112Y-122045819D01*
X114390112Y-122045819D02*
X114532969Y-122093438D01*
X114532969Y-122093438D02*
X114628207Y-122188676D01*
X114628207Y-122188676D02*
X114675826Y-122331533D01*
X114675826Y-122331533D02*
X114675826Y-122569628D01*
X114675826Y-122569628D02*
X114628207Y-122712485D01*
X114628207Y-122712485D02*
X114532969Y-122807723D01*
X114532969Y-122807723D02*
X114437731Y-122855342D01*
X114437731Y-122855342D02*
X114437731Y-123045819D01*
X114437731Y-123045819D02*
X114675826Y-123045819D01*
D11*
X135955693Y-94678038D02*
X135860455Y-94630419D01*
X135860455Y-94630419D02*
X135717598Y-94630419D01*
X135717598Y-94630419D02*
X135574741Y-94678038D01*
X135574741Y-94678038D02*
X135479503Y-94773276D01*
X135479503Y-94773276D02*
X135431884Y-94868514D01*
X135431884Y-94868514D02*
X135384265Y-95058990D01*
X135384265Y-95058990D02*
X135384265Y-95201847D01*
X135384265Y-95201847D02*
X135431884Y-95392323D01*
X135431884Y-95392323D02*
X135479503Y-95487561D01*
X135479503Y-95487561D02*
X135574741Y-95582800D01*
X135574741Y-95582800D02*
X135717598Y-95630419D01*
X135717598Y-95630419D02*
X135812836Y-95630419D01*
X135812836Y-95630419D02*
X135955693Y-95582800D01*
X135955693Y-95582800D02*
X136003312Y-95535180D01*
X136003312Y-95535180D02*
X136003312Y-95201847D01*
X136003312Y-95201847D02*
X135812836Y-95201847D01*
X136431884Y-95630419D02*
X136431884Y-94630419D01*
X136431884Y-94630419D02*
X137003312Y-95630419D01*
X137003312Y-95630419D02*
X137003312Y-94630419D01*
X137479503Y-95630419D02*
X137479503Y-94630419D01*
X137479503Y-94630419D02*
X137717598Y-94630419D01*
X137717598Y-94630419D02*
X137860455Y-94678038D01*
X137860455Y-94678038D02*
X137955693Y-94773276D01*
X137955693Y-94773276D02*
X138003312Y-94868514D01*
X138003312Y-94868514D02*
X138050931Y-95058990D01*
X138050931Y-95058990D02*
X138050931Y-95201847D01*
X138050931Y-95201847D02*
X138003312Y-95392323D01*
X138003312Y-95392323D02*
X137955693Y-95487561D01*
X137955693Y-95487561D02*
X137860455Y-95582800D01*
X137860455Y-95582800D02*
X137717598Y-95630419D01*
X137717598Y-95630419D02*
X137479503Y-95630419D01*
X136003312Y-98297419D02*
X135669979Y-97821228D01*
X135431884Y-98297419D02*
X135431884Y-97297419D01*
X135431884Y-97297419D02*
X135812836Y-97297419D01*
X135812836Y-97297419D02*
X135908074Y-97345038D01*
X135908074Y-97345038D02*
X135955693Y-97392657D01*
X135955693Y-97392657D02*
X136003312Y-97487895D01*
X136003312Y-97487895D02*
X136003312Y-97630752D01*
X136003312Y-97630752D02*
X135955693Y-97725990D01*
X135955693Y-97725990D02*
X135908074Y-97773609D01*
X135908074Y-97773609D02*
X135812836Y-97821228D01*
X135812836Y-97821228D02*
X135431884Y-97821228D01*
X136336646Y-97297419D02*
X137003312Y-98297419D01*
X137003312Y-97297419D02*
X136336646Y-98297419D01*
X137574741Y-97297419D02*
X137669979Y-97297419D01*
X137669979Y-97297419D02*
X137765217Y-97345038D01*
X137765217Y-97345038D02*
X137812836Y-97392657D01*
X137812836Y-97392657D02*
X137860455Y-97487895D01*
X137860455Y-97487895D02*
X137908074Y-97678371D01*
X137908074Y-97678371D02*
X137908074Y-97916466D01*
X137908074Y-97916466D02*
X137860455Y-98106942D01*
X137860455Y-98106942D02*
X137812836Y-98202180D01*
X137812836Y-98202180D02*
X137765217Y-98249800D01*
X137765217Y-98249800D02*
X137669979Y-98297419D01*
X137669979Y-98297419D02*
X137574741Y-98297419D01*
X137574741Y-98297419D02*
X137479503Y-98249800D01*
X137479503Y-98249800D02*
X137431884Y-98202180D01*
X137431884Y-98202180D02*
X137384265Y-98106942D01*
X137384265Y-98106942D02*
X137336646Y-97916466D01*
X137336646Y-97916466D02*
X137336646Y-97678371D01*
X137336646Y-97678371D02*
X137384265Y-97487895D01*
X137384265Y-97487895D02*
X137431884Y-97392657D01*
X137431884Y-97392657D02*
X137479503Y-97345038D01*
X137479503Y-97345038D02*
X137574741Y-97297419D01*
X86111884Y-99922466D02*
X86873789Y-99922466D01*
X86492836Y-100303419D02*
X86492836Y-99541514D01*
X109727419Y-100216687D02*
X109251228Y-100550020D01*
X109727419Y-100788115D02*
X108727419Y-100788115D01*
X108727419Y-100788115D02*
X108727419Y-100407163D01*
X108727419Y-100407163D02*
X108775038Y-100311925D01*
X108775038Y-100311925D02*
X108822657Y-100264306D01*
X108822657Y-100264306D02*
X108917895Y-100216687D01*
X108917895Y-100216687D02*
X109060752Y-100216687D01*
X109060752Y-100216687D02*
X109155990Y-100264306D01*
X109155990Y-100264306D02*
X109203609Y-100311925D01*
X109203609Y-100311925D02*
X109251228Y-100407163D01*
X109251228Y-100407163D02*
X109251228Y-100788115D01*
X108727419Y-99883353D02*
X109727419Y-99216687D01*
X108727419Y-99216687D02*
X109727419Y-99883353D01*
D10*
X111953350Y-107487152D02*
X111953350Y-108153819D01*
X111715255Y-107106200D02*
X111477160Y-107820485D01*
X111477160Y-107820485D02*
X112096207Y-107820485D01*
X112381922Y-107153819D02*
X113048588Y-107153819D01*
X113048588Y-107153819D02*
X112620017Y-108153819D01*
X113620017Y-107153819D02*
X113715255Y-107153819D01*
X113715255Y-107153819D02*
X113810493Y-107201438D01*
X113810493Y-107201438D02*
X113858112Y-107249057D01*
X113858112Y-107249057D02*
X113905731Y-107344295D01*
X113905731Y-107344295D02*
X113953350Y-107534771D01*
X113953350Y-107534771D02*
X113953350Y-107772866D01*
X113953350Y-107772866D02*
X113905731Y-107963342D01*
X113905731Y-107963342D02*
X113858112Y-108058580D01*
X113858112Y-108058580D02*
X113810493Y-108106200D01*
X113810493Y-108106200D02*
X113715255Y-108153819D01*
X113715255Y-108153819D02*
X113620017Y-108153819D01*
X113620017Y-108153819D02*
X113524779Y-108106200D01*
X113524779Y-108106200D02*
X113477160Y-108058580D01*
X113477160Y-108058580D02*
X113429541Y-107963342D01*
X113429541Y-107963342D02*
X113381922Y-107772866D01*
X113381922Y-107772866D02*
X113381922Y-107534771D01*
X113381922Y-107534771D02*
X113429541Y-107344295D01*
X113429541Y-107344295D02*
X113477160Y-107249057D01*
X113477160Y-107249057D02*
X113524779Y-107201438D01*
X113524779Y-107201438D02*
X113620017Y-107153819D01*
X114334303Y-108153819D02*
X114572398Y-108153819D01*
X114572398Y-108153819D02*
X114572398Y-107963342D01*
X114572398Y-107963342D02*
X114477160Y-107915723D01*
X114477160Y-107915723D02*
X114381922Y-107820485D01*
X114381922Y-107820485D02*
X114334303Y-107677628D01*
X114334303Y-107677628D02*
X114334303Y-107439533D01*
X114334303Y-107439533D02*
X114381922Y-107296676D01*
X114381922Y-107296676D02*
X114477160Y-107201438D01*
X114477160Y-107201438D02*
X114620017Y-107153819D01*
X114620017Y-107153819D02*
X114810493Y-107153819D01*
X114810493Y-107153819D02*
X114953350Y-107201438D01*
X114953350Y-107201438D02*
X115048588Y-107296676D01*
X115048588Y-107296676D02*
X115096207Y-107439533D01*
X115096207Y-107439533D02*
X115096207Y-107677628D01*
X115096207Y-107677628D02*
X115048588Y-107820485D01*
X115048588Y-107820485D02*
X114953350Y-107915723D01*
X114953350Y-107915723D02*
X114858112Y-107963342D01*
X114858112Y-107963342D02*
X114858112Y-108153819D01*
X114858112Y-108153819D02*
X115096207Y-108153819D01*
X115667636Y-107153819D02*
X115667636Y-107391914D01*
X115429541Y-107296676D02*
X115667636Y-107391914D01*
X115667636Y-107391914D02*
X115905731Y-107296676D01*
X115524779Y-107582390D02*
X115667636Y-107391914D01*
X115667636Y-107391914D02*
X115810493Y-107582390D01*
X112191541Y-128235819D02*
X112810588Y-128235819D01*
X112810588Y-128235819D02*
X112477255Y-128616771D01*
X112477255Y-128616771D02*
X112620112Y-128616771D01*
X112620112Y-128616771D02*
X112715350Y-128664390D01*
X112715350Y-128664390D02*
X112762969Y-128712009D01*
X112762969Y-128712009D02*
X112810588Y-128807247D01*
X112810588Y-128807247D02*
X112810588Y-129045342D01*
X112810588Y-129045342D02*
X112762969Y-129140580D01*
X112762969Y-129140580D02*
X112715350Y-129188200D01*
X112715350Y-129188200D02*
X112620112Y-129235819D01*
X112620112Y-129235819D02*
X112334398Y-129235819D01*
X112334398Y-129235819D02*
X112239160Y-129188200D01*
X112239160Y-129188200D02*
X112191541Y-129140580D01*
X113239160Y-129235819D02*
X113239160Y-128235819D01*
X113334398Y-128854866D02*
X113620112Y-129235819D01*
X113620112Y-128569152D02*
X113239160Y-128950104D01*
X113953446Y-128235819D02*
X114572493Y-128235819D01*
X114572493Y-128235819D02*
X114239160Y-128616771D01*
X114239160Y-128616771D02*
X114382017Y-128616771D01*
X114382017Y-128616771D02*
X114477255Y-128664390D01*
X114477255Y-128664390D02*
X114524874Y-128712009D01*
X114524874Y-128712009D02*
X114572493Y-128807247D01*
X114572493Y-128807247D02*
X114572493Y-129045342D01*
X114572493Y-129045342D02*
X114524874Y-129140580D01*
X114524874Y-129140580D02*
X114477255Y-129188200D01*
X114477255Y-129188200D02*
X114382017Y-129235819D01*
X114382017Y-129235819D02*
X114096303Y-129235819D01*
X114096303Y-129235819D02*
X114001065Y-129188200D01*
X114001065Y-129188200D02*
X113953446Y-129140580D01*
X88982779Y-115058866D02*
X89744684Y-115058866D01*
X89363731Y-115439819D02*
X89363731Y-114677914D01*
D11*
X117093466Y-101804115D02*
X117093466Y-101042211D01*
X117474419Y-101423163D02*
X116712514Y-101423163D01*
X116474419Y-100089830D02*
X116474419Y-100566020D01*
X116474419Y-100566020D02*
X116950609Y-100613639D01*
X116950609Y-100613639D02*
X116902990Y-100566020D01*
X116902990Y-100566020D02*
X116855371Y-100470782D01*
X116855371Y-100470782D02*
X116855371Y-100232687D01*
X116855371Y-100232687D02*
X116902990Y-100137449D01*
X116902990Y-100137449D02*
X116950609Y-100089830D01*
X116950609Y-100089830D02*
X117045847Y-100042211D01*
X117045847Y-100042211D02*
X117283942Y-100042211D01*
X117283942Y-100042211D02*
X117379180Y-100089830D01*
X117379180Y-100089830D02*
X117426800Y-100137449D01*
X117426800Y-100137449D02*
X117474419Y-100232687D01*
X117474419Y-100232687D02*
X117474419Y-100470782D01*
X117474419Y-100470782D02*
X117426800Y-100566020D01*
X117426800Y-100566020D02*
X117379180Y-100613639D01*
X116474419Y-99756496D02*
X117474419Y-99423163D01*
X117474419Y-99423163D02*
X116474419Y-99089830D01*
X95315693Y-84327419D02*
X94744265Y-84327419D01*
X95029979Y-84327419D02*
X95029979Y-83327419D01*
X95029979Y-83327419D02*
X94934741Y-83470276D01*
X94934741Y-83470276D02*
X94839503Y-83565514D01*
X94839503Y-83565514D02*
X94744265Y-83613133D01*
D10*
X128432112Y-83924177D02*
X128098779Y-83924177D01*
X128098779Y-84447987D02*
X128098779Y-83447987D01*
X128098779Y-83447987D02*
X128574969Y-83447987D01*
X129336874Y-84400368D02*
X129241636Y-84447987D01*
X129241636Y-84447987D02*
X129051160Y-84447987D01*
X129051160Y-84447987D02*
X128955922Y-84400368D01*
X128955922Y-84400368D02*
X128908303Y-84305129D01*
X128908303Y-84305129D02*
X128908303Y-83924177D01*
X128908303Y-83924177D02*
X128955922Y-83828939D01*
X128955922Y-83828939D02*
X129051160Y-83781320D01*
X129051160Y-83781320D02*
X129241636Y-83781320D01*
X129241636Y-83781320D02*
X129336874Y-83828939D01*
X129336874Y-83828939D02*
X129384493Y-83924177D01*
X129384493Y-83924177D02*
X129384493Y-84019415D01*
X129384493Y-84019415D02*
X128908303Y-84114653D01*
X129813065Y-83781320D02*
X129813065Y-84447987D01*
X129813065Y-83876558D02*
X129860684Y-83828939D01*
X129860684Y-83828939D02*
X129955922Y-83781320D01*
X129955922Y-83781320D02*
X130098779Y-83781320D01*
X130098779Y-83781320D02*
X130194017Y-83828939D01*
X130194017Y-83828939D02*
X130241636Y-83924177D01*
X130241636Y-83924177D02*
X130241636Y-84447987D01*
X131146398Y-84400368D02*
X131051160Y-84447987D01*
X131051160Y-84447987D02*
X130860684Y-84447987D01*
X130860684Y-84447987D02*
X130765446Y-84400368D01*
X130765446Y-84400368D02*
X130717827Y-84352748D01*
X130717827Y-84352748D02*
X130670208Y-84257510D01*
X130670208Y-84257510D02*
X130670208Y-83971796D01*
X130670208Y-83971796D02*
X130717827Y-83876558D01*
X130717827Y-83876558D02*
X130765446Y-83828939D01*
X130765446Y-83828939D02*
X130860684Y-83781320D01*
X130860684Y-83781320D02*
X131051160Y-83781320D01*
X131051160Y-83781320D02*
X131146398Y-83828939D01*
X131574970Y-84447987D02*
X131574970Y-83781320D01*
X131574970Y-83447987D02*
X131527351Y-83495606D01*
X131527351Y-83495606D02*
X131574970Y-83543225D01*
X131574970Y-83543225D02*
X131622589Y-83495606D01*
X131622589Y-83495606D02*
X131574970Y-83447987D01*
X131574970Y-83447987D02*
X131574970Y-83543225D01*
X132051160Y-83781320D02*
X132051160Y-84447987D01*
X132051160Y-83876558D02*
X132098779Y-83828939D01*
X132098779Y-83828939D02*
X132194017Y-83781320D01*
X132194017Y-83781320D02*
X132336874Y-83781320D01*
X132336874Y-83781320D02*
X132432112Y-83828939D01*
X132432112Y-83828939D02*
X132479731Y-83924177D01*
X132479731Y-83924177D02*
X132479731Y-84447987D01*
X133384493Y-83781320D02*
X133384493Y-84590844D01*
X133384493Y-84590844D02*
X133336874Y-84686082D01*
X133336874Y-84686082D02*
X133289255Y-84733701D01*
X133289255Y-84733701D02*
X133194017Y-84781320D01*
X133194017Y-84781320D02*
X133051160Y-84781320D01*
X133051160Y-84781320D02*
X132955922Y-84733701D01*
X133384493Y-84400368D02*
X133289255Y-84447987D01*
X133289255Y-84447987D02*
X133098779Y-84447987D01*
X133098779Y-84447987D02*
X133003541Y-84400368D01*
X133003541Y-84400368D02*
X132955922Y-84352748D01*
X132955922Y-84352748D02*
X132908303Y-84257510D01*
X132908303Y-84257510D02*
X132908303Y-83971796D01*
X132908303Y-83971796D02*
X132955922Y-83876558D01*
X132955922Y-83876558D02*
X133003541Y-83828939D01*
X133003541Y-83828939D02*
X133098779Y-83781320D01*
X133098779Y-83781320D02*
X133289255Y-83781320D01*
X133289255Y-83781320D02*
X133384493Y-83828939D01*
X134527351Y-83447987D02*
X135146398Y-83447987D01*
X135146398Y-83447987D02*
X134813065Y-83828939D01*
X134813065Y-83828939D02*
X134955922Y-83828939D01*
X134955922Y-83828939D02*
X135051160Y-83876558D01*
X135051160Y-83876558D02*
X135098779Y-83924177D01*
X135098779Y-83924177D02*
X135146398Y-84019415D01*
X135146398Y-84019415D02*
X135146398Y-84257510D01*
X135146398Y-84257510D02*
X135098779Y-84352748D01*
X135098779Y-84352748D02*
X135051160Y-84400368D01*
X135051160Y-84400368D02*
X134955922Y-84447987D01*
X134955922Y-84447987D02*
X134670208Y-84447987D01*
X134670208Y-84447987D02*
X134574970Y-84400368D01*
X134574970Y-84400368D02*
X134527351Y-84352748D01*
X136241637Y-83781320D02*
X136432113Y-84447987D01*
X136432113Y-84447987D02*
X136622589Y-83971796D01*
X136622589Y-83971796D02*
X136813065Y-84447987D01*
X136813065Y-84447987D02*
X137003541Y-83781320D01*
X137765446Y-84400368D02*
X137670208Y-84447987D01*
X137670208Y-84447987D02*
X137479732Y-84447987D01*
X137479732Y-84447987D02*
X137384494Y-84400368D01*
X137384494Y-84400368D02*
X137336875Y-84305129D01*
X137336875Y-84305129D02*
X137336875Y-83924177D01*
X137336875Y-83924177D02*
X137384494Y-83828939D01*
X137384494Y-83828939D02*
X137479732Y-83781320D01*
X137479732Y-83781320D02*
X137670208Y-83781320D01*
X137670208Y-83781320D02*
X137765446Y-83828939D01*
X137765446Y-83828939D02*
X137813065Y-83924177D01*
X137813065Y-83924177D02*
X137813065Y-84019415D01*
X137813065Y-84019415D02*
X137336875Y-84114653D01*
X138670208Y-84447987D02*
X138670208Y-83924177D01*
X138670208Y-83924177D02*
X138622589Y-83828939D01*
X138622589Y-83828939D02*
X138527351Y-83781320D01*
X138527351Y-83781320D02*
X138336875Y-83781320D01*
X138336875Y-83781320D02*
X138241637Y-83828939D01*
X138670208Y-84400368D02*
X138574970Y-84447987D01*
X138574970Y-84447987D02*
X138336875Y-84447987D01*
X138336875Y-84447987D02*
X138241637Y-84400368D01*
X138241637Y-84400368D02*
X138194018Y-84305129D01*
X138194018Y-84305129D02*
X138194018Y-84209891D01*
X138194018Y-84209891D02*
X138241637Y-84114653D01*
X138241637Y-84114653D02*
X138336875Y-84067034D01*
X138336875Y-84067034D02*
X138574970Y-84067034D01*
X138574970Y-84067034D02*
X138670208Y-84019415D01*
X139146399Y-83781320D02*
X139146399Y-84781320D01*
X139146399Y-83828939D02*
X139241637Y-83781320D01*
X139241637Y-83781320D02*
X139432113Y-83781320D01*
X139432113Y-83781320D02*
X139527351Y-83828939D01*
X139527351Y-83828939D02*
X139574970Y-83876558D01*
X139574970Y-83876558D02*
X139622589Y-83971796D01*
X139622589Y-83971796D02*
X139622589Y-84257510D01*
X139622589Y-84257510D02*
X139574970Y-84352748D01*
X139574970Y-84352748D02*
X139527351Y-84400368D01*
X139527351Y-84400368D02*
X139432113Y-84447987D01*
X139432113Y-84447987D02*
X139241637Y-84447987D01*
X139241637Y-84447987D02*
X139146399Y-84400368D01*
X140194018Y-84447987D02*
X140098780Y-84400368D01*
X140098780Y-84400368D02*
X140051161Y-84352748D01*
X140051161Y-84352748D02*
X140003542Y-84257510D01*
X140003542Y-84257510D02*
X140003542Y-83971796D01*
X140003542Y-83971796D02*
X140051161Y-83876558D01*
X140051161Y-83876558D02*
X140098780Y-83828939D01*
X140098780Y-83828939D02*
X140194018Y-83781320D01*
X140194018Y-83781320D02*
X140336875Y-83781320D01*
X140336875Y-83781320D02*
X140432113Y-83828939D01*
X140432113Y-83828939D02*
X140479732Y-83876558D01*
X140479732Y-83876558D02*
X140527351Y-83971796D01*
X140527351Y-83971796D02*
X140527351Y-84257510D01*
X140527351Y-84257510D02*
X140479732Y-84352748D01*
X140479732Y-84352748D02*
X140432113Y-84400368D01*
X140432113Y-84400368D02*
X140336875Y-84447987D01*
X140336875Y-84447987D02*
X140194018Y-84447987D01*
X140955923Y-83781320D02*
X140955923Y-84447987D01*
X140955923Y-83876558D02*
X141003542Y-83828939D01*
X141003542Y-83828939D02*
X141098780Y-83781320D01*
X141098780Y-83781320D02*
X141241637Y-83781320D01*
X141241637Y-83781320D02*
X141336875Y-83828939D01*
X141336875Y-83828939D02*
X141384494Y-83924177D01*
X141384494Y-83924177D02*
X141384494Y-84447987D01*
X141813066Y-84400368D02*
X141908304Y-84447987D01*
X141908304Y-84447987D02*
X142098780Y-84447987D01*
X142098780Y-84447987D02*
X142194018Y-84400368D01*
X142194018Y-84400368D02*
X142241637Y-84305129D01*
X142241637Y-84305129D02*
X142241637Y-84257510D01*
X142241637Y-84257510D02*
X142194018Y-84162272D01*
X142194018Y-84162272D02*
X142098780Y-84114653D01*
X142098780Y-84114653D02*
X141955923Y-84114653D01*
X141955923Y-84114653D02*
X141860685Y-84067034D01*
X141860685Y-84067034D02*
X141813066Y-83971796D01*
X141813066Y-83971796D02*
X141813066Y-83924177D01*
X141813066Y-83924177D02*
X141860685Y-83828939D01*
X141860685Y-83828939D02*
X141955923Y-83781320D01*
X141955923Y-83781320D02*
X142098780Y-83781320D01*
X142098780Y-83781320D02*
X142194018Y-83828939D01*
X128098779Y-86057931D02*
X128098779Y-85057931D01*
X128098779Y-85057931D02*
X128765445Y-85057931D01*
X128765445Y-85057931D02*
X128765445Y-86057931D01*
X128765445Y-86057931D02*
X128098779Y-86057931D01*
X129955922Y-86010312D02*
X130051160Y-86057931D01*
X130051160Y-86057931D02*
X130241636Y-86057931D01*
X130241636Y-86057931D02*
X130336874Y-86010312D01*
X130336874Y-86010312D02*
X130384493Y-85915073D01*
X130384493Y-85915073D02*
X130384493Y-85867454D01*
X130384493Y-85867454D02*
X130336874Y-85772216D01*
X130336874Y-85772216D02*
X130241636Y-85724597D01*
X130241636Y-85724597D02*
X130098779Y-85724597D01*
X130098779Y-85724597D02*
X130003541Y-85676978D01*
X130003541Y-85676978D02*
X129955922Y-85581740D01*
X129955922Y-85581740D02*
X129955922Y-85534121D01*
X129955922Y-85534121D02*
X130003541Y-85438883D01*
X130003541Y-85438883D02*
X130098779Y-85391264D01*
X130098779Y-85391264D02*
X130241636Y-85391264D01*
X130241636Y-85391264D02*
X130336874Y-85438883D01*
X131241636Y-86010312D02*
X131146398Y-86057931D01*
X131146398Y-86057931D02*
X130955922Y-86057931D01*
X130955922Y-86057931D02*
X130860684Y-86010312D01*
X130860684Y-86010312D02*
X130813065Y-85962692D01*
X130813065Y-85962692D02*
X130765446Y-85867454D01*
X130765446Y-85867454D02*
X130765446Y-85581740D01*
X130765446Y-85581740D02*
X130813065Y-85486502D01*
X130813065Y-85486502D02*
X130860684Y-85438883D01*
X130860684Y-85438883D02*
X130955922Y-85391264D01*
X130955922Y-85391264D02*
X131146398Y-85391264D01*
X131146398Y-85391264D02*
X131241636Y-85438883D01*
X131813065Y-86057931D02*
X131717827Y-86010312D01*
X131717827Y-86010312D02*
X131670208Y-85962692D01*
X131670208Y-85962692D02*
X131622589Y-85867454D01*
X131622589Y-85867454D02*
X131622589Y-85581740D01*
X131622589Y-85581740D02*
X131670208Y-85486502D01*
X131670208Y-85486502D02*
X131717827Y-85438883D01*
X131717827Y-85438883D02*
X131813065Y-85391264D01*
X131813065Y-85391264D02*
X131955922Y-85391264D01*
X131955922Y-85391264D02*
X132051160Y-85438883D01*
X132051160Y-85438883D02*
X132098779Y-85486502D01*
X132098779Y-85486502D02*
X132146398Y-85581740D01*
X132146398Y-85581740D02*
X132146398Y-85867454D01*
X132146398Y-85867454D02*
X132098779Y-85962692D01*
X132098779Y-85962692D02*
X132051160Y-86010312D01*
X132051160Y-86010312D02*
X131955922Y-86057931D01*
X131955922Y-86057931D02*
X131813065Y-86057931D01*
X132574970Y-86057931D02*
X132574970Y-85391264D01*
X132574970Y-85581740D02*
X132622589Y-85486502D01*
X132622589Y-85486502D02*
X132670208Y-85438883D01*
X132670208Y-85438883D02*
X132765446Y-85391264D01*
X132765446Y-85391264D02*
X132860684Y-85391264D01*
X133194018Y-86057931D02*
X133194018Y-85391264D01*
X133194018Y-85057931D02*
X133146399Y-85105550D01*
X133146399Y-85105550D02*
X133194018Y-85153169D01*
X133194018Y-85153169D02*
X133241637Y-85105550D01*
X133241637Y-85105550D02*
X133194018Y-85057931D01*
X133194018Y-85057931D02*
X133194018Y-85153169D01*
X133670208Y-85391264D02*
X133670208Y-86057931D01*
X133670208Y-85486502D02*
X133717827Y-85438883D01*
X133717827Y-85438883D02*
X133813065Y-85391264D01*
X133813065Y-85391264D02*
X133955922Y-85391264D01*
X133955922Y-85391264D02*
X134051160Y-85438883D01*
X134051160Y-85438883D02*
X134098779Y-85534121D01*
X134098779Y-85534121D02*
X134098779Y-86057931D01*
X135003541Y-85391264D02*
X135003541Y-86200788D01*
X135003541Y-86200788D02*
X134955922Y-86296026D01*
X134955922Y-86296026D02*
X134908303Y-86343645D01*
X134908303Y-86343645D02*
X134813065Y-86391264D01*
X134813065Y-86391264D02*
X134670208Y-86391264D01*
X134670208Y-86391264D02*
X134574970Y-86343645D01*
X135003541Y-86010312D02*
X134908303Y-86057931D01*
X134908303Y-86057931D02*
X134717827Y-86057931D01*
X134717827Y-86057931D02*
X134622589Y-86010312D01*
X134622589Y-86010312D02*
X134574970Y-85962692D01*
X134574970Y-85962692D02*
X134527351Y-85867454D01*
X134527351Y-85867454D02*
X134527351Y-85581740D01*
X134527351Y-85581740D02*
X134574970Y-85486502D01*
X134574970Y-85486502D02*
X134622589Y-85438883D01*
X134622589Y-85438883D02*
X134717827Y-85391264D01*
X134717827Y-85391264D02*
X134908303Y-85391264D01*
X134908303Y-85391264D02*
X135003541Y-85438883D01*
X136670208Y-86057931D02*
X136670208Y-85057931D01*
X136670208Y-86010312D02*
X136574970Y-86057931D01*
X136574970Y-86057931D02*
X136384494Y-86057931D01*
X136384494Y-86057931D02*
X136289256Y-86010312D01*
X136289256Y-86010312D02*
X136241637Y-85962692D01*
X136241637Y-85962692D02*
X136194018Y-85867454D01*
X136194018Y-85867454D02*
X136194018Y-85581740D01*
X136194018Y-85581740D02*
X136241637Y-85486502D01*
X136241637Y-85486502D02*
X136289256Y-85438883D01*
X136289256Y-85438883D02*
X136384494Y-85391264D01*
X136384494Y-85391264D02*
X136574970Y-85391264D01*
X136574970Y-85391264D02*
X136670208Y-85438883D01*
X137527351Y-86010312D02*
X137432113Y-86057931D01*
X137432113Y-86057931D02*
X137241637Y-86057931D01*
X137241637Y-86057931D02*
X137146399Y-86010312D01*
X137146399Y-86010312D02*
X137098780Y-85915073D01*
X137098780Y-85915073D02*
X137098780Y-85534121D01*
X137098780Y-85534121D02*
X137146399Y-85438883D01*
X137146399Y-85438883D02*
X137241637Y-85391264D01*
X137241637Y-85391264D02*
X137432113Y-85391264D01*
X137432113Y-85391264D02*
X137527351Y-85438883D01*
X137527351Y-85438883D02*
X137574970Y-85534121D01*
X137574970Y-85534121D02*
X137574970Y-85629359D01*
X137574970Y-85629359D02*
X137098780Y-85724597D01*
X137908304Y-85391264D02*
X138146399Y-86057931D01*
X138146399Y-86057931D02*
X138384494Y-85391264D01*
X138765447Y-86057931D02*
X138765447Y-85391264D01*
X138765447Y-85057931D02*
X138717828Y-85105550D01*
X138717828Y-85105550D02*
X138765447Y-85153169D01*
X138765447Y-85153169D02*
X138813066Y-85105550D01*
X138813066Y-85105550D02*
X138765447Y-85057931D01*
X138765447Y-85057931D02*
X138765447Y-85153169D01*
X139670208Y-86010312D02*
X139574970Y-86057931D01*
X139574970Y-86057931D02*
X139384494Y-86057931D01*
X139384494Y-86057931D02*
X139289256Y-86010312D01*
X139289256Y-86010312D02*
X139241637Y-85962692D01*
X139241637Y-85962692D02*
X139194018Y-85867454D01*
X139194018Y-85867454D02*
X139194018Y-85581740D01*
X139194018Y-85581740D02*
X139241637Y-85486502D01*
X139241637Y-85486502D02*
X139289256Y-85438883D01*
X139289256Y-85438883D02*
X139384494Y-85391264D01*
X139384494Y-85391264D02*
X139574970Y-85391264D01*
X139574970Y-85391264D02*
X139670208Y-85438883D01*
X140479732Y-86010312D02*
X140384494Y-86057931D01*
X140384494Y-86057931D02*
X140194018Y-86057931D01*
X140194018Y-86057931D02*
X140098780Y-86010312D01*
X140098780Y-86010312D02*
X140051161Y-85915073D01*
X140051161Y-85915073D02*
X140051161Y-85534121D01*
X140051161Y-85534121D02*
X140098780Y-85438883D01*
X140098780Y-85438883D02*
X140194018Y-85391264D01*
X140194018Y-85391264D02*
X140384494Y-85391264D01*
X140384494Y-85391264D02*
X140479732Y-85438883D01*
X140479732Y-85438883D02*
X140527351Y-85534121D01*
X140527351Y-85534121D02*
X140527351Y-85629359D01*
X140527351Y-85629359D02*
X140051161Y-85724597D01*
X128098779Y-87667875D02*
X128098779Y-86667875D01*
X128098779Y-86667875D02*
X128765445Y-86667875D01*
X128765445Y-86667875D02*
X128765445Y-87667875D01*
X128765445Y-87667875D02*
X128098779Y-87667875D01*
X129860684Y-87001208D02*
X130241636Y-87001208D01*
X130003541Y-86667875D02*
X130003541Y-87525017D01*
X130003541Y-87525017D02*
X130051160Y-87620256D01*
X130051160Y-87620256D02*
X130146398Y-87667875D01*
X130146398Y-87667875D02*
X130241636Y-87667875D01*
X130955922Y-87620256D02*
X130860684Y-87667875D01*
X130860684Y-87667875D02*
X130670208Y-87667875D01*
X130670208Y-87667875D02*
X130574970Y-87620256D01*
X130574970Y-87620256D02*
X130527351Y-87525017D01*
X130527351Y-87525017D02*
X130527351Y-87144065D01*
X130527351Y-87144065D02*
X130574970Y-87048827D01*
X130574970Y-87048827D02*
X130670208Y-87001208D01*
X130670208Y-87001208D02*
X130860684Y-87001208D01*
X130860684Y-87001208D02*
X130955922Y-87048827D01*
X130955922Y-87048827D02*
X131003541Y-87144065D01*
X131003541Y-87144065D02*
X131003541Y-87239303D01*
X131003541Y-87239303D02*
X130527351Y-87334541D01*
X131384494Y-87620256D02*
X131479732Y-87667875D01*
X131479732Y-87667875D02*
X131670208Y-87667875D01*
X131670208Y-87667875D02*
X131765446Y-87620256D01*
X131765446Y-87620256D02*
X131813065Y-87525017D01*
X131813065Y-87525017D02*
X131813065Y-87477398D01*
X131813065Y-87477398D02*
X131765446Y-87382160D01*
X131765446Y-87382160D02*
X131670208Y-87334541D01*
X131670208Y-87334541D02*
X131527351Y-87334541D01*
X131527351Y-87334541D02*
X131432113Y-87286922D01*
X131432113Y-87286922D02*
X131384494Y-87191684D01*
X131384494Y-87191684D02*
X131384494Y-87144065D01*
X131384494Y-87144065D02*
X131432113Y-87048827D01*
X131432113Y-87048827D02*
X131527351Y-87001208D01*
X131527351Y-87001208D02*
X131670208Y-87001208D01*
X131670208Y-87001208D02*
X131765446Y-87048827D01*
X132098780Y-87001208D02*
X132479732Y-87001208D01*
X132241637Y-86667875D02*
X132241637Y-87525017D01*
X132241637Y-87525017D02*
X132289256Y-87620256D01*
X132289256Y-87620256D02*
X132384494Y-87667875D01*
X132384494Y-87667875D02*
X132479732Y-87667875D01*
X133194018Y-87620256D02*
X133098780Y-87667875D01*
X133098780Y-87667875D02*
X132908304Y-87667875D01*
X132908304Y-87667875D02*
X132813066Y-87620256D01*
X132813066Y-87620256D02*
X132765447Y-87525017D01*
X132765447Y-87525017D02*
X132765447Y-87144065D01*
X132765447Y-87144065D02*
X132813066Y-87048827D01*
X132813066Y-87048827D02*
X132908304Y-87001208D01*
X132908304Y-87001208D02*
X133098780Y-87001208D01*
X133098780Y-87001208D02*
X133194018Y-87048827D01*
X133194018Y-87048827D02*
X133241637Y-87144065D01*
X133241637Y-87144065D02*
X133241637Y-87239303D01*
X133241637Y-87239303D02*
X132765447Y-87334541D01*
X133670209Y-87667875D02*
X133670209Y-87001208D01*
X133670209Y-87191684D02*
X133717828Y-87096446D01*
X133717828Y-87096446D02*
X133765447Y-87048827D01*
X133765447Y-87048827D02*
X133860685Y-87001208D01*
X133860685Y-87001208D02*
X133955923Y-87001208D01*
X128098779Y-89277819D02*
X128098779Y-88277819D01*
X128098779Y-88277819D02*
X128479731Y-88277819D01*
X128479731Y-88277819D02*
X128574969Y-88325438D01*
X128574969Y-88325438D02*
X128622588Y-88373057D01*
X128622588Y-88373057D02*
X128670207Y-88468295D01*
X128670207Y-88468295D02*
X128670207Y-88611152D01*
X128670207Y-88611152D02*
X128622588Y-88706390D01*
X128622588Y-88706390D02*
X128574969Y-88754009D01*
X128574969Y-88754009D02*
X128479731Y-88801628D01*
X128479731Y-88801628D02*
X128098779Y-88801628D01*
X129670207Y-89182580D02*
X129622588Y-89230200D01*
X129622588Y-89230200D02*
X129479731Y-89277819D01*
X129479731Y-89277819D02*
X129384493Y-89277819D01*
X129384493Y-89277819D02*
X129241636Y-89230200D01*
X129241636Y-89230200D02*
X129146398Y-89134961D01*
X129146398Y-89134961D02*
X129098779Y-89039723D01*
X129098779Y-89039723D02*
X129051160Y-88849247D01*
X129051160Y-88849247D02*
X129051160Y-88706390D01*
X129051160Y-88706390D02*
X129098779Y-88515914D01*
X129098779Y-88515914D02*
X129146398Y-88420676D01*
X129146398Y-88420676D02*
X129241636Y-88325438D01*
X129241636Y-88325438D02*
X129384493Y-88277819D01*
X129384493Y-88277819D02*
X129479731Y-88277819D01*
X129479731Y-88277819D02*
X129622588Y-88325438D01*
X129622588Y-88325438D02*
X129670207Y-88373057D01*
X130432112Y-88754009D02*
X130574969Y-88801628D01*
X130574969Y-88801628D02*
X130622588Y-88849247D01*
X130622588Y-88849247D02*
X130670207Y-88944485D01*
X130670207Y-88944485D02*
X130670207Y-89087342D01*
X130670207Y-89087342D02*
X130622588Y-89182580D01*
X130622588Y-89182580D02*
X130574969Y-89230200D01*
X130574969Y-89230200D02*
X130479731Y-89277819D01*
X130479731Y-89277819D02*
X130098779Y-89277819D01*
X130098779Y-89277819D02*
X130098779Y-88277819D01*
X130098779Y-88277819D02*
X130432112Y-88277819D01*
X130432112Y-88277819D02*
X130527350Y-88325438D01*
X130527350Y-88325438D02*
X130574969Y-88373057D01*
X130574969Y-88373057D02*
X130622588Y-88468295D01*
X130622588Y-88468295D02*
X130622588Y-88563533D01*
X130622588Y-88563533D02*
X130574969Y-88658771D01*
X130574969Y-88658771D02*
X130527350Y-88706390D01*
X130527350Y-88706390D02*
X130432112Y-88754009D01*
X130432112Y-88754009D02*
X130098779Y-88754009D01*
X132432112Y-89277819D02*
X132098779Y-88801628D01*
X131860684Y-89277819D02*
X131860684Y-88277819D01*
X131860684Y-88277819D02*
X132241636Y-88277819D01*
X132241636Y-88277819D02*
X132336874Y-88325438D01*
X132336874Y-88325438D02*
X132384493Y-88373057D01*
X132384493Y-88373057D02*
X132432112Y-88468295D01*
X132432112Y-88468295D02*
X132432112Y-88611152D01*
X132432112Y-88611152D02*
X132384493Y-88706390D01*
X132384493Y-88706390D02*
X132336874Y-88754009D01*
X132336874Y-88754009D02*
X132241636Y-88801628D01*
X132241636Y-88801628D02*
X131860684Y-88801628D01*
X133241636Y-89230200D02*
X133146398Y-89277819D01*
X133146398Y-89277819D02*
X132955922Y-89277819D01*
X132955922Y-89277819D02*
X132860684Y-89230200D01*
X132860684Y-89230200D02*
X132813065Y-89134961D01*
X132813065Y-89134961D02*
X132813065Y-88754009D01*
X132813065Y-88754009D02*
X132860684Y-88658771D01*
X132860684Y-88658771D02*
X132955922Y-88611152D01*
X132955922Y-88611152D02*
X133146398Y-88611152D01*
X133146398Y-88611152D02*
X133241636Y-88658771D01*
X133241636Y-88658771D02*
X133289255Y-88754009D01*
X133289255Y-88754009D02*
X133289255Y-88849247D01*
X133289255Y-88849247D02*
X132813065Y-88944485D01*
X133622589Y-88611152D02*
X133860684Y-89277819D01*
X133860684Y-89277819D02*
X134098779Y-88611152D01*
X134479732Y-89182580D02*
X134527351Y-89230200D01*
X134527351Y-89230200D02*
X134479732Y-89277819D01*
X134479732Y-89277819D02*
X134432113Y-89230200D01*
X134432113Y-89230200D02*
X134479732Y-89182580D01*
X134479732Y-89182580D02*
X134479732Y-89277819D01*
X136241636Y-89277819D02*
X135670208Y-89277819D01*
X135955922Y-89277819D02*
X135955922Y-88277819D01*
X135955922Y-88277819D02*
X135860684Y-88420676D01*
X135860684Y-88420676D02*
X135765446Y-88515914D01*
X135765446Y-88515914D02*
X135670208Y-88563533D01*
X136670208Y-89182580D02*
X136717827Y-89230200D01*
X136717827Y-89230200D02*
X136670208Y-89277819D01*
X136670208Y-89277819D02*
X136622589Y-89230200D01*
X136622589Y-89230200D02*
X136670208Y-89182580D01*
X136670208Y-89182580D02*
X136670208Y-89277819D01*
X137098779Y-88373057D02*
X137146398Y-88325438D01*
X137146398Y-88325438D02*
X137241636Y-88277819D01*
X137241636Y-88277819D02*
X137479731Y-88277819D01*
X137479731Y-88277819D02*
X137574969Y-88325438D01*
X137574969Y-88325438D02*
X137622588Y-88373057D01*
X137622588Y-88373057D02*
X137670207Y-88468295D01*
X137670207Y-88468295D02*
X137670207Y-88563533D01*
X137670207Y-88563533D02*
X137622588Y-88706390D01*
X137622588Y-88706390D02*
X137051160Y-89277819D01*
X137051160Y-89277819D02*
X137670207Y-89277819D01*
X138098779Y-89277819D02*
X138098779Y-88277819D01*
X138098779Y-88658771D02*
X138194017Y-88611152D01*
X138194017Y-88611152D02*
X138384493Y-88611152D01*
X138384493Y-88611152D02*
X138479731Y-88658771D01*
X138479731Y-88658771D02*
X138527350Y-88706390D01*
X138527350Y-88706390D02*
X138574969Y-88801628D01*
X138574969Y-88801628D02*
X138574969Y-89087342D01*
X138574969Y-89087342D02*
X138527350Y-89182580D01*
X138527350Y-89182580D02*
X138479731Y-89230200D01*
X138479731Y-89230200D02*
X138384493Y-89277819D01*
X138384493Y-89277819D02*
X138194017Y-89277819D01*
X138194017Y-89277819D02*
X138098779Y-89230200D01*
X111485350Y-110379152D02*
X111485350Y-111045819D01*
X111247255Y-109998200D02*
X111009160Y-110712485D01*
X111009160Y-110712485D02*
X111628207Y-110712485D01*
X111913922Y-110045819D02*
X112580588Y-110045819D01*
X112580588Y-110045819D02*
X112152017Y-111045819D01*
X113152017Y-110045819D02*
X113247255Y-110045819D01*
X113247255Y-110045819D02*
X113342493Y-110093438D01*
X113342493Y-110093438D02*
X113390112Y-110141057D01*
X113390112Y-110141057D02*
X113437731Y-110236295D01*
X113437731Y-110236295D02*
X113485350Y-110426771D01*
X113485350Y-110426771D02*
X113485350Y-110664866D01*
X113485350Y-110664866D02*
X113437731Y-110855342D01*
X113437731Y-110855342D02*
X113390112Y-110950580D01*
X113390112Y-110950580D02*
X113342493Y-110998200D01*
X113342493Y-110998200D02*
X113247255Y-111045819D01*
X113247255Y-111045819D02*
X113152017Y-111045819D01*
X113152017Y-111045819D02*
X113056779Y-110998200D01*
X113056779Y-110998200D02*
X113009160Y-110950580D01*
X113009160Y-110950580D02*
X112961541Y-110855342D01*
X112961541Y-110855342D02*
X112913922Y-110664866D01*
X112913922Y-110664866D02*
X112913922Y-110426771D01*
X112913922Y-110426771D02*
X112961541Y-110236295D01*
X112961541Y-110236295D02*
X113009160Y-110141057D01*
X113009160Y-110141057D02*
X113056779Y-110093438D01*
X113056779Y-110093438D02*
X113152017Y-110045819D01*
X113866303Y-111045819D02*
X114104398Y-111045819D01*
X114104398Y-111045819D02*
X114104398Y-110855342D01*
X114104398Y-110855342D02*
X114009160Y-110807723D01*
X114009160Y-110807723D02*
X113913922Y-110712485D01*
X113913922Y-110712485D02*
X113866303Y-110569628D01*
X113866303Y-110569628D02*
X113866303Y-110331533D01*
X113866303Y-110331533D02*
X113913922Y-110188676D01*
X113913922Y-110188676D02*
X114009160Y-110093438D01*
X114009160Y-110093438D02*
X114152017Y-110045819D01*
X114152017Y-110045819D02*
X114342493Y-110045819D01*
X114342493Y-110045819D02*
X114485350Y-110093438D01*
X114485350Y-110093438D02*
X114580588Y-110188676D01*
X114580588Y-110188676D02*
X114628207Y-110331533D01*
X114628207Y-110331533D02*
X114628207Y-110569628D01*
X114628207Y-110569628D02*
X114580588Y-110712485D01*
X114580588Y-110712485D02*
X114485350Y-110807723D01*
X114485350Y-110807723D02*
X114390112Y-110855342D01*
X114390112Y-110855342D02*
X114390112Y-111045819D01*
X114390112Y-111045819D02*
X114628207Y-111045819D01*
X115199636Y-110045819D02*
X115199636Y-110283914D01*
X114961541Y-110188676D02*
X115199636Y-110283914D01*
X115199636Y-110283914D02*
X115437731Y-110188676D01*
X115056779Y-110474390D02*
X115199636Y-110283914D01*
X115199636Y-110283914D02*
X115342493Y-110474390D01*
D11*
X127208646Y-94630419D02*
X127827693Y-94630419D01*
X127827693Y-94630419D02*
X127494360Y-95011371D01*
X127494360Y-95011371D02*
X127637217Y-95011371D01*
X127637217Y-95011371D02*
X127732455Y-95058990D01*
X127732455Y-95058990D02*
X127780074Y-95106609D01*
X127780074Y-95106609D02*
X127827693Y-95201847D01*
X127827693Y-95201847D02*
X127827693Y-95439942D01*
X127827693Y-95439942D02*
X127780074Y-95535180D01*
X127780074Y-95535180D02*
X127732455Y-95582800D01*
X127732455Y-95582800D02*
X127637217Y-95630419D01*
X127637217Y-95630419D02*
X127351503Y-95630419D01*
X127351503Y-95630419D02*
X127256265Y-95582800D01*
X127256265Y-95582800D02*
X127208646Y-95535180D01*
X128113408Y-94630419D02*
X128446741Y-95630419D01*
X128446741Y-95630419D02*
X128780074Y-94630419D01*
X129018170Y-94630419D02*
X129637217Y-94630419D01*
X129637217Y-94630419D02*
X129303884Y-95011371D01*
X129303884Y-95011371D02*
X129446741Y-95011371D01*
X129446741Y-95011371D02*
X129541979Y-95058990D01*
X129541979Y-95058990D02*
X129589598Y-95106609D01*
X129589598Y-95106609D02*
X129637217Y-95201847D01*
X129637217Y-95201847D02*
X129637217Y-95439942D01*
X129637217Y-95439942D02*
X129589598Y-95535180D01*
X129589598Y-95535180D02*
X129541979Y-95582800D01*
X129541979Y-95582800D02*
X129446741Y-95630419D01*
X129446741Y-95630419D02*
X129161027Y-95630419D01*
X129161027Y-95630419D02*
X129065789Y-95582800D01*
X129065789Y-95582800D02*
X129018170Y-95535180D01*
D10*
X97872779Y-115312866D02*
X98634684Y-115312866D01*
D11*
X140191609Y-114297782D02*
X140191609Y-114631115D01*
X140715419Y-114631115D02*
X139715419Y-114631115D01*
X139715419Y-114631115D02*
X139715419Y-114154925D01*
X140715419Y-113345401D02*
X140191609Y-113345401D01*
X140191609Y-113345401D02*
X140096371Y-113393020D01*
X140096371Y-113393020D02*
X140048752Y-113488258D01*
X140048752Y-113488258D02*
X140048752Y-113678734D01*
X140048752Y-113678734D02*
X140096371Y-113773972D01*
X140667800Y-113345401D02*
X140715419Y-113440639D01*
X140715419Y-113440639D02*
X140715419Y-113678734D01*
X140715419Y-113678734D02*
X140667800Y-113773972D01*
X140667800Y-113773972D02*
X140572561Y-113821591D01*
X140572561Y-113821591D02*
X140477323Y-113821591D01*
X140477323Y-113821591D02*
X140382085Y-113773972D01*
X140382085Y-113773972D02*
X140334466Y-113678734D01*
X140334466Y-113678734D02*
X140334466Y-113440639D01*
X140334466Y-113440639D02*
X140286847Y-113345401D01*
X140048752Y-112964448D02*
X140715419Y-112726353D01*
X140715419Y-112726353D02*
X140048752Y-112488258D01*
X140667800Y-111726353D02*
X140715419Y-111821591D01*
X140715419Y-111821591D02*
X140715419Y-112012067D01*
X140715419Y-112012067D02*
X140667800Y-112107305D01*
X140667800Y-112107305D02*
X140572561Y-112154924D01*
X140572561Y-112154924D02*
X140191609Y-112154924D01*
X140191609Y-112154924D02*
X140096371Y-112107305D01*
X140096371Y-112107305D02*
X140048752Y-112012067D01*
X140048752Y-112012067D02*
X140048752Y-111821591D01*
X140048752Y-111821591D02*
X140096371Y-111726353D01*
X140096371Y-111726353D02*
X140191609Y-111678734D01*
X140191609Y-111678734D02*
X140286847Y-111678734D01*
X140286847Y-111678734D02*
X140382085Y-112154924D01*
X140715419Y-111250162D02*
X140048752Y-111250162D01*
X140239228Y-111250162D02*
X140143990Y-111202543D01*
X140143990Y-111202543D02*
X140096371Y-111154924D01*
X140096371Y-111154924D02*
X140048752Y-111059686D01*
X140048752Y-111059686D02*
X140048752Y-110964448D01*
X140715419Y-110488257D02*
X140667800Y-110583495D01*
X140667800Y-110583495D02*
X140620180Y-110631114D01*
X140620180Y-110631114D02*
X140524942Y-110678733D01*
X140524942Y-110678733D02*
X140239228Y-110678733D01*
X140239228Y-110678733D02*
X140143990Y-110631114D01*
X140143990Y-110631114D02*
X140096371Y-110583495D01*
X140096371Y-110583495D02*
X140048752Y-110488257D01*
X140048752Y-110488257D02*
X140048752Y-110345400D01*
X140048752Y-110345400D02*
X140096371Y-110250162D01*
X140096371Y-110250162D02*
X140143990Y-110202543D01*
X140143990Y-110202543D02*
X140239228Y-110154924D01*
X140239228Y-110154924D02*
X140524942Y-110154924D01*
X140524942Y-110154924D02*
X140620180Y-110202543D01*
X140620180Y-110202543D02*
X140667800Y-110250162D01*
X140667800Y-110250162D02*
X140715419Y-110345400D01*
X140715419Y-110345400D02*
X140715419Y-110488257D01*
D10*
X111699350Y-104439152D02*
X111699350Y-105105819D01*
X111461255Y-104058200D02*
X111223160Y-104772485D01*
X111223160Y-104772485D02*
X111842207Y-104772485D01*
X112127922Y-104105819D02*
X112794588Y-104105819D01*
X112794588Y-104105819D02*
X112366017Y-105105819D01*
X113366017Y-104105819D02*
X113461255Y-104105819D01*
X113461255Y-104105819D02*
X113556493Y-104153438D01*
X113556493Y-104153438D02*
X113604112Y-104201057D01*
X113604112Y-104201057D02*
X113651731Y-104296295D01*
X113651731Y-104296295D02*
X113699350Y-104486771D01*
X113699350Y-104486771D02*
X113699350Y-104724866D01*
X113699350Y-104724866D02*
X113651731Y-104915342D01*
X113651731Y-104915342D02*
X113604112Y-105010580D01*
X113604112Y-105010580D02*
X113556493Y-105058200D01*
X113556493Y-105058200D02*
X113461255Y-105105819D01*
X113461255Y-105105819D02*
X113366017Y-105105819D01*
X113366017Y-105105819D02*
X113270779Y-105058200D01*
X113270779Y-105058200D02*
X113223160Y-105010580D01*
X113223160Y-105010580D02*
X113175541Y-104915342D01*
X113175541Y-104915342D02*
X113127922Y-104724866D01*
X113127922Y-104724866D02*
X113127922Y-104486771D01*
X113127922Y-104486771D02*
X113175541Y-104296295D01*
X113175541Y-104296295D02*
X113223160Y-104201057D01*
X113223160Y-104201057D02*
X113270779Y-104153438D01*
X113270779Y-104153438D02*
X113366017Y-104105819D01*
X114080303Y-105105819D02*
X114318398Y-105105819D01*
X114318398Y-105105819D02*
X114318398Y-104915342D01*
X114318398Y-104915342D02*
X114223160Y-104867723D01*
X114223160Y-104867723D02*
X114127922Y-104772485D01*
X114127922Y-104772485D02*
X114080303Y-104629628D01*
X114080303Y-104629628D02*
X114080303Y-104391533D01*
X114080303Y-104391533D02*
X114127922Y-104248676D01*
X114127922Y-104248676D02*
X114223160Y-104153438D01*
X114223160Y-104153438D02*
X114366017Y-104105819D01*
X114366017Y-104105819D02*
X114556493Y-104105819D01*
X114556493Y-104105819D02*
X114699350Y-104153438D01*
X114699350Y-104153438D02*
X114794588Y-104248676D01*
X114794588Y-104248676D02*
X114842207Y-104391533D01*
X114842207Y-104391533D02*
X114842207Y-104629628D01*
X114842207Y-104629628D02*
X114794588Y-104772485D01*
X114794588Y-104772485D02*
X114699350Y-104867723D01*
X114699350Y-104867723D02*
X114604112Y-104915342D01*
X114604112Y-104915342D02*
X114604112Y-105105819D01*
X114604112Y-105105819D02*
X114842207Y-105105819D01*
X115413636Y-104105819D02*
X115413636Y-104343914D01*
X115175541Y-104248676D02*
X115413636Y-104343914D01*
X115413636Y-104343914D02*
X115651731Y-104248676D01*
X115270779Y-104534390D02*
X115413636Y-104343914D01*
X115413636Y-104343914D02*
X115556493Y-104534390D01*
D11*
X128065884Y-98297419D02*
X128065884Y-97297419D01*
X128065884Y-97297419D02*
X128637312Y-98297419D01*
X128637312Y-98297419D02*
X128637312Y-97297419D01*
X129684931Y-98202180D02*
X129637312Y-98249800D01*
X129637312Y-98249800D02*
X129494455Y-98297419D01*
X129494455Y-98297419D02*
X129399217Y-98297419D01*
X129399217Y-98297419D02*
X129256360Y-98249800D01*
X129256360Y-98249800D02*
X129161122Y-98154561D01*
X129161122Y-98154561D02*
X129113503Y-98059323D01*
X129113503Y-98059323D02*
X129065884Y-97868847D01*
X129065884Y-97868847D02*
X129065884Y-97725990D01*
X129065884Y-97725990D02*
X129113503Y-97535514D01*
X129113503Y-97535514D02*
X129161122Y-97440276D01*
X129161122Y-97440276D02*
X129256360Y-97345038D01*
X129256360Y-97345038D02*
X129399217Y-97297419D01*
X129399217Y-97297419D02*
X129494455Y-97297419D01*
X129494455Y-97297419D02*
X129637312Y-97345038D01*
X129637312Y-97345038D02*
X129684931Y-97392657D01*
X111267419Y-100676972D02*
X111267419Y-100105544D01*
X112267419Y-100391258D02*
X111267419Y-100391258D01*
X111267419Y-99867448D02*
X112267419Y-99200782D01*
X111267419Y-99200782D02*
X112267419Y-99867448D01*
X107060419Y-101042115D02*
X106060419Y-101042115D01*
X106060419Y-101042115D02*
X107060419Y-100470687D01*
X107060419Y-100470687D02*
X106060419Y-100470687D01*
X106965180Y-99423068D02*
X107012800Y-99470687D01*
X107012800Y-99470687D02*
X107060419Y-99613544D01*
X107060419Y-99613544D02*
X107060419Y-99708782D01*
X107060419Y-99708782D02*
X107012800Y-99851639D01*
X107012800Y-99851639D02*
X106917561Y-99946877D01*
X106917561Y-99946877D02*
X106822323Y-99994496D01*
X106822323Y-99994496D02*
X106631847Y-100042115D01*
X106631847Y-100042115D02*
X106488990Y-100042115D01*
X106488990Y-100042115D02*
X106298514Y-99994496D01*
X106298514Y-99994496D02*
X106203276Y-99946877D01*
X106203276Y-99946877D02*
X106108038Y-99851639D01*
X106108038Y-99851639D02*
X106060419Y-99708782D01*
X106060419Y-99708782D02*
X106060419Y-99613544D01*
X106060419Y-99613544D02*
X106108038Y-99470687D01*
X106108038Y-99470687D02*
X106155657Y-99423068D01*
X113982038Y-101280306D02*
X113934419Y-101375544D01*
X113934419Y-101375544D02*
X113934419Y-101518401D01*
X113934419Y-101518401D02*
X113982038Y-101661258D01*
X113982038Y-101661258D02*
X114077276Y-101756496D01*
X114077276Y-101756496D02*
X114172514Y-101804115D01*
X114172514Y-101804115D02*
X114362990Y-101851734D01*
X114362990Y-101851734D02*
X114505847Y-101851734D01*
X114505847Y-101851734D02*
X114696323Y-101804115D01*
X114696323Y-101804115D02*
X114791561Y-101756496D01*
X114791561Y-101756496D02*
X114886800Y-101661258D01*
X114886800Y-101661258D02*
X114934419Y-101518401D01*
X114934419Y-101518401D02*
X114934419Y-101423163D01*
X114934419Y-101423163D02*
X114886800Y-101280306D01*
X114886800Y-101280306D02*
X114839180Y-101232687D01*
X114839180Y-101232687D02*
X114505847Y-101232687D01*
X114505847Y-101232687D02*
X114505847Y-101423163D01*
X114934419Y-100804115D02*
X113934419Y-100804115D01*
X113934419Y-100804115D02*
X114934419Y-100232687D01*
X114934419Y-100232687D02*
X113934419Y-100232687D01*
X114934419Y-99756496D02*
X113934419Y-99756496D01*
X113934419Y-99756496D02*
X113934419Y-99518401D01*
X113934419Y-99518401D02*
X113982038Y-99375544D01*
X113982038Y-99375544D02*
X114077276Y-99280306D01*
X114077276Y-99280306D02*
X114172514Y-99232687D01*
X114172514Y-99232687D02*
X114362990Y-99185068D01*
X114362990Y-99185068D02*
X114505847Y-99185068D01*
X114505847Y-99185068D02*
X114696323Y-99232687D01*
X114696323Y-99232687D02*
X114791561Y-99280306D01*
X114791561Y-99280306D02*
X114886800Y-99375544D01*
X114886800Y-99375544D02*
X114934419Y-99518401D01*
X114934419Y-99518401D02*
X114934419Y-99756496D01*
D10*
X112580588Y-126045819D02*
X112009160Y-126045819D01*
X112294874Y-126045819D02*
X112294874Y-125045819D01*
X112294874Y-125045819D02*
X112199636Y-125188676D01*
X112199636Y-125188676D02*
X112104398Y-125283914D01*
X112104398Y-125283914D02*
X112009160Y-125331533D01*
X113199636Y-125045819D02*
X113294874Y-125045819D01*
X113294874Y-125045819D02*
X113390112Y-125093438D01*
X113390112Y-125093438D02*
X113437731Y-125141057D01*
X113437731Y-125141057D02*
X113485350Y-125236295D01*
X113485350Y-125236295D02*
X113532969Y-125426771D01*
X113532969Y-125426771D02*
X113532969Y-125664866D01*
X113532969Y-125664866D02*
X113485350Y-125855342D01*
X113485350Y-125855342D02*
X113437731Y-125950580D01*
X113437731Y-125950580D02*
X113390112Y-125998200D01*
X113390112Y-125998200D02*
X113294874Y-126045819D01*
X113294874Y-126045819D02*
X113199636Y-126045819D01*
X113199636Y-126045819D02*
X113104398Y-125998200D01*
X113104398Y-125998200D02*
X113056779Y-125950580D01*
X113056779Y-125950580D02*
X113009160Y-125855342D01*
X113009160Y-125855342D02*
X112961541Y-125664866D01*
X112961541Y-125664866D02*
X112961541Y-125426771D01*
X112961541Y-125426771D02*
X113009160Y-125236295D01*
X113009160Y-125236295D02*
X113056779Y-125141057D01*
X113056779Y-125141057D02*
X113104398Y-125093438D01*
X113104398Y-125093438D02*
X113199636Y-125045819D01*
X113961541Y-126045819D02*
X113961541Y-125045819D01*
X114056779Y-125664866D02*
X114342493Y-126045819D01*
X114342493Y-125379152D02*
X113961541Y-125760104D01*
D11*
X127161027Y-99964419D02*
X127732455Y-99964419D01*
X127446741Y-100964419D02*
X127446741Y-99964419D01*
X127970551Y-99964419D02*
X128637217Y-100964419D01*
X128637217Y-99964419D02*
X127970551Y-100964419D01*
X129208646Y-99964419D02*
X129303884Y-99964419D01*
X129303884Y-99964419D02*
X129399122Y-100012038D01*
X129399122Y-100012038D02*
X129446741Y-100059657D01*
X129446741Y-100059657D02*
X129494360Y-100154895D01*
X129494360Y-100154895D02*
X129541979Y-100345371D01*
X129541979Y-100345371D02*
X129541979Y-100583466D01*
X129541979Y-100583466D02*
X129494360Y-100773942D01*
X129494360Y-100773942D02*
X129446741Y-100869180D01*
X129446741Y-100869180D02*
X129399122Y-100916800D01*
X129399122Y-100916800D02*
X129303884Y-100964419D01*
X129303884Y-100964419D02*
X129208646Y-100964419D01*
X129208646Y-100964419D02*
X129113408Y-100916800D01*
X129113408Y-100916800D02*
X129065789Y-100869180D01*
X129065789Y-100869180D02*
X129018170Y-100773942D01*
X129018170Y-100773942D02*
X128970551Y-100583466D01*
X128970551Y-100583466D02*
X128970551Y-100345371D01*
X128970551Y-100345371D02*
X129018170Y-100154895D01*
X129018170Y-100154895D02*
X129065789Y-100059657D01*
X129065789Y-100059657D02*
X129113408Y-100012038D01*
X129113408Y-100012038D02*
X129208646Y-99964419D01*
X119760419Y-101042115D02*
X118760419Y-101042115D01*
X118760419Y-101042115D02*
X119760419Y-100470687D01*
X119760419Y-100470687D02*
X118760419Y-100470687D01*
X119665180Y-99423068D02*
X119712800Y-99470687D01*
X119712800Y-99470687D02*
X119760419Y-99613544D01*
X119760419Y-99613544D02*
X119760419Y-99708782D01*
X119760419Y-99708782D02*
X119712800Y-99851639D01*
X119712800Y-99851639D02*
X119617561Y-99946877D01*
X119617561Y-99946877D02*
X119522323Y-99994496D01*
X119522323Y-99994496D02*
X119331847Y-100042115D01*
X119331847Y-100042115D02*
X119188990Y-100042115D01*
X119188990Y-100042115D02*
X118998514Y-99994496D01*
X118998514Y-99994496D02*
X118903276Y-99946877D01*
X118903276Y-99946877D02*
X118808038Y-99851639D01*
X118808038Y-99851639D02*
X118760419Y-99708782D01*
X118760419Y-99708782D02*
X118760419Y-99613544D01*
X118760419Y-99613544D02*
X118808038Y-99470687D01*
X118808038Y-99470687D02*
X118855657Y-99423068D01*
D10*
X111485350Y-113379152D02*
X111485350Y-114045819D01*
X111247255Y-112998200D02*
X111009160Y-113712485D01*
X111009160Y-113712485D02*
X111628207Y-113712485D01*
X111913922Y-113045819D02*
X112580588Y-113045819D01*
X112580588Y-113045819D02*
X112152017Y-114045819D01*
X113152017Y-113045819D02*
X113247255Y-113045819D01*
X113247255Y-113045819D02*
X113342493Y-113093438D01*
X113342493Y-113093438D02*
X113390112Y-113141057D01*
X113390112Y-113141057D02*
X113437731Y-113236295D01*
X113437731Y-113236295D02*
X113485350Y-113426771D01*
X113485350Y-113426771D02*
X113485350Y-113664866D01*
X113485350Y-113664866D02*
X113437731Y-113855342D01*
X113437731Y-113855342D02*
X113390112Y-113950580D01*
X113390112Y-113950580D02*
X113342493Y-113998200D01*
X113342493Y-113998200D02*
X113247255Y-114045819D01*
X113247255Y-114045819D02*
X113152017Y-114045819D01*
X113152017Y-114045819D02*
X113056779Y-113998200D01*
X113056779Y-113998200D02*
X113009160Y-113950580D01*
X113009160Y-113950580D02*
X112961541Y-113855342D01*
X112961541Y-113855342D02*
X112913922Y-113664866D01*
X112913922Y-113664866D02*
X112913922Y-113426771D01*
X112913922Y-113426771D02*
X112961541Y-113236295D01*
X112961541Y-113236295D02*
X113009160Y-113141057D01*
X113009160Y-113141057D02*
X113056779Y-113093438D01*
X113056779Y-113093438D02*
X113152017Y-113045819D01*
X113866303Y-114045819D02*
X114104398Y-114045819D01*
X114104398Y-114045819D02*
X114104398Y-113855342D01*
X114104398Y-113855342D02*
X114009160Y-113807723D01*
X114009160Y-113807723D02*
X113913922Y-113712485D01*
X113913922Y-113712485D02*
X113866303Y-113569628D01*
X113866303Y-113569628D02*
X113866303Y-113331533D01*
X113866303Y-113331533D02*
X113913922Y-113188676D01*
X113913922Y-113188676D02*
X114009160Y-113093438D01*
X114009160Y-113093438D02*
X114152017Y-113045819D01*
X114152017Y-113045819D02*
X114342493Y-113045819D01*
X114342493Y-113045819D02*
X114485350Y-113093438D01*
X114485350Y-113093438D02*
X114580588Y-113188676D01*
X114580588Y-113188676D02*
X114628207Y-113331533D01*
X114628207Y-113331533D02*
X114628207Y-113569628D01*
X114628207Y-113569628D02*
X114580588Y-113712485D01*
X114580588Y-113712485D02*
X114485350Y-113807723D01*
X114485350Y-113807723D02*
X114390112Y-113855342D01*
X114390112Y-113855342D02*
X114390112Y-114045819D01*
X114390112Y-114045819D02*
X114628207Y-114045819D01*
X115199636Y-113045819D02*
X115199636Y-113283914D01*
X114961541Y-113188676D02*
X115199636Y-113283914D01*
X115199636Y-113283914D02*
X115437731Y-113188676D01*
X115056779Y-113474390D02*
X115199636Y-113283914D01*
X115199636Y-113283914D02*
X115342493Y-113474390D01*
X130933819Y-114963411D02*
X130933819Y-115534839D01*
X130933819Y-115249125D02*
X129933819Y-115249125D01*
X129933819Y-115249125D02*
X130076676Y-115344363D01*
X130076676Y-115344363D02*
X130171914Y-115439601D01*
X130171914Y-115439601D02*
X130219533Y-115534839D01*
X129933819Y-114058649D02*
X129933819Y-114534839D01*
X129933819Y-114534839D02*
X130410009Y-114582458D01*
X130410009Y-114582458D02*
X130362390Y-114534839D01*
X130362390Y-114534839D02*
X130314771Y-114439601D01*
X130314771Y-114439601D02*
X130314771Y-114201506D01*
X130314771Y-114201506D02*
X130362390Y-114106268D01*
X130362390Y-114106268D02*
X130410009Y-114058649D01*
X130410009Y-114058649D02*
X130505247Y-114011030D01*
X130505247Y-114011030D02*
X130743342Y-114011030D01*
X130743342Y-114011030D02*
X130838580Y-114058649D01*
X130838580Y-114058649D02*
X130886200Y-114106268D01*
X130886200Y-114106268D02*
X130933819Y-114201506D01*
X130933819Y-114201506D02*
X130933819Y-114439601D01*
X130933819Y-114439601D02*
X130886200Y-114534839D01*
X130886200Y-114534839D02*
X130838580Y-114582458D01*
X129933819Y-113391982D02*
X129933819Y-113296744D01*
X129933819Y-113296744D02*
X129981438Y-113201506D01*
X129981438Y-113201506D02*
X130029057Y-113153887D01*
X130029057Y-113153887D02*
X130124295Y-113106268D01*
X130124295Y-113106268D02*
X130314771Y-113058649D01*
X130314771Y-113058649D02*
X130552866Y-113058649D01*
X130552866Y-113058649D02*
X130743342Y-113106268D01*
X130743342Y-113106268D02*
X130838580Y-113153887D01*
X130838580Y-113153887D02*
X130886200Y-113201506D01*
X130886200Y-113201506D02*
X130933819Y-113296744D01*
X130933819Y-113296744D02*
X130933819Y-113391982D01*
X130933819Y-113391982D02*
X130886200Y-113487220D01*
X130886200Y-113487220D02*
X130838580Y-113534839D01*
X130838580Y-113534839D02*
X130743342Y-113582458D01*
X130743342Y-113582458D02*
X130552866Y-113630077D01*
X130552866Y-113630077D02*
X130314771Y-113630077D01*
X130314771Y-113630077D02*
X130124295Y-113582458D01*
X130124295Y-113582458D02*
X130029057Y-113534839D01*
X130029057Y-113534839D02*
X129981438Y-113487220D01*
X129981438Y-113487220D02*
X129933819Y-113391982D01*
X130933819Y-112677696D02*
X130933819Y-112439601D01*
X130933819Y-112439601D02*
X130743342Y-112439601D01*
X130743342Y-112439601D02*
X130695723Y-112534839D01*
X130695723Y-112534839D02*
X130600485Y-112630077D01*
X130600485Y-112630077D02*
X130457628Y-112677696D01*
X130457628Y-112677696D02*
X130219533Y-112677696D01*
X130219533Y-112677696D02*
X130076676Y-112630077D01*
X130076676Y-112630077D02*
X129981438Y-112534839D01*
X129981438Y-112534839D02*
X129933819Y-112391982D01*
X129933819Y-112391982D02*
X129933819Y-112201506D01*
X129933819Y-112201506D02*
X129981438Y-112058649D01*
X129981438Y-112058649D02*
X130076676Y-111963411D01*
X130076676Y-111963411D02*
X130219533Y-111915792D01*
X130219533Y-111915792D02*
X130457628Y-111915792D01*
X130457628Y-111915792D02*
X130600485Y-111963411D01*
X130600485Y-111963411D02*
X130695723Y-112058649D01*
X130695723Y-112058649D02*
X130743342Y-112153887D01*
X130743342Y-112153887D02*
X130933819Y-112153887D01*
X130933819Y-112153887D02*
X130933819Y-111915792D01*
X111485350Y-116379152D02*
X111485350Y-117045819D01*
X111247255Y-115998200D02*
X111009160Y-116712485D01*
X111009160Y-116712485D02*
X111628207Y-116712485D01*
X111913922Y-116045819D02*
X112580588Y-116045819D01*
X112580588Y-116045819D02*
X112152017Y-117045819D01*
X113152017Y-116045819D02*
X113247255Y-116045819D01*
X113247255Y-116045819D02*
X113342493Y-116093438D01*
X113342493Y-116093438D02*
X113390112Y-116141057D01*
X113390112Y-116141057D02*
X113437731Y-116236295D01*
X113437731Y-116236295D02*
X113485350Y-116426771D01*
X113485350Y-116426771D02*
X113485350Y-116664866D01*
X113485350Y-116664866D02*
X113437731Y-116855342D01*
X113437731Y-116855342D02*
X113390112Y-116950580D01*
X113390112Y-116950580D02*
X113342493Y-116998200D01*
X113342493Y-116998200D02*
X113247255Y-117045819D01*
X113247255Y-117045819D02*
X113152017Y-117045819D01*
X113152017Y-117045819D02*
X113056779Y-116998200D01*
X113056779Y-116998200D02*
X113009160Y-116950580D01*
X113009160Y-116950580D02*
X112961541Y-116855342D01*
X112961541Y-116855342D02*
X112913922Y-116664866D01*
X112913922Y-116664866D02*
X112913922Y-116426771D01*
X112913922Y-116426771D02*
X112961541Y-116236295D01*
X112961541Y-116236295D02*
X113009160Y-116141057D01*
X113009160Y-116141057D02*
X113056779Y-116093438D01*
X113056779Y-116093438D02*
X113152017Y-116045819D01*
X113866303Y-117045819D02*
X114104398Y-117045819D01*
X114104398Y-117045819D02*
X114104398Y-116855342D01*
X114104398Y-116855342D02*
X114009160Y-116807723D01*
X114009160Y-116807723D02*
X113913922Y-116712485D01*
X113913922Y-116712485D02*
X113866303Y-116569628D01*
X113866303Y-116569628D02*
X113866303Y-116331533D01*
X113866303Y-116331533D02*
X113913922Y-116188676D01*
X113913922Y-116188676D02*
X114009160Y-116093438D01*
X114009160Y-116093438D02*
X114152017Y-116045819D01*
X114152017Y-116045819D02*
X114342493Y-116045819D01*
X114342493Y-116045819D02*
X114485350Y-116093438D01*
X114485350Y-116093438D02*
X114580588Y-116188676D01*
X114580588Y-116188676D02*
X114628207Y-116331533D01*
X114628207Y-116331533D02*
X114628207Y-116569628D01*
X114628207Y-116569628D02*
X114580588Y-116712485D01*
X114580588Y-116712485D02*
X114485350Y-116807723D01*
X114485350Y-116807723D02*
X114390112Y-116855342D01*
X114390112Y-116855342D02*
X114390112Y-117045819D01*
X114390112Y-117045819D02*
X114628207Y-117045819D01*
X115199636Y-116045819D02*
X115199636Y-116283914D01*
X114961541Y-116188676D02*
X115199636Y-116283914D01*
X115199636Y-116283914D02*
X115437731Y-116188676D01*
X115056779Y-116474390D02*
X115199636Y-116283914D01*
X115199636Y-116283914D02*
X115342493Y-116474390D01*
X132950057Y-114772839D02*
X132902438Y-114725220D01*
X132902438Y-114725220D02*
X132854819Y-114629982D01*
X132854819Y-114629982D02*
X132854819Y-114391887D01*
X132854819Y-114391887D02*
X132902438Y-114296649D01*
X132902438Y-114296649D02*
X132950057Y-114249030D01*
X132950057Y-114249030D02*
X133045295Y-114201411D01*
X133045295Y-114201411D02*
X133140533Y-114201411D01*
X133140533Y-114201411D02*
X133283390Y-114249030D01*
X133283390Y-114249030D02*
X133854819Y-114820458D01*
X133854819Y-114820458D02*
X133854819Y-114201411D01*
X133854819Y-113772839D02*
X132854819Y-113772839D01*
X133473866Y-113677601D02*
X133854819Y-113391887D01*
X133188152Y-113391887D02*
X133569104Y-113772839D01*
X132950057Y-113010934D02*
X132902438Y-112963315D01*
X132902438Y-112963315D02*
X132854819Y-112868077D01*
X132854819Y-112868077D02*
X132854819Y-112629982D01*
X132854819Y-112629982D02*
X132902438Y-112534744D01*
X132902438Y-112534744D02*
X132950057Y-112487125D01*
X132950057Y-112487125D02*
X133045295Y-112439506D01*
X133045295Y-112439506D02*
X133140533Y-112439506D01*
X133140533Y-112439506D02*
X133283390Y-112487125D01*
X133283390Y-112487125D02*
X133854819Y-113058553D01*
X133854819Y-113058553D02*
X133854819Y-112439506D01*
D11*
X135431884Y-100440609D02*
X135765217Y-100440609D01*
X135908074Y-100964419D02*
X135431884Y-100964419D01*
X135431884Y-100964419D02*
X135431884Y-99964419D01*
X135431884Y-99964419D02*
X135908074Y-99964419D01*
X136336646Y-100964419D02*
X136336646Y-99964419D01*
X136336646Y-99964419D02*
X136908074Y-100964419D01*
X136908074Y-100964419D02*
X136908074Y-99964419D01*
D10*
X130153580Y-129940666D02*
X130201200Y-129988285D01*
X130201200Y-129988285D02*
X130248819Y-130131142D01*
X130248819Y-130131142D02*
X130248819Y-130226380D01*
X130248819Y-130226380D02*
X130201200Y-130369237D01*
X130201200Y-130369237D02*
X130105961Y-130464475D01*
X130105961Y-130464475D02*
X130010723Y-130512094D01*
X130010723Y-130512094D02*
X129820247Y-130559713D01*
X129820247Y-130559713D02*
X129677390Y-130559713D01*
X129677390Y-130559713D02*
X129486914Y-130512094D01*
X129486914Y-130512094D02*
X129391676Y-130464475D01*
X129391676Y-130464475D02*
X129296438Y-130369237D01*
X129296438Y-130369237D02*
X129248819Y-130226380D01*
X129248819Y-130226380D02*
X129248819Y-130131142D01*
X129248819Y-130131142D02*
X129296438Y-129988285D01*
X129296438Y-129988285D02*
X129344057Y-129940666D01*
X129582152Y-129083523D02*
X130248819Y-129083523D01*
X129201200Y-129321618D02*
X129915485Y-129559713D01*
X129915485Y-129559713D02*
X129915485Y-128940666D01*
X139747666Y-117818819D02*
X139747666Y-118533104D01*
X139747666Y-118533104D02*
X139700047Y-118675961D01*
X139700047Y-118675961D02*
X139604809Y-118771200D01*
X139604809Y-118771200D02*
X139461952Y-118818819D01*
X139461952Y-118818819D02*
X139366714Y-118818819D01*
X140128619Y-117818819D02*
X140795285Y-117818819D01*
X140795285Y-117818819D02*
X140366714Y-118818819D01*
X140001666Y-104864819D02*
X140001666Y-105579104D01*
X140001666Y-105579104D02*
X139954047Y-105721961D01*
X139954047Y-105721961D02*
X139858809Y-105817200D01*
X139858809Y-105817200D02*
X139715952Y-105864819D01*
X139715952Y-105864819D02*
X139620714Y-105864819D01*
X140906428Y-104864819D02*
X140715952Y-104864819D01*
X140715952Y-104864819D02*
X140620714Y-104912438D01*
X140620714Y-104912438D02*
X140573095Y-104960057D01*
X140573095Y-104960057D02*
X140477857Y-105102914D01*
X140477857Y-105102914D02*
X140430238Y-105293390D01*
X140430238Y-105293390D02*
X140430238Y-105674342D01*
X140430238Y-105674342D02*
X140477857Y-105769580D01*
X140477857Y-105769580D02*
X140525476Y-105817200D01*
X140525476Y-105817200D02*
X140620714Y-105864819D01*
X140620714Y-105864819D02*
X140811190Y-105864819D01*
X140811190Y-105864819D02*
X140906428Y-105817200D01*
X140906428Y-105817200D02*
X140954047Y-105769580D01*
X140954047Y-105769580D02*
X141001666Y-105674342D01*
X141001666Y-105674342D02*
X141001666Y-105436247D01*
X141001666Y-105436247D02*
X140954047Y-105341009D01*
X140954047Y-105341009D02*
X140906428Y-105293390D01*
X140906428Y-105293390D02*
X140811190Y-105245771D01*
X140811190Y-105245771D02*
X140620714Y-105245771D01*
X140620714Y-105245771D02*
X140525476Y-105293390D01*
X140525476Y-105293390D02*
X140477857Y-105341009D01*
X140477857Y-105341009D02*
X140430238Y-105436247D01*
X90368856Y-118834819D02*
X90368856Y-119549104D01*
X90368856Y-119549104D02*
X90321237Y-119691961D01*
X90321237Y-119691961D02*
X90225999Y-119787200D01*
X90225999Y-119787200D02*
X90083142Y-119834819D01*
X90083142Y-119834819D02*
X89987904Y-119834819D01*
X90892666Y-119834819D02*
X91083142Y-119834819D01*
X91083142Y-119834819D02*
X91178380Y-119787200D01*
X91178380Y-119787200D02*
X91225999Y-119739580D01*
X91225999Y-119739580D02*
X91321237Y-119596723D01*
X91321237Y-119596723D02*
X91368856Y-119406247D01*
X91368856Y-119406247D02*
X91368856Y-119025295D01*
X91368856Y-119025295D02*
X91321237Y-118930057D01*
X91321237Y-118930057D02*
X91273618Y-118882438D01*
X91273618Y-118882438D02*
X91178380Y-118834819D01*
X91178380Y-118834819D02*
X90987904Y-118834819D01*
X90987904Y-118834819D02*
X90892666Y-118882438D01*
X90892666Y-118882438D02*
X90845047Y-118930057D01*
X90845047Y-118930057D02*
X90797428Y-119025295D01*
X90797428Y-119025295D02*
X90797428Y-119263390D01*
X90797428Y-119263390D02*
X90845047Y-119358628D01*
X90845047Y-119358628D02*
X90892666Y-119406247D01*
X90892666Y-119406247D02*
X90987904Y-119453866D01*
X90987904Y-119453866D02*
X91178380Y-119453866D01*
X91178380Y-119453866D02*
X91273618Y-119406247D01*
X91273618Y-119406247D02*
X91321237Y-119358628D01*
X91321237Y-119358628D02*
X91368856Y-119263390D01*
X93035523Y-118834819D02*
X92559333Y-118834819D01*
X92559333Y-118834819D02*
X92511714Y-119311009D01*
X92511714Y-119311009D02*
X92559333Y-119263390D01*
X92559333Y-119263390D02*
X92654571Y-119215771D01*
X92654571Y-119215771D02*
X92892666Y-119215771D01*
X92892666Y-119215771D02*
X92987904Y-119263390D01*
X92987904Y-119263390D02*
X93035523Y-119311009D01*
X93035523Y-119311009D02*
X93083142Y-119406247D01*
X93083142Y-119406247D02*
X93083142Y-119644342D01*
X93083142Y-119644342D02*
X93035523Y-119739580D01*
X93035523Y-119739580D02*
X92987904Y-119787200D01*
X92987904Y-119787200D02*
X92892666Y-119834819D01*
X92892666Y-119834819D02*
X92654571Y-119834819D01*
X92654571Y-119834819D02*
X92559333Y-119787200D01*
X92559333Y-119787200D02*
X92511714Y-119739580D01*
X93368857Y-118834819D02*
X93702190Y-119834819D01*
X93702190Y-119834819D02*
X94035523Y-118834819D01*
X95511714Y-119787200D02*
X95416476Y-119834819D01*
X95416476Y-119834819D02*
X95226000Y-119834819D01*
X95226000Y-119834819D02*
X95130762Y-119787200D01*
X95130762Y-119787200D02*
X95083143Y-119691961D01*
X95083143Y-119691961D02*
X95083143Y-119311009D01*
X95083143Y-119311009D02*
X95130762Y-119215771D01*
X95130762Y-119215771D02*
X95226000Y-119168152D01*
X95226000Y-119168152D02*
X95416476Y-119168152D01*
X95416476Y-119168152D02*
X95511714Y-119215771D01*
X95511714Y-119215771D02*
X95559333Y-119311009D01*
X95559333Y-119311009D02*
X95559333Y-119406247D01*
X95559333Y-119406247D02*
X95083143Y-119501485D01*
X95892667Y-119834819D02*
X96416476Y-119168152D01*
X95892667Y-119168152D02*
X96416476Y-119834819D01*
X96654572Y-119168152D02*
X97035524Y-119168152D01*
X96797429Y-118834819D02*
X96797429Y-119691961D01*
X96797429Y-119691961D02*
X96845048Y-119787200D01*
X96845048Y-119787200D02*
X96940286Y-119834819D01*
X96940286Y-119834819D02*
X97035524Y-119834819D01*
X97368858Y-119739580D02*
X97416477Y-119787200D01*
X97416477Y-119787200D02*
X97368858Y-119834819D01*
X97368858Y-119834819D02*
X97321239Y-119787200D01*
X97321239Y-119787200D02*
X97368858Y-119739580D01*
X97368858Y-119739580D02*
X97368858Y-119834819D01*
X100584095Y-126962819D02*
X100584095Y-127772342D01*
X100584095Y-127772342D02*
X100631714Y-127867580D01*
X100631714Y-127867580D02*
X100679333Y-127915200D01*
X100679333Y-127915200D02*
X100774571Y-127962819D01*
X100774571Y-127962819D02*
X100965047Y-127962819D01*
X100965047Y-127962819D02*
X101060285Y-127915200D01*
X101060285Y-127915200D02*
X101107904Y-127867580D01*
X101107904Y-127867580D02*
X101155523Y-127772342D01*
X101155523Y-127772342D02*
X101155523Y-126962819D01*
X102155523Y-127962819D02*
X101584095Y-127962819D01*
X101869809Y-127962819D02*
X101869809Y-126962819D01*
X101869809Y-126962819D02*
X101774571Y-127105676D01*
X101774571Y-127105676D02*
X101679333Y-127200914D01*
X101679333Y-127200914D02*
X101584095Y-127248533D01*
X111768095Y-130518819D02*
X111768095Y-131328342D01*
X111768095Y-131328342D02*
X111815714Y-131423580D01*
X111815714Y-131423580D02*
X111863333Y-131471200D01*
X111863333Y-131471200D02*
X111958571Y-131518819D01*
X111958571Y-131518819D02*
X112149047Y-131518819D01*
X112149047Y-131518819D02*
X112244285Y-131471200D01*
X112244285Y-131471200D02*
X112291904Y-131423580D01*
X112291904Y-131423580D02*
X112339523Y-131328342D01*
X112339523Y-131328342D02*
X112339523Y-130518819D01*
X112768095Y-131471200D02*
X112910952Y-131518819D01*
X112910952Y-131518819D02*
X113149047Y-131518819D01*
X113149047Y-131518819D02*
X113244285Y-131471200D01*
X113244285Y-131471200D02*
X113291904Y-131423580D01*
X113291904Y-131423580D02*
X113339523Y-131328342D01*
X113339523Y-131328342D02*
X113339523Y-131233104D01*
X113339523Y-131233104D02*
X113291904Y-131137866D01*
X113291904Y-131137866D02*
X113244285Y-131090247D01*
X113244285Y-131090247D02*
X113149047Y-131042628D01*
X113149047Y-131042628D02*
X112958571Y-130995009D01*
X112958571Y-130995009D02*
X112863333Y-130947390D01*
X112863333Y-130947390D02*
X112815714Y-130899771D01*
X112815714Y-130899771D02*
X112768095Y-130804533D01*
X112768095Y-130804533D02*
X112768095Y-130709295D01*
X112768095Y-130709295D02*
X112815714Y-130614057D01*
X112815714Y-130614057D02*
X112863333Y-130566438D01*
X112863333Y-130566438D02*
X112958571Y-130518819D01*
X112958571Y-130518819D02*
X113196666Y-130518819D01*
X113196666Y-130518819D02*
X113339523Y-130566438D01*
X114101428Y-130995009D02*
X114244285Y-131042628D01*
X114244285Y-131042628D02*
X114291904Y-131090247D01*
X114291904Y-131090247D02*
X114339523Y-131185485D01*
X114339523Y-131185485D02*
X114339523Y-131328342D01*
X114339523Y-131328342D02*
X114291904Y-131423580D01*
X114291904Y-131423580D02*
X114244285Y-131471200D01*
X114244285Y-131471200D02*
X114149047Y-131518819D01*
X114149047Y-131518819D02*
X113768095Y-131518819D01*
X113768095Y-131518819D02*
X113768095Y-130518819D01*
X113768095Y-130518819D02*
X114101428Y-130518819D01*
X114101428Y-130518819D02*
X114196666Y-130566438D01*
X114196666Y-130566438D02*
X114244285Y-130614057D01*
X114244285Y-130614057D02*
X114291904Y-130709295D01*
X114291904Y-130709295D02*
X114291904Y-130804533D01*
X114291904Y-130804533D02*
X114244285Y-130899771D01*
X114244285Y-130899771D02*
X114196666Y-130947390D01*
X114196666Y-130947390D02*
X114101428Y-130995009D01*
X114101428Y-130995009D02*
X113768095Y-130995009D01*
X118883333Y-108230819D02*
X118550000Y-107754628D01*
X118311905Y-108230819D02*
X118311905Y-107230819D01*
X118311905Y-107230819D02*
X118692857Y-107230819D01*
X118692857Y-107230819D02*
X118788095Y-107278438D01*
X118788095Y-107278438D02*
X118835714Y-107326057D01*
X118835714Y-107326057D02*
X118883333Y-107421295D01*
X118883333Y-107421295D02*
X118883333Y-107564152D01*
X118883333Y-107564152D02*
X118835714Y-107659390D01*
X118835714Y-107659390D02*
X118788095Y-107707009D01*
X118788095Y-107707009D02*
X118692857Y-107754628D01*
X118692857Y-107754628D02*
X118311905Y-107754628D01*
X119264286Y-107326057D02*
X119311905Y-107278438D01*
X119311905Y-107278438D02*
X119407143Y-107230819D01*
X119407143Y-107230819D02*
X119645238Y-107230819D01*
X119645238Y-107230819D02*
X119740476Y-107278438D01*
X119740476Y-107278438D02*
X119788095Y-107326057D01*
X119788095Y-107326057D02*
X119835714Y-107421295D01*
X119835714Y-107421295D02*
X119835714Y-107516533D01*
X119835714Y-107516533D02*
X119788095Y-107659390D01*
X119788095Y-107659390D02*
X119216667Y-108230819D01*
X119216667Y-108230819D02*
X119835714Y-108230819D01*
X95063580Y-129960666D02*
X95111200Y-130008285D01*
X95111200Y-130008285D02*
X95158819Y-130151142D01*
X95158819Y-130151142D02*
X95158819Y-130246380D01*
X95158819Y-130246380D02*
X95111200Y-130389237D01*
X95111200Y-130389237D02*
X95015961Y-130484475D01*
X95015961Y-130484475D02*
X94920723Y-130532094D01*
X94920723Y-130532094D02*
X94730247Y-130579713D01*
X94730247Y-130579713D02*
X94587390Y-130579713D01*
X94587390Y-130579713D02*
X94396914Y-130532094D01*
X94396914Y-130532094D02*
X94301676Y-130484475D01*
X94301676Y-130484475D02*
X94206438Y-130389237D01*
X94206438Y-130389237D02*
X94158819Y-130246380D01*
X94158819Y-130246380D02*
X94158819Y-130151142D01*
X94158819Y-130151142D02*
X94206438Y-130008285D01*
X94206438Y-130008285D02*
X94254057Y-129960666D01*
X94254057Y-129579713D02*
X94206438Y-129532094D01*
X94206438Y-129532094D02*
X94158819Y-129436856D01*
X94158819Y-129436856D02*
X94158819Y-129198761D01*
X94158819Y-129198761D02*
X94206438Y-129103523D01*
X94206438Y-129103523D02*
X94254057Y-129055904D01*
X94254057Y-129055904D02*
X94349295Y-129008285D01*
X94349295Y-129008285D02*
X94444533Y-129008285D01*
X94444533Y-129008285D02*
X94587390Y-129055904D01*
X94587390Y-129055904D02*
X95158819Y-129627332D01*
X95158819Y-129627332D02*
X95158819Y-129008285D01*
X90609580Y-129960666D02*
X90657200Y-130008285D01*
X90657200Y-130008285D02*
X90704819Y-130151142D01*
X90704819Y-130151142D02*
X90704819Y-130246380D01*
X90704819Y-130246380D02*
X90657200Y-130389237D01*
X90657200Y-130389237D02*
X90561961Y-130484475D01*
X90561961Y-130484475D02*
X90466723Y-130532094D01*
X90466723Y-130532094D02*
X90276247Y-130579713D01*
X90276247Y-130579713D02*
X90133390Y-130579713D01*
X90133390Y-130579713D02*
X89942914Y-130532094D01*
X89942914Y-130532094D02*
X89847676Y-130484475D01*
X89847676Y-130484475D02*
X89752438Y-130389237D01*
X89752438Y-130389237D02*
X89704819Y-130246380D01*
X89704819Y-130246380D02*
X89704819Y-130151142D01*
X89704819Y-130151142D02*
X89752438Y-130008285D01*
X89752438Y-130008285D02*
X89800057Y-129960666D01*
X90704819Y-129008285D02*
X90704819Y-129579713D01*
X90704819Y-129293999D02*
X89704819Y-129293999D01*
X89704819Y-129293999D02*
X89847676Y-129389237D01*
X89847676Y-129389237D02*
X89942914Y-129484475D01*
X89942914Y-129484475D02*
X89990533Y-129579713D01*
X119053333Y-114072819D02*
X118720000Y-113596628D01*
X118481905Y-114072819D02*
X118481905Y-113072819D01*
X118481905Y-113072819D02*
X118862857Y-113072819D01*
X118862857Y-113072819D02*
X118958095Y-113120438D01*
X118958095Y-113120438D02*
X119005714Y-113168057D01*
X119005714Y-113168057D02*
X119053333Y-113263295D01*
X119053333Y-113263295D02*
X119053333Y-113406152D01*
X119053333Y-113406152D02*
X119005714Y-113501390D01*
X119005714Y-113501390D02*
X118958095Y-113549009D01*
X118958095Y-113549009D02*
X118862857Y-113596628D01*
X118862857Y-113596628D02*
X118481905Y-113596628D01*
X119910476Y-113406152D02*
X119910476Y-114072819D01*
X119672381Y-113025200D02*
X119434286Y-113739485D01*
X119434286Y-113739485D02*
X120053333Y-113739485D01*
X95408761Y-103928057D02*
X95313523Y-103880438D01*
X95313523Y-103880438D02*
X95218285Y-103785200D01*
X95218285Y-103785200D02*
X95075428Y-103642342D01*
X95075428Y-103642342D02*
X94980190Y-103594723D01*
X94980190Y-103594723D02*
X94884952Y-103594723D01*
X94932571Y-103832819D02*
X94837333Y-103785200D01*
X94837333Y-103785200D02*
X94742095Y-103689961D01*
X94742095Y-103689961D02*
X94694476Y-103499485D01*
X94694476Y-103499485D02*
X94694476Y-103166152D01*
X94694476Y-103166152D02*
X94742095Y-102975676D01*
X94742095Y-102975676D02*
X94837333Y-102880438D01*
X94837333Y-102880438D02*
X94932571Y-102832819D01*
X94932571Y-102832819D02*
X95123047Y-102832819D01*
X95123047Y-102832819D02*
X95218285Y-102880438D01*
X95218285Y-102880438D02*
X95313523Y-102975676D01*
X95313523Y-102975676D02*
X95361142Y-103166152D01*
X95361142Y-103166152D02*
X95361142Y-103499485D01*
X95361142Y-103499485D02*
X95313523Y-103689961D01*
X95313523Y-103689961D02*
X95218285Y-103785200D01*
X95218285Y-103785200D02*
X95123047Y-103832819D01*
X95123047Y-103832819D02*
X94932571Y-103832819D01*
X96313523Y-103832819D02*
X95742095Y-103832819D01*
X96027809Y-103832819D02*
X96027809Y-102832819D01*
X96027809Y-102832819D02*
X95932571Y-102975676D01*
X95932571Y-102975676D02*
X95837333Y-103070914D01*
X95837333Y-103070914D02*
X95742095Y-103118533D01*
X103594819Y-100003762D02*
X104309104Y-100003762D01*
X104309104Y-100003762D02*
X104451961Y-100051381D01*
X104451961Y-100051381D02*
X104547200Y-100146619D01*
X104547200Y-100146619D02*
X104594819Y-100289476D01*
X104594819Y-100289476D02*
X104594819Y-100384714D01*
X103928152Y-99099000D02*
X104594819Y-99099000D01*
X103547200Y-99337095D02*
X104261485Y-99575190D01*
X104261485Y-99575190D02*
X104261485Y-98956143D01*
X104594819Y-97813285D02*
X103594819Y-97813285D01*
X104071009Y-97813285D02*
X104071009Y-97241857D01*
X104594819Y-97241857D02*
X103594819Y-97241857D01*
X104499580Y-96194238D02*
X104547200Y-96241857D01*
X104547200Y-96241857D02*
X104594819Y-96384714D01*
X104594819Y-96384714D02*
X104594819Y-96479952D01*
X104594819Y-96479952D02*
X104547200Y-96622809D01*
X104547200Y-96622809D02*
X104451961Y-96718047D01*
X104451961Y-96718047D02*
X104356723Y-96765666D01*
X104356723Y-96765666D02*
X104166247Y-96813285D01*
X104166247Y-96813285D02*
X104023390Y-96813285D01*
X104023390Y-96813285D02*
X103832914Y-96765666D01*
X103832914Y-96765666D02*
X103737676Y-96718047D01*
X103737676Y-96718047D02*
X103642438Y-96622809D01*
X103642438Y-96622809D02*
X103594819Y-96479952D01*
X103594819Y-96479952D02*
X103594819Y-96384714D01*
X103594819Y-96384714D02*
X103642438Y-96241857D01*
X103642438Y-96241857D02*
X103690057Y-96194238D01*
X104213866Y-95765666D02*
X104213866Y-95003762D01*
X103594819Y-94337095D02*
X103594819Y-94241857D01*
X103594819Y-94241857D02*
X103642438Y-94146619D01*
X103642438Y-94146619D02*
X103690057Y-94099000D01*
X103690057Y-94099000D02*
X103785295Y-94051381D01*
X103785295Y-94051381D02*
X103975771Y-94003762D01*
X103975771Y-94003762D02*
X104213866Y-94003762D01*
X104213866Y-94003762D02*
X104404342Y-94051381D01*
X104404342Y-94051381D02*
X104499580Y-94099000D01*
X104499580Y-94099000D02*
X104547200Y-94146619D01*
X104547200Y-94146619D02*
X104594819Y-94241857D01*
X104594819Y-94241857D02*
X104594819Y-94337095D01*
X104594819Y-94337095D02*
X104547200Y-94432333D01*
X104547200Y-94432333D02*
X104499580Y-94479952D01*
X104499580Y-94479952D02*
X104404342Y-94527571D01*
X104404342Y-94527571D02*
X104213866Y-94575190D01*
X104213866Y-94575190D02*
X103975771Y-94575190D01*
X103975771Y-94575190D02*
X103785295Y-94527571D01*
X103785295Y-94527571D02*
X103690057Y-94479952D01*
X103690057Y-94479952D02*
X103642438Y-94432333D01*
X103642438Y-94432333D02*
X103594819Y-94337095D01*
X103594819Y-93146619D02*
X103594819Y-93337095D01*
X103594819Y-93337095D02*
X103642438Y-93432333D01*
X103642438Y-93432333D02*
X103690057Y-93479952D01*
X103690057Y-93479952D02*
X103832914Y-93575190D01*
X103832914Y-93575190D02*
X104023390Y-93622809D01*
X104023390Y-93622809D02*
X104404342Y-93622809D01*
X104404342Y-93622809D02*
X104499580Y-93575190D01*
X104499580Y-93575190D02*
X104547200Y-93527571D01*
X104547200Y-93527571D02*
X104594819Y-93432333D01*
X104594819Y-93432333D02*
X104594819Y-93241857D01*
X104594819Y-93241857D02*
X104547200Y-93146619D01*
X104547200Y-93146619D02*
X104499580Y-93099000D01*
X104499580Y-93099000D02*
X104404342Y-93051381D01*
X104404342Y-93051381D02*
X104166247Y-93051381D01*
X104166247Y-93051381D02*
X104071009Y-93099000D01*
X104071009Y-93099000D02*
X104023390Y-93146619D01*
X104023390Y-93146619D02*
X103975771Y-93241857D01*
X103975771Y-93241857D02*
X103975771Y-93432333D01*
X103975771Y-93432333D02*
X104023390Y-93527571D01*
X104023390Y-93527571D02*
X104071009Y-93575190D01*
X104071009Y-93575190D02*
X104166247Y-93622809D01*
X104594819Y-91860904D02*
X103928152Y-91860904D01*
X104023390Y-91860904D02*
X103975771Y-91813285D01*
X103975771Y-91813285D02*
X103928152Y-91718047D01*
X103928152Y-91718047D02*
X103928152Y-91575190D01*
X103928152Y-91575190D02*
X103975771Y-91479952D01*
X103975771Y-91479952D02*
X104071009Y-91432333D01*
X104071009Y-91432333D02*
X104594819Y-91432333D01*
X104071009Y-91432333D02*
X103975771Y-91384714D01*
X103975771Y-91384714D02*
X103928152Y-91289476D01*
X103928152Y-91289476D02*
X103928152Y-91146619D01*
X103928152Y-91146619D02*
X103975771Y-91051380D01*
X103975771Y-91051380D02*
X104071009Y-91003761D01*
X104071009Y-91003761D02*
X104594819Y-91003761D01*
X104594819Y-90384714D02*
X104547200Y-90479952D01*
X104547200Y-90479952D02*
X104499580Y-90527571D01*
X104499580Y-90527571D02*
X104404342Y-90575190D01*
X104404342Y-90575190D02*
X104118628Y-90575190D01*
X104118628Y-90575190D02*
X104023390Y-90527571D01*
X104023390Y-90527571D02*
X103975771Y-90479952D01*
X103975771Y-90479952D02*
X103928152Y-90384714D01*
X103928152Y-90384714D02*
X103928152Y-90241857D01*
X103928152Y-90241857D02*
X103975771Y-90146619D01*
X103975771Y-90146619D02*
X104023390Y-90099000D01*
X104023390Y-90099000D02*
X104118628Y-90051381D01*
X104118628Y-90051381D02*
X104404342Y-90051381D01*
X104404342Y-90051381D02*
X104499580Y-90099000D01*
X104499580Y-90099000D02*
X104547200Y-90146619D01*
X104547200Y-90146619D02*
X104594819Y-90241857D01*
X104594819Y-90241857D02*
X104594819Y-90384714D01*
X104594819Y-89194238D02*
X103594819Y-89194238D01*
X104547200Y-89194238D02*
X104594819Y-89289476D01*
X104594819Y-89289476D02*
X104594819Y-89479952D01*
X104594819Y-89479952D02*
X104547200Y-89575190D01*
X104547200Y-89575190D02*
X104499580Y-89622809D01*
X104499580Y-89622809D02*
X104404342Y-89670428D01*
X104404342Y-89670428D02*
X104118628Y-89670428D01*
X104118628Y-89670428D02*
X104023390Y-89622809D01*
X104023390Y-89622809D02*
X103975771Y-89575190D01*
X103975771Y-89575190D02*
X103928152Y-89479952D01*
X103928152Y-89479952D02*
X103928152Y-89289476D01*
X103928152Y-89289476D02*
X103975771Y-89194238D01*
X103928152Y-88289476D02*
X104594819Y-88289476D01*
X103928152Y-88718047D02*
X104451961Y-88718047D01*
X104451961Y-88718047D02*
X104547200Y-88670428D01*
X104547200Y-88670428D02*
X104594819Y-88575190D01*
X104594819Y-88575190D02*
X104594819Y-88432333D01*
X104594819Y-88432333D02*
X104547200Y-88337095D01*
X104547200Y-88337095D02*
X104499580Y-88289476D01*
X104594819Y-87670428D02*
X104547200Y-87765666D01*
X104547200Y-87765666D02*
X104451961Y-87813285D01*
X104451961Y-87813285D02*
X103594819Y-87813285D01*
X104547200Y-86908523D02*
X104594819Y-87003761D01*
X104594819Y-87003761D02*
X104594819Y-87194237D01*
X104594819Y-87194237D02*
X104547200Y-87289475D01*
X104547200Y-87289475D02*
X104451961Y-87337094D01*
X104451961Y-87337094D02*
X104071009Y-87337094D01*
X104071009Y-87337094D02*
X103975771Y-87289475D01*
X103975771Y-87289475D02*
X103928152Y-87194237D01*
X103928152Y-87194237D02*
X103928152Y-87003761D01*
X103928152Y-87003761D02*
X103975771Y-86908523D01*
X103975771Y-86908523D02*
X104071009Y-86860904D01*
X104071009Y-86860904D02*
X104166247Y-86860904D01*
X104166247Y-86860904D02*
X104261485Y-87337094D01*
X94704819Y-96319238D02*
X95419104Y-96319238D01*
X95419104Y-96319238D02*
X95561961Y-96366857D01*
X95561961Y-96366857D02*
X95657200Y-96462095D01*
X95657200Y-96462095D02*
X95704819Y-96604952D01*
X95704819Y-96604952D02*
X95704819Y-96700190D01*
X95704819Y-95319238D02*
X95704819Y-95890666D01*
X95704819Y-95604952D02*
X94704819Y-95604952D01*
X94704819Y-95604952D02*
X94847676Y-95700190D01*
X94847676Y-95700190D02*
X94942914Y-95795428D01*
X94942914Y-95795428D02*
X94990533Y-95890666D01*
X95181009Y-93795428D02*
X95181009Y-94128761D01*
X95704819Y-94128761D02*
X94704819Y-94128761D01*
X94704819Y-94128761D02*
X94704819Y-93652571D01*
X95657200Y-92890666D02*
X95704819Y-92985904D01*
X95704819Y-92985904D02*
X95704819Y-93176380D01*
X95704819Y-93176380D02*
X95657200Y-93271618D01*
X95657200Y-93271618D02*
X95561961Y-93319237D01*
X95561961Y-93319237D02*
X95181009Y-93319237D01*
X95181009Y-93319237D02*
X95085771Y-93271618D01*
X95085771Y-93271618D02*
X95038152Y-93176380D01*
X95038152Y-93176380D02*
X95038152Y-92985904D01*
X95038152Y-92985904D02*
X95085771Y-92890666D01*
X95085771Y-92890666D02*
X95181009Y-92843047D01*
X95181009Y-92843047D02*
X95276247Y-92843047D01*
X95276247Y-92843047D02*
X95371485Y-93319237D01*
X95038152Y-92414475D02*
X95704819Y-92414475D01*
X95133390Y-92414475D02*
X95085771Y-92366856D01*
X95085771Y-92366856D02*
X95038152Y-92271618D01*
X95038152Y-92271618D02*
X95038152Y-92128761D01*
X95038152Y-92128761D02*
X95085771Y-92033523D01*
X95085771Y-92033523D02*
X95181009Y-91985904D01*
X95181009Y-91985904D02*
X95704819Y-91985904D01*
X95657200Y-91081142D02*
X95704819Y-91176380D01*
X95704819Y-91176380D02*
X95704819Y-91366856D01*
X95704819Y-91366856D02*
X95657200Y-91462094D01*
X95657200Y-91462094D02*
X95609580Y-91509713D01*
X95609580Y-91509713D02*
X95514342Y-91557332D01*
X95514342Y-91557332D02*
X95228628Y-91557332D01*
X95228628Y-91557332D02*
X95133390Y-91509713D01*
X95133390Y-91509713D02*
X95085771Y-91462094D01*
X95085771Y-91462094D02*
X95038152Y-91366856D01*
X95038152Y-91366856D02*
X95038152Y-91176380D01*
X95038152Y-91176380D02*
X95085771Y-91081142D01*
X95657200Y-90271618D02*
X95704819Y-90366856D01*
X95704819Y-90366856D02*
X95704819Y-90557332D01*
X95704819Y-90557332D02*
X95657200Y-90652570D01*
X95657200Y-90652570D02*
X95561961Y-90700189D01*
X95561961Y-90700189D02*
X95181009Y-90700189D01*
X95181009Y-90700189D02*
X95085771Y-90652570D01*
X95085771Y-90652570D02*
X95038152Y-90557332D01*
X95038152Y-90557332D02*
X95038152Y-90366856D01*
X95038152Y-90366856D02*
X95085771Y-90271618D01*
X95085771Y-90271618D02*
X95181009Y-90223999D01*
X95181009Y-90223999D02*
X95276247Y-90223999D01*
X95276247Y-90223999D02*
X95371485Y-90700189D01*
X95704819Y-89795427D02*
X95038152Y-89795427D01*
X95228628Y-89795427D02*
X95133390Y-89747808D01*
X95133390Y-89747808D02*
X95085771Y-89700189D01*
X95085771Y-89700189D02*
X95038152Y-89604951D01*
X95038152Y-89604951D02*
X95038152Y-89509713D01*
X95657200Y-89223998D02*
X95704819Y-89128760D01*
X95704819Y-89128760D02*
X95704819Y-88938284D01*
X95704819Y-88938284D02*
X95657200Y-88843046D01*
X95657200Y-88843046D02*
X95561961Y-88795427D01*
X95561961Y-88795427D02*
X95514342Y-88795427D01*
X95514342Y-88795427D02*
X95419104Y-88843046D01*
X95419104Y-88843046D02*
X95371485Y-88938284D01*
X95371485Y-88938284D02*
X95371485Y-89081141D01*
X95371485Y-89081141D02*
X95323866Y-89176379D01*
X95323866Y-89176379D02*
X95228628Y-89223998D01*
X95228628Y-89223998D02*
X95181009Y-89223998D01*
X95181009Y-89223998D02*
X95085771Y-89176379D01*
X95085771Y-89176379D02*
X95038152Y-89081141D01*
X95038152Y-89081141D02*
X95038152Y-88938284D01*
X95038152Y-88938284D02*
X95085771Y-88843046D01*
X85814819Y-98106667D02*
X86529104Y-98106667D01*
X86529104Y-98106667D02*
X86671961Y-98154286D01*
X86671961Y-98154286D02*
X86767200Y-98249524D01*
X86767200Y-98249524D02*
X86814819Y-98392381D01*
X86814819Y-98392381D02*
X86814819Y-98487619D01*
X85814819Y-97725714D02*
X85814819Y-97106667D01*
X85814819Y-97106667D02*
X86195771Y-97440000D01*
X86195771Y-97440000D02*
X86195771Y-97297143D01*
X86195771Y-97297143D02*
X86243390Y-97201905D01*
X86243390Y-97201905D02*
X86291009Y-97154286D01*
X86291009Y-97154286D02*
X86386247Y-97106667D01*
X86386247Y-97106667D02*
X86624342Y-97106667D01*
X86624342Y-97106667D02*
X86719580Y-97154286D01*
X86719580Y-97154286D02*
X86767200Y-97201905D01*
X86767200Y-97201905D02*
X86814819Y-97297143D01*
X86814819Y-97297143D02*
X86814819Y-97582857D01*
X86814819Y-97582857D02*
X86767200Y-97678095D01*
X86767200Y-97678095D02*
X86719580Y-97725714D01*
X86148152Y-96059047D02*
X86148152Y-95678095D01*
X85814819Y-95916190D02*
X86671961Y-95916190D01*
X86671961Y-95916190D02*
X86767200Y-95868571D01*
X86767200Y-95868571D02*
X86814819Y-95773333D01*
X86814819Y-95773333D02*
X86814819Y-95678095D01*
X86814819Y-95344761D02*
X86148152Y-95344761D01*
X85814819Y-95344761D02*
X85862438Y-95392380D01*
X85862438Y-95392380D02*
X85910057Y-95344761D01*
X85910057Y-95344761D02*
X85862438Y-95297142D01*
X85862438Y-95297142D02*
X85814819Y-95344761D01*
X85814819Y-95344761D02*
X85910057Y-95344761D01*
X86814819Y-94868571D02*
X86148152Y-94868571D01*
X86243390Y-94868571D02*
X86195771Y-94820952D01*
X86195771Y-94820952D02*
X86148152Y-94725714D01*
X86148152Y-94725714D02*
X86148152Y-94582857D01*
X86148152Y-94582857D02*
X86195771Y-94487619D01*
X86195771Y-94487619D02*
X86291009Y-94440000D01*
X86291009Y-94440000D02*
X86814819Y-94440000D01*
X86291009Y-94440000D02*
X86195771Y-94392381D01*
X86195771Y-94392381D02*
X86148152Y-94297143D01*
X86148152Y-94297143D02*
X86148152Y-94154286D01*
X86148152Y-94154286D02*
X86195771Y-94059047D01*
X86195771Y-94059047D02*
X86291009Y-94011428D01*
X86291009Y-94011428D02*
X86814819Y-94011428D01*
X86767200Y-93154286D02*
X86814819Y-93249524D01*
X86814819Y-93249524D02*
X86814819Y-93440000D01*
X86814819Y-93440000D02*
X86767200Y-93535238D01*
X86767200Y-93535238D02*
X86671961Y-93582857D01*
X86671961Y-93582857D02*
X86291009Y-93582857D01*
X86291009Y-93582857D02*
X86195771Y-93535238D01*
X86195771Y-93535238D02*
X86148152Y-93440000D01*
X86148152Y-93440000D02*
X86148152Y-93249524D01*
X86148152Y-93249524D02*
X86195771Y-93154286D01*
X86195771Y-93154286D02*
X86291009Y-93106667D01*
X86291009Y-93106667D02*
X86386247Y-93106667D01*
X86386247Y-93106667D02*
X86481485Y-93582857D01*
X86814819Y-92678095D02*
X86148152Y-92678095D01*
X86338628Y-92678095D02*
X86243390Y-92630476D01*
X86243390Y-92630476D02*
X86195771Y-92582857D01*
X86195771Y-92582857D02*
X86148152Y-92487619D01*
X86148152Y-92487619D02*
X86148152Y-92392381D01*
X86814819Y-90868571D02*
X85814819Y-90868571D01*
X86767200Y-90868571D02*
X86814819Y-90963809D01*
X86814819Y-90963809D02*
X86814819Y-91154285D01*
X86814819Y-91154285D02*
X86767200Y-91249523D01*
X86767200Y-91249523D02*
X86719580Y-91297142D01*
X86719580Y-91297142D02*
X86624342Y-91344761D01*
X86624342Y-91344761D02*
X86338628Y-91344761D01*
X86338628Y-91344761D02*
X86243390Y-91297142D01*
X86243390Y-91297142D02*
X86195771Y-91249523D01*
X86195771Y-91249523D02*
X86148152Y-91154285D01*
X86148152Y-91154285D02*
X86148152Y-90963809D01*
X86148152Y-90963809D02*
X86195771Y-90868571D01*
X86814819Y-90392380D02*
X86148152Y-90392380D01*
X85814819Y-90392380D02*
X85862438Y-90439999D01*
X85862438Y-90439999D02*
X85910057Y-90392380D01*
X85910057Y-90392380D02*
X85862438Y-90344761D01*
X85862438Y-90344761D02*
X85814819Y-90392380D01*
X85814819Y-90392380D02*
X85910057Y-90392380D01*
X86767200Y-89963809D02*
X86814819Y-89868571D01*
X86814819Y-89868571D02*
X86814819Y-89678095D01*
X86814819Y-89678095D02*
X86767200Y-89582857D01*
X86767200Y-89582857D02*
X86671961Y-89535238D01*
X86671961Y-89535238D02*
X86624342Y-89535238D01*
X86624342Y-89535238D02*
X86529104Y-89582857D01*
X86529104Y-89582857D02*
X86481485Y-89678095D01*
X86481485Y-89678095D02*
X86481485Y-89820952D01*
X86481485Y-89820952D02*
X86433866Y-89916190D01*
X86433866Y-89916190D02*
X86338628Y-89963809D01*
X86338628Y-89963809D02*
X86291009Y-89963809D01*
X86291009Y-89963809D02*
X86195771Y-89916190D01*
X86195771Y-89916190D02*
X86148152Y-89820952D01*
X86148152Y-89820952D02*
X86148152Y-89678095D01*
X86148152Y-89678095D02*
X86195771Y-89582857D01*
X86148152Y-89106666D02*
X87148152Y-89106666D01*
X86195771Y-89106666D02*
X86148152Y-89011428D01*
X86148152Y-89011428D02*
X86148152Y-88820952D01*
X86148152Y-88820952D02*
X86195771Y-88725714D01*
X86195771Y-88725714D02*
X86243390Y-88678095D01*
X86243390Y-88678095D02*
X86338628Y-88630476D01*
X86338628Y-88630476D02*
X86624342Y-88630476D01*
X86624342Y-88630476D02*
X86719580Y-88678095D01*
X86719580Y-88678095D02*
X86767200Y-88725714D01*
X86767200Y-88725714D02*
X86814819Y-88820952D01*
X86814819Y-88820952D02*
X86814819Y-89011428D01*
X86814819Y-89011428D02*
X86767200Y-89106666D01*
X86814819Y-88059047D02*
X86767200Y-88154285D01*
X86767200Y-88154285D02*
X86671961Y-88201904D01*
X86671961Y-88201904D02*
X85814819Y-88201904D01*
X86814819Y-87249523D02*
X86291009Y-87249523D01*
X86291009Y-87249523D02*
X86195771Y-87297142D01*
X86195771Y-87297142D02*
X86148152Y-87392380D01*
X86148152Y-87392380D02*
X86148152Y-87582856D01*
X86148152Y-87582856D02*
X86195771Y-87678094D01*
X86767200Y-87249523D02*
X86814819Y-87344761D01*
X86814819Y-87344761D02*
X86814819Y-87582856D01*
X86814819Y-87582856D02*
X86767200Y-87678094D01*
X86767200Y-87678094D02*
X86671961Y-87725713D01*
X86671961Y-87725713D02*
X86576723Y-87725713D01*
X86576723Y-87725713D02*
X86481485Y-87678094D01*
X86481485Y-87678094D02*
X86433866Y-87582856D01*
X86433866Y-87582856D02*
X86433866Y-87344761D01*
X86433866Y-87344761D02*
X86386247Y-87249523D01*
X86148152Y-86868570D02*
X86814819Y-86630475D01*
X86148152Y-86392380D02*
X86814819Y-86630475D01*
X86814819Y-86630475D02*
X87052914Y-86725713D01*
X87052914Y-86725713D02*
X87100533Y-86773332D01*
X87100533Y-86773332D02*
X87148152Y-86868570D01*
X86433866Y-85249522D02*
X86433866Y-84487618D01*
X86814819Y-84868570D02*
X86052914Y-84868570D01*
X119053333Y-111024819D02*
X118720000Y-110548628D01*
X118481905Y-111024819D02*
X118481905Y-110024819D01*
X118481905Y-110024819D02*
X118862857Y-110024819D01*
X118862857Y-110024819D02*
X118958095Y-110072438D01*
X118958095Y-110072438D02*
X119005714Y-110120057D01*
X119005714Y-110120057D02*
X119053333Y-110215295D01*
X119053333Y-110215295D02*
X119053333Y-110358152D01*
X119053333Y-110358152D02*
X119005714Y-110453390D01*
X119005714Y-110453390D02*
X118958095Y-110501009D01*
X118958095Y-110501009D02*
X118862857Y-110548628D01*
X118862857Y-110548628D02*
X118481905Y-110548628D01*
X119386667Y-110024819D02*
X120005714Y-110024819D01*
X120005714Y-110024819D02*
X119672381Y-110405771D01*
X119672381Y-110405771D02*
X119815238Y-110405771D01*
X119815238Y-110405771D02*
X119910476Y-110453390D01*
X119910476Y-110453390D02*
X119958095Y-110501009D01*
X119958095Y-110501009D02*
X120005714Y-110596247D01*
X120005714Y-110596247D02*
X120005714Y-110834342D01*
X120005714Y-110834342D02*
X119958095Y-110929580D01*
X119958095Y-110929580D02*
X119910476Y-110977200D01*
X119910476Y-110977200D02*
X119815238Y-111024819D01*
X119815238Y-111024819D02*
X119529524Y-111024819D01*
X119529524Y-111024819D02*
X119434286Y-110977200D01*
X119434286Y-110977200D02*
X119386667Y-110929580D01*
X128464857Y-105759238D02*
X128417238Y-105854476D01*
X128417238Y-105854476D02*
X128322000Y-105949714D01*
X128322000Y-105949714D02*
X128179142Y-106092571D01*
X128179142Y-106092571D02*
X128131523Y-106187809D01*
X128131523Y-106187809D02*
X128131523Y-106283047D01*
X128369619Y-106235428D02*
X128322000Y-106330666D01*
X128322000Y-106330666D02*
X128226761Y-106425904D01*
X128226761Y-106425904D02*
X128036285Y-106473523D01*
X128036285Y-106473523D02*
X127702952Y-106473523D01*
X127702952Y-106473523D02*
X127512476Y-106425904D01*
X127512476Y-106425904D02*
X127417238Y-106330666D01*
X127417238Y-106330666D02*
X127369619Y-106235428D01*
X127369619Y-106235428D02*
X127369619Y-106044952D01*
X127369619Y-106044952D02*
X127417238Y-105949714D01*
X127417238Y-105949714D02*
X127512476Y-105854476D01*
X127512476Y-105854476D02*
X127702952Y-105806857D01*
X127702952Y-105806857D02*
X128036285Y-105806857D01*
X128036285Y-105806857D02*
X128226761Y-105854476D01*
X128226761Y-105854476D02*
X128322000Y-105949714D01*
X128322000Y-105949714D02*
X128369619Y-106044952D01*
X128369619Y-106044952D02*
X128369619Y-106235428D01*
X127464857Y-105425904D02*
X127417238Y-105378285D01*
X127417238Y-105378285D02*
X127369619Y-105283047D01*
X127369619Y-105283047D02*
X127369619Y-105044952D01*
X127369619Y-105044952D02*
X127417238Y-104949714D01*
X127417238Y-104949714D02*
X127464857Y-104902095D01*
X127464857Y-104902095D02*
X127560095Y-104854476D01*
X127560095Y-104854476D02*
X127655333Y-104854476D01*
X127655333Y-104854476D02*
X127798190Y-104902095D01*
X127798190Y-104902095D02*
X128369619Y-105473523D01*
X128369619Y-105473523D02*
X128369619Y-104854476D01*
X128978819Y-119768857D02*
X128502628Y-120102190D01*
X128978819Y-120340285D02*
X127978819Y-120340285D01*
X127978819Y-120340285D02*
X127978819Y-119959333D01*
X127978819Y-119959333D02*
X128026438Y-119864095D01*
X128026438Y-119864095D02*
X128074057Y-119816476D01*
X128074057Y-119816476D02*
X128169295Y-119768857D01*
X128169295Y-119768857D02*
X128312152Y-119768857D01*
X128312152Y-119768857D02*
X128407390Y-119816476D01*
X128407390Y-119816476D02*
X128455009Y-119864095D01*
X128455009Y-119864095D02*
X128502628Y-119959333D01*
X128502628Y-119959333D02*
X128502628Y-120340285D01*
X128978819Y-118816476D02*
X128978819Y-119387904D01*
X128978819Y-119102190D02*
X127978819Y-119102190D01*
X127978819Y-119102190D02*
X128121676Y-119197428D01*
X128121676Y-119197428D02*
X128216914Y-119292666D01*
X128216914Y-119292666D02*
X128264533Y-119387904D01*
X127978819Y-118197428D02*
X127978819Y-118102190D01*
X127978819Y-118102190D02*
X128026438Y-118006952D01*
X128026438Y-118006952D02*
X128074057Y-117959333D01*
X128074057Y-117959333D02*
X128169295Y-117911714D01*
X128169295Y-117911714D02*
X128359771Y-117864095D01*
X128359771Y-117864095D02*
X128597866Y-117864095D01*
X128597866Y-117864095D02*
X128788342Y-117911714D01*
X128788342Y-117911714D02*
X128883580Y-117959333D01*
X128883580Y-117959333D02*
X128931200Y-118006952D01*
X128931200Y-118006952D02*
X128978819Y-118102190D01*
X128978819Y-118102190D02*
X128978819Y-118197428D01*
X128978819Y-118197428D02*
X128931200Y-118292666D01*
X128931200Y-118292666D02*
X128883580Y-118340285D01*
X128883580Y-118340285D02*
X128788342Y-118387904D01*
X128788342Y-118387904D02*
X128597866Y-118435523D01*
X128597866Y-118435523D02*
X128359771Y-118435523D01*
X128359771Y-118435523D02*
X128169295Y-118387904D01*
X128169295Y-118387904D02*
X128074057Y-118340285D01*
X128074057Y-118340285D02*
X128026438Y-118292666D01*
X128026438Y-118292666D02*
X127978819Y-118197428D01*
X85814819Y-118022190D02*
X86529104Y-118022190D01*
X86529104Y-118022190D02*
X86671961Y-118069809D01*
X86671961Y-118069809D02*
X86767200Y-118165047D01*
X86767200Y-118165047D02*
X86814819Y-118307904D01*
X86814819Y-118307904D02*
X86814819Y-118403142D01*
X85910057Y-117593618D02*
X85862438Y-117545999D01*
X85862438Y-117545999D02*
X85814819Y-117450761D01*
X85814819Y-117450761D02*
X85814819Y-117212666D01*
X85814819Y-117212666D02*
X85862438Y-117117428D01*
X85862438Y-117117428D02*
X85910057Y-117069809D01*
X85910057Y-117069809D02*
X86005295Y-117022190D01*
X86005295Y-117022190D02*
X86100533Y-117022190D01*
X86100533Y-117022190D02*
X86243390Y-117069809D01*
X86243390Y-117069809D02*
X86814819Y-117641237D01*
X86814819Y-117641237D02*
X86814819Y-117022190D01*
X86814819Y-115831713D02*
X85814819Y-115831713D01*
X85814819Y-115831713D02*
X86529104Y-115498380D01*
X86529104Y-115498380D02*
X85814819Y-115165047D01*
X85814819Y-115165047D02*
X86814819Y-115165047D01*
X86814819Y-114260285D02*
X86291009Y-114260285D01*
X86291009Y-114260285D02*
X86195771Y-114307904D01*
X86195771Y-114307904D02*
X86148152Y-114403142D01*
X86148152Y-114403142D02*
X86148152Y-114593618D01*
X86148152Y-114593618D02*
X86195771Y-114688856D01*
X86767200Y-114260285D02*
X86814819Y-114355523D01*
X86814819Y-114355523D02*
X86814819Y-114593618D01*
X86814819Y-114593618D02*
X86767200Y-114688856D01*
X86767200Y-114688856D02*
X86671961Y-114736475D01*
X86671961Y-114736475D02*
X86576723Y-114736475D01*
X86576723Y-114736475D02*
X86481485Y-114688856D01*
X86481485Y-114688856D02*
X86433866Y-114593618D01*
X86433866Y-114593618D02*
X86433866Y-114355523D01*
X86433866Y-114355523D02*
X86386247Y-114260285D01*
X86148152Y-113926951D02*
X86148152Y-113545999D01*
X85814819Y-113784094D02*
X86671961Y-113784094D01*
X86671961Y-113784094D02*
X86767200Y-113736475D01*
X86767200Y-113736475D02*
X86814819Y-113641237D01*
X86814819Y-113641237D02*
X86814819Y-113545999D01*
X86814819Y-113212665D02*
X86148152Y-113212665D01*
X86338628Y-113212665D02*
X86243390Y-113165046D01*
X86243390Y-113165046D02*
X86195771Y-113117427D01*
X86195771Y-113117427D02*
X86148152Y-113022189D01*
X86148152Y-113022189D02*
X86148152Y-112926951D01*
X86814819Y-112593617D02*
X86148152Y-112593617D01*
X85814819Y-112593617D02*
X85862438Y-112641236D01*
X85862438Y-112641236D02*
X85910057Y-112593617D01*
X85910057Y-112593617D02*
X85862438Y-112545998D01*
X85862438Y-112545998D02*
X85814819Y-112593617D01*
X85814819Y-112593617D02*
X85910057Y-112593617D01*
X86814819Y-112212665D02*
X86148152Y-111688856D01*
X86148152Y-112212665D02*
X86814819Y-111688856D01*
X86433866Y-110545998D02*
X86433866Y-109784094D01*
X86814819Y-110165046D02*
X86052914Y-110165046D01*
X85821819Y-107450286D02*
X86536104Y-107450286D01*
X86536104Y-107450286D02*
X86678961Y-107497905D01*
X86678961Y-107497905D02*
X86774200Y-107593143D01*
X86774200Y-107593143D02*
X86821819Y-107736000D01*
X86821819Y-107736000D02*
X86821819Y-107831238D01*
X86250390Y-106831238D02*
X86202771Y-106926476D01*
X86202771Y-106926476D02*
X86155152Y-106974095D01*
X86155152Y-106974095D02*
X86059914Y-107021714D01*
X86059914Y-107021714D02*
X86012295Y-107021714D01*
X86012295Y-107021714D02*
X85917057Y-106974095D01*
X85917057Y-106974095D02*
X85869438Y-106926476D01*
X85869438Y-106926476D02*
X85821819Y-106831238D01*
X85821819Y-106831238D02*
X85821819Y-106640762D01*
X85821819Y-106640762D02*
X85869438Y-106545524D01*
X85869438Y-106545524D02*
X85917057Y-106497905D01*
X85917057Y-106497905D02*
X86012295Y-106450286D01*
X86012295Y-106450286D02*
X86059914Y-106450286D01*
X86059914Y-106450286D02*
X86155152Y-106497905D01*
X86155152Y-106497905D02*
X86202771Y-106545524D01*
X86202771Y-106545524D02*
X86250390Y-106640762D01*
X86250390Y-106640762D02*
X86250390Y-106831238D01*
X86250390Y-106831238D02*
X86298009Y-106926476D01*
X86298009Y-106926476D02*
X86345628Y-106974095D01*
X86345628Y-106974095D02*
X86440866Y-107021714D01*
X86440866Y-107021714D02*
X86631342Y-107021714D01*
X86631342Y-107021714D02*
X86726580Y-106974095D01*
X86726580Y-106974095D02*
X86774200Y-106926476D01*
X86774200Y-106926476D02*
X86821819Y-106831238D01*
X86821819Y-106831238D02*
X86821819Y-106640762D01*
X86821819Y-106640762D02*
X86774200Y-106545524D01*
X86774200Y-106545524D02*
X86726580Y-106497905D01*
X86726580Y-106497905D02*
X86631342Y-106450286D01*
X86631342Y-106450286D02*
X86440866Y-106450286D01*
X86440866Y-106450286D02*
X86345628Y-106497905D01*
X86345628Y-106497905D02*
X86298009Y-106545524D01*
X86298009Y-106545524D02*
X86250390Y-106640762D01*
X86298009Y-104926476D02*
X86345628Y-104783619D01*
X86345628Y-104783619D02*
X86393247Y-104736000D01*
X86393247Y-104736000D02*
X86488485Y-104688381D01*
X86488485Y-104688381D02*
X86631342Y-104688381D01*
X86631342Y-104688381D02*
X86726580Y-104736000D01*
X86726580Y-104736000D02*
X86774200Y-104783619D01*
X86774200Y-104783619D02*
X86821819Y-104878857D01*
X86821819Y-104878857D02*
X86821819Y-105259809D01*
X86821819Y-105259809D02*
X85821819Y-105259809D01*
X85821819Y-105259809D02*
X85821819Y-104926476D01*
X85821819Y-104926476D02*
X85869438Y-104831238D01*
X85869438Y-104831238D02*
X85917057Y-104783619D01*
X85917057Y-104783619D02*
X86012295Y-104736000D01*
X86012295Y-104736000D02*
X86107533Y-104736000D01*
X86107533Y-104736000D02*
X86202771Y-104783619D01*
X86202771Y-104783619D02*
X86250390Y-104831238D01*
X86250390Y-104831238D02*
X86298009Y-104926476D01*
X86298009Y-104926476D02*
X86298009Y-105259809D01*
X86155152Y-103831238D02*
X86821819Y-103831238D01*
X86155152Y-104259809D02*
X86678961Y-104259809D01*
X86678961Y-104259809D02*
X86774200Y-104212190D01*
X86774200Y-104212190D02*
X86821819Y-104116952D01*
X86821819Y-104116952D02*
X86821819Y-103974095D01*
X86821819Y-103974095D02*
X86774200Y-103878857D01*
X86774200Y-103878857D02*
X86726580Y-103831238D01*
X86155152Y-103450285D02*
X86155152Y-102926476D01*
X86155152Y-102926476D02*
X86821819Y-103450285D01*
X86821819Y-103450285D02*
X86821819Y-102926476D01*
X86155152Y-102640761D02*
X86155152Y-102116952D01*
X86155152Y-102116952D02*
X86821819Y-102640761D01*
X86821819Y-102640761D02*
X86821819Y-102116952D01*
X86774200Y-101355047D02*
X86821819Y-101450285D01*
X86821819Y-101450285D02*
X86821819Y-101640761D01*
X86821819Y-101640761D02*
X86774200Y-101735999D01*
X86774200Y-101735999D02*
X86678961Y-101783618D01*
X86678961Y-101783618D02*
X86298009Y-101783618D01*
X86298009Y-101783618D02*
X86202771Y-101735999D01*
X86202771Y-101735999D02*
X86155152Y-101640761D01*
X86155152Y-101640761D02*
X86155152Y-101450285D01*
X86155152Y-101450285D02*
X86202771Y-101355047D01*
X86202771Y-101355047D02*
X86298009Y-101307428D01*
X86298009Y-101307428D02*
X86393247Y-101307428D01*
X86393247Y-101307428D02*
X86488485Y-101783618D01*
X86821819Y-100878856D02*
X86155152Y-100878856D01*
X86345628Y-100878856D02*
X86250390Y-100831237D01*
X86250390Y-100831237D02*
X86202771Y-100783618D01*
X86202771Y-100783618D02*
X86155152Y-100688380D01*
X86155152Y-100688380D02*
X86155152Y-100593142D01*
X118883333Y-104928819D02*
X118550000Y-104452628D01*
X118311905Y-104928819D02*
X118311905Y-103928819D01*
X118311905Y-103928819D02*
X118692857Y-103928819D01*
X118692857Y-103928819D02*
X118788095Y-103976438D01*
X118788095Y-103976438D02*
X118835714Y-104024057D01*
X118835714Y-104024057D02*
X118883333Y-104119295D01*
X118883333Y-104119295D02*
X118883333Y-104262152D01*
X118883333Y-104262152D02*
X118835714Y-104357390D01*
X118835714Y-104357390D02*
X118788095Y-104405009D01*
X118788095Y-104405009D02*
X118692857Y-104452628D01*
X118692857Y-104452628D02*
X118311905Y-104452628D01*
X119835714Y-104928819D02*
X119264286Y-104928819D01*
X119550000Y-104928819D02*
X119550000Y-103928819D01*
X119550000Y-103928819D02*
X119454762Y-104071676D01*
X119454762Y-104071676D02*
X119359524Y-104166914D01*
X119359524Y-104166914D02*
X119264286Y-104214533D01*
X130159428Y-92164819D02*
X130159428Y-92879104D01*
X130159428Y-92879104D02*
X130111809Y-93021961D01*
X130111809Y-93021961D02*
X130016571Y-93117200D01*
X130016571Y-93117200D02*
X129873714Y-93164819D01*
X129873714Y-93164819D02*
X129778476Y-93164819D01*
X131111809Y-92164819D02*
X130635619Y-92164819D01*
X130635619Y-92164819D02*
X130588000Y-92641009D01*
X130588000Y-92641009D02*
X130635619Y-92593390D01*
X130635619Y-92593390D02*
X130730857Y-92545771D01*
X130730857Y-92545771D02*
X130968952Y-92545771D01*
X130968952Y-92545771D02*
X131064190Y-92593390D01*
X131064190Y-92593390D02*
X131111809Y-92641009D01*
X131111809Y-92641009D02*
X131159428Y-92736247D01*
X131159428Y-92736247D02*
X131159428Y-92974342D01*
X131159428Y-92974342D02*
X131111809Y-93069580D01*
X131111809Y-93069580D02*
X131064190Y-93117200D01*
X131064190Y-93117200D02*
X130968952Y-93164819D01*
X130968952Y-93164819D02*
X130730857Y-93164819D01*
X130730857Y-93164819D02*
X130635619Y-93117200D01*
X130635619Y-93117200D02*
X130588000Y-93069580D01*
X132349905Y-93164819D02*
X132349905Y-92164819D01*
X133397523Y-93069580D02*
X133349904Y-93117200D01*
X133349904Y-93117200D02*
X133207047Y-93164819D01*
X133207047Y-93164819D02*
X133111809Y-93164819D01*
X133111809Y-93164819D02*
X132968952Y-93117200D01*
X132968952Y-93117200D02*
X132873714Y-93021961D01*
X132873714Y-93021961D02*
X132826095Y-92926723D01*
X132826095Y-92926723D02*
X132778476Y-92736247D01*
X132778476Y-92736247D02*
X132778476Y-92593390D01*
X132778476Y-92593390D02*
X132826095Y-92402914D01*
X132826095Y-92402914D02*
X132873714Y-92307676D01*
X132873714Y-92307676D02*
X132968952Y-92212438D01*
X132968952Y-92212438D02*
X133111809Y-92164819D01*
X133111809Y-92164819D02*
X133207047Y-92164819D01*
X133207047Y-92164819D02*
X133349904Y-92212438D01*
X133349904Y-92212438D02*
X133397523Y-92260057D01*
X133778476Y-93117200D02*
X133921333Y-93164819D01*
X133921333Y-93164819D02*
X134159428Y-93164819D01*
X134159428Y-93164819D02*
X134254666Y-93117200D01*
X134254666Y-93117200D02*
X134302285Y-93069580D01*
X134302285Y-93069580D02*
X134349904Y-92974342D01*
X134349904Y-92974342D02*
X134349904Y-92879104D01*
X134349904Y-92879104D02*
X134302285Y-92783866D01*
X134302285Y-92783866D02*
X134254666Y-92736247D01*
X134254666Y-92736247D02*
X134159428Y-92688628D01*
X134159428Y-92688628D02*
X133968952Y-92641009D01*
X133968952Y-92641009D02*
X133873714Y-92593390D01*
X133873714Y-92593390D02*
X133826095Y-92545771D01*
X133826095Y-92545771D02*
X133778476Y-92450533D01*
X133778476Y-92450533D02*
X133778476Y-92355295D01*
X133778476Y-92355295D02*
X133826095Y-92260057D01*
X133826095Y-92260057D02*
X133873714Y-92212438D01*
X133873714Y-92212438D02*
X133968952Y-92164819D01*
X133968952Y-92164819D02*
X134207047Y-92164819D01*
X134207047Y-92164819D02*
X134349904Y-92212438D01*
X134778476Y-93164819D02*
X134778476Y-92164819D01*
X134778476Y-92164819D02*
X135159428Y-92164819D01*
X135159428Y-92164819D02*
X135254666Y-92212438D01*
X135254666Y-92212438D02*
X135302285Y-92260057D01*
X135302285Y-92260057D02*
X135349904Y-92355295D01*
X135349904Y-92355295D02*
X135349904Y-92498152D01*
X135349904Y-92498152D02*
X135302285Y-92593390D01*
X135302285Y-92593390D02*
X135254666Y-92641009D01*
X135254666Y-92641009D02*
X135159428Y-92688628D01*
X135159428Y-92688628D02*
X134778476Y-92688628D01*
X119053333Y-117120819D02*
X118720000Y-116644628D01*
X118481905Y-117120819D02*
X118481905Y-116120819D01*
X118481905Y-116120819D02*
X118862857Y-116120819D01*
X118862857Y-116120819D02*
X118958095Y-116168438D01*
X118958095Y-116168438D02*
X119005714Y-116216057D01*
X119005714Y-116216057D02*
X119053333Y-116311295D01*
X119053333Y-116311295D02*
X119053333Y-116454152D01*
X119053333Y-116454152D02*
X119005714Y-116549390D01*
X119005714Y-116549390D02*
X118958095Y-116597009D01*
X118958095Y-116597009D02*
X118862857Y-116644628D01*
X118862857Y-116644628D02*
X118481905Y-116644628D01*
X119958095Y-116120819D02*
X119481905Y-116120819D01*
X119481905Y-116120819D02*
X119434286Y-116597009D01*
X119434286Y-116597009D02*
X119481905Y-116549390D01*
X119481905Y-116549390D02*
X119577143Y-116501771D01*
X119577143Y-116501771D02*
X119815238Y-116501771D01*
X119815238Y-116501771D02*
X119910476Y-116549390D01*
X119910476Y-116549390D02*
X119958095Y-116597009D01*
X119958095Y-116597009D02*
X120005714Y-116692247D01*
X120005714Y-116692247D02*
X120005714Y-116930342D01*
X120005714Y-116930342D02*
X119958095Y-117025580D01*
X119958095Y-117025580D02*
X119910476Y-117073200D01*
X119910476Y-117073200D02*
X119815238Y-117120819D01*
X119815238Y-117120819D02*
X119577143Y-117120819D01*
X119577143Y-117120819D02*
X119481905Y-117073200D01*
X119481905Y-117073200D02*
X119434286Y-117025580D01*
X119077142Y-129274819D02*
X118743809Y-128798628D01*
X118505714Y-129274819D02*
X118505714Y-128274819D01*
X118505714Y-128274819D02*
X118886666Y-128274819D01*
X118886666Y-128274819D02*
X118981904Y-128322438D01*
X118981904Y-128322438D02*
X119029523Y-128370057D01*
X119029523Y-128370057D02*
X119077142Y-128465295D01*
X119077142Y-128465295D02*
X119077142Y-128608152D01*
X119077142Y-128608152D02*
X119029523Y-128703390D01*
X119029523Y-128703390D02*
X118981904Y-128751009D01*
X118981904Y-128751009D02*
X118886666Y-128798628D01*
X118886666Y-128798628D02*
X118505714Y-128798628D01*
X120029523Y-129274819D02*
X119458095Y-129274819D01*
X119743809Y-129274819D02*
X119743809Y-128274819D01*
X119743809Y-128274819D02*
X119648571Y-128417676D01*
X119648571Y-128417676D02*
X119553333Y-128512914D01*
X119553333Y-128512914D02*
X119458095Y-128560533D01*
X120981904Y-129274819D02*
X120410476Y-129274819D01*
X120696190Y-129274819D02*
X120696190Y-128274819D01*
X120696190Y-128274819D02*
X120600952Y-128417676D01*
X120600952Y-128417676D02*
X120505714Y-128512914D01*
X120505714Y-128512914D02*
X120410476Y-128560533D01*
X119053333Y-123178819D02*
X118720000Y-122702628D01*
X118481905Y-123178819D02*
X118481905Y-122178819D01*
X118481905Y-122178819D02*
X118862857Y-122178819D01*
X118862857Y-122178819D02*
X118958095Y-122226438D01*
X118958095Y-122226438D02*
X119005714Y-122274057D01*
X119005714Y-122274057D02*
X119053333Y-122369295D01*
X119053333Y-122369295D02*
X119053333Y-122512152D01*
X119053333Y-122512152D02*
X119005714Y-122607390D01*
X119005714Y-122607390D02*
X118958095Y-122655009D01*
X118958095Y-122655009D02*
X118862857Y-122702628D01*
X118862857Y-122702628D02*
X118481905Y-122702628D01*
X119386667Y-122178819D02*
X120053333Y-122178819D01*
X120053333Y-122178819D02*
X119624762Y-123178819D01*
X132890419Y-119800666D02*
X132414228Y-120133999D01*
X132890419Y-120372094D02*
X131890419Y-120372094D01*
X131890419Y-120372094D02*
X131890419Y-119991142D01*
X131890419Y-119991142D02*
X131938038Y-119895904D01*
X131938038Y-119895904D02*
X131985657Y-119848285D01*
X131985657Y-119848285D02*
X132080895Y-119800666D01*
X132080895Y-119800666D02*
X132223752Y-119800666D01*
X132223752Y-119800666D02*
X132318990Y-119848285D01*
X132318990Y-119848285D02*
X132366609Y-119895904D01*
X132366609Y-119895904D02*
X132414228Y-119991142D01*
X132414228Y-119991142D02*
X132414228Y-120372094D01*
X132890419Y-119324475D02*
X132890419Y-119133999D01*
X132890419Y-119133999D02*
X132842800Y-119038761D01*
X132842800Y-119038761D02*
X132795180Y-118991142D01*
X132795180Y-118991142D02*
X132652323Y-118895904D01*
X132652323Y-118895904D02*
X132461847Y-118848285D01*
X132461847Y-118848285D02*
X132080895Y-118848285D01*
X132080895Y-118848285D02*
X131985657Y-118895904D01*
X131985657Y-118895904D02*
X131938038Y-118943523D01*
X131938038Y-118943523D02*
X131890419Y-119038761D01*
X131890419Y-119038761D02*
X131890419Y-119229237D01*
X131890419Y-119229237D02*
X131938038Y-119324475D01*
X131938038Y-119324475D02*
X131985657Y-119372094D01*
X131985657Y-119372094D02*
X132080895Y-119419713D01*
X132080895Y-119419713D02*
X132318990Y-119419713D01*
X132318990Y-119419713D02*
X132414228Y-119372094D01*
X132414228Y-119372094D02*
X132461847Y-119324475D01*
X132461847Y-119324475D02*
X132509466Y-119229237D01*
X132509466Y-119229237D02*
X132509466Y-119038761D01*
X132509466Y-119038761D02*
X132461847Y-118943523D01*
X132461847Y-118943523D02*
X132414228Y-118895904D01*
X132414228Y-118895904D02*
X132318990Y-118848285D01*
X96932761Y-107159057D02*
X96837523Y-107111438D01*
X96837523Y-107111438D02*
X96742285Y-107016200D01*
X96742285Y-107016200D02*
X96599428Y-106873342D01*
X96599428Y-106873342D02*
X96504190Y-106825723D01*
X96504190Y-106825723D02*
X96408952Y-106825723D01*
X96456571Y-107063819D02*
X96361333Y-107016200D01*
X96361333Y-107016200D02*
X96266095Y-106920961D01*
X96266095Y-106920961D02*
X96218476Y-106730485D01*
X96218476Y-106730485D02*
X96218476Y-106397152D01*
X96218476Y-106397152D02*
X96266095Y-106206676D01*
X96266095Y-106206676D02*
X96361333Y-106111438D01*
X96361333Y-106111438D02*
X96456571Y-106063819D01*
X96456571Y-106063819D02*
X96647047Y-106063819D01*
X96647047Y-106063819D02*
X96742285Y-106111438D01*
X96742285Y-106111438D02*
X96837523Y-106206676D01*
X96837523Y-106206676D02*
X96885142Y-106397152D01*
X96885142Y-106397152D02*
X96885142Y-106730485D01*
X96885142Y-106730485D02*
X96837523Y-106920961D01*
X96837523Y-106920961D02*
X96742285Y-107016200D01*
X96742285Y-107016200D02*
X96647047Y-107063819D01*
X96647047Y-107063819D02*
X96456571Y-107063819D01*
X97218476Y-106063819D02*
X97837523Y-106063819D01*
X97837523Y-106063819D02*
X97504190Y-106444771D01*
X97504190Y-106444771D02*
X97647047Y-106444771D01*
X97647047Y-106444771D02*
X97742285Y-106492390D01*
X97742285Y-106492390D02*
X97789904Y-106540009D01*
X97789904Y-106540009D02*
X97837523Y-106635247D01*
X97837523Y-106635247D02*
X97837523Y-106873342D01*
X97837523Y-106873342D02*
X97789904Y-106968580D01*
X97789904Y-106968580D02*
X97742285Y-107016200D01*
X97742285Y-107016200D02*
X97647047Y-107063819D01*
X97647047Y-107063819D02*
X97361333Y-107063819D01*
X97361333Y-107063819D02*
X97266095Y-107016200D01*
X97266095Y-107016200D02*
X97218476Y-106968580D01*
X119149333Y-126226819D02*
X118816000Y-125750628D01*
X118577905Y-126226819D02*
X118577905Y-125226819D01*
X118577905Y-125226819D02*
X118958857Y-125226819D01*
X118958857Y-125226819D02*
X119054095Y-125274438D01*
X119054095Y-125274438D02*
X119101714Y-125322057D01*
X119101714Y-125322057D02*
X119149333Y-125417295D01*
X119149333Y-125417295D02*
X119149333Y-125560152D01*
X119149333Y-125560152D02*
X119101714Y-125655390D01*
X119101714Y-125655390D02*
X119054095Y-125703009D01*
X119054095Y-125703009D02*
X118958857Y-125750628D01*
X118958857Y-125750628D02*
X118577905Y-125750628D01*
X119720762Y-125655390D02*
X119625524Y-125607771D01*
X119625524Y-125607771D02*
X119577905Y-125560152D01*
X119577905Y-125560152D02*
X119530286Y-125464914D01*
X119530286Y-125464914D02*
X119530286Y-125417295D01*
X119530286Y-125417295D02*
X119577905Y-125322057D01*
X119577905Y-125322057D02*
X119625524Y-125274438D01*
X119625524Y-125274438D02*
X119720762Y-125226819D01*
X119720762Y-125226819D02*
X119911238Y-125226819D01*
X119911238Y-125226819D02*
X120006476Y-125274438D01*
X120006476Y-125274438D02*
X120054095Y-125322057D01*
X120054095Y-125322057D02*
X120101714Y-125417295D01*
X120101714Y-125417295D02*
X120101714Y-125464914D01*
X120101714Y-125464914D02*
X120054095Y-125560152D01*
X120054095Y-125560152D02*
X120006476Y-125607771D01*
X120006476Y-125607771D02*
X119911238Y-125655390D01*
X119911238Y-125655390D02*
X119720762Y-125655390D01*
X119720762Y-125655390D02*
X119625524Y-125703009D01*
X119625524Y-125703009D02*
X119577905Y-125750628D01*
X119577905Y-125750628D02*
X119530286Y-125845866D01*
X119530286Y-125845866D02*
X119530286Y-126036342D01*
X119530286Y-126036342D02*
X119577905Y-126131580D01*
X119577905Y-126131580D02*
X119625524Y-126179200D01*
X119625524Y-126179200D02*
X119720762Y-126226819D01*
X119720762Y-126226819D02*
X119911238Y-126226819D01*
X119911238Y-126226819D02*
X120006476Y-126179200D01*
X120006476Y-126179200D02*
X120054095Y-126131580D01*
X120054095Y-126131580D02*
X120101714Y-126036342D01*
X120101714Y-126036342D02*
X120101714Y-125845866D01*
X120101714Y-125845866D02*
X120054095Y-125750628D01*
X120054095Y-125750628D02*
X120006476Y-125703009D01*
X120006476Y-125703009D02*
X119911238Y-125655390D01*
X139685580Y-129960666D02*
X139733200Y-130008285D01*
X139733200Y-130008285D02*
X139780819Y-130151142D01*
X139780819Y-130151142D02*
X139780819Y-130246380D01*
X139780819Y-130246380D02*
X139733200Y-130389237D01*
X139733200Y-130389237D02*
X139637961Y-130484475D01*
X139637961Y-130484475D02*
X139542723Y-130532094D01*
X139542723Y-130532094D02*
X139352247Y-130579713D01*
X139352247Y-130579713D02*
X139209390Y-130579713D01*
X139209390Y-130579713D02*
X139018914Y-130532094D01*
X139018914Y-130532094D02*
X138923676Y-130484475D01*
X138923676Y-130484475D02*
X138828438Y-130389237D01*
X138828438Y-130389237D02*
X138780819Y-130246380D01*
X138780819Y-130246380D02*
X138780819Y-130151142D01*
X138780819Y-130151142D02*
X138828438Y-130008285D01*
X138828438Y-130008285D02*
X138876057Y-129960666D01*
X138780819Y-129627332D02*
X138780819Y-129008285D01*
X138780819Y-129008285D02*
X139161771Y-129341618D01*
X139161771Y-129341618D02*
X139161771Y-129198761D01*
X139161771Y-129198761D02*
X139209390Y-129103523D01*
X139209390Y-129103523D02*
X139257009Y-129055904D01*
X139257009Y-129055904D02*
X139352247Y-129008285D01*
X139352247Y-129008285D02*
X139590342Y-129008285D01*
X139590342Y-129008285D02*
X139685580Y-129055904D01*
X139685580Y-129055904D02*
X139733200Y-129103523D01*
X139733200Y-129103523D02*
X139780819Y-129198761D01*
X139780819Y-129198761D02*
X139780819Y-129484475D01*
X139780819Y-129484475D02*
X139733200Y-129579713D01*
X139733200Y-129579713D02*
X139685580Y-129627332D01*
X119053333Y-120130819D02*
X118720000Y-119654628D01*
X118481905Y-120130819D02*
X118481905Y-119130819D01*
X118481905Y-119130819D02*
X118862857Y-119130819D01*
X118862857Y-119130819D02*
X118958095Y-119178438D01*
X118958095Y-119178438D02*
X119005714Y-119226057D01*
X119005714Y-119226057D02*
X119053333Y-119321295D01*
X119053333Y-119321295D02*
X119053333Y-119464152D01*
X119053333Y-119464152D02*
X119005714Y-119559390D01*
X119005714Y-119559390D02*
X118958095Y-119607009D01*
X118958095Y-119607009D02*
X118862857Y-119654628D01*
X118862857Y-119654628D02*
X118481905Y-119654628D01*
X119910476Y-119130819D02*
X119720000Y-119130819D01*
X119720000Y-119130819D02*
X119624762Y-119178438D01*
X119624762Y-119178438D02*
X119577143Y-119226057D01*
X119577143Y-119226057D02*
X119481905Y-119368914D01*
X119481905Y-119368914D02*
X119434286Y-119559390D01*
X119434286Y-119559390D02*
X119434286Y-119940342D01*
X119434286Y-119940342D02*
X119481905Y-120035580D01*
X119481905Y-120035580D02*
X119529524Y-120083200D01*
X119529524Y-120083200D02*
X119624762Y-120130819D01*
X119624762Y-120130819D02*
X119815238Y-120130819D01*
X119815238Y-120130819D02*
X119910476Y-120083200D01*
X119910476Y-120083200D02*
X119958095Y-120035580D01*
X119958095Y-120035580D02*
X120005714Y-119940342D01*
X120005714Y-119940342D02*
X120005714Y-119702247D01*
X120005714Y-119702247D02*
X119958095Y-119607009D01*
X119958095Y-119607009D02*
X119910476Y-119559390D01*
X119910476Y-119559390D02*
X119815238Y-119511771D01*
X119815238Y-119511771D02*
X119624762Y-119511771D01*
X119624762Y-119511771D02*
X119529524Y-119559390D01*
X119529524Y-119559390D02*
X119481905Y-119607009D01*
X119481905Y-119607009D02*
X119434286Y-119702247D01*
D12*
X127924000Y-120586000D02*
X131664000Y-120586000D01*
X127924000Y-127826000D02*
X127924000Y-120586000D01*
X127924000Y-127826000D02*
X131664000Y-127826000D01*
X131664000Y-127826000D02*
X131664000Y-120586000D01*
X136338000Y-115062000D02*
X136338000Y-112462000D01*
X138998000Y-112462000D02*
X136338000Y-112462000D01*
X138998000Y-115062000D02*
X136338000Y-115062000D01*
X138998000Y-115062000D02*
X138998000Y-112462000D01*
X138998000Y-116332000D02*
X138998000Y-117662000D01*
X138998000Y-117662000D02*
X137668000Y-117662000D01*
X136338000Y-108712000D02*
X136338000Y-106112000D01*
X138998000Y-106112000D02*
X136338000Y-106112000D01*
X138998000Y-108712000D02*
X136338000Y-108712000D01*
X138998000Y-108712000D02*
X138998000Y-106112000D01*
X138998000Y-109982000D02*
X138998000Y-111312000D01*
X138998000Y-111312000D02*
X137668000Y-111312000D01*
X89626000Y-112295000D02*
X89626000Y-113545000D01*
X89916000Y-112585000D02*
X89916000Y-118555000D01*
X89916000Y-118555000D02*
X97536000Y-118555000D01*
X89926000Y-112595000D02*
X89926000Y-113345000D01*
X89926000Y-113345000D02*
X91726000Y-113345000D01*
X89926000Y-114845000D02*
X90676000Y-114845000D01*
X90676000Y-114845000D02*
X90676000Y-117795000D01*
X90676000Y-117795000D02*
X93726000Y-117795000D01*
X90876000Y-112295000D02*
X89626000Y-112295000D01*
X91726000Y-112595000D02*
X89926000Y-112595000D01*
X91726000Y-113345000D02*
X91726000Y-112595000D01*
X93226000Y-112595000D02*
X93226000Y-113345000D01*
X93226000Y-113345000D02*
X94226000Y-113345000D01*
X94226000Y-112595000D02*
X93226000Y-112595000D01*
X94226000Y-113345000D02*
X94226000Y-112595000D01*
X95726000Y-112595000D02*
X95726000Y-113345000D01*
X95726000Y-113345000D02*
X97526000Y-113345000D01*
X96776000Y-114845000D02*
X96776000Y-117795000D01*
X96776000Y-117795000D02*
X93726000Y-117795000D01*
X97526000Y-112595000D02*
X95726000Y-112595000D01*
X97526000Y-113345000D02*
X97526000Y-112595000D01*
X97526000Y-114845000D02*
X96776000Y-114845000D01*
X97536000Y-112585000D02*
X89916000Y-112585000D01*
X97536000Y-118555000D02*
X97536000Y-112585000D01*
X99030000Y-82320000D02*
X99030000Y-129820000D01*
X101030000Y-80320000D02*
X125030000Y-80320000D01*
X101030000Y-131820000D02*
X125030000Y-131820000D01*
X104140000Y-81590000D02*
X121920000Y-81590000D01*
X104140000Y-86670000D02*
X104140000Y-81590000D01*
X104140000Y-127310000D02*
X106680000Y-127310000D01*
X104140000Y-131120000D02*
X104140000Y-127310000D01*
X105410000Y-82352000D02*
X107950000Y-82352000D01*
X105410000Y-85908000D02*
X105410000Y-82352000D01*
X105530000Y-87320000D02*
X120530000Y-87320000D01*
X105530000Y-105320000D02*
X105530000Y-87320000D01*
X106680000Y-127310000D02*
X106680000Y-131120000D01*
X106680000Y-131120000D02*
X104140000Y-131120000D01*
X107950000Y-82352000D02*
X107950000Y-84384000D01*
X107950000Y-84384000D02*
X110490000Y-84384000D01*
X109030000Y-125820000D02*
X109030000Y-131820000D01*
X109030000Y-125820000D02*
X117030000Y-125820000D01*
X110490000Y-82352000D02*
X113030000Y-82352000D01*
X110490000Y-84384000D02*
X110490000Y-82352000D01*
X113030000Y-82352000D02*
X113030000Y-84384000D01*
X113030000Y-84384000D02*
X115570000Y-84384000D01*
X115570000Y-82352000D02*
X120650000Y-82352000D01*
X115570000Y-84384000D02*
X115570000Y-82352000D01*
X117030000Y-125820000D02*
X117030000Y-131820000D01*
X118110000Y-82352000D02*
X118110000Y-85908000D01*
X119380000Y-127310000D02*
X121920000Y-127310000D01*
X119380000Y-131120000D02*
X119380000Y-127310000D01*
X120530000Y-87320000D02*
X120530000Y-105320000D01*
X120530000Y-105320000D02*
X105530000Y-105320000D01*
X120650000Y-82352000D02*
X120650000Y-85908000D01*
X121920000Y-81590000D02*
X121920000Y-86670000D01*
X121920000Y-86670000D02*
X104140000Y-86670000D01*
X121920000Y-127310000D02*
X121920000Y-131120000D01*
X121920000Y-131120000D02*
X119380000Y-131120000D01*
X127030000Y-129820000D02*
X127030000Y-82320000D01*
X99030000Y-82320000D02*
G75*
G02*
X101030000Y-80320000I1999999J1D01*
G01*
X101030000Y-131820000D02*
G75*
G02*
X99030000Y-129820000I-1J1999999D01*
G01*
X125030000Y-80320000D02*
G75*
G02*
X127030000Y-82320000I0J-2000000D01*
G01*
X127030000Y-129820000D02*
G75*
G02*
X125030000Y-131820000I-2000000J0D01*
G01*
X102830000Y-82320000D02*
G75*
G02*
X99830000Y-82320000I-1500000J0D01*
G01*
X99830000Y-82320000D02*
G75*
G02*
X102830000Y-82320000I1500000J0D01*
G01*
X102830000Y-129820000D02*
G75*
G02*
X99830000Y-129820000I-1500000J0D01*
G01*
X99830000Y-129820000D02*
G75*
G02*
X102830000Y-129820000I1500000J0D01*
G01*
D13*
X105710000Y-129215000D02*
G75*
G02*
X105110000Y-129215000I-300000J0D01*
G01*
X105110000Y-129215000D02*
G75*
G02*
X105710000Y-129215000I300000J0D01*
G01*
D14*
X108350000Y-103180000D02*
G75*
G02*
X107550000Y-103180000I-400000J0D01*
G01*
X107550000Y-103180000D02*
G75*
G02*
X108350000Y-103180000I400000J0D01*
G01*
D13*
X120950000Y-129215000D02*
G75*
G02*
X120350000Y-129215000I-300000J0D01*
G01*
X120350000Y-129215000D02*
G75*
G02*
X120950000Y-129215000I300000J0D01*
G01*
D12*
X126230000Y-82320000D02*
G75*
G02*
X123230000Y-82320000I-1500000J0D01*
G01*
X123230000Y-82320000D02*
G75*
G02*
X126230000Y-82320000I1500000J0D01*
G01*
X126230000Y-129820000D02*
G75*
G02*
X123230000Y-129820000I-1500000J0D01*
G01*
X123230000Y-129820000D02*
G75*
G02*
X126230000Y-129820000I1500000J0D01*
G01*
X109938000Y-106152000D02*
X116478000Y-106152000D01*
X109938000Y-106482000D02*
X109938000Y-106152000D01*
X109938000Y-108562000D02*
X109938000Y-108892000D01*
X109938000Y-108892000D02*
X116478000Y-108892000D01*
X116478000Y-106152000D02*
X116478000Y-106482000D01*
X116478000Y-108892000D02*
X116478000Y-108562000D01*
X92872000Y-121114000D02*
X96612000Y-121114000D01*
X92872000Y-128354000D02*
X92872000Y-121114000D01*
X92872000Y-128354000D02*
X96612000Y-128354000D01*
X96612000Y-128354000D02*
X96612000Y-121114000D01*
X82042000Y-124340000D02*
X92202000Y-124340000D01*
X82042000Y-124380000D02*
X92202000Y-124380000D01*
X82042000Y-124420000D02*
X92202000Y-124420000D01*
X82043000Y-124300000D02*
X92201000Y-124300000D01*
X82044000Y-124260000D02*
X92200000Y-124260000D01*
X82045000Y-124220000D02*
X92199000Y-124220000D01*
X82047000Y-124180000D02*
X92197000Y-124180000D01*
X82049000Y-124140000D02*
X92195000Y-124140000D01*
X82052000Y-124100000D02*
X92192000Y-124100000D01*
X82054000Y-124060000D02*
X92190000Y-124060000D01*
X82057000Y-124020000D02*
X92187000Y-124020000D01*
X82060000Y-123980000D02*
X92184000Y-123980000D01*
X82064000Y-123940000D02*
X92180000Y-123940000D01*
X82068000Y-123900000D02*
X92176000Y-123900000D01*
X82072000Y-123860000D02*
X92172000Y-123860000D01*
X82077000Y-123820000D02*
X92167000Y-123820000D01*
X82082000Y-123780000D02*
X92162000Y-123780000D01*
X82087000Y-123740000D02*
X92157000Y-123740000D01*
X82092000Y-123699000D02*
X92152000Y-123699000D01*
X82098000Y-123659000D02*
X92146000Y-123659000D01*
X82104000Y-123619000D02*
X92140000Y-123619000D01*
X82111000Y-123579000D02*
X92133000Y-123579000D01*
X82118000Y-123539000D02*
X92126000Y-123539000D01*
X82125000Y-123499000D02*
X92119000Y-123499000D01*
X82132000Y-123459000D02*
X92112000Y-123459000D01*
X82140000Y-123419000D02*
X92104000Y-123419000D01*
X82148000Y-123379000D02*
X92096000Y-123379000D01*
X82157000Y-123339000D02*
X92087000Y-123339000D01*
X82166000Y-123299000D02*
X92078000Y-123299000D01*
X82175000Y-123259000D02*
X92069000Y-123259000D01*
X82184000Y-123219000D02*
X92060000Y-123219000D01*
X82194000Y-123179000D02*
X92050000Y-123179000D01*
X82204000Y-123139000D02*
X85881000Y-123139000D01*
X82215000Y-123099000D02*
X85881000Y-123099000D01*
X82225000Y-123059000D02*
X85881000Y-123059000D01*
X82237000Y-123019000D02*
X85881000Y-123019000D01*
X82248000Y-122979000D02*
X85881000Y-122979000D01*
X82260000Y-122939000D02*
X85881000Y-122939000D01*
X82272000Y-122899000D02*
X85881000Y-122899000D01*
X82285000Y-122859000D02*
X85881000Y-122859000D01*
X82298000Y-122819000D02*
X85881000Y-122819000D01*
X82311000Y-122779000D02*
X85881000Y-122779000D01*
X82325000Y-122739000D02*
X85881000Y-122739000D01*
X82339000Y-122699000D02*
X85881000Y-122699000D01*
X82354000Y-122659000D02*
X85881000Y-122659000D01*
X82368000Y-122619000D02*
X85881000Y-122619000D01*
X82384000Y-122579000D02*
X85881000Y-122579000D01*
X82399000Y-122539000D02*
X85881000Y-122539000D01*
X82415000Y-122499000D02*
X85881000Y-122499000D01*
X82432000Y-122459000D02*
X85881000Y-122459000D01*
X82448000Y-122419000D02*
X85881000Y-122419000D01*
X82465000Y-122379000D02*
X85881000Y-122379000D01*
X82483000Y-122339000D02*
X85881000Y-122339000D01*
X82501000Y-122299000D02*
X85881000Y-122299000D01*
X82519000Y-122259000D02*
X85881000Y-122259000D01*
X82538000Y-122219000D02*
X85881000Y-122219000D01*
X82558000Y-122179000D02*
X85881000Y-122179000D01*
X82577000Y-122139000D02*
X85881000Y-122139000D01*
X82597000Y-122099000D02*
X85881000Y-122099000D01*
X82618000Y-122059000D02*
X85881000Y-122059000D01*
X82639000Y-122019000D02*
X85881000Y-122019000D01*
X82660000Y-121979000D02*
X85881000Y-121979000D01*
X82682000Y-121939000D02*
X85881000Y-121939000D01*
X82705000Y-121899000D02*
X85881000Y-121899000D01*
X82727000Y-121859000D02*
X85881000Y-121859000D01*
X82751000Y-121819000D02*
X85881000Y-121819000D01*
X82775000Y-121779000D02*
X85881000Y-121779000D01*
X82799000Y-121739000D02*
X85881000Y-121739000D01*
X82824000Y-121699000D02*
X85881000Y-121699000D01*
X82849000Y-121659000D02*
X85881000Y-121659000D01*
X82875000Y-121619000D02*
X85881000Y-121619000D01*
X82901000Y-121579000D02*
X85881000Y-121579000D01*
X82928000Y-121539000D02*
X85881000Y-121539000D01*
X82956000Y-121499000D02*
X85881000Y-121499000D01*
X82984000Y-121459000D02*
X85881000Y-121459000D01*
X83012000Y-121419000D02*
X85881000Y-121419000D01*
X83042000Y-121379000D02*
X85881000Y-121379000D01*
X83072000Y-121339000D02*
X85881000Y-121339000D01*
X83102000Y-121299000D02*
X85881000Y-121299000D01*
X83133000Y-121259000D02*
X85881000Y-121259000D01*
X83165000Y-121219000D02*
X85881000Y-121219000D01*
X83197000Y-121179000D02*
X85881000Y-121179000D01*
X83230000Y-121139000D02*
X85881000Y-121139000D01*
X83264000Y-121099000D02*
X85881000Y-121099000D01*
X83298000Y-121059000D02*
X85881000Y-121059000D01*
X83333000Y-121019000D02*
X85881000Y-121019000D01*
X83369000Y-120979000D02*
X85881000Y-120979000D01*
X83406000Y-120939000D02*
X85881000Y-120939000D01*
X83443000Y-120899000D02*
X85881000Y-120899000D01*
X83482000Y-120859000D02*
X85881000Y-120859000D01*
X83521000Y-120819000D02*
X85881000Y-120819000D01*
X83561000Y-120779000D02*
X85881000Y-120779000D01*
X83602000Y-120739000D02*
X85881000Y-120739000D01*
X83644000Y-120699000D02*
X85881000Y-120699000D01*
X83686000Y-120659000D02*
X90558000Y-120659000D01*
X83730000Y-120619000D02*
X90514000Y-120619000D01*
X83747000Y-129399646D02*
X84747000Y-129399646D01*
X83775000Y-120579000D02*
X90469000Y-120579000D01*
X83821000Y-120539000D02*
X90423000Y-120539000D01*
X83868000Y-120499000D02*
X90376000Y-120499000D01*
X83916000Y-120459000D02*
X90328000Y-120459000D01*
X83966000Y-120419000D02*
X90278000Y-120419000D01*
X84016000Y-120379000D02*
X90228000Y-120379000D01*
X84068000Y-120339000D02*
X90176000Y-120339000D01*
X84122000Y-120299000D02*
X90122000Y-120299000D01*
X84177000Y-120259000D02*
X90067000Y-120259000D01*
X84233000Y-120219000D02*
X90011000Y-120219000D01*
X84247000Y-129899646D02*
X84247000Y-128899646D01*
X84292000Y-120179000D02*
X89952000Y-120179000D01*
X84352000Y-120139000D02*
X89892000Y-120139000D01*
X84413000Y-120099000D02*
X89831000Y-120099000D01*
X84477000Y-120059000D02*
X89767000Y-120059000D01*
X84543000Y-120019000D02*
X89701000Y-120019000D01*
X84612000Y-119979000D02*
X89632000Y-119979000D01*
X84683000Y-119939000D02*
X89561000Y-119939000D01*
X84757000Y-119899000D02*
X89487000Y-119899000D01*
X84833000Y-119859000D02*
X89411000Y-119859000D01*
X84913000Y-119819000D02*
X89331000Y-119819000D01*
X84997000Y-119779000D02*
X89247000Y-119779000D01*
X85085000Y-119739000D02*
X89159000Y-119739000D01*
X85178000Y-119699000D02*
X89066000Y-119699000D01*
X85276000Y-119659000D02*
X88968000Y-119659000D01*
X85380000Y-119619000D02*
X88864000Y-119619000D01*
X85492000Y-119579000D02*
X88752000Y-119579000D01*
X85612000Y-119539000D02*
X88632000Y-119539000D01*
X85744000Y-119499000D02*
X88500000Y-119499000D01*
X85892000Y-119459000D02*
X88352000Y-119459000D01*
X86060000Y-119419000D02*
X88184000Y-119419000D01*
X86260000Y-119379000D02*
X87984000Y-119379000D01*
X86523000Y-119339000D02*
X87721000Y-119339000D01*
X88363000Y-120699000D02*
X90600000Y-120699000D01*
X88363000Y-120739000D02*
X90642000Y-120739000D01*
X88363000Y-120779000D02*
X90683000Y-120779000D01*
X88363000Y-120819000D02*
X90723000Y-120819000D01*
X88363000Y-120859000D02*
X90762000Y-120859000D01*
X88363000Y-120899000D02*
X90801000Y-120899000D01*
X88363000Y-120939000D02*
X90838000Y-120939000D01*
X88363000Y-120979000D02*
X90875000Y-120979000D01*
X88363000Y-121019000D02*
X90911000Y-121019000D01*
X88363000Y-121059000D02*
X90946000Y-121059000D01*
X88363000Y-121099000D02*
X90980000Y-121099000D01*
X88363000Y-121139000D02*
X91014000Y-121139000D01*
X88363000Y-121179000D02*
X91047000Y-121179000D01*
X88363000Y-121219000D02*
X91079000Y-121219000D01*
X88363000Y-121259000D02*
X91111000Y-121259000D01*
X88363000Y-121299000D02*
X91142000Y-121299000D01*
X88363000Y-121339000D02*
X91172000Y-121339000D01*
X88363000Y-121379000D02*
X91202000Y-121379000D01*
X88363000Y-121419000D02*
X91232000Y-121419000D01*
X88363000Y-121459000D02*
X91260000Y-121459000D01*
X88363000Y-121499000D02*
X91288000Y-121499000D01*
X88363000Y-121539000D02*
X91316000Y-121539000D01*
X88363000Y-121579000D02*
X91343000Y-121579000D01*
X88363000Y-121619000D02*
X91369000Y-121619000D01*
X88363000Y-121659000D02*
X91395000Y-121659000D01*
X88363000Y-121699000D02*
X91420000Y-121699000D01*
X88363000Y-121739000D02*
X91445000Y-121739000D01*
X88363000Y-121779000D02*
X91469000Y-121779000D01*
X88363000Y-121819000D02*
X91493000Y-121819000D01*
X88363000Y-121859000D02*
X91517000Y-121859000D01*
X88363000Y-121899000D02*
X91539000Y-121899000D01*
X88363000Y-121939000D02*
X91562000Y-121939000D01*
X88363000Y-121979000D02*
X91584000Y-121979000D01*
X88363000Y-122019000D02*
X91605000Y-122019000D01*
X88363000Y-122059000D02*
X91626000Y-122059000D01*
X88363000Y-122099000D02*
X91647000Y-122099000D01*
X88363000Y-122139000D02*
X91667000Y-122139000D01*
X88363000Y-122179000D02*
X91686000Y-122179000D01*
X88363000Y-122219000D02*
X91706000Y-122219000D01*
X88363000Y-122259000D02*
X91725000Y-122259000D01*
X88363000Y-122299000D02*
X91743000Y-122299000D01*
X88363000Y-122339000D02*
X91761000Y-122339000D01*
X88363000Y-122379000D02*
X91779000Y-122379000D01*
X88363000Y-122419000D02*
X91796000Y-122419000D01*
X88363000Y-122459000D02*
X91812000Y-122459000D01*
X88363000Y-122499000D02*
X91829000Y-122499000D01*
X88363000Y-122539000D02*
X91845000Y-122539000D01*
X88363000Y-122579000D02*
X91860000Y-122579000D01*
X88363000Y-122619000D02*
X91876000Y-122619000D01*
X88363000Y-122659000D02*
X91890000Y-122659000D01*
X88363000Y-122699000D02*
X91905000Y-122699000D01*
X88363000Y-122739000D02*
X91919000Y-122739000D01*
X88363000Y-122779000D02*
X91933000Y-122779000D01*
X88363000Y-122819000D02*
X91946000Y-122819000D01*
X88363000Y-122859000D02*
X91959000Y-122859000D01*
X88363000Y-122899000D02*
X91972000Y-122899000D01*
X88363000Y-122939000D02*
X91984000Y-122939000D01*
X88363000Y-122979000D02*
X91996000Y-122979000D01*
X88363000Y-123019000D02*
X92007000Y-123019000D01*
X88363000Y-123059000D02*
X92019000Y-123059000D01*
X88363000Y-123099000D02*
X92029000Y-123099000D01*
X88363000Y-123139000D02*
X92040000Y-123139000D01*
X92242000Y-124420000D02*
G75*
G02*
X82002000Y-124420000I-5120000J0D01*
G01*
X82002000Y-124420000D02*
G75*
G02*
X92242000Y-124420000I5120000J0D01*
G01*
X109950000Y-112248000D02*
X109950000Y-112578000D01*
X109950000Y-114988000D02*
X109950000Y-114658000D01*
X116490000Y-112248000D02*
X109950000Y-112248000D01*
X116490000Y-112578000D02*
X116490000Y-112248000D01*
X116490000Y-114658000D02*
X116490000Y-114988000D01*
X116490000Y-114988000D02*
X109950000Y-114988000D01*
X89894000Y-107006000D02*
X93494000Y-107006000D01*
X89855522Y-106994478D02*
G75*
G02*
X91694000Y-102555999I1838478J1838478D01*
G01*
X91694000Y-102556000D02*
G75*
G02*
X93532478Y-106994478I0J-2600000D01*
G01*
X105350000Y-87536000D02*
X106680000Y-87536000D01*
X105350000Y-88646000D02*
X105350000Y-87536000D01*
X105350000Y-90106000D02*
X120710000Y-90106000D01*
X105350000Y-98736000D02*
X105350000Y-90106000D01*
X105350000Y-98736000D02*
X120710000Y-98736000D01*
X105470000Y-98736000D02*
X105470000Y-90106000D01*
X105588095Y-98736000D02*
X105588095Y-90106000D01*
X105706190Y-98736000D02*
X105706190Y-90106000D01*
X105824285Y-98736000D02*
X105824285Y-90106000D01*
X105942380Y-98736000D02*
X105942380Y-90106000D01*
X106060475Y-98736000D02*
X106060475Y-90106000D01*
X106178570Y-98736000D02*
X106178570Y-90106000D01*
X106296665Y-98736000D02*
X106296665Y-90106000D01*
X106320000Y-90106000D02*
X106320000Y-89756000D01*
X106414760Y-98736000D02*
X106414760Y-90106000D01*
X106532855Y-98736000D02*
X106532855Y-90106000D01*
X106650950Y-98736000D02*
X106650950Y-90106000D01*
X106769045Y-98736000D02*
X106769045Y-90106000D01*
X106887140Y-98736000D02*
X106887140Y-90106000D01*
X107005235Y-98736000D02*
X107005235Y-90106000D01*
X107040000Y-90106000D02*
X107040000Y-89756000D01*
X107123330Y-98736000D02*
X107123330Y-90106000D01*
X107241425Y-98736000D02*
X107241425Y-90106000D01*
X107359520Y-98736000D02*
X107359520Y-90106000D01*
X107477615Y-98736000D02*
X107477615Y-90106000D01*
X107595710Y-98736000D02*
X107595710Y-90106000D01*
X107713805Y-98736000D02*
X107713805Y-90106000D01*
X107831900Y-98736000D02*
X107831900Y-90106000D01*
X107950000Y-98736000D02*
X107950000Y-90106000D01*
X108860000Y-90106000D02*
X108860000Y-89696000D01*
X109580000Y-90106000D02*
X109580000Y-89696000D01*
X110490000Y-98736000D02*
X110490000Y-90106000D01*
X111400000Y-90106000D02*
X111400000Y-89696000D01*
X112120000Y-90106000D02*
X112120000Y-89696000D01*
X113030000Y-98736000D02*
X113030000Y-90106000D01*
X113940000Y-90106000D02*
X113940000Y-89696000D01*
X114660000Y-90106000D02*
X114660000Y-89696000D01*
X115570000Y-98736000D02*
X115570000Y-90106000D01*
X116480000Y-90106000D02*
X116480000Y-89696000D01*
X117200000Y-90106000D02*
X117200000Y-89696000D01*
X118110000Y-98736000D02*
X118110000Y-90106000D01*
X119020000Y-90106000D02*
X119020000Y-89696000D01*
X119740000Y-90106000D02*
X119740000Y-89696000D01*
X120710000Y-98736000D02*
X120710000Y-90106000D01*
X88438000Y-81768000D02*
X88438000Y-101888000D01*
X88438000Y-101888000D02*
X94408000Y-101888000D01*
X89198000Y-82528000D02*
X89198000Y-91828000D01*
X89198000Y-101128000D02*
X89198000Y-91828000D01*
X92148000Y-81778000D02*
X92148000Y-82528000D01*
X92148000Y-82528000D02*
X89198000Y-82528000D01*
X92148000Y-101128000D02*
X89198000Y-101128000D01*
X92148000Y-101878000D02*
X92148000Y-101128000D01*
X93648000Y-81778000D02*
X93648000Y-83578000D01*
X93648000Y-83578000D02*
X94398000Y-83578000D01*
X93648000Y-85078000D02*
X93648000Y-98578000D01*
X93648000Y-98578000D02*
X94398000Y-98578000D01*
X93648000Y-100078000D02*
X93648000Y-101878000D01*
X93648000Y-101878000D02*
X94398000Y-101878000D01*
X94398000Y-81778000D02*
X93648000Y-81778000D01*
X94398000Y-83578000D02*
X94398000Y-81778000D01*
X94398000Y-85078000D02*
X93648000Y-85078000D01*
X94398000Y-98578000D02*
X94398000Y-85078000D01*
X94398000Y-100078000D02*
X93648000Y-100078000D01*
X94398000Y-101878000D02*
X94398000Y-100078000D01*
X94408000Y-81768000D02*
X88438000Y-81768000D01*
X94408000Y-101888000D02*
X94408000Y-81768000D01*
X94698000Y-81478000D02*
X93448000Y-81478000D01*
X94698000Y-82728000D02*
X94698000Y-81478000D01*
X79548000Y-83960000D02*
X79548000Y-99080000D01*
X79548000Y-99080000D02*
X85518000Y-99080000D01*
X80308000Y-84720000D02*
X80308000Y-91520000D01*
X80308000Y-98320000D02*
X80308000Y-91520000D01*
X83258000Y-83970000D02*
X83258000Y-84720000D01*
X83258000Y-84720000D02*
X80308000Y-84720000D01*
X83258000Y-98320000D02*
X80308000Y-98320000D01*
X83258000Y-99070000D02*
X83258000Y-98320000D01*
X84758000Y-83970000D02*
X84758000Y-85770000D01*
X84758000Y-85770000D02*
X85508000Y-85770000D01*
X84758000Y-87270000D02*
X84758000Y-95770000D01*
X84758000Y-95770000D02*
X85508000Y-95770000D01*
X84758000Y-97270000D02*
X84758000Y-99070000D01*
X84758000Y-99070000D02*
X85508000Y-99070000D01*
X85508000Y-83970000D02*
X84758000Y-83970000D01*
X85508000Y-85770000D02*
X85508000Y-83970000D01*
X85508000Y-87270000D02*
X84758000Y-87270000D01*
X85508000Y-95770000D02*
X85508000Y-87270000D01*
X85508000Y-97270000D02*
X84758000Y-97270000D01*
X85508000Y-99070000D02*
X85508000Y-97270000D01*
X85518000Y-83960000D02*
X79548000Y-83960000D01*
X85518000Y-99080000D02*
X85518000Y-83960000D01*
X85808000Y-83670000D02*
X84558000Y-83670000D01*
X85808000Y-84920000D02*
X85808000Y-83670000D01*
X109950000Y-109200000D02*
X109950000Y-109530000D01*
X109950000Y-111940000D02*
X109950000Y-111610000D01*
X116490000Y-109200000D02*
X109950000Y-109200000D01*
X116490000Y-109530000D02*
X116490000Y-109200000D01*
X116490000Y-111610000D02*
X116490000Y-111940000D01*
X116490000Y-111940000D02*
X109950000Y-111940000D01*
X133324800Y-107464000D02*
X133324800Y-103864000D01*
X128874800Y-105664000D02*
G75*
G02*
X133313278Y-103825522I2600000J0D01*
G01*
X133313278Y-107502478D02*
G75*
G02*
X128874799Y-105664000I-1838478J1838478D01*
G01*
X128932000Y-110522000D02*
X128932000Y-117062000D01*
X128932000Y-117062000D02*
X129262000Y-117062000D01*
X129262000Y-110522000D02*
X128932000Y-110522000D01*
X131342000Y-110522000D02*
X131672000Y-110522000D01*
X131672000Y-110522000D02*
X131672000Y-117062000D01*
X131672000Y-117062000D02*
X131342000Y-117062000D01*
X79548000Y-108692000D02*
X79548000Y-118812000D01*
X79548000Y-118812000D02*
X85518000Y-118812000D01*
X80308000Y-109452000D02*
X80308000Y-113752000D01*
X80308000Y-118052000D02*
X80308000Y-113752000D01*
X83258000Y-108702000D02*
X83258000Y-109452000D01*
X83258000Y-109452000D02*
X80308000Y-109452000D01*
X83258000Y-118052000D02*
X80308000Y-118052000D01*
X83258000Y-118802000D02*
X83258000Y-118052000D01*
X84758000Y-108702000D02*
X84758000Y-110502000D01*
X84758000Y-110502000D02*
X85508000Y-110502000D01*
X84758000Y-112002000D02*
X84758000Y-115502000D01*
X84758000Y-115502000D02*
X85508000Y-115502000D01*
X84758000Y-117002000D02*
X84758000Y-118802000D01*
X84758000Y-118802000D02*
X85508000Y-118802000D01*
X85508000Y-108702000D02*
X84758000Y-108702000D01*
X85508000Y-110502000D02*
X85508000Y-108702000D01*
X85508000Y-112002000D02*
X84758000Y-112002000D01*
X85508000Y-115502000D02*
X85508000Y-112002000D01*
X85508000Y-117002000D02*
X84758000Y-117002000D01*
X85508000Y-118802000D02*
X85508000Y-117002000D01*
X85518000Y-108692000D02*
X79548000Y-108692000D01*
X85518000Y-118812000D02*
X85518000Y-108692000D01*
X85808000Y-108402000D02*
X84558000Y-108402000D01*
X85808000Y-109652000D02*
X85808000Y-108402000D01*
X79548000Y-100096000D02*
X79548000Y-107716000D01*
X79548000Y-107716000D02*
X85518000Y-107716000D01*
X80308000Y-100856000D02*
X80308000Y-103906000D01*
X80308000Y-106956000D02*
X80308000Y-103906000D01*
X83258000Y-100106000D02*
X83258000Y-100856000D01*
X83258000Y-100856000D02*
X80308000Y-100856000D01*
X83258000Y-106956000D02*
X80308000Y-106956000D01*
X83258000Y-107706000D02*
X83258000Y-106956000D01*
X84758000Y-100106000D02*
X84758000Y-101906000D01*
X84758000Y-101906000D02*
X85508000Y-101906000D01*
X84758000Y-103406000D02*
X84758000Y-104406000D01*
X84758000Y-104406000D02*
X85508000Y-104406000D01*
X84758000Y-105906000D02*
X84758000Y-107706000D01*
X84758000Y-107706000D02*
X85508000Y-107706000D01*
X85508000Y-100106000D02*
X84758000Y-100106000D01*
X85508000Y-101906000D02*
X85508000Y-100106000D01*
X85508000Y-103406000D02*
X84758000Y-103406000D01*
X85508000Y-104406000D02*
X85508000Y-103406000D01*
X85508000Y-105906000D02*
X84758000Y-105906000D01*
X85508000Y-107706000D02*
X85508000Y-105906000D01*
X85518000Y-100096000D02*
X79548000Y-100096000D01*
X85518000Y-107716000D02*
X85518000Y-100096000D01*
X85808000Y-99806000D02*
X84558000Y-99806000D01*
X85808000Y-101056000D02*
X85808000Y-99806000D01*
X109938000Y-103104000D02*
X109938000Y-103434000D01*
X109938000Y-105844000D02*
X109938000Y-105514000D01*
X116478000Y-103104000D02*
X109938000Y-103104000D01*
X116478000Y-103434000D02*
X116478000Y-103104000D01*
X116478000Y-105514000D02*
X116478000Y-105844000D01*
X116478000Y-105844000D02*
X109938000Y-105844000D01*
X129988000Y-93920000D02*
X131318000Y-93920000D01*
X129988000Y-95250000D02*
X129988000Y-93920000D01*
X129988000Y-96520000D02*
X129988000Y-101660000D01*
X129988000Y-96520000D02*
X132588000Y-96520000D01*
X129988000Y-101660000D02*
X135188000Y-101660000D01*
X132588000Y-93920000D02*
X135188000Y-93920000D01*
X132588000Y-96520000D02*
X132588000Y-93920000D01*
X135188000Y-93920000D02*
X135188000Y-101660000D01*
X109950000Y-115296000D02*
X109950000Y-115626000D01*
X109950000Y-118036000D02*
X109950000Y-117706000D01*
X116490000Y-115296000D02*
X109950000Y-115296000D01*
X116490000Y-115626000D02*
X116490000Y-115296000D01*
X116490000Y-117706000D02*
X116490000Y-118036000D01*
X116490000Y-118036000D02*
X109950000Y-118036000D01*
X109950000Y-127450000D02*
X116490000Y-127450000D01*
X109950000Y-127780000D02*
X109950000Y-127450000D01*
X109950000Y-129860000D02*
X109950000Y-130190000D01*
X109950000Y-130190000D02*
X116490000Y-130190000D01*
X116490000Y-127450000D02*
X116490000Y-127780000D01*
X116490000Y-130190000D02*
X116490000Y-129860000D01*
X109950000Y-121354000D02*
X116490000Y-121354000D01*
X109950000Y-121684000D02*
X109950000Y-121354000D01*
X109950000Y-123764000D02*
X109950000Y-124094000D01*
X109950000Y-124094000D02*
X116490000Y-124094000D01*
X116490000Y-121354000D02*
X116490000Y-121684000D01*
X116490000Y-124094000D02*
X116490000Y-123764000D01*
X131980000Y-110522000D02*
X132310000Y-110522000D01*
X131980000Y-117062000D02*
X131980000Y-110522000D01*
X132310000Y-117062000D02*
X131980000Y-117062000D01*
X134390000Y-117062000D02*
X134720000Y-117062000D01*
X134720000Y-110522000D02*
X134390000Y-110522000D01*
X134720000Y-117062000D02*
X134720000Y-110522000D01*
X87590000Y-107403000D02*
X87590000Y-112044000D01*
X87590000Y-107403000D02*
X97830000Y-107403000D01*
X87590000Y-108913000D02*
X97830000Y-108913000D01*
X87590000Y-112044000D02*
X97830000Y-112044000D01*
X90860000Y-107403000D02*
X90860000Y-108913000D01*
X94561000Y-107403000D02*
X94561000Y-108913000D01*
X97830000Y-107403000D02*
X97830000Y-112044000D01*
X109950000Y-124402000D02*
X116490000Y-124402000D01*
X109950000Y-124732000D02*
X109950000Y-124402000D01*
X109950000Y-126812000D02*
X109950000Y-127142000D01*
X109950000Y-127142000D02*
X116490000Y-127142000D01*
X116490000Y-124402000D02*
X116490000Y-124732000D01*
X116490000Y-127142000D02*
X116490000Y-126812000D01*
X132080000Y-123739700D02*
X142240000Y-123739700D01*
X132080000Y-123779700D02*
X142240000Y-123779700D01*
X132080000Y-123819700D02*
X142240000Y-123819700D01*
X132081000Y-123699700D02*
X142239000Y-123699700D01*
X132082000Y-123659700D02*
X142238000Y-123659700D01*
X132083000Y-123619700D02*
X142237000Y-123619700D01*
X132085000Y-123579700D02*
X142235000Y-123579700D01*
X132087000Y-123539700D02*
X142233000Y-123539700D01*
X132090000Y-123499700D02*
X142230000Y-123499700D01*
X132092000Y-123459700D02*
X142228000Y-123459700D01*
X132095000Y-123419700D02*
X142225000Y-123419700D01*
X132098000Y-123379700D02*
X142222000Y-123379700D01*
X132102000Y-123339700D02*
X142218000Y-123339700D01*
X132106000Y-123299700D02*
X142214000Y-123299700D01*
X132110000Y-123259700D02*
X142210000Y-123259700D01*
X132115000Y-123219700D02*
X142205000Y-123219700D01*
X132120000Y-123179700D02*
X142200000Y-123179700D01*
X132125000Y-123139700D02*
X142195000Y-123139700D01*
X132130000Y-123098700D02*
X142190000Y-123098700D01*
X132136000Y-123058700D02*
X142184000Y-123058700D01*
X132142000Y-123018700D02*
X142178000Y-123018700D01*
X132149000Y-122978700D02*
X142171000Y-122978700D01*
X132156000Y-122938700D02*
X142164000Y-122938700D01*
X132163000Y-122898700D02*
X142157000Y-122898700D01*
X132170000Y-122858700D02*
X142150000Y-122858700D01*
X132178000Y-122818700D02*
X142142000Y-122818700D01*
X132186000Y-122778700D02*
X142134000Y-122778700D01*
X132195000Y-122738700D02*
X142125000Y-122738700D01*
X132204000Y-122698700D02*
X142116000Y-122698700D01*
X132213000Y-122658700D02*
X142107000Y-122658700D01*
X132222000Y-122618700D02*
X142098000Y-122618700D01*
X132232000Y-122578700D02*
X142088000Y-122578700D01*
X132242000Y-122538700D02*
X135919000Y-122538700D01*
X132253000Y-122498700D02*
X135919000Y-122498700D01*
X132263000Y-122458700D02*
X135919000Y-122458700D01*
X132275000Y-122418700D02*
X135919000Y-122418700D01*
X132286000Y-122378700D02*
X135919000Y-122378700D01*
X132298000Y-122338700D02*
X135919000Y-122338700D01*
X132310000Y-122298700D02*
X135919000Y-122298700D01*
X132323000Y-122258700D02*
X135919000Y-122258700D01*
X132336000Y-122218700D02*
X135919000Y-122218700D01*
X132349000Y-122178700D02*
X135919000Y-122178700D01*
X132363000Y-122138700D02*
X135919000Y-122138700D01*
X132377000Y-122098700D02*
X135919000Y-122098700D01*
X132392000Y-122058700D02*
X135919000Y-122058700D01*
X132406000Y-122018700D02*
X135919000Y-122018700D01*
X132422000Y-121978700D02*
X135919000Y-121978700D01*
X132437000Y-121938700D02*
X135919000Y-121938700D01*
X132453000Y-121898700D02*
X135919000Y-121898700D01*
X132470000Y-121858700D02*
X135919000Y-121858700D01*
X132486000Y-121818700D02*
X135919000Y-121818700D01*
X132503000Y-121778700D02*
X135919000Y-121778700D01*
X132521000Y-121738700D02*
X135919000Y-121738700D01*
X132539000Y-121698700D02*
X135919000Y-121698700D01*
X132557000Y-121658700D02*
X135919000Y-121658700D01*
X132576000Y-121618700D02*
X135919000Y-121618700D01*
X132596000Y-121578700D02*
X135919000Y-121578700D01*
X132615000Y-121538700D02*
X135919000Y-121538700D01*
X132635000Y-121498700D02*
X135919000Y-121498700D01*
X132656000Y-121458700D02*
X135919000Y-121458700D01*
X132677000Y-121418700D02*
X135919000Y-121418700D01*
X132698000Y-121378700D02*
X135919000Y-121378700D01*
X132720000Y-121338700D02*
X135919000Y-121338700D01*
X132743000Y-121298700D02*
X135919000Y-121298700D01*
X132765000Y-121258700D02*
X135919000Y-121258700D01*
X132789000Y-121218700D02*
X135919000Y-121218700D01*
X132813000Y-121178700D02*
X135919000Y-121178700D01*
X132837000Y-121138700D02*
X135919000Y-121138700D01*
X132862000Y-121098700D02*
X135919000Y-121098700D01*
X132887000Y-121058700D02*
X135919000Y-121058700D01*
X132913000Y-121018700D02*
X135919000Y-121018700D01*
X132939000Y-120978700D02*
X135919000Y-120978700D01*
X132966000Y-120938700D02*
X135919000Y-120938700D01*
X132994000Y-120898700D02*
X135919000Y-120898700D01*
X133022000Y-120858700D02*
X135919000Y-120858700D01*
X133050000Y-120818700D02*
X135919000Y-120818700D01*
X133080000Y-120778700D02*
X135919000Y-120778700D01*
X133110000Y-120738700D02*
X135919000Y-120738700D01*
X133140000Y-120698700D02*
X135919000Y-120698700D01*
X133171000Y-120658700D02*
X135919000Y-120658700D01*
X133203000Y-120618700D02*
X135919000Y-120618700D01*
X133235000Y-120578700D02*
X135919000Y-120578700D01*
X133268000Y-120538700D02*
X135919000Y-120538700D01*
X133302000Y-120498700D02*
X135919000Y-120498700D01*
X133336000Y-120458700D02*
X135919000Y-120458700D01*
X133371000Y-120418700D02*
X135919000Y-120418700D01*
X133407000Y-120378700D02*
X135919000Y-120378700D01*
X133444000Y-120338700D02*
X135919000Y-120338700D01*
X133481000Y-120298700D02*
X135919000Y-120298700D01*
X133520000Y-120258700D02*
X135919000Y-120258700D01*
X133559000Y-120218700D02*
X135919000Y-120218700D01*
X133599000Y-120178700D02*
X135919000Y-120178700D01*
X133640000Y-120138700D02*
X135919000Y-120138700D01*
X133682000Y-120098700D02*
X135919000Y-120098700D01*
X133724000Y-120058700D02*
X140596000Y-120058700D01*
X133768000Y-120018700D02*
X140552000Y-120018700D01*
X133785000Y-128799346D02*
X134785000Y-128799346D01*
X133813000Y-119978700D02*
X140507000Y-119978700D01*
X133859000Y-119938700D02*
X140461000Y-119938700D01*
X133906000Y-119898700D02*
X140414000Y-119898700D01*
X133954000Y-119858700D02*
X140366000Y-119858700D01*
X134004000Y-119818700D02*
X140316000Y-119818700D01*
X134054000Y-119778700D02*
X140266000Y-119778700D01*
X134106000Y-119738700D02*
X140214000Y-119738700D01*
X134160000Y-119698700D02*
X140160000Y-119698700D01*
X134215000Y-119658700D02*
X140105000Y-119658700D01*
X134271000Y-119618700D02*
X140049000Y-119618700D01*
X134285000Y-129299346D02*
X134285000Y-128299346D01*
X134330000Y-119578700D02*
X139990000Y-119578700D01*
X134390000Y-119538700D02*
X139930000Y-119538700D01*
X134451000Y-119498700D02*
X139869000Y-119498700D01*
X134515000Y-119458700D02*
X139805000Y-119458700D01*
X134581000Y-119418700D02*
X139739000Y-119418700D01*
X134650000Y-119378700D02*
X139670000Y-119378700D01*
X134721000Y-119338700D02*
X139599000Y-119338700D01*
X134795000Y-119298700D02*
X139525000Y-119298700D01*
X134871000Y-119258700D02*
X139449000Y-119258700D01*
X134951000Y-119218700D02*
X139369000Y-119218700D01*
X135035000Y-119178700D02*
X139285000Y-119178700D01*
X135123000Y-119138700D02*
X139197000Y-119138700D01*
X135216000Y-119098700D02*
X139104000Y-119098700D01*
X135314000Y-119058700D02*
X139006000Y-119058700D01*
X135418000Y-119018700D02*
X138902000Y-119018700D01*
X135530000Y-118978700D02*
X138790000Y-118978700D01*
X135650000Y-118938700D02*
X138670000Y-118938700D01*
X135782000Y-118898700D02*
X138538000Y-118898700D01*
X135930000Y-118858700D02*
X138390000Y-118858700D01*
X136098000Y-118818700D02*
X138222000Y-118818700D01*
X136298000Y-118778700D02*
X138022000Y-118778700D01*
X136561000Y-118738700D02*
X137759000Y-118738700D01*
X138401000Y-120098700D02*
X140638000Y-120098700D01*
X138401000Y-120138700D02*
X140680000Y-120138700D01*
X138401000Y-120178700D02*
X140721000Y-120178700D01*
X138401000Y-120218700D02*
X140761000Y-120218700D01*
X138401000Y-120258700D02*
X140800000Y-120258700D01*
X138401000Y-120298700D02*
X140839000Y-120298700D01*
X138401000Y-120338700D02*
X140876000Y-120338700D01*
X138401000Y-120378700D02*
X140913000Y-120378700D01*
X138401000Y-120418700D02*
X140949000Y-120418700D01*
X138401000Y-120458700D02*
X140984000Y-120458700D01*
X138401000Y-120498700D02*
X141018000Y-120498700D01*
X138401000Y-120538700D02*
X141052000Y-120538700D01*
X138401000Y-120578700D02*
X141085000Y-120578700D01*
X138401000Y-120618700D02*
X141117000Y-120618700D01*
X138401000Y-120658700D02*
X141149000Y-120658700D01*
X138401000Y-120698700D02*
X141180000Y-120698700D01*
X138401000Y-120738700D02*
X141210000Y-120738700D01*
X138401000Y-120778700D02*
X141240000Y-120778700D01*
X138401000Y-120818700D02*
X141270000Y-120818700D01*
X138401000Y-120858700D02*
X141298000Y-120858700D01*
X138401000Y-120898700D02*
X141326000Y-120898700D01*
X138401000Y-120938700D02*
X141354000Y-120938700D01*
X138401000Y-120978700D02*
X141381000Y-120978700D01*
X138401000Y-121018700D02*
X141407000Y-121018700D01*
X138401000Y-121058700D02*
X141433000Y-121058700D01*
X138401000Y-121098700D02*
X141458000Y-121098700D01*
X138401000Y-121138700D02*
X141483000Y-121138700D01*
X138401000Y-121178700D02*
X141507000Y-121178700D01*
X138401000Y-121218700D02*
X141531000Y-121218700D01*
X138401000Y-121258700D02*
X141555000Y-121258700D01*
X138401000Y-121298700D02*
X141577000Y-121298700D01*
X138401000Y-121338700D02*
X141600000Y-121338700D01*
X138401000Y-121378700D02*
X141622000Y-121378700D01*
X138401000Y-121418700D02*
X141643000Y-121418700D01*
X138401000Y-121458700D02*
X141664000Y-121458700D01*
X138401000Y-121498700D02*
X141685000Y-121498700D01*
X138401000Y-121538700D02*
X141705000Y-121538700D01*
X138401000Y-121578700D02*
X141724000Y-121578700D01*
X138401000Y-121618700D02*
X141744000Y-121618700D01*
X138401000Y-121658700D02*
X141763000Y-121658700D01*
X138401000Y-121698700D02*
X141781000Y-121698700D01*
X138401000Y-121738700D02*
X141799000Y-121738700D01*
X138401000Y-121778700D02*
X141817000Y-121778700D01*
X138401000Y-121818700D02*
X141834000Y-121818700D01*
X138401000Y-121858700D02*
X141850000Y-121858700D01*
X138401000Y-121898700D02*
X141867000Y-121898700D01*
X138401000Y-121938700D02*
X141883000Y-121938700D01*
X138401000Y-121978700D02*
X141898000Y-121978700D01*
X138401000Y-122018700D02*
X141914000Y-122018700D01*
X138401000Y-122058700D02*
X141928000Y-122058700D01*
X138401000Y-122098700D02*
X141943000Y-122098700D01*
X138401000Y-122138700D02*
X141957000Y-122138700D01*
X138401000Y-122178700D02*
X141971000Y-122178700D01*
X138401000Y-122218700D02*
X141984000Y-122218700D01*
X138401000Y-122258700D02*
X141997000Y-122258700D01*
X138401000Y-122298700D02*
X142010000Y-122298700D01*
X138401000Y-122338700D02*
X142022000Y-122338700D01*
X138401000Y-122378700D02*
X142034000Y-122378700D01*
X138401000Y-122418700D02*
X142045000Y-122418700D01*
X138401000Y-122458700D02*
X142057000Y-122458700D01*
X138401000Y-122498700D02*
X142067000Y-122498700D01*
X138401000Y-122538700D02*
X142078000Y-122538700D01*
X142280000Y-123819700D02*
G75*
G02*
X132040000Y-123819700I-5120000J0D01*
G01*
X132040000Y-123819700D02*
G75*
G02*
X142280000Y-123819700I5120000J0D01*
G01*
X109950000Y-118306000D02*
X116490000Y-118306000D01*
X109950000Y-118636000D02*
X109950000Y-118306000D01*
X109950000Y-120716000D02*
X109950000Y-121046000D01*
X109950000Y-121046000D02*
X116490000Y-121046000D01*
X116490000Y-118306000D02*
X116490000Y-118636000D01*
X116490000Y-121046000D02*
X116490000Y-120716000D01*
%LPC*%
D15*
X129794000Y-126706000D03*
X129794000Y-125456000D03*
X129794000Y-122956000D03*
X129794000Y-121706000D03*
D16*
X137668000Y-116332000D03*
D17*
X137668000Y-113792000D03*
D16*
X137668000Y-109982000D03*
D17*
X137668000Y-107442000D03*
D18*
X92476000Y-115045000D03*
D19*
X94976000Y-115045000D03*
D20*
X100330000Y-86360000D03*
D21*
X100330000Y-88900000D03*
X100330000Y-91440000D03*
X100330000Y-93980000D03*
X100330000Y-96520000D03*
X100330000Y-99060000D03*
X100330000Y-101600000D03*
X100330000Y-104140000D03*
X100330000Y-106680000D03*
X100330000Y-109220000D03*
X100330000Y-111760000D03*
X100330000Y-114300000D03*
X100330000Y-116840000D03*
X100330000Y-119380000D03*
X100330000Y-121920000D03*
X125730000Y-121920000D03*
X125730000Y-119380000D03*
X125730000Y-116840000D03*
X125730000Y-114300000D03*
X125730000Y-111760000D03*
X125730000Y-109220000D03*
X125730000Y-106680000D03*
X125730000Y-104140000D03*
X125730000Y-101600000D03*
X125730000Y-99060000D03*
X125730000Y-96520000D03*
X125730000Y-93980000D03*
X125730000Y-91440000D03*
X125730000Y-88900000D03*
X125730000Y-86360000D03*
D15*
X109398000Y-107522000D03*
D22*
X117018000Y-107522000D03*
D15*
X94742000Y-127234000D03*
X94742000Y-125984000D03*
X94742000Y-123484000D03*
X94742000Y-122234000D03*
D23*
X87122000Y-126920000D03*
D24*
X87122000Y-121920000D03*
D15*
X117030000Y-113618000D03*
D22*
X109410000Y-113618000D03*
D25*
X90424000Y-105156000D03*
D26*
X91694000Y-105156000D03*
X92964000Y-105156000D03*
D16*
X106680000Y-88646000D03*
D17*
X109220000Y-88646000D03*
X111760000Y-88646000D03*
X114300000Y-88646000D03*
X116840000Y-88646000D03*
X119380000Y-88646000D03*
D27*
X81280000Y-81280000D03*
D28*
X91948000Y-84328000D03*
D29*
X91948000Y-86828000D03*
X91948000Y-89328000D03*
X91948000Y-91828000D03*
X91948000Y-94328000D03*
X91948000Y-96828000D03*
X91948000Y-99328000D03*
D28*
X83058000Y-86520000D03*
D29*
X83058000Y-89020000D03*
X83058000Y-91520000D03*
X83058000Y-94020000D03*
X83058000Y-96520000D03*
D15*
X117030000Y-110570000D03*
D22*
X109410000Y-110570000D03*
D27*
X142240000Y-129540000D03*
D30*
X131474800Y-106934000D03*
D31*
X131474800Y-105664000D03*
X131474800Y-104394000D03*
D15*
X130302000Y-109982000D03*
D22*
X130302000Y-117602000D03*
D28*
X83058000Y-111252000D03*
D29*
X83058000Y-113752000D03*
X83058000Y-116252000D03*
D32*
X83058000Y-102656000D03*
D33*
X83058000Y-105156000D03*
D15*
X117018000Y-104474000D03*
D22*
X109398000Y-104474000D03*
D16*
X131318000Y-95250000D03*
D17*
X133858000Y-95250000D03*
X131318000Y-97790000D03*
X133858000Y-97790000D03*
X131318000Y-100330000D03*
X133858000Y-100330000D03*
D15*
X117030000Y-116666000D03*
D22*
X109410000Y-116666000D03*
D15*
X109410000Y-128820000D03*
D22*
X117030000Y-128820000D03*
D27*
X81280000Y-129540000D03*
D15*
X109410000Y-122724000D03*
D22*
X117030000Y-122724000D03*
D15*
X133350000Y-117602000D03*
D22*
X133350000Y-109982000D03*
D27*
X142240000Y-81280000D03*
D34*
X90170000Y-110673000D03*
D35*
X92710000Y-110673000D03*
X95250000Y-110673000D03*
D15*
X109410000Y-125772000D03*
D22*
X117030000Y-125772000D03*
D23*
X137160000Y-126319700D03*
D24*
X137160000Y-121319700D03*
D15*
X109410000Y-119676000D03*
D22*
X117030000Y-119676000D03*
%LPD*%
M02*
