G04 #@! TF.GenerationSoftware,KiCad,Pcbnew,8.0.8*
G04 #@! TF.CreationDate,2025-02-16T00:04:15+01:00*
G04 #@! TF.ProjectId,ESP32ScoringDevice_PCB_THT_Rev1.2,45535033-3253-4636-9f72-696e67446576,1.1*
G04 #@! TF.SameCoordinates,Original*
G04 #@! TF.FileFunction,Soldermask,Top*
G04 #@! TF.FilePolarity,Negative*
%FSLAX46Y46*%
G04 Gerber Fmt 4.6, Leading zero omitted, Abs format (unit mm)*
G04 Created by KiCad (PCBNEW 8.0.8) date 2025-02-16 00:04:15*
%MOMM*%
%LPD*%
G01*
G04 APERTURE LIST*
G04 Aperture macros list*
%AMRoundRect*
0 Rectangle with rounded corners*
0 $1 Rounding radius*
0 $2 $3 $4 $5 $6 $7 $8 $9 X,Y pos of 4 corners*
0 Add a 4 corners polygon primitive as box body*
4,1,4,$2,$3,$4,$5,$6,$7,$8,$9,$2,$3,0*
0 Add four circle primitives for the rounded corners*
1,1,$1+$1,$2,$3*
1,1,$1+$1,$4,$5*
1,1,$1+$1,$6,$7*
1,1,$1+$1,$8,$9*
0 Add four rect primitives between the rounded corners*
20,1,$1+$1,$2,$3,$4,$5,0*
20,1,$1+$1,$4,$5,$6,$7,0*
20,1,$1+$1,$6,$7,$8,$9,0*
20,1,$1+$1,$8,$9,$2,$3,0*%
G04 Aperture macros list end*
%ADD10C,1.600000*%
%ADD11R,1.700000X1.700000*%
%ADD12O,1.700000X1.700000*%
%ADD13RoundRect,0.250000X-0.600000X-0.750000X0.600000X-0.750000X0.600000X0.750000X-0.600000X0.750000X0*%
%ADD14O,1.700000X2.000000*%
%ADD15R,1.524000X1.524000*%
%ADD16C,1.524000*%
%ADD17O,1.600000X1.600000*%
%ADD18R,2.000000X2.000000*%
%ADD19C,2.000000*%
%ADD20R,1.050000X1.500000*%
%ADD21O,1.050000X1.500000*%
%ADD22C,3.800000*%
%ADD23RoundRect,0.250000X-0.725000X0.600000X-0.725000X-0.600000X0.725000X-0.600000X0.725000X0.600000X0*%
%ADD24O,1.950000X1.700000*%
%ADD25R,1.500000X1.050000*%
%ADD26O,1.500000X1.050000*%
%ADD27RoundRect,0.250000X-0.750000X0.600000X-0.750000X-0.600000X0.750000X-0.600000X0.750000X0.600000X0*%
%ADD28O,2.000000X1.700000*%
%ADD29R,1.905000X2.000000*%
%ADD30O,1.905000X2.000000*%
G04 APERTURE END LIST*
D10*
X129794000Y-126706000D03*
X129794000Y-125456000D03*
X129794000Y-122956000D03*
X129794000Y-121706000D03*
D11*
X137668000Y-116332000D03*
D12*
X137668000Y-113792000D03*
D11*
X137668000Y-109982000D03*
D12*
X137668000Y-107442000D03*
D13*
X92476000Y-115045000D03*
D14*
X94976000Y-115045000D03*
D15*
X100330000Y-86360000D03*
D16*
X100330000Y-88900000D03*
X100330000Y-91440000D03*
X100330000Y-93980000D03*
X100330000Y-96520000D03*
X100330000Y-99060000D03*
X100330000Y-101600000D03*
X100330000Y-104140000D03*
X100330000Y-106680000D03*
X100330000Y-109220000D03*
X100330000Y-111760000D03*
X100330000Y-114300000D03*
X100330000Y-116840000D03*
X100330000Y-119380000D03*
X100330000Y-121920000D03*
X125730000Y-121920000D03*
X125730000Y-119380000D03*
X125730000Y-116840000D03*
X125730000Y-114300000D03*
X125730000Y-111760000D03*
X125730000Y-109220000D03*
X125730000Y-106680000D03*
X125730000Y-104140000D03*
X125730000Y-101600000D03*
X125730000Y-99060000D03*
X125730000Y-96520000D03*
X125730000Y-93980000D03*
X125730000Y-91440000D03*
X125730000Y-88900000D03*
X125730000Y-86360000D03*
D10*
X109398000Y-107522000D03*
D17*
X117018000Y-107522000D03*
D10*
X94742000Y-127234000D03*
X94742000Y-125984000D03*
X94742000Y-123484000D03*
X94742000Y-122234000D03*
D18*
X87122000Y-126920000D03*
D19*
X87122000Y-121920000D03*
D10*
X117030000Y-113618000D03*
D17*
X109410000Y-113618000D03*
D20*
X90424000Y-105156000D03*
D21*
X91694000Y-105156000D03*
X92964000Y-105156000D03*
D11*
X106680000Y-88646000D03*
D12*
X109220000Y-88646000D03*
X111760000Y-88646000D03*
X114300000Y-88646000D03*
X116840000Y-88646000D03*
X119380000Y-88646000D03*
D22*
X81280000Y-81280000D03*
D23*
X91948000Y-84328000D03*
D24*
X91948000Y-86828000D03*
X91948000Y-89328000D03*
X91948000Y-91828000D03*
X91948000Y-94328000D03*
X91948000Y-96828000D03*
X91948000Y-99328000D03*
D23*
X83058000Y-86520000D03*
D24*
X83058000Y-89020000D03*
X83058000Y-91520000D03*
X83058000Y-94020000D03*
X83058000Y-96520000D03*
D10*
X117030000Y-110570000D03*
D17*
X109410000Y-110570000D03*
D22*
X142240000Y-129540000D03*
D25*
X131474800Y-106934000D03*
D26*
X131474800Y-105664000D03*
X131474800Y-104394000D03*
D10*
X130302000Y-109982000D03*
D17*
X130302000Y-117602000D03*
D23*
X83058000Y-111252000D03*
D24*
X83058000Y-113752000D03*
X83058000Y-116252000D03*
D27*
X83058000Y-102656000D03*
D28*
X83058000Y-105156000D03*
D10*
X117018000Y-104474000D03*
D17*
X109398000Y-104474000D03*
D11*
X131318000Y-95250000D03*
D12*
X133858000Y-95250000D03*
X131318000Y-97790000D03*
X133858000Y-97790000D03*
X131318000Y-100330000D03*
X133858000Y-100330000D03*
D10*
X117030000Y-116666000D03*
D17*
X109410000Y-116666000D03*
D10*
X109410000Y-128820000D03*
D17*
X117030000Y-128820000D03*
D22*
X81280000Y-129540000D03*
D10*
X109410000Y-122724000D03*
D17*
X117030000Y-122724000D03*
D10*
X133350000Y-117602000D03*
D17*
X133350000Y-109982000D03*
D22*
X142240000Y-81280000D03*
D29*
X90170000Y-110673000D03*
D30*
X92710000Y-110673000D03*
X95250000Y-110673000D03*
D10*
X109410000Y-125772000D03*
D17*
X117030000Y-125772000D03*
D18*
X137160000Y-126319700D03*
D19*
X137160000Y-121319700D03*
D10*
X109410000Y-119676000D03*
D17*
X117030000Y-119676000D03*
M02*
